<?xml version="1.0" encoding="UTF-8" standalone="no"?>
<!-- Created with Inkscape (http://www.inkscape.org/) -->

<svg
   width="210mm"
   height="297mm"
   viewBox="0 0 210 297"
   version="1.1"
   id="svg5"
   inkscape:version="1.1 (c68e22c387, 2021-05-23)"
   sodipodi:docname="doctor bag icon sihoutte.svg"
   xmlns:inkscape="http://www.inkscape.org/namespaces/inkscape"
   xmlns:sodipodi="http://sodipodi.sourceforge.net/DTD/sodipodi-0.dtd"
   xmlns="http://www.w3.org/2000/svg"
   xmlns:svg="http://www.w3.org/2000/svg">
  <sodipodi:namedview
     id="namedview7"
     pagecolor="#ffffff"
     bordercolor="#666666"
     borderopacity="1.0"
     inkscape:pageshadow="2"
     inkscape:pageopacity="0.0"
     inkscape:pagecheckerboard="0"
     inkscape:document-units="mm"
     showgrid="false"
     inkscape:zoom="0.44799236"
     inkscape:cx="439.73964"
     inkscape:cy="561.3935"
     inkscape:window-width="1680"
     inkscape:window-height="956"
     inkscape:window-x="-11"
     inkscape:window-y="-11"
     inkscape:window-maximized="1"
     inkscape:current-layer="layer1" />
  <defs
     id="defs2" />
  <g
     inkscape:label="Layer 1"
     inkscape:groupmode="layer"
     id="layer1">
    <path
       style="fill:#000000;stroke-width:0.352778"
       d="m 63.880928,234.68413 c -1.552223,-0.13498 -3.457223,-0.4905 -4.233334,-0.79005 -0.776111,-0.29954 -2.998611,-0.62298 -4.938889,-0.71875 -4.490634,-0.22166 -4.490831,-0.22175 -6.316163,-3.04342 -2.756794,-4.26157 -3.587398,-11.46039 -2.04454,-17.71995 0.386583,-1.56841 0.544645,-2.90724 0.374842,-3.175 -0.161487,-0.25465 -0.296044,-1.6989 -0.299015,-3.20944 -0.0038,-1.9117 -0.176325,-3.0073 -0.567768,-3.60472 -0.635535,-0.96994 -3.534499,-2.99745 -4.285815,-2.99745 -0.584676,0 -1.553519,-0.88904 -1.273737,-1.16882 0.106966,-0.10697 -0.122514,-0.11159 -0.509955,-0.0103 -0.843097,0.22048 -2.430899,-0.74253 -2.718537,-1.64879 -0.495024,-1.55968 3.043816,-5.98762 5.222335,-6.5344 1.263639,-0.31715 1.235971,-1.32434 -0.06177,-2.24841 -2.687907,-1.91396 -2.797835,-5.71282 -0.383097,-13.23883 1.592097,-4.96208 1.767547,-6.84359 0.873304,-9.3652 -1.632269,-4.60272 -3.010389,-13.32086 -2.519405,-15.93804 0.364042,-1.94051 1.397641,-2.6109 5.327829,-3.45563 1.935182,-0.41594 3.846619,-0.67391 4.247638,-0.57326 0.401019,0.10065 1.236957,-0.12583 1.857641,-0.50329 3.935429,-2.39328 16.893185,-6.66371 32.028309,-10.55543 1.435432,-0.36909 1.435432,-0.36909 1.284556,-5.22339 -0.293818,-9.45331 1.217954,-12.71033 7.327745,-15.78717 4.325832,-2.17845 5.959327,-2.38608 16.221008,-2.06176 10.88021,0.34388 12.71905,0.3404 21.53266,-0.0407 7.68833,-0.33247 8.71256,-0.17569 13.61605,2.08425 6.13072,2.82555 7.77204,6.29534 7.47646,15.80542 -0.15088,4.8543 -0.15088,4.8543 1.28455,5.2222 12.423,3.18401 23.18034,6.59631 28.77572,9.12784 2.74248,1.24079 4.62844,1.87206 5.82083,1.94836 0.97014,0.0621 2.92196,0.38278 4.33737,0.71266 2.96041,0.68997 4.14941,1.63732 4.51749,3.59936 0.37144,1.97996 -0.42257,7.91496 -1.69041,12.63529 -1.52052,5.66112 -1.48887,7.59832 0.21328,13.05277 2.18426,6.99933 2.15422,9.52059 -0.14663,12.30493 -1.50753,1.82432 -1.70651,2.33535 -0.90931,2.33535 0.27552,0 1.53692,0.88437 2.80311,1.96528 2.29576,1.9598 3.29995,3.66506 2.84951,4.83889 -0.31572,0.82275 -1.89146,1.75232 -2.63903,1.55683 -0.35571,-0.093 -0.72695,0.0398 -0.82496,0.29526 -0.098,0.25542 -0.87652,0.7733 -1.73002,1.15084 -0.85349,0.37754 -2.13293,1.26756 -2.84318,1.97782 -1.27584,1.27583 -1.29145,1.32628 -1.29679,4.19004 -0.003,1.59426 -0.13753,3.107 -0.29902,3.36165 -0.16942,0.26716 -0.0161,1.6101 0.36241,3.175 0.74669,3.08687 0.90391,9.51897 0.2987,12.21957 -0.4942,2.20522 -3.11025,7.18813 -4.12176,7.8509 -0.5116,0.33521 -2.09536,0.5885 -4.42489,0.70768 -2.27125,0.11619 -4.41969,0.45396 -5.74476,0.90316 -3.00318,1.01807 -11.49626,0.91491 -24.34167,-0.29567 -20.67369,-1.94834 -28.15361,-2.28912 -30.8183,-1.40405 -1.87233,0.62189 -2.42996,0.6056 -6.04698,-0.1766 -2.37488,-0.51359 -9.07526,-0.26714 -19.755559,0.72663 -17.819886,1.65808 -26.310838,2.13686 -30.868057,1.74056 z m 7.761111,-2.45755 c 4.220165,-0.0779 3.063463,-0.51957 -2.293055,-0.87558 -3.692621,-0.24541 -5.644445,-0.71365 -5.644445,-1.35407 0,-0.22999 -0.35626,-0.57487 -0.791689,-0.7664 -0.435429,-0.19153 -0.85,-0.66573 -0.921269,-1.05379 -0.07127,-0.38805 -0.350008,-0.83251 -0.619422,-0.98767 -0.649369,-0.37398 -0.625484,-0.95261 0.03932,-0.95261 0.411083,0 0.529167,-0.46842 0.529167,-2.09913 0,-1.3176 0.167334,-2.20418 0.449441,-2.38125 0.993142,-0.6234 1.637915,-2.17814 1.564917,-3.77349 -0.04074,-0.89045 -0.171468,-1.6201 -0.290497,-1.62145 -0.437259,-0.005 -0.118279,-1.4133 0.477547,-2.10844 0.50793,-0.59259 0.523537,-0.71624 0.09041,-0.71624 -0.513789,0 -0.533446,-0.64829 -0.05348,-1.76389 0.125215,-0.29104 0.278354,-1.01259 0.34031,-1.60345 0.06196,-0.59086 0.220403,-1.24865 0.352106,-1.46174 0.131703,-0.2131 0.0085,-1.04216 -0.273855,-1.84235 -0.282323,-0.80019 -0.423011,-1.69021 -0.312639,-1.97784 0.110372,-0.28762 0.02494,-0.52295 -0.189845,-0.52295 -0.214787,0 -0.390521,-0.32687 -0.390521,-0.72638 0,-0.3995 -0.136759,-0.64185 -0.303909,-0.53854 -0.16715,0.1033 -0.257435,-1.19702 -0.200635,-2.8896 0.0568,-1.69259 0.112303,-3.4743 0.123338,-3.95937 0.03173,-1.3949 1.121783,-4.52406 1.64605,-4.72524 0.585285,-0.2246 0.985649,0.34274 0.638381,0.90464 -0.173908,0.28139 -0.05909,0.33752 0.360811,0.17638 0.338741,-0.12998 0.945011,-0.23634 1.347273,-0.23634 0.706723,0 0.710057,-0.0236 0.09885,-0.69893 -0.494778,-0.54672 -0.542449,-0.80749 -0.218888,-1.19735 0.321493,-0.38738 0.293045,-0.61901 -0.127702,-1.03975 -0.297741,-0.29774 -0.541345,-0.79081 -0.541345,-1.09571 0,-0.3049 -0.16812,-0.55437 -0.373599,-0.55437 -0.205479,0 -0.275918,-0.15805 -0.156531,-0.35122 0.119387,-0.19317 -0.163329,-0.7091 -0.628255,-1.14652 -0.696844,-0.65562 -0.827486,-1.08425 -0.743796,-2.44032 0.0729,-1.18119 -0.04249,-1.70027 -0.409259,-1.84101 -0.28093,-0.1078 -0.510782,-0.49997 -0.510782,-0.87149 0,-0.63005 -0.829922,-1.13532 -2.116667,-1.28864 -1.000343,-0.1192 -2.409839,-0.96698 -2.561367,-1.54061 -0.08345,-0.31589 -0.940847,-0.97939 -1.905336,-1.47443 -1.159417,-0.5951 -1.696379,-1.07324 -1.584699,-1.41111 0.139036,-0.42063 0.07307,-0.43195 -0.372904,-0.064 -0.691472,0.57054 -1.566032,0.23989 -1.807464,-0.68334 -0.109615,-0.41917 -0.352929,-0.61435 -0.58616,-0.47021 -0.606036,0.37455 -1.907269,-0.91701 -1.332769,-1.32286 0.357072,-0.25225 0.358783,-0.35415 0.0083,-0.49635 -0.511912,-0.20771 -0.59721,-1.41656 -0.112195,-1.59004 0.180827,-0.0647 0.402908,-2.21023 0.493512,-4.76789 0.0906,-2.55767 0.26981,-4.82032 0.398235,-5.02812 0.128425,-0.20779 -0.202277,-1.17848 -0.734894,-2.15707 -0.797434,-1.46515 -1.026169,-1.67602 -1.29566,-1.19446 -0.519039,0.92747 -0.100398,27.21319 0.457546,28.72856 0.250037,0.6791 1.154221,2.22718 2.009299,3.44018 2.7863,3.95261 2.796712,4.00194 4.523384,21.43066 1.568749,15.83467 2.163368,19.48224 3.297046,20.22505 0.82147,0.53825 5.003715,1.10734 6.750533,0.91856 0.48507,-0.0524 2.469445,-0.12462 4.409723,-0.16044 z m 104.061631,-0.71512 c 0.97405,-0.97531 2.35683,-10.51014 3.52772,-24.325 0.92236,-10.88265 1.60436,-13.79553 3.98512,-17.02099 2.34884,-3.18221 2.5758,-4.10888 2.80754,-11.46311 0.18707,-5.93666 0.15542,-6.4409 -0.40427,-6.4409 -0.45354,0 -0.54856,0.18483 -0.37543,0.73031 0.1755,0.55294 0.0528,0.77713 -0.5054,0.92309 -0.40545,0.10603 -0.73718,0.35 -0.73718,0.54215 0,0.19216 -0.23813,0.25801 -0.52917,0.14632 -0.29104,-0.11168 -0.52916,-0.0399 -0.52916,0.15947 0,0.19939 -0.19844,0.24331 -0.44098,0.0976 -0.27177,-0.16327 -0.24521,-0.0239 0.0692,0.36332 0.44507,0.54806 0.44507,0.61715 0,0.54125 -1.14357,-0.19501 -4.75988,2.24924 -4.33793,2.93198 0.12792,0.20697 0.0799,0.28198 -0.1066,0.16669 -0.18654,-0.11529 -1.01085,0.17191 -1.8318,0.63822 -1.49264,0.84783 -1.49264,0.84783 -1.88863,-0.0213 -0.42923,-0.94206 -0.84715,-1.11616 -1.07055,-0.44597 -0.0867,0.26008 -0.2324,0.18506 -0.37813,-0.19471 -0.13205,-0.34413 -0.0934,-0.52904 0.0873,-0.41738 0.1784,0.11025 0.41292,0.0572 0.52116,-0.11796 0.10824,-0.17514 -0.11914,-0.40104 -0.50528,-0.50202 -0.38614,-0.10098 -0.61989,-0.0506 -0.51944,0.1119 0.10044,0.16253 0.0187,0.39682 -0.18166,0.52064 -0.20036,0.12383 -0.2702,0.37739 -0.1552,0.56345 0.63929,1.03439 0.45775,2.54953 -0.3849,3.21235 -0.47906,0.37683 -0.87101,0.90676 -0.87101,1.17763 0,0.29283 -0.21453,0.41017 -0.52917,0.28943 -0.32465,-0.12459 -0.52916,3.5e-4 -0.52916,0.32327 0,0.28949 -0.41065,0.79541 -0.91255,1.12427 -0.50191,0.32886 -0.82574,0.68474 -0.71963,0.79085 0.32837,0.32838 -0.77258,2.11805 -1.80036,2.9266 -1.21796,0.95816 -3.10819,1.76299 -4.14059,1.76299 -0.43131,0 -1.05104,0.29486 -1.37719,0.65525 -0.56961,0.62942 -0.51716,0.66308 1.32996,0.85372 2.63603,0.27207 4.98408,1.37465 5.80613,2.7264 0.85393,1.40416 1.2583,3.80231 0.74537,4.42037 -0.54111,0.65199 -0.0564,2.98592 0.6201,2.98592 0.35736,0 0.4707,0.23076 0.34654,0.70556 -0.10148,0.38805 -0.0406,0.70555 0.13524,0.70555 0.17587,0 0.31975,-0.14176 0.31975,-0.31503 0,-0.42232 0.94662,-0.76403 1.51372,-0.54641 0.76862,0.29495 1.32952,2.18901 0.71777,2.42376 -0.53961,0.20706 -0.32383,0.90713 0.2796,0.90713 0.19403,0 0.26582,-0.1407 0.15953,-0.31267 -0.10628,-0.17197 0.14165,-0.40025 0.55096,-0.50728 0.67909,-0.17759 0.72635,-0.0847 0.54028,1.06193 -0.24196,1.49104 -0.51781,1.85166 -0.91937,1.20191 -0.16361,-0.26473 -0.48494,-0.35805 -0.72404,-0.21027 -0.33075,0.20441 -0.3195,0.33687 0.0487,0.57436 0.39705,0.25607 0.38844,0.37151 -0.0505,0.67725 -0.42102,0.29324 -0.34893,0.34731 0.35278,0.26458 0.48507,-0.0572 1.05615,-0.32646 1.26907,-0.59839 0.64404,-0.82255 0.91657,0.11285 0.89523,3.07273 -0.0268,3.7252 -0.37355,4.79938 -1.57895,4.89203 -0.52493,0.0403 -0.87335,-0.0578 -0.77427,-0.21813 0.0991,-0.16031 -0.57564,-0.81253 -1.49937,-1.44938 -1.67952,-1.15792 -1.67952,-1.15792 -1.54073,-3.65676 0.0763,-1.37437 0.25538,-2.57823 0.39788,-2.67524 0.1425,-0.097 0.0725,-0.72325 -0.15549,-1.39163 -0.63305,-1.85561 -0.83744,-0.93033 -0.77473,3.50736 0.0526,3.7258 0.11254,4.05802 0.75395,4.18196 0.81795,0.15804 1.63607,1.11608 1.43797,1.6839 -0.0772,0.22121 0.23117,0.39688 0.69659,0.39688 1.55385,0 1.96319,0.86685 2.1648,4.5844 0.27244,5.02341 0.16253,6.02082 -0.61077,5.54289 -0.18062,-0.11163 -0.3284,0.17868 -0.3284,0.64513 0,0.46645 -0.31376,1.13203 -0.69724,1.47908 -0.38348,0.34704 -0.61154,0.76964 -0.50681,0.93911 0.10474,0.16947 -0.0974,0.41409 -0.44929,0.54361 -0.35185,0.12952 -0.76019,0.43432 -0.90743,0.67733 -0.27431,0.45273 -3.33667,0.44368 -4.77905,-0.0141 -0.39308,-0.12476 -0.8168,-0.0616 -0.94159,0.14029 -0.33633,0.54419 -0.89868,0.44532 -0.6818,-0.11987 0.15068,-0.39264 -0.37634,-0.47555 -2.72004,-0.42794 -1.81479,0.0369 -2.95731,0.21022 -3.04105,0.46143 -0.0847,0.25417 -0.61368,0.3299 -1.43616,0.20561 -0.91961,-0.13897 -1.19843,-0.0853 -0.94927,0.18259 0.83119,0.8938 18.85933,0.93821 19.74774,0.0486 z m 5.82865,-54.84028 c 0,-0.30575 0.21007,-0.42641 0.52917,-0.30396 0.29104,0.11168 0.52917,0.24847 0.52917,0.30396 0,0.0555 -0.23813,0.19228 -0.52917,0.30397 -0.3191,0.12245 -0.52917,0.002 -0.52917,-0.30397 z m -94.096761,54.27277 c -0.238841,-0.0966 -0.715091,-0.10251 -1.058333,-0.0131 -0.343242,0.0894 -0.147825,0.16851 0.434259,0.1757 0.582083,0.007 0.862915,-0.066 0.624074,-0.16263 z m -30.434328,-1.09151 c -0.504489,-1.54586 -2.821693,-21.45237 -2.821693,-24.24045 0,-1.57151 -2.77901,0.4637 -4.045273,2.96255 -2.916796,5.75602 -3.043248,14.59876 -0.275269,19.24942 1.870699,3.14309 1.644337,2.99861 4.698164,2.99861 2.760676,0 2.760676,0 2.444071,-0.97013 z m 88.724149,0.71858 c -0.38806,-0.0933 -0.85637,-0.31305 -1.0407,-0.48824 -0.18432,-0.1752 -0.58924,-0.31854 -0.89981,-0.31854 -0.95733,0 -2.46356,-0.85405 -2.46646,-1.39851 -0.002,-0.43018 -0.0988,-0.42052 -0.57706,0.0577 -0.50766,0.50766 -0.75725,0.51924 -2.15092,0.0998 -0.86714,-0.26097 -1.77105,-0.39988 -2.00869,-0.30869 -0.23765,0.0912 -0.63845,-0.27689 -0.89069,-0.81797 -0.42603,-0.91389 -0.47715,-0.93365 -0.71963,-0.27821 -0.19441,0.52548 -0.32694,0.23286 -0.51928,-1.14653 -0.14203,-1.01865 -0.4021,-1.85208 -0.57792,-1.85208 -0.17582,0 -0.31968,0.15875 -0.31968,0.35277 0,0.19403 -0.15875,0.35278 -0.35277,0.35278 -0.4848,0 -0.28471,-0.79432 0.31965,-1.26899 0.27283,-0.21427 0.52345,-0.7614 0.55693,-1.21585 0.0335,-0.45444 0.24692,-0.88827 0.47433,-0.96407 0.25202,-0.084 0.32975,0.0803 0.19908,0.42082 -0.1179,0.30726 -0.0386,0.55865 0.17615,0.55865 0.21479,0 0.39052,-0.16812 0.39052,-0.3736 0,-0.20548 0.1669,-0.27045 0.37089,-0.14438 0.20399,0.12608 0.13674,-0.33117 -0.14944,-1.0161 -0.44427,-1.06328 -0.44692,-1.21715 -0.0181,-1.0526 0.5465,0.20971 0.60049,-0.01 0.28852,-1.1726 -0.19201,-0.71571 -0.28426,-0.67804 -1.56076,0.63731 -0.74618,0.76889 -1.40625,1.73375 -1.46681,2.14414 -0.0606,0.4104 -0.32954,0.81852 -0.59773,0.90694 -0.3665,0.12084 -0.44715,-0.11491 -0.3247,-0.9492 0.0998,-0.68018 -0.0218,-1.2633 -0.31422,-1.50595 -0.37521,-0.3114 -0.42959,-0.27213 -0.25461,0.18387 0.3291,0.85764 -0.14135,2.34217 -0.74225,2.34217 -0.28734,0 -0.52244,0.16812 -0.52244,0.3736 0,0.20547 0.14778,0.28226 0.3284,0.17063 0.18062,-0.11163 0.44327,-0.0171 0.58367,0.21008 0.15943,0.25795 0.10236,0.31853 -0.15201,0.16132 -0.22401,-0.13845 -0.40729,-0.0985 -0.40729,0.0889 0,0.18732 -0.34232,0.25105 -0.76072,0.14164 -0.52375,-0.13696 -0.68158,-0.0709 -0.50667,0.21212 0.28166,0.45574 -0.33585,1.19942 -1.29872,1.56409 -0.34421,0.13037 -0.77071,0.59773 -0.94778,1.0386 -0.17707,0.44086 -0.332,0.6579 -0.3443,0.48231 -0.0123,-0.17559 -0.33756,-0.034 -0.72281,0.31463 -1.04799,0.94842 -4.49422,0.90696 -5.28007,-0.0635 -0.7336,-0.90595 -4.15259,-1.12545 -4.47424,-0.28724 -0.20728,0.54019 -2.04646,1.59012 -2.78541,1.59012 -0.23748,0 -0.6294,0.23812 -0.87094,0.52917 -0.37328,0.44977 -0.28502,0.52916 0.58824,0.52916 0.56507,0 1.93389,0.23611 3.0418,0.52469 1.78293,0.46439 2.24587,0.46439 4.0288,0 2.67501,-0.69676 8.71246,-0.64163 17.38838,0.15875 6.96463,0.64252 9.61485,0.79472 8.29028,0.47612 z m 40.25459,-2.39373 c 1.90167,-3.12426 2.43903,-5.74545 2.1265,-10.37277 -0.39343,-5.82507 -1.72032,-9.69042 -4.01945,-11.70909 -1.35258,-1.18758 -2.20192,-1.31875 -2.20192,-0.34004 0,3.23149 -2.53251,23.96024 -3.02459,24.75644 -0.1304,0.211 0.89648,0.30114 2.70321,0.2373 2.91349,-0.10294 2.91349,-0.10294 4.41625,-2.57184 z m -78.3546,1.23128 c 1.56283,-0.009 1.10133,-0.65254 -0.52916,-0.73818 -0.67244,-0.0353 -0.72505,-0.0866 -0.22147,-0.21596 0.60501,-0.1554 0.59311,-0.2038 -0.14177,-0.57644 -0.44122,-0.22374 -0.97656,-0.7243 -1.18963,-1.11236 -0.21308,-0.38806 -0.5179,-0.80136 -0.67738,-0.91846 -0.67338,-0.4944 -0.56142,-3.73205 0.1146,-3.31424 0.16666,0.10299 0.39342,0.041 0.50393,-0.13783 0.11861,-0.19193 -0.64566,-0.24833 -1.86589,-0.13768 -2.02676,0.18378 -2.07368,0.16771 -2.42115,-0.82902 -0.20304,-0.58244 -0.22924,-1.35455 -0.0614,-1.80835 0.28412,-0.76806 0.0303,-0.99356 -0.90914,-0.8076 -0.18858,0.0373 -0.0695,-0.23418 0.26458,-0.60336 0.33411,-0.36918 0.60747,-0.76059 0.60747,-0.8698 0,-0.39584 -1.842083,-0.64933 -2.25121,-0.30978 -0.451182,0.37444 -0.437706,0.42986 -0.618508,-2.54373 -0.07256,-1.19337 0.04997,-1.79337 0.413142,-2.02307 0.35149,-0.22232 0.375535,-0.32828 0.07532,-0.33196 -0.242534,-0.003 -0.440972,-0.16415 -0.440972,-0.35818 0,-0.19402 0.3175,-0.35277 0.705556,-0.35277 0.470369,0 0.705555,-0.23519 0.705555,-0.70556 0,-0.70556 0,-0.70556 -0.705555,0 -1.200704,1.2007 -1.409637,0.85555 -1.441433,-2.38125 -0.02424,-2.46765 -0.09663,-2.87452 -0.360891,-2.02847 -0.181815,0.58208 -0.257408,3.43958 -0.16799,6.35 0.08942,2.91041 0.172449,5.73125 0.184503,6.26852 0.01912,0.8518 0.130464,0.94962 0.869728,0.76408 0.604425,-0.1517 0.955802,-0.027 1.223994,0.43425 0.206904,0.35587 0.381018,0.50656 0.386916,0.33488 0.0059,-0.17169 0.328225,0.0915 0.716285,0.58481 0.72121,0.91687 0.98999,2.59061 0.35278,2.19679 -0.19403,-0.11991 -0.35278,-0.0499 -0.35278,0.15557 0,0.54555 0.67312,0.45643 1.30192,-0.17237 0.30028,-0.30028 0.62534,-0.46659 0.72235,-0.36957 0.097,0.097 -0.0739,0.42666 -0.37978,0.73256 -0.61419,0.61419 -0.45809,1.43237 0.33106,1.7352 0.53766,0.20632 0.19472,1.13778 -0.82902,2.2517 -0.50158,0.54575 -0.53669,0.82783 -0.20925,1.68113 0.19882,0.5181 0.56206,0.57265 2.55764,0.38414 1.27925,-0.12085 2.96091,-0.22329 3.73702,-0.22764 z m -26.811108,-3.73634 c 0.388056,-0.10252 2.372431,-0.25256 4.409723,-0.33342 5.437829,-0.21582 9.073861,-0.49786 9.74658,-0.756 0.545416,-0.2093 0.573747,-1.12212 0.352263,-11.35011 -0.132468,-6.11738 -0.300394,-11.18205 -0.373162,-11.25482 -0.07277,-0.0728 -0.810877,0.21387 -1.640236,0.63698 -1.265411,0.64557 -1.412301,0.8228 -0.913335,1.10204 0.327025,0.18301 0.752083,0.23541 0.944573,0.11645 0.519952,-0.32135 0.423591,0.29872 -0.167965,1.08082 -0.689751,0.91194 -0.668034,1.46435 0.08285,2.10727 0.753466,0.64514 0.783293,3.61236 0.04093,4.07116 -0.290206,0.17936 -0.431374,0.7764 -0.3652,1.54451 0.06253,0.72577 -0.05178,1.25213 -0.271928,1.25213 -0.208894,0 -0.379807,0.41906 -0.379807,0.93125 0,0.51218 -0.262957,1.12353 -0.584349,1.35853 -0.345478,0.25262 -0.571436,0.8814 -0.55276,1.5382 0.03358,1.18111 -0.222084,1.37449 -0.909003,0.68758 -0.329258,-0.32926 -0.423333,-0.29007 -0.423333,0.17638 0,0.83219 -0.731213,0.7542 -0.955079,-0.10186 -0.222656,-0.85144 -0.80881,-0.58356 -0.80881,0.36963 0,0.3766 -0.119063,0.66594 -0.264583,0.64296 -0.818011,-0.12916 -1.033279,0.12286 -0.864352,1.01191 0.165488,0.87095 0.124414,0.92064 -0.401697,0.48598 -0.387516,-0.32016 -0.586035,-0.34863 -0.586035,-0.084 0,0.43321 -2.176547,0.27742 -4.056944,-0.29038 -0.582084,-0.17577 -2.39884,-0.39664 -4.037236,-0.49082 -2.353366,-0.13528 -3.080872,-0.3079 -3.464486,-0.82202 -0.267067,-0.35793 -0.617897,-0.61618 -0.779621,-0.57387 -0.692464,0.18113 -1.030767,-1.00137 -1.133754,-3.96292 -0.09868,-2.8377 -0.181959,-3.17343 -0.81546,-3.28744 -0.570639,-0.10271 -0.621231,-0.0395 -0.264583,0.33059 0.600675,0.62329 0.554097,1.2559 -0.111263,1.51122 -0.431584,0.16562 -0.500401,0.0486 -0.314984,-0.5356 0.15955,-0.5027 0.109336,-0.66846 -0.153321,-0.50613 -0.214814,0.13276 -0.390571,0.38372 -0.390571,0.55768 0,0.17396 -0.396875,0.90112 -0.881944,1.61591 -0.827652,1.21961 -0.881945,1.57891 -0.881945,5.8365 0,4.53688 0,4.53688 1.322917,4.55155 0.727604,0.008 2.116667,0.29949 3.086806,0.64759 1.697612,0.60913 5.786201,0.70639 7.761111,0.18462 z m 71.875858,-0.52483 c 2.16823,-0.0369 3.09743,-0.18686 3.22543,-0.52042 0.1337,-0.3484 0.46109,-0.38786 1.27683,-0.15391 0.60337,0.17304 1.28638,0.24708 1.5178,0.16452 0.40948,-0.14609 4.72583,-0.43195 7.38812,-0.4893 1.32291,-0.0285 1.32291,-0.0285 1.29201,-7.17224 -0.0267,-6.16566 -0.47894,-13.05775 -0.62752,-9.56275 -0.0266,0.62529 -0.27788,1.19733 -0.5763,1.31185 -0.29104,0.11168 -0.52917,0.44058 -0.52917,0.73088 0,0.29031 -0.3175,0.69775 -0.70555,0.90543 -0.38806,0.20768 -0.70556,0.62853 -0.70556,0.93521 0,0.30668 -0.27751,1.33894 -0.61669,2.29392 -0.50282,1.41574 -0.53058,1.78955 -0.15032,2.02456 0.38604,0.23858 0.38513,0.37302 -0.005,0.78046 -0.82908,0.86534 -1.73211,2.44339 -1.55874,2.72391 0.22883,0.37026 -0.16015,0.8568 -1.10967,1.38797 -0.57096,0.3194 -1.80957,0.38486 -4.39742,0.23242 -5.1623,-0.30408 -5.37929,-0.3421 -5.50195,-0.96387 -0.061,-0.30909 -0.41817,-0.65951 -0.79375,-0.77872 -1.14093,-0.36211 -0.66402,-1.27068 1.44084,-2.74498 0.6255,-0.43812 0.74292,-0.6959 0.45029,-0.98854 -0.504,-0.504 -1.21209,-0.0834 -1.08406,0.64391 0.0537,0.30479 -0.11755,0.62911 -0.38045,0.7207 -0.35619,0.12409 -0.41325,-0.0464 -0.22395,-0.66896 0.42524,-1.39848 0.38935,-1.47283 -0.83977,-1.74 -0.98361,-0.21381 -1.21808,-0.14701 -1.35768,0.38682 -0.0985,0.37673 -0.37449,0.56631 -0.66314,0.45554 -0.29762,-0.11421 -0.49441,0.0359 -0.49441,0.37719 0,0.3118 0.23813,0.56691 0.52917,0.56691 1.03376,0 0.50912,0.52983 -0.56283,0.56839 -1.00881,0.0363 -1.07916,-0.0372 -0.94045,-0.98227 0.11508,-0.78414 0.0202,-1.00022 -0.40812,-0.92997 -0.79458,0.13031 -1.44149,-0.35843 -1.22414,-0.92482 0.10176,-0.26521 0.0154,-0.58699 -0.1918,-0.71508 -0.41631,-0.25729 -0.44718,-2.34366 -0.055,-3.71903 0.25146,-0.88195 0.25146,-0.88195 0.75524,-0.0882 0.62444,0.98384 1.18543,1.03662 0.93741,0.0882 -0.10148,-0.38806 -0.0605,-0.70556 0.0911,-0.70556 0.15161,0 0.27565,-0.38753 0.27565,-0.86118 0,-0.78684 -0.0647,-0.82157 -0.74965,-0.40232 -0.6176,0.37804 -0.90501,0.3753 -1.6316,-0.0156 -0.84708,-0.45567 -0.85138,-0.47463 -0.10901,-0.47963 1.04966,-0.007 1.41756,-0.71137 0.49729,-0.95203 -0.40757,-0.10659 -0.74105,-0.31551 -0.74105,-0.46428 0,-0.14877 -0.29649,-0.34802 -0.65887,-0.44279 -0.84026,-0.21973 -1.21565,-2.28245 -0.48936,-2.68891 0.39316,-0.22002 0.31786,-0.39671 -0.35771,-0.83936 -0.8557,-0.56067 -0.8557,-0.56067 -1.08599,4.7599 -0.12666,2.92631 -0.22524,7.87501 -0.21907,10.99711 0.0129,6.50804 0.14998,6.91128 2.35013,6.91128 0.77089,0 1.50682,0.10521 1.63541,0.23379 0.12858,0.12859 0.72522,0.28759 1.32586,0.35335 0.60064,0.0658 1.35533,0.27706 1.67708,0.46956 0.32176,0.19251 0.9112,0.27638 1.30985,0.1864 0.39866,-0.09 2.09537,-0.18696 3.77047,-0.2155 z m -30.70669,-2.15649 c -0.32926,-0.32926 -0.51741,-0.32926 -0.84667,0 -0.32925,0.32926 -0.23518,0.42333 0.42334,0.42333 0.65852,0 0.75259,-0.0941 0.42333,-0.42333 z m 2.04611,-0.43459 c 0,-0.27783 0.44979,-0.82543 0.99954,-1.21688 1.59286,-1.13421 1.33083,-1.92912 -0.35278,-1.0702 -1.30834,0.66746 -1.8987,1.31349 -0.82315,0.90076 0.29105,-0.11168 0.52917,-0.0493 0.52917,0.13864 0,0.18794 -0.12056,0.34171 -0.26792,0.34171 -0.14735,0 -0.4662,0.3175 -0.70854,0.70556 -0.36751,0.58847 -0.35232,0.70555 0.0915,0.70555 0.29268,0 0.53215,-0.22731 0.53215,-0.50514 z m -4.59108,-1.38888 c 0.78136,-0.84768 2.73241,-2.34566 4.33564,-3.32884 3.75964,-2.30558 5.36742,-3.92114 5.8637,-5.89208 0.53847,-2.13845 0.48206,-6.42219 -0.13702,-10.4045 -0.28654,-1.84327 -0.71441,-4.81983 -0.95082,-6.61459 -0.42984,-3.26319 -0.42984,-3.26319 -4.29781,-3.26319 -3.78508,0 -4.86095,0.31818 -1.95953,0.57953 1.62797,0.14664 2.18916,0.38525 1.92215,0.81727 -0.0985,0.15935 0.36961,0.39265 1.04021,0.51846 0.67059,0.1258 1.31327,0.38085 1.42818,0.56678 0.13154,0.21282 -0.12524,0.211 -0.69318,-0.005 -0.58541,-0.22257 -0.9021,-0.22219 -0.9021,0.001 0,0.18923 -0.23813,0.34405 -0.52917,0.34405 -0.29104,0 -0.52917,0.15875 -0.52917,0.35278 0,0.19403 0.11907,0.33398 0.26459,0.311 0.95154,-0.15024 1.4993,0.12279 1.4993,0.74733 0,0.43595 0.23591,0.70639 0.61736,0.70773 0.41016,0.001 0.27298,0.18177 -0.40872,0.53727 -0.64919,0.33855 -1.65345,0.48563 -2.73403,0.40041 -0.93937,-0.0741 -1.70794,-0.0204 -1.70794,0.11936 0,0.13973 -0.39503,0.17854 -0.87784,0.0863 -0.53507,-0.10229 -0.78412,-0.32424 -0.63783,-0.56844 0.13462,-0.22473 -0.008,-0.1995 -0.32548,0.0575 -0.38017,0.30798 -0.6404,0.33688 -0.7941,0.0882 -0.12574,-0.20345 -0.46674,-0.3699 -0.75778,-0.3699 -0.29104,0 -0.44217,0.14076 -0.33584,0.3128 0.10633,0.17204 -0.0552,0.51902 -0.35885,0.77107 -0.45585,0.37832 -0.60807,0.36991 -0.87266,-0.0482 -0.17626,-0.27857 -0.32292,-0.36799 -0.32589,-0.19871 -0.003,0.16928 -0.25892,0.0974 -0.56877,-0.15977 -0.51155,-0.42455 -0.50343,-0.49114 0.0882,-0.72396 0.60054,-0.23633 0.59493,-0.25834 -0.0716,-0.2812 -0.39776,-0.0136 -0.9231,0.17365 -1.16743,0.41618 -0.35635,0.35373 -0.39951,0.30138 -0.21815,-0.26458 0.21156,-0.66021 0.1934,-0.66588 -0.28257,-0.0882 -0.27977,0.33955 -0.76898,0.61736 -1.08713,0.61736 -0.31816,0 -0.57847,0.13126 -0.57847,0.29168 0,0.48076 -2.15757,0.0122 -2.35882,-0.51222 -0.10236,-0.26676 -0.38782,-0.48501 -0.63434,-0.48501 -0.24653,0 -0.64586,-0.23813 -0.8874,-0.52917 -0.62803,-0.75672 -1.14527,-0.65328 -0.88195,0.17639 0.12317,0.38806 0.0811,0.70556 -0.0935,0.70556 -0.46032,0 -1.50293,7.45967 -1.49812,10.71879 0.008,5.37194 0.81903,6.77104 5.67904,9.79599 1.94081,1.20798 4.11698,2.86576 4.83593,3.68394 0.71896,0.81818 1.34361,1.50255 1.38812,1.52083 0.0445,0.0183 0.72023,-0.66033 1.5016,-1.50802 z m -15.58377,-0.94194 c 0.77212,-0.71934 1.04888,-1.25731 0.4594,-0.89299 -0.17197,0.10628 -0.39324,-0.11486 -0.49171,-0.49143 -0.19348,-0.73988 0.27596,-1.04773 1.22318,-0.80213 0.48222,0.12503 0.53208,0.33176 0.26266,1.08911 -0.33253,0.93479 -0.33253,0.93479 0.37483,0.0529 0.38904,-0.48507 0.85946,-1.06651 1.04536,-1.29209 0.22391,-0.27169 0.16441,-0.55421 -0.17626,-0.83694 -0.47396,-0.39336 -0.66769,-0.22866 -0.55102,0.46844 0.0258,0.15383 -0.27295,0.10856 -0.66378,-0.10061 -0.39082,-0.20916 -0.71059,-0.70158 -0.71059,-1.09426 0,-0.39268 0.15875,-0.61585 0.35278,-0.49593 0.51496,0.31826 0.43393,-0.0306 -0.26458,-1.13903 -0.43321,-0.68747 -0.85413,-0.94576 -1.41111,-0.86594 -0.52304,0.075 -0.79375,-0.068 -0.79375,-0.41912 0,-0.73105 0.64195,-1.06648 1.18249,-0.61787 0.35699,0.29628 0.37311,0.0558 0.0807,-1.20435 -0.42402,-1.82762 -0.76172,-1.99641 -1.08148,-0.54057 -0.24244,1.10379 -1.01949,1.96624 -1.50256,1.66768 -0.16137,-0.0997 -0.32784,0.2349 -0.36994,0.74362 -0.0421,0.50872 -0.26977,1.04436 -0.50593,1.19031 -0.540319,0.33393 0.53657,0.81333 1.21491,0.54084 0.27642,-0.11104 0.20418,-0.19266 -0.18557,-0.20966 -0.351,-0.0153 -0.55643,-0.16014 -0.45651,-0.32182 0.0999,-0.16167 0.66492,-0.22303 1.25555,-0.13634 1.20735,0.1772 1.50926,1.45641 0.56629,2.39938 -0.44158,0.44158 -0.48888,0.3351 -0.36385,-0.81894 0.0791,-0.72959 0.0573,-1.04677 -0.0483,-0.70485 -0.10561,0.34193 -0.32077,0.54211 -0.47813,0.44486 -0.15735,-0.0973 -0.48228,0.0596 -0.72205,0.34846 -0.35625,0.42926 -0.32905,0.52528 0.14883,0.52528 0.47546,0 0.51419,0.1319 0.20717,0.70556 -0.25601,0.47836 -0.26,0.70555 -0.0124,0.70555 0.20085,0 0.37772,0.27782 0.39304,0.61736 0.0166,0.36881 0.0995,0.43983 0.20578,0.17639 0.23898,-0.59224 0.65999,-0.55528 1.33223,0.11696 0.50872,0.50872 0.4876,0.61659 -0.23939,1.22299 -0.43852,0.36578 -0.6288,0.67033 -0.42286,0.67679 0.20595,0.006 0.72189,-0.31195 1.14653,-0.70756 z m 0.0772,-5.11918 c 0.009,-0.91232 0.0574,-0.96035 0.38933,-0.38933 0.27134,0.46682 0.2683,0.76167 -0.0107,1.0407 -0.28392,0.28392 -0.38643,0.10757 -0.3786,-0.65137 z m -2.58362,-1.33059 c -0.0984,-0.25646 0.098,-0.63925 0.43652,-0.85065 0.53203,-0.33226 0.59341,-0.26906 0.45284,0.46629 -0.17803,0.9313 -0.60815,1.11719 -0.88936,0.38436 z m 27.75945,4.99245 c -0.17051,-0.27589 -0.0642,-0.33948 0.32066,-0.1918 0.31666,0.12151 0.66279,0.0801 0.76918,-0.0921 0.27532,-0.44548 -0.35724,-0.75623 -1.02095,-0.50154 -0.62399,0.23945 -0.77395,1.19813 -0.18741,1.19813 0.20548,0 0.25881,-0.18573 0.11852,-0.41273 z m 29.05479,-3.55602 c -0.0799,-0.24254 -0.52967,-0.49315 -0.99954,-0.55693 -0.83669,-0.11356 -0.83976,-0.1047 -0.14875,0.42975 0.86077,0.66576 1.34326,0.7192 1.14829,0.12718 z m -73.801269,-1.04981 c 1.540415,-0.412 1.607852,-0.4829 1.425995,-1.49931 -0.104987,-0.58677 -0.297187,-2.14414 -0.427112,-3.46083 -0.129928,-1.31669 -0.332785,-2.34442 -0.450793,-2.28385 -3.141546,1.61237 -2.793369,1.55654 -4.359035,0.69894 -1.604445,-0.87884 -1.913848,-0.8282 -1.352166,0.22131 0.463084,0.86528 0.498214,1.57838 0.06455,1.31036 -0.277604,-0.17157 -1.296165,4.35128 -1.023623,4.54531 1.123237,0.79968 4.046661,1.02318 6.122183,0.46807 z m 53.674369,-2.43639 c 0.0523,-0.34286 -0.0614,-0.72014 -0.25271,-0.83838 -0.19301,-0.11928 -0.34785,0.17566 -0.34785,0.66258 0,0.48267 -0.23813,1.1157 -0.52917,1.40674 -0.29104,0.29104 -0.52413,0.73894 -0.51799,0.99534 0.0148,0.61674 1.52531,-1.42416 1.64772,-2.22628 z m 18.2685,1.7372 c 1.15393,-0.30863 1.55127,-0.57605 1.44143,-0.97014 -0.0834,-0.29923 -0.25957,-1.86125 -0.39148,-3.47114 -0.13191,-1.6099 -0.34172,-2.87576 -0.46623,-2.81302 -0.12452,0.0627 -0.8217,0.41714 -1.54931,0.78756 -1.42918,0.7276 -1.1406,0.78164 -4.1818,-0.78311 -0.11718,-0.0603 -0.31213,0.8383 -0.43322,1.99688 -0.1211,1.15857 -0.31892,2.72405 -0.43962,3.47884 -0.21047,1.31623 -0.17113,1.38779 0.96239,1.75026 1.62514,0.51968 3.17668,0.527 5.05784,0.0239 z m -17.12972,-6.59086 c -0.0357,-1.91905 0.0242,-3.63319 0.13298,-3.80921 0.47208,-0.76384 -0.34089,-1.18042 -0.96272,-0.49331 -0.61211,0.67638 -0.47702,1.65203 0.17311,1.25023 0.18062,-0.11163 0.3284,-0.0349 0.3284,0.17063 0,0.20548 -0.17819,0.3736 -0.39597,0.3736 -0.27358,0 -0.26023,0.16356 0.0432,0.52917 0.30343,0.3656 0.31678,0.52916 0.0432,0.52916 -0.21779,0 -0.39354,0.51594 -0.39057,1.14653 0.004,0.87003 0.0879,1.01891 0.34737,0.61736 0.30133,-0.46628 0.34262,-0.46418 0.34738,0.0176 0.003,0.30074 -0.1851,0.73731 -0.41793,0.97014 -0.32926,0.32926 -0.32926,0.42333 0,0.42333 0.23283,0 0.42333,0.39688 0.42333,0.88195 0,0.48507 0.0884,0.88194 0.19653,0.88194 0.10809,0 0.16735,-1.57012 0.1317,-3.48916 z m -61.711567,-0.35968 c 0,-0.60618 -7.980846,-4.86846 -8.375993,-4.47332 -0.102104,0.10211 -0.02039,0.6273 0.18155,1.1671 0.201959,0.5398 0.483302,1.29895 0.625211,1.68701 0.2465,0.67406 0.267659,0.66922 0.474041,-0.10845 0.216024,-0.814 0.216024,-0.814 0.983848,-0.0986 0.480007,0.44723 0.817954,0.56499 0.901563,0.31417 0.08254,-0.24762 0.396349,-0.1302 0.819675,0.30671 0.922754,0.95233 1.740941,1.20513 2.282205,0.70513 0.346579,-0.32017 0.388094,-0.30865 0.184051,0.051 -0.314389,0.55421 0.797285,1.47988 1.468099,1.22246 0.250663,-0.0962 0.45575,-0.44414 0.45575,-0.77324 z m 82.614767,0.0565 c 0.069,-0.59971 0.29653,-0.93096 0.59588,-0.86752 0.30817,0.0653 0.4084,-0.095 0.27566,-0.44097 -0.13446,-0.35037 -0.007,-0.54359 0.35723,-0.54359 0.31121,0 0.96126,-0.42667 1.44456,-0.94816 0.84461,-0.91135 0.89753,-0.92242 1.36337,-0.28535 0.32572,0.44546 0.48465,0.50355 0.48465,0.17714 0,-0.26711 0.35719,-0.86696 0.79375,-1.33298 0.63486,-0.67771 0.0578,-0.4877 -2.88282,0.9492 -4.37442,2.13752 -4.0303,1.84482 -3.73731,3.17881 0.29571,1.34632 1.15458,1.42096 1.30503,0.11342 z m -10.91795,-0.87043 c -0.21337,-0.4429 -0.3987,-0.61181 -0.41183,-0.37536 -0.0141,0.2549 -0.26502,0.33736 -0.61628,0.20257 -0.51089,-0.19605 -0.49875,-0.10124 0.0882,0.68889 0.81068,1.09133 1.52528,0.69894 0.93992,-0.5161 z m -65.346817,0.20884 c 0.873125,-0.50472 3.758728,-2.00814 6.412453,-3.34093 5.120009,-2.57145 5.479825,-2.92948 5.080932,-5.05576 -0.261172,-1.39216 -1.346447,-2.44204 -3.106988,-3.00565 -1.858049,-0.59482 -12.875924,-0.42646 -13.116487,0.20043 -0.199651,0.52028 -1.623452,0.34594 -1.987677,-0.24339 -0.17526,-0.28358 -0.449852,-0.26452 -0.982628,0.0682 -0.558031,0.3485 -1.070991,0.37326 -2.091231,0.10094 -1.833175,-0.4893 -3.378133,0.0866 -2.835177,1.05677 0.285765,0.51063 0.238933,0.73332 -0.206653,0.98268 -0.316879,0.17734 -1.005082,0.69139 -1.529338,1.14233 -1.667221,1.43408 -0.969952,2.08725 6.103899,5.71782 3.475239,1.78363 6.397993,3.2545 6.495006,3.2686 0.09701,0.0141 0.890764,-0.38732 1.763889,-0.89204 z m 76.471327,-2.98298 c 7.18755,-3.68118 7.55448,-3.97163 7.15044,-5.66006 -0.78239,-3.2695 -1.40189,-3.58882 -7.42176,-3.82549 -6.67235,-0.26233 -16.19365,0.0945 -17.30513,0.64858 -1.11325,0.55493 -1.79711,1.60677 -2.09577,3.22348 -0.30343,1.64254 0.0448,1.9589 4.76062,4.32491 2.13431,1.07082 4.91243,2.51602 6.17361,3.21155 1.26118,0.69553 2.33577,1.26821 2.38799,1.27262 0.0522,0.004 2.90971,-1.43361 6.35,-3.19559 z m -108.415104,0.13003 c 1.610304,-0.90117 -4.695184,-8.96739 -6.549804,-8.37876 -0.435422,0.1382 -0.939209,-0.0964 -1.49495,-0.69601 -1.045676,-1.1283 -1.320539,-1.12707 -2.674239,0.012 -1.089125,0.91643 -1.089125,0.91643 -0.291651,1.51335 0.438611,0.3283 1.254552,0.79498 1.813201,1.03705 0.55865,0.24207 0.924429,0.53143 0.812843,0.64302 -0.111586,0.11158 0.542587,0.71422 1.453718,1.33919 2.891562,1.98341 5.118764,5.51322 4.161848,6.59597 -0.213719,0.24182 0.19719,-0.0543 0.913131,-0.658 0.715941,-0.60372 1.551097,-1.23723 1.855903,-1.40781 z m 135.045034,1.22148 c -0.15228,-1.44337 1.78216,-4.08474 4.2123,-5.75164 0.91113,-0.62497 1.5653,-1.22761 1.45371,-1.33919 -0.11158,-0.11159 0.2542,-0.40095 0.81285,-0.64302 0.55865,-0.24207 1.37459,-0.70875 1.8132,-1.03705 0.79747,-0.59692 0.79747,-0.59692 -0.29165,-1.51335 -1.3464,-1.13292 -1.4913,-1.13362 -2.61233,-0.0126 -0.57654,0.57655 -1.13448,0.83066 -1.54072,0.70173 -1.32865,-0.4217 -5.65771,3.92395 -6.24669,6.27061 -0.13021,0.51879 -0.37828,0.94326 -0.55128,0.94326 -0.70576,0 -0.24849,1.07436 0.65644,1.54232 0.53404,0.27616 1.27302,0.83586 1.64218,1.24378 0.83872,0.92678 0.79532,0.95373 0.65199,-0.40485 z m -19.8457,-2.38125 c 0,-0.38805 -0.0609,-0.70555 -0.13524,-0.70555 -0.0744,0 -0.21827,0.3175 -0.31975,0.70555 -0.10148,0.38806 -0.0406,0.70556 0.13524,0.70556 0.17587,0 0.31975,-0.3175 0.31975,-0.70556 z m -67.24474,-3.33897 c 0.71852,-1.09661 0.71549,-1.12673 -0.135816,-1.34935 -0.406657,-0.10635 -0.705555,-0.4812 -0.705555,-0.88485 0,-0.66507 -0.877581,-1.11529 -2.525596,-1.29568 -0.507507,-0.0555 -0.523837,0.0333 -0.122824,0.66837 0.254371,0.40283 0.572527,1.25957 0.707009,1.90385 0.168177,0.80569 0.399267,1.11203 0.740185,0.98121 0.287044,-0.11015 0.49567,0.0279 0.49567,0.32788 0,0.81474 0.919727,0.6058 1.546927,-0.35143 z m 39.02252,-0.31255 c 0,-1.12064 0.6857,-3.08916 1.33935,-3.845 0.49206,-0.56899 0.45283,-0.61736 -0.50062,-0.61736 -1.19781,0 -2.60262,0.86767 -2.60262,1.6075 0,0.28004 -0.15875,0.50916 -0.35278,0.50916 -0.70334,0 -0.33294,0.90969 0.39266,0.96434 0.95776,0.0721 1.07926,0.21098 1.14254,1.30557 0.0656,1.13415 0.58147,1.2014 0.58147,0.0758 z m -85.891885,-2.18342 c -0.415495,-1.79158 -0.984314,-2.97251 -2.271446,-4.71578 -3.068729,-4.15623 -2.999836,-3.66991 -3.055386,-21.56818 -0.03426,-11.03877 -0.168912,-15.93923 -0.45253,-16.46917 -0.621413,-1.16112 -0.506276,-2.21193 0.242362,-2.21193 0.481779,0 0.743622,-0.42608 1.029455,-1.67517 0.210834,-0.92135 0.323987,-1.73452 0.251451,-1.80706 -0.07254,-0.0725 -1.448603,0.16751 -3.057927,0.53345 -2.926044,0.66533 -2.926044,0.66533 -2.90242,4.18831 0.02455,3.66094 0.649764,7.1737 2.121506,11.91966 1.173757,3.78504 1.088009,5.0968 -0.704293,10.77423 -1.577912,4.99831 -1.72161,5.73233 -1.654608,8.45193 0.03079,1.24969 0.25123,1.71633 1.249911,2.64583 0.666891,0.6207 1.472976,1.79098 1.7913,2.60063 0.318324,0.80964 0.801885,1.5577 1.07458,1.66234 0.272694,0.10464 0.406834,0.42212 0.298089,0.7055 -0.215066,0.56046 0.264633,1.11629 2.68324,3.10909 0.870825,0.71751 2.059568,2.01348 2.641651,2.87993 0.582084,0.86645 1.105817,1.52837 1.163852,1.47093 0.05803,-0.0574 -0.14392,-1.17998 -0.448787,-2.49454 z m 134.369545,-2.59624 c 1.39211,-1.09699 1.96957,-1.79515 1.96957,-2.38125 0,-0.45608 0.13758,-0.82923 0.30574,-0.82923 0.16816,0 0.63023,-0.7808 1.02682,-1.73511 0.3966,-0.95431 1.11608,-1.99393 1.59886,-2.31026 2.15505,-1.41204 2.09937,-3.53061 -0.29185,-11.10521 -1.81374,-5.74533 -1.90237,-7.04817 -0.73803,-10.84857 1.99304,-6.50529 3.06042,-14.33556 2.08685,-15.30913 -0.33134,-0.33134 -5.7264,-1.52131 -5.93799,-1.30972 -0.37857,0.37857 0.71582,3.21931 1.29898,3.37181 0.74667,0.19526 0.84381,1.19568 0.22488,2.3159 -0.31525,0.57057 -0.40114,4.02103 -0.33097,13.29417 0.0954,12.60912 -0.24399,19.4744 -1.05671,21.37319 -0.24205,0.56551 -1.18224,2.06008 -2.08931,3.32126 -1.65522,2.30141 -2.18709,3.55361 -2.62222,6.17361 -0.23436,1.41111 -0.23436,1.41111 1.17573,-0.52916 0.77555,-1.06716 2.2964,-2.63869 3.37965,-3.4923 z m -68.73414,0.19858 c 0.32645,-0.1029 0.28638,-0.14202 -0.10952,-0.10694 -0.40477,0.0359 -0.63625,0.36435 -0.65832,0.93423 -0.028,0.72403 -0.009,0.74288 0.10952,0.10693 0.079,-0.42459 0.37521,-0.84499 0.65832,-0.93422 z m -46.615381,-0.9065 c 0.108659,-0.17581 0.5149,-0.23667 0.902765,-0.13524 0.60373,0.15788 0.705203,0.0105 0.705203,-1.02403 0,-0.66464 0.233077,-1.51659 0.517949,-1.89323 0.504987,-0.66765 0.518227,-0.66493 0.529166,0.10897 0.0062,0.43656 0.186951,0.79375 0.40174,0.79375 0.214785,0 0.29416,-0.25111 0.176389,-0.55803 -0.117775,-0.3069 -0.214133,-0.69391 -0.214133,-0.86001 0,-0.5803 -1.368665,-0.19349 -1.532526,0.43312 -0.168127,0.64291 -0.936918,0.89775 -0.936918,0.31057 0,-0.35865 -0.902021,-0.30511 -1.283307,0.0762 -0.134969,0.13497 0.101586,0.2454 0.525678,0.2454 0.662403,0 0.738272,0.13672 0.538335,0.97014 -0.31453,1.31107 -0.339743,1.32368 -1.338799,0.66906 -0.937436,-0.61422 -1.424337,-0.34485 -0.893477,0.49431 0.21117,0.33381 0.325981,0.36253 0.329502,0.0824 0.0032,-0.24661 0.243621,-0.33849 0.564148,-0.21549 0.449869,0.17263 0.467053,0.27253 0.08819,0.51269 -0.363937,0.2307 -0.33539,0.29951 0.125987,0.30369 0.328098,0.003 0.685444,-0.13845 0.794103,-0.31426 z m 6.899635,-0.31082 c 0,-0.15274 -0.3175,-0.30163 -0.705555,-0.33086 -0.388056,-0.0292 -0.705556,0.0957 -0.705556,0.27771 0,0.18197 0.3175,0.33085 0.705556,0.33085 0.388055,0 0.705555,-0.12497 0.705555,-0.2777 z m 7.672434,-0.16327 c -0.170067,-0.50853 -2.696499,-0.63225 -3.335454,-0.16334 -0.234033,0.17175 -0.580253,0.21664 -0.769373,0.0998 -0.189121,-0.11688 -0.443569,-0.0512 -0.565439,0.14602 -0.142195,0.23008 0.681175,0.35853 2.298079,0.35853 1.859195,0 2.481005,-0.11559 2.372187,-0.44097 z m 73.787782,-0.88194 c 0.22663,-0.24254 0.3661,-0.45421 0.30995,-0.47037 -0.74294,-0.21391 -1.99973,-0.16447 -2.5059,0.0986 -0.42162,0.21911 -0.80202,0.19801 -1.11512,-0.0618 -0.3514,-0.29163 -0.54113,-0.28773 -0.72821,0.015 -0.13914,0.22514 -0.0835,0.51407 0.12355,0.64207 0.64824,0.40063 3.48377,0.23885 3.91573,-0.22341 z m -43.95679,-2.52009 c 1.21749,-0.15191 2.13383,-0.11885 2.25763,0.0815 0.2894,0.46826 11.97941,-0.002 16.99174,-0.68324 2.20688,-0.30003 5.62001,-1.00966 7.58472,-1.57694 1.96472,-0.56728 5.55659,-1.28432 7.98193,-1.59342 3.40377,-0.4338 5.0133,-0.8294 7.05556,-1.73415 1.45521,-0.64468 3.21493,-1.40514 3.9105,-1.68992 0.69556,-0.28478 2.43006,-1.52902 3.85443,-2.76498 1.42437,-1.23596 4.18902,-3.56587 6.14367,-5.17757 4.99718,-4.12045 6.63285,-6.54455 8.66185,-12.83712 0.74771,-2.31891 2.01608,-4.42892 3.83912,-6.38665 0.99379,-1.06721 1.04826,-1.83671 0.34986,-4.94252 -0.47741,-2.12304 -1.38718,-2.74285 -7.82712,-5.33247 -13.7849,-5.54318 -49.72201,-14.08433 -59.14898,-14.05792 -9.79482,0.0274 -47.008584,9.02954 -60.501393,14.63541 -6.078327,2.52538 -6.269419,2.70521 -6.883428,6.47782 -0.331161,2.03473 -0.331161,2.03473 1.18592,3.8265 1.874554,2.21396 2.773151,3.85661 3.971438,7.25982 1.937721,5.50326 3.147989,7.21735 7.743949,10.96767 1.73489,1.41567 4.323764,3.67169 5.753057,5.01337 1.42929,1.34168 3.33429,2.75685 4.233334,3.14481 0.89904,0.38797 2.825245,1.22976 4.280454,1.87065 2.044414,0.90037 3.663266,1.29422 7.121836,1.73265 2.461803,0.31207 5.962918,1.02511 7.78026,1.58452 6.26314,1.92792 17.437533,2.95857 23.659663,2.18222 z m -5.48884,-3.47478 c -2.10503,-0.0926 -2.73403,-0.23856 -2.73403,-0.63456 0,-0.40692 0.57854,-0.51433 2.77048,-0.51433 4.26596,0 7.1073,0.37268 7.1073,0.93221 0,0.49407 -0.49481,0.50908 -7.14375,0.21668 z m 13.14097,-0.2178 c 0,-0.56364 2.42764,-0.92342 6.26181,-0.92802 1.91372,-0.002 2.55764,0.11686 2.55764,0.47328 0,0.34854 -0.86632,0.53783 -3.2292,0.70555 -4.75367,0.33743 -5.59025,0.29989 -5.59025,-0.25081 z m 11.16764,-0.0327 c -0.15402,-0.40139 0.25106,-0.66311 1.63392,-1.05566 5.75324,-1.63314 6.95336,-1.8931 7.16429,-1.5518 0.35928,0.58132 -0.19297,0.84331 -3.91446,1.85703 -1.94028,0.52852 -3.78679,1.03367 -4.10336,1.12255 -0.31657,0.0889 -0.66775,-0.0786 -0.78039,-0.37212 z m -38.684306,-0.36925 c 0,-0.43677 0.646758,-0.52917 3.704166,-0.52917 3.05741,0 3.70417,0.0924 3.70417,0.52917 0,0.43678 -0.64676,0.52917 -3.70417,0.52917 -3.057408,0 -3.704166,-0.0924 -3.704166,-0.52917 z m -9.613195,-2.55397 c -1.931501,-0.72394 -3.439583,-1.49073 -3.439583,-1.74886 0,-0.67813 0.465176,-0.58813 4.286306,0.82925 2.039105,0.75637 3.474805,1.48516 3.474805,1.76389 0,0.68691 -0.493501,0.5905 -4.321528,-0.84428 z m 62.177091,0.4509 c 0,-0.29784 0.55866,-0.6646 1.32291,-0.86847 0.72761,-0.1941 2.77994,-0.74134 4.56074,-1.21609 2.64685,-0.70562 3.27184,-0.77453 3.42418,-0.37754 0.24741,0.64475 0.29535,0.62423 -4.39816,1.88235 -4.67536,1.25326 -4.90967,1.28092 -4.90967,0.57975 z m -74.788897,-4.07998 c -1.899172,-0.82563 -3.270578,-2.10723 -2.254899,-2.10723 0.822187,0 5.782677,2.32918 5.782677,2.71523 0,0.67549 -0.95334,0.51119 -3.527778,-0.608 z m 87.303757,0.70084 c -0.12473,-0.20182 0.2163,-0.71776 0.75784,-1.14653 3.84737,-3.0462 6.69906,-5.18183 6.92383,-5.18527 0.9954,-0.0152 -0.24474,1.41423 -3.34528,3.85593 -3.7601,2.96113 -3.9644,3.07777 -4.33639,2.47587 z m -93.281976,-6.91203 c -0.700867,-1.18788 -0.702864,-1.89326 -0.0054,-1.89326 0.178636,0 0.640969,0.61976 1.027409,1.37725 0.962113,1.88589 0.05609,2.34333 -1.022054,0.51601 z m 104.411626,-3.39257 c 0.0148,-0.77692 4.53204,-3.62636 5.00273,-3.15567 0.22544,0.22544 0.3411,0.46733 0.25702,0.53754 -0.85059,0.71028 -4.60981,3.05911 -4.89602,3.05911 -0.20467,0 -0.36835,-0.19844 -0.36373,-0.44098 z m -110.988534,-5.0425 c -0.982928,-1.19953 -1.2123,-1.7041 -0.911443,-2.00495 0.221118,-0.22112 0.449285,-0.33325 0.507038,-0.24916 0.05775,0.0841 0.700794,0.83398 1.42898,1.66646 1.199471,1.37126 1.422849,2.19057 0.597239,2.19057 -0.169587,0 -0.899404,-0.72131 -1.621814,-1.60292 z m 116.172024,-2.14222 c -0.17458,-0.17459 3.68277,-8.37186 4.20278,-8.93134 0.0781,-0.0841 0.33172,0.0368 0.56349,0.26853 0.32669,0.32669 -0.0486,1.37203 -1.66984,4.65079 -1.91756,3.87813 -2.48939,4.61905 -3.09643,4.01202 z m -120.531,-4.03468 c -1.450777,-1.32036 -1.821463,-1.84795 -1.514245,-2.15517 0.468044,-0.46804 4.443901,2.67583 4.222798,3.33914 -0.257695,0.77308 -0.835942,0.52032 -2.708553,-1.18397 z m 17.781516,28.57766 c -0.321063,-0.35477 -0.480497,-0.81212 -0.354294,-1.01631 0.133328,-0.21573 -0.620512,-0.74717 -1.799404,-1.26853 -1.115874,-0.4935 -2.543192,-1.28956 -3.171821,-1.76904 -0.634432,-0.4839 -1.236112,-0.72104 -1.352335,-0.533 -0.115157,0.18633 -0.416405,0.25934 -0.669438,0.16224 -0.302264,-0.11599 -0.440115,0.0941 -0.40192,0.61263 0.03196,0.43403 0.269385,0.85957 0.527572,0.94563 0.305735,0.10191 0.396088,-0.0346 0.259105,-0.39163 -0.119165,-0.31053 0.0094,-0.63241 0.296562,-0.74262 0.305446,-0.11721 0.506893,0.0214 0.506893,0.34878 0,0.82973 0.902458,1.55123 1.940278,1.55123 0.87619,0 0.896352,0.036 0.334758,0.59759 -0.561594,0.56159 -0.557802,0.61322 0.063,0.85715 0.363319,0.14276 1.017768,0.27072 1.45433,0.28436 0.670211,0.0209 0.79375,0.22071 0.79375,1.28354 0,1.25874 0,1.25874 1.078364,0.49088 1.014875,-0.72265 1.043993,-0.80584 0.494605,-1.4129 z m 81.241624,0.8312 c -0.33955,-0.0887 -0.89518,-0.0887 -1.23473,0 -0.33955,0.0887 -0.0617,0.16134 0.61736,0.16134 0.6791,0 0.95691,-0.0726 0.61737,-0.16134 z m -88.888781,-6.40509 c 0.217227,-0.65167 -0.461733,-0.47082 -1.169808,0.31159 -0.639886,0.70707 -0.636739,0.71376 0.191739,0.40728 0.463271,-0.17137 0.903404,-0.49487 0.978069,-0.71887 z m 109.329891,-6.92491 c 2.46455,-2.27484 1.73734,-2.13701 -1.12653,0.21351 -1.45521,1.19436 -2.64583,2.31239 -2.64583,2.48451 0,0.4031 1.8327,-0.90766 3.77236,-2.69802 z m 3.03901,-2.679 c 0.098,-0.37463 0.4708,-0.68123 0.82852,-0.68134 0.61173,-1.7e-4 0.76688,-0.9144 0.50885,-2.99842 -0.056,-0.45191 -2.47937,3.73721 -2.49362,4.31046 -0.0165,0.66582 0.95592,0.13537 1.15625,-0.6307 z m 6.13759,-1.82768 c -0.0841,-0.43656 -0.15288,-0.0794 -0.15288,0.79375 0,0.87313 0.0688,1.23032 0.15288,0.79375 0.0841,-0.43656 0.0841,-1.15093 0,-1.5875 z m -129.262383,1.1505 c -0.100908,-0.38588 -0.331879,-0.60987 -0.513269,-0.49776 -0.194613,0.12028 -0.160466,0.40786 0.0833,0.70159 0.556483,0.67052 0.64735,0.62744 0.429967,-0.20383 z M 185.5044,166.11169 c 0.4232,0.0621 0.61236,-0.14688 0.60863,-0.67242 -0.004,-0.60768 -0.0721,-0.65715 -0.33359,-0.24358 -0.18051,0.28542 -0.45564,0.3915 -0.61141,0.23574 -0.15576,-0.15577 0.003,-0.49236 0.3524,-0.74798 0.77095,-0.56373 0.74038,-4.28255 -0.0377,-4.58349 -0.27666,-0.107 -0.36102,-0.0186 -0.21215,0.22224 0.16926,0.27387 -0.0473,0.34361 -0.68723,0.22127 -0.66189,-0.12653 -0.93438,-0.03 -0.93438,0.33103 0,0.2803 0.19844,0.43849 0.44097,0.35153 0.63017,-0.22596 1.6757,0.38629 1.6757,0.98126 0,0.72686 -1.20305,1.30168 -1.6949,0.80983 -0.38171,-0.38172 -1.48847,0.16815 -1.4747,0.73267 0.0194,0.79593 0.67045,1.21438 1.20243,0.77287 0.30583,-0.25382 0.5682,-0.40236 0.58305,-0.33009 0.22487,1.09462 0.18456,1.39692 -0.23237,1.74295 -0.27015,0.22421 -0.74314,0.31097 -1.05107,0.19281 -0.30793,-0.11816 -0.79754,0.0228 -1.08802,0.31331 -0.31644,0.31644 -0.3683,0.52815 -0.12936,0.52815 0.21934,0 0.30767,0.14745 0.1963,0.32766 -0.11138,0.18021 0.47606,-0.0331 1.30542,-0.47412 0.82935,-0.44097 1.78424,-0.76121 2.12196,-0.71164 z m 0.25586,-8.26912 c 0.004,-0.38155 -0.10232,-0.39478 -0.5028,-0.0624 -0.27951,0.23197 -0.41616,0.66159 -0.30369,0.95472 0.23428,0.61052 0.79666,-0.0117 0.80649,-0.89232 z M 93.161485,131.85846 c 1.940278,-0.4525 3.252989,-0.83381 2.917137,-0.84736 -0.374586,-0.0151 -0.685383,-0.39967 -0.803991,-0.99478 -0.187819,-0.9424 -0.547444,-2.01308 -2.055202,-6.11884 -0.709824,-1.93291 -0.711556,-2.00839 -0.08367,-3.65247 0.641131,-1.67878 0.641131,-1.67878 10.211201,-1.54172 10.33231,0.14797 9.87792,0.0688 12.88545,2.244 1.50234,1.08655 2.09748,1.08655 3.59982,0 3.05701,-2.21095 2.52994,-2.11897 12.87866,-2.24736 9.5633,-0.11865 9.5633,-0.11865 10.14236,1.32858 0.77849,1.94562 0.7595,2.11484 -0.63033,5.61721 -0.66517,1.67622 -1.31278,3.56362 -1.43914,4.19421 -0.14583,0.72774 -0.445,1.15553 -0.81907,1.17117 -0.32413,0.0136 0.99817,0.39486 2.93844,0.84736 1.94028,0.45249 3.92735,0.92558 4.41571,1.0513 1.36743,0.35203 1.92434,-1.95688 1.64588,-6.82376 -0.39976,-6.98671 -1.84819,-9.13796 -7.82547,-11.62255 -2.11667,-0.87984 -2.11667,-0.87984 -20.81389,-1.0003 -10.28348,-0.0662 -19.46856,-0.11317 -20.411292,-0.10426 -3.303291,0.0312 -8.97636,2.54765 -10.629421,4.71492 -1.363863,1.78812 -1.952068,3.94524 -2.184763,8.01219 -0.278462,4.86688 0.278444,7.17579 1.645881,6.82376 0.488357,-0.12572 2.475424,-0.59881 4.415702,-1.0513 z m 6.629457,-1.39229 c 4.565828,-0.93423 12.732828,-2.30194 13.745618,-2.30194 0.54673,0 1.07945,-0.23276 1.18958,-0.51977 0.25781,-0.67184 5.65129,-0.71329 6.31604,-0.0485 0.23875,0.23876 2.35093,0.70313 4.69372,1.03194 2.3428,0.32881 6.26712,1.00437 8.72072,1.50126 2.45361,0.49688 4.55084,0.81368 4.66053,0.70399 0.10969,-0.10969 0.0142,-0.19943 -0.21214,-0.19943 -0.68762,0 -0.47265,-1.25525 0.91052,-5.31679 0.93735,-2.75242 1.20437,-3.95529 0.91755,-4.13339 -0.2225,-0.13817 -4.20718,-0.17184 -8.85483,-0.0748 -8.45028,0.17639 -8.45028,0.17639 -10.139,1.49256 -2.79871,2.18127 -4.76809,2.14251 -7.61913,-0.14997 -1.45035,-1.1662 -1.45035,-1.1662 -9.79338,-1.34858 -4.588669,-0.10031 -8.54147,-0.12301 -8.784005,-0.0504 -0.748358,0.22388 -0.493215,1.69315 0.758903,4.37023 1.384575,2.96028 1.694131,4.72721 0.91452,5.22008 -0.714407,0.45165 -0.383882,0.42901 2.574784,-0.17638 z"
       id="path1181" />
  </g>
</svg>
