<?xml version="1.0" encoding="UTF-8" standalone="no"?>
<!-- Created with Inkscape (http://www.inkscape.org/) -->

<svg
   width="210mm"
   height="297mm"
   viewBox="0 0 210 297"
   version="1.1"
   id="svg5"
   inkscape:version="1.1 (c68e22c387, 2021-05-23)"
   sodipodi:docname="cut svg.svg"
   xmlns:inkscape="http://www.inkscape.org/namespaces/inkscape"
   xmlns:sodipodi="http://sodipodi.sourceforge.net/DTD/sodipodi-0.dtd"
   xmlns="http://www.w3.org/2000/svg"
   xmlns:svg="http://www.w3.org/2000/svg">
  <sodipodi:namedview
     id="namedview7"
     pagecolor="#ffffff"
     bordercolor="#666666"
     borderopacity="1.0"
     inkscape:pageshadow="2"
     inkscape:pageopacity="0.0"
     inkscape:pagecheckerboard="0"
     inkscape:document-units="mm"
     showgrid="false"
     inkscape:zoom="0.46987214"
     inkscape:cx="432.03242"
     inkscape:cy="445.86598"
     inkscape:window-width="1680"
     inkscape:window-height="956"
     inkscape:window-x="-11"
     inkscape:window-y="-11"
     inkscape:window-maximized="1"
     inkscape:current-layer="layer1" />
  <defs
     id="defs2" />
  <g
     inkscape:label="Layer 1"
     inkscape:groupmode="layer"
     id="layer1">
    <path
       style="fill:#000000;stroke-width:0.226979"
       d="m 40.827966,59.09563 c -1.428103,-0.857119 -4.730169,-3.779798 -4.730169,-4.186699 0,-0.111668 0.821455,0.571526 1.825463,1.518216 1.004,0.946698 2.513542,2.132497 3.354528,2.63511 0.840996,0.502614 1.413895,0.913846 1.273129,0.913846 -0.140774,0 -0.916096,-0.396211 -1.722951,-0.880473 z m 14.550511,0.671918 c -0.731166,-0.09143 -3.858005,-0.183887 -6.948541,-0.205455 l -5.619148,-0.03919 -1.648803,-1.011212 C 40.255138,57.95553 38.762778,56.826805 37.845622,56.003415 36.928475,55.180016 36.112656,54.567091 36.032703,54.641335 35.81681,54.841805 33.82391,51.886695 32.78017,49.818439 26.030626,36.443681 28.34923,19.193032 38.088294,10.325345 l 1.321202,-1.2029938 2.407282,-0.109362 c 1.323997,-0.06018 28.412498,-0.08436 60.196662,-0.05382 57.52743,0.0553 57.78995,0.05754 57.91234,0.492131 0.0677,0.240117 0.21658,0.436578 0.33102,0.436578 0.11443,0 0.20807,0.1476368 0.20807,0.3280848 0,0.180448 0.15137,0.328093 0.33637,0.328093 0.23018,0 0.3825,0.362483 0.48253,1.148309 0.0804,0.631567 0.11452,11.43825 0.0759,24.014847 -0.066,21.458669 -0.096,22.902979 -0.48797,23.458351 l -0.41763,0.591813 h -51.19588 c -28.15774,0 -51.50062,0.03968 -51.873071,0.08821 -0.37246,0.04853 -1.275417,0.01339 -2.006583,-0.07804 z m -3.734796,-6.059006 v -2.549211 l -0.899493,-0.786355 c -1.224673,-1.070634 -3.538346,-1.881864 -5.342416,-1.873184 -1.110838,0.005 -1.683202,0.14419 -2.674693,0.648812 -1.359616,0.691973 -2.919368,2.176064 -3.535497,3.364004 l -0.383143,0.73873 1.606561,1.385855 1.606551,1.385856 2.161201,0.07192 c 1.188654,0.0396 3.353638,0.09239 4.811065,0.117356 l 2.649864,0.04538 z M 157.63834,34.385172 V 12.512585 H 106.52536 55.412377 V 34.385172 56.25776 h 51.112983 51.11298 z M 52.741851,53.359641 c -0.06534,-0.150373 -0.118803,-0.02736 -0.118803,0.273408 0,0.300746 0.0535,0.423781 0.118803,0.273408 0.06534,-0.150373 0.06534,-0.396443 0,-0.546816 z M 158.73651,53.140918 c -0.0653,-0.150373 -0.1188,-0.02736 -0.1188,0.273408 0,0.300746 0.0535,0.423781 0.1188,0.273408 0.0653,-0.150373 0.0653,-0.396443 0,-0.546816 z M 52.741851,51.609839 c -0.06534,-0.150381 -0.118803,-0.02736 -0.118803,0.2734 0,0.300755 0.0535,0.423781 0.118803,0.273408 0.06534,-0.150373 0.06534,-0.396435 0,-0.546808 z m -13.30336,-1.585763 0.744101,-0.874909 -0.80973,0.704307 c -0.445344,0.387366 -1.001168,1.027142 -1.23516,1.421717 l -0.425429,0.717418 0.491058,-0.546816 c 0.270091,-0.300747 0.825906,-0.940523 1.23516,-1.421717 z m -5.088509,-0.360888 c -0.589903,-1.004507 -1.073937,-1.750372 -1.075638,-1.657478 -0.0053,0.313122 1.909876,3.705158 2.029623,3.593961 0.06526,-0.0606 -0.364074,-0.931975 -0.953985,-1.936483 z m 4.687481,-0.568698 c 0.505739,-0.571426 0.675739,-0.842098 0.377766,-0.601501 -0.526624,0.425236 -1.549817,1.640448 -1.381231,1.640448 0.0462,0 0.497717,-0.467529 1.003465,-1.038947 z m 2.242293,0.273408 c 0.439478,-0.421053 0.746042,-0.765548 0.681268,-0.765548 -0.06481,0 -0.47734,0.344495 -0.916809,0.765548 -0.439478,0.421045 -0.746051,0.765539 -0.681277,0.765539 0.06481,0 0.477349,-0.344494 0.916818,-0.765539 z m 0.171594,-3.578684 c 1.607247,-0.761414 3.410097,-0.944879 5.446575,-0.554264 0.988972,0.18969 2.426626,0.582041 3.194782,0.871883 0.768156,0.289843 1.43137,0.526984 1.473808,0.526984 0.04246,0 0.07718,-5.207054 0.07718,-11.571238 V 23.491341 l -1.589922,0.617398 c -2.463688,0.956684 -4.898469,1.35259 -6.562077,1.067013 -0.754918,-0.12959 -1.746925,-0.414373 -2.204457,-0.632857 -1.061981,-0.507119 -3.583054,-2.629828 -4.746131,-3.996174 l -0.898692,-1.055754 -0.374481,0.830641 c -0.711011,1.5771 -1.537095,4.118779 -2.047205,6.298793 -0.698957,2.98712 -0.759245,10.706597 -0.108352,13.874536 0.516324,2.513001 1.593759,5.713256 2.628045,7.805923 l 0.769874,1.557673 2.018877,-1.820698 c 1.110392,-1.001383 2.425372,-2.013265 2.92219,-2.248621 z m 9.353072,3.884457 c -0.157484,-0.236629 -1.558933,-0.856061 -1.920817,-0.848993 -0.217683,0.0041 1.612223,1.039286 1.890691,1.06941 0.104808,0.01133 0.118358,-0.08785 0.03009,-0.220417 z m -8.582494,-2.164945 c 0.453427,-0.230511 0.718409,-0.419118 0.58886,-0.419118 -0.129548,0 -0.606523,0.188607 -1.059942,0.419118 -0.453419,0.230512 -0.718409,0.419111 -0.588861,0.419111 0.129549,0 0.606524,-0.188599 1.059943,-0.419111 z m 3.469369,0.305302 c -0.07825,-0.07266 -0.281433,-0.08044 -0.45146,-0.01728 -0.187904,0.06986 -0.132086,0.121646 0.142305,0.132145 0.248307,0.0095 0.387425,-0.04216 0.309155,-0.114884 z m 7.055459,-2.533569 c -0.07523,-0.174488 -0.131,-0.122663 -0.142306,0.132144 -0.01024,0.23057 0.0454,0.359755 0.123709,0.287074 0.07825,-0.07267 0.08662,-0.261331 0.01861,-0.419218 z M 158.73651,41.548442 c -0.0653,-0.150373 -0.1188,-0.02736 -0.1188,0.273408 0,0.300747 0.0535,0.423781 0.1188,0.273408 0.0653,-0.150373 0.0653,-0.396443 0,-0.546816 z M 52.741851,40.017364 c -0.06534,-0.150374 -0.118803,-0.02736 -0.118803,0.273408 0,0.300746 0.0535,0.423781 0.118803,0.273408 0.06534,-0.150373 0.06534,-0.396443 0,-0.546816 z M 31.076733,39.593582 c -0.07523,-0.174487 -0.131,-0.122654 -0.142306,0.132145 -0.01024,0.230578 0.0454,0.359763 0.123718,0.287082 0.07825,-0.07267 0.08662,-0.261339 0.01861,-0.419227 z m -0.235541,-1.531078 c -0.07523,-0.174488 -0.131008,-0.122663 -0.142305,0.132145 -0.01024,0.230569 0.0454,0.359754 0.123708,0.287073 0.07825,-0.07267 0.08662,-0.261331 0.01861,-0.419218 z M 158.74142,30.188371 c -0.0752,-0.174487 -0.131,-0.122663 -0.14231,0.132145 -0.0102,0.23057 0.0455,0.359755 0.12372,0.287073 0.0782,-0.07267 0.0866,-0.26133 0.0186,-0.419218 z M 52.741851,28.424888 c -0.06534,-0.150373 -0.118803,-0.02736 -0.118803,0.273408 0,0.300746 0.0535,0.423781 0.118803,0.273408 0.06534,-0.150373 0.06534,-0.396443 0,-0.546816 z m 0,-3.499612 c -0.06534,-0.150373 -0.118803,-0.02736 -0.118803,0.273408 0,0.300747 0.0535,0.423782 0.118803,0.273408 0.06534,-0.150373 0.06534,-0.396443 0,-0.546816 z M 41.986387,22.792697 c -0.453419,-0.230512 -0.930394,-0.419111 -1.059942,-0.419111 -0.129549,0 0.135432,0.188599 0.588851,0.419111 0.453428,0.230511 0.930403,0.419118 1.059952,0.419118 0.129548,0 -0.135442,-0.188607 -0.588861,-0.419118 z m 3.46936,-0.350868 c -0.07825,-0.07267 -0.281424,-0.08044 -0.451451,-0.01728 -0.187904,0.06985 -0.132095,0.121654 0.142305,0.132145 0.248298,0.0095 0.387417,-0.04224 0.309146,-0.114876 z m -6.68736,-1.289573 c -0.487302,-0.541351 -0.929531,-0.98427 -0.982741,-0.98427 -0.123557,0 0.362027,0.596929 1.112075,1.36704 0.930421,0.95532 0.843444,0.697884 -0.129334,-0.38277 z m 9.368998,0.09264 c 3.13883,-1.217088 3.506296,-1.821657 3.506296,-5.768651 v -2.96366 h -5.508553 -5.508553 l -1.284987,1.476393 c -0.706738,0.812024 -1.357364,1.593989 -1.445827,1.737708 -0.08849,0.14371 0.177719,0.783486 0.59154,1.421717 2.800494,4.319232 5.79612,5.59089 9.650084,4.096491 z m -6.386539,0.387722 c 0,-0.03654 -0.397485,-0.405652 -0.883291,-0.820224 l -0.883291,-0.753768 0.811724,0.820224 c 0.755533,0.76344 0.954858,0.92079 0.954858,0.753768 z m 8.441124,-0.739342 c 0.984538,-0.577387 0.371614,-0.5333 -0.693322,0.04985 -0.633988,0.347181 -0.806722,0.509781 -0.44595,0.419796 0.32387,-0.08077 0.836544,-0.292132 1.139272,-0.46967 z m -10.845014,-0.45188 c -0.334215,-0.330821 -0.993272,-1.167447 -1.464567,-1.859172 -0.471295,-0.691716 -0.906633,-1.25767 -0.967428,-1.25767 -0.223344,0 -0.10155,0.414555 0.205575,0.699752 0.173865,0.161442 0.447597,0.521677 0.608304,0.800516 0.32728,0.567872 1.883213,2.218075 2.091352,2.218075 0.07398,0 -0.139012,-0.27068 -0.473236,-0.601501 z m 13.394895,-1.859172 c -0.06534,-0.150373 -0.118803,-0.02736 -0.118803,0.273408 0,0.300747 0.0535,0.423782 0.118803,0.273408 0.06534,-0.150373 0.06534,-0.396443 0,-0.546816 z m 105.999569,0.01364 c -0.0752,-0.174487 -0.131,-0.122654 -0.14231,0.132145 -0.0102,0.230578 0.0455,0.359763 0.12372,0.287082 0.0782,-0.07267 0.0866,-0.261339 0.0186,-0.419227 z M 52.741851,16.832387 c -0.06534,-0.150373 -0.118803,-0.02736 -0.118803,0.273409 0,0.300746 0.0535,0.423781 0.118803,0.273399 0.06534,-0.150373 0.06534,-0.396434 0,-0.546808 z m -15.201565,-0.0033 c -0.232629,-0.214408 -0.259684,-0.189285 -0.131863,0.122439 0.08849,0.215714 0.220167,0.337104 0.292686,0.269763 0.07256,-0.06737 1.51e-4,-0.24383 -0.160823,-0.392202 z M 36.94652,14.88628 c 1.779411,-2.412395 1.857441,-2.549905 0.883621,-1.557177 -0.811368,0.827127 -2.379649,3.120868 -2.133808,3.120868 0.05324,0 0.615826,-0.703662 1.250187,-1.563691 z m 1.409675,-3.193599 c 0.625841,-0.691725 0.892033,-1.060822 0.591522,-0.820225 -0.598742,0.479368 -2.01301,2.077895 -1.83838,2.077895 0.05991,0 0.621007,-0.565954 1.246858,-1.25767 z"
       id="path949" />
    <g
       id="g1458"
       transform="matrix(0.84482757,0,0,0.89965719,18.458636,-5.9454756)">
      <path
         style="fill:#000000;stroke-width:0.264583"
         d="m 27.092124,147.31718 c -1.60417,-1.03682 -5.31334,-4.57226 -5.31334,-5.06447 0,-0.13508 0.92273,0.69135 2.05052,1.83652 1.12778,1.14518 2.82343,2.57959 3.7681,3.18758 0.94468,0.60799 1.58821,1.10544 1.43009,1.10544 -0.15813,0 -1.02904,-0.47928 -1.93537,-1.06507 z m 16.34441,0.81279 c -0.82131,-0.1106 -4.33365,-0.22244 -7.80521,-0.24853 l -6.31192,-0.0474 -1.85208,-1.22322 c -1.01865,-0.67277 -2.695,-2.03814 -3.72523,-3.03416 -1.03022,-0.99603 -1.94662,-1.73746 -2.03643,-1.64765 -0.24251,0.2425 -2.48111,-3.33217 -3.65353,-5.83405 -7.58168,-16.17887 -4.97722,-37.046244 5.96255,-47.773104 l 1.48409,-1.45521 2.70407,-0.13229 c 1.48723,-0.0728 31.91541,-0.10205 67.618179,-0.0651 64.619847,0.0669 64.914737,0.0696 65.052217,0.59531 0.076,0.29046 0.24328,0.52811 0.37183,0.52811 0.12854,0 0.23372,0.17859 0.23372,0.39687 0,0.21828 0.17003,0.39688 0.37784,0.39688 0.25856,0 0.42966,0.43848 0.54202,1.38906 0.0903,0.76398 0.12864,13.836364 0.0852,29.049734 -0.0741,25.95763 -0.10789,27.70475 -0.54813,28.37656 l -0.46912,0.71589 h -57.5077 c -31.629246,0 -57.850016,0.048 -58.268386,0.1067 -0.41838,0.0587 -1.43266,0.0162 -2.25397,-0.0944 z m -4.19525,-7.32932 v -3.08367 l -1.01039,-0.95122 c -1.37566,-1.2951 -3.97458,-2.27641 -6.00107,-2.26591 -1.24779,0.006 -1.89072,0.17442 -3.00445,0.78484 -1.52724,0.83705 -3.27929,2.63229 -3.97138,4.06929 l -0.43038,0.89361 1.80463,1.67641 1.80462,1.67641 2.42765,0.087 c 1.3352,0.0479 3.7671,0.11176 5.40421,0.14196 l 2.97656,0.0549 z M 158.30379,117.426 V 90.967666 H 100.88921 43.474614 V 117.426 143.88433 h 57.414596 57.41458 z M 40.474844,140.3786 c -0.0734,-0.1819 -0.13345,-0.0331 -0.13345,0.33073 0,0.3638 0.0601,0.51263 0.13345,0.33073 0.0734,-0.1819 0.0734,-0.47956 0,-0.66146 z m 119.062506,-0.26458 c -0.0734,-0.1819 -0.13345,-0.0331 -0.13345,0.33073 0,0.3638 0.0601,0.51263 0.13345,0.33073 0.0734,-0.1819 0.0734,-0.47956 0,-0.66146 z M 40.474844,138.26194 c -0.0734,-0.18191 -0.13345,-0.0331 -0.13345,0.33072 0,0.36381 0.0601,0.51263 0.13345,0.33073 0.0734,-0.1819 0.0734,-0.47955 0,-0.66145 z m -14.9435,-1.91823 0.83584,-1.05834 -0.90956,0.85197 c -0.50025,0.46858 -1.1246,1.24249 -1.38744,1.71979 l -0.47788,0.86783 0.5516,-0.66146 c 0.30339,-0.3638 0.92773,-1.13771 1.38744,-1.71979 z m -5.71586,-0.43655 c -0.66263,-1.21511 -1.20634,-2.11735 -1.20825,-2.00498 -0.006,0.37877 2.14534,4.48197 2.27985,4.34746 0.0733,-0.0733 -0.40896,-1.12737 -1.0716,-2.34248 z m 5.26539,-0.68793 c 0.56809,-0.69123 0.75905,-1.01865 0.42434,-0.72761 -0.59155,0.51439 -1.74089,1.98438 -1.55152,1.98438 0.0519,0 0.55908,-0.56555 1.12718,-1.25677 z m 2.51874,0.33073 c 0.49366,-0.50933 0.83802,-0.92605 0.76526,-0.92605 -0.0728,0 -0.53619,0.41672 -1.02984,0.92605 -0.49366,0.50932 -0.83803,0.92604 -0.76527,0.92604 0.0728,0 0.5362,-0.41672 1.02985,-0.92604 z m 0.19275,-4.32898 c 1.8054,-0.92105 3.83052,-1.14298 6.11807,-0.67047 1.1109,0.22946 2.7258,0.70407 3.58866,1.05468 0.86286,0.35061 1.60784,0.63747 1.65551,0.63747 0.0477,0 0.0867,-6.29875 0.0867,-13.99723 V 104.2482 l -1.78594,0.74684 c -2.76743,1.15726 -5.50239,1.63617 -7.3711,1.29072 -0.84799,-0.15676 -1.9623,-0.50125 -2.47624,-0.76554 -1.19291,-0.61344 -4.0248,-3.18119 -5.33127,-4.834 l -1.00949,-1.277104 -0.42065,1.004794 c -0.79867,1.90775 -1.7266,4.98231 -2.2996,7.61938 -0.78513,3.61339 -0.85285,12.95131 -0.12171,16.78343 0.57998,3.03987 1.79025,6.91108 2.95205,9.44249 l 0.86479,1.88425 2.26778,-2.20242 c 1.24729,-1.21133 2.72439,-2.43536 3.28246,-2.72006 z m 10.50619,4.69886 c -0.1769,-0.28624 -1.75113,-1.03554 -2.15763,-1.02699 -0.24452,0.005 1.81099,1.25718 2.12379,1.29362 0.11773,0.0137 0.13295,-0.10627 0.0338,-0.26663 z m -9.64061,-2.61884 c 0.50933,-0.27884 0.80698,-0.50699 0.66146,-0.50699 -0.14552,0 -0.6813,0.22815 -1.19062,0.50699 -0.50932,0.27884 -0.80698,0.50698 -0.66146,0.50698 0.14552,0 0.6813,-0.22814 1.19062,-0.50698 z m 3.8971,0.36931 c -0.0879,-0.0879 -0.31613,-0.0973 -0.50712,-0.0209 -0.21107,0.0845 -0.14837,0.14715 0.15985,0.15985 0.27892,0.0115 0.43519,-0.051 0.34727,-0.13897 z m 7.92531,-3.06475 c -0.0845,-0.21107 -0.14715,-0.14838 -0.15985,0.15985 -0.0115,0.27891 0.051,0.43518 0.13896,0.34726 0.0879,-0.0879 0.0973,-0.31612 0.0209,-0.50711 z M 159.53735,126.0911 c -0.0734,-0.1819 -0.13345,-0.0331 -0.13345,0.33073 0,0.3638 0.0601,0.51263 0.13345,0.33073 0.0734,-0.1819 0.0734,-0.47956 0,-0.66146 z M 40.474844,124.23902 c -0.0734,-0.1819 -0.13345,-0.0331 -0.13345,0.33073 0,0.3638 0.0601,0.51263 0.13345,0.33073 0.0734,-0.1819 0.0734,-0.47956 0,-0.66146 z m -24.33616,-0.51263 c -0.0845,-0.21107 -0.14715,-0.14837 -0.15985,0.15985 -0.0115,0.27892 0.051,0.43519 0.13897,0.34727 0.0879,-0.0879 0.0973,-0.31613 0.0209,-0.50712 z m -0.26458,-1.85208 c -0.0845,-0.21107 -0.14716,-0.14838 -0.15985,0.15985 -0.0115,0.27891 0.051,0.43518 0.13896,0.34726 0.0879,-0.0879 0.0973,-0.31612 0.0209,-0.50711 z m 143.668756,-9.525 c -0.0845,-0.21107 -0.14715,-0.14838 -0.15985,0.15985 -0.0115,0.27891 0.0511,0.43518 0.13897,0.34726 0.0879,-0.0879 0.0973,-0.31612 0.0209,-0.50711 z M 40.474844,110.2161 c -0.0734,-0.1819 -0.13345,-0.0331 -0.13345,0.33073 0,0.3638 0.0601,0.51263 0.13345,0.33073 0.0734,-0.1819 0.0734,-0.47956 0,-0.66146 z m 0,-4.23333 c -0.0734,-0.1819 -0.13345,-0.0331 -0.13345,0.33073 0,0.3638 0.0601,0.51263 0.13345,0.33073 0.0734,-0.1819 0.0734,-0.47956 0,-0.66146 z m -12.08148,-2.57969 c -0.50932,-0.27884 -1.0451,-0.50698 -1.19062,-0.50698 -0.14552,0 0.15213,0.22814 0.66145,0.50698 0.50933,0.27884 1.04511,0.50699 1.19063,0.50699 0.14552,0 -0.15214,-0.22815 -0.66146,-0.50699 z m 3.89709,-0.42443 c -0.0879,-0.0879 -0.31612,-0.0973 -0.50711,-0.0209 -0.21107,0.0845 -0.14838,0.14716 0.15985,0.15985 0.27891,0.0115 0.43518,-0.0511 0.34726,-0.13896 z m -7.51183,-1.55994 c -0.54738,-0.65485 -1.04413,-1.19063 -1.1039,-1.19063 -0.13879,0 0.40666,0.72208 1.24918,1.65365 1.04513,1.15561 0.94743,0.8442 -0.14528,-0.46302 z m 10.52408,0.11206 c 3.52581,-1.47226 3.93858,-2.203584 3.93858,-6.978094 v -3.58501 h -6.18769 -6.18769 l -1.44341,1.78593 c -0.79387,0.98227 -1.52471,1.92818 -1.62408,2.10203 -0.0994,0.17384 0.19963,0.94775 0.66447,1.71979 3.14576,5.224794 6.51071,6.763064 10.83982,4.955354 z m -7.17392,0.46901 c 0,-0.0442 -0.44649,-0.4907 -0.99219,-0.99219 l -0.99219,-0.9118 0.9118,0.99219 c 0.84868,0.9235 1.07258,1.11384 1.07258,0.9118 z m 9.48181,-0.89435 c 1.10592,-0.69844 0.41743,-0.64511 -0.7788,0.0603 -0.71215,0.41997 -0.90618,0.61666 -0.50093,0.50781 0.3638,-0.0977 0.93968,-0.35338 1.27973,-0.56814 z m -12.18207,-0.54662 c -0.37542,-0.40018 -1.11573,-1.412214 -1.64513,-2.248964 -0.5294,-0.83674 -1.01841,-1.52135 -1.0867,-1.52135 -0.25088,0 -0.11407,0.50147 0.23092,0.84646 0.1953,0.19529 0.50278,0.63105 0.6833,0.96835 0.36763,0.68693 2.11539,2.683114 2.34919,2.683114 0.0831,0 -0.15615,-0.32743 -0.53158,-0.72761 z m 15.04632,-2.248964 c -0.0734,-0.1819 -0.13345,-0.0331 -0.13345,0.33073 0,0.3638 0.0601,0.51263 0.13345,0.33073 0.0734,-0.1819 0.0734,-0.47956 0,-0.66146 z m 119.068016,0.0165 c -0.0845,-0.21107 -0.14715,-0.14837 -0.15985,0.15985 -0.0115,0.27892 0.0511,0.43519 0.13897,0.34727 0.0879,-0.0879 0.0973,-0.31613 0.0209,-0.50712 z m -119.068016,-2.1332 c -0.0734,-0.1819 -0.13345,-0.0331 -0.13345,0.33073 0,0.3638 0.0601,0.51263 0.13345,0.33072 0.0734,-0.1819 0.0734,-0.47955 0,-0.66145 z m -17.07573,-0.004 c -0.26131,-0.25936 -0.2917,-0.22897 -0.14812,0.14811 0.0994,0.26094 0.24731,0.40778 0.32877,0.32632 0.0815,-0.0815 1.7e-4,-0.29495 -0.18065,-0.47443 z m -0.66697,-2.35013 c 1.99879,-2.91817 2.08644,-3.08451 0.99256,-1.88365 -0.9114,1.00054 -2.67303,3.77518 -2.39688,3.77518 0.0598,0 0.69175,-0.85119 1.40432,-1.89153 z m 1.58347,-3.86316 c 0.703,-0.83675 1.00201,-1.28323 0.66445,-0.99219 -0.67256,0.57987 -2.26119,2.51354 -2.06503,2.51354 0.0673,0 0.69757,-0.68461 1.40058,-1.52135 z"
         id="path1049" />
      <path
         style="fill:#800080;stroke:#000000;stroke-width:20.4311;stroke-linecap:round;stroke-linejoin:round;stroke-dasharray:5.10777, 5.10777;stroke-opacity:0.955017;paint-order:stroke markers fill"
         d="m 166.00261,443.73774 v -98.9631 h 216.01621 216.01621 v 98.9631 98.96309 H 382.01882 166.00261 Z"
         id="path1143"
         transform="scale(0.26458333)" />
      <path
         style="fill:#ff00ff;stroke:#000000;stroke-width:20.4311;stroke-linecap:round;stroke-linejoin:round;stroke-dasharray:5.10777, 5.10777;stroke-opacity:0.955017;paint-order:stroke markers fill"
         d="m 79.113693,499.56929 c -8.452322,-22.59085 -9.71125,-30.19289 -9.598363,-57.95979 0.107689,-26.48858 3.575885,-47.96269 9.548715,-59.12303 1.931577,-3.60918 2.400786,-3.48172 6.536129,1.77551 2.450341,3.11511 8.279091,8.43387 12.952777,11.81947 9.866169,7.14701 24.676409,8.29303 39.514979,3.05768 l 8.78053,-3.09795 v 50.77503 50.77504 l -9.91532,-2.98407 c -18.94513,-5.70165 -32.37915,-2.71449 -44.448831,9.88354 -3.312585,3.45759 -6.732596,6.28653 -7.60003,6.28653 -0.867434,0 -3.464198,-5.04358 -5.770586,-11.20796 z"
         id="path1219"
         transform="scale(0.26458333)" />
      <path
         style="fill:#ffaaee;stroke:#000000;stroke-width:20.4311;stroke-linecap:round;stroke-linejoin:round;stroke-dasharray:5.10777, 5.10777;stroke-opacity:0.955017;paint-order:stroke markers fill"
         d="m 109.1574,381.02982 c -3.75738,-2.29099 -9.385144,-8.02411 -12.506146,-12.74026 l -5.67455,-8.57482 5.697682,-7.47005 5.697684,-7.47005 h 22.23819 22.2382 v 12.90935 c 0,16.10573 -1.92929,19.74915 -12.75041,24.0789 -11.24196,4.49814 -16.62039,4.34006 -24.94065,-0.73307 z"
         id="path1295"
         transform="scale(0.26458333)" />
      <path
         style="fill:#ffaaee;stroke:#000000;stroke-width:20.4311;stroke-linecap:round;stroke-linejoin:round;stroke-dasharray:5.10777, 5.10777;stroke-opacity:0.955017;paint-order:stroke markers fill"
         d="m 102.42481,536.04901 -7.179468,-6.52705 4.118615,-5.51644 c 10.981023,-14.70788 25.431883,-17.99743 39.868003,-9.07542 7.22023,4.46236 7.6165,5.30722 7.6165,16.23899 v 11.53174 l -18.62209,-0.0624 c -17.76237,-0.0595 -18.95354,-0.36371 -25.80156,-6.58943 z"
         id="path1334"
         transform="scale(0.26458333)" />
    </g>
    <path
       id="path1460"
       style="fill:#000000;stroke-width:0.245241"
       d="m 83.59462,148.03115 c -20.731012,-0.004 -35.953323,0.0255 -36.929434,0.0791 l -2.366031,0.12988 -1.298785,1.42866 c -9.573447,10.53116 -11.852515,31.01803 -5.217749,46.90173 1.02599,2.45623 2.984995,5.96539 3.197217,5.72732 0.07859,-0.0882 0.880208,0.64004 1.781758,1.61789 0.901561,0.97785 2.368651,2.31808 3.260076,2.97857 l 1.620767,1.20087 5.523452,0.0467 c 3.03798,0.0256 6.111645,0.13545 6.830376,0.24403 0.718732,0.10859 1.60647,0.15047 1.972597,0.0928 0.366117,-0.0576 23.311954,-0.10501 50.990856,-0.10501 h 50.32564 l 0.41016,-0.70266 c 0.38526,-0.65956 0.41497,-2.3748 0.47981,-27.85886 0.038,-14.93581 0.004,-27.76987 -0.0746,-28.51991 -0.0983,-0.93324 -0.24811,-1.36372 -0.47438,-1.36372 -0.18185,0 -0.33057,-0.17534 -0.33057,-0.38964 0,-0.2143 -0.0919,-0.38963 -0.20441,-0.38963 -0.11249,0 -0.25909,-0.23334 -0.3256,-0.5185 -0.12031,-0.51612 -0.37805,-0.51877 -56.92719,-0.58445 -7.81091,-0.009 -15.333601,-0.0139 -22.24394,-0.0152 z m -39.629207,2.20387 c 0.02219,0.0412 -0.24045,0.44168 -0.70185,1.05779 -0.615207,0.82148 -1.166629,1.4936 -1.225523,1.4936 -0.171661,0 1.218522,-1.89839 1.807082,-2.46768 0.07385,-0.0714 0.112894,-0.0975 0.120291,-0.0837 z m 1.52987,2.03137 h 5.414919 5.175693 v 7.18744 c -0.353829,1.60746 -1.205688,2.24542 -3.207165,3.18303 -3.788425,1.77473 -6.733412,0.26462 -9.486283,-4.86485 -0.406783,-0.75796 -0.668544,-1.51775 -0.581558,-1.68842 0.08696,-0.17068 0.726616,-1.09949 1.421337,-2.06384 z m 114.957797,0 h 0.0642 v 25.97563 25.97562 h -0.0642 v -26.22676 z m -117.099525,0.28157 c 0.0575,0.0118 -0.382383,0.74712 -1.475602,2.5377 -0.623574,1.02136 -1.176811,1.85685 -1.229143,1.85685 -0.24166,0 1.300292,-2.72431 2.097863,-3.7066 0.358972,-0.4421 0.572383,-0.69503 0.606882,-0.68795 z m -1.089404,4.68323 c 0.01953,-0.0219 0.08329,0.034 0.197622,0.16133 0.158236,0.1762 0.229146,0.38572 0.157825,0.46573 -0.07129,0.08 -0.200628,-0.0639 -0.287614,-0.32012 -0.06282,-0.1851 -0.08736,-0.28504 -0.06783,-0.30694 z m -0.417402,0.74984 c 0.05976,0 0.487745,0.67212 0.951025,1.4936 0.463282,0.82148 1.111346,1.81505 1.439877,2.20793 0.328541,0.39288 0.53806,0.71433 0.465339,0.71433 -0.204599,0 -1.734091,-1.9597 -2.055806,-2.6341 -0.157974,-0.33114 -0.427383,-0.75902 -0.598291,-0.95074 -0.301902,-0.3387 -0.42169,-0.83102 -0.202144,-0.83102 z m 119.681271,1.38858 c 0.0211,0.004 0.046,0.0435 0.0737,0.12125 0.0669,0.18751 0.0584,0.4114 -0.0185,0.4977 -0.0769,0.0863 -0.13126,-0.0671 -0.1212,-0.34093 0.007,-0.18912 0.0309,-0.28398 0.066,-0.27802 z m -120.93212,1.18412 0.883644,1.25414 c 1.143299,1.62265 3.621212,4.14337 4.665132,4.74562 0.449752,0.25947 1.424974,0.59747 2.167054,0.75137 1.635317,0.33915 4.028716,-0.13067 6.450508,-1.26682 l 1.323657,-0.62098 v 12.57382 14.73204 c -0.200053,-0.0769 -0.665023,-0.27738 -1.285217,-0.5601 -0.755095,-0.34422 -2.168536,-0.8102 -3.14069,-1.03547 -2.001845,-0.4639 -3.773952,-0.24624 -5.353867,0.65801 -0.48837,0.27951 -1.781013,1.48139 -2.872521,2.67062 l -1.984355,2.16227 -0.757021,-1.85026 c -1.016697,-2.48523 -2.075555,-6.28564 -2.583098,-9.27005 -0.639824,-3.76221 -0.580799,-12.92981 0.106272,-16.47727 0.501435,-2.58896 1.313473,-5.60722 2.012393,-7.48017 z m 4.268081,0.67425 0.868268,0.89545 c 0.477545,0.49234 0.868268,0.93069 0.868268,0.97409 0,0.19835 -0.195677,0.0112 -0.938362,-0.89545 z m -2.161174,0.12988 c 0.0523,0 0.486933,0.526 0.965948,1.1689 0.956237,1.28337 1.041674,1.5891 0.127075,0.45458 -0.737293,-0.91458 -1.214478,-1.62348 -1.093023,-1.62348 z m 12.610239,0.37441 c 0.160505,-0.0139 0.06921,0.1442 -0.414689,0.48705 -0.29758,0.21084 -0.801794,0.46164 -1.120156,0.55756 -0.354636,0.10686 -0.18455,-0.0859 0.438656,-0.4982 0.523415,-0.34627 0.935685,-0.53246 1.096189,-0.54641 z m -9.522913,2.24497 c 0.127346,0 0.596214,0.22394 1.041922,0.4977 0.445709,0.27375 0.706192,0.49769 0.578846,0.49769 -0.127344,0 -0.596204,-0.22394 -1.041922,-0.49769 -0.445709,-0.27376 -0.706189,-0.4977 -0.578846,-0.4977 z m 4.264464,0.0101 c 0.08044,0.004 0.149212,0.0279 0.187673,0.071 0.07694,0.0863 -0.05982,0.14777 -0.303894,0.13648 -0.269735,-0.0125 -0.324445,-0.0743 -0.139738,-0.15728 0.08357,-0.0375 0.175522,-0.0539 0.255959,-0.0502 z m 111.473423,9.14931 c 0.0211,0.004 0.046,0.0435 0.0737,0.12125 0.0669,0.18751 0.0584,0.4114 -0.0185,0.4977 -0.0769,0.0863 -0.13126,-0.0671 -0.1212,-0.34093 0.007,-0.18913 0.0309,-0.28398 0.066,-0.27802 z m -125.725231,9.35122 c 0.02106,0.004 0.04598,0.0436 0.07371,0.12126 0.06686,0.1875 0.05838,0.4114 -0.01854,0.49769 -0.07697,0.0863 -0.13126,-0.0671 -0.121196,-0.34093 0.0069,-0.18913 0.03093,-0.28398 0.06602,-0.27802 z m 0.231538,1.8183 c 0.02106,0.004 0.04598,0.0435 0.07371,0.12125 0.06686,0.18751 0.05838,0.4114 -0.01854,0.4977 -0.07698,0.0863 -0.13126,-0.0671 -0.121196,-0.34093 0.0069,-0.18913 0.03093,-0.28398 0.06602,-0.27802 z m 125.517203,2.36824 c 0.014,0.006 0.0292,0.0299 0.0452,0.0746 0.0642,0.17858 0.0642,0.47081 0,0.64939 -0.0642,0.17858 -0.11668,0.0325 -0.11668,-0.32469 0,-0.2679 0.0296,-0.41679 0.0714,-0.39928 z m -113.909091,6.65528 c 0.127346,0 -0.133128,0.22394 -0.578846,0.4977 -0.445708,0.27375 -0.914575,0.49769 -1.041921,0.49769 -0.127344,0 0.133136,-0.22394 0.578845,-0.49769 0.445709,-0.27376 0.914578,-0.4977 1.041922,-0.4977 z m 2.643696,0.78942 c 0.08044,0.004 0.149212,0.0279 0.187673,0.071 0.07694,0.0864 -0.05981,0.14777 -0.303894,0.13648 -0.269725,-0.0125 -0.324445,-0.0743 -0.139738,-0.15728 0.08357,-0.0375 0.17552,-0.0539 0.255959,-0.0502 z m -12.017826,0.29831 c 0.0017,-0.11032 0.477426,0.77553 1.057297,1.96847 0.579879,1.19294 1.002056,2.22779 0.93791,2.29975 -0.11771,0.13206 -2.000458,-3.89636 -1.995207,-4.26822 z m 6.171938,0.47436 c 0.05327,0.002 -0.134088,0.30988 -0.506941,0.81884 -0.497147,0.67861 -0.94088,1.23384 -0.986298,1.23384 -0.165719,0 0.839906,-1.44316 1.357574,-1.94817 0.07323,-0.0714 0.117911,-0.10507 0.135665,-0.10451 z m 5.749112,0.11263 c 1.773393,-0.0103 4.04782,0.9532 5.251666,2.22467 l 0.64487,0.68135 v 6.30214 l -2.365579,-0.0487 c -1.432642,-0.0297 -3.560907,-0.0925 -4.729348,-0.13952 l -2.124092,-0.0852 -1.579613,-1.6458 -1.579165,-1.6458 0.376703,-0.87769 c 0.605651,-1.41078 2.138839,-3.17299 3.475333,-3.99477 0.974632,-0.59928 1.537279,-0.76475 2.629225,-0.77064 z m -3.382176,0.12176 c 0.06367,0 -0.237738,0.40911 -0.669742,0.90915 -0.431995,0.50003 -0.837573,0.90914 -0.901281,0.90914 -0.06367,0 0.237739,-0.40911 0.669743,-0.90914 0.431997,-0.50004 0.837573,-0.90915 0.90128,-0.90915 z m 6.805053,0.26432 c 0.355729,-0.008 1.733224,0.72706 1.88803,1.00808 0.08677,0.15743 0.07318,0.27524 -0.02984,0.26179 -0.273734,-0.0358 -2.072167,-1.26496 -1.858185,-1.26987 z m -8.553346,0.38507 -0.731244,1.03903 c -0.402296,0.57145 -0.948721,1.33125 -1.21422,1.68841 l -0.482522,0.64939 0.417854,-0.85182 c 0.230013,-0.46859 0.776447,-1.22838 1.214219,-1.68841 z m 116.49264,4.66597 c 0.014,0.006 0.0292,0.0299 0.0452,0.0746 0.0642,0.17858 0.0642,0.47081 0,0.64939 -0.0642,0.17858 -0.11668,0.0325 -0.11668,-0.32469 0,-0.2679 0.0296,-0.41679 0.0714,-0.39928 z m -120.498432,2.16024 c -0.0062,0.001 -0.0095,0.006 -0.0095,0.0142 0,0.48323 3.24594,3.95399 4.649756,4.97189 0.793134,0.57511 1.555196,1.04562 1.693577,1.04562 0.138372,0 -0.424608,-0.48829 -1.251302,-1.08519 -0.826686,-0.5969 -2.310684,-2.00496 -3.29761,-3.12925 -0.925251,-1.05401 -1.692597,-1.8333 -1.784924,-1.81728 z" />
    <g
       id="g1977"
       transform="matrix(0.99621531,0,0,0.89053511,3.4645999,2.637938)">
      <path
         style="fill:#000000;stroke-width:0.264583"
         d="m 36.101667,316.24611 c -1.60417,-1.03682 -5.31334,-4.57226 -5.31334,-5.06447 0,-0.13508 0.92273,0.69135 2.05052,1.83652 1.12778,1.14518 2.82343,2.57959 3.7681,3.18758 0.94468,0.60799 1.58821,1.10544 1.43009,1.10544 -0.15813,0 -1.02904,-0.47928 -1.93537,-1.06507 z m 16.34441,0.81279 c -0.82131,-0.1106 -4.33365,-0.22244 -7.80521,-0.24853 l -6.31192,-0.0474 -1.85208,-1.22322 c -1.01865,-0.67277 -2.695,-2.03814 -3.72523,-3.03416 -1.03022,-0.99603 -1.94662,-1.73746 -2.03643,-1.64765 -0.24251,0.2425 -2.48111,-3.33217 -3.65353,-5.83405 -7.58168,-16.17887 -4.97722,-37.04624 5.96255,-47.7731 l 1.48409,-1.45521 2.70407,-0.13229 c 1.48723,-0.0728 31.91541,-0.10205 67.618183,-0.0651 64.61984,0.0669 64.91473,0.0696 65.05221,0.59531 0.076,0.29046 0.24328,0.52811 0.37183,0.52811 0.12854,0 0.23372,0.17859 0.23372,0.39687 0,0.21828 0.17003,0.39688 0.37784,0.39688 0.25856,0 0.42966,0.43848 0.54202,1.38906 0.0903,0.76398 0.12864,13.83636 0.0852,29.04973 -0.0741,25.95763 -0.10789,27.70475 -0.54813,28.37656 l -0.46912,0.71589 h -57.5077 c -31.629243,0 -57.850013,0.048 -58.268383,0.1067 -0.41838,0.0587 -1.43266,0.0162 -2.25397,-0.0944 z m -4.19525,-7.32932 v -3.08367 l -1.01039,-0.95122 c -1.37566,-1.2951 -3.97458,-2.27641 -6.00107,-2.26591 -1.24779,0.006 -1.89072,0.17442 -3.00445,0.78484 -1.52724,0.83705 -3.27929,2.63229 -3.97138,4.06929 l -0.43038,0.89361 1.80463,1.67641 1.80462,1.67641 2.42765,0.087 c 1.3352,0.0479 3.7671,0.11176 5.40421,0.14196 l 2.97656,0.0549 z M 167.31333,286.35493 V 259.8966 H 109.89875 52.484157 v 26.45833 26.45833 h 57.414593 57.41458 z m -117.828943,22.9526 c -0.0734,-0.1819 -0.13345,-0.0331 -0.13345,0.33073 0,0.3638 0.0601,0.51263 0.13345,0.33073 0.0734,-0.1819 0.0734,-0.47956 0,-0.66146 z m 119.062503,-0.26458 c -0.0734,-0.1819 -0.13345,-0.0331 -0.13345,0.33073 0,0.3638 0.0601,0.51263 0.13345,0.33073 0.0734,-0.1819 0.0734,-0.47956 0,-0.66146 z M 49.484387,307.19087 c -0.0734,-0.18191 -0.13345,-0.0331 -0.13345,0.33072 0,0.36381 0.0601,0.51263 0.13345,0.33073 0.0734,-0.1819 0.0734,-0.47955 0,-0.66145 z m -14.9435,-1.91823 0.83584,-1.05834 -0.90956,0.85197 c -0.50025,0.46858 -1.1246,1.24249 -1.38744,1.71979 l -0.47788,0.86783 0.5516,-0.66146 c 0.30339,-0.3638 0.92773,-1.13771 1.38744,-1.71979 z m -5.71586,-0.43655 c -0.66263,-1.21511 -1.20634,-2.11735 -1.20825,-2.00498 -0.006,0.37877 2.14534,4.48197 2.27985,4.34746 0.0733,-0.0733 -0.40896,-1.12737 -1.0716,-2.34248 z m 5.26539,-0.68793 c 0.56809,-0.69123 0.75905,-1.01865 0.42434,-0.72761 -0.59155,0.51439 -1.74089,1.98438 -1.55152,1.98438 0.0519,0 0.55908,-0.56555 1.12718,-1.25677 z m 2.51874,0.33073 c 0.49366,-0.50933 0.83802,-0.92605 0.76526,-0.92605 -0.0728,0 -0.53619,0.41672 -1.02984,0.92605 -0.49366,0.50932 -0.83803,0.92604 -0.76527,0.92604 0.0728,0 0.5362,-0.41672 1.02985,-0.92604 z m 0.19275,-4.32898 c 1.8054,-0.92105 3.83052,-1.14298 6.11807,-0.67047 1.1109,0.22946 2.7258,0.70407 3.58866,1.05468 0.86286,0.35061 1.60784,0.63747 1.65551,0.63747 0.0477,0 0.0867,-6.29875 0.0867,-13.99723 v -13.99723 l -1.78594,0.74684 c -2.76743,1.15726 -5.50239,1.63617 -7.3711,1.29072 -0.84799,-0.15676 -1.9623,-0.50125 -2.47624,-0.76554 -1.19291,-0.61344 -4.0248,-3.18119 -5.33127,-4.834 l -1.00949,-1.2771 -0.42065,1.00479 c -0.79867,1.90775 -1.7266,4.98231 -2.2996,7.61938 -0.78513,3.61339 -0.85285,12.95131 -0.12171,16.78343 0.57998,3.03987 1.79025,6.91108 2.95205,9.44249 l 0.86479,1.88425 2.26778,-2.20242 c 1.24729,-1.21133 2.72439,-2.43536 3.28246,-2.72006 z m 10.50619,4.69886 c -0.1769,-0.28624 -1.75113,-1.03554 -2.15763,-1.02699 -0.24452,0.005 1.81099,1.25718 2.12379,1.29362 0.11773,0.0137 0.13295,-0.10627 0.0338,-0.26663 z m -9.64061,-2.61884 c 0.50933,-0.27884 0.80698,-0.50699 0.66146,-0.50699 -0.14552,0 -0.6813,0.22815 -1.19062,0.50699 -0.50932,0.27884 -0.80698,0.50698 -0.66146,0.50698 0.14552,0 0.6813,-0.22814 1.19062,-0.50698 z m 3.8971,0.36931 c -0.0879,-0.0879 -0.31613,-0.0973 -0.50712,-0.0209 -0.21107,0.0845 -0.14837,0.14715 0.15985,0.15985 0.27892,0.0115 0.43519,-0.051 0.34727,-0.13897 z m 7.92531,-3.06475 c -0.0845,-0.21107 -0.14715,-0.14838 -0.15985,0.15985 -0.0115,0.27891 0.051,0.43518 0.13896,0.34726 0.0879,-0.0879 0.0973,-0.31612 0.0209,-0.50711 z m 119.056993,-4.51446 c -0.0734,-0.1819 -0.13345,-0.0331 -0.13345,0.33073 0,0.3638 0.0601,0.51263 0.13345,0.33073 0.0734,-0.1819 0.0734,-0.47956 0,-0.66146 z M 49.484387,293.16795 c -0.0734,-0.1819 -0.13345,-0.0331 -0.13345,0.33073 0,0.3638 0.0601,0.51263 0.13345,0.33073 0.0734,-0.1819 0.0734,-0.47956 0,-0.66146 z m -24.33616,-0.51263 c -0.0845,-0.21107 -0.14715,-0.14837 -0.15985,0.15985 -0.0115,0.27892 0.051,0.43519 0.13897,0.34727 0.0879,-0.0879 0.0973,-0.31613 0.0209,-0.50712 z m -0.26458,-1.85208 c -0.0845,-0.21107 -0.14716,-0.14838 -0.15985,0.15985 -0.0115,0.27891 0.051,0.43518 0.13896,0.34726 0.0879,-0.0879 0.0973,-0.31612 0.0209,-0.50711 z m 143.668753,-9.525 c -0.0845,-0.21107 -0.14715,-0.14838 -0.15985,0.15985 -0.0115,0.27891 0.0511,0.43518 0.13897,0.34726 0.0879,-0.0879 0.0973,-0.31612 0.0209,-0.50711 z M 49.484387,279.14503 c -0.0734,-0.1819 -0.13345,-0.0331 -0.13345,0.33073 0,0.3638 0.0601,0.51263 0.13345,0.33073 0.0734,-0.1819 0.0734,-0.47956 0,-0.66146 z m 0,-4.23333 c -0.0734,-0.1819 -0.13345,-0.0331 -0.13345,0.33073 0,0.3638 0.0601,0.51263 0.13345,0.33073 0.0734,-0.1819 0.0734,-0.47956 0,-0.66146 z m -12.08148,-2.57969 c -0.50932,-0.27884 -1.0451,-0.50698 -1.19062,-0.50698 -0.14552,0 0.15213,0.22814 0.66145,0.50698 0.50933,0.27884 1.04511,0.50699 1.19063,0.50699 0.14552,0 -0.15214,-0.22815 -0.66146,-0.50699 z m 3.89709,-0.42443 c -0.0879,-0.0879 -0.31612,-0.0973 -0.50711,-0.0209 -0.21107,0.0845 -0.14838,0.14716 0.15985,0.15985 0.27891,0.0115 0.43518,-0.0511 0.34726,-0.13896 z m -7.51183,-1.55994 c -0.54738,-0.65485 -1.04413,-1.19063 -1.1039,-1.19063 -0.13879,0 0.40666,0.72208 1.24918,1.65365 1.04513,1.15561 0.94743,0.8442 -0.14528,-0.46302 z m 10.52408,0.11206 c 3.52581,-1.47226 3.93858,-2.20358 3.93858,-6.97809 v -3.58501 h -6.18769 -6.18769 l -1.44341,1.78593 c -0.79387,0.98227 -1.52471,1.92818 -1.62408,2.10203 -0.0994,0.17384 0.19963,0.94775 0.66447,1.71979 3.14576,5.22479 6.51071,6.76306 10.83982,4.95535 z m -7.17392,0.46901 c 0,-0.0442 -0.44649,-0.4907 -0.99219,-0.99219 l -0.99219,-0.9118 0.9118,0.99219 c 0.84868,0.9235 1.07258,1.11384 1.07258,0.9118 z m 9.48181,-0.89435 c 1.10592,-0.69844 0.41743,-0.64511 -0.7788,0.0603 -0.71215,0.41997 -0.90618,0.61666 -0.50093,0.50781 0.3638,-0.0977 0.93968,-0.35338 1.27973,-0.56814 z m -12.18207,-0.54662 c -0.37542,-0.40018 -1.11573,-1.41221 -1.64513,-2.24896 -0.5294,-0.83674 -1.01841,-1.52135 -1.0867,-1.52135 -0.25088,0 -0.11407,0.50147 0.23092,0.84646 0.1953,0.19529 0.50278,0.63105 0.6833,0.96835 0.36763,0.68693 2.11539,2.68311 2.34919,2.68311 0.0831,0 -0.15615,-0.32743 -0.53158,-0.72761 z m 15.04632,-2.24896 c -0.0734,-0.1819 -0.13345,-0.0331 -0.13345,0.33073 0,0.3638 0.0601,0.51263 0.13345,0.33073 0.0734,-0.1819 0.0734,-0.47956 0,-0.66146 z m 119.068013,0.0165 c -0.0845,-0.21107 -0.14715,-0.14837 -0.15985,0.15985 -0.0115,0.27892 0.0511,0.43519 0.13897,0.34727 0.0879,-0.0879 0.0973,-0.31613 0.0209,-0.50712 z m -119.068013,-2.1332 c -0.0734,-0.1819 -0.13345,-0.0331 -0.13345,0.33073 0,0.3638 0.0601,0.51263 0.13345,0.33072 0.0734,-0.1819 0.0734,-0.47955 0,-0.66145 z m -17.07573,-0.004 c -0.26131,-0.25936 -0.2917,-0.22897 -0.14812,0.14811 0.0994,0.26094 0.24731,0.40778 0.32877,0.32632 0.0815,-0.0815 1.7e-4,-0.29495 -0.18065,-0.47443 z m -0.66697,-2.35013 c 1.99879,-2.91817 2.08644,-3.08451 0.99256,-1.88365 -0.9114,1.00054 -2.67303,3.77518 -2.39688,3.77518 0.0598,0 0.69175,-0.85119 1.40432,-1.89153 z m 1.58347,-3.86316 c 0.703,-0.83675 1.00201,-1.28323 0.66445,-0.99219 -0.67256,0.57987 -2.26119,2.51354 -2.06503,2.51354 0.0673,0 0.69757,-0.68461 1.40058,-1.52135 z"
         id="path1659" />
      <path
         style="fill:#ffffff;stroke:#000000;stroke-width:20.4311;stroke-linecap:round;stroke-linejoin:round;stroke-dasharray:5.10777, 5.10777;stroke-opacity:0.955017;paint-order:stroke markers fill"
         d="m 200.05442,1082.2093 v -98.96309 h 216.01622 216.01621 v 98.96309 98.9631 H 416.07064 200.05442 Z"
         id="path1716"
         transform="scale(0.26458333)" />
      <path
         style="fill:#ffffff;stroke:#000000;stroke-width:20.4311;stroke-linecap:round;stroke-linejoin:round;stroke-dasharray:5.10777, 5.10777;stroke-opacity:0.955017;paint-order:stroke markers fill"
         d="m 143.20922,1019.5014 c -3.75738,-2.291 -9.38515,-8.0241 -12.50615,-12.7403 l -5.67455,-8.5748 5.69768,-7.47005 5.69768,-7.47004 h 22.2382 22.2382 v 12.90934 c 0,16.10575 -1.92929,19.74915 -12.75041,24.07895 -11.24196,4.4981 -16.62039,4.34 -24.94065,-0.7331 z"
         id="path1755"
         transform="scale(0.26458333)" />
      <path
         style="fill:#ffffff;stroke:#000000;stroke-width:20.4311;stroke-linecap:round;stroke-linejoin:round;stroke-dasharray:5.10777, 5.10777;stroke-opacity:0.955017;paint-order:stroke markers fill"
         d="m 113.16551,1138.0409 c -8.45232,-22.5909 -9.71125,-30.1929 -9.59836,-57.9598 0.10769,-26.4886 3.57588,-47.9627 9.54871,-59.1231 1.93158,-3.6091 2.40079,-3.4817 6.53613,1.7755 2.45034,3.1152 8.27909,8.4339 12.95278,11.8195 9.86616,7.147 24.67641,8.293 39.51498,3.0577 l 8.78053,-3.098 v 50.7751 50.775 l -9.91532,-2.9841 c -18.94513,-5.7016 -32.37915,-2.7144 -44.44883,9.8836 -3.31259,3.4576 -6.7326,6.2865 -7.60003,6.2865 -0.86744,0 -3.4642,-5.0436 -5.77059,-11.2079 z"
         id="path1794"
         transform="scale(0.26458333)" />
      <path
         style="fill:#ffffff;stroke:#000000;stroke-width:20.4311;stroke-linecap:round;stroke-linejoin:round;stroke-dasharray:5.10777, 5.10777;stroke-opacity:0.955017;paint-order:stroke markers fill"
         d="m 136.47663,1174.5206 -7.17947,-6.5271 4.11861,-5.5164 c 10.98102,-14.7079 25.43189,-17.9974 39.868,-9.0754 7.22024,4.4623 7.61651,5.3072 7.61651,16.239 v 11.5317 l -18.62209,-0.062 c -17.76237,-0.059 -18.95354,-0.3637 -25.80156,-6.5894 z"
         id="path1833"
         transform="scale(0.26458333)" />
    </g>
  </g>
</svg>
