<?xml version="1.0" encoding="UTF-8" standalone="no"?>
<!-- Created with Inkscape (http://www.inkscape.org/) -->

<svg
   width="210mm"
   height="297mm"
   viewBox="0 0 210 297"
   version="1.1"
   id="svg5"
   inkscape:version="1.1 (c68e22c387, 2021-05-23)"
   sodipodi:docname="keyboard editor icon silhoutte.svg"
   xmlns:inkscape="http://www.inkscape.org/namespaces/inkscape"
   xmlns:sodipodi="http://sodipodi.sourceforge.net/DTD/sodipodi-0.dtd"
   xmlns="http://www.w3.org/2000/svg"
   xmlns:svg="http://www.w3.org/2000/svg">
  <sodipodi:namedview
     id="namedview7"
     pagecolor="#ffffff"
     bordercolor="#666666"
     borderopacity="1.0"
     inkscape:pageshadow="2"
     inkscape:pageopacity="0.0"
     inkscape:pagecheckerboard="0"
     inkscape:document-units="mm"
     showgrid="false"
     inkscape:zoom="0.35455254"
     inkscape:cx="420.24801"
     inkscape:cy="562.68106"
     inkscape:window-width="1680"
     inkscape:window-height="956"
     inkscape:window-x="-11"
     inkscape:window-y="-11"
     inkscape:window-maximized="1"
     inkscape:current-layer="layer1" />
  <defs
     id="defs2" />
  <g
     inkscape:label="Layer 1"
     inkscape:groupmode="layer"
     id="layer1">
    <path
       style="fill:#000000;stroke-width:0.668357"
       d="m 42.540455,227.07157 c -0.223799,-0.39683 -1.534877,-0.91918 -2.913508,-1.16077 -1.97196,-0.34556 -3.045549,-1.14865 -5.033384,-3.76514 -3.164483,-4.16528 -4.055974,-6.07811 -6.464631,-13.87086 -2.923889,-9.45969 -5.614523,-25.01006 -6.751578,-39.02039 -0.618813,-7.62475 -0.428197,-37.92413 0.286805,-45.58915 1.089456,-11.67926 3.135203,-23.58553 5.181017,-30.153559 1.067124,-3.425971 2.544921,-8.371948 3.283994,-10.991057 1.628653,-5.771591 4.766984,-9.950661 9.927336,-13.219459 5.478821,-3.470529 13.065388,-6.556155 20.244566,-8.233916 1.755738,-0.410313 3.766855,-1.028673 4.46915,-1.374134 0.702295,-0.34546 6.172354,-1.168171 12.155688,-1.828245 14.321081,-1.579886 44.99341,-1.150455 51.05086,0.714742 2.10688,0.648748 6.99103,2.075232 10.85365,3.169962 7.78026,2.205058 12.20262,4.098503 17.75867,7.603433 7.08878,4.471824 9.62922,8.606677 9.71525,15.812623 0.0384,3.217073 0.62744,6.849816 1.70463,10.512996 0.90527,3.078528 2.11457,8.116124 2.68733,11.194644 0.57276,3.07853 1.32769,7.14108 1.67762,9.0279 1.44562,7.79482 2.20646,22.16385 2.15233,40.64835 -0.0653,22.29954 -1.02568,33.01017 -4.18838,46.71096 -2.2871,9.90769 -5.18814,16.53308 -9.06509,20.70284 -2.73828,2.94509 -2.73828,2.94509 -60.53185,3.38741 -39.430468,0.30179 -57.922858,0.21308 -58.200475,-0.27918 z m 1.124716,-5.95866 c 1.477333,-2.31142 1.250849,-2.56567 -1.583238,-1.77733 -2.466036,0.68596 -2.530567,0.77323 -1.497172,2.0246 1.391861,1.68546 1.869629,1.64711 3.08041,-0.24727 z m 30.158416,0.77198 c -1.123479,-0.71603 -1.123479,-0.77233 0,-1.70563 1.064504,-0.88431 1.070117,-0.96703 0.06701,-0.98742 -0.602153,-0.0122 -1.388756,0.57963 -1.748006,1.31526 -0.559433,1.14553 -0.883409,1.22085 -2.257287,0.52475 -0.88226,-0.44702 -1.500102,-1.12761 -1.372984,-1.51242 0.127117,-0.38482 0.05533,-1.23912 -0.159516,-1.89846 -0.294562,-0.90395 -0.626137,-1.01991 -1.34816,-0.47148 -0.720028,0.54691 -0.759579,0.81532 -0.15946,1.08218 0.438935,0.19518 0.798063,0.81366 0.798063,1.3744 0,0.74797 -0.670106,0.97621 -2.515724,0.85687 -1.383648,-0.0895 -2.38452,-0.39532 -2.22416,-0.67966 0.451808,-0.80113 -0.911758,-1.45987 -1.790256,-0.86488 -0.43125,0.29208 -1.436808,0.49958 -2.234575,0.46109 -0.797767,-0.0385 -2.285495,-0.10145 -3.306063,-0.13993 -1.57446,-0.0593 -1.801035,-0.29854 -1.495554,-1.5787 0.246673,-1.03372 0.127348,-1.35115 -0.378996,-1.00821 -0.406462,0.27529 -0.739021,0.93858 -0.739021,1.47397 0,0.5354 -0.359128,1.22522 -0.798063,1.53296 -0.438934,0.30773 -1.192369,1.1105 -1.6743,1.78393 -0.828272,1.15739 -0.181726,1.22325 11.811325,1.20314 9.238756,-0.0155 12.371745,-0.22256 11.525727,-0.76176 z m 11.057809,0.38322 c 0,-0.63506 -1.76594,-2.39885 -2.401785,-2.39885 -0.317706,0 -0.577651,-0.44226 -0.577651,-0.98279 0,-0.54054 0.38307,-0.8217 0.851271,-0.62481 0.468195,0.19689 0.851265,0.63914 0.851265,0.98279 0,0.34364 0.397448,0.62481 0.883212,0.62481 0.485765,0 1.033472,0.6297 1.217129,1.39933 0.301699,1.26431 0.870852,1.39933 5.89869,1.39933 4.78358,0 5.457132,-0.14213 4.798022,-1.01245 -0.421709,-0.55685 -0.672365,-1.89496 -0.55701,-2.97358 0.18238,-1.70537 -0.02937,-1.99107 -1.623782,-2.19074 -1.008432,-0.12629 -2.108015,0.0712 -2.443521,0.43888 -0.357098,0.39134 -1.548088,0.43662 -2.872718,0.10923 -3.775359,-0.93312 -18.052414,-0.73582 -17.710183,0.24474 0.162858,0.46662 1.488172,0.8361 2.999122,0.8361 1.825345,0 2.655317,0.28491 2.547702,0.87458 -0.08779,0.48102 0.288297,0.87458 0.835742,0.87458 0.547444,0 0.817791,-0.31485 0.60077,-0.69967 -0.609426,-1.08061 -0.01654,-0.83309 1.533634,0.64028 1.390646,1.32173 1.392299,1.34602 0.121809,1.78792 -0.708393,0.24639 -1.854556,0.1157 -2.547029,-0.29044 -1.674479,-0.98208 -1.981439,-0.93388 -1.981439,0.31107 0,0.8396 0.957675,1.0495 4.788375,1.0495 2.633606,0 4.788375,-0.17991 4.788375,-0.39981 z m 1.504054,-2.65787 c 0.07227,-1.30175 0.435289,-1.63946 1.688196,-1.57052 1.649243,0.0908 1.915349,0.39353 1.915349,2.17937 0,0.69115 -0.630948,1.0495 -1.847808,1.0495 -1.544283,0 -1.83269,-0.27241 -1.755737,-1.65835 z m 29.77999,2.35802 c 1.96232,-0.68871 1.53229,-0.85016 -2.56229,-0.96204 -2.73559,-0.0748 -3.48255,-0.41791 -5.13995,-2.36137 -1.55456,-1.82286 -2.43939,-2.27392 -4.46067,-2.27392 -1.38679,0 -2.52144,0.31485 -2.52144,0.69967 0,0.38481 0.26771,0.69966 0.5949,0.69966 0.32719,0 0.50543,0.86584 0.39607,1.92408 -0.10934,1.05825 -0.0728,2.16022 0.0812,2.44883 0.36816,0.68985 11.55787,0.54606 13.61214,-0.17491 z m 29.77388,0.27978 c 1.36257,-0.40069 1.36251,-0.40136 -0.27302,-3.13894 -1.63587,-2.73817 -1.63587,-2.73817 -7.26852,-2.73817 -5.00275,0 -7.12283,0.69948 -4.83457,1.59507 0.43893,0.1718 0.60423,0.54163 0.36733,0.82186 -0.67752,0.80144 -3.08075,-0.30204 -3.08075,-1.41458 0,-0.77456 -1.01564,-1.00235 -4.46915,-1.00235 -4.36894,0 -4.46915,0.0402 -4.46915,1.79046 0,1.01547 0.27635,1.60328 0.63845,1.35804 0.35115,-0.23783 0.63845,-0.099 0.63845,0.30854 0,0.40752 -0.2873,0.74096 -0.63845,0.74096 -0.35114,0 -0.63845,0.31485 -0.63845,0.69966 0,0.38482 0.52559,0.69967 1.16798,0.69967 0.80063,0 1.15204,-0.49514 1.11729,-1.57425 -0.05,-1.55301 1.58516,-2.2198 3.14156,-1.28108 0.63887,0.38533 1.03901,0.50509 2.23457,0.66887 0.35115,0.0481 0.63845,0.42352 0.63845,0.83428 0,0.42587 -0.5432,0.55787 -1.26401,0.30716 -0.69521,-0.24181 -1.6997,-0.17246 -2.23219,0.15411 -0.67434,0.41357 -0.21356,0.62674 1.5183,0.70243 2.03939,0.0891 2.57012,-0.16723 2.95169,-1.42568 0.46522,-1.53434 0.46522,-1.53434 0.74779,0.0399 0.35558,1.98091 2.50819,2.10369 3.0668,0.17492 0.2229,-0.76963 0.67321,-1.39933 1.0007,-1.39933 0.86218,0 0.73079,1.22072 -0.20264,1.88278 -1.30608,0.92637 7.51912,1.96684 10.14154,1.19566 z m 12.69244,-2.96851 c 1.84285,-3.05172 1.62298,-4.55795 -0.88316,-6.0502 -0.92402,-0.5502 -1.32091,-1.01297 -0.88197,-1.02837 0.43893,-0.0154 0.79806,-0.63523 0.79806,-1.37737 0,-0.74215 0.43096,-1.82163 0.95768,-2.39886 0.52672,-0.57722 0.95767,-1.32387 0.95767,-1.6592 0,-1.30791 1.48158,-2.27409 2.31911,-1.51236 0.44947,0.40879 1.15618,0.51367 1.57048,0.23307 0.52236,-0.35379 0.31282,-0.87426 -0.68357,-1.6979 -1.16433,-0.96247 -1.35464,-1.59776 -1.00348,-3.34987 0.23834,-1.18918 0.90097,-2.57747 1.47253,-3.08507 0.57973,-0.51487 0.84549,-0.56866 0.60108,-0.12166 -0.24097,0.44069 0.0232,0.99525 0.58698,1.23235 0.71782,0.30186 0.91885,0.12766 0.67065,-0.58115 -0.19495,-0.55672 -0.055,-1.12161 0.31093,-1.25529 0.36596,-0.13368 0.81876,-1.73437 1.00624,-3.55707 0.27611,-2.68453 0.16754,-3.24114 -0.57156,-2.93033 -1.44569,0.60796 -1.06554,-2.54372 0.58395,-4.84135 1.54943,-2.15825 1.81118,-3.21157 0.79806,-3.21157 -0.79267,0 -0.8481,-2.57409 -0.0668,-3.10324 0.3144,-0.21293 0.48654,-2.12133 0.38254,-4.24087 -0.104,-2.11954 0.0744,-4.03218 0.39646,-4.25031 0.32206,-0.21812 0.42027,-0.68968 0.21824,-1.04791 -0.20203,-0.35822 -0.10473,-0.65132 0.21621,-0.65132 0.32095,0 0.62309,-2.12523 0.67144,-4.72274 0.0663,-3.56099 -0.0758,-4.42155 -0.57757,-3.49832 -0.42862,0.78861 -1.44954,1.22441 -2.86834,1.22441 -2.20285,0 -2.20285,0 -2.21388,14.51806 -0.0109,14.36396 -0.0271,14.53476 -1.5265,16.0923 -1.26256,1.31153 -2.23127,1.57425 -5.80464,1.57425 -3.57338,0 -4.54209,-0.26272 -5.80465,-1.57425 -1.49938,-1.55754 -1.51558,-1.72834 -1.5265,-16.0923 -0.011,-14.51806 -0.011,-14.51806 -2.90409,-14.51806 -1.98265,0 -3.00871,-0.33026 -3.26056,-1.0495 -0.20212,-0.57722 -0.76771,-1.0495 -1.25686,-1.0495 -0.6762,0 -0.88937,1.18381 -0.88937,4.93896 0,3.16731 0.23276,4.7813 0.64887,4.49947 0.35687,-0.2417 0.48357,-0.73256 0.28154,-1.09079 -0.20203,-0.35822 -0.08,-0.65132 0.27114,-0.65132 0.35114,0 0.81601,0.31485 1.03303,0.69967 0.21702,0.38481 1.09588,0.69966 1.95303,0.69966 0.85714,0 1.55844,0.33344 1.55844,0.74096 0,0.40753 0.26746,0.55982 0.59434,0.33842 0.32688,-0.2214 0.75618,-0.11554 0.95401,0.23523 0.19781,0.35077 -0.10199,0.8319 -0.66625,1.06919 -0.81674,0.34346 -0.86964,0.63777 -0.25947,1.44347 0.50254,0.66359 0.62433,2.16046 0.3537,4.34736 -0.47651,3.85048 -0.80029,4.4302 -1.67544,2.99976 -0.46317,-0.75705 -0.58062,-0.40193 -0.44412,1.34287 0.14204,1.8158 -0.0765,2.41661 -0.93173,2.56184 -1.2823,0.21775 -1.48071,-1.10732 -0.35115,-2.34519 0.56257,-0.6165 0.57735,-1.04649 0.0556,-1.61823 -1.4506,-1.58968 -2.07811,0.0865 -1.67889,4.48444 0.3987,4.39214 1.1734,6.3903 2.20637,5.69068 0.31135,-0.21088 0.5661,-0.05 0.5661,0.35754 0,0.40753 -0.2873,0.74096 -0.63845,0.74096 -0.98503,0 -0.75495,2.52136 0.31923,3.49832 0.67033,0.60967 0.98162,0.63537 1.03748,0.0857 0.18308,-1.80159 0.25952,-2.09008 0.67427,-2.54459 0.23916,-0.2621 0.26227,-0.99675 0.0513,-1.63256 -0.34749,-1.04749 -0.2664,-1.04372 0.86386,0.0402 0.68605,0.65791 1.2863,1.76275 1.33389,2.45521 0.0476,0.69247 0.18144,1.67902 0.29742,2.19234 0.29014,1.28413 -2.07689,2.88653 -2.47821,1.67767 -0.45471,-1.36969 -2.2265,-1.05406 -1.96379,0.34984 0.16136,0.86237 0.7319,1.16652 1.9295,1.02862 2.01892,-0.23246 2.77221,1.11807 2.74332,4.91833 -0.011,1.44294 0.18652,2.62363 0.43886,2.62374 0.25234,1.2e-4 0.30039,0.4526 0.10678,1.00553 -0.19362,0.55292 -0.75921,0.83408 -1.25687,0.62481 -0.60434,-0.25415 -0.9048,0.10901 -0.9048,1.09369 0,0.86874 0.40879,1.47418 0.99536,1.47418 0.54744,0 0.81779,0.31485 0.60077,0.69967 -0.21703,0.38482 -0.0903,0.69967 0.28154,0.69967 0.37187,0 0.67613,-0.36733 0.67613,-0.81628 0,-0.44895 0.16693,-0.63334 0.37095,-0.40976 0.20403,0.22359 0.024,1.11697 -0.40006,1.98531 -0.65044,1.33189 -0.58888,1.72472 0.39362,2.51202 0.64055,0.51329 1.65868,0.76142 2.2625,0.5514 0.84474,-0.29382 1.02196,-0.0637 0.76865,0.9978 -0.22402,0.93875 -0.66563,1.23819 -1.38187,0.937 -0.96667,-0.40651 -0.9708,-0.30254 -0.0506,1.27283 0.55114,0.94352 1.21375,2.10905 1.47246,2.59007 0.9897,1.84011 3.51991,0.95616 5.19281,-1.81414 z m -93.709742,-0.59388 c -0.618807,-0.1769 -0.973249,-0.59089 -0.787648,-0.91999 0.1856,-0.3291 0.04546,-0.79614 -0.311409,-1.03784 -0.356875,-0.24171 -0.648864,-0.001 -0.648864,0.53471 0,1.30172 0.635065,1.92442 1.862146,1.8259 0.802348,-0.0644 0.778784,-0.14751 -0.114225,-0.40278 z m -23.614832,-0.97143 c -1.522463,-0.97177 -1.425535,-3.91193 0.159612,-4.84161 0.836114,-0.49039 1.2769,-1.46498 1.2769,-2.82328 0,-1.73034 0.25733,-2.07438 1.551558,-2.07438 1.445445,0 1.511045,-0.1548 0.959195,-2.26349 -0.325799,-1.24491 -1.000204,-3.21272 -1.498677,-4.37291 -0.498474,-1.16018 -1.105737,-3.29011 -1.349474,-4.73317 -0.564039,-3.33941 -1.311685,-3.34903 -1.880858,-0.0242 -0.658232,3.8451 -2.077981,6.42186 -3.799165,6.89527 -2.373131,0.65273 -4.075924,-0.81812 -5.137854,-4.43801 -0.970337,-3.30767 -0.970337,-3.30767 -0.588646,-0.2769 0.20993,1.66692 0.781654,3.87087 1.270498,4.89765 0.488844,1.0268 0.902115,2.33918 0.918381,2.9164 0.03761,1.33469 2.549931,7.61577 3.808993,9.52289 1.057224,1.60141 2.2184,2.24354 4.149924,2.29491 1.17061,0.0311 1.183896,-0.0254 0.159613,-0.6792 z M 141.68341,209.5769 c -0.78154,-2.85863 -3.13348,-6.78734 -3.15802,-5.2752 -0.008,0.48102 -0.57979,0.87459 -1.27106,0.87459 -0.81452,0 -1.13625,-0.34446 -0.91415,-0.97873 0.18849,-0.5383 0.0358,-1.18658 -0.33926,-1.44063 -0.45888,-0.31079 -0.68198,1.14182 -0.68198,4.44049 0,4.90239 0,4.90239 3.35186,5.11387 1.84353,0.11631 3.44361,0.16342 3.55573,0.10469 0.11213,-0.0588 -0.13228,-1.33633 -0.54312,-2.83908 z m -72.117787,1.02179 c 0.0039,-0.86583 0.185108,-2.75493 0.402762,-4.19799 0.395734,-2.62374 0.395734,-2.62374 -6.315733,-2.62374 -6.711467,0 -6.711467,0 -7.414205,3.05841 -0.386505,1.68212 -0.882304,3.57122 -1.101775,4.19799 -0.354596,1.01266 0.426296,1.13958 7.011443,1.13958 7.257229,0 7.410627,-0.0325 7.417508,-1.57425 z m 15.954223,0.1576 c 0,-0.85788 -0.61424,-1.67257 -1.557307,-2.0655 -1.707407,-0.7114 -3.1952,-3.14569 -2.584465,-4.22863 0.235946,-0.41837 -1.120026,-0.6852 -3.481948,-0.6852 -3.86838,0 -3.86838,0 -3.86838,4.19799 0,4.19799 0,4.19799 5.74605,4.19799 5.343833,0 5.74605,-0.0992 5.74605,-1.41665 z m 20.959454,-3.13117 c -0.15323,-4.54783 -0.15323,-4.54783 -8.321765,-4.54783 -8.16854,0 -8.16854,0 -8.16854,4.54783 0,4.54782 0,4.54782 8.321762,4.54782 8.321763,0 8.321763,0 8.168543,-4.54782 z m -3.16433,0.87458 c -0.0448,-0.0962 -0.14851,-0.86645 -0.23042,-1.71166 -0.18781,-1.93793 1.22518,-2.59367 2.34018,-1.08603 0.61284,0.82866 0.62566,0.99798 0.0467,0.61679 -0.5353,-0.35243 -0.79806,-0.0511 -0.79806,0.91519 0,1.14309 -0.98706,2.06281 -1.35838,1.26571 z m 12.85047,-0.87458 c 0,-4.54783 0,-4.54783 -2.5538,-4.54783 -2.0643,0 -2.5538,0.2495 -2.5538,1.30168 0,0.71592 -0.1827,2.76244 -0.406,4.54782 -0.40601,3.24615 -0.40601,3.24615 2.5538,3.24615 2.9598,0 2.9598,0 2.9598,-4.54782 z m 14.78949,10e-4 c -0.21409,-4.54922 -0.21409,-4.54922 -5.26722,-4.54922 -5.05312,0 -5.05312,0 -5.05312,4.54783 0,4.54782 0,4.54782 5.26722,4.54929 5.26721,10e-4 5.26721,10e-4 5.05312,-4.54783 z m -79.861402,-2.76507 c 0.882083,-0.99633 0.717193,-3.34985 -0.209593,-2.99156 -0.438934,0.16968 -0.75962,0.81602 -0.712635,1.43628 0.04698,0.62027 -0.455795,1.31602 -1.117287,1.5461 -0.661493,0.23008 -1.202715,0.70208 -1.202715,1.04888 0,0.34681 0.430954,0.44933 0.957675,0.22783 1.121236,-0.47151 1.270715,0.52339 0.247164,1.64508 -0.398642,0.43687 -0.484273,1.17979 -0.195087,1.69257 0.352401,0.62487 0.693901,0.14624 1.079715,-1.51328 0.31036,-1.33497 0.829104,-2.72633 1.152763,-3.0919 z m 96.355962,-2.99155 c 0,-1.32591 -0.82587,-0.61699 -1.02652,0.88115 -0.0761,0.56792 0.1238,0.85508 0.44412,0.63813 0.32032,-0.21696 0.5824,-0.90063 0.5824,-1.51928 z m -77.284635,-3.43445 c 0.959121,-1.00869 2.306068,-37.20406 2.287566,-61.47189 -0.0208,-27.28232 -0.0208,-27.28232 -3.785332,-27.79934 -2.070492,-0.28436 -5.302645,-0.94632 -7.182562,-1.47102 -4.097707,-1.14372 -3.930424,-1.92859 -2.170701,10.18463 1.865582,12.84191 2.811752,31.83217 2.342616,47.01785 -0.363807,11.77624 -0.958157,17.9317 -2.909689,30.13458 -0.307628,1.92359 -0.406784,3.76792 -0.220345,4.09851 0.323527,0.57367 11.040791,-0.0648 11.638447,-0.69332 z m 15.612854,-2.52972 c 0.184857,-1.63547 0.444323,-8.52699 0.576584,-15.3145 0.240479,-12.34092 0.240479,-12.34092 -4.498575,-13.17871 -2.606485,-0.46079 -4.837821,-0.72957 -4.958528,-0.59728 -0.321208,0.352 -1.104302,10.49524 -1.948795,25.24233 -0.390648,6.82174 -0.390648,6.82174 5.051285,6.82174 5.441924,0 5.441924,0 5.778029,-2.97358 z m 18.736021,2.47157 c 2.07496,-0.35339 2.07496,-0.35339 2.07496,-16.97548 0,-16.6221 0,-16.6221 -4.73464,-16.95508 -3.110329,-0.21875 -5.077521,-0.70874 -5.73409,-1.42826 -1.253271,-1.37344 -1.268849,-7.92932 -0.07771,-32.70638 0.471745,-9.81281 0.634645,-18.0978 0.361995,-18.4111 -0.272643,-0.31329 -1.755788,-0.47071 -3.295876,-0.34983 -2.800153,0.21979 -2.800153,0.21979 -3.214111,9.31544 -0.828172,18.19686 -0.758817,43.85065 0.120157,44.44598 0.640135,0.43356 0.729876,3.98198 0.420368,16.62117 -0.216441,8.83846 -0.19942,16.28265 0.0378,16.54264 0.479948,0.52597 10.798527,0.45314 14.041127,-0.0991 z m 12.57529,-20.31304 c 0.2431,-11.06346 0.707,-22.7916 1.03088,-26.06254 0.32388,-3.27093 0.59122,-13.94096 0.59411,-23.71116 0.005,-17.76401 0.005,-17.76401 -3.2736,-17.33845 -1.80336,0.23406 -3.35307,0.51405 -3.44381,0.62221 -0.60633,0.72268 -2.29493,36.07913 -1.96006,41.04032 0.22401,3.31865 0.39063,14.9284 0.37028,25.79945 -0.037,19.76555 -0.037,19.76555 3.1016,19.76555 3.13859,0 3.13859,0 3.5806,-20.11538 z m 13.11601,16.79197 c -0.009,-4.6571 -1.24315,-23.37128 -1.63388,-24.77237 -0.2326,-0.83409 -1.23341,-1.22608 -3.57271,-1.39933 -1.81337,-0.1343 -3.33113,0.0686 -3.43408,0.459 -0.10148,0.38481 -0.35515,7.07536 -0.56372,14.86789 -0.37922,14.16822 -0.37922,14.16822 4.41575,14.16822 4.79495,0 4.79495,0 4.78864,-3.32341 z m 7.86586,2.79866 c 0.15042,-0.28861 -0.37994,-4.93264 -1.17858,-10.32006 -2.49583,-16.83607 -3.0783,-26.73372 -2.66208,-45.23488 0.21078,-9.36944 0.85692,-20.91443 1.43586,-25.65553 0.57894,-4.7411 0.91283,-8.77338 0.74197,-8.96062 -0.17085,-0.18724 -1.27588,-0.0668 -2.45562,0.2676 -2.14497,0.60804 -2.14497,0.60804 -2.60112,21.52867 -0.26771,12.27824 -0.21823,21.08178 0.11978,21.31071 0.31675,0.21454 0.70092,4.16183 0.8537,8.77175 0.36719,11.07945 2.22006,37.31091 2.69497,38.15299 0.44464,0.78844 2.66007,0.88964 3.05112,0.13937 z M 36.605961,192.06405 c 1.368868,-9.28321 1.704709,-17.00359 1.085125,-24.94506 -0.790161,-10.12784 -1.268978,-13.01828 -2.156552,-13.01828 -0.365778,0 -0.491859,0.1898 -0.28018,0.42177 0.21168,0.23198 0.109673,1.21501 -0.226681,2.18451 -1.258093,3.62631 -1.924393,18.89411 -1.217268,27.89287 0.376622,4.79283 0.846975,9.17747 1.04523,9.74365 0.56115,1.60255 1.324484,0.60845 1.750326,-2.27946 z m -6.630886,-2.65237 c -0.573295,-4.88596 -1.22338,-14.74421 -1.258529,-19.08504 -0.01084,-1.33827 -0.28424,-2.13539 -0.647934,-1.88906 -0.939743,0.63648 0.601874,23.73249 1.719803,25.76552 0.681123,1.23868 0.734235,-0.12467 0.18666,-4.79142 z m 18.204658,0.37197 c 1.718798,-12.5922 1.761839,-21.35719 0.147736,-30.08562 -0.391391,-2.11648 -0.658644,-4.08429 -0.593895,-4.37291 0.06475,-0.28861 -0.169578,-0.52474 -0.520726,-0.52474 -0.351147,0 -0.675116,0.39356 -0.719931,0.87458 -0.04481,0.48102 -0.177258,1.50428 -0.294318,2.27391 -1.232335,8.10217 -1.587666,18.13101 -0.867644,24.48829 0.43584,3.84816 0.853724,8.09863 0.92863,9.44548 0.07491,1.34686 0.194593,2.60626 0.265972,2.79866 0.204039,0.55001 1.389796,-2.96076 1.654176,-4.89765 z m 106.718347,-3.84816 c 0.13039,-3.85811 0.13033,-2.90907 6.4e-4,-14.5173 -0.0799,-7.16609 -0.31084,-9.61982 -0.90535,-9.6204 -0.61119,-5.8e-4 -0.79806,3.19397 -0.79806,13.64272 0,10.44833 0.1869,13.64347 0.79806,13.64347 0.50445,0 0.83721,-1.15834 0.90447,-3.14849 z m 4.0151,-10.49498 c -0.0329,-7.71699 -0.31145,-13.64348 -0.6412,-13.64348 -0.90973,0 -1.13794,2.26661 -1.53213,15.21772 -0.35931,11.80449 -0.33886,12.06923 0.93209,12.06923 1.26455,0 1.2979,-0.3666 1.24124,-13.64347 z m -1.14768,8.04615 c 0,-0.96204 0.14491,-1.3556 0.32202,-0.87458 0.17712,0.48102 0.17712,1.26814 0,1.74916 -0.17711,0.48102 -0.32202,0.0875 -0.32202,-0.87458 z M 55.500128,168.44385 c 0.0157,-3.07853 0.10224,-7.38134 0.192307,-9.56181 0.09007,-2.18046 -0.03732,-3.82829 -0.283099,-3.66182 -0.245771,0.16645 -0.627316,-0.0174 -0.847877,-0.40843 -0.220561,-0.3911 0.04689,-0.71108 0.594334,-0.71108 1.389854,0 1.388057,-8.33292 -0.0024,-11.27965 -0.693606,-1.46989 -0.79907,-2.37691 -0.345945,-2.97524 0.79125,-1.04481 0.201869,-3.93221 -0.805694,-3.94712 -0.402355,-0.006 -0.316661,-0.29291 0.193022,-0.64635 0.759654,-0.52678 0.7736,-0.82448 0.08144,-1.73844 -0.459357,-0.60656 -1.247921,-1.10283 -1.75237,-1.10283 -0.504448,0 -0.739617,-0.31485 -0.522595,-0.69966 0.217021,-0.38482 0.952233,-0.69967 1.633804,-0.69967 0.681572,0 1.239221,-0.47227 1.239221,-1.0495 0,-0.57722 -0.304259,-1.0495 -0.67613,-1.0495 -0.371871,0 -0.498567,0.31485 -0.281545,0.69967 0.217021,0.38482 0.09032,0.69967 -0.281546,0.69967 -0.371871,0 -0.676129,-0.60849 -0.676129,-1.35219 0,-0.7437 -0.548064,-1.54281 -1.21792,-1.77579 -0.669855,-0.23299 -1.384821,-0.90026 -1.588811,-1.48282 -0.210674,-0.60165 -0.09825,-0.87455 0.260244,-0.63174 0.771313,0.5224 0.771328,0.52149 0.03725,-2.28349 -0.523481,-2.00028 -0.447796,-2.26929 0.63845,-2.26929 0.677783,0 1.24147,-0.39356 1.252637,-0.87458 0.01127,-0.48545 0.45795,-0.25196 1.003905,0.52475 0.919023,1.30746 0.952214,1.21559 0.50556,-1.39933 -0.262921,-1.53927 -0.449,-3.29483 -0.413507,-3.90126 0.05384,-0.91993 -0.421395,-0.833 -2.868643,0.52475 -5.69227,3.1581 -14.60697,1.70286 -17.930137,-2.92694 -1.660037,-2.31274 -1.843298,-6.62497 -0.385189,-9.0637 0.933,-1.56047 0.913909,-1.7256 -0.280478,-2.4261 -0.704892,-0.41342 -1.413946,-0.51468 -1.575677,-0.22503 -0.16173,0.28965 -0.758396,3.83256 -1.325923,7.87313 -0.567528,4.04056 -1.301389,8.76331 -1.630803,10.49498 -0.614292,3.22922 -0.980991,9.77671 -0.773914,13.81839 0.140986,2.75175 1.044253,2.87183 3.947204,0.52475 2.12805,-1.72056 5.8983,-2.34068 7.379182,-1.2137 1.418932,1.07983 2.836017,4.05387 2.836017,5.95195 0,2.45021 -1.521497,5.79122 -2.901628,6.37161 -2.464397,1.03635 -5.46147,0.43193 -7.024831,-1.41671 -0.861102,-1.01824 -1.56564,-2.12021 -1.56564,-2.44883 0,-1.08447 -0.955689,-0.62216 -1.808906,0.87505 -0.62932,1.10432 -0.640593,1.33806 -0.04508,0.93472 0.555629,-0.37632 0.671658,-0.18821 0.386396,0.62645 -0.224225,0.64035 -0.160136,1.16427 0.142422,1.16427 0.302558,0 0.734226,0.52582 0.959261,1.16848 0.462094,1.31966 -0.677522,2.38412 -1.970382,1.84043 -1.622114,-0.68215 -0.848557,1.54166 1.011258,2.90714 1.863546,1.36823 1.863546,1.36823 0.655478,3.22748 -0.664439,1.02258 -1.064869,2.01617 -0.889845,2.20798 0.175024,0.19181 0.03386,1.16838 -0.313692,2.17016 -0.41125,1.18539 -0.413851,1.96913 -0.0075,2.24438 0.343458,0.23262 0.459176,0.71604 0.25715,1.07427 -0.202023,0.35822 -0.06306,0.65132 0.308813,0.65132 0.371871,0 0.676129,0.33343 0.676129,0.74096 0,0.40753 -0.26745,0.55982 -0.594334,0.33842 -1.104267,-0.74791 -1.410636,1.02135 -0.373645,2.15778 0.565832,0.62008 1.140878,1.00458 1.277882,0.85443 0.137004,-0.15013 0.376901,-2.31285 0.533105,-4.80603 0.340848,-5.44029 2.586509,-12.29468 4.370906,-13.34122 2.222074,-1.30324 4.331141,-0.16419 5.667016,3.06062 0.671867,1.62189 1.227886,3.6573 1.235598,4.52313 0.02241,2.51613 1.10702,1.81839 1.593828,-1.02531 0.928525,-5.42403 3.110124,-7.87945 6.08227,-6.84568 2.290248,0.79659 4.138614,6.68774 4.829408,15.3924 0.213771,2.69371 0.482388,5.99963 0.596927,7.34648 0.11454,1.34686 0.262588,3.86566 0.328998,5.59733 0.120745,3.14849 0.120745,3.14849 0.673284,0.69966 0.303896,-1.34685 0.565385,-4.96762 0.581086,-8.04615 z m -9.298159,-28.4876 c -0.907253,-0.44901 -1.330104,-1.30813 -1.330104,-2.7024 0,-1.12426 0.230402,-2.04411 0.512004,-2.04411 0.281602,0 0.346632,-0.47227 0.144509,-1.04949 -0.236036,-0.67408 0.01299,-1.0495 0.696167,-1.0495 0.585014,0 0.898368,-0.2931 0.696343,-0.65132 -0.202025,-0.35823 -0.08974,-0.83932 0.249513,-1.0691 0.339257,-0.22977 0.925115,0.21349 1.301907,0.98504 0.686984,1.40672 -0.0277,3.74676 -1.578685,5.16898 -0.36315,0.333 -0.0193,0.43675 0.797427,0.2406 0.789732,-0.18966 1.624204,-0.0109 1.854383,0.39724 0.247161,0.43826 0.114512,0.53619 -0.323989,0.2392 -0.434536,-0.29431 -0.938862,0.0563 -1.215934,0.84513 -0.375974,1.07051 -0.747256,1.21249 -1.803541,0.68973 z m -3.070739,-9.35156 c -0.213142,-0.60869 -0.383132,-1.78938 -0.377755,-2.62374 0.0073,-1.13576 0.149838,-1.27469 0.567069,-0.5528 0.30651,0.53032 0.881403,0.74469 1.277537,0.4764 0.396136,-0.2683 0.556986,-0.77731 0.357447,-1.13112 -0.199539,-0.35382 0.08143,-0.4565 0.624369,-0.22818 0.542941,0.22833 0.826956,0.69922 0.631143,1.04643 -0.195814,0.34721 0.09314,0.82018 0.642117,1.05104 1.427246,0.6002 1.23898,1.84743 -0.20315,1.34583 -0.758148,-0.2637 -1.339551,-0.023 -1.576088,0.65252 -0.485827,1.38743 -1.450449,1.36938 -1.942689,-0.0364 z m -11.733451,-0.76088 c -1.158096,-0.51064 -2.69998,-4.03903 -2.69998,-6.17855 0,-2.31217 1.557662,-5.64702 2.901629,-6.2122 3.9116,-1.64494 7.402673,0.42192 8.57557,5.0771 0.503492,1.99833 0.38511,2.8449 -0.655961,4.6909 -0.69868,1.23888 -1.718965,2.44118 -2.2673,2.67177 -1.172167,0.49293 -4.691672,0.46345 -5.853958,-0.049 z m 4.003745,-6.06193 c 0,-1.02618 -0.255991,-1.94449 -0.568868,-2.0407 -0.913649,-0.28093 -1.907182,1.97445 -1.447754,3.2865 0.621215,1.77407 2.016622,0.91204 2.016622,-1.2458 z m 14.731029,-5.31319 c -1.064167,-0.4376 -1.091279,-0.56432 -0.200861,-0.93876 0.566147,-0.23808 1.16889,-0.057 1.339428,0.4024 0.173685,0.46788 0.33224,0.31488 0.360474,-0.34785 0.05069,-1.18977 1.327304,-2.57547 1.327304,-1.44072 0,1.46299 -1.640591,2.81253 -2.826345,2.32493 z m 77.961117,44.59648 c -0.2038,-0.55814 -0.35509,-0.39236 -0.38572,0.42272 -0.0277,0.73756 0.12317,1.1508 0.33533,0.91831 0.21215,-0.2325 0.23482,-0.83596 0.0504,-1.34103 z m 12.14597,-8.43155 c -0.15271,-0.87032 -0.28346,-0.32301 -0.29054,1.21625 -0.007,1.53927 0.11786,2.25135 0.27766,1.58241 0.1598,-0.66894 0.16559,-1.92834 0.0129,-2.79866 z M 99.988577,147.6288 c -0.177112,-0.48102 -0.322027,-0.0875 -0.322027,0.87459 0,0.96204 0.144915,1.3556 0.322027,0.87458 0.177113,-0.48102 0.177113,-1.26815 0,-1.74917 z m 40.437963,-0.19687 c 0,-1.04532 0.45787,-1.9594 1.11729,-2.23055 0.61451,-0.25269 1.40956,-0.88574 1.7668,-1.40678 0.35722,-0.52104 1.50643,-1.05564 2.55379,-1.188 1.04736,-0.13236 2.11977,-0.27655 2.38313,-0.32043 0.26336,-0.0439 0.47884,-3.67479 0.47884,-8.0687 0,-8.45909 0.27273,-10.20237 1.59613,-10.20237 0.45158,0 0.98643,-0.47228 1.18855,-1.0495 0.28016,-0.8001 1.47366,-1.0495 5.02233,-1.0495 3.96339,0 4.77329,-0.20786 5.45228,-1.39933 0.43859,-0.76963 1.23606,-1.39933 1.77216,-1.39933 0.77689,0 0.83602,-0.28403 0.29135,-1.39933 -0.37585,-0.76963 -0.50909,-1.39933 -0.29609,-1.39933 0.21302,0 -0.0668,-0.49766 -0.62185,-1.10591 -0.55503,-0.60825 -0.82604,-1.43057 -0.60226,-1.82739 0.22379,-0.39681 0.0469,-0.96532 -0.39316,-1.26335 -0.44003,-0.29803 -0.80005,-1.37478 -0.80005,-2.39279 0,-1.10172 -0.49052,-2.13861 -1.21184,-2.56166 -0.8871,-0.52029 -1.05548,-1.01691 -0.62834,-1.85334 0.39547,-0.77442 0.29025,-1.46395 -0.32652,-2.13986 -0.69437,-0.76095 -0.73636,-1.22657 -0.17719,-1.96493 0.40306,-0.53222 0.98165,-0.79915 1.28575,-0.59319 0.3041,0.20597 1.12514,0.0389 1.82453,-0.37131 1.01706,-0.596506 1.19306,-1.198251 0.87916,-3.005937 -0.50209,-2.891539 -0.68941,-3.09249 -1.65215,-1.772397 -0.94023,1.289231 -8.60827,6.858754 -9.44304,6.858754 -0.31937,0 -2.42805,0.8314 -4.68597,1.84757 -3.31648,1.49257 -4.16681,2.19837 -4.42541,3.67324 -0.36888,2.10381 0.0375,2.90604 0.79318,1.56601 0.42718,-0.75746 0.75743,-0.75506 1.88064,0.0136 1.5211,1.04103 1.77579,1.85652 0.5644,1.80722 -2.78148,-0.11321 -3.78656,0.24833 -3.44021,1.23746 0.20213,0.57722 0.0892,1.0495 -0.25091,1.0495 -0.34013,-1e-5 -0.61842,1.25939 -0.61842,2.79866 0,1.53926 0.2873,2.79866 0.63845,2.79866 0.35115,0 0.63845,-0.30497 0.63845,-0.67771 0,-0.37274 0.38836,-0.51439 0.86303,-0.31478 1.14482,0.48143 0.62605,3.2777 -0.95259,5.13464 -0.6804,0.80035 -0.96933,1.45517 -0.64206,1.45517 0.32725,0 0.76759,0.49287 0.97852,1.09525 0.28844,0.82374 0.0876,0.99232 -0.81022,0.68005 -0.87136,-0.30308 -1.29448,0.007 -1.56678,1.14811 -0.4561,1.91134 0.0674,2.65915 0.87814,1.25432 0.93045,-1.61233 0.69175,0.0111 -0.64558,4.39048 -1.50422,4.92592 -2.45895,15.92008 -1.38251,15.92008 0.39944,0 0.72625,-0.797 0.72625,-1.77112 z m 1.2769,-11.73863 c 0,-1.03559 0.27035,-1.88289 0.60077,-1.88289 1.08689,0 1.21647,1.04228 0.30029,2.41536 -0.85783,1.28563 -0.90106,1.26009 -0.90106,-0.53247 z m 0.63845,-20.42402 c 0,-0.65302 0.60298,-1.0495 1.59613,-1.0495 0.99314,0 1.59612,0.39648 1.59612,1.0495 0,0.65302 -0.60298,1.0495 -1.59612,1.0495 -0.99315,0 -1.59613,-0.39648 -1.59613,-1.0495 z m 10.82276,-8.43677 c -0.6336,-0.83665 -0.4794,-0.98142 0.911,-0.85531 1.83036,0.16601 2.19658,0.87632 0.76269,1.47931 -0.50104,0.21071 -1.25421,-0.0701 -1.67369,-0.624 z m 3.78599,-0.80621 c -0.0416,-0.30379 -0.0298,-0.8271 0.0261,-1.16292 0.0559,-0.33582 -0.34098,-0.42442 -0.88207,-0.19688 -0.54109,0.22754 -0.98379,0.10874 -0.98379,-0.26399 0,-0.79354 1.91051,-0.88529 2.96199,-0.14225 0.52695,0.37238 0.48296,0.76265 -0.15961,1.4162 -0.48787,0.4962 -0.92105,0.65362 -0.96263,0.34984 z m -4.04706,-1.55349 c -0.20203,-0.35823 -0.10544,-0.82869 0.21465,-1.04548 0.32008,-0.21679 0.7467,0.0763 0.94805,0.65132 0.39692,1.13354 -0.56232,1.45873 -1.1627,0.39416 z m -68.022184,39.01631 c 0,-2.37303 -0.115304,-4.18342 -0.256229,-4.02308 -0.431937,0.49144 -0.892739,7.54499 -0.519622,7.95389 0.690503,0.7567 0.775851,0.32428 0.775851,-3.93081 z m 84.573844,-0.40814 c -0.26313,-1.05824 -0.69219,-3.02605 -0.95346,-4.37291 -0.26128,-1.34686 -0.50809,-1.85929 -0.54847,-1.13875 -0.0605,1.07891 -0.24117,1.15752 -1.02406,0.44548 -0.52286,-0.47554 -0.80752,-1.11841 -0.63259,-1.4286 0.17494,-0.31019 -0.11553,-1.03915 -0.64548,-1.61991 -1.09922,-1.20462 -1.27105,-2.55521 -0.32509,-2.55521 0.35115,0 0.63845,-0.47227 0.63845,-1.0495 0,-1.26512 -0.74494,-1.3526 -1.78766,-0.2099 -0.46492,0.50951 -0.76614,2.98525 -0.76614,6.29699 0,5.45739 0,5.45739 2.25461,5.45739 1.41514,0 2.39145,0.39077 2.62211,1.0495 0.66616,1.90243 1.67114,1.14977 1.16778,-0.87458 z m -10.61048,-8.22107 c -0.0696,-8.04615 -0.0696,-8.04615 -2.85943,-8.04615 -2.39622,0 -2.78979,0.20445 -2.78979,1.44931 0,1.31755 0.0912,1.34935 1.00328,0.34983 2.32112,-2.54368 3.27117,-0.90341 3.34006,5.76663 0.0528,5.11439 -0.0708,5.78948 -1.02434,5.59195 -0.74562,-0.15445 -1.28389,-1.35295 -1.72287,-3.83614 -0.97174,-5.49678 -1.59613,-5.24029 -1.59613,0.65565 0,5.73457 0.0776,5.85226 3.97672,6.03391 1.74215,0.0812 1.74215,0.0812 1.6725,-7.96499 z m -58.856183,5.07257 c -0.177112,-0.48102 -0.322027,-0.0874 -0.322027,0.87459 0,0.96204 0.144915,1.3556 0.322027,0.87458 0.177113,-0.48102 0.177113,-1.26815 0,-1.74917 z m -63.948603,-1.22441 c 0,-1.91766 -1.421667,-2.71166 -1.983321,-1.10768 -0.528433,1.50911 0.206814,3.38918 1.185594,3.03163 0.43875,-0.16027 0.797727,-1.02605 0.797727,-1.92395 z m -7.342175,-0.69967 c 0,-1.65777 -0.979102,-1.85964 -1.520505,-0.31349 -0.218028,0.62265 -0.110994,0.90349 0.250918,0.65837 0.347125,-0.2351 0.631137,-0.094 0.631137,0.3135 0,0.40752 0.143651,0.74096 0.319225,0.74096 0.175574,0 0.319225,-0.6297 0.319225,-1.39934 z M 168.04312,124.42158 c -0.29637,-3.40351 -0.79028,-5.65248 -1.28052,-5.83054 -0.43893,-0.15943 -0.79806,0.17008 -0.79806,0.73226 0,0.56217 -0.43095,1.41408 -0.95767,1.89313 -1.07126,0.97431 -1.29242,2.79867 -0.33926,2.79867 0.34012,0 0.45178,-0.47585 0.24813,-1.05744 -0.26593,-0.75944 -0.0778,-0.93443 0.66768,-0.62094 0.77614,0.32639 1.01138,1.25887 0.93264,3.69692 -0.10695,3.31138 1.50152,7.82453 1.84628,5.18043 0.0898,-0.6885 -0.0539,-3.74512 -0.31922,-6.79249 z m -65.92358,1.94991 c 0,-0.86578 -0.2873,-1.76873 -0.63845,-2.00656 -0.37102,-0.25129 -0.63845,0.4401 -0.63845,1.65065 0,1.14568 -0.1671,2.6598 -0.37134,3.3647 -0.33981,1.17279 -0.28559,1.1663 0.63845,-0.0765 0.55538,-0.74698 1.00979,-2.06651 1.00979,-2.93229 z m 63.20655,2.32516 c 0,-0.50368 -0.41142,-1.52694 -0.91426,-2.27391 -0.85842,-1.2752 -0.91098,-1.21927 -0.86052,0.91577 0.0334,1.41157 0.38009,2.27391 0.91427,2.27391 0.47328,0 0.86051,-0.4121 0.86051,-0.91577 z m -79.806244,-1.76628 c 0,-0.91102 -0.75897,-1.5169 -1.376364,-1.09875 -0.660298,0.44722 -0.09095,1.6818 0.775595,1.6818 0.330423,0 0.600769,-0.26237 0.600769,-0.58305 z m 56.560724,-6.9332 c -0.44276,-0.48521 -1.65403,0.50064 -1.65403,1.34623 0,0.46394 0.36633,0.41086 0.97311,-0.141 0.5352,-0.48677 0.84162,-1.02912 0.68092,-1.20523 z m 24.52242,-4.7862 c 0,-2.45425 -1.16243,-3.11668 -1.79866,-1.02499 -0.16831,0.55334 0.009,0.73094 0.43893,0.43973 0.39671,-0.26868 0.72128,-0.17366 0.72128,0.21115 0,0.38482 -0.31797,0.91503 -0.70661,1.17825 -0.49258,0.33362 -0.44424,0.66077 0.15961,1.08008 1.21493,0.84363 1.18545,0.89048 1.18545,-1.88422 z m -83.211309,-2.74035 c 0,-0.57723 -0.239418,-1.0495 -0.532046,-1.0495 -0.29262,0 -0.532039,0.47227 -0.532039,1.0495 0,0.57722 0.239419,1.04949 0.532039,1.04949 0.292628,0 0.532046,-0.47227 0.532046,-1.04949 z m -42.047748,-4.44869 c -0.19636,-4.09885 -0.19636,-4.09885 -1.892593,-3.45261 -1.608827,0.61294 -1.650155,0.74303 -0.801996,2.5246 0.491831,1.0331 0.896008,2.58678 0.898171,3.45262 0.0024,0.95689 0.393902,1.57424 0.998356,1.57424 0.809444,0 0.957896,-0.76244 0.798062,-4.09885 z m 5.940741,-0.30029 c -0.521401,-0.5714 -0.696873,-0.0435 -0.659872,1.9853 0.04984,2.73299 0.05773,2.74163 0.710275,0.77838 0.468272,-1.40885 0.453636,-2.21131 -0.0504,-2.76368 z m 118.041416,1.60048 c 0,-0.76963 -0.32321,-1.32062 -0.71826,-1.22441 -0.39504,0.0962 -0.86326,-0.26247 -1.0405,-0.79706 -0.19735,-0.59528 -0.0427,-0.78265 0.39903,-0.48346 0.41826,0.28329 0.72128,0.0303 0.72128,-0.60227 0,-1.42465 -1.66612,-1.4124 -2.16627,0.0159 -0.61563,1.75815 -0.45932,2.39161 0.59018,2.39161 0.53775,0 1.14309,0.47227 1.34521,1.0495 0.50969,1.45556 0.86933,1.31083 0.86933,-0.34984 z M 47.212848,104.42446 c 0,-0.38481 -0.304258,-0.69966 -0.676129,-0.69966 -0.371871,0 -0.498567,0.31485 -0.281546,0.69966 0.217021,0.38482 0.521279,0.69967 0.676129,0.69967 0.154851,0 0.281546,-0.31485 0.281546,-0.69967 z m 58.777302,-0.74339 c 1.9436,-2.12996 1.20618,-3.06127 -0.80541,-1.01717 -0.94605,0.96133 -1.87937,1.46545 -2.07405,1.12024 -0.19469,-0.3452 -0.87653,-0.47788 -1.51522,-0.29485 -0.63869,0.18304 -1.53549,-0.16137 -1.992887,-0.76535 -1.034659,-1.36622 -1.952188,-1.41648 -1.952188,-0.10694 0,1.30491 -1.313828,1.77756 -2.726609,0.9809 -0.621761,-0.35061 -1.411338,-0.44725 -1.754614,-0.21476 -0.343275,0.2325 -1.193684,-0.0144 -1.889799,-0.54878 -1.246605,-0.95688 -1.240949,-1.00418 0.375773,-3.142815 1.718062,-2.272689 3.441449,-2.355186 3.441449,-0.164739 0,1.535294 1.174831,2.088024 2.873025,1.351684 1.110354,-0.48145 1.047901,-0.56008 -0.478838,-0.60284 -1.075066,-0.0301 -1.755737,-0.436677 -1.755737,-1.0487 0,-0.549738 -0.429836,-1.470574 -0.955198,-2.046304 -1.432975,-1.57037 -2.237052,-4.381233 -2.237052,-7.82019 0,-2.47255 0.406514,-3.585986 2.06499,-5.655995 1.135739,-1.417567 2.993979,-3.002769 4.129418,-3.522673 3.041307,-1.39258 8.393227,-1.194671 11.043737,0.408387 5.45161,3.297184 4.95798,3.191314 6.40177,1.373008 1.33173,-1.677176 1.33173,-1.677176 0.60675,0.07199 -0.63986,1.54383 -0.50678,1.486882 1.13375,-0.485118 1.66845,-2.005577 2.01672,-2.148504 3.40233,-1.396283 1.30716,0.709627 1.98374,0.587488 4.41665,-0.797308 2.87303,-1.635307 2.87303,-1.635307 -16.28047,-1.100945 -10.534425,0.293899 -20.30271,0.44282 -21.707299,0.330933 -1.40459,-0.111885 -6.404586,-0.247531 -11.1111,-0.301434 -7.811116,-0.08946 -8.572182,0.01254 -8.72799,1.169688 -0.242629,1.801959 1.025993,2.09204 3.731474,0.853231 2.94954,-1.35056 8.180902,-1.379418 10.86091,-0.05991 5.598396,2.756375 7.755546,7.87191 5.834993,13.837266 -0.869837,2.701765 -0.846068,2.951415 0.402395,4.226054 1.253271,1.27955 1.266711,1.427482 0.242369,2.667893 -0.596466,0.72228 -1.377775,1.11458 -1.736252,0.87179 -0.360495,-0.24416 -0.458854,-0.0994 -0.220099,0.32399 0.262671,0.46576 -0.06713,0.72425 -0.842371,0.66025 -1.495097,-0.12342 -2.365355,-1.90913 -0.930413,-1.90913 0.536425,0 0.826875,-0.26321 0.645453,-0.58491 -0.181428,-0.3217 -2.712282,-0.2013 -5.624118,0.26756 -2.911838,0.46886 -5.437902,0.76511 -5.613476,0.65834 -0.175573,-0.10676 -0.66287,0.21366 -1.082881,0.71205 -0.61287,0.72724 -0.23468,0.99812 1.91535,1.37185 4.558718,0.79242 9.630022,0.90394 11.245108,0.24728 0.947492,-0.38522 1.688975,-0.36884 1.92093,0.0425 0.479183,0.84968 3.369803,1.23004 10.422204,1.3714 4.871753,0.0976 5.754903,-0.0726 6.903243,-1.33109 z m 6.02537,0.0437 c 0.21702,-0.38482 -0.0533,-0.69967 -0.60077,-0.69967 -0.54744,0 -0.99536,0.31485 -0.99536,0.69967 0,0.38481 0.27035,0.69966 0.60077,0.69966 0.33043,0 0.77834,-0.31485 0.99536,-0.69966 z m 51.0912,-0.26654 c 1.09087,-1.19547 0.42517,-2.11398 -0.75452,-1.04105 -0.86562,0.78728 -1.16464,2.00725 -0.49198,2.00725 0.20065,0 0.76158,-0.43479 1.2465,-0.9662 z m -35.44918,-1.26238 c 1.93131,-0.38176 4.37339,-0.78813 5.42683,-0.90304 1.05344,-0.11491 2.3463,-0.36408 2.87302,-0.5537 0.52672,-0.18962 2.68149,-0.886895 4.78838,-1.54949 2.10688,-0.662594 4.64406,-1.64492 5.63817,-2.182944 0.99412,-0.538025 2.14758,-0.978227 2.56326,-0.978227 1.23449,0 5.64381,-2.778778 8.63063,-5.439082 2.71607,-2.419158 2.77618,-2.561365 2.38948,-5.653221 -0.39296,-3.141826 -2.59459,-6.71658 -3.68274,-5.97959 -0.30583,0.207138 -0.39077,0.669708 -0.18874,1.027934 0.20203,0.358226 -0.0806,0.65132 -0.62803,0.65132 -0.54745,0 -0.99536,0.314849 -0.99536,0.699665 0,1.230689 -1.82258,0.750286 -3.17097,-0.835819 -0.77831,-0.915527 -1.15765,-2.045498 -0.93952,-2.798662 0.42502,-1.467511 -0.79987,-1.561243 -10.52069,-0.805081 -5.6158,0.436841 -5.78583,0.49698 -3.66462,1.296138 3.20954,1.209179 5.93565,3.814231 7.04349,6.730687 3.15486,8.305375 -4.13367,15.873472 -13.78471,14.313466 -1.50455,-0.243199 -3.31016,-0.476253 -4.01245,-0.517898 -0.7023,-0.04164 -1.85151,-1.035305 -2.5538,-2.208134 -1.40657,-2.348958 -3.34579,-3.540709 -2.68342,-1.649097 0.21619,0.617408 0.15099,1.286527 -0.1449,1.486931 -0.29589,0.200403 -0.7035,-0.329235 -0.90579,-1.176974 -0.20229,-0.84774 -0.0606,-1.749391 0.3148,-2.003669 0.47917,-0.324536 0.47056,-0.605948 -0.0289,-0.944225 -0.39133,-0.265045 -1.16078,0.01045 -1.70989,0.612208 -0.54909,0.601759 -1.36268,1.094107 -1.80795,1.094107 -0.44528,0 -1.14301,0.801938 -1.55052,1.782085 -0.89347,2.148952 -0.92907,2.625918 -0.15702,2.103007 0.32116,-0.217516 0.75211,4e-5 0.95768,0.483457 0.29844,0.701824 0.4488,0.702702 0.74618,0.0043 0.57847,-1.358402 1.54292,-1.030391 1.54292,0.524771 0,0.769632 0.27829,1.399327 0.61842,1.399327 0.74315,0 0.0756,2.23121 -0.89107,2.97816 -0.78256,0.60471 5.2711,0.0225 10.48785,-1.00875 z m -5.26386,-1.61958 c 0.36718,-2.104908 1.14704,-2.243045 2.06393,-0.36557 0.55125,1.1288 0.49661,1.30827 -0.29677,0.97464 -0.53485,-0.22492 -0.97245,-0.0604 -0.97245,0.36558 0,0.42598 -0.24746,0.77452 -0.54991,0.77452 -0.30246,0 -0.41261,-0.78713 -0.2448,-1.74917 z m -2.39754,0.0583 c 0,-0.60929 -0.2873,-1.107804 -0.63845,-1.107804 -1.00141,0 -0.74677,-1.204062 0.35239,-1.666293 0.56817,-0.238933 0.82444,-0.121636 0.60077,0.274976 -0.21453,0.380409 0.0789,0.691652 0.6521,0.691652 0.62973,0 0.96048,0.461627 0.83574,1.166436 -0.27055,1.528813 -1.80255,2.073633 -1.80255,0.641033 z M 152.8322,85.455273 c -0.45466,-0.806187 0.76339,-1.991323 2.06588,-2.010058 0.40966,-0.0059 0.84062,-0.315271 0.95767,-0.687508 0.11705,-0.372236 0.55796,0.130322 0.97979,1.116797 0.72771,1.701759 0.68685,1.771552 -0.79806,1.36313 -0.8942,-0.245949 -1.56504,-0.124844 -1.56504,0.282534 0,0.952831 -1.09062,0.909681 -1.64024,-0.06489 z m -51.61447,15.648697 c -0.218,-0.23891 -0.7507,-0.0156 -1.18379,0.4962 -0.625126,0.73879 -0.622936,0.82882 0.0107,0.43682 0.45649,-0.28244 0.81964,-0.10178 0.84847,0.4221 0.0414,0.7522 0.11033,0.75176 0.38573,-0.002 0.18442,-0.50507 0.15696,-1.11378 -0.061,-1.35268 z M 68.281697,100.8959 c 0,-0.30524 0.174389,-1.053005 0.387532,-1.661703 0.216831,-0.619231 0.05962,-1.106721 -0.356905,-1.106721 -0.409439,0 -0.566873,0.314849 -0.349852,0.699665 0.217021,0.384816 -0.196977,0.699665 -0.919996,0.699665 -0.723018,0 -1.314579,-0.314849 -1.314579,-0.699665 0,-0.384816 -0.44791,-0.699665 -0.995354,-0.699665 -0.547445,0 -0.837911,-0.279175 -0.64548,-0.620389 0.192431,-0.341213 -0.08146,-1.012687 -0.608644,-1.492162 -0.74528,-0.677833 -0.791904,-1.091779 -0.209576,-1.860717 0.411918,-0.54392 0.785784,-3.142988 0.830812,-5.775707 0.06555,-3.832576 -0.09573,-4.712077 -0.809054,-4.412101 -0.707906,0.297695 -0.84417,-0.365557 -0.663327,-3.228669 0.2645,-4.187562 0.819439,-3.920541 -9.668376,-4.652155 -3.335901,-0.232707 -7.334572,-0.613539 -8.885936,-0.846293 -2.59471,-0.389289 -2.780407,-0.316197 -2.318142,0.912437 0.276385,0.734594 0.516183,1.729187 0.532882,2.210207 0.0358,1.031052 1.094446,1.200247 1.094446,0.174916 0,-0.384816 0.240751,-0.699665 0.535002,-0.699665 0.294252,0 0.573849,1.132418 0.621329,2.516485 0.0617,1.798571 -0.149535,2.4173 -0.740434,2.168809 -0.991936,-0.417138 -2.549487,2.058006 -1.956604,3.10929 0.253424,0.449365 -0.146941,0.409732 -1.017241,-0.100697 -1.148863,-0.673806 -1.544349,-0.652839 -1.982619,0.105112 -0.452924,0.783293 -0.549168,0.775074 -0.557256,-0.04758 -0.0054,-0.546924 0.450526,-1.551803 1.013117,-2.233065 0.562592,-0.681261 1.065371,-2.043941 1.117288,-3.028176 0.05192,-0.984234 0.261987,-1.78974 0.466822,-1.790012 0.204837,-2.71e-4 0.37243,-0.472768 0.37243,-1.049992 0,-1.245526 -0.133052,-1.27033 -1.744506,-0.325216 -0.776275,0.455281 -1.234927,1.462887 -1.234927,2.712989 0,1.09379 -0.44664,2.394928 -0.992532,2.891418 -2.649629,2.40984 -2.509699,3.500414 0.888414,6.924001 3.055486,3.078392 8.793959,6.843442 9.406787,6.171855 0.155199,-0.17008 -0.294248,-1.037587 -0.99877,-1.927795 -1.074478,-1.357669 -1.28095,-2.616294 -1.28095,-7.808493 0,-5.606876 0.113843,-6.189933 1.208593,-6.189933 0.664726,0 1.373965,-0.472274 1.576087,-1.049498 0.280682,-0.801576 1.465679,-1.046643 5.016294,-1.03741 4.055735,0.01054 4.832062,0.223959 6.085313,1.672863 1.250246,1.445431 1.436512,2.40634 1.436512,7.4107 0,5.004359 -0.186266,5.965269 -1.436512,7.410699 -1.256631,1.452811 -2.036121,1.664953 -6.224887,1.694139 -5.311515,0.03701 -5.11501,0.651619 0.812607,2.541595 7.010846,2.235354 14.510192,3.432664 14.510192,2.316634 z m 41.964783,0.30719 c -0.21215,-0.23249 -0.76282,-0.25735 -1.2237,-0.0552 -0.50931,0.22335 -0.35803,0.38914 0.38574,0.42271 0.67303,0.0304 1.05011,-0.13498 0.83796,-0.36747 z M 38.912999,98.827141 c 0,-0.384816 -0.270347,-0.699665 -0.600771,-0.699665 -0.330424,0 -0.778333,0.314849 -0.995354,0.699665 -0.217022,0.384816 0.05332,0.699665 0.60077,0.699665 0.547445,0 0.995355,-0.314849 0.995355,-0.699665 z m 41.821856,-5.90304 c 1.550961,-1.80217 1.991134,-2.854052 1.756695,-4.197993 -0.459116,-2.631998 -1.440854,-2.185334 -1.440854,0.65555 0,2.38921 -0.06199,2.448829 -2.54561,2.448829 -2.54561,0 -2.54561,0 -2.254897,-3.148495 0.308831,-3.344716 0.03442,-3.607811 -2.462519,-2.361042 -4.220699,2.107467 -1.487021,8.772936 3.676165,8.963515 0.660833,0.02439 2.132791,-1.037772 3.27102,-2.360364 z m 27.609575,-0.08238 c 1.93364,-2.40801 1.8348,-3.764195 -0.12713,-1.74434 -2.84019,2.924057 -5.51351,-0.07278 -2.8434,-3.187501 1.26879,-1.480055 1.35522,-1.852599 0.55962,-2.411988 -0.83084,-0.584151 -4.00738,-0.290503 -5.21006,0.481631 -0.24112,0.154805 -0.845156,1.174992 -1.342297,2.267081 -0.778916,1.711077 -0.779158,2.246503 -0.0019,3.872471 1.731697,3.621954 6.338687,3.993311 8.965037,0.722646 z m 25.94188,0.41933 c 0.88237,-0.36764 2.06339,-1.436274 2.6245,-2.374742 3.26799,-5.465805 -5.5275,-10.034757 -9.27277,-4.816885 -1.94537,2.710267 -1.51117,3.019334 1.58101,1.125372 2.83841,-1.738524 2.83841,-1.738524 3.8307,0.364342 0.54576,1.156576 0.99229,2.228108 0.99229,2.381183 0,0.153074 -1.17968,0.861286 -2.62152,1.573803 -2.18297,1.078769 -2.42329,1.380931 -1.43651,1.806249 1.66393,0.717188 2.46513,0.706141 4.3023,-0.05933 z M 56.151147,86.932829 c 0,-4.197993 0,-4.197993 -3.192249,-4.197993 -3.19225,0 -3.19225,0 -3.19225,4.197993 0,4.197992 0,4.197992 3.19225,4.197992 3.192249,0 3.192249,0 3.192249,-4.197992 z m 99.049643,-9.795316 c 0.34315,0 0.44635,-0.31485 0.22933,-0.699666 -0.21703,-0.384816 -1.27472,-0.699665 -2.35043,-0.699665 -1.69174,0 -1.84526,0.146019 -1.13693,1.081339 0.4504,0.594737 1.22733,0.909586 1.72651,0.699665 0.49919,-0.20992 1.18837,-0.381673 1.53152,-0.381673 z m -40.77893,-4.656929 c -0.43225,-0.191655 -1.29416,-0.203321 -1.91535,-0.02592 -0.6212,0.177396 -0.26753,0.334204 0.78591,0.348463 1.05344,0.01426 1.56169,-0.130883 1.12944,-0.322538 z m 14.0459,-1.399331 c -0.43225,-0.191655 -1.29416,-0.203321 -1.91535,-0.02592 -0.6212,0.177396 -0.26753,0.334204 0.78591,0.348463 1.05344,0.01426 1.56169,-0.130883 1.12944,-0.322537 z M 58.552779,70.359798 c -0.610414,-0.175122 -1.759624,-0.181475 -2.5538,-0.01412 -0.794176,0.167355 -0.294746,0.310636 1.109843,0.318402 1.40459,0.0078 2.054371,-0.129162 1.443957,-0.304282 z m 60.871861,-0.158794 c -0.71569,-0.496627 -0.65296,-0.684814 0.31922,-0.957622 0.66548,-0.186741 0.2044,-0.351197 -1.02462,-0.365455 -1.22901,-0.01426 -1.87366,0.133533 -1.43253,0.328429 0.44112,0.194894 0.63964,0.642312 0.44115,0.994261 -0.19848,0.351949 0.30251,0.635085 1.11331,0.629193 1.10132,-0.008 1.2489,-0.16705 0.58347,-0.628806 z m 4.57397,0.180583 c -0.43225,-0.191654 -1.29416,-0.20332 -1.91535,-0.02592 -0.6212,0.177396 -0.26753,0.334204 0.78591,0.348462 1.05344,0.01426 1.56169,-0.130882 1.12944,-0.322537 z m -16.29263,-3.549074 c -1.3168,-0.15095 -3.47157,-0.15095 -4.78837,0 -1.31681,0.150948 -0.23942,0.274452 2.39418,0.274452 2.63361,0 3.71099,-0.123504 2.39419,-0.274452 z"
       id="path153" />
  </g>
</svg>
