<?xml version="1.0" encoding="UTF-8" standalone="no"?>
<!-- Created with Inkscape (http://www.inkscape.org/) -->

<svg
   width="210mm"
   height="297mm"
   viewBox="0 0 210 297"
   version="1.1"
   id="svg5"
   inkscape:version="1.1 (c68e22c387, 2021-05-23)"
   sodipodi:docname="clip launcher svg.svg"
   inkscape:export-filename="C:\Users\steven\Desktop\clip launcher svg.png"
   inkscape:export-xdpi="96"
   inkscape:export-ydpi="96"
   xmlns:inkscape="http://www.inkscape.org/namespaces/inkscape"
   xmlns:sodipodi="http://sodipodi.sourceforge.net/DTD/sodipodi-0.dtd"
   xmlns="http://www.w3.org/2000/svg"
   xmlns:svg="http://www.w3.org/2000/svg">
  <sodipodi:namedview
     id="namedview7"
     pagecolor="#ffffff"
     bordercolor="#666666"
     borderopacity="1.0"
     inkscape:pageshadow="2"
     inkscape:pageopacity="0.0"
     inkscape:pagecheckerboard="0"
     inkscape:document-units="mm"
     showgrid="false"
     inkscape:zoom="0.27057957"
     inkscape:cx="569.14867"
     inkscape:cy="951.66092"
     inkscape:window-width="1680"
     inkscape:window-height="956"
     inkscape:window-x="-11"
     inkscape:window-y="-11"
     inkscape:window-maximized="1"
     inkscape:current-layer="layer1" />
  <defs
     id="defs2" />
  <g
     inkscape:label="Layer 1"
     inkscape:groupmode="layer"
     id="layer1">
    <path
       style="fill:#000000;stroke-width:0.194757"
       d="m 49.419342,91.211247 c -0.496088,-0.4859 -3.307594,-3.67128 -6.247796,-7.07862 -2.94021,-3.40735 -5.443827,-6.16157 -5.56361,-6.12049 -0.119775,0.0411 -1.783041,-1.48465 -3.696137,-3.3905 -6.168391,-6.14503 -5.410964,-5.56745 -10.014113,-7.63641 l -4.058812,-1.82432 H 14.388286 8.9377022 v -1.46045 c 0,-0.9892 0.08134,-1.48478 0.252099,-1.53584 0.193595,-0.0579 -5.55e-4,-2.91263 -0.836608,-12.30119 -0.598788,-6.724187 -1.058582,-12.252822 -1.021763,-12.285857 0.03682,-0.03305 0.87116,-0.103457 1.85409,-0.156489 1.7112008,-0.09232 2.0570278,-0.195325 8.1379638,-2.423842 l 6.350816,-2.327427 6.500828,-5.384488 6.500828,-5.384495 5.869299,-6.767051 c 3.228119,-3.721879 5.869307,-6.8427023 5.869307,-6.9351633 0,-0.09246 0.44856,-0.507472 0.996791,-0.922239 l 0.996791,-0.754127 4.885269,6.9989323 c 2.6869,3.849411 4.95784,7.03917 5.04652,7.088347 0.0887,0.04915 2.54209,-2.109861 5.45199,-4.797859 2.9099,-2.688005 5.35638,-4.88728 5.4366,-4.88728 0.22515,0 1.67755,1.960764 1.61023,2.173833 -0.0858,0.271658 10.38839,14.808161 10.62048,14.739497 0.35926,-0.106294 13.44629,-11.100081 13.46272,-11.309371 0.0181,-0.230689 1.76619,-1.729921 2.01706,-1.729921 0.0877,0 2.886867,3.922467 6.220277,8.716581 3.33342,4.794122 6.29871,8.924122 6.58952,9.177778 0.29083,0.253663 2.77861,4.19688 5.5284,8.762704 2.74981,4.565832 5.21997,8.513587 5.48927,8.772797 0.58284,0.56102 0.63394,1.19898 0.11596,1.4477 -0.8217,0.39456 -8.7906,10.97948 -15.49925,20.58733 -3.89656,5.58045 -7.33757,10.5056 -7.646707,10.94476 l -0.56207,0.79848 -0.85746,-0.63519 c -0.47159,-0.34936 -0.99787,-0.84655 -1.1695,-1.10487 -0.30997,-0.46654 -13.55924,-11.65721 -13.66307,-11.54018 -0.68761,0.77509 -10.57572,14.80112 -10.50594,14.90242 0.055,0.0798 -0.27939,0.62047 -0.74305,1.20143 l -0.84303,1.05628 -5.33789,-4.90604 c -2.93583,-2.69832 -5.40507,-4.90604 -5.48718,-4.90604 -0.0821,0 -2.34907,3.15457 -5.03767,7.01016 -2.688602,3.85559 -4.960355,7.01016 -5.048338,7.01016 -0.08798,0 -0.565864,-0.39755 -1.061943,-0.88344 z m 5.238541,-9.6318 c 2.21925,-3.19608 4.33618,-6.24642 4.70429,-6.77853 0.3681,-0.53211 0.72826,-0.94719 0.80035,-0.92239 0.0721,0.0248 2.47399,2.20348 5.33755,4.84151 2.86357,2.63804 5.25647,4.81498 5.31756,4.83767 0.0909,0.0337 4.10194,-5.49597 11.21395,-15.45996 l 1.02803,-1.4403 1.1402,0.95815 c 10.70352,8.9946 14.45884,12.11832 14.56427,12.11474 0.16155,-0.006 11.140307,-15.7118 11.489857,-16.43748 0.14278,-0.2964 2.34021,-3.18929 4.8832,-6.42863 2.54299,-3.23933 4.62362,-5.93652 4.62362,-5.99374 0,-0.17572 -7.76633,-12.96958 -8.20412,-13.515058 -0.22595,-0.281538 -3.23021,-4.565029 -6.67612,-9.518867 l -6.265277,-9.006982 -7.82037,6.562648 c -4.3012,3.609456 -7.85974,6.562649 -7.90787,6.562649 -0.0481,0 -0.45554,-0.518844 -0.90538,-1.152984 -4.91322,-6.926321 -11.23659,-15.634508 -11.35286,-15.634508 -0.0806,0 -0.78194,0.601857 -1.55846,1.337466 -3.09274,2.929772 -8.96439,8.255295 -9.10021,8.253775 -0.16227,-0.0021 -0.14593,0.02106 -5.59832,-7.838702 -2.181949,-3.145352 -4.070427,-5.821817 -4.196613,-5.947711 -0.175509,-0.175098 -1.530311,1.269067 -5.764235,6.144423 -3.044139,3.505323 -5.688405,6.599951 -5.876153,6.876944 -0.187741,0.276992 -3.037884,2.732119 -6.33365,5.455843 -3.295766,2.723718 -5.992292,5.05574 -5.992292,5.182275 0,0.126535 -0.270882,0.330735 -0.601967,0.453777 -0.331077,0.123049 -0.763753,0.384123 -0.961503,0.58018 -0.203756,0.202011 -0.413356,0.278331 -0.483739,0.176151 -0.07111,-0.103241 -2.964479,0.860867 -6.768975,2.255493 l -6.644779,2.435806 0.104356,0.73791 c 0.0574,0.405849 0.502904,5.282984 0.990023,10.838082 l 0.885665,10.10017 h 1.925196 1.925197 l 0.318666,-0.72789 0.318675,-0.72788 1.613508,0.72788 c 0.887429,0.40034 1.893133,0.72789 2.234895,0.72789 0.414251,0 0.621387,0.0919 0.621387,0.27569 0,0.37628 6.858172,3.45898 7.137579,3.20829 0.133872,-0.12012 0.313429,-0.0314 0.526255,0.26004 0.177677,0.2433 0.612614,0.54998 0.966522,0.68151 0.377603,0.14033 0.601595,0.33707 0.542123,0.47613 -0.119503,0.27941 6.157154,6.55179 6.491977,6.48756 0.125681,-0.0241 3.058213,3.20547 6.516751,7.17684 5.321185,6.11021 6.324231,7.17411 6.522237,6.91792 0.128696,-0.16651 2.04975,-2.91772 4.269004,-6.1138 z m -4.649854,-3.04667 c -0.53715,-0.44951 -0.976641,-0.87188 -0.976641,-0.9386 0,-0.0667 -2.914503,-3.4742 -6.476668,-7.57218 -3.562172,-4.09799 -6.476675,-7.5323 -6.476675,-7.63181 0,-0.0995 -0.0387,-0.18092 -0.08597,-0.18092 -0.04725,0 -3.771369,-0.91889 -8.275748,-2.04197 -7.672708,-1.91303 -8.270915,-2.0344 -9.474834,-1.92233 -1.200765,0.11178 -1.28505,0.0949 -1.28505,-0.25752 0,-0.20744 -0.172952,-0.4602 -0.384332,-0.5617 -0.334349,-0.16055 -0.359294,-0.28735 -0.191828,-0.975 0.157791,-0.64791 -0.0096,-1.88828 -0.928001,-6.87822 -0.61629,-3.348281 -1.101599,-6.107571 -1.07848,-6.131766 0.02308,-0.02419 0.691739,-0.154208 1.485814,-0.288929 0.924481,-0.156837 4.792296,-1.468086 10.753441,-3.645572 l 9.309669,-3.400626 6.451529,-7.419409 c 3.54834,-4.080671 6.451528,-7.492048 6.451528,-7.580835 0,-0.29519 2.0926,-1.755914 2.231134,-1.557431 0.07336,0.105095 2.307671,3.311881 4.965166,7.126193 l 4.8318,6.935107 5.44863,-5.003614 5.44863,-5.003607 0.81075,1.05942 c 0.44591,0.582676 0.8231,1.196087 0.83821,1.363132 0.0151,0.167037 2.36993,3.561583 5.23296,7.543434 l 5.20551,7.239724 0.94698,-0.77646 c 4.65975,-3.82067 12.28404,-10.32344 13.25374,-11.304128 0.66215,-0.66965 1.28499,-1.192789 1.3841,-1.162529 0.0991,0.03026 3.508617,4.824326 7.576717,10.653479 5.33999,7.651653 7.33863,10.661071 7.18826,10.823625 -0.14225,0.153802 -0.12931,0.338582 0.0408,0.583022 0.21992,0.31595 -0.61097,1.59219 -7.09557,10.89865 -4.03955,5.79744 -7.414267,10.5408 -7.499367,10.5408 -0.25836,0 -1.90095,-1.3272 -2.04619,-1.6533 -0.19478,-0.4373 -13.40372,-11.46302 -13.60147,-11.35336 -0.33661,0.18666 -10.48778,14.45103 -10.48778,14.73738 0,0.30927 -1.37567,2.14059 -1.61275,2.14691 -0.0742,0.002 -2.54558,-2.21458 -5.49193,-4.9257 l -5.35702,-4.9293 -4.79968,6.90884 c -2.639818,3.79986 -4.901617,7.00909 -5.026217,7.13162 -0.172984,0.17011 -0.457466,0.0296 -1.20319,-0.59452 z m 4.677594,-9.06512 c 5.98747,-8.65728 5.79527,-8.40484 6.21752,-8.1664 0.19908,0.11241 2.62466,2.3077 5.39018,4.87841 4.36526,4.05775 5.05984,4.63316 5.26805,4.3642 0.45713,-0.59056 9.40363,-13.04667 10.55099,-14.69005 0.63407,-0.90818 1.2131,-1.72994 1.28672,-1.82612 0.0737,-0.0962 3.6708,2.79047 7.99371,6.41479 4.32292,3.62431 7.92642,6.52145 8.00779,6.43808 0.0814,-0.0834 2.847227,-4.03507 6.146367,-8.78154 l 5.99843,-8.62994 -5.99927,-8.618745 c -3.29959,-4.740308 -6.119767,-8.736878 -6.267057,-8.88127 -0.22684,-0.222356 -0.7016,0.102857 -3.10341,2.125877 -1.55957,1.31362 -5.07644,4.277439 -7.81525,6.586257 l -4.97965,4.197863 -0.54864,-0.789401 c -1.7104,-2.460976 -11.28451,-15.770589 -11.48922,-15.971944 -0.19456,-0.191365 -1.15445,0.608487 -4.74959,3.957698 -2.47817,2.308637 -4.8865,4.512946 -5.35186,4.898457 l -0.8461,0.700935 -0.54861,-0.743809 c -0.30173,-0.409091 -0.72763,-1.029787 -0.94644,-1.379314 -0.97725,-1.561105 -8.291888,-11.898322 -8.419278,-11.898322 -0.282392,0 -11.009847,12.571493 -10.988018,12.876849 0.01236,0.17233 0.08784,0.527664 0.167823,0.789638 0.145148,0.475413 0.125075,0.483752 -10.660523,4.427471 -10.233124,3.741708 -10.805678,3.975604 -10.800868,4.412355 0.007,0.670521 1.539831,8.830555 1.68239,8.958465 0.06629,0.0595 4.454575,1.18355 9.751817,2.498 5.297243,1.31446 9.732763,2.42154 9.856719,2.46021 0.15971,0.0498 0.166626,0.36105 0.02378,1.06835 l -0.201627,0.99807 5.630495,6.48718 c 3.096773,3.56795 5.676765,6.48696 5.733307,6.48669 0.05657,-1.8e-4 1.860758,-2.54231 4.009363,-5.64899 z"
       id="path1194" />
    <g
       id="g1399"
       transform="matrix(0.5673185,0,0,0.55382671,-13.938983,-62.517299)">
      <path
         style="fill:#000000;stroke-width:0.264583"
         d="m 281.84174,386.79285 c -0.63838,-0.69688 -4.25631,-5.26544 -8.03985,-10.15235 -3.78355,-4.88691 -7.00528,-8.83709 -7.15942,-8.77817 -0.15413,0.0589 -2.29447,-2.12932 -4.7563,-4.86275 -7.93767,-8.81336 -6.96299,-7.98498 -12.88646,-10.95235 l -5.223,-2.61648 h -7.01398 -7.01397 v -2.09462 c 0,-1.41874 0.10467,-2.12951 0.32441,-2.20275 0.24912,-0.083 -7.2e-4,-4.17737 -1.07658,-17.6427 -0.77054,-9.64401 -1.36221,-17.57333 -1.31483,-17.62071 0.0474,-0.0474 1.12103,-0.14838 2.3859,-0.22444 2.20202,-0.13241 2.64704,-0.28014 10.47217,-3.47634 l 8.17242,-3.33806 8.36546,-7.72258 8.36546,-7.72259 7.55279,-9.7055 c 4.15404,-5.33802 7.5528,-9.81399 7.5528,-9.9466 0,-0.13261 0.57722,-0.72783 1.2827,-1.3227 l 1.2827,-1.08159 6.28651,10.03806 c 3.45759,5.52093 6.3799,10.09577 6.49402,10.1663 0.11413,0.0705 3.27123,-3.02602 7.01578,-6.88122 3.74455,-3.85521 6.89274,-7.00947 6.99597,-7.00947 0.28973,0 2.15873,2.81218 2.0721,3.11777 -0.11045,0.38962 13.36809,21.23828 13.66675,21.1398 0.4623,-0.15245 17.30309,-15.92005 17.32423,-16.22022 0.0233,-0.33086 2.27278,-2.4811 2.59561,-2.4811 0.11291,0 3.71491,5.62571 8.00445,12.50157 4.28954,6.87586 8.10536,12.79922 8.47959,13.16302 0.37424,0.36381 3.57559,6.01928 7.11411,12.56771 3.53853,6.54844 6.71721,12.21042 7.06375,12.58219 0.75002,0.80462 0.81578,1.7196 0.14922,2.07633 -1.05738,0.56589 -11.312,15.74707 -19.9449,29.5269 -5.0142,8.00364 -9.4422,15.06742 -9.84001,15.69728 l -0.72329,1.1452 -1.1034,-0.91101 c -0.60686,-0.50105 -1.28409,-1.21414 -1.50495,-1.58463 -0.39888,-0.66912 -17.44844,-16.71909 -17.58205,-16.55124 -0.88484,1.11166 -13.60915,21.22817 -13.51936,21.37346 0.0708,0.11449 -0.35952,0.88989 -0.95617,1.72312 l -1.08484,1.51495 -6.86895,-7.03638 c -3.77792,-3.87001 -6.95541,-7.03638 -7.06107,-7.03638 -0.10567,0 -3.02285,4.52438 -6.48263,10.05417 -3.45977,5.52979 -6.38313,10.05416 -6.49635,10.05416 -0.11322,0 -0.72817,-0.57017 -1.36654,-1.26706 z m 6.74111,-13.81418 c 2.8558,-4.58391 5.57993,-8.95879 6.05362,-9.72196 0.47369,-0.76317 0.93715,-1.35848 1.02992,-1.32292 0.0928,0.0356 3.1836,3.16029 6.86852,6.94383 3.68492,3.78355 6.76417,6.90578 6.84279,6.93832 0.11701,0.0484 5.2785,-7.88247 14.43044,-22.1731 l 1.32291,-2.06572 1.46724,1.37421 c 13.77361,12.9003 18.60607,17.38043 18.74174,17.37529 0.20788,-0.008 14.33568,-22.53429 14.78549,-23.57508 0.18373,-0.42511 3.01146,-4.57417 6.28385,-9.22012 3.2724,-4.64594 5.94981,-8.51432 5.94981,-8.59639 0,-0.25202 -9.99394,-18.60132 -10.5573,-19.38366 -0.29077,-0.40379 -4.15673,-6.54729 -8.59103,-13.65222 l -8.06236,-12.91807 -10.06348,9.41234 c -5.53492,5.17678 -10.11415,9.41233 -10.17608,9.41233 -0.0619,0 -0.58621,-0.74414 -1.16507,-1.65364 -6.32248,-9.93392 -14.45959,-22.42345 -14.6092,-22.42345 -0.10377,0 -1.00623,0.8632 -2.00548,1.91823 -3.97982,4.20196 -11.53564,11.83998 -11.71042,11.8378 -0.20881,-0.003 -0.18778,0.0302 -7.20408,-11.24249 -2.8078,-4.51115 -5.23795,-8.34981 -5.40033,-8.53037 -0.22585,-0.25113 -1.96925,1.82013 -7.41759,8.8125 -3.91729,5.02743 -7.32001,9.46584 -7.56161,9.86311 -0.24159,0.39727 -3.90924,3.91848 -8.15033,7.82492 -4.24109,3.90643 -7.71106,7.25108 -7.71106,7.43256 0,0.18148 -0.34858,0.47435 -0.77463,0.65082 -0.42604,0.17648 -0.98282,0.55092 -1.23729,0.83211 -0.2622,0.28973 -0.53192,0.39919 -0.62249,0.25264 -0.0915,-0.14807 -3.81478,1.23468 -8.71052,3.23489 l -8.5507,3.4935 0.13429,1.05833 c 0.0739,0.58208 0.64715,7.577 1.27399,15.54427 l 1.1397,14.48594 h 2.4774 2.4774 l 0.41007,-1.04395 0.41008,-1.04395 2.07631,1.04395 c 1.14197,0.57417 2.43614,1.04395 2.87593,1.04395 0.53307,0 0.79962,0.13181 0.79962,0.3954 0,0.53968 8.8253,4.96097 9.18485,4.60142 0.17227,-0.17227 0.40333,-0.045 0.6772,0.37296 0.22864,0.34895 0.78833,0.7888 1.24375,0.97744 0.48591,0.20127 0.77415,0.48343 0.69762,0.68288 -0.15378,0.40073 7.92321,9.39675 8.35407,9.30463 0.16173,-0.0346 3.9354,4.59738 8.38595,10.29322 6.84746,8.76344 8.13821,10.28931 8.39301,9.92188 0.16561,-0.23882 2.63768,-4.18468 5.49348,-8.76858 z m -5.98357,-4.36962 c -0.69122,-0.6447 -1.25677,-1.25048 -1.25677,-1.34617 0,-0.0957 -3.75047,-4.98279 -8.33437,-10.86023 -4.58391,-5.87745 -8.33438,-10.80303 -8.33438,-10.94575 0,-0.14272 -0.0498,-0.25948 -0.11063,-0.25948 -0.0608,0 -4.85311,-1.31789 -10.64948,-2.92864 -9.87347,-2.74373 -10.64326,-2.9178 -12.1925,-2.75706 -1.54518,0.16031 -1.65364,0.13608 -1.65364,-0.36935 0,-0.29751 -0.22256,-0.66003 -0.49457,-0.8056 -0.43025,-0.23026 -0.46235,-0.41213 -0.24685,-1.39837 0.20305,-0.92925 -0.0123,-2.70823 -1.19418,-9.86494 -0.79306,-4.80219 -1.41757,-8.75964 -1.38782,-8.79434 0.0297,-0.0347 0.89015,-0.22117 1.91199,-0.41439 1.18965,-0.22494 6.16687,-2.10557 13.83785,-5.22858 l 11.97996,-4.87727 8.30202,-10.64112 c 4.56611,-5.85261 8.30202,-10.7453 8.30202,-10.87264 0,-0.42338 2.69282,-2.51839 2.87109,-2.23372 0.0944,0.15073 2.96958,4.75 6.38932,10.22059 l 6.21771,9.94652 7.01146,-7.17632 7.01146,-7.17631 1.0433,1.51945 c 0.57381,0.83569 1.05919,1.71546 1.07863,1.95504 0.0194,0.23957 3.0497,5.10812 6.73393,10.819 l 6.6986,10.38341 1.2186,-1.11362 c 5.99631,-5.47971 15.80748,-14.80616 17.05532,-16.21269 0.85207,-0.96043 1.65356,-1.71073 1.78109,-1.66733 0.12752,0.0434 4.515,6.91918 9.74995,15.27951 6.87166,10.97421 9.44357,15.2904 9.25008,15.52354 -0.18306,0.22058 -0.16641,0.4856 0.0525,0.83618 0.283,0.45315 -0.78622,2.28357 -9.13079,15.63115 -5.19822,8.31484 -9.54091,15.1179 -9.65042,15.1179 -0.33247,0 -2.4462,-1.9035 -2.6331,-2.37121 -0.25064,-0.62718 -17.2483,-16.44057 -17.50277,-16.2833 -0.43317,0.26771 -13.49599,20.72606 -13.49599,21.13675 0,0.44357 -1.77026,3.0701 -2.07534,3.07917 -0.0955,0.003 -3.27573,-3.17622 -7.06718,-7.06458 l -6.89357,-7.06974 -6.17637,9.90885 c -3.397,5.44987 -6.30755,10.05263 -6.46789,10.22837 -0.2226,0.24397 -0.58868,0.0424 -1.5483,-0.85268 z m 6.01927,-13.00144 c 7.70485,-12.41651 7.45752,-12.05445 8.00089,-11.71248 0.25618,0.16123 3.37749,3.30977 6.93624,6.99675 5.61735,5.81974 6.51115,6.64501 6.77908,6.25925 0.58826,-0.84699 12.10088,-18.71188 13.57734,-21.06886 0.81594,-1.30254 1.56105,-2.48113 1.65579,-2.61908 0.0948,-0.13795 4.72369,4.00217 10.28654,9.20027 5.56286,5.19809 10.19996,9.35324 10.30466,9.23367 0.10471,-0.11958 3.66391,-5.78721 7.90934,-12.59472 l 7.71895,-12.3773 -7.72003,-12.36124 c -4.24601,-6.79868 -7.87511,-12.53067 -8.06465,-12.73776 -0.2919,-0.31891 -0.90283,0.14752 -3.99355,3.04899 -2.00691,1.88403 -6.53252,6.13482 -10.0569,9.44619 l -6.40797,6.02069 -0.706,-1.13218 c -2.201,-3.5296 -14.52125,-22.61861 -14.78468,-22.9074 -0.25036,-0.27446 -1.48558,0.87271 -6.11191,5.67624 -3.18898,3.31111 -6.28809,6.47259 -6.88693,7.0255 l -1.08879,1.0053 -0.70596,-1.06679 c -0.38828,-0.58673 -0.93634,-1.47695 -1.21791,-1.97825 -1.25756,-2.23898 -10.67025,-17.0649 -10.83418,-17.0649 -0.36339,0 -14.1678,18.03038 -14.13971,18.46833 0.0159,0.24716 0.11303,0.75679 0.21596,1.13252 0.18678,0.68185 0.16095,0.69381 -13.71828,6.35 -13.16829,5.36646 -13.90507,5.70192 -13.89888,6.32832 0.009,0.96168 1.9815,12.66503 2.16495,12.84847 0.0853,0.0853 5.73228,1.69749 12.54893,3.58271 6.81665,1.88523 12.52441,3.47304 12.68392,3.52849 0.20552,0.0714 0.21442,0.51784 0.0306,1.53226 l -0.25946,1.43146 7.24549,9.30409 c 3.98502,5.11725 7.30503,9.30378 7.37779,9.30339 0.0728,-2.6e-4 2.39448,-3.64625 5.15937,-8.10193 z"
         id="path1198" />
      <g
         id="g1394">
        <path
           style="fill:#000000;fill-opacity:0.996078;stroke:#000000;stroke-width:27.1979;stroke-linecap:round;stroke-linejoin:round;stroke-dasharray:6.79948, 6.79948;stroke-opacity:0.955017;paint-order:stroke markers fill"
           d="m 1038.967,1404.3788 c -55.60119,-69.3842 -61.64788,-75.1751 -97.83978,-93.7011 -28.28426,-14.4781 -32.83474,-16.0403 -35.07305,-12.0407 -1.41461,2.5278 -6.12018,4.5959 -10.45683,4.5959 h -7.88481 l -3.45071,-48.8712 c -1.89788,-26.8792 -4.12636,-52.807 -4.95216,-57.6175 l -1.50147,-8.7462 35.06734,-13.5298 c 34.81508,-13.4326 35.2944,-13.7423 66.62941,-43.056 17.93124,-16.7746 43.39606,-44.7783 58.96356,-64.8422 15.0708,-19.4239 28.2533,-35.3161 29.2943,-35.3161 1.041,0 11.8958,15.9363 24.1219,35.4139 12.226,19.4777 23.0561,35.414 24.0667,35.414 1.0107,0 12.618,-10.8367 25.794,-24.0815 13.176,-13.2448 24.8089,-24.0815 25.8508,-24.0815 1.0419,0 14.2764,19.1339 29.4099,42.5198 15.1335,23.3859 28.6827,43.2413 30.1093,44.123 1.4267,0.8817 19.1795,-14.0023 39.4508,-33.0755 20.6505,-19.43 37.8491,-33.5369 39.1134,-32.0822 6.4661,7.4399 62.0574,98.7286 79.6204,130.7478 l 20.2524,36.9224 -19.5067,27.9546 c -10.7286,15.375 -33.2766,50.0152 -50.1067,76.9781 l -30.6,49.0236 -6.011,-5.3944 c -3.306,-2.967 -19.9611,-18.3343 -37.0112,-34.1498 -17.0501,-15.8153 -32.0386,-28.7552 -33.3077,-28.7552 -1.2691,0 -7.8966,8.7196 -14.7277,19.3769 -6.8312,10.6574 -19.6698,30.6144 -28.5301,44.3491 l -16.1097,24.9721 -26.389,-26.2794 -26.3891,-26.2793 -9.6579,15.2194 c -5.3119,8.3707 -15.7817,25.0999 -23.2663,37.176 -7.4845,12.0762 -14.4325,21.8946 -15.4399,21.8187 -1.0074,-0.076 -14.297,-15.6935 -29.5324,-34.7057 z m 52.4716,-32.4428 c 8.5752,-13.6344 18.8869,-30.0984 22.9148,-36.5867 l 7.3234,-11.7969 24.7126,25.2542 c 13.5919,13.8898 26.2725,25.2542 28.1791,25.2542 1.9065,0 7.361,-6.9007 12.121,-15.335 16.6303,-29.4672 45.9153,-72.8969 48.5434,-71.9897 1.4574,0.5031 18.5296,15.8948 37.9381,34.2038 19.4085,18.309 35.9086,33.2891 36.6668,33.2891 1.6454,0 68.7339,-107.0173 71.3306,-113.784 0.9909,-2.5825 -0.349,-8.9539 -2.9778,-14.1587 -9.6669,-19.1404 -67.817,-110.039 -70.3946,-110.039 -1.4644,0 -17.1269,14.2992 -34.8056,31.7759 -29.9298,29.5879 -39.938,38.1652 -41.7378,35.7703 -3.1474,-4.1879 -49.8169,-78.933 -52.5713,-84.1973 -3.4824,-6.6557 -3.8312,-6.4295 -29.4909,19.1235 -14.2817,14.2223 -26.7819,25.8588 -27.7783,25.8588 -0.9963,0 -11.7268,-16.0072 -23.8455,-35.5715 -12.1187,-19.5644 -23.0617,-36.2067 -24.3178,-36.9831 -3.2701,-2.021 -11.2417,7.024 -44.7735,50.8022 l -29.69321,38.7666 -21.30287,8.9097 c -30.24004,12.6474 -78.47812,30.7384 -81.9615,30.7384 -1.69032,0 -2.30071,3.319 -1.43285,7.7911 0.83159,4.285 3.69726,22.3347 6.36818,40.1103 l 4.8562,32.3194 35.34945,9.0587 c 57.80712,14.8137 58.45625,15.051 63.885,23.3629 4.7147,7.2186 32.055,42.8505 54.3262,70.8018 5.2766,6.6224 11.2551,12.0407 13.2856,12.0407 2.0305,0 10.7079,-11.1554 19.2831,-24.7897 z"
           id="path1274"
           transform="scale(0.26458333)" />
      </g>
    </g>
    <path
       style="fill:#ffffff;fill-opacity:0.996078;stroke:#000000;stroke-width:5.37462;stroke-linecap:round;stroke-linejoin:round;stroke-dasharray:1.34366, 1.34366;stroke-opacity:0.955017;paint-order:stroke markers fill"
       d="M 36.683297,289.20114 C 25.393395,275.85735 24.1656,274.74366 16.816786,271.1808 c -5.743149,-2.7844 -6.667137,-3.08484 -7.1216225,-2.31564 -0.287237,0.48613 -1.242713,0.88388 -2.12328,0.88388 h -1.601022 l -0.700671,-9.39878 C 4.8848212,255.18092 4.4323318,250.19455 4.2646465,249.26942 l -0.3048726,-1.68205 7.1204631,-2.60202 c 7.06926,-2.58331 7.166579,-2.64288 13.529219,-8.28042 3.640951,-3.22604 8.811614,-8.61163 11.972616,-12.47028 3.060169,-3.73553 5.736879,-6.79189 5.948255,-6.79189 0.211375,0 2.415458,3.06482 4.897984,6.81072 2.48251,3.74589 4.681574,6.81071 4.88678,6.81071 0.20522,0 2.562101,-2.08408 5.237506,-4.63128 2.675406,-2.54721 5.037482,-4.63129 5.249042,-4.63129 0.211559,0 2.898845,3.67978 5.971722,8.17729 3.072878,4.49752 5.824064,8.31604 6.113741,8.48561 0.289693,0.16957 3.894428,-2.69287 8.010539,-6.36098 4.193115,-3.73673 7.685313,-6.44973 7.942052,-6.16997 1.312934,1.43082 12.600827,18.98722 16.167017,25.14506 l 4.11228,7.10082 -3.96085,5.37615 c -2.17847,2.95688 -6.75688,9.61878 -10.174226,14.80423 l -6.213398,9.42808 -1.220542,-1.03744 c -0.671286,-0.57059 -4.053127,-3.52601 -7.51518,-6.56759 -3.462045,-3.04157 -6.505484,-5.53013 -6.763174,-5.53013 -0.257691,0 -1.603398,1.67694 -2.990482,3.72653 -1.387083,2.04958 -3.993964,5.88768 -5.793078,8.52909 l -3.271099,4.80256 -5.358325,-5.05397 -5.358347,-5.05397 -1.961043,2.92695 c -1.078589,1.60982 -3.204501,4.82714 -4.724237,7.14959 -1.519758,2.32246 -2.930563,4.2107 -3.135116,4.1961 -0.20453,-0.0146 -2.903005,-3.01812 -5.996596,-6.67449 z m 10.654433,-6.23932 c 1.741226,-2.62213 3.835013,-5.78844 4.65288,-7.03625 l 1.487027,-2.26875 5.017935,4.85683 c 2.759855,2.67124 5.334664,4.85681 5.721806,4.85681 0.387112,0 1.494656,-1.32713 2.461183,-2.94918 3.376806,-5.66707 9.323169,-14.01934 9.856807,-13.84487 0.295948,0.0968 3.762467,3.05684 7.703387,6.57798 3.940927,3.52114 7.291295,6.40207 7.445251,6.40207 0.334096,0 13.956514,-20.58128 14.483774,-21.88264 0.2012,-0.49665 -0.0708,-1.72198 -0.60462,-2.72296 -1.96289,-3.68101 -13.770362,-21.16239 -14.293748,-21.16239 -0.297344,0 -3.47764,2.74997 -7.067325,6.11106 -6.077292,5.69026 -8.109469,7.33981 -8.474923,6.87924 -0.639062,-0.80541 -10.115396,-15.18019 -10.674682,-16.19261 -0.707103,-1.27999 -0.777929,-1.2365 -5.988146,3.67779 -2.899943,2.7352 -5.438123,4.97309 -5.640443,4.97309 -0.202304,0 -2.381146,-3.07846 -4.841861,-6.84102 -2.4607,-3.76256 -4.682695,-6.96317 -4.937768,-7.11247 -0.663996,-0.38868 -2.282639,1.35083 -9.091322,9.77013 l -6.02925,7.4555 -4.325583,1.71347 c -6.140275,2.43233 -15.9350855,5.91153 -16.6423875,5.91153 -0.343229,0 -0.46717,0.6383 -0.290944,1.49836 0.168852,0.8241 0.750732,4.29536 1.293065,7.71393 l 0.986067,6.21556 7.1777445,1.74214 c 11.737818,2.84893 11.869634,2.89458 12.971944,4.49309 0.957326,1.38828 6.50883,8.24091 11.031007,13.61642 1.071429,1.2736 2.285386,2.31563 2.697662,2.31563 0.412298,0 2.174253,-2.14537 3.915463,-4.76749 z"
       id="path1456" />
    <g
       id="g1982"
       transform="matrix(0.73121301,0,0,0.7052069,-2.1216201,6.2115147)">
      <path
         style="fill:#000000;stroke-width:0.264583"
         d="m 64.459182,281.84954 c -0.63838,-0.69688 -4.25631,-5.26544 -8.03985,-10.15235 -3.78355,-4.88691 -7.00528,-8.83709 -7.15942,-8.77817 -0.15413,0.0589 -2.29447,-2.12932 -4.7563,-4.86275 -7.93767,-8.81336 -6.96299,-7.98498 -12.88646,-10.95235 l -5.223,-2.61648 h -7.01398 -7.013975 v -2.09462 c 0,-1.41874 0.104678,-2.12951 0.324409,-2.20275 0.249124,-0.083 -7.14e-4,-4.17737 -1.076572,-17.6427 -0.770539,-9.64401 -1.362215,-17.57333 -1.314835,-17.62071 0.04738,-0.0474 1.121034,-0.14838 2.385898,-0.22444 2.202025,-0.13241 2.647045,-0.28014 10.472175,-3.47634 l 8.17242,-3.33806 8.36546,-7.72258 8.36546,-7.72259 7.55279,-9.70549 c 4.15404,-5.33802 7.5528,-9.81399 7.5528,-9.9466 0,-0.13261 0.57722,-0.72783 1.2827,-1.3227 l 1.2827,-1.08159 6.28651,10.03806 c 3.45759,5.52093 6.3799,10.09577 6.49402,10.1663 0.11413,0.0705 3.27123,-3.02602 7.01578,-6.88122 3.74455,-3.85521 6.89274,-7.00947 6.99597,-7.00947 0.28973,0 2.15873,2.81218 2.0721,3.11777 -0.11045,0.38962 13.368088,21.23827 13.666748,21.13979 0.4623,-0.15245 17.30309,-15.92004 17.32423,-16.22021 0.0233,-0.33086 2.27278,-2.4811 2.59561,-2.4811 0.11291,0 3.71491,5.62571 8.00445,12.50156 4.28954,6.87586 8.10536,12.79922 8.47959,13.16302 0.37424,0.36381 3.57559,6.01928 7.11411,12.56771 3.53853,6.54844 6.71721,12.21042 7.06375,12.58219 0.75002,0.80462 0.81578,1.7196 0.14922,2.07633 -1.05738,0.56589 -11.312,15.74707 -19.9449,29.5269 -5.0142,8.00364 -9.4422,15.06742 -9.84001,15.69728 l -0.72329,1.1452 -1.1034,-0.91101 c -0.60686,-0.50105 -1.28409,-1.21414 -1.50495,-1.58463 -0.39888,-0.66912 -17.44844,-16.71909 -17.58205,-16.55124 -0.88484,1.11166 -13.609148,21.22817 -13.519358,21.37346 0.0708,0.11449 -0.35952,0.88989 -0.95617,1.72312 l -1.08484,1.51495 -6.86895,-7.03638 c -3.77792,-3.87001 -6.95541,-7.03638 -7.06107,-7.03638 -0.10567,0 -3.02285,4.52438 -6.48263,10.05417 -3.45977,5.52979 -6.38313,10.05416 -6.49635,10.05416 -0.11322,0 -0.72817,-0.57017 -1.36654,-1.26706 z m 6.74111,-13.81418 c 2.8558,-4.58391 5.57993,-8.95879 6.05362,-9.72196 0.47369,-0.76317 0.93715,-1.35848 1.02992,-1.32292 0.0928,0.0356 3.1836,3.16029 6.86852,6.94383 3.68492,3.78355 6.76417,6.90578 6.84279,6.93832 0.11701,0.0484 5.2785,-7.88247 14.430438,-22.1731 l 1.32291,-2.06572 1.46724,1.37421 c 13.77361,12.9003 18.60607,17.38043 18.74174,17.37529 0.20788,-0.008 14.33568,-22.53429 14.78549,-23.57508 0.18373,-0.42511 3.01146,-4.57417 6.28385,-9.22012 3.2724,-4.64594 5.94981,-8.51432 5.94981,-8.59639 0,-0.25202 -9.99394,-18.60132 -10.5573,-19.38366 -0.29077,-0.40379 -4.15673,-6.54729 -8.59103,-13.65222 l -8.06236,-12.91806 -10.06348,9.41233 c -5.53492,5.17678 -10.11415,9.41233 -10.17608,9.41233 -0.0619,0 -0.58621,-0.74414 -1.16507,-1.65364 -6.32248,-9.93392 -14.459588,-22.42344 -14.609198,-22.42344 -0.10377,0 -1.00623,0.8632 -2.00548,1.91823 -3.97982,4.20196 -11.53564,11.83997 -11.71042,11.83779 -0.20881,-0.003 -0.18778,0.0302 -7.20408,-11.24248 -2.8078,-4.51115 -5.23795,-8.34981 -5.40033,-8.53037 -0.22585,-0.25113 -1.96925,1.82013 -7.41759,8.8125 -3.91729,5.02743 -7.32001,9.46583 -7.56161,9.8631 -0.24159,0.39727 -3.90924,3.91848 -8.15033,7.82492 -4.24109,3.90643 -7.71106,7.25108 -7.71106,7.43256 0,0.18148 -0.34858,0.47435 -0.77463,0.65082 -0.42604,0.17648 -0.98282,0.55092 -1.23729,0.83211 -0.2622,0.28973 -0.53192,0.39919 -0.62249,0.25264 -0.0915,-0.14807 -3.81478,1.23468 -8.71052,3.23489 l -8.5507,3.4935 0.134288,1.05833 c 0.07386,0.58208 0.647152,7.577 1.273992,15.54427 l 1.1397,14.48594 h 2.4774 2.4774 l 0.41007,-1.04395 0.41008,-1.04395 2.07631,1.04395 c 1.14197,0.57417 2.43614,1.04395 2.87593,1.04395 0.53307,0 0.79962,0.13181 0.79962,0.3954 0,0.53968 8.8253,4.96097 9.18485,4.60142 0.17227,-0.17227 0.40333,-0.045 0.6772,0.37296 0.22864,0.34895 0.78833,0.7888 1.24375,0.97744 0.48591,0.20127 0.77415,0.48343 0.69762,0.68288 -0.15378,0.40073 7.92321,9.39675 8.35407,9.30463 0.16173,-0.0346 3.9354,4.59738 8.38595,10.29322 6.84746,8.76344 8.13821,10.28931 8.39301,9.92188 0.16561,-0.23882 2.63768,-4.18468 5.49348,-8.76858 z m -5.98357,-4.36962 c -0.69122,-0.6447 -1.25677,-1.25048 -1.25677,-1.34617 0,-0.0957 -3.75047,-4.98279 -8.33437,-10.86023 -4.58391,-5.87745 -8.33438,-10.80303 -8.33438,-10.94575 0,-0.14272 -0.0498,-0.25948 -0.11063,-0.25948 -0.0608,0 -4.85311,-1.31789 -10.64948,-2.92864 -9.87347,-2.74373 -10.64326,-2.9178 -12.1925,-2.75706 -1.54518,0.16031 -1.65364,0.13608 -1.65364,-0.36935 0,-0.29751 -0.22256,-0.66003 -0.49457,-0.8056 -0.43025,-0.23026 -0.46235,-0.41213 -0.24685,-1.39837 0.20305,-0.92925 -0.0123,-2.70823 -1.19418,-9.86494 -0.79306,-4.80219 -1.41757,-8.75964 -1.38782,-8.79434 0.0297,-0.0347 0.89015,-0.22117 1.91199,-0.41439 1.18965,-0.22494 6.16687,-2.10557 13.83785,-5.22858 l 11.97996,-4.87727 8.30202,-10.64112 c 4.56611,-5.85261 8.30202,-10.7453 8.30202,-10.87264 0,-0.42337 2.69282,-2.51838 2.87109,-2.23371 0.0944,0.15073 2.96958,4.74999 6.38932,10.22058 l 6.21771,9.94652 7.01146,-7.17632 7.01146,-7.17631 1.0433,1.51945 c 0.57381,0.83569 1.05919,1.71546 1.07863,1.95504 0.0194,0.23957 3.0497,5.10812 6.733928,10.819 l 6.6986,10.38341 1.2186,-1.11362 c 5.99631,-5.47971 15.80748,-14.80616 17.05532,-16.21269 0.85207,-0.96043 1.65356,-1.71073 1.78109,-1.66733 0.12752,0.0434 4.515,6.91918 9.74995,15.27951 6.87166,10.97421 9.44357,15.2904 9.25008,15.52354 -0.18306,0.22058 -0.16641,0.4856 0.0525,0.83618 0.283,0.45315 -0.78622,2.28357 -9.13079,15.63115 -5.19822,8.31484 -9.54091,15.1179 -9.65042,15.1179 -0.33247,0 -2.4462,-1.9035 -2.6331,-2.37121 -0.25064,-0.62718 -17.2483,-16.44057 -17.50277,-16.2833 -0.43317,0.26771 -13.495988,20.72606 -13.495988,21.13675 0,0.44357 -1.77026,3.0701 -2.07534,3.07917 -0.0955,0.003 -3.27573,-3.17622 -7.06718,-7.06458 l -6.89357,-7.06974 -6.17637,9.90885 c -3.397,5.44987 -6.30755,10.05263 -6.46789,10.22837 -0.2226,0.24397 -0.58868,0.0424 -1.5483,-0.85268 z m 6.01927,-13.00144 c 7.70485,-12.41651 7.45752,-12.05445 8.00089,-11.71248 0.25618,0.16123 3.37749,3.30977 6.93624,6.99675 5.61735,5.81974 6.51115,6.64501 6.77908,6.25925 0.58826,-0.84699 12.100878,-18.71188 13.577338,-21.06886 0.81594,-1.30254 1.56105,-2.48113 1.65579,-2.61908 0.0948,-0.13795 4.72369,4.00217 10.28654,9.20027 5.56286,5.19809 10.19996,9.35324 10.30466,9.23367 0.10471,-0.11958 3.66391,-5.78721 7.90934,-12.59472 l 7.71895,-12.3773 -7.72003,-12.36124 c -4.24601,-6.79868 -7.87511,-12.53067 -8.06465,-12.73776 -0.2919,-0.31891 -0.90283,0.14752 -3.99355,3.04899 -2.00691,1.88403 -6.53252,6.13482 -10.0569,9.44619 l -6.40797,6.02069 -0.706,-1.13218 c -2.201,-3.5296 -14.521248,-22.61861 -14.784678,-22.9074 -0.25036,-0.27446 -1.48558,0.87271 -6.11191,5.67624 -3.18898,3.31111 -6.28809,6.47259 -6.88693,7.0255 l -1.08879,1.0053 -0.70596,-1.06679 c -0.38828,-0.58673 -0.93634,-1.47695 -1.21791,-1.97825 -1.25756,-2.23898 -10.67025,-17.0649 -10.83418,-17.0649 -0.36339,0 -14.1678,18.03038 -14.13971,18.46833 0.0159,0.24716 0.11303,0.75679 0.21596,1.13252 0.18678,0.68185 0.16095,0.69381 -13.71828,6.35 -13.16829,5.36646 -13.90507,5.70192 -13.89888,6.32832 0.009,0.96168 1.9815,12.66503 2.16495,12.84847 0.0853,0.0853 5.73228,1.69749 12.54893,3.58271 6.81665,1.88523 12.52441,3.47304 12.68392,3.52849 0.20552,0.0714 0.21442,0.51784 0.0306,1.53226 l -0.25946,1.43146 7.24549,9.30409 c 3.98502,5.11725 7.30503,9.30378 7.37779,9.30339 0.0728,-2.6e-4 2.39448,-3.64625 5.15937,-8.10193 z"
         id="path1094" />
      <path
         style="fill:#2ad4ff;fill-opacity:0.996078;stroke:#000000;stroke-width:27.1979;stroke-linecap:round;stroke-linejoin:round;stroke-dasharray:6.79948, 6.79948;stroke-opacity:0.955017;paint-order:stroke markers fill"
         d="M 217.36359,1007.7427 C 161.76243,938.35848 155.71575,932.56759 119.52385,914.04163 91.23959,899.56344 86.689111,898.00124 84.450797,902.00089 c -1.414608,2.52776 -6.120181,4.59593 -10.456829,4.59593 h -7.884813 l -3.450703,-48.87123 c -1.897886,-26.87918 -4.126361,-52.80704 -4.952167,-57.61746 l -1.501464,-8.74622 35.067341,-13.52985 c 34.815068,-13.43253 35.294398,-13.74227 66.629408,-43.05601 17.93124,-16.77458 43.39606,-44.77823 58.96358,-64.84221 15.07083,-19.42383 28.25324,-35.31606 29.29425,-35.31606 1.041,0 11.89586,15.93627 24.1219,35.41394 12.22605,19.47766 23.05608,35.41393 24.06675,35.41393 1.01066,0 12.61795,-10.83666 25.79395,-24.08147 13.17601,-13.24482 24.80888,-24.08148 25.85082,-24.08148 1.04191,0 14.27638,19.13392 29.40989,42.51982 15.13348,23.3859 28.68271,43.24122 30.10935,44.12294 1.42665,0.88171 19.17948,-14.00225 39.45076,-33.07547 20.65049,-19.43002 37.84912,-33.53693 39.11345,-32.0822 6.46607,7.43988 62.05735,98.72856 79.62034,130.7478 l 20.25243,36.9224 -19.50667,27.95458 c -10.72864,15.37502 -33.27667,50.01517 -50.1067,76.97813 l -30.60008,49.0236 -6.01097,-5.39445 c -3.30601,-2.96693 -19.96108,-18.33431 -37.01119,-34.14972 -17.05014,-15.81538 -32.03859,-28.75527 -33.30769,-28.75527 -1.26909,0 -7.89657,8.71965 -14.72775,19.37698 -6.8312,10.65733 -19.66972,30.61438 -28.53003,44.34904 l -16.10972,24.97212 -26.38905,-26.27937 -26.38905,-26.27933 -9.65793,15.21938 c -5.31185,8.37067 -15.78166,25.09992 -23.26624,37.17602 -7.48458,12.0762 -14.43254,21.8945 -15.43992,21.8186 -1.00738,-0.076 -14.29698,-15.6934 -29.53246,-34.7056 z m 52.47167,-32.44283 c 8.57521,-13.63437 18.88684,-30.09837 22.91473,-36.58665 l 7.32344,-11.79693 24.71256,25.25422 c 13.5919,13.8898 26.2725,25.25419 28.1791,25.25419 1.90657,0 7.36105,-6.90073 12.12105,-15.33497 16.63031,-29.46729 45.91531,-72.89693 48.54336,-71.98977 1.45747,0.50311 18.52962,15.89483 37.93813,34.20383 19.40851,18.30901 35.90858,33.28911 36.6668,33.28911 1.64539,0 68.7339,-107.01732 71.33056,-113.78406 0.99097,-2.58245 -0.34901,-8.95386 -2.97772,-14.15869 -9.6669,-19.14032 -67.81701,-110.03892 -70.39464,-110.03892 -1.46438,0 -17.12688,14.29915 -34.80558,31.77589 -29.92979,29.58789 -39.938,38.16514 -41.73782,35.77029 -3.14736,-4.18791 -49.81687,-78.93304 -52.57131,-84.19737 -3.48238,-6.65563 -3.83116,-6.42947 -29.49084,19.12353 -14.28173,14.22234 -26.78198,25.85881 -27.77833,25.85881 -0.99635,0 -11.72683,-16.00719 -23.8455,-35.57153 -12.11868,-19.56435 -23.06168,-36.2067 -24.31779,-36.98302 -3.27012,-2.02105 -11.24177,7.02396 -44.77354,50.80216 l -29.6932,38.76665 -21.30288,8.90962 c -30.24003,12.64745 -78.478115,30.73842 -81.96149,30.73842 -1.690323,0 -2.300717,3.319 -1.432848,7.79107 0.831583,4.28509 3.69726,22.33476 6.368171,40.11039 l 4.856202,32.31932 35.349445,9.05868 c 57.80713,14.81371 58.45626,15.05109 63.88498,23.36293 4.71474,7.21866 32.05507,42.85055 54.32619,70.80181 5.27663,6.62241 11.25518,12.04072 13.28567,12.04072 2.03049,0 10.70789,-11.15537 19.2831,-24.78973 z"
         id="path1747"
         transform="scale(0.26458333)" />
      <path
         style="fill:#5fd3bc;fill-opacity:0.996078;stroke:#000000;stroke-width:27.1979;stroke-linecap:round;stroke-linejoin:round;stroke-dasharray:6.79948, 6.79948;stroke-opacity:0.955017;paint-order:stroke markers fill"
         d="m 228.87917,948.58526 c -32.67434,-41.36331 -32.92743,-41.74495 -31.44462,-47.41522 0.9264,-3.54257 -0.36705,-5.88579 -3.81544,-6.91209 -2.86932,-0.85396 -24.34048,-6.8575 -47.71368,-13.34119 -23.3732,-6.4837 -43.30221,-13.07001 -44.28669,-14.63624 -3.291842,-5.23709 -8.766751,-45.8787 -6.30494,-46.80316 1.335769,-0.50161 24.73945,-10.22366 52.00818,-21.60455 37.19448,-15.5235 49.82123,-22.04428 50.54713,-26.10386 1.22285,-6.83868 48.56476,-69.51995 51.25245,-67.85887 1.09598,0.67736 12.00179,17.23623 24.23514,36.7975 12.23334,19.56127 22.95975,35.56595 23.83646,35.56595 0.87671,0 13.09209,-11.42841 27.14528,-25.39648 l 25.55127,-25.39647 28.13564,43.96143 c 15.47459,24.17878 28.92528,44.44945 29.89038,45.04592 0.9651,0.59647 18.024,-14.13227 37.90864,-32.73053 19.88467,-18.59826 37.19535,-33.81502 38.46818,-33.81502 1.27283,0 15.20309,20.4395 30.95612,45.4211 l 28.64188,45.4211 -25.89439,41.69718 c -14.24189,22.93346 -27.5621,43.51294 -29.60044,45.73219 -3.14586,3.42509 -8.54088,-0.40473 -35.69209,-25.33708 -17.59231,-16.15464 -34.69949,-31.75213 -38.01593,-34.66108 l -6.02992,-5.28902 -29.28902,45.54153 -29.28907,45.54153 -25.81497,-25.70762 c -29.98801,-29.86333 -23.9284,-31.67518 -54.04561,16.15993 l -20.48068,32.52943 z"
         id="path1860"
         transform="scale(0.26458333)" />
    </g>
  </g>
</svg>
