<?xml version="1.0" encoding="UTF-8" standalone="no"?>
<!-- Created with Inkscape (http://www.inkscape.org/) -->

<svg
   width="210mm"
   height="297mm"
   viewBox="0 0 210 297"
   version="1.1"
   id="svg5"
   inkscape:version="1.1 (c68e22c387, 2021-05-23)"
   sodipodi:docname="audio editor svg.svg"
   inkscape:export-filename="C:\Users\steven\Desktop\clip launcher svg.png"
   inkscape:export-xdpi="96"
   inkscape:export-ydpi="96"
   xmlns:inkscape="http://www.inkscape.org/namespaces/inkscape"
   xmlns:sodipodi="http://sodipodi.sourceforge.net/DTD/sodipodi-0.dtd"
   xmlns="http://www.w3.org/2000/svg"
   xmlns:svg="http://www.w3.org/2000/svg">
  <sodipodi:namedview
     id="namedview7"
     pagecolor="#ffffff"
     bordercolor="#666666"
     borderopacity="1.0"
     inkscape:pageshadow="2"
     inkscape:pageopacity="0.0"
     inkscape:pagecheckerboard="0"
     inkscape:document-units="mm"
     showgrid="false"
     inkscape:zoom="0.27057957"
     inkscape:cx="569.14866"
     inkscape:cy="951.66091"
     inkscape:window-width="1680"
     inkscape:window-height="956"
     inkscape:window-x="-11"
     inkscape:window-y="-11"
     inkscape:window-maximized="1"
     inkscape:current-layer="layer1" />
  <defs
     id="defs2" />
  <g
     inkscape:label="Layer 1"
     inkscape:groupmode="layer"
     id="layer1">
    <g
       id="g1417"
       transform="matrix(0.62243541,0,0,0.52130098,-23.267491,-19.345773)">
      <rect
         style="fill:none;fill-opacity:0.996078;stroke:#000000;stroke-width:2.54;stroke-linecap:round;stroke-linejoin:round;stroke-dasharray:0.635, 0.635;stroke-opacity:0.955017;paint-order:stroke markers fill"
         id="rect1115"
         width="144.72021"
         height="120.27423"
         x="53.781158"
         y="79.204987"
         ry="0.84158397" />
      <rect
         style="fill:none;fill-opacity:0.996078;stroke:#000000;stroke-width:2.54;stroke-linecap:round;stroke-linejoin:round;stroke-dasharray:0.635, 0.635;stroke-opacity:0.955017;paint-order:stroke markers fill"
         id="rect1117"
         width="33.246536"
         height="14.667589"
         x="63.559551"
         y="116.36288"
         ry="0.84158397" />
      <rect
         style="fill:none;fill-opacity:0.996078;stroke:#000000;stroke-width:2.54;stroke-linecap:round;stroke-linejoin:round;stroke-dasharray:0.635, 0.635;stroke-opacity:0.955017;paint-order:stroke markers fill"
         id="rect1119"
         width="47.914124"
         height="18.578947"
         x="120.27423"
         y="114.4072"
         ry="0.84158397" />
      <rect
         style="fill:none;fill-opacity:0.996078;stroke:#000000;stroke-width:2.54;stroke-linecap:round;stroke-linejoin:round;stroke-dasharray:0.635, 0.635;stroke-opacity:0.955017;paint-order:stroke markers fill"
         id="rect1223"
         width="42.047089"
         height="14.667589"
         x="72.360107"
         y="149.60941"
         ry="0.84158397" />
      <rect
         style="fill:none;fill-opacity:0.996078;stroke:#000000;stroke-width:2.54;stroke-linecap:round;stroke-linejoin:round;stroke-dasharray:0.635, 0.635;stroke-opacity:0.955017;paint-order:stroke markers fill"
         id="rect1225"
         width="46.936287"
         height="15.645433"
         x="143.74239"
         y="163.29915"
         ry="0.84158397" />
      <rect
         style="fill:none;fill-opacity:0.996078;stroke:#000000;stroke-width:2.54;stroke-linecap:round;stroke-linejoin:round;stroke-dasharray:0.635, 0.635;stroke-opacity:0.955017;paint-order:stroke markers fill"
         id="rect1329"
         width="16.623268"
         height="19.556791"
         x="127.11912"
         y="178.94458"
         ry="0.84158397" />
    </g>
    <g
       id="g1638"
       transform="matrix(0.62202093,0,0,0.6427569,-53.853397,-81.717743)">
      <g
         id="g1431"
         transform="translate(54.759,225.88087)">
        <rect
           style="fill:none;fill-opacity:0.996078;stroke:#000000;stroke-width:2.54;stroke-linecap:round;stroke-linejoin:round;stroke-dasharray:0.635, 0.635;stroke-opacity:0.955017;paint-order:stroke markers fill"
           id="rect1419"
           width="144.72021"
           height="120.27423"
           x="53.781158"
           y="79.204987"
           ry="0.84158397" />
        <rect
           style="fill:none;fill-opacity:0.996078;stroke:#000000;stroke-width:2.54;stroke-linecap:round;stroke-linejoin:round;stroke-dasharray:0.635, 0.635;stroke-opacity:0.955017;paint-order:stroke markers fill"
           id="rect1421"
           width="33.246536"
           height="14.667589"
           x="63.559551"
           y="116.36288"
           ry="0.84158397" />
        <rect
           style="fill:none;fill-opacity:0.996078;stroke:#000000;stroke-width:2.54;stroke-linecap:round;stroke-linejoin:round;stroke-dasharray:0.635, 0.635;stroke-opacity:0.955017;paint-order:stroke markers fill"
           id="rect1423"
           width="47.914124"
           height="18.578947"
           x="120.27423"
           y="114.4072"
           ry="0.84158397" />
        <rect
           style="fill:none;fill-opacity:0.996078;stroke:#000000;stroke-width:2.54;stroke-linecap:round;stroke-linejoin:round;stroke-dasharray:0.635, 0.635;stroke-opacity:0.955017;paint-order:stroke markers fill"
           id="rect1425"
           width="42.047089"
           height="14.667589"
           x="72.360107"
           y="149.60941"
           ry="0.84158397" />
        <rect
           style="fill:none;fill-opacity:0.996078;stroke:#000000;stroke-width:2.54;stroke-linecap:round;stroke-linejoin:round;stroke-dasharray:0.635, 0.635;stroke-opacity:0.955017;paint-order:stroke markers fill"
           id="rect1427"
           width="46.936287"
           height="15.645433"
           x="143.74239"
           y="163.29915"
           ry="0.84158397" />
        <rect
           style="fill:none;fill-opacity:0.996078;stroke:#000000;stroke-width:2.54;stroke-linecap:round;stroke-linejoin:round;stroke-dasharray:0.635, 0.635;stroke-opacity:0.955017;paint-order:stroke markers fill"
           id="rect1429"
           width="16.623268"
           height="19.556791"
           x="127.11912"
           y="178.94458"
           ry="0.84158397" />
      </g>
      <g
         id="g1627">
        <path
           style="fill:#ffffff;fill-opacity:0.996078;stroke:#000000;stroke-width:35.4794;stroke-linecap:round;stroke-linejoin:round;stroke-dasharray:8.86985, 8.86985;stroke-opacity:0.955017;paint-order:stroke markers fill"
           d="m 417.62207,1380.3703 v -219.8984 h 266.09548 266.09548 v 219.8984 219.8983 h -96.09004 -96.09003 v -31.414 -31.4141 h 84.26357 c 60.61063,0 85.50845,-1.2448 88.69849,-4.4349 5.92532,-5.9253 5.92532,-59.1202 0,-65.0455 -6.29915,-6.2992 -177.01108,-6.2992 -183.31022,0 -2.57979,2.5797 -4.43492,14.9473 -4.43492,29.5661 v 25.1313 h -26.97913 c -16.05607,0 -28.7747,1.7955 -31.41405,4.4349 -2.81355,2.8135 -4.43492,17.0005 -4.43492,38.8056 v 34.3706 H 548.82192 417.62207 Z m 224.70285,97.1988 c 5.88626,-5.8863 5.88626,-55.4636 0,-61.3498 -6.27825,-6.2783 -158.55312,-6.2783 -164.83137,0 -5.88626,5.8862 -5.88626,55.4635 0,61.3498 6.27825,6.2782 158.55312,6.2782 164.83137,0 z M 845.5923,1359.3044 c 6.01656,-6.0166 6.01656,-70.1163 0,-76.1329 -6.30281,-6.3028 -180.7032,-6.3028 -187.00599,0 -6.01658,6.0166 -6.01658,70.1163 0,76.1329 6.30279,6.3028 180.70318,6.3028 187.00599,0 z m -269.79125,-7.3915 c 2.61653,-2.6166 4.43492,-15.1938 4.43492,-30.6749 0,-15.4812 -1.81839,-28.0584 -4.43492,-30.6749 -6.22468,-6.2247 -125.34475,-6.2247 -131.56943,0 -5.88626,5.8862 -5.88626,55.4635 0,61.3498 6.22468,6.2246 125.34475,6.2246 131.56943,0 z"
           id="path1507"
           transform="scale(0.26458333)" />
      </g>
    </g>
    <g
       id="g15340"
       transform="matrix(0.56423165,0,0,0.56414648,-84.23824,-67.869356)">
      <g
         id="g1652"
         transform="translate(309.97505,84.094179)">
        <rect
           style="fill:none;fill-opacity:0.996078;stroke:#000000;stroke-width:2.54;stroke-linecap:round;stroke-linejoin:round;stroke-dasharray:0.635, 0.635;stroke-opacity:0.955017;paint-order:stroke markers fill"
           id="rect1640"
           width="144.72021"
           height="120.27423"
           x="53.781158"
           y="79.204987"
           ry="0.84158397" />
        <rect
           style="fill:none;fill-opacity:0.996078;stroke:#000000;stroke-width:2.54;stroke-linecap:round;stroke-linejoin:round;stroke-dasharray:0.635, 0.635;stroke-opacity:0.955017;paint-order:stroke markers fill"
           id="rect1642"
           width="33.246536"
           height="14.667589"
           x="63.559551"
           y="116.36288"
           ry="0.84158397" />
        <rect
           style="fill:none;fill-opacity:0.996078;stroke:#000000;stroke-width:2.54;stroke-linecap:round;stroke-linejoin:round;stroke-dasharray:0.635, 0.635;stroke-opacity:0.955017;paint-order:stroke markers fill"
           id="rect1644"
           width="47.914124"
           height="18.578947"
           x="120.27423"
           y="114.4072"
           ry="0.84158397" />
        <rect
           style="fill:none;fill-opacity:0.996078;stroke:#000000;stroke-width:2.54;stroke-linecap:round;stroke-linejoin:round;stroke-dasharray:0.635, 0.635;stroke-opacity:0.955017;paint-order:stroke markers fill"
           id="rect1646"
           width="42.047089"
           height="14.667589"
           x="72.360107"
           y="149.60941"
           ry="0.84158397" />
        <rect
           style="fill:none;fill-opacity:0.996078;stroke:#000000;stroke-width:2.54;stroke-linecap:round;stroke-linejoin:round;stroke-dasharray:0.635, 0.635;stroke-opacity:0.955017;paint-order:stroke markers fill"
           id="rect1648"
           width="46.936287"
           height="15.645433"
           x="143.74239"
           y="163.29915"
           ry="0.84158397" />
        <rect
           style="fill:none;fill-opacity:0.996078;stroke:#000000;stroke-width:2.54;stroke-linecap:round;stroke-linejoin:round;stroke-dasharray:0.635, 0.635;stroke-opacity:0.955017;paint-order:stroke markers fill"
           id="rect1650"
           width="16.623268"
           height="19.556791"
           x="127.11912"
           y="178.94458"
           ry="0.84158397" />
      </g>
      <path
         style="fill:#2ad3fe;fill-opacity:1;stroke:#000000;stroke-width:35.4794;stroke-linecap:round;stroke-linejoin:round;stroke-dasharray:8.86985, 8.86985;stroke-opacity:0.955017;paint-order:stroke markers fill"
         d="M 1382.2182,844.48357 V 624.58522 h 266.0955 266.0954 v 219.89835 219.89833 h -96.09 -96.09 v -31.414 -31.4141 h 84.2635 c 60.6107,0 85.5085,-1.2449 88.6985,-4.43491 5.9253,-5.92532 5.9253,-59.12026 0,-65.04556 -6.2991,-6.29914 -177.0111,-6.29914 -183.3102,0 -2.5798,2.57979 -4.4349,14.94733 -4.4349,29.56616 v 25.13124 h -26.9791 c -16.0561,0 -28.7747,1.79557 -31.4141,4.43493 -2.8135,2.81355 -4.4349,17.00054 -4.4349,38.80554 v 34.3707 H 1513.418 1382.2182 Z m 224.7028,97.19876 c 5.8863,-5.88626 5.8863,-55.46353 0,-61.34979 -6.2782,-6.27825 -158.5531,-6.27825 -164.8313,0 -5.8863,5.88626 -5.8863,55.46353 0,61.34979 6.2782,6.27825 158.5531,6.27825 164.8313,0 z m 203.2674,-118.26466 c 6.0166,-6.01658 6.0166,-70.11629 0,-76.13287 -6.3028,-6.3028 -180.7032,-6.3028 -187.006,0 -6.0166,6.01658 -6.0166,70.11629 0,76.13287 6.3028,6.3028 180.7032,6.3028 187.006,0 z m -269.7912,-7.39154 c 2.6165,-2.61653 4.4349,-15.19372 4.4349,-30.67489 0,-15.48118 -1.8184,-28.05836 -4.4349,-30.6749 -6.2247,-6.22468 -125.3448,-6.22468 -131.5695,0 -5.8862,5.88626 -5.8862,55.46353 0,61.34979 6.2247,6.22468 125.3448,6.22468 131.5695,0 z"
         id="path5263"
         transform="scale(0.26458333)" />
      <path
         style="fill:#5ed3bc;fill-opacity:0.996078;stroke:#000000;stroke-width:35.4794;stroke-linecap:round;stroke-linejoin:round;stroke-dasharray:8.86985, 8.86985;stroke-opacity:0.955017;paint-order:stroke markers fill"
         d="m 1647.3897,806.72663 c -9.616,-1.4567 -10.1634,-2.5951 -10.1634,-21.13731 v -19.59769 l 13.8592,-2.29078 c 17.9646,-2.96937 113.2352,-2.96937 131.1998,0 l 13.8592,2.29078 v 19.35961 19.35961 l -13.8592,2.29077 c -14.9357,2.46872 -118.173,2.25827 -134.8956,-0.275 z"
         id="path15013"
         transform="scale(0.26458333)" />
      <path
         style="fill:#5ed3bc;fill-opacity:0.996078;stroke:#000000;stroke-width:35.4794;stroke-linecap:round;stroke-linejoin:round;stroke-dasharray:8.86985, 8.86985;stroke-opacity:0.955017;paint-order:stroke markers fill"
         d="m 1427.4914,799.53457 c -6.8409,-2.76035 -5.8497,-25.85574 1.2262,-28.57101 7.6067,-2.91897 84.183,-2.91897 91.7897,0 7.9119,3.03609 7.9119,25.73927 0,28.77535 -6.9361,2.66162 -86.3457,2.48717 -93.0159,-0.20434 z"
         id="path15091"
         transform="scale(0.26458333)" />
      <path
         style="fill:#5ed3bc;fill-opacity:0.996078;stroke:#000000;stroke-width:35.4794;stroke-linecap:round;stroke-linejoin:round;stroke-dasharray:8.86985, 8.86985;stroke-opacity:0.955017;paint-order:stroke markers fill"
         d="m 1462.6012,924.90068 c -4.5508,-1.05547 -6.4676,-5.11637 -6.4676,-13.70226 0,-10.70989 1.4125,-12.48474 11.5493,-14.5121 14.9763,-2.99526 98.6686,-2.99526 113.6449,0 10.0899,2.01797 11.5493,3.82637 11.5493,14.31074 0,11.23277 -0.9905,12.15927 -15.4762,14.47562 -15.9083,2.54384 -103.2415,2.10869 -114.7997,-0.572 z"
         id="path15130"
         transform="scale(0.26458333)" />
      <path
         style="fill:#5ed3bc;fill-opacity:0.996078;stroke:#000000;stroke-width:35.4794;stroke-linecap:round;stroke-linejoin:round;stroke-dasharray:8.86985, 8.86985;stroke-opacity:0.955017;paint-order:stroke markers fill"
         d="m 1663.8588,1033.8918 1.0858,-26.7943 19.4028,-1.1171 19.4028,-1.1171 v 27.9114 27.9114 h -20.4886 -20.4887 z"
         id="path15169"
         transform="scale(0.26458333)" />
      <path
         style="fill:#5ed3bc;fill-opacity:0.996078;stroke:#000000;stroke-width:35.4794;stroke-linecap:round;stroke-linejoin:round;stroke-dasharray:8.86985, 8.86985;stroke-opacity:0.955017;paint-order:stroke markers fill"
         d="m 1725.9248,966.90596 c 0,-15.15266 0.726,-16.31418 11.5493,-18.47885 14.9964,-2.99927 117.1275,-2.99927 132.1238,0 10.4769,2.09537 11.5493,3.59967 11.5493,16.19993 0,11.28038 -1.5623,14.30875 -8.3155,16.11853 -4.5735,1.22565 -39.4985,2.25117 -77.6112,2.27892 l -69.2957,0.0505 z"
         id="path15208"
         transform="scale(0.26458333)" />
    </g>
    <g
       id="g16045"
       transform="matrix(0.82907632,0,0,0.6571738,-129.18833,-37.799875)">
      <g
         id="g15434"
         transform="translate(153.52077,299.21882)">
        <rect
           style="fill:none;fill-opacity:0.996078;stroke:#000000;stroke-width:2.54;stroke-linecap:round;stroke-linejoin:round;stroke-dasharray:0.635, 0.635;stroke-opacity:0.955017;paint-order:stroke markers fill"
           id="rect15422"
           width="144.72021"
           height="120.27423"
           x="53.781158"
           y="79.204987"
           ry="0.84158397" />
        <rect
           style="fill:none;fill-opacity:0.996078;stroke:#000000;stroke-width:2.54;stroke-linecap:round;stroke-linejoin:round;stroke-dasharray:0.635, 0.635;stroke-opacity:0.955017;paint-order:stroke markers fill"
           id="rect15424"
           width="33.246536"
           height="14.667589"
           x="63.559551"
           y="116.36288"
           ry="0.84158397" />
        <rect
           style="fill:none;fill-opacity:0.996078;stroke:#000000;stroke-width:2.54;stroke-linecap:round;stroke-linejoin:round;stroke-dasharray:0.635, 0.635;stroke-opacity:0.955017;paint-order:stroke markers fill"
           id="rect15426"
           width="47.914124"
           height="18.578947"
           x="120.27423"
           y="114.4072"
           ry="0.84158397" />
        <rect
           style="fill:none;fill-opacity:0.996078;stroke:#000000;stroke-width:2.54;stroke-linecap:round;stroke-linejoin:round;stroke-dasharray:0.635, 0.635;stroke-opacity:0.955017;paint-order:stroke markers fill"
           id="rect15428"
           width="42.047089"
           height="14.667589"
           x="72.360107"
           y="149.60941"
           ry="0.84158397" />
        <rect
           style="fill:none;fill-opacity:0.996078;stroke:#000000;stroke-width:2.54;stroke-linecap:round;stroke-linejoin:round;stroke-dasharray:0.635, 0.635;stroke-opacity:0.955017;paint-order:stroke markers fill"
           id="rect15430"
           width="46.936287"
           height="15.645433"
           x="143.74239"
           y="163.29915"
           ry="0.84158397" />
        <rect
           style="fill:none;fill-opacity:0.996078;stroke:#000000;stroke-width:2.54;stroke-linecap:round;stroke-linejoin:round;stroke-dasharray:0.635, 0.635;stroke-opacity:0.955017;paint-order:stroke markers fill"
           id="rect15432"
           width="16.623268"
           height="19.556791"
           x="127.11912"
           y="178.94458"
           ry="0.84158397" />
      </g>
      <path
         style="fill:#000000;fill-opacity:0.996078;stroke:#000000;stroke-width:35.4794;stroke-linecap:round;stroke-linejoin:round;stroke-dasharray:8.86985, 8.86985;stroke-opacity:0.955017;paint-order:stroke markers fill"
         d="m 827.8526,1598.4208 v -20.3268 h 55.43656 55.43655 v 20.3268 20.3267 H 883.28916 827.8526 Z"
         id="path15528"
         transform="scale(0.26458333)" />
      <path
         style="fill:#000000;fill-opacity:0.996078;stroke:#000000;stroke-width:35.4794;stroke-linecap:round;stroke-linejoin:round;stroke-dasharray:8.86985, 8.86985;stroke-opacity:0.955017;paint-order:stroke markers fill"
         d="m 1042.2073,1598.4208 v -27.7183 h 83.1548 83.1549 v 27.7183 27.7182 h -83.1549 -83.1548 z"
         id="path15567"
         transform="scale(0.26458333)" />
      <path
         style="fill:#000000;fill-opacity:0.996078;stroke:#000000;stroke-width:35.4794;stroke-linecap:round;stroke-linejoin:round;stroke-dasharray:8.86985, 8.86985;stroke-opacity:0.955017;paint-order:stroke markers fill"
         d="m 1130.9058,1777.6656 v -22.1746 h 81.3069 81.307 v 22.1746 22.1746 h -81.307 -81.3069 z"
         id="path15606"
         transform="scale(0.26458333)" />
      <path
         style="fill:#000000;fill-opacity:0.996078;stroke:#000000;stroke-width:35.4794;stroke-linecap:round;stroke-linejoin:round;stroke-dasharray:8.86985, 8.86985;stroke-opacity:0.955017;paint-order:stroke markers fill"
         d="m 1068.0777,1844.1895 v -29.5662 h 24.0225 24.0225 v 29.5662 29.5662 h -24.0225 -24.0225 z"
         id="path15645"
         transform="scale(0.26458333)" />
      <path
         style="fill:#000000;fill-opacity:0.996078;stroke:#000000;stroke-width:35.4794;stroke-linecap:round;stroke-linejoin:round;stroke-dasharray:8.86985, 8.86985;stroke-opacity:0.955017;paint-order:stroke markers fill"
         d="m 861.11453,1724.077 v -20.3268 h 72.06753 72.06754 v 20.3268 20.3267 h -72.06754 -72.06753 z"
         id="path15684"
         transform="scale(0.26458333)" />
    </g>
  </g>
</svg>
