<?xml version="1.0" encoding="UTF-8" standalone="no"?>
<!-- Created with Inkscape (http://www.inkscape.org/) -->

<svg
   width="210mm"
   height="297mm"
   viewBox="0 0 210 297"
   version="1.1"
   id="svg5"
   inkscape:version="1.1 (c68e22c387, 2021-05-23)"
   sodipodi:docname="arrow  svg.svg"
   xmlns:inkscape="http://www.inkscape.org/namespaces/inkscape"
   xmlns:sodipodi="http://sodipodi.sourceforge.net/DTD/sodipodi-0.dtd"
   xmlns="http://www.w3.org/2000/svg"
   xmlns:svg="http://www.w3.org/2000/svg">
  <sodipodi:namedview
     id="namedview7"
     pagecolor="#ffffff"
     bordercolor="#666666"
     borderopacity="1.0"
     inkscape:pageshadow="2"
     inkscape:pageopacity="0.0"
     inkscape:pagecheckerboard="0"
     inkscape:document-units="mm"
     showgrid="false"
     inkscape:zoom="0.43942712"
     inkscape:cx="393.69441"
     inkscape:cy="517.71953"
     inkscape:window-width="1680"
     inkscape:window-height="956"
     inkscape:window-x="-11"
     inkscape:window-y="-11"
     inkscape:window-maximized="1"
     inkscape:current-layer="layer1" />
  <defs
     id="defs2" />
  <g
     inkscape:label="Layer 1"
     inkscape:groupmode="layer"
     id="layer1">
    <path
       style="fill:#000000;stroke-width:0.123696"
       d="m 16.49569,52.763685 c -0.0424,-0.04365 -0.312117,-0.09754 -0.599376,-0.119768 -0.287258,-0.02222 -3.896072,-1.256862 -8.0195835,-2.74365 -8.71123357,-3.14096 -7.85222893,-2.820869 -7.77727582,-2.898038 0.03283168,-0.0338 0.26604045,0.02733 0.51825369,0.135818 0.25221327,0.108497 0.48849273,0.166459 0.52506503,0.128806 0.036574,-0.03765 -0.1339328,-0.154679 -0.37889863,-0.260059 -0.24496588,-0.105379 -0.44539292,-0.240731 -0.44539292,-0.300784 0,-0.06005 -0.10245767,-0.136771 -0.22768423,-0.170486 C -0.05640897,46.495894 -0.15883334,46.324356 -0.198979,46.05022 -0.2570469,45.653702 -0.1766604,45.532674 1.0413171,44.182857 1.7576296,43.389006 10.094418,34.098121 19.567513,23.536443 36.033887,5.1778683 38.691858,2.2624819 38.963074,2.2624819 c 0.271216,0 2.929187,2.9153864 19.395562,21.2739611 9.473092,10.561678 17.80989,19.852563 18.526201,20.646414 1.217975,1.349817 1.298362,1.470845 1.240294,1.867363 -0.04012,0.274136 -0.142569,0.44567 -0.289777,0.485304 -0.125222,0.0337 -0.227681,0.110434 -0.227681,0.170486 0,0.06005 -0.200431,0.195405 -0.445396,0.300784 -0.244965,0.10538 -0.415466,0.222406 -0.378892,0.260059 0.03655,0.03765 0.272849,-0.02031 0.525053,-0.128806 0.25222,-0.108498 0.485435,-0.169612 0.518258,-0.135818 0.07492,0.07713 0.936183,-0.243959 -7.777272,2.899496 -4.123519,1.487583 -7.689302,2.720619 -7.923974,2.740064 -0.234672,0.01947 -0.564825,0.07552 -0.73367,0.124621 -0.287413,0.08356 -0.699393,-0.405396 -6.460144,-7.667299 C 51.547401,40.833002 46.593148,34.589177 43.92218,31.223937 41.251216,27.858695 39.019616,25.10532 38.963074,25.10532 c -0.05655,0 -2.288142,2.753375 -4.959105,6.118617 -2.670968,3.36524 -7.62297,9.606229 -11.004452,13.868868 -3.381481,4.262635 -6.21083,7.75025 -6.287442,7.75025 -0.07661,0 -0.173985,-0.03572 -0.216385,-0.07937 z M 15.374025,52.34101 c -0.335134,-0.148266 -0.52761,-0.148266 -0.304768,0 0.100574,0.06689 0.265149,0.11856 0.365722,0.114768 0.120573,-0.0047 0.09981,-0.04365 -0.06095,-0.114768 z m 47.482868,0 c 0.222841,-0.148266 0.03038,-0.148266 -0.304768,0 -0.160764,0.07113 -0.181526,0.110222 -0.06095,0.114768 0.100573,0.0039 0.265148,-0.04781 0.365721,-0.114768 z M 13.240649,51.599311 c -0.100573,-0.05857 -0.320006,-0.14102 -0.487629,-0.183201 -0.254037,-0.0639 -0.24389,-0.04648 0.06095,0.104672 0.39068,0.193736 0.732457,0.256643 0.426675,0.07853 z m 52.05439,-0.158048 c 0.127085,-0.08084 0.0899,-0.09072 -0.121908,-0.03242 -0.167623,0.04616 -0.387055,0.136279 -0.487629,0.200253 -0.127086,0.08084 -0.0899,0.09072 0.121907,0.03242 0.167622,-0.04616 0.387057,-0.136278 0.48763,-0.200253 z M 27.654958,38.077048 C 33.5228,30.680567 38.365252,24.552537 38.415955,24.459205 c 0.312356,-0.57497 -1.727095,1.959316 -10.973817,13.636413 -5.684967,7.179177 -10.42424,13.160136 -10.531718,13.291021 -0.107479,0.130893 -0.134406,0.215616 -0.05984,0.188272 0.07457,-0.02732 4.936537,-6.10138 10.804378,-13.497863 z m 33.34919,13.29126 C 60.903042,51.247503 56.168981,45.274795 50.484014,38.095618 41.231217,26.410857 39.000168,23.642045 39.581701,24.565424 c 0.378402,0.600848 21.39281,27.013413 21.495956,27.017817 0.06068,0.0024 0.0276,-0.09413 -0.07351,-0.214933 z M 19.8432,47.132344 c 1.63877,-2.070916 6.423244,-8.105303 10.632159,-13.409746 4.208919,-5.304444 7.634767,-9.661438 7.612997,-9.682206 -0.03868,-0.03691 -21.024262,26.35811 -21.484585,27.022693 l -0.233142,0.336602 0.246493,-0.251023 c 0.13557,-0.13806 1.587305,-1.945403 3.226078,-4.01632 z m 41.469546,3.89937 C 60.638887,50.111494 39.870933,24.008777 39.837793,24.040392 c -0.02179,0.02076 3.381961,4.349522 7.563854,9.619451 4.181889,5.269928 9.048743,11.403151 10.815231,13.629389 1.766484,2.226233 3.235999,4.047697 3.265583,4.047697 0.02956,0 -0.04679,-0.137346 -0.169715,-0.305215 z M 27.11956,36.863548 C 33.0213,29.420916 38.10044,23.104526 38.406533,22.827124 l 0.556541,-0.504363 0.556637,0.504452 c 0.306145,0.277446 5.46371,6.689322 11.461243,14.24861 l 10.904607,13.744153 0.638051,-0.23021 c 0.350929,-0.126614 3.403839,-1.227087 6.784249,-2.445484 3.38041,-1.218402 6.21704,-2.256088 6.303619,-2.305972 C 75.718482,45.776652 69.88586,39.190036 57.396457,25.268592 47.291623,14.005128 38.996598,4.7895708 38.963074,4.7895708 c -0.1039,0 -36.8059516,40.9515682 -36.7519129,41.0072072 0.028019,0.02886 3.1382724,1.167951 6.911673,2.531336 6.3667769,2.300418 6.8753269,2.464079 7.0635079,2.273192 0.11153,-0.113135 5.031479,-6.295128 10.933218,-13.737758 z M 10.436782,50.58387 c -0.100573,-0.06689 -0.237719,-0.12166 -0.304767,-0.12166 -0.06705,0 -0.03962,0.05472 0.06095,0.12166 0.100574,0.06689 0.23772,0.121668 0.304769,0.121668 0.06705,0 0.03962,-0.05472 -0.06095,-0.121668 z m 57.296403,0 c 0.100573,-0.06689 0.127997,-0.12166 0.06097,-0.12166 -0.06708,0 -0.204197,0.05472 -0.304769,0.12166 -0.100573,0.06689 -0.128005,0.121668 -0.06097,0.121668 0.06708,0 0.204197,-0.05472 0.304769,-0.121668 z M 5.9262149,48.963605 C 5.8256411,48.905024 5.606208,48.82258 5.4385856,48.7804 c -0.254036,-0.06393 -0.2438899,-0.0465 0.060954,0.104668 0.3906795,0.193735 0.7324564,0.256644 0.4266754,0.07854 z M 72.60947,48.805552 c 0.127085,-0.08084 0.08991,-0.09072 -0.121907,-0.03242 -0.167624,0.04615 -0.387051,0.136277 -0.487623,0.200253 -0.127093,0.08084 -0.08991,0.09072 0.121899,0.03242 0.167623,-0.04615 0.387059,-0.136278 0.487631,-0.200253 z M 3.4880699,48.085035 C 3.387496,48.026454 3.1680629,47.944009 3.0004406,47.90183 c -0.254036,-0.06393 -0.24389,-0.0465 0.060954,0.104667 0.3906795,0.193735 0.7324564,0.256644 0.4266754,0.07854 z M 75.047617,47.926981 c 0.127085,-0.08084 0.0899,-0.09072 -0.121908,-0.03242 -0.167623,0.04615 -0.387059,0.136278 -0.487631,0.200253 -0.127085,0.08084 -0.0899,0.09072 0.121908,0.03242 0.167623,-0.04615 0.387058,-0.136278 0.487631,-0.200253 z M 0.38587043,45.950716 c -0.037898,-0.06313 6.34e-6,-0.140121 0.0842357,-0.171084 0.0842286,-0.03093 0.12080646,-0.09261 0.0812832,-0.136998 -0.0395233,-0.04437 -0.17145573,0.03261 -0.29318506,0.171084 -0.20465924,0.232826 -0.20559083,0.25179 -0.0123763,0.25179 0.11492276,0 0.17794118,-0.05166 0.14004246,-0.114792 z M 77.667945,45.813718 c -0.121725,-0.138486 -0.253662,-0.215473 -0.293186,-0.171084 -0.03948,0.04437 -0.0032,0.106041 0.08128,0.136998 0.08423,0.03098 0.122137,0.107948 0.08424,0.171084 -0.0379,0.06314 0.02513,0.114792 0.140048,0.114792 0.193209,0 0.192281,-0.01897 -0.01237,-0.25179 z M 5.4530582,40.977433 C 7.6241898,38.55866 15.711198,29.550171 23.424187,20.95857 31.137171,12.366969 37.689531,5.0550813 37.984979,4.7099283 L 38.522163,4.0823781 37.90346,4.7099283 C 36.941732,5.6854106 1.2538937,45.473249 1.3872699,45.421281 1.4523228,45.395932 3.2819272,43.396205 5.4530582,40.977433 Z M 58.636067,25.387718 C 48.738994,14.360084 40.360952,5.0550813 40.018196,4.7099283 39.064962,3.7500356 39.235662,3.9415316 53.728517,20.090589 c 7.467894,8.3213 15.635176,17.426259 18.149515,20.233238 2.514331,2.806979 4.612286,5.105968 4.662116,5.108863 0.04979,0.003 -8.007007,-9.017341 -17.904081,-20.044972 z M 19.827082,24.22675 C 37.818907,4.1657269 38.836424,3.0250511 37.908384,3.9568677 37.433829,4.4333571 1.7316426,44.206269 1.0671813,44.998673 -0.34048345,46.67737 4.3478277,41.486233 19.827082,24.22675 Z M 76.854447,44.967296 C 76.68328,44.777458 68.4375,35.585415 58.530501,24.540525 48.623498,13.495636 40.296155,4.2329899 40.02529,3.9568677 L 39.532814,3.4548279 39.948911,3.969745 c 0.657406,0.8135328 37.077052,41.342703 37.150692,41.342703 0.03631,0 -0.07397,-0.155322 -0.245156,-0.345152 z M 3.4880699,43.842947 c 0,-0.09424 -0.1094521,0.0054 -0.614631,0.559553 L 2.3299513,44.998673 2.9090106,44.43912 c 0.3184823,-0.307752 0.5790593,-0.576032 0.5790593,-0.596173 z m 71.5595471,0.528176 c -0.296112,-0.310638 -0.565821,-0.564796 -0.599351,-0.564796 -0.03354,0 0.181332,0.254158 0.477443,0.564796 0.296111,0.310637 0.565821,0.564795 0.599351,0.564795 0.03354,0 -0.181332,-0.254158 -0.477443,-0.564795 z M 4.9509571,42.211316 c 0,-0.09424 -0.1094521,0.0054 -0.6146312,0.559552 l -0.5434883,0.596173 0.5790593,-0.559552 c 0.3184833,-0.307752 0.5790602,-0.576032 0.5790602,-0.596173 z m 68.6337749,0.528175 c -0.296119,-0.310638 -0.565821,-0.564796 -0.599351,-0.564796 -0.03354,0 0.181324,0.254158 0.477443,0.564796 0.296112,0.310637 0.565821,0.564795 0.599343,0.564795 0.03354,0 -0.181324,-0.254158 -0.477435,-0.564795 z M 6.4138434,40.579684 c 0,-0.09424 -0.1094521,0.0054 -0.614631,0.559553 L 5.2557248,41.73541 5.8347841,41.175857 C 6.1532673,40.868106 6.4138434,40.599831 6.4138434,40.579684 Z M 72.121839,41.10786 c -0.296111,-0.310638 -0.565821,-0.564795 -0.599342,-0.564795 -0.03354,0 0.181323,0.254157 0.477443,0.564795 0.296111,0.310637 0.565821,0.564795 0.599342,0.564795 0.03354,0 -0.181323,-0.254158 -0.477443,-0.564795 z M 7.9986374,38.822543 c 0,-0.09424 -0.1094522,0.0054 -0.6146302,0.559553 l -0.5434883,0.596173 0.5790592,-0.559553 c 0.3184832,-0.307752 0.5790593,-0.576027 0.5790593,-0.596173 z m 62.5384096,0.528176 c -0.296112,-0.310638 -0.565821,-0.564796 -0.599343,-0.564796 -0.03354,0 0.181324,0.254158 0.477435,0.564796 0.29612,0.310637 0.565821,0.564795 0.599351,0.564795 0.03354,0 -0.181324,-0.254158 -0.477443,-0.564795 z M 9.4615244,37.190912 c 0,-0.09424 -0.1094521,0.0054 -0.614631,0.559552 l -0.5434875,0.596173 0.5790593,-0.559552 c 0.3184823,-0.307752 0.5790592,-0.576027 0.5790592,-0.596173 z m 59.6126376,0.528175 c -0.296111,-0.310638 -0.565821,-0.564796 -0.59935,-0.564796 -0.03354,0 0.181331,0.254158 0.477442,0.564796 0.296112,0.310637 0.565822,0.564795 0.599351,0.564795 0.03354,0 -0.181331,-0.254158 -0.477443,-0.564795 z m -58.14975,-2.159806 c 0,-0.09424 -0.109453,0.0054 -0.614632,0.559552 l -0.5434878,0.596173 0.5790598,-0.559552 c 0.318483,-0.307752 0.57906,-0.576027 0.57906,-0.596173 z m 56.686866,0.528175 c -0.29612,-0.310637 -0.565822,-0.564795 -0.599351,-0.564795 -0.03354,0 0.181323,0.254158 0.477443,0.564795 0.296111,0.310637 0.565821,0.564796 0.599342,0.564796 0.03354,0 -0.181323,-0.254159 -0.477434,-0.564796 z m -55.22398,-2.159807 c 0,-0.09424 -0.109452,0.0054 -0.61463,0.559553 l -0.543489,0.596173 0.57906,-0.559553 c 0.318483,-0.307751 0.579059,-0.576027 0.579059,-0.596173 z m 53.761087,0.528175 c -0.296112,-0.310637 -0.565821,-0.564795 -0.599343,-0.564795 -0.03354,0 0.181324,0.254158 0.477443,0.564795 0.296112,0.310638 0.565821,0.564796 0.599343,0.564796 0.03354,0 -0.181324,-0.254158 -0.477443,-0.564796 z M 13.423509,32.761439 c 0.330205,-0.345154 0.572943,-0.627554 0.539418,-0.627554 -0.03352,0 -0.331121,0.2824 -0.661324,0.627554 -0.330204,0.345152 -0.572942,0.62755 -0.539418,0.62755 0.03352,0 0.331121,-0.282398 0.661324,-0.62755 z m 51.749622,0.591454 c 0,-0.01986 -0.288004,-0.31637 -0.640013,-0.658929 l -0.640013,-0.622834 0.604953,0.658931 c 0.562132,0.612287 0.675073,0.716484 0.675073,0.622832 z M 15.434979,30.538874 c 0,-0.09424 -0.109452,0.0054 -0.614631,0.559553 L 14.27686,31.6946 14.85592,31.135047 c 0.318482,-0.307752 0.579059,-0.576026 0.579059,-0.596173 z m 47.665729,0.528176 c -0.296115,-0.310638 -0.565823,-0.564796 -0.599347,-0.564796 -0.03355,0 0.181325,0.254158 0.47744,0.564796 0.296114,0.310637 0.565822,0.564795 0.599346,0.564795 0.03355,0 -0.181325,-0.254158 -0.477439,-0.564795 z M 16.897866,28.907243 c 0,-0.09424 -0.109452,0.0054 -0.614631,0.559553 l -0.543488,0.596173 0.57906,-0.559553 c 0.318482,-0.307751 0.579059,-0.576027 0.579059,-0.596173 z m 44.739955,0.528175 c -0.296115,-0.310637 -0.565822,-0.564795 -0.599347,-0.564795 -0.03355,0 0.181325,0.254158 0.47744,0.564795 0.296114,0.310638 0.565822,0.564796 0.599346,0.564796 0.03355,0 -0.181325,-0.254158 -0.477439,-0.564796 z M 18.360753,27.275612 c 0,-0.09424 -0.109452,0.0054 -0.614631,0.559553 l -0.543488,0.596173 0.579059,-0.559553 c 0.318483,-0.307752 0.57906,-0.576027 0.57906,-0.596173 z m 41.814181,0.528175 c -0.296114,-0.310637 -0.565822,-0.564795 -0.599347,-0.564795 -0.03354,0 0.181325,0.254158 0.47744,0.564795 0.296114,0.310638 0.565822,0.564796 0.599347,0.564796 0.03354,0 -0.181325,-0.254158 -0.47744,-0.564796 z m -40.77797,-1.694386 c 0.330204,-0.345153 0.572942,-0.627551 0.539418,-0.627551 -0.03352,0 -0.331121,0.282398 -0.661325,0.627551 -0.330204,0.345152 -0.572942,0.62755 -0.539417,0.62755 0.03352,0 0.33112,-0.282398 0.661324,-0.62755 z m 39.802712,0.591454 c 0,-0.01986 -0.288008,-0.31637 -0.640013,-0.658928 l -0.640013,-0.622831 0.604953,0.658927 c 0.562136,0.612287 0.675073,0.716485 0.675073,0.622832 z M 21.408433,23.886839 c 0,-0.09424 -0.109452,0.0054 -0.61463,0.559553 l -0.543488,0.596173 0.579059,-0.559553 c 0.318483,-0.307751 0.579059,-0.576027 0.579059,-0.596173 z m 35.71882,0.528175 c -0.296114,-0.310637 -0.565822,-0.564795 -0.599347,-0.564795 -0.0335,0 0.181325,0.254158 0.47744,0.564795 0.296114,0.310638 0.565822,0.564796 0.599347,0.564796 0.03355,0 -0.181325,-0.254158 -0.47744,-0.564796 z M 22.87132,22.255208 c 0,-0.09424 -0.109452,0.0054 -0.614631,0.559553 l -0.543487,0.596173 0.579059,-0.559553 c 0.318483,-0.307752 0.579059,-0.576027 0.579059,-0.596173 z m 32.793046,0.528175 c -0.296114,-0.310637 -0.565822,-0.564795 -0.599346,-0.564795 -0.03355,0 0.181325,0.254158 0.477439,0.564795 0.296115,0.310638 0.565822,0.564796 0.599347,0.564796 0.03354,0 -0.181325,-0.254158 -0.47744,-0.564796 z M 24.334205,20.623577 c 0,-0.09424 -0.109448,0.0054 -0.614628,0.559552 l -0.54349,0.596173 0.579059,-0.559552 c 0.318485,-0.307752 0.579059,-0.576028 0.579059,-0.596173 z m 29.867274,0.528175 c -0.296115,-0.310638 -0.565822,-0.564796 -0.599346,-0.564796 -0.03355,0 0.181325,0.254158 0.477439,0.564796 0.296115,0.310637 0.565823,0.564795 0.599347,0.564795 0.03354,0 -0.181325,-0.254158 -0.47744,-0.564795 z M 25.370417,19.457366 c 0.330205,-0.345153 0.572944,-0.627551 0.53942,-0.627551 -0.03355,0 -0.331123,0.282398 -0.661328,0.627551 -0.3302,0.345153 -0.57294,0.62755 -0.539415,0.62755 0.03355,0 0.331121,-0.282397 0.661323,-0.62755 z m 27.855804,0.591454 c 0,-0.01986 -0.288003,-0.31637 -0.640013,-0.658929 l -0.640012,-0.622831 0.604953,0.658928 c 0.562136,0.612287 0.675072,0.716485 0.675072,0.622832 z M 27.381886,17.234805 c 0,-0.09424 -0.109448,0.0054 -0.614628,0.559552 l -0.543491,0.596173 0.579059,-0.559553 c 0.318486,-0.307752 0.57906,-0.576027 0.57906,-0.596172 z m 23.771913,0.528174 c -0.296115,-0.310637 -0.565823,-0.564795 -0.599348,-0.564795 -0.03355,0 0.181325,0.254158 0.47744,0.564795 0.296115,0.310638 0.565823,0.564796 0.599347,0.564796 0.0335,0 -0.181325,-0.254158 -0.477439,-0.564796 z M 28.844773,15.603173 c 0,-0.09424 -0.109453,0.0054 -0.614629,0.559553 l -0.54349,0.596173 0.579059,-0.559553 c 0.318486,-0.307752 0.57906,-0.576027 0.57906,-0.596173 z m 20.846139,0.528175 c -0.296115,-0.310638 -0.565823,-0.564795 -0.599347,-0.564795 -0.0335,0 0.181325,0.254157 0.47744,0.564795 0.296114,0.310638 0.565822,0.564795 0.599346,0.564795 0.03355,0 -0.181325,-0.254157 -0.477439,-0.564795 z M 30.30766,13.971542 c 0,-0.09424 -0.109453,0.0054 -0.614629,0.559552 l -0.54349,0.596173 0.579059,-0.559552 c 0.318485,-0.307752 0.57906,-0.576027 0.57906,-0.596173 z m 17.920365,0.528175 c -0.296115,-0.310637 -0.565822,-0.564796 -0.599347,-0.564796 -0.03355,0 0.181325,0.254159 0.47744,0.564796 0.296114,0.310637 0.565822,0.564795 0.599346,0.564795 0.03355,0 -0.181325,-0.254158 -0.477439,-0.564795 z M 31.343871,12.80533 c 0.330206,-0.345152 0.57294,-0.62755 0.539416,-0.62755 -0.03355,0 -0.331118,0.282398 -0.661323,0.62755 -0.330206,0.345153 -0.572941,0.627551 -0.539416,0.627551 0.03355,0 0.331118,-0.282398 0.661323,-0.627551 z m 15.908896,0.591454 c 0,-0.01986 -0.288008,-0.316369 -0.640013,-0.658928 l -0.640013,-0.622831 0.604952,0.658928 c 0.562137,0.612286 0.675074,0.716485 0.675074,0.622831 z M 33.355341,10.582769 c 0,-0.09424 -0.109453,0.0054 -0.614629,0.559553 l -0.543491,0.596173 0.57906,-0.559553 c 0.31848,-0.307752 0.57906,-0.576027 0.57906,-0.596173 z m 11.825003,0.528176 c -0.296115,-0.310639 -0.565822,-0.564796 -0.599347,-0.564796 -0.03355,0 0.181325,0.254157 0.47744,0.564796 0.296114,0.310637 0.565822,0.564795 0.599346,0.564795 0.03354,0 -0.181325,-0.254158 -0.477439,-0.564795 z M 34.818227,8.9511379 c 0,-0.094242 -0.109452,0.00542 -0.614628,0.5595524 l -0.543491,0.5961727 0.57906,-0.5595521 c 0.31848,-0.3077522 0.579059,-0.5760269 0.579059,-0.596173 z m 8.89923,0.5281752 C 43.421343,9.1686759 43.151634,8.9145173 43.11811,8.9145173 c -0.03355,0 0.181325,0.2541586 0.47744,0.5647958 0.296114,0.3106372 0.565822,0.5647949 0.599347,0.5647949 0.0335,0 -0.181325,-0.2541577 -0.47744,-0.5647949 z M 36.281114,7.3195064 c 0,-0.094241 -0.109452,0.00542 -0.614629,0.5595531 L 35.122996,8.4752326 35.702055,7.9156794 C 36.02054,7.607928 36.281114,7.3396525 36.281114,7.3195064 Z M 42.25457,7.8476816 C 41.958456,7.5370443 41.688748,7.2828865 41.655224,7.2828865 c -0.03355,0 0.181325,0.2541578 0.477439,0.5647951 0.296115,0.3106372 0.565822,0.5647958 0.599347,0.5647958 0.03354,0 -0.181325,-0.2541586 -0.47744,-0.5647958 z M 37.317326,6.1532942 c 0.330205,-0.3451523 0.57294,-0.6275502 0.539415,-0.6275502 -0.0335,0 -0.331117,0.2823979 -0.661322,0.6275502 -0.330206,0.345153 -0.57294,0.6275509 -0.539416,0.6275509 0.0335,0 0.331117,-0.2823979 0.661323,-0.6275509 z m 3.961986,0.5914548 c 0,-0.019854 -0.288008,-0.3163697 -0.640013,-0.6589274 L 39.999286,5.4629888 40.604239,6.121917 c 0.562137,0.6122871 0.675073,0.7164854 0.675073,0.622832 z M 38.536398,4.7726834 c 0.121355,-0.138061 0.193218,-0.2510199 0.159694,-0.2510199 -0.03355,0 -0.160246,0.1129589 -0.281602,0.2510199 -0.121355,0.1380611 -0.193217,0.25102 -0.159693,0.25102 0.0335,0 0.160246,-0.1129589 0.281601,-0.25102 z m 1.15812,0.2077185 c 0,-0.023819 -0.123429,-0.150896 -0.274291,-0.2823979 l -0.274293,-0.2390957 0.232235,0.2823972 c 0.218238,0.2653841 0.316349,0.3395352 0.316349,0.2390964 z M 39.084981,3.5175831 c 0,-0.06903 -0.05486,-0.1255104 -0.121907,-0.1255104 -0.06705,0 -0.121908,0.056477 -0.121908,0.1255104 0,0.06903 0.05486,0.1255095 0.121908,0.1255095 0.06705,0 0.121907,-0.056477 0.121907,-0.1255095 z"
       id="path1108" />
    <path
       style="fill:#000000;stroke-width:0.123696"
       d="m 155.24794,65.072891 c 0.0436,0.0424 0.0975,0.31212 0.11977,0.59938 0.0222,0.28726 1.25686,3.89607 2.74365,8.019584 3.14096,8.711234 2.82087,7.852229 2.89803,7.777276 0.0338,-0.03283 -0.0273,-0.26604 -0.13581,-0.518253 -0.1085,-0.252214 -0.16646,-0.488493 -0.12881,-0.525065 0.0377,-0.03657 0.15468,0.133932 0.26006,0.378898 0.10538,0.244966 0.24073,0.445393 0.30078,0.445393 0.06,0 0.13677,0.102458 0.17049,0.227684 0.0396,0.147207 0.21117,0.249631 0.4853,0.289777 0.39652,0.05807 0.51755,-0.02232 1.86737,-1.240296 0.79385,-0.716313 10.08473,-9.053098 20.64641,-18.526198 18.35857,-16.466368 21.27396,-19.124338 21.27396,-19.395558 0,-0.27122 -2.91539,-2.92919 -21.27396,-19.39556 -10.56168,-9.47309 -19.85256,-17.8098893 -20.64641,-18.5261993 -1.34982,-1.21798 -1.47085,-1.29836 -1.86737,-1.2403 -0.27413,0.0401 -0.44567,0.14257 -0.4853,0.28978 -0.0337,0.12522 -0.11043,0.22768 -0.17049,0.22768 -0.06,0 -0.1954,0.20043 -0.30078,0.4454 -0.10538,0.24496 -0.22241,0.41546 -0.26006,0.37889 -0.0376,-0.0366 0.0203,-0.27285 0.12881,-0.52505 0.10849,-0.25222 0.16961,-0.48544 0.13581,-0.51826 -0.0771,-0.0749 0.24396,-0.93618 -2.89949,7.7772693 -1.48758,4.12352 -2.72062,7.6893 -2.74007,7.92397 -0.0195,0.23468 -0.0755,0.56483 -0.12462,0.73367 -0.0836,0.28742 0.4054,0.6994 7.6673,6.46015 4.26611,3.38423 10.50994,8.33849 13.87517,11.00945 3.36525,2.67097 6.11862,4.90257 6.11862,4.95911 0,0.0565 -2.75337,2.28814 -6.11862,4.95911 -3.36523,2.670958 -9.60622,7.622968 -13.86886,11.004448 -4.26264,3.38148 -7.75025,6.21083 -7.75025,6.28744 0,0.0766 0.0357,0.17398 0.0794,0.21638 z m 0.42267,1.12167 c 0.14827,0.33513 0.14827,0.52761 0,0.30477 -0.0669,-0.10058 -0.11856,-0.26515 -0.11476,-0.36572 0.005,-0.12058 0.0437,-0.0998 0.11476,0.061 z m 0,-47.482868 c 0.14827,-0.22284 0.14827,-0.0304 0,0.30477 -0.0711,0.16076 -0.11022,0.18153 -0.11476,0.0609 -0.004,-0.10057 0.0478,-0.26515 0.11476,-0.36572 z m 0.7417,49.616248 c 0.0586,0.10057 0.14102,0.32 0.1832,0.48762 0.0639,0.25404 0.0465,0.24389 -0.10467,-0.0609 -0.19373,-0.39068 -0.25664,-0.73245 -0.0785,-0.42667 z m 0.15805,-52.054388 c 0.0808,-0.12709 0.0907,-0.0899 0.0324,0.1219 -0.0462,0.16763 -0.13628,0.38706 -0.20025,0.48763 -0.0808,0.12709 -0.0907,0.0899 -0.0324,-0.1219 0.0462,-0.16763 0.13628,-0.38706 0.20025,-0.48763 z m 13.36422,37.640078 c 7.39647,-5.86785 13.5245,-10.710298 13.61784,-10.760998 0.57497,-0.31236 -1.95932,1.72709 -13.63641,10.973818 -7.17918,5.68496 -13.16014,10.42424 -13.29103,10.53171 -0.13089,0.10748 -0.21561,0.13441 -0.18827,0.0598 0.0273,-0.0746 6.10138,-4.93653 13.49787,-10.80437 z M 156.64332,20.564443 c 0.1208,0.1011 6.09351,4.83516 13.27269,10.52013 11.68475,9.2528 14.45357,11.48385 13.53019,10.90231 -0.60085,-0.3784 -27.01341,-21.39281 -27.01782,-21.49595 -0.002,-0.0607 0.0941,-0.0276 0.21494,0.0735 z m 4.23596,41.160938 c 2.07092,-1.63877 8.1053,-6.42324 13.40975,-10.63215 5.30444,-4.208918 9.66143,-7.634768 9.6822,-7.612998 0.0369,0.0387 -26.35811,21.024258 -27.02269,21.484578 l -0.3366,0.23315 0.25102,-0.2465 c 0.13806,-0.13557 1.9454,-1.5873 4.01632,-3.22608 z m -3.89937,-41.469538 c 0.92022,0.67386 27.02293,21.44181 26.99132,21.47495 -0.0208,0.0218 -4.34952,-3.38196 -9.61945,-7.56385 -5.26993,-4.18189 -11.40315,-9.04875 -13.62939,-10.81523 -2.22623,-1.76649 -4.0477,-3.236 -4.0477,-3.26559 0,-0.0296 0.13735,0.0468 0.30522,0.16972 z m 14.16817,34.193178 c 7.44263,-5.90174 13.75902,-10.980878 14.03642,-11.286968 l 0.50436,-0.55654 -0.50445,-0.55664 c -0.27745,-0.30614 -6.68932,-5.46371 -14.24861,-11.46124 l -13.74415,-10.90461 0.23021,-0.63805 c 0.12661,-0.35093 1.22708,-3.40384 2.44548,-6.78425 1.2184,-3.3804095 2.25609,-6.2170393 2.30597,-6.3036193 0.0617,-0.107 6.64828,5.7256193 20.56972,18.2150293 11.26346,10.10483 20.47902,18.39986 20.47902,18.43338 0,0.1039 -40.95157,36.805951 -41.0072,36.751912 -0.0289,-0.02802 -1.16796,-3.138273 -2.53134,-6.911674 -2.30042,-6.36678 -2.46408,-6.87533 -2.27319,-7.06351 0.11313,-0.11153 6.29513,-5.03148 13.73776,-10.93322 z m -13.72033,16.68278 c 0.0669,0.10058 0.12166,0.23772 0.12166,0.30477 0,0.0671 -0.0547,0.0396 -0.12166,-0.0609 -0.0669,-0.10057 -0.12166,-0.23772 -0.12166,-0.30477 0,-0.067 0.0547,-0.0396 0.12166,0.061 z m 0,-57.296398 c 0.0669,-0.10057 0.12166,-0.128 0.12166,-0.061 0,0.0671 -0.0547,0.2042 -0.12166,0.30477 -0.0669,0.10057 -0.12166,0.128 -0.12166,0.061 0,-0.0671 0.0547,-0.2042 0.12166,-0.30477 z m 1.62027,61.806968 c 0.0586,0.100574 0.14102,0.320007 0.1832,0.487629 0.0639,0.254036 0.0465,0.24389 -0.10466,-0.06095 -0.19374,-0.390679 -0.25665,-0.732456 -0.0785,-0.426675 z m 0.15805,-66.6832575 c 0.0808,-0.12708 0.0907,-0.0899 0.0324,0.12191 -0.0461,0.16763 -0.13628,0.3870498 -0.20025,0.4876198 -0.0808,0.1271 -0.0907,0.0899 -0.0324,-0.12189 0.0462,-0.1676298 0.13628,-0.3870598 0.20025,-0.4876398 z m 0.72052,69.1214025 c 0.0586,0.100574 0.14102,0.320007 0.1832,0.487629 0.0639,0.254036 0.0465,0.24389 -0.10466,-0.06095 -0.19374,-0.390679 -0.25665,-0.732456 -0.0785,-0.426675 z m 0.15805,-71.5595423 c 0.0808,-0.12709 0.0907,-0.0899 0.0324,0.12191 -0.0462,0.16762 -0.13628,0.3870498 -0.20025,0.4876298 -0.0808,0.12708 -0.0907,0.0899 -0.0324,-0.12191 0.0462,-0.1676198 0.13628,-0.3870598 0.20025,-0.4876298 z m 1.97627,74.6617413 c 0.0631,0.0379 0.14012,-6e-6 0.17108,-0.08423 0.0309,-0.08423 0.0926,-0.120807 0.137,-0.08128 0.0444,0.03952 -0.0326,0.171455 -0.17108,0.293185 -0.23283,0.204659 -0.25179,0.20559 -0.25179,0.01238 0,-0.114923 0.0517,-0.177941 0.11479,-0.140043 z m 0.137,-77.2820713 c 0.13848,0.12172 0.21547,0.25366 0.17108,0.29319 -0.0444,0.0395 -0.10604,0.003 -0.137,-0.0813 -0.031,-0.0842 -0.10795,-0.12214 -0.17108,-0.0842 -0.0631,0.0379 -0.11479,-0.0251 -0.11479,-0.14005 0,-0.19321 0.019,-0.19228 0.25179,0.0124 z m 4.83628,72.2148843 c 2.41877,-2.171132 11.42726,-10.258137 20.01886,-17.971127 8.5916,-7.71299 15.90349,-14.265348 16.24864,-14.560788 l 0.62755,-0.53719 -0.62755,0.6187 c -0.97548,0.96173 -40.76332,36.649569 -40.71135,36.516193 0.0254,-0.06505 2.02508,-1.894657 4.44385,-4.065788 z M 182.6239,22.932523 c 11.02764,9.89707 20.33264,18.27511 20.67779,18.61787 0.9599,0.95323 0.7684,0.78253 -15.38066,-13.71032 -8.3213,-7.4679 -17.42625,-15.63518 -20.23323,-18.1495197 -2.80698,-2.5143298 -5.10597,-4.6122796 -5.10887,-4.6621096 -0.003,-0.0498 9.01734,8.0069993 20.04497,17.9040793 z m 1.16097,38.808978 c 20.06102,-17.991818 21.2017,-19.009338 20.26988,-18.081298 -0.47649,0.47456 -40.2494,36.17674 -41.0418,36.841202 -1.6787,1.407664 3.51244,-3.280647 20.77192,-18.759904 z M 163.04433,4.7141437 c 0.18984,0.17116 9.38188,8.4169393 20.42677,18.3239393 11.04489,9.90701 20.30753,18.23435 20.58365,18.50521 l 0.50204,0.49248 -0.51491,-0.4161 c -0.81354,-0.6574 -41.3427,-37.0770493 -41.3427,-37.1506893 0,-0.0363 0.15532,0.074 0.34515,0.24516 z m 1.12435,73.3663723 c 0.0942,0 -0.005,0.109452 -0.55956,0.614631 l -0.59617,0.543488 0.55955,-0.57906 c 0.30776,-0.318482 0.57604,-0.579059 0.59618,-0.579059 z M 163.6405,6.5209737 c 0.31064,0.29611 0.5648,0.5658198 0.5648,0.5993498 0,0.0335 -0.25416,-0.18133 -0.5648,-0.4774398 -0.31064,-0.29612 -0.56479,-0.56583 -0.56479,-0.59936 0,-0.0335 0.25415,0.18134 0.56479,0.47745 z m 2.15981,70.0966553 c 0.0942,0 -0.005,0.109452 -0.55955,0.614631 l -0.59618,0.543488 0.55955,-0.579059 c 0.30776,-0.318483 0.57604,-0.57906 0.59618,-0.57906 z M 165.27213,7.9838535 c 0.31064,0.29612 0.5648,0.56582 0.5648,0.59935 0,0.0335 -0.25416,-0.18132 -0.5648,-0.47744 -0.31063,-0.29611 -0.56479,-0.56582 -0.56479,-0.59934 0,-0.0335 0.25416,0.18132 0.56479,0.47743 z m 2.15981,67.1708895 c 0.0942,0 -0.005,0.109452 -0.55955,0.614631 l -0.59618,0.543487 0.55956,-0.579059 c 0.30775,-0.318483 0.57602,-0.579059 0.59617,-0.579059 z M 166.90376,9.4467533 c 0.31064,0.29611 0.5648,0.5658197 0.5648,0.5993397 0,0.0335 -0.25416,-0.1813297 -0.5648,-0.4774497 -0.31063,-0.2961098 -0.56479,-0.5658198 -0.56479,-0.5993398 0,-0.0335 0.25416,0.18133 0.56479,0.4774498 z m 2.28532,64.1231957 c 0.0942,0 -0.005,0.109452 -0.55955,0.61463 l -0.59618,0.543488 0.55956,-0.579059 c 0.30775,-0.318483 0.57602,-0.579059 0.59617,-0.579059 z M 168.6609,11.031543 c 0.31064,0.29611 0.5648,0.56582 0.5648,0.59934 0,0.0335 -0.25416,-0.18132 -0.5648,-0.47743 -0.31063,-0.29612 -0.56479,-0.56583 -0.56479,-0.59936 0,-0.0335 0.25416,0.18133 0.56479,0.47745 z m 2.15981,61.075518 c 0.0942,0 -0.005,0.10945 -0.55955,0.61463 l -0.59617,0.543489 0.55955,-0.579059 c 0.30775,-0.31848 0.57603,-0.57906 0.59617,-0.57906 z m -0.52817,-59.612638 c 0.31063,0.29611 0.56479,0.56582 0.56479,0.59935 0,0.0335 -0.25416,-0.18133 -0.56479,-0.47744 -0.31064,-0.29611 -0.5648,-0.56582 -0.5648,-0.59935 0,-0.0335 0.25416,0.18133 0.5648,0.47744 z m 2.1598,58.149748 c 0.0942,0 -0.005,0.10946 -0.55955,0.61463 l -0.59617,0.54349 0.55955,-0.57906 c 0.30775,-0.31848 0.57603,-0.57906 0.59617,-0.57906 z m -0.52817,-56.686858 c 0.31063,0.29612 0.56479,0.56582 0.56479,0.59935 0,0.0335 -0.25416,-0.18133 -0.56479,-0.47745 -0.31064,-0.29611 -0.5648,-0.56582 -0.5648,-0.59934 0,-0.0335 0.25416,0.18133 0.5648,0.47744 z m 2.1598,55.223978 c 0.0942,0 -0.005,0.10945 -0.55955,0.61463 l -0.59617,0.54349 0.55955,-0.57906 c 0.30775,-0.31849 0.57603,-0.57906 0.59617,-0.57906 z M 173.5558,15.420203 c 0.31064,0.29611 0.56479,0.56582 0.56479,0.59934 0,0.0335 -0.25415,-0.18132 -0.56479,-0.47744 -0.31064,-0.29611 -0.5648,-0.56582 -0.5648,-0.59934 0,-0.0335 0.25416,0.18132 0.5648,0.47744 z m 1.69438,52.724878 c 0.34516,-0.33021 0.62756,-0.57295 0.62756,-0.53942 0,0.0335 -0.2824,0.33112 -0.62756,0.66132 -0.34515,0.33021 -0.62755,0.57294 -0.62755,0.53942 0,-0.0335 0.2824,-0.33112 0.62755,-0.66132 z m -0.59145,-51.749628 c 0.0199,0 0.31637,0.28801 0.65893,0.64002 l 0.62283,0.64001 -0.65893,-0.60495 c -0.61228,-0.56214 -0.71648,-0.67508 -0.62283,-0.67508 z m 2.81402,49.738158 c 0.0942,0 -0.005,0.10945 -0.55956,0.61463 l -0.59617,0.54348 0.55955,-0.57906 c 0.30776,-0.31848 0.57603,-0.57905 0.59618,-0.57905 z m -0.52818,-47.665728 c 0.31064,0.29611 0.5648,0.56582 0.5648,0.59934 0,0.0335 -0.25416,-0.18132 -0.5648,-0.47744 -0.31064,-0.29611 -0.56479,-0.56582 -0.56479,-0.59934 0,-0.0336 0.25415,0.18132 0.56479,0.47744 z m 2.15981,46.202838 c 0.0942,0 -0.005,0.10945 -0.55955,0.61463 l -0.59618,0.54349 0.55956,-0.57906 c 0.30775,-0.31848 0.57602,-0.57906 0.59617,-0.57906 z M 178.5762,19.930763 c 0.31064,0.29612 0.5648,0.56583 0.5648,0.59935 0,0.0335 -0.25416,-0.18132 -0.5648,-0.47744 -0.31063,-0.29611 -0.56479,-0.56582 -0.56479,-0.59935 0,-0.0335 0.25416,0.18133 0.56479,0.47744 z m 2.15981,43.277068 c 0.0942,0 -0.005,0.10945 -0.55955,0.61463 l -0.59618,0.54349 0.55956,-0.57906 c 0.30775,-0.31848 0.57602,-0.57906 0.59617,-0.57906 z m -0.52818,-41.814178 c 0.31064,0.29611 0.5648,0.56582 0.5648,0.59935 0,0.0335 -0.25416,-0.18133 -0.5648,-0.47744 -0.31063,-0.29612 -0.56479,-0.56582 -0.56479,-0.59935 0,-0.0335 0.25416,0.18133 0.56479,0.47744 z m 1.69439,40.777968 c 0.34515,-0.3302 0.62755,-0.57294 0.62755,-0.53942 0,0.0335 -0.2824,0.33112 -0.62755,0.66133 -0.34515,0.3302 -0.62755,0.57294 -0.62755,0.53941 0,-0.0335 0.2824,-0.33112 0.62755,-0.66132 z m -0.59145,-39.802708 c 0.0199,0 0.31637,0.28801 0.65892,0.64001 l 0.62284,0.64001 -0.65893,-0.60495 c -0.61229,-0.56213 -0.71649,-0.67507 -0.62283,-0.67507 z m 2.81401,37.791238 c 0.0942,0 -0.005,0.10945 -0.55955,0.61463 l -0.59617,0.54349 0.55955,-0.57906 c 0.30775,-0.31848 0.57603,-0.57906 0.59617,-0.57906 z m -0.52817,-35.718818 c 0.31063,0.29612 0.56479,0.56582 0.56479,0.59935 0,0.0335 -0.25416,-0.18133 -0.56479,-0.47744 -0.31064,-0.29612 -0.5648,-0.56582 -0.5648,-0.59935 0,-0.0335 0.25416,0.18133 0.5648,0.47744 z m 2.1598,34.255928 c 0.0942,0 -0.005,0.10946 -0.55955,0.61464 l -0.59617,0.54348 0.55955,-0.57906 c 0.30775,-0.31848 0.57603,-0.57906 0.59617,-0.57906 z m -0.52817,-32.793038 c 0.31064,0.29611 0.56479,0.56582 0.56479,0.59934 0,0.0335 -0.25415,-0.18132 -0.56479,-0.47743 -0.31064,-0.29612 -0.5648,-0.56583 -0.5648,-0.59935 0,-0.0335 0.25416,0.18132 0.5648,0.47744 z m 2.1598,31.330158 c 0.0942,0 -0.005,0.10945 -0.55955,0.61463 l -0.59617,0.54349 0.55955,-0.57906 c 0.30775,-0.31849 0.57603,-0.57906 0.59617,-0.57906 z m -0.52817,-29.867268 c 0.31064,0.29611 0.5648,0.56582 0.5648,0.59934 0,0.0335 -0.25416,-0.18132 -0.5648,-0.47744 -0.31064,-0.29611 -0.5648,-0.56582 -0.5648,-0.59934 0,-0.0335 0.25416,0.18132 0.5648,0.47744 z m 1.69439,28.831058 c 0.34515,-0.33021 0.62755,-0.57295 0.62755,-0.53942 0,0.0335 -0.2824,0.33112 -0.62755,0.66133 -0.34516,0.3302 -0.62755,0.57294 -0.62755,0.53941 0,-0.0335 0.28239,-0.33112 0.62755,-0.66132 z M 187.9628,28.342363 c 0.0199,0 0.31637,0.28801 0.65893,0.64002 l 0.62283,0.64001 -0.65893,-0.60495 c -0.61228,-0.56214 -0.71648,-0.67508 -0.62283,-0.67508 z m 2.81402,25.844338 c 0.0942,0 -0.005,0.10945 -0.55956,0.61463 l -0.59617,0.54349 0.55955,-0.57906 c 0.30776,-0.31849 0.57603,-0.57906 0.59618,-0.57906 z m -0.52818,-23.771908 c 0.31064,0.29611 0.5648,0.56582 0.5648,0.59934 0,0.0335 -0.25416,-0.18132 -0.5648,-0.47744 -0.31064,-0.29611 -0.56479,-0.56582 -0.56479,-0.59934 0,-0.0335 0.25415,0.18132 0.56479,0.47744 z m 2.15981,22.309018 c 0.0942,0 -0.005,0.10945 -0.55955,0.61463 l -0.59618,0.54349 0.55956,-0.57906 c 0.30775,-0.31848 0.57602,-0.57906 0.59617,-0.57906 z m -0.52818,-20.846138 c 0.31064,0.29612 0.5648,0.56583 0.5648,0.59935 0,0.0335 -0.25416,-0.18133 -0.5648,-0.47744 -0.31063,-0.29611 -0.56479,-0.56582 -0.56479,-0.59935 0,-0.0335 0.25416,0.18133 0.56479,0.47744 z m 2.15981,19.383248 c 0.0942,0 -0.005,0.10946 -0.55955,0.61463 l -0.59618,0.54349 0.55956,-0.57906 c 0.30775,-0.31848 0.57602,-0.57906 0.59617,-0.57906 z M 193.5119,33.340563 c 0.31064,0.29611 0.5648,0.56582 0.5648,0.59935 0,0.0335 -0.25416,-0.18133 -0.5648,-0.47744 -0.31063,-0.29612 -0.56479,-0.56583 -0.56479,-0.59935 0,-0.0336 0.25416,0.18133 0.56479,0.47744 z m 1.69439,16.884148 c 0.34515,-0.3302 0.62755,-0.57294 0.62755,-0.53941 0,0.0335 -0.2824,0.33112 -0.62755,0.66132 -0.34515,0.33021 -0.62755,0.57294 -0.62755,0.53942 0,-0.0336 0.2824,-0.33112 0.62755,-0.66133 z m -0.59145,-15.908888 c 0.0199,0 0.31637,0.28801 0.65893,0.64001 l 0.62283,0.64001 -0.65893,-0.60495 c -0.61229,-0.56214 -0.71649,-0.67507 -0.62283,-0.67507 z m 2.81401,13.897418 c 0.0942,0 -0.005,0.10946 -0.55955,0.61463 l -0.59617,0.54349 0.55955,-0.57906 c 0.30775,-0.31848 0.57603,-0.57906 0.59617,-0.57906 z m -0.52817,-11.824998 c 0.31064,0.29612 0.56479,0.56582 0.56479,0.59935 0,0.0336 -0.25415,-0.18133 -0.56479,-0.47744 -0.31064,-0.29612 -0.5648,-0.56582 -0.5648,-0.59935 0,-0.0335 0.25416,0.18133 0.5648,0.47744 z m 2.1598,10.36212 c 0.0942,0 -0.005,0.10945 -0.55955,0.61463 l -0.59617,0.543488 0.55955,-0.579058 c 0.30775,-0.31848 0.57603,-0.57906 0.59617,-0.57906 z m -0.52817,-8.89923 c 0.31064,0.29611 0.56479,0.56582 0.56479,0.59934 0,0.0335 -0.25415,-0.18132 -0.56479,-0.47744 -0.31064,-0.29611 -0.5648,-0.56582 -0.5648,-0.59934 0,-0.0335 0.25416,0.18132 0.5648,0.47744 z m 2.1598,7.43634 c 0.0942,0 -0.005,0.10945 -0.55955,0.61463 l -0.59617,0.54349 0.55955,-0.57906 c 0.30775,-0.31849 0.57603,-0.57906 0.59617,-0.57906 z m -0.52817,-5.97346 c 0.31064,0.29612 0.56479,0.56583 0.56479,0.59935 0,0.0336 -0.25415,-0.18132 -0.56479,-0.47744 -0.31064,-0.29611 -0.5648,-0.56582 -0.5648,-0.59935 0,-0.0335 0.25416,0.18133 0.5648,0.47744 z m 1.69439,4.93725 c 0.34515,-0.33021 0.62755,-0.57294 0.62755,-0.53942 0,0.0335 -0.2824,0.33112 -0.62755,0.66133 -0.34516,0.3302 -0.62755,0.57294 -0.62755,0.53941 0,-0.0335 0.28239,-0.33112 0.62755,-0.66132 z m -0.59146,-3.96199 c 0.0199,0 0.31637,0.28801 0.65893,0.64002 l 0.62283,0.64001 -0.65893,-0.60495 c -0.61228,-0.56214 -0.71648,-0.67508 -0.62283,-0.67508 z m 1.97207,2.74292 c 0.13806,-0.12136 0.25102,-0.19322 0.25102,-0.1597 0,0.0335 -0.11296,0.16025 -0.25102,0.2816 -0.13806,0.12136 -0.25102,0.19322 -0.25102,0.1597 0,-0.0335 0.11296,-0.16025 0.25102,-0.2816 z m -0.20772,-1.15812 c 0.0238,0 0.1509,0.12343 0.2824,0.27429 l 0.23909,0.27429 -0.28239,-0.23223 c -0.26539,-0.21824 -0.33954,-0.31635 -0.2391,-0.31635 z m 1.46282,0.60953 c 0.069,0 0.12551,0.0549 0.12551,0.12191 0,0.067 -0.0565,0.12191 -0.12551,0.12191 -0.069,0 -0.12551,-0.0549 -0.12551,-0.12191 0,-0.0671 0.0565,-0.12191 0.12551,-0.12191 z"
       id="path2136" />
    <path
       style="fill:#000000;stroke-width:0.123696"
       d="m 16.49569,67.3697 c -0.0424,0.0436 -0.312117,0.0975 -0.599376,0.11977 -0.287258,0.0222 -3.896072,1.25686 -8.0195833,2.74365 -8.71123377,3.14096 -7.85222917,2.82087 -7.77727597,2.89804 0.032832,0.0338 0.2660404,-0.0273 0.518254,-0.13582 0.252213,-0.1085 0.48849197,-0.16646 0.52506497,-0.12881 0.03657,0.0376 -0.133933,0.15468 -0.37889897,0.26006 -0.244966,0.10538 -0.4453929,0.24073 -0.4453929,0.30079 0,0.0601 -0.1024576,0.13677 -0.2276842,0.17048 -0.1472066,0.0396 -0.249631,0.21117 -0.2897766,0.48531 -0.058068,0.39652 0.022319,0.51754 1.24029567,1.86736 0.716313,0.793852 9.0531013,10.084737 18.5261963,20.646415 16.466374,18.358575 19.124345,21.273965 19.395561,21.273965 0.271216,0 2.929187,-2.91539 19.395562,-21.273965 9.473092,-10.561678 17.80989,-19.852563 18.526201,-20.646415 1.217975,-1.34982 1.298362,-1.47084 1.240294,-1.86736 -0.04012,-0.27414 -0.142569,-0.44567 -0.289777,-0.48531 -0.125222,-0.0337 -0.227681,-0.11043 -0.227681,-0.17048 0,-0.06 -0.200431,-0.19541 -0.445396,-0.30079 -0.244965,-0.10538 -0.415466,-0.2224 -0.378892,-0.26006 0.03655,-0.0376 0.272849,0.0203 0.525053,0.12881 0.25222,0.1085 0.485435,0.16961 0.518258,0.13582 0.07492,-0.0771 0.936183,0.24396 -7.777272,-2.8995 -4.123519,-1.48758 -7.689302,-2.72062 -7.923974,-2.74006 -0.234672,-0.0195 -0.564825,-0.0755 -0.73367,-0.12462 -0.287413,-0.0836 -0.699393,0.40539 -6.460144,7.6673 -3.384235,4.266106 -8.338488,10.509931 -11.009456,13.875171 -2.670964,3.365242 -4.902564,6.118617 -4.959106,6.118617 -0.05655,0 -2.288142,-2.753375 -4.959105,-6.118617 -2.670968,-3.36524 -7.62297,-9.606229 -11.004452,-13.868871 -3.381481,-4.26263 -6.21083,-7.75025 -6.287442,-7.75025 -0.07661,0 -0.173985,0.0357 -0.216385,0.0794 z m -1.121665,0.42268 c -0.335134,0.14826 -0.52761,0.14826 -0.304768,0 0.100574,-0.0669 0.265149,-0.11856 0.365722,-0.11477 0.120573,0.005 0.09981,0.0436 -0.06095,0.11477 z m 47.482868,0 c 0.222841,0.14826 0.03038,0.14826 -0.304768,0 -0.160764,-0.0711 -0.181526,-0.11022 -0.06095,-0.11477 0.100573,-0.004 0.265148,0.0478 0.365721,0.11477 z m -49.616244,0.7417 c -0.100573,0.0586 -0.320006,0.14102 -0.487629,0.1832 -0.254037,0.0639 -0.24389,0.0465 0.06095,-0.10467 0.39068,-0.19374 0.732457,-0.25665 0.426675,-0.0785 z m 52.05439,0.15804 c 0.127085,0.0808 0.0899,0.0907 -0.121908,0.0324 -0.167623,-0.0462 -0.387055,-0.13627 -0.487629,-0.20025 -0.127086,-0.0808 -0.0899,-0.0907 0.121907,-0.0324 0.167622,0.0462 0.387057,0.13628 0.48763,0.20025 z M 27.654958,82.05634 C 33.5228,89.452821 38.365252,95.580851 38.415955,95.674183 38.728311,96.249153 36.68886,93.714867 27.442138,82.03777 21.757171,74.85859 17.017898,68.87763 16.91042,68.74675 c -0.107479,-0.13089 -0.134406,-0.21562 -0.05984,-0.18827 0.07457,0.0273 4.936537,6.10138 10.804378,13.49786 z m 33.34919,-13.29126 c -0.101106,0.1208 -4.835167,6.09351 -10.520134,13.27269 -9.252797,11.684761 -11.483846,14.453573 -10.902313,13.530194 0.378402,-0.600848 21.39281,-27.013414 21.495956,-27.017814 0.06068,-0.002 0.0276,0.0941 -0.07351,0.21493 z M 19.8432,73.00104 c 1.63877,2.07092 6.423244,8.105307 10.632159,13.40975 4.208919,5.304444 7.634767,9.661438 7.612997,9.682206 C 38.049676,96.129906 17.064094,69.73489 16.603771,69.0703 l -0.233142,-0.3366 0.246493,0.25102 c 0.13557,0.13806 1.587305,1.94541 3.226078,4.01632 z m 41.469546,-3.89937 c -0.673859,0.92022 -21.441813,27.022941 -21.474953,26.991326 -0.02179,-0.02076 3.381961,-4.349522 7.563854,-9.619451 4.181889,-5.269928 9.048743,-11.403155 10.815231,-13.629385 1.766484,-2.22624 3.235999,-4.0477 3.265583,-4.0477 0.02956,0 -0.04679,0.13734 -0.169715,0.30521 z M 27.11956,83.26984 c 5.90174,7.442632 10.98088,13.759022 11.286973,14.036424 l 0.556541,0.504363 0.556637,-0.504452 c 0.306145,-0.277446 5.46371,-6.689322 11.461243,-14.24861 l 10.904607,-13.744155 0.638051,0.23021 c 0.350929,0.12662 3.403839,1.22709 6.784249,2.44549 3.38041,1.2184 6.21704,2.25608 6.303619,2.30597 0.107002,0.0617 -5.72562,6.648272 -18.215023,20.569716 -10.104834,11.263464 -18.399859,20.479024 -18.433383,20.479024 -0.1039,0 -36.8059513,-40.95157 -36.7519133,-41.00721 0.02802,-0.0289 3.138273,-1.16795 6.911673,-2.53134 6.3667773,-2.30041 6.8753273,-2.46408 7.0635083,-2.27319 0.11153,0.11314 5.031479,6.29513 10.933218,13.73776 z M 10.436782,69.54952 c -0.100573,0.0669 -0.237719,0.12166 -0.304767,0.12166 -0.06705,0 -0.03962,-0.0547 0.06095,-0.12166 0.100574,-0.0669 0.23772,-0.12167 0.304769,-0.12167 0.06705,0 0.03962,0.0547 -0.06095,0.12167 z m 57.296403,0 c 0.100573,0.0669 0.127997,0.12166 0.06097,0.12166 -0.06708,0 -0.204197,-0.0547 -0.304769,-0.12166 -0.100573,-0.0669 -0.128005,-0.12167 -0.06097,-0.12167 0.06708,0 0.204197,0.0547 0.304769,0.12167 z M 5.9262147,71.16978 c -0.100574,0.0586 -0.320007,0.14103 -0.487629,0.18321 -0.254036,0.0639 -0.24389,0.0465 0.06095,-0.10467 0.390679,-0.19374 0.732456,-0.25664 0.426675,-0.0785 z M 72.60947,71.32784 c 0.127085,0.0808 0.08991,0.0907 -0.121907,0.0324 -0.167624,-0.0461 -0.387051,-0.13628 -0.487623,-0.20026 -0.127093,-0.0808 -0.08991,-0.0907 0.121899,-0.0324 0.167623,0.0461 0.387059,0.13628 0.487631,0.20026 z M 3.4880697,72.04835 c -0.100574,0.0586 -0.320007,0.14103 -0.487629,0.18321 -0.254036,0.0639 -0.24389,0.0465 0.06095,-0.10467 0.390679,-0.19373 0.732456,-0.25664 0.426675,-0.0785 z m 71.5595473,0.15806 c 0.127085,0.0808 0.0899,0.0907 -0.121908,0.0324 -0.167623,-0.0461 -0.387059,-0.13628 -0.487631,-0.20026 -0.127085,-0.0808 -0.0899,-0.0907 0.121908,-0.0324 0.167623,0.0461 0.387058,0.13628 0.487631,0.20026 z M 0.38587073,74.18267 c -0.037898,0.0631 6e-6,0.14012 0.08423,0.17109 0.08423,0.0309 0.120807,0.0926 0.08128,0.13699 -0.03952,0.0444 -0.171456,-0.0326 -0.2931855,-0.17108 -0.2046592,-0.23283 -0.2055908,-0.25179 -0.012376,-0.25179 0.1149228,0 0.1779405,0.0517 0.1400425,0.11479 z m 77.28207427,0.137 c -0.121725,0.13849 -0.253662,0.21547 -0.293186,0.17108 -0.03948,-0.0444 -0.0032,-0.10604 0.08128,-0.13699 0.08423,-0.031 0.122137,-0.10795 0.08424,-0.17109 -0.0379,-0.0631 0.02513,-0.11479 0.140048,-0.11479 0.193209,0 0.192281,0.019 -0.01237,0.25179 z M 5.4530577,79.155955 c 2.171132,2.418773 10.2581403,11.427262 17.9711293,20.018863 7.712984,8.591602 14.265344,15.903492 14.560792,16.248642 l 0.537184,0.62755 -0.618703,-0.62755 C 36.941732,114.44798 1.2538937,74.66014 1.3872697,74.71211 c 0.06505,0.0253 1.894657,2.025073 4.065788,4.443845 z M 58.636067,94.74567 c -9.897073,11.02763 -18.275115,20.33264 -18.617871,20.67779 -0.953234,0.9599 -0.782534,0.7684 13.710321,-15.38066 7.467894,-8.321301 15.635176,-17.42626 18.149515,-20.233239 2.514331,-2.806979 4.612286,-5.105971 4.662116,-5.108861 0.04979,-0.003 -8.007007,9.017339 -17.904081,20.04497 z M 19.827082,95.906638 C 37.818907,115.96766 38.836424,117.10834 37.908384,116.17652 37.433829,115.70003 1.7316427,75.92712 1.0671817,75.13471 -0.34048347,73.45602 4.3478277,78.647155 19.827082,95.906638 Z M 76.854447,75.16609 C 76.68328,75.35593 68.4375,84.547973 58.530501,95.592863 48.623498,106.63775 40.296155,115.9004 40.02529,116.17652 l -0.492476,0.50204 0.416097,-0.51491 c 0.657406,-0.81354 37.077052,-41.34271 37.150692,-41.34271 0.03631,0 -0.07397,0.15532 -0.245156,0.34515 z M 3.4880697,76.29044 c 0,0.0942 -0.109452,-0.005 -0.614631,-0.55955 l -0.543487,-0.59618 0.579059,0.55956 c 0.318482,0.30775 0.579059,0.57603 0.579059,0.59617 z M 75.047617,75.76226 c -0.296112,0.31064 -0.565821,0.5648 -0.599351,0.5648 -0.03354,0 0.181332,-0.25416 0.477443,-0.5648 0.296111,-0.31063 0.565821,-0.56479 0.599351,-0.56479 0.03354,0 -0.181332,0.25416 -0.477443,0.56479 z M 4.9509567,77.922072 c 0,0.09424 -0.109452,-0.0054 -0.614631,-0.559552 l -0.543488,-0.596173 0.579059,0.559552 c 0.318483,0.307752 0.57906,0.576032 0.57906,0.596173 z M 73.584732,77.393897 c -0.296119,0.310638 -0.565821,0.564796 -0.599351,0.564796 -0.03354,0 0.181324,-0.254158 0.477443,-0.564796 0.296112,-0.310637 0.565821,-0.564795 0.599343,-0.564795 0.03354,0 -0.181324,0.254158 -0.477435,0.564795 z M 6.4138437,79.553704 c 0,0.09424 -0.109452,-0.0054 -0.614631,-0.559553 l -0.543488,-0.596173 0.579059,0.559553 c 0.318484,0.307751 0.57906,0.576026 0.57906,0.596173 z M 72.121839,79.025528 c -0.296111,0.310638 -0.565821,0.564795 -0.599342,0.564795 -0.03354,0 0.181323,-0.254157 0.477443,-0.564795 0.296111,-0.310637 0.565821,-0.564795 0.599342,-0.564795 0.03354,0 -0.181323,0.254158 -0.477443,0.564795 z M 7.9986377,81.310845 c 0,0.09424 -0.109453,-0.0054 -0.614631,-0.559553 l -0.543488,-0.596173 0.579059,0.559553 c 0.318484,0.307752 0.57906,0.576027 0.57906,0.596173 z M 70.537047,80.782669 c -0.296112,0.310638 -0.565821,0.564796 -0.599343,0.564796 -0.03354,0 0.181324,-0.254158 0.477435,-0.564796 0.29612,-0.310637 0.565821,-0.564795 0.599351,-0.564795 0.03354,0 -0.181324,0.254158 -0.477443,0.564795 z M 9.4615247,82.942476 c 0,0.09424 -0.109452,-0.0054 -0.614631,-0.559552 l -0.543488,-0.596173 0.579059,0.559552 c 0.318483,0.307752 0.57906,0.576027 0.57906,0.596173 z M 69.074162,82.414301 c -0.296111,0.310638 -0.565821,0.564796 -0.59935,0.564796 -0.03354,0 0.181331,-0.254158 0.477442,-0.564796 0.296112,-0.310637 0.565822,-0.564795 0.599351,-0.564795 0.03354,0 -0.181331,0.254158 -0.477443,0.564795 z m -58.14975,2.159806 c 0,0.09424 -0.109453,-0.0054 -0.614632,-0.559552 l -0.5434883,-0.596173 0.5790603,0.559552 c 0.318483,0.307752 0.57906,0.576027 0.57906,0.596173 z m 56.686866,-0.528175 c -0.29612,0.310637 -0.565822,0.564795 -0.599351,0.564795 -0.03354,0 0.181323,-0.254158 0.477443,-0.564795 0.296111,-0.310637 0.565821,-0.564796 0.599342,-0.564796 0.03354,0 -0.181323,0.254159 -0.477434,0.564796 z m -55.22398,2.159807 c 0,0.09424 -0.109452,-0.0054 -0.61463,-0.559553 l -0.543489,-0.596173 0.57906,0.559553 c 0.318483,0.307751 0.579059,0.576027 0.579059,0.596173 z m 53.761087,-0.528175 c -0.296112,0.310637 -0.565821,0.564795 -0.599343,0.564795 -0.03354,0 0.181324,-0.254158 0.477443,-0.564795 0.296112,-0.310638 0.565821,-0.564796 0.599343,-0.564796 0.03354,0 -0.181324,0.254158 -0.477443,0.564796 z m -52.724876,1.694385 c 0.330205,0.345154 0.572943,0.627554 0.539418,0.627554 -0.03352,0 -0.331121,-0.2824 -0.661324,-0.627554 -0.330204,-0.345152 -0.572942,-0.62755 -0.539418,-0.62755 0.03352,0 0.331121,0.282398 0.661324,0.62755 z m 51.749622,-0.591454 c 0,0.01986 -0.288004,0.31637 -0.640013,0.658929 l -0.640013,0.622834 0.604953,-0.658931 c 0.562132,-0.612287 0.675073,-0.716484 0.675073,-0.622832 z m -49.738152,2.814019 c 0,0.09424 -0.109452,-0.0054 -0.614631,-0.559553 l -0.543488,-0.596173 0.57906,0.559553 c 0.318482,0.307752 0.579059,0.576026 0.579059,0.596173 z m 47.665729,-0.528176 c -0.296115,0.310638 -0.565823,0.564796 -0.599347,0.564796 -0.03355,0 0.181325,-0.254158 0.47744,-0.564796 0.296114,-0.310637 0.565822,-0.564795 0.599346,-0.564795 0.03355,0 -0.181325,0.254158 -0.477439,0.564795 z m -46.202842,2.159807 c 0,0.09424 -0.109452,-0.0054 -0.614631,-0.559553 l -0.543488,-0.596173 0.57906,0.559553 c 0.318482,0.307751 0.579059,0.576027 0.579059,0.596173 z M 61.637821,90.69797 c -0.296115,0.310637 -0.565822,0.564795 -0.599347,0.564795 -0.03355,0 0.181325,-0.254158 0.47744,-0.564795 0.296114,-0.310638 0.565822,-0.564796 0.599346,-0.564796 0.03355,0 -0.181325,0.254158 -0.477439,0.564796 z m -43.277068,2.159806 c 0,0.09424 -0.109452,-0.0054 -0.614631,-0.559553 l -0.543488,-0.596173 0.579059,0.559553 c 0.318483,0.307752 0.57906,0.576027 0.57906,0.596173 z m 41.814181,-0.528175 c -0.296114,0.310637 -0.565822,0.564795 -0.599347,0.564795 -0.03354,0 0.181325,-0.254158 0.47744,-0.564795 0.296114,-0.310638 0.565822,-0.564796 0.599347,-0.564796 0.03354,0 -0.181325,0.254158 -0.47744,0.564796 z m -40.77797,1.694386 c 0.330204,0.345153 0.572942,0.627551 0.539418,0.627551 -0.03352,0 -0.331121,-0.282398 -0.661325,-0.627551 -0.330204,-0.345152 -0.572942,-0.62755 -0.539417,-0.62755 0.03352,0 0.33112,0.282398 0.661324,0.62755 z m 39.802712,-0.591454 c 0,0.01986 -0.288008,0.31637 -0.640013,0.658928 l -0.640013,0.622831 0.604953,-0.658927 c 0.562136,-0.612287 0.675073,-0.716485 0.675073,-0.622832 z m -37.791243,2.814016 c 0,0.09424 -0.109452,-0.0054 -0.61463,-0.559553 l -0.543488,-0.596173 0.579059,0.559553 c 0.318483,0.307751 0.579059,0.576027 0.579059,0.596173 z m 35.71882,-0.528175 c -0.296114,0.310637 -0.565822,0.564795 -0.599347,0.564795 -0.0335,0 0.181325,-0.254158 0.47744,-0.564795 0.296114,-0.310638 0.565822,-0.564796 0.599347,-0.564796 0.03355,0 -0.181325,0.254158 -0.47744,0.564796 z M 22.87132,97.87818 c 0,0.09424 -0.109452,-0.0054 -0.614631,-0.559553 l -0.543487,-0.596173 0.579059,0.559553 c 0.318483,0.307752 0.579059,0.576027 0.579059,0.596173 z m 32.793046,-0.528175 c -0.296114,0.310637 -0.565822,0.564795 -0.599346,0.564795 -0.03355,0 0.181325,-0.254158 0.477439,-0.564795 0.296115,-0.310638 0.565822,-0.564796 0.599347,-0.564796 0.03354,0 -0.181325,0.254158 -0.47744,0.564796 z m -31.330161,2.159806 c 0,0.09424 -0.109448,-0.0054 -0.614628,-0.559552 l -0.54349,-0.596173 0.579059,0.559552 c 0.318485,0.307752 0.579059,0.576028 0.579059,0.596173 z m 29.867274,-0.528175 c -0.296115,0.310638 -0.565822,0.564796 -0.599346,0.564796 -0.03355,0 0.181325,-0.254158 0.477439,-0.564796 0.296115,-0.310637 0.565823,-0.564795 0.599347,-0.564795 0.03354,0 -0.181325,0.254158 -0.47744,0.564795 z m -28.831062,1.694384 c 0.330205,0.34515 0.572944,0.62755 0.53942,0.62755 -0.03355,0 -0.331123,-0.2824 -0.661328,-0.62755 -0.3302,-0.34515 -0.57294,-0.62755 -0.539415,-0.62755 0.03355,0 0.331121,0.2824 0.661323,0.62755 z m 27.855804,-0.59145 c 0,0.0199 -0.288003,0.31637 -0.640013,0.65893 l -0.640012,0.62283 0.604953,-0.65893 c 0.562136,-0.61229 0.675072,-0.716485 0.675072,-0.62283 z m -25.844335,2.81401 c 0,0.0942 -0.109448,-0.005 -0.614628,-0.55955 l -0.543491,-0.59617 0.579059,0.55955 c 0.318486,0.30775 0.57906,0.57603 0.57906,0.59617 z m 23.771913,-0.52817 c -0.296115,0.31064 -0.565823,0.56479 -0.599348,0.56479 -0.03355,0 0.181325,-0.25415 0.47744,-0.56479 0.296115,-0.31064 0.565823,-0.5648 0.599347,-0.5648 0.0335,0 -0.181325,0.25416 -0.477439,0.5648 z m -22.309026,2.1598 c 0,0.0942 -0.109453,-0.005 -0.614629,-0.55955 l -0.54349,-0.59617 0.579059,0.55955 c 0.318486,0.30775 0.57906,0.57603 0.57906,0.59617 z m 20.846139,-0.52817 c -0.296115,0.31064 -0.565823,0.56479 -0.599347,0.56479 -0.0335,0 0.181325,-0.25415 0.47744,-0.56479 0.296114,-0.31064 0.565822,-0.5648 0.599346,-0.5648 0.03355,0 -0.181325,0.25416 -0.477439,0.5648 z m -19.383252,2.15981 c 0,0.0942 -0.109453,-0.005 -0.614629,-0.55956 l -0.54349,-0.59617 0.579059,0.55955 c 0.318485,0.30775 0.57906,0.57603 0.57906,0.59618 z m 17.920365,-0.52818 c -0.296115,0.31064 -0.565822,0.5648 -0.599347,0.5648 -0.03355,0 0.181325,-0.25416 0.47744,-0.5648 0.296114,-0.31064 0.565822,-0.56479 0.599346,-0.56479 0.03355,0 -0.181325,0.25415 -0.477439,0.56479 z m -16.884154,1.69439 c 0.330206,0.34515 0.57294,0.62755 0.539416,0.62755 -0.03355,0 -0.331118,-0.2824 -0.661323,-0.62755 -0.330206,-0.34516 -0.572941,-0.62755 -0.539416,-0.62755 0.03355,0 0.331118,0.28239 0.661323,0.62755 z m 15.908896,-0.59146 c 0,0.0199 -0.288008,0.31637 -0.640013,0.65893 l -0.640013,0.62283 0.604952,-0.65893 c 0.562137,-0.61228 0.675074,-0.71648 0.675074,-0.62283 z m -13.897426,2.81402 c 0,0.0942 -0.109453,-0.005 -0.614629,-0.55955 l -0.543491,-0.59618 0.57906,0.55956 c 0.31848,0.30775 0.57906,0.57603 0.57906,0.59617 z m 11.825003,-0.52817 c -0.296115,0.31064 -0.565822,0.56479 -0.599347,0.56479 -0.03355,0 0.181325,-0.25415 0.47744,-0.56479 0.296114,-0.31064 0.565822,-0.5648 0.599346,-0.5648 0.03354,0 -0.181325,0.25416 -0.477439,0.5648 z m -10.362117,2.1598 c 0,0.0942 -0.109452,-0.005 -0.614628,-0.55955 l -0.543491,-0.59617 0.57906,0.55955 c 0.31848,0.30775 0.579059,0.57603 0.579059,0.59617 z m 8.89923,-0.52817 c -0.296114,0.31064 -0.565823,0.56479 -0.599347,0.56479 -0.03355,0 0.181325,-0.25415 0.47744,-0.56479 0.296114,-0.31064 0.565822,-0.5648 0.599347,-0.5648 0.0335,0 -0.181325,0.25416 -0.47744,0.5648 z m -7.436343,2.1598 c 0,0.0942 -0.109452,-0.005 -0.614629,-0.55955 l -0.543489,-0.59617 0.579059,0.55955 c 0.318485,0.30775 0.579059,0.57603 0.579059,0.59617 z m 5.973456,-0.52817 c -0.296114,0.31064 -0.565822,0.56479 -0.599346,0.56479 -0.03355,0 0.181325,-0.25415 0.477439,-0.56479 0.296115,-0.31064 0.565822,-0.5648 0.599347,-0.5648 0.03354,0 -0.181325,0.25416 -0.47744,0.5648 z m -4.937244,1.69439 c 0.330205,0.34515 0.57294,0.62755 0.539415,0.62755 -0.0335,0 -0.331117,-0.2824 -0.661322,-0.62755 -0.330206,-0.34516 -0.57294,-0.62755 -0.539416,-0.62755 0.0335,0 0.331117,0.28239 0.661323,0.62755 z m 3.961986,-0.59146 c 0,0.0198 -0.288008,0.31637 -0.640013,0.65893 l -0.640013,0.62283 0.604953,-0.65893 c 0.562137,-0.61228 0.675073,-0.71648 0.675073,-0.62283 z m -2.742914,1.97207 c 0.121355,0.13806 0.193218,0.25102 0.159694,0.25102 -0.03355,0 -0.160246,-0.11296 -0.281602,-0.25102 -0.121355,-0.13806 -0.193217,-0.25102 -0.159693,-0.25102 0.0335,0 0.160246,0.11296 0.281601,0.25102 z m 1.15812,-0.20772 c 0,0.0238 -0.123429,0.1509 -0.274291,0.2824 l -0.274293,0.23909 0.232235,-0.28239 c 0.218238,-0.26539 0.316349,-0.33954 0.316349,-0.2391 z m -0.609537,1.46282 c 0,0.069 -0.05486,0.12551 -0.121907,0.12551 -0.06705,0 -0.121908,-0.0565 -0.121908,-0.12551 0,-0.069 0.05486,-0.12551 0.121908,-0.12551 0.06705,0 0.121907,0.0565 0.121907,0.12551 z"
       id="path2138" />
    <path
       style="fill:#000000;stroke-width:0.123696"
       d="m 140.64192,66.87922 c -0.0436,0.0424 -0.0975,0.31212 -0.11977,0.59938 -0.0222,0.28726 -1.25686,3.89607 -2.74365,8.019584 -3.14096,8.711234 -2.82087,7.852229 -2.89803,7.777276 -0.0338,-0.03283 0.0273,-0.26604 0.13581,-0.518253 0.1085,-0.252214 0.16646,-0.488493 0.12881,-0.525065 -0.0377,-0.03657 -0.15468,0.133932 -0.26006,0.378898 -0.10538,0.244966 -0.24073,0.445393 -0.30078,0.445393 -0.06,0 -0.13677,0.102458 -0.17049,0.227684 -0.0396,0.147207 -0.21117,0.249631 -0.4853,0.289777 -0.39652,0.05807 -0.51755,-0.02232 -1.86737,-1.240296 C 131.26724,81.617285 121.97636,73.2805 111.41468,63.8074 93.056112,47.341032 90.140722,44.683062 90.140722,44.411842 c 0,-0.27122 2.91539,-2.92919 21.273958,-19.39556 10.56168,-9.47309 19.85256,-17.8098892 20.64641,-18.5261992 1.34982,-1.21798 1.47085,-1.29836 1.86737,-1.2403 0.27413,0.0401 0.44567,0.14257 0.4853,0.28978 0.0337,0.12522 0.11043,0.22768 0.17049,0.22768 0.06,0 0.1954,0.20043 0.30078,0.4454 0.10538,0.24496 0.22241,0.41546 0.26006,0.37889 0.0376,-0.0366 -0.0203,-0.27285 -0.12881,-0.52505 -0.10849,-0.25222 -0.16961,-0.48544 -0.13581,-0.51826 0.0771,-0.0749 -0.24396,-0.93618 2.89949,7.7772692 1.48758,4.12352 2.72062,7.6893 2.74007,7.92397 0.0195,0.23468 0.0755,0.56483 0.12462,0.73367 0.0836,0.28742 -0.4054,0.6994 -7.6673,6.46015 -4.26611,3.38423 -10.50994,8.33849 -13.87517,11.00945 -3.36525,2.67097 -6.11862,4.90257 -6.11862,4.95911 0,0.0565 2.75337,2.28814 6.11862,4.95911 3.36523,2.670958 9.60622,7.622968 13.86886,11.004448 4.26264,3.38148 7.75025,6.21083 7.75025,6.28744 0,0.0766 -0.0357,0.17398 -0.0794,0.21638 z m -0.42267,1.12167 c -0.14827,0.33513 -0.14827,0.52761 0,0.30477 0.0669,-0.10058 0.11856,-0.26515 0.11476,-0.36572 -0.005,-0.12058 -0.0437,-0.0998 -0.11476,0.061 z m 0,-47.482868 c -0.14827,-0.22284 -0.14827,-0.0304 0,0.30477 0.0711,0.16076 0.11022,0.18153 0.11476,0.0609 0.004,-0.10057 -0.0478,-0.26515 -0.11476,-0.36572 z m -0.7417,49.616248 c -0.0586,0.10057 -0.14102,0.32 -0.1832,0.48762 -0.0639,0.25404 -0.0465,0.24389 0.10467,-0.0609 0.19373,-0.39068 0.25664,-0.73245 0.0785,-0.42667 z M 139.3195,18.079882 c -0.0808,-0.12709 -0.0907,-0.0899 -0.0324,0.1219 0.0462,0.16763 0.13628,0.38706 0.20025,0.48763 0.0808,0.12709 0.0907,0.0899 0.0324,-0.1219 -0.0462,-0.16763 -0.13628,-0.38706 -0.20025,-0.48763 z M 125.95528,55.71996 c -7.39647,-5.86785 -13.5245,-10.710298 -13.61784,-10.760998 -0.57497,-0.31236 1.95932,1.72709 13.63641,10.973818 7.17918,5.68496 13.16014,10.42424 13.29103,10.53171 0.13089,0.10748 0.21561,0.13441 0.18827,0.0598 -0.0273,-0.0746 -6.10138,-4.93653 -13.49787,-10.80437 z m 13.29126,-33.349188 c -0.1208,0.1011 -6.09351,4.83516 -13.27269,10.52013 -11.68475,9.2528 -14.45357,11.48385 -13.53019,10.90231 0.60085,-0.3784 27.01341,-21.39281 27.01782,-21.49595 0.002,-0.0607 -0.0941,-0.0276 -0.21494,0.0735 z m -4.23596,41.160938 c -2.07092,-1.63877 -8.1053,-6.42324 -13.40975,-10.63215 -5.30444,-4.208918 -9.66143,-7.634768 -9.6822,-7.612998 -0.0369,0.0387 26.35811,21.024258 27.02269,21.484578 l 0.3366,0.23315 -0.25102,-0.2465 c -0.13806,-0.13557 -1.9454,-1.5873 -4.01632,-3.22608 z m 3.89937,-41.469538 c -0.92022,0.67386 -27.02293,21.44181 -26.99132,21.47495 0.0208,0.0218 4.34952,-3.38196 9.61945,-7.56385 5.26993,-4.18189 11.40315,-9.04875 13.62939,-10.81523 2.22623,-1.76649 4.0477,-3.236 4.0477,-3.26559 0,-0.0296 -0.13735,0.0468 -0.30522,0.16972 z M 124.74178,56.25535 C 117.29915,50.35361 110.98276,45.274472 110.70536,44.968382 l -0.50436,-0.55654 0.50445,-0.55664 c 0.27745,-0.30614 6.68932,-5.46371 14.24861,-11.46124 l 13.74415,-10.90461 -0.23021,-0.63805 c -0.12661,-0.35093 -1.22708,-3.40384 -2.44548,-6.78425 -1.2184,-3.380409 -2.25609,-6.2170392 -2.30597,-6.3036192 -0.0617,-0.107 -6.64828,5.7256192 -20.56972,18.2150292 -11.26346,10.10483 -20.479018,18.39986 -20.479018,18.43338 0,0.1039 40.951568,36.805951 41.007198,36.751912 0.0289,-0.02802 1.16796,-3.138273 2.53134,-6.911674 2.30042,-6.36678 2.46408,-6.87533 2.27319,-7.06351 -0.11313,-0.11153 -6.29513,-5.03148 -13.73776,-10.93322 z m 13.72033,16.68278 c -0.0669,0.10058 -0.12166,0.23772 -0.12166,0.30477 0,0.0671 0.0547,0.0396 0.12166,-0.0609 0.0669,-0.10057 0.12166,-0.23772 0.12166,-0.30477 0,-0.067 -0.0547,-0.0396 -0.12166,0.061 z m 0,-57.296398 c -0.0669,-0.10057 -0.12166,-0.128 -0.12166,-0.061 0,0.0671 0.0547,0.2042 0.12166,0.30477 0.0669,0.10057 0.12166,0.128 0.12166,0.061 0,-0.0671 -0.0547,-0.2042 -0.12166,-0.30477 z M 136.84184,77.4487 c -0.0586,0.100574 -0.14102,0.320007 -0.1832,0.487629 -0.0639,0.254036 -0.0465,0.24389 0.10466,-0.06095 0.19374,-0.390679 0.25665,-0.732456 0.0785,-0.426675 z m -0.15805,-66.683257 c -0.0808,-0.12708 -0.0907,-0.0899 -0.0324,0.12191 0.0461,0.16763 0.13628,0.387049 0.20025,0.487619 0.0808,0.1271 0.0907,0.0899 0.0324,-0.12189 -0.0462,-0.167629 -0.13628,-0.387059 -0.20025,-0.487639 z m -0.72052,69.121402 c -0.0586,0.100574 -0.14102,0.320007 -0.1832,0.487629 -0.0639,0.254036 -0.0465,0.24389 0.10466,-0.06095 0.19374,-0.390679 0.25665,-0.732456 0.0785,-0.426675 z M 135.80522,8.3273028 c -0.0808,-0.12709 -0.0907,-0.0899 -0.0324,0.12191 0.0462,0.16762 0.13628,0.3870498 0.20025,0.4876298 0.0808,0.12708 0.0907,0.0899 0.0324,-0.12191 -0.0462,-0.1676198 -0.13628,-0.3870598 -0.20025,-0.4876298 z m -1.97627,74.6617412 c -0.0631,0.0379 -0.14012,-6e-6 -0.17108,-0.08423 -0.0309,-0.08423 -0.0926,-0.120807 -0.137,-0.08128 -0.0444,0.03952 0.0326,0.171455 0.17108,0.293185 0.23283,0.204659 0.25179,0.20559 0.25179,0.01238 0,-0.114923 -0.0517,-0.177941 -0.11479,-0.140043 z m -0.137,-77.2820712 c -0.13848,0.12172 -0.21547,0.25366 -0.17108,0.29319 0.0444,0.0395 0.10604,0.003 0.137,-0.0813 0.031,-0.0842 0.10795,-0.12214 0.17108,-0.0842 0.0631,0.0379 0.11479,-0.0251 0.11479,-0.14005 0,-0.19321 -0.019,-0.19228 -0.25179,0.0124 z M 128.85567,77.921857 C 126.4369,75.750725 117.42841,67.66372 108.83681,59.95073 100.24521,52.23774 92.933322,45.685382 92.588172,45.389942 l -0.62755,-0.53719 0.62755,0.6187 c 0.97548,0.96173 40.763318,36.649569 40.711348,36.516193 -0.0254,-0.06505 -2.02508,-1.894657 -4.44385,-4.065788 z M 113.26596,24.738852 c -11.02764,9.89707 -20.332638,18.27511 -20.677788,18.61787 -0.9599,0.95323 -0.7684,0.78253 15.380658,-13.71032 8.3213,-7.4679 17.42625,-15.63518 20.23323,-18.14952 2.80698,-2.5143294 5.10597,-4.6122792 5.10887,-4.6621092 0.003,-0.0498 -9.01734,8.0069992 -20.04497,17.9040792 z M 112.10499,63.54783 C 92.043972,45.556012 90.903292,44.538492 91.835112,45.466532 c 0.47649,0.47456 40.249398,36.17674 41.041798,36.841202 1.6787,1.407664 -3.51244,-3.280647 -20.77192,-18.759904 z M 132.84553,6.5204728 c -0.18984,0.17116 -9.38188,8.4169392 -20.42677,18.3239392 -11.04489,9.90701 -20.307528,18.23435 -20.583648,18.50521 l -0.50204,0.49248 0.51491,-0.4161 c 0.81354,-0.6574 41.342698,-37.0770492 41.342698,-37.1506892 0,-0.0363 -0.15532,0.074 -0.34515,0.24516 z m -1.12435,73.3663722 c -0.0942,0 0.005,0.109452 0.55956,0.614631 l 0.59617,0.543488 -0.55955,-0.57906 c -0.30776,-0.318482 -0.57604,-0.579059 -0.59618,-0.579059 z m 0.52818,-71.5595422 c -0.31064,0.29611 -0.5648,0.5658198 -0.5648,0.5993498 0,0.0335 0.25416,-0.18133 0.5648,-0.4774398 0.31064,-0.29612 0.56479,-0.56583 0.56479,-0.59936 0,-0.0335 -0.25415,0.18134 -0.56479,0.47745 z m -2.15981,70.0966552 c -0.0942,0 0.005,0.109452 0.55955,0.614631 l 0.59618,0.543488 -0.55955,-0.579059 c -0.30776,-0.318483 -0.57604,-0.57906 -0.59618,-0.57906 z m 0.52818,-68.6337754 c -0.31064,0.2961204 -0.5648,0.5658204 -0.5648,0.5993504 0,0.0335 0.25416,-0.18132 0.5648,-0.4774404 0.31063,-0.29611 0.56479,-0.56582 0.56479,-0.59934 0,-0.0335 -0.25416,0.18132 -0.56479,0.47743 z m -2.15981,67.1708894 c -0.0942,0 0.005,0.109452 0.55955,0.614631 l 0.59618,0.543487 -0.55956,-0.579059 c -0.30775,-0.318483 -0.57602,-0.579059 -0.59617,-0.579059 z m 0.52818,-65.70799 c -0.31064,0.29611 -0.5648,0.56582 -0.5648,0.59934 0,0.0335 0.25416,-0.18133 0.5648,-0.47745 0.31063,-0.296109 0.56479,-0.565819 0.56479,-0.599339 0,-0.0335 -0.25416,0.18133 -0.56479,0.477449 z m -2.28532,64.123196 c -0.0942,0 0.005,0.109452 0.55955,0.61463 l 0.59618,0.543488 -0.55956,-0.579059 c -0.30775,-0.318483 -0.57602,-0.579059 -0.59617,-0.579059 z m 0.52818,-62.538406 c -0.31064,0.29611 -0.5648,0.56582 -0.5648,0.59934 0,0.0335 0.25416,-0.18132 0.5648,-0.47743 0.31063,-0.29612 0.56479,-0.56583 0.56479,-0.59936 0,-0.0335 -0.25416,0.18133 -0.56479,0.47745 z m -2.15981,61.075518 c -0.0942,0 0.005,0.10945 0.55955,0.61463 l 0.59617,0.543489 -0.55955,-0.579059 c -0.30775,-0.31848 -0.57603,-0.57906 -0.59617,-0.57906 z m 0.52817,-59.612638 c -0.31063,0.29611 -0.56479,0.56582 -0.56479,0.59935 0,0.0335 0.25416,-0.18133 0.56479,-0.47744 0.31064,-0.29611 0.5648,-0.56582 0.5648,-0.59935 0,-0.0335 -0.25416,0.18133 -0.5648,0.47744 z m -2.1598,58.149748 c -0.0942,0 0.005,0.10946 0.55955,0.61463 l 0.59617,0.54349 -0.55955,-0.57906 c -0.30775,-0.31848 -0.57603,-0.57906 -0.59617,-0.57906 z m 0.52817,-56.686858 c -0.31063,0.29612 -0.56479,0.56582 -0.56479,0.59935 0,0.0335 0.25416,-0.18133 0.56479,-0.47745 0.31064,-0.29611 0.5648,-0.56582 0.5648,-0.59934 0,-0.0335 -0.25416,0.18133 -0.5648,0.47744 z m -2.1598,55.223978 c -0.0942,0 0.005,0.10945 0.55955,0.61463 l 0.59617,0.54349 -0.55955,-0.57906 c -0.30775,-0.31849 -0.57603,-0.57906 -0.59617,-0.57906 z m 0.52817,-53.761088 c -0.31064,0.29611 -0.56479,0.56582 -0.56479,0.59934 0,0.0335 0.25415,-0.18132 0.56479,-0.47744 0.31064,-0.29611 0.5648,-0.56582 0.5648,-0.59934 0,-0.0335 -0.25416,0.18132 -0.5648,0.47744 z m -1.69438,52.724878 c -0.34516,-0.33021 -0.62756,-0.57295 -0.62756,-0.53942 0,0.0335 0.2824,0.33112 0.62756,0.66132 0.34515,0.33021 0.62755,0.57294 0.62755,0.53942 0,-0.0335 -0.2824,-0.33112 -0.62755,-0.66132 z m 0.59145,-51.749628 c -0.0199,0 -0.31637,0.28801 -0.65893,0.64002 l -0.62283,0.64001 0.65893,-0.60495 c 0.61228,-0.56214 0.71648,-0.67508 0.62283,-0.67508 z m -2.81402,49.738158 c -0.0942,0 0.005,0.10945 0.55956,0.61463 l 0.59617,0.54348 -0.55955,-0.57906 c -0.30776,-0.31848 -0.57603,-0.57905 -0.59618,-0.57905 z m 0.52818,-47.665728 c -0.31064,0.29611 -0.5648,0.56582 -0.5648,0.59934 0,0.0335 0.25416,-0.18132 0.5648,-0.47744 0.31064,-0.29611 0.56479,-0.56582 0.56479,-0.59934 0,-0.0336 -0.25415,0.18132 -0.56479,0.47744 z m -2.15981,46.202838 c -0.0942,0 0.005,0.10945 0.55955,0.61463 l 0.59618,0.54349 -0.55956,-0.57906 c -0.30775,-0.31848 -0.57602,-0.57906 -0.59617,-0.57906 z m 0.52818,-44.739958 c -0.31064,0.29612 -0.5648,0.56583 -0.5648,0.59935 0,0.0335 0.25416,-0.18132 0.5648,-0.47744 0.31063,-0.29611 0.56479,-0.56582 0.56479,-0.59935 0,-0.0335 -0.25416,0.18133 -0.56479,0.47744 z m -2.15981,43.277068 c -0.0942,0 0.005,0.10945 0.55955,0.61463 l 0.59618,0.54349 -0.55956,-0.57906 c -0.30775,-0.31848 -0.57602,-0.57906 -0.59617,-0.57906 z m 0.52818,-41.814178 c -0.31064,0.29611 -0.5648,0.56582 -0.5648,0.59935 0,0.0335 0.25416,-0.18133 0.5648,-0.47744 0.31063,-0.29612 0.56479,-0.56582 0.56479,-0.59935 0,-0.0335 -0.25416,0.18133 -0.56479,0.47744 z m -1.69439,40.777968 c -0.34515,-0.3302 -0.62755,-0.57294 -0.62755,-0.53942 0,0.0335 0.2824,0.33112 0.62755,0.66133 0.34515,0.3302 0.62755,0.57294 0.62755,0.53941 0,-0.0335 -0.2824,-0.33112 -0.62755,-0.66132 z m 0.59145,-39.802708 c -0.0199,0 -0.31637,0.28801 -0.65892,0.64001 l -0.62284,0.64001 0.65893,-0.60495 c 0.61229,-0.56213 0.71649,-0.67507 0.62283,-0.67507 z m -2.81401,37.791238 c -0.0942,0 0.005,0.10945 0.55955,0.61463 l 0.59617,0.54349 -0.55955,-0.57906 c -0.30775,-0.31848 -0.57603,-0.57906 -0.59617,-0.57906 z m 0.52817,-35.718818 c -0.31063,0.29612 -0.56479,0.56582 -0.56479,0.59935 0,0.0335 0.25416,-0.18133 0.56479,-0.47744 0.31064,-0.29612 0.5648,-0.56582 0.5648,-0.59935 0,-0.0335 -0.25416,0.18133 -0.5648,0.47744 z m -2.1598,34.255928 c -0.0942,0 0.005,0.10946 0.55955,0.61464 l 0.59617,0.54348 -0.55955,-0.57906 c -0.30775,-0.31848 -0.57603,-0.57906 -0.59617,-0.57906 z m 0.52817,-32.793038 c -0.31064,0.29611 -0.56479,0.56582 -0.56479,0.59934 0,0.0335 0.25415,-0.18132 0.56479,-0.47743 0.31064,-0.29612 0.5648,-0.56583 0.5648,-0.59935 0,-0.0335 -0.25416,0.18132 -0.5648,0.47744 z m -2.1598,31.330158 c -0.0942,0 0.005,0.10945 0.55955,0.61463 l 0.59617,0.54349 -0.55955,-0.57906 c -0.30775,-0.31849 -0.57603,-0.57906 -0.59617,-0.57906 z m 0.52817,-29.867268 c -0.31064,0.29611 -0.5648,0.56582 -0.5648,0.59934 0,0.0335 0.25416,-0.18132 0.5648,-0.47744 0.31064,-0.29611 0.5648,-0.56582 0.5648,-0.59934 0,-0.0335 -0.25416,0.18132 -0.5648,0.47744 z M 107.3356,58.0045 c -0.34515,-0.33021 -0.62755,-0.57295 -0.62755,-0.53942 0,0.0335 0.2824,0.33112 0.62755,0.66133 0.34516,0.3302 0.62755,0.57294 0.62755,0.53941 0,-0.0335 -0.28239,-0.33112 -0.62755,-0.66132 z m 0.59146,-27.855808 c -0.0199,0 -0.31637,0.28801 -0.65893,0.64002 l -0.62283,0.64001 0.65893,-0.60495 c 0.61228,-0.56214 0.71648,-0.67508 0.62283,-0.67508 z m -2.81402,25.844338 c -0.0942,0 0.005,0.10945 0.55956,0.61463 l 0.59617,0.54349 -0.55955,-0.57906 c -0.30776,-0.31849 -0.57603,-0.57906 -0.59618,-0.57906 z m 0.52818,-23.771908 c -0.31064,0.29611 -0.5648,0.56582 -0.5648,0.59934 0,0.0335 0.25416,-0.18132 0.5648,-0.47744 0.31064,-0.29611 0.56479,-0.56582 0.56479,-0.59934 0,-0.0335 -0.25415,0.18132 -0.56479,0.47744 z m -2.15981,22.309018 c -0.0942,0 0.005,0.10945 0.55955,0.61463 l 0.59618,0.54349 -0.55956,-0.57906 c -0.30775,-0.31848 -0.57602,-0.57906 -0.59617,-0.57906 z m 0.52818,-20.846138 c -0.31064,0.29612 -0.5648,0.56583 -0.5648,0.59935 0,0.0335 0.25416,-0.18133 0.5648,-0.47744 0.31063,-0.29611 0.56479,-0.56582 0.56479,-0.59935 0,-0.0335 -0.25416,0.18133 -0.56479,0.47744 z m -2.15981,19.383248 c -0.0942,0 0.005,0.10946 0.55955,0.61463 l 0.59618,0.54349 -0.55956,-0.57906 c -0.30775,-0.31848 -0.57602,-0.57906 -0.59617,-0.57906 z m 0.52818,-17.920358 c -0.31064,0.29611 -0.5648,0.56582 -0.5648,0.59935 0,0.0335 0.25416,-0.18133 0.5648,-0.47744 0.31063,-0.29612 0.56479,-0.56583 0.56479,-0.59935 0,-0.0336 -0.25416,0.18133 -0.56479,0.47744 z m -1.69439,16.884148 c -0.34515,-0.3302 -0.62755,-0.57294 -0.62755,-0.53941 0,0.0335 0.2824,0.33112 0.62755,0.66132 0.34515,0.33021 0.62755,0.57294 0.62755,0.53942 0,-0.0336 -0.2824,-0.33112 -0.62755,-0.66133 z m 0.59145,-15.908888 c -0.0199,0 -0.31637,0.28801 -0.65893,0.64001 l -0.622827,0.64001 0.658927,-0.60495 c 0.61229,-0.56214 0.71649,-0.67507 0.62283,-0.67507 z M 98.461013,50.01957 c -0.0942,0 0.005,0.10946 0.55955,0.61463 l 0.59617,0.54349 -0.55955,-0.57906 c -0.30775,-0.31848 -0.57603,-0.57906 -0.59617,-0.57906 z m 0.52817,-11.824998 c -0.31064,0.29612 -0.56479,0.56582 -0.56479,0.59935 0,0.0336 0.25415,-0.18133 0.56479,-0.47744 0.31064,-0.29612 0.5648,-0.56582 0.5648,-0.59935 0,-0.0335 -0.25416,0.18133 -0.5648,0.47744 z m -2.1598,10.36212 c -0.0942,0 0.005,0.10945 0.55955,0.61463 l 0.59617,0.543488 -0.55955,-0.579058 c -0.30775,-0.31848 -0.57603,-0.57906 -0.59617,-0.57906 z m 0.52817,-8.89923 c -0.31064,0.29611 -0.56479,0.56582 -0.56479,0.59934 0,0.0335 0.25415,-0.18132 0.56479,-0.47744 0.31064,-0.29611 0.5648,-0.56582 0.5648,-0.59934 0,-0.0335 -0.25416,0.18132 -0.5648,0.47744 z m -2.1598,7.43634 c -0.0942,0 0.005,0.10945 0.55955,0.61463 l 0.59617,0.54349 -0.55955,-0.57906 c -0.30775,-0.31849 -0.57603,-0.57906 -0.59617,-0.57906 z m 0.52817,-5.97346 c -0.31064,0.29612 -0.56479,0.56583 -0.56479,0.59935 0,0.0336 0.25415,-0.18132 0.56479,-0.47744 0.31064,-0.29611 0.5648,-0.56582 0.5648,-0.59935 0,-0.0335 -0.25416,0.18133 -0.5648,0.47744 z m -1.69439,4.93725 c -0.345151,-0.33021 -0.627551,-0.57294 -0.627551,-0.53942 0,0.0335 0.2824,0.33112 0.627551,0.66133 0.34516,0.3302 0.62755,0.57294 0.62755,0.53941 0,-0.0335 -0.28239,-0.33112 -0.62755,-0.66132 z m 0.59146,-3.96199 c -0.0199,0 -0.31637,0.28801 -0.658931,0.64002 l -0.62283,0.64001 0.658931,-0.60495 c 0.61228,-0.56214 0.71648,-0.67508 0.62283,-0.67508 z m -1.972071,2.74292 c -0.13806,-0.12136 -0.25102,-0.19322 -0.25102,-0.1597 0,0.0335 0.11296,0.16025 0.25102,0.2816 0.13806,0.12136 0.25102,0.19322 0.25102,0.1597 0,-0.0335 -0.11296,-0.16025 -0.25102,-0.2816 z m 0.20772,-1.15812 c -0.0238,0 -0.1509,0.12343 -0.2824,0.27429 l -0.23909,0.27429 0.28239,-0.23223 c 0.26539,-0.21824 0.33954,-0.31635 0.2391,-0.31635 z m -1.46282,0.60953 c -0.069,0 -0.12551,0.0549 -0.12551,0.12191 0,0.067 0.0565,0.12191 0.12551,0.12191 0.069,0 0.12551,-0.0549 0.12551,-0.12191 0,-0.0671 -0.0565,-0.12191 -0.12551,-0.12191 z"
       id="path2140" />
    <path
       style="fill:#000000;stroke:#000000;stroke-width:5.78025;stroke-linecap:round;stroke-linejoin:round;stroke-dasharray:1.44506, 1.44506;stroke-opacity:0.955017;paint-order:stroke markers fill"
       d="m 14.494601,179.38806 c -3.38744,-1.24356 -6.2632997,-2.36534 -6.3907897,-2.49283 -0.18978,-0.18978 14.9553097,-17.33528 32.2367897,-36.49471 l 3.43182,-3.80476 15.17051,16.88309 c 18.40182,20.47916 20.61769,23.05785 20.18522,23.49032 -0.18549,0.18549 -3.01612,1.3207 -6.2903,2.52268 l -5.95304,2.18543 -11.23338,-14.10051 c -6.17835,-7.75528 -11.58899,-14.01888 -12.02364,-13.91912 -0.43465,0.0998 -5.78166,6.43864 -11.88224,14.08641 l -11.09197,13.90503 z"
       id="path2317" />
    <path
       style="fill:#000000;stroke:#000000;stroke-width:5.78025;stroke-linecap:round;stroke-linejoin:round;stroke-dasharray:1.44506, 1.44506;stroke-opacity:0.955017;paint-order:stroke markers fill"
       d="m 14.494601,197.8936 c -3.38744,1.24356 -6.2632998,2.36534 -6.3907898,2.49283 -0.18978,0.18978 14.9553098,17.33528 32.2367898,36.49471 l 3.43182,3.80476 15.17051,-16.88309 c 18.40182,-20.47916 20.61769,-23.05785 20.18522,-23.49032 -0.18549,-0.18549 -3.01612,-1.3207 -6.2903,-2.52268 l -5.95304,-2.18543 -11.23338,14.10051 c -6.17835,7.75528 -11.58899,14.01888 -12.02364,13.91912 -0.43465,-0.0998 -5.78166,-6.43864 -11.88224,-14.08641 l -11.09197,-13.90503 z"
       id="path2735" />
    <path
       style="fill:#000000;stroke:#000000;stroke-width:5.78025;stroke-linecap:round;stroke-linejoin:round;stroke-dasharray:1.44506, 1.44506;stroke-opacity:0.955017;paint-order:stroke markers fill"
       d="m 141.56055,217.78588 c -1.24356,3.38744 -2.36534,6.2633 -2.49283,6.39079 -0.18978,0.18978 -17.33528,-14.95531 -36.49471,-32.23679 l -3.804759,-3.43182 16.883089,-15.17051 c 20.47916,-18.40182 23.05785,-20.61769 23.49032,-20.18522 0.18549,0.18549 1.3207,3.01612 2.52268,6.2903 l 2.18543,5.95304 -14.10051,11.23338 c -7.75528,6.17835 -14.01888,11.58899 -13.91912,12.02364 0.0998,0.43465 6.43864,5.78166 14.08641,11.88224 l 13.90503,11.09197 z"
       id="path2737" />
    <path
       style="fill:#000000;stroke:#000000;stroke-width:5.78025;stroke-linecap:round;stroke-linejoin:round;stroke-dasharray:1.44506, 1.44506;stroke-opacity:0.955017;paint-order:stroke markers fill"
       d="m 160.06608,222.00065 c 1.24356,3.38744 2.36534,6.2633 2.49283,6.39079 0.18978,0.18978 17.33528,-14.95531 36.49471,-32.23679 l 3.80476,-3.43182 -16.88309,-15.17051 c -20.47916,-18.40182 -23.05785,-20.61769 -23.49032,-20.18522 -0.18549,0.18549 -1.3207,3.01612 -2.52268,6.2903 l -2.18543,5.95304 14.10051,11.23338 c 7.75528,6.17835 14.01888,11.58899 13.91912,12.02364 -0.0998,0.43465 -6.43864,5.78166 -14.08641,11.88224 l -13.90503,11.09197 z"
       id="path2739" />
  </g>
</svg>
