<?xml version="1.0" encoding="UTF-8" standalone="no"?>
<!-- Created with Inkscape (http://www.inkscape.org/) -->

<svg
   width="210mm"
   height="297mm"
   viewBox="0 0 210 297"
   version="1.1"
   id="svg5"
   inkscape:version="1.1 (c68e22c387, 2021-05-23)"
   sodipodi:docname="svg.svg"
   xmlns:inkscape="http://www.inkscape.org/namespaces/inkscape"
   xmlns:sodipodi="http://sodipodi.sourceforge.net/DTD/sodipodi-0.dtd"
   xmlns="http://www.w3.org/2000/svg"
   xmlns:svg="http://www.w3.org/2000/svg">
  <sodipodi:namedview
     id="namedview7"
     pagecolor="#ffffff"
     bordercolor="#666666"
     borderopacity="1.0"
     inkscape:pageshadow="2"
     inkscape:pageopacity="0.0"
     inkscape:pagecheckerboard="0"
     inkscape:document-units="mm"
     showgrid="false"
     inkscape:zoom="0.28798615"
     inkscape:cx="395.85237"
     inkscape:cy="428.84007"
     inkscape:window-width="1680"
     inkscape:window-height="956"
     inkscape:window-x="-11"
     inkscape:window-y="-11"
     inkscape:window-maximized="1"
     inkscape:current-layer="layer1" />
  <defs
     id="defs2" />
  <g
     inkscape:label="Layer 1"
     inkscape:groupmode="layer"
     id="layer1">
    <path
       style="fill:#000000;stroke-width:0.0993613"
       d="m 92.678228,264.14603 c -0.22697,-0.0174 -1.29477,-0.0778 -2.37289,-0.13421 -6.50342,-0.34055 -13.91372,-1.37276 -19.86001,-2.76638 -3.22697,-0.75631 -4.01613,-0.95755 -6.19014,-1.57856 -2.44437,-0.69823 -2.54744,-0.72982 -4.17834,-1.28073 -0.62417,-0.21085 -1.55269,-0.52092 -2.06338,-0.68907 -1.66778,-0.54912 -5.84098,-2.17717 -7.84083,-3.05887 -2.48045,-1.0936 -2.98433,-1.32841 -5.05528,-2.35585 -7.26845,-3.60601 -13.80415,-7.81149 -19.97286,-12.8518 -2.25221,-1.84021 -4.40391,-3.79966 -7.30324,-6.65065 -0.76156,-0.74886 -3.27063,-3.45676 -4.14143,-4.46962 -1.51865,-1.76637 -2.70356,-3.22776 -3.5605,-4.39128 -0.13567,-0.18422 -0.3941597,-0.52871 -0.5744197,-0.76556 -0.85268,-1.12034 -1.26904,-1.70623 -2.38014,-3.3493 -1.0123,-1.49697 -2.45804,-3.77347 -2.45804,-3.87051 0,-0.0156 -0.24558,-0.43227 -0.54573,-0.92586 -0.50735,-0.83431 -2.85884,-5.20144 -2.85884,-5.30938 0,-0.0418 -0.1664,-0.40915 -0.51560004,-1.13832 -0.50597,-1.05654 -0.67401,-1.42565 -0.9945,-2.18443 -0.77073,-1.82476 -1.70372996,-4.23521 -2.09232996,-5.40566 -0.22165,-0.66758 -0.54228,-1.62287 -0.71251,-2.12288 -0.67253,-1.97537 -1.6331,-5.87433 -2.39295,-9.71296 -0.20448,-1.03304 -0.63107,-4.2624 -0.84309,-6.38235 -0.19042,-1.904 -0.22358,-2.88786 -0.22668,-6.72776 -0.002,-2.7426 0.0442,-4.98307 0.11905,-5.74166 0.0675,-0.68421 0.17167,-1.79632 0.23155,-2.47135 0.15417,-1.73811 0.75593,-5.49769 1.2418,-7.75833 0.45895,-2.13543 1.40733,-5.76406 1.8533,-7.09098 0.1592,-0.47368 0.4597,-1.37799 0.66778,-2.00958 0.34045,-1.03332 0.62936,-1.79163 1.84122996,-4.83256 1.01159,-2.53838 3.45612004,-7.36423 5.17800004,-10.22213 3.38398,-5.61656 6.7237097,-10.02232 11.5506397,-15.23755 1.83588,-1.98356 6.92966,-6.74384 9.01136,-8.42137 1.37355,-1.10686 4.25995,-3.3018 5.65585,-4.30095 2.39257,-1.71254 7.3987,-4.86156 9.60368,-6.04104 0.61098,-0.32683 1.55192,-0.83764 2.09098,-1.13515 1.51064,-0.833706 4.99021,-2.504956 7.37658,-3.542976 0.51068,-0.22214 1.2535,-0.54528 1.6507,-0.7181 0.3972,-0.17281 1.30251,-0.53704 2.01179,-0.80941 4.18272,-1.60614 6.66541,-2.45439 9.80105,-3.34867 0.76603,-0.21847 1.50885,-0.43642 1.6507,-0.48434 0.98306,-0.33204 6.1769,-1.55273 8.92411,-2.0974 4.25807,-0.8442 10.39526,-1.637 15.21742,-1.96579 3.1079,-0.2119 9.72341,-0.29207 12.844522,-0.15565 6.41179,0.28025 12.72548,1.00872 18.2609,2.10693 0.51069,0.10132 1.27672,0.25159 1.70229,0.33392 0.72496,0.14026 1.81223,0.391 4.79735,1.10631 0.68092,0.16316 1.58623,0.40009 2.0118,0.5265 0.42557,0.12641 1.33088,0.38858 2.01179,0.58259 1.7081,0.48668 2.19409,0.63648 3.55933,1.09714 0.65254,0.22018 1.48821,0.49799 1.85704,0.61735 1.00931,0.32666 4.4463,1.61772 5.72587,2.15086 1.38436,0.5768 4.45127,1.91989 5.10677,2.23641 0.42563,0.20552 1.40061,0.67624 2.16664,1.04605 0.76603,0.36981 1.53206,0.747006 1.70229,0.838206 1.22217,0.65477 4.01249,2.18943 4.43626,2.43991 1.89883,1.12234 4.24492,2.56896 5.01892,3.0947 0.20698,0.14059 0.92356,0.62164 1.59241,1.06901 1.73554,1.16086 4.69371,3.36887 6.93555,5.17679 3.74907,3.02341 9.28527,8.39291 11.98743,11.62648 1.83151,2.1917 2.51548,3.03153 3.04348,3.73703 0.22697,0.30328 0.70579,0.94098 1.06405,1.4171 4.74408,6.30496 9.38285,15.03242 11.67539,21.96626 0.23493,0.71053 0.46785,1.39953 0.51762,1.53111 0.47942,1.26752 1.47007,4.96768 2.01519,7.52691 0.52872,2.4822 1.13832,6.29153 1.29126,8.06894 0.0567,0.65917 0.12364,1.34921 0.14871,1.53342 0.27056,1.98811 0.31061,9.86737 0.062,12.20102 -0.0561,0.52632 -0.153,1.49522 -0.21539,2.15312 -0.11882,1.25272 -0.55802,4.49019 -0.7205,5.31103 -0.75985,3.83863 -1.72042,7.73759 -2.39295,9.71296 -0.17023,0.50001 -0.49326,1.46257 -0.71786,2.13904 -0.55002,1.65668 -2.02998,5.34508 -2.78944,6.95192 -0.11195,0.23684 -0.27297,0.58134 -0.35781,0.76555 -0.53456,1.16054 -0.90324,1.89475 -1.84999,3.68423 -0.50122,0.94737 -1.08081,2.0024 -1.28796,2.34451 -0.20716,0.34211 -0.52951,0.88039 -0.71635,1.19618 -0.88622,1.49793 -1.34239,2.21927 -2.29957,3.63638 -1.17041,1.73281 -1.72072,2.51591 -2.36238,3.36177 -0.57307,0.75545 -1.30272,1.72662 -1.57359,2.09445 -0.11694,0.15882 -0.63046,0.78253 -1.14114,1.38605 -0.51069,0.60352 -1.09323,1.30056 -1.29456,1.54898 -0.20131,0.24842 -0.94401,1.08882 -1.65043,1.86756 -7.91834,8.7289 -17.9299,16.30331 -28.93421,21.89065 -4.06742,2.06521 -6.85356,3.2861 -11.96759,5.24422 -2.75546,1.05505 -8.87093,2.95006 -11.70967,3.6285 -4.85347,1.15995 -7.01689,1.59458 -11.09066,2.22815 -3.44248,0.53539 -6.58232,0.87849 -10.6264,1.16121 -1.96305,0.13722 -11.156822,0.26315 -12.380262,0.16957 z m 11.761252,-3.87226 c 6.84983,-0.40321 13.29184,-1.34841 19.82686,-2.90908 5.16907,-1.23447 9.77736,-2.68206 14.94106,-4.69341 4.24002,-1.65157 10.09028,-4.44733 13.66988,-6.53267 2.13879,-1.24598 4.15515,-2.49493 5.88063,-3.64254 1.68219,-1.1188 5.0482,-3.55203 6.25089,-4.51867 0.85695,-0.68875 2.97857,-2.42126 3.03431,-2.4778 0.0284,-0.0288 0.74208,-0.66897 1.58602,-1.42264 0.84393,-0.75367 2.02433,-1.85111 2.6231,-2.43876 0.59877,-0.58765 1.37334,-1.34835 1.72127,-1.69046 0.76414,-0.75136 2.75215,-2.91138 3.66906,-3.98653 1.44907,-1.69916 1.72861,-2.03958 2.67562,-3.2583 1.69976,-2.18749 2.08643,-2.71295 3.22456,-4.38202 1.02869,-1.50859 2.02512,-3.07697 3.07025,-4.83256 0.7515,-1.26236 2.84647,-5.26456 3.50641,-6.69859 0.67459,-1.46586 2.03253,-4.75769 2.42776,-5.8852 0.86803,-2.47637 1.34699,-3.99344 1.84295,-5.83735 0.52564,-1.95426 0.74277,-2.88059 1.28966,-5.50242 0.27458,-1.31636 0.80311,-4.99323 0.93538,-6.50721 0.0575,-0.65789 0.15356,-1.73445 0.2135,-2.39235 0.14555,-1.59729 0.14634,-7.51199 10e-4,-9.42589 -0.634,-8.36427 -2.21352,-15.2817 -5.18952,-22.72738 -2.87263,-7.18704 -7.56839,-15.04627 -12.53153,-20.97387 -0.41091,-0.49074 -1.03766,-1.24139 -1.39278,-1.66809 -0.57595,-0.69201 -1.21347,-1.39488 -2.20402,-2.42993 -0.1763,-0.18421 -0.65016,-0.68534 -1.05303,-1.11361 -0.87057,-0.92547 -2.81076,-2.83667 -3.62963,-3.57541 -2.55632,-2.30617 -3.41374,-3.03735 -5.67502,-4.83947 -1.92099,-1.53092 -4.78898,-3.60828 -6.60282,-4.78257 -0.1986,-0.12858 -0.50476,-0.33082 -0.68035,-0.44943 -0.30687,-0.20729 -2.18271,-1.36958 -3.91066,-2.4231 -0.45394,-0.27676 -1.21997,-0.71666 -1.70229,-0.97755 -0.48231,-0.26089 -1.41083,-0.76508 -2.06338,-1.12042 -2.65751,-1.44713 -8.22697,-4.04176 -10.42006,-4.854356 -0.42557,-0.15768 -1.35409,-0.51428 -2.06338,-0.79243 -0.70928,-0.27815 -2.14849,-0.79299 -3.19823,-1.14407 -1.04975,-0.35109 -2.07112,-0.69538 -2.26972,-0.76511 -0.3604,-0.12653 -3.0282,-0.91439 -4.59101,-1.35583 -0.93003,-0.26269 -4.52371,-1.14327 -5.46796,-1.33983 -4.71101,-0.98068 -8.31351,-1.56007 -12.12234,-1.94965 -1.04975,-0.10738 -2.0074,-0.21552 -2.12813,-0.24032 -0.12072,-0.0248 -1.62957,-0.13421 -3.35299,-0.24313 -3.60371,-0.22774 -10.415952,-0.27684 -13.295622,-0.0958 -4.3514,0.27353 -8.75547,0.71603 -11.40017,1.14541 -0.62417,0.10134 -1.48305,0.23234 -1.90862,0.29111 -2.34443,0.32379 -10.27712,2.08589 -12.07075,2.68131 -0.14185,0.0471 -0.88467,0.26552 -1.6507,0.48539 -7.50524,2.15424 -16.2878,5.912306 -23.16142,9.910816 -2.37698,1.38272 -6.19056,3.8427 -8.05803,5.19788 -0.40318,0.29257 -1.2343,0.89555 -1.84694,1.33995 -0.61264,0.44439 -1.37378,1.02754 -1.69142,1.29587 -0.31765,0.26834 -1.08778,0.89518 -1.7114,1.39298 -4.68266,3.73786 -10.53057,9.75589 -14.23065,14.64461 -1.09724,1.44973 -2.77271,3.81155 -3.6944897,5.20794 -2.35823,3.57239 -5.37538,9.27707 -6.73138,12.72733 -0.20685,0.52632 -0.43961,1.10766 -0.51725,1.29187 -1.16821,2.77176 -2.71527004,7.82613 -3.44513004,11.25552 -0.85143996,4.00066 -1.14400996,5.96907 -1.45616996,9.79722 -0.0579,0.71053 -0.13087,1.59331 -0.16206,1.96173 -0.0972,1.14817 -0.0547,7.40339 0.0588,8.66033 0.0594,0.6579 0.15506,1.73446 0.21254,2.39235 0.13227,1.51398 0.66081,5.19085 0.93539,6.50721 0.54111996,2.59419 0.75969996,3.5328 1.23678996,5.31103 1.04728004,3.90347 2.51255004,7.95644 4.23803004,11.72255 0.71798,1.56709 2.9225,5.79253 3.6446,6.98568 2.4220397,4.00198 3.7441797,5.92652 6.3432997,9.23349 4.38754,5.58244 8.94777,10.12817 15.20825,15.15988 2.12291,1.70625 6.88489,5.02132 9.26857,6.45238 2.12061,1.27312 2.64627,1.5837 3.37879,1.99631 2.94078,1.6565 6.44721,3.39844 9.5947,4.7665 1.86248,0.80954 2.90267,1.23151 5.46796,2.2182 8.98342,3.45527 21.49045,6.16129 31.31176,6.77458 0.90789,0.0567 1.92926,0.12818 2.26972,0.15884 1.08286,0.0975 5.902,0.18582 8.25351,0.15122 1.248342,-0.0184 3.708922,-0.11812 5.467952,-0.22166 z M 80.710628,235.82296 c -1.60848,-0.21448 -3.64752,-1.01996 -5.03638,-1.98951 -2.21345,-1.54521 -3.80857,-3.94988 -4.4184,-6.66084 -0.20946,-0.9311 -0.18281,-3.59486 0.0448,-4.47553 0.60716,-2.34956 1.57014,-4.00737 3.21283,-5.53105 1.54964,-1.43737 3.08455,-2.23092 5.475,-2.83058 0.70195,-0.1761 3.73585,-0.17584 4.43626,0 1.61598,0.40655 3.08155,1.0224 4.13122,1.73601 2.23181,1.5173 3.7274,3.63764 4.4903,6.36598 0.20581,0.73602 0.24091,1.09925 0.24485,2.53384 0.003,1.07398 -0.0451,1.8772 -0.13414,2.23938 -0.57158,2.32658 -1.61296,4.13679 -3.25723,5.66193 -1.4961,1.38771 -3.01744,2.19625 -5.21707,2.7727 -0.55573,0.14564 -3.29311,0.26783 -3.97201,0.1773 z m 2.5915,-3.72256 c 3.49434,-0.54917 6.05945,-3.54668 6.05945,-7.08091 0,-3.57019 -2.57965,-6.5458 -6.1491,-7.09294 -0.925,-0.14179 -1.0868,-0.14179 -2.01179,0 -2.58622,0.39643 -4.81153,2.16345 -5.67868,4.5092 -0.47331,1.28038 -0.5949,2.41554 -0.39226,3.66238 0.28065,1.72684 0.96481,2.98607 2.28212,4.20031 0.69249,0.63832 1.02475,0.86115 1.81528,1.2174 0.63347,0.28546 1.25266,0.4836 1.79299,0.57372 1.07934,0.18003 1.20176,0.18062 2.28199,0.0109 z m 29.339282,3.7237 c -1.18082,-0.19923 -2.35603,-0.56676 -3.36553,-1.05253 -3.10081,-1.49207 -5.18883,-4.10693 -6.03729,-7.56055 -0.089,-0.36217 -0.1371,-1.16539 -0.13414,-2.23938 0.004,-1.43459 0.039,-1.79782 0.24485,-2.53384 0.62341,-2.22953 1.56197,-3.80204 3.14652,-5.27177 1.52474,-1.41427 3.11561,-2.23665 5.47499,-2.83022 0.70042,-0.1762 3.73431,-0.17646 4.43626,0 1.69755,0.42584 3.02869,0.98716 4.15274,1.75113 0.75301,0.51179 1.92795,1.59942 2.47205,2.28836 0.94523,1.19686 1.6216,2.61386 2.06305,4.32215 0.22757,0.88066 0.25422,3.54443 0.0448,4.47552 -0.96101,4.27205 -4.00379,7.30072 -8.5222,8.48268 -0.51076,0.13361 -3.4461,0.25824 -3.97607,0.16882 z m 2.64308,-3.72676 c 2.46501,-0.39564 4.53238,-2.02734 5.54589,-4.37718 0.67718,-1.57004 0.69314,-3.52605 0.0431,-5.28441 -0.86716,-2.34575 -3.09247,-4.11277 -5.67868,-4.5092 -0.925,-0.14179 -1.08679,-0.14179 -2.01179,0 -3.56945,0.54714 -6.14911,3.52275 -6.14911,7.09294 0,2.84912 1.59929,5.32297 4.21077,6.51347 0.61988,0.28257 1.2091,0.47018 1.75779,0.55966 1.0856,0.17705 1.20677,0.17731 2.28199,0.005 z m -63.048482,1.47635 c -1.36299,-0.18232 -2.9578,-0.78588 -4.30917,-1.63081 -0.93727,-0.586 -2.82025,-2.38303 -3.49436,-3.33486 -1.56173,-2.20508 -2.49554,-4.47053 -3.03261,-7.3572 -0.47777,-2.56797 -0.2837,-6.14853 0.4716,-8.70055 1.4509,-4.90237 4.75065,-8.63202 8.7166,-9.85225 1.44112,-0.4434 2.17511,-0.53747 3.65065,-0.46788 2.66761,0.1258 4.78037,1.01065 6.91765,2.89721 2.75025,2.42759 4.56352,6.07142 5.12158,10.29201 0.22243,1.68216 0.14696,4.63851 -0.15589,6.10729 -0.54897,2.66242 -1.50487,5.00238 -2.75145,6.73533 -0.22277,0.30969 -0.51686,0.71878 -0.65355,0.9091 -0.39175,0.54548 -2.37073,2.33019 -3.05288,2.7532 -2.37176,1.47071 -4.77486,2.00431 -7.42817,1.64941 z m 2.99243,-3.75579 c 2.68598,-0.66352 5.08519,-3.14382 6.2929,-6.50559 1.44651,-4.02646 1.17321,-8.72295 -0.71878,-12.35145 -1.38766,-2.6613 -3.50818,-4.48573 -5.7294,-4.92939 -3.36259,-0.67164 -6.67725,1.4159 -8.54985,5.3846 -1.48211,3.14115 -1.80411,7.27261 -0.83983,10.77568 1.07401,3.90172 3.63422,6.85554 6.60412,7.61947 0.62425,0.16056 2.30249,0.16438 2.94084,0.007 z m 85.629672,3.7223 c -1.44175,-0.24424 -2.72512,-0.74678 -4.12676,-1.61592 -0.68215,-0.42301 -2.66114,-2.20772 -3.05289,-2.7532 -0.13668,-0.19032 -0.43077,-0.59941 -0.65355,-0.9091 -1.24657,-1.73295 -2.20248,-4.07291 -2.75145,-6.73533 -0.30285,-1.46878 -0.37831,-4.42513 -0.15589,-6.10729 0.74858,-5.66139 3.76622,-10.23645 8.08236,-12.25374 1.32204,-0.6179 2.34354,-0.8594 3.95687,-0.93548 1.47555,-0.0696 2.20954,0.0245 3.65066,0.46788 3.49168,1.0743 6.51827,4.12649 8.13776,8.20657 0.7397,1.86358 1.04196,3.19538 1.23798,5.45457 0.38837,4.47602 -0.73117,8.73453 -3.22015,12.24886 -0.67411,0.95183 -2.5571,2.74886 -3.49436,3.33486 -0.85374,0.5338 -2.08719,1.09673 -2.92962,1.33704 -1.39177,0.39704 -3.26039,0.50094 -4.68096,0.26028 z m 3.19877,-3.7223 c 2.99529,-0.73994 5.57256,-3.69323 6.65517,-7.62615 0.77702,-2.82284 0.7176,-6.24121 -0.15714,-9.03835 -1.90993,-6.10738 -7.13018,-8.92619 -11.46921,-6.1931 -3.93903,2.48115 -6.01243,8.73043 -4.77587,14.39462 0.94466,4.32712 3.60545,7.63299 6.8062,8.4563 0.62425,0.16056 2.30249,0.16438 2.94085,0.007 z M 25.958638,198.89243 c -4.05143,-0.507 -7.77493,-2.08873 -10.15902,-4.31553 -2.61291,-2.44051 -3.68918,-5.22152 -3.22326,-8.32869 0.6415,-4.27807 4.92067,-8.03608 10.77236,-9.46038 2.92808,-0.7127 6.60768,-0.82227 9.49154,-0.28261 3.19837,0.5985 5.86733,1.72992 8.0365,3.40678 2.02545,1.56576 3.31755,3.39707 3.94109,5.58577 0.22388,0.78581 0.31251,2.93301 0.14853,3.59798 -0.33113,1.34276 -0.93303,2.7542 -1.52627,3.57909 -0.63646,0.88499 -1.94335,2.20336 -2.74572,2.76983 -2.57462,1.81767 -4.9534,2.76587 -8.42156,3.35692 -1.26677,0.21589 -4.89757,0.26812 -6.31419,0.0908 z m 4.66349,-3.64161 c 2.50064,-0.18628 5.27493,-1.12132 7.17899,-2.41959 2.3322,-1.5902 3.48545,-3.68628 3.21877,-5.8502 -0.16728,-1.35741 -0.81883,-2.50649 -2.09046,-3.6868 -2.37948,-2.2086 -5.93624,-3.40368 -10.16434,-3.41526 -1.81518,-0.005 -2.75285,0.1025 -4.40535,0.5049 -3.36929,0.82042 -5.96109,2.50343 -7.16635,4.65352 -0.57598,1.02752 -0.71455,1.53075 -0.7201,2.61527 -0.0196,3.83383 4.77428,7.20784 10.85487,7.63975 1.15444,0.082 1.73298,0.0747 3.29397,-0.0416 z m 135.048102,3.72717 c -3.25605,-0.2695 -6.55503,-1.3111 -8.87253,-2.80137 -1.45573,-0.93611 -1.99424,-1.38385 -3.0032,-2.497 -0.75702,-0.83519 -1.04604,-1.25017 -1.48388,-2.1306 -0.78455,-1.57765 -1.02382,-2.63836 -0.95273,-4.22362 0.0776,-1.73137 0.38314,-2.75043 1.25713,-4.19327 0.83368,-1.37634 1.55873,-2.18037 2.90375,-3.22013 2.16917,-1.67686 4.83813,-2.80828 8.0365,-3.40678 2.88386,-0.53966 6.56346,-0.43009 9.49154,0.28261 5.85168,1.4243 10.13085,5.18231 10.77236,9.46038 0.46592,3.10717 -0.61035,5.88818 -3.22326,8.32869 -2.43047,2.27012 -6.18253,3.84334 -10.29148,4.31518 -1.11916,0.12852 -3.57036,0.17395 -4.6342,0.0859 z m 3.81725,-3.72119 c 1.10283,-0.0844 2.96062,-0.48332 4.06081,-0.87199 3.92754,-1.38746 6.38801,-3.98622 6.37395,-6.73215 -0.006,-1.08452 -0.14412,-1.58775 -0.72011,-2.61527 -1.20526,-2.15009 -3.79706,-3.8331 -7.16635,-4.65352 -1.6525,-0.4024 -2.59016,-0.50986 -4.40534,-0.5049 -4.22811,0.0116 -7.78487,1.20666 -10.16435,3.41526 -1.27163,1.18031 -1.92317,2.32939 -2.09046,3.6868 -0.33391,2.7095 1.57467,5.29465 5.08457,6.88697 2.70655,1.22787 5.50488,1.65838 9.02728,1.3888 z M 26.546958,167.68337 c -6.14695,-0.68387 -10.92355,-3.37883 -13.09869,-7.39029 -1.11532,-2.0569 -1.28605,-4.64838 -0.4567,-6.93192 1.34597,-3.70597 5.51113,-6.78193 10.77686,-7.95866 3.10689,-0.69429 6.94376,-0.69023 10.05193,0.0106 2.12735,0.47969 4.21504,1.31958 5.77746,2.32431 1.45574,0.93611 1.99425,1.38385 3.00321,2.49699 0.75702,0.83519 1.04604,1.25017 1.48387,2.13061 0.78456,1.57764 1.02382,2.63835 0.95274,4.22362 -0.0776,1.73137 -0.38315,2.75043 -1.25713,4.19327 -0.83368,1.37633 -1.55873,2.18037 -2.90375,3.22013 -2.53497,1.95964 -5.78647,3.18654 -9.66888,3.64841 -0.74768,0.089 -3.95373,0.11158 -4.66092,0.0329 z m 4.90052,-3.81958 c 3.02096,-0.40796 5.65863,-1.55158 7.48195,-3.24395 1.62619,-1.50942 2.29939,-3.0937 2.09855,-4.93871 -0.3788,-3.47989 -5.11775,-6.64757 -10.51038,-7.0255 -0.48157,-0.0338 -1.06128,-0.0745 -1.28825,-0.0906 -0.81821,-0.0579 -3.11918,0.15181 -4.26715,0.38898 -5.02292,1.03769 -8.50567,4.0357 -8.48891,7.30738 0.006,1.08451 0.14412,1.58775 0.7201,2.61526 1.20503,2.14968 3.79359,3.83085 7.16635,4.65427 2.34218,0.57182 4.55035,0.67552 7.08774,0.33286 z m 133.655322,3.78742 c -3.99375,-0.53554 -7.0729,-1.70793 -9.58403,-3.64915 -1.34502,-1.03976 -2.07007,-1.8438 -2.90375,-3.22012 -0.87399,-1.44285 -1.17949,-2.46191 -1.25713,-4.19328 -0.0711,-1.58526 0.16818,-2.64597 0.95273,-4.22362 1.20719,-2.42752 3.78683,-4.60696 7.01472,-5.92644 2.42517,-0.99135 4.65613,-1.44145 7.58292,-1.52987 2.89738,-0.0875 5.33956,0.24722 7.77895,1.06627 6.32423,2.12342 9.88336,6.67986 9.13196,11.69085 -0.64151,4.27807 -4.92068,8.03608 -10.77236,9.46038 -1.78775,0.43514 -2.76466,0.54674 -5.05528,0.57751 -1.24835,0.0168 -2.54827,-0.007 -2.88873,-0.0525 z m 5.00369,-3.74384 c 1.14777,-0.1421 2.96035,-0.60847 4.01705,-1.03358 2.44335,-0.98296 4.13555,-2.31482 5.07859,-3.99713 0.57599,-1.02751 0.71455,-1.53075 0.72011,-2.61526 0.0167,-3.27168 -3.466,-6.26969 -8.48892,-7.30738 -1.14797,-0.23717 -3.44893,-0.44691 -4.26714,-0.38898 -0.22697,0.0161 -0.80669,0.0568 -1.28826,0.0906 -5.39262,0.37793 -10.13158,3.54561 -10.51037,7.0255 -0.20084,1.84501 0.47235,3.42929 2.09854,4.93871 2.84065,2.63664 7.69656,3.89957 12.6404,3.28753 z M 51.901988,141.57427 c -2.28616,-0.48834 -4.21355,-1.51567 -5.85652,-3.12162 -1.63627,-1.59941 -2.72187,-3.24303 -3.59516,-5.44318 -0.7397,-1.86357 -1.04197,-3.19538 -1.23799,-5.45457 -0.38837,-4.47602 0.73117,-8.73453 3.22016,-12.24886 0.67411,-0.95183 2.55709,-2.74886 3.49436,-3.33487 3.73276,-2.33384 7.95442,-2.32715 11.73734,0.0186 0.68215,0.423 2.66113,2.20771 3.05288,2.75319 0.13669,0.19032 0.43078,0.59941 0.65355,0.90909 1.24658,1.73296 2.20248,4.07292 2.75145,6.73534 0.30285,1.46878 0.37832,4.42514 0.15589,6.1073 -0.55806,4.22058 -2.37133,7.86442 -5.12158,10.29201 -1.57327,1.38871 -3.04961,2.17177 -5.09905,2.7046 -0.7744,0.20133 -3.35951,0.25294 -4.15533,0.0829 z m 3.87193,-3.87753 c 2.10272,-0.6855 4.06251,-2.63954 5.29863,-5.28308 2.55455,-5.46307 1.43074,-12.80916 -2.51374,-16.43178 -1.56375,-1.43616 -2.93264,-2.01329 -4.77526,-2.01329 -1.85031,0 -3.21477,0.5778 -4.78171,2.02488 -1.52447,1.40786 -2.67633,3.39644 -3.31836,5.72883 -0.77703,2.82286 -0.71761,6.24123 0.15713,9.03836 1.26289,4.03834 4.20168,6.93461 7.32392,7.21796 0.79792,0.0724 1.88176,-0.0447 2.60939,-0.28188 z m 85.496862,3.95702 c -2.02255,-0.23009 -4.23637,-1.2824 -6.03164,-2.86704 -2.75024,-2.42759 -4.56351,-6.07143 -5.12157,-10.29201 -0.22242,-1.68216 -0.14696,-4.63852 0.15589,-6.1073 0.54897,-2.66242 1.50488,-5.00238 2.75145,-6.73534 0.22278,-0.30968 0.51687,-0.71877 0.65355,-0.90909 0.39175,-0.54548 2.37074,-2.33019 3.05289,-2.75319 2.37272,-1.47131 4.68947,-1.99381 7.3301,-1.65314 1.48322,0.19135 2.99691,0.75274 4.40724,1.63452 0.93726,0.58601 2.82025,2.38304 3.49436,3.33487 1.56172,2.20508 2.49554,4.47054 3.0326,7.3572 0.47778,2.56798 0.28371,6.14853 -0.47159,8.70055 -1.85474,6.26686 -6.62206,10.41145 -11.89304,10.33952 -0.5779,-0.008 -1.19001,-0.0302 -1.36024,-0.0496 z m 3.27927,-3.94844 c 0.74328,-0.22942 1.9284,-0.91321 2.61048,-1.50617 2.56402,-2.22903 4.07138,-5.96989 4.08082,-10.12751 0.01,-4.20844 -1.35121,-7.77268 -3.84766,-10.07817 -1.56694,-1.44708 -2.9314,-2.02488 -4.78171,-2.02488 -1.84263,0 -3.21152,0.57713 -4.77527,2.01329 -2.15215,1.97654 -3.5438,5.14103 -3.83712,8.7253 -0.10667,1.30344 0.005,3.21679 0.2596,4.46361 0.73468,3.59229 2.70201,6.61159 5.2299,8.02642 1.51888,0.85011 3.35559,1.03451 5.06096,0.50811 z m -63.891002,-8.00613 c -1.7351,-0.29276 -3.51829,-0.98473 -4.82334,-1.87171 -0.753,-0.51178 -1.92795,-1.59942 -2.47204,-2.28836 -0.94524,-1.19686 -1.6216,-2.61386 -2.06305,-4.32215 -0.22758,-0.88066 -0.25423,-3.54442 -0.0448,-4.47552 0.34483,-1.53294 1.18316,-3.32598 2.08367,-4.45665 1.63946,-2.05847 3.73055,-3.33971 6.64893,-4.0739 0.70041,-0.17621 3.73431,-0.17647 4.43626,-3.8e-4 1.16837,0.2931 1.87537,0.53759 2.69494,0.93196 3.1008,1.49207 5.18883,4.10692 6.03729,7.56055 0.089,0.36218 0.13709,1.16539 0.13414,2.23938 -0.004,1.43459 -0.039,1.79781 -0.24485,2.53384 -0.62342,2.22954 -1.56198,3.80204 -3.14652,5.27178 -1.48228,1.37488 -3.04852,2.20263 -5.2646,2.78233 -0.51075,0.13361 -3.44609,0.25824 -3.97606,0.16882 z m 2.64308,-3.7237 c 1.70022,-0.26721 3.46718,-1.28991 4.5099,-2.6103 1.57994,-2.00066 1.98016,-4.61695 1.07912,-7.05436 -0.86715,-2.34575 -3.09246,-4.11277 -5.67867,-4.5092 -0.92842,-0.14231 -1.08338,-0.14207 -2.01179,0.003 -2.54887,0.39846 -4.60499,1.99986 -5.63555,4.3892 -0.81887,1.89856 -0.64395,4.48874 0.42472,6.28921 1.0692,1.80135 3.02761,3.15799 5.03028,3.4846 1.08317,0.17665 1.20485,0.17707 2.28199,0.008 z m 29.390862,3.72255 c -1.51069,-0.20144 -3.58872,-0.99602 -4.85339,-1.85581 -2.23181,-1.51729 -3.72741,-3.63763 -4.4903,-6.36597 -0.20582,-0.73603 -0.24091,-1.09925 -0.24485,-2.53384 -0.003,-1.07399 0.0451,-1.87721 0.13414,-2.23938 0.57157,-2.32659 1.61296,-4.13679 3.25723,-5.66193 1.54963,-1.43737 3.08454,-2.23091 5.47499,-2.83058 0.70195,-0.1761 3.73585,-0.17584 4.43626,3.7e-4 2.91838,0.7342 5.00948,2.01544 6.64893,4.07391 0.90051,1.13067 1.73884,2.92371 2.08368,4.45665 0.20945,0.9311 0.1828,3.59485 -0.0448,4.47552 -0.60717,2.34956 -1.57015,4.00738 -3.21284,5.53106 -1.4961,1.38771 -3.01744,2.19625 -5.21707,2.7727 -0.55573,0.14564 -3.29311,0.26783 -3.97201,0.17731 z m 2.5915,-3.72255 c 2.50253,-0.3933 4.73642,-2.19078 5.58903,-4.49718 0.47331,-1.28038 0.59489,-2.41553 0.39225,-3.66238 -0.28065,-1.72684 -0.96481,-2.98606 -2.28211,-4.20032 -1.10046,-1.01437 -2.27034,-1.57353 -3.78882,-1.81091 -0.92842,-0.14514 -1.08338,-0.14538 -2.01179,-0.003 -2.58621,0.39643 -4.81152,2.16345 -5.67868,4.50919 -0.90103,2.43742 -0.50081,5.05371 1.07913,7.05437 1.01252,1.28214 2.80849,2.33987 4.419,2.60252 1.08317,0.17665 1.20485,0.17706 2.28199,0.008 z"
       id="path836" />
    <path
       style="fill:#000000;stroke:#000000;stroke-width:33.3349;stroke-linecap:round;stroke-linejoin:round;stroke-dasharray:8.33373, 8.33373;stroke-opacity:0.955017;paint-order:stroke markers fill"
       d="m 322.9322,981.08844 c -2.86472,-0.68687 -16.9279,-3.13355 -31.2515,-5.43707 C 174.61345,956.82477 70.9357,884.15579 21.63602,786.3738 0.488894,744.43015 -5.2085839,718.66193 -5.2085839,664.96254 c 0,-41.27979 1.2256305,-52.51636 8.1244745,-74.48509 C 39.291428,474.64291 131.32085,393.99351 267.37397,358.72128 c 44.62483,-11.56913 119.34585,-14.55199 167.21624,-6.67526 165.40917,27.21693 287.95076,140.72494 305.96034,283.40543 14.70074,116.46621 -57.28574,237.76305 -178.02349,299.96865 -59.63721,30.72581 -113.42167,43.96576 -185.77283,45.73108 -26.73739,0.65236 -50.95731,0.62413 -53.82203,-0.0628 z m 10.53082,-93.95178 c 12.06978,-6.24151 20.72068,-21.43912 20.72068,-36.4013 0,-24.05022 -18.35255,-41.66867 -43.40486,-41.66867 -33.73995,0 -53.63809,32.64185 -38.15263,62.58742 9.94909,19.23944 39.1842,26.67958 60.83681,15.48255 z m 121.6962,-0.65673 c 10.69937,-6.3203 20.55811,-23.35057 20.55811,-35.51278 0,-13.5659 -9.71676,-30.94274 -20.38835,-36.46124 -5.78507,-2.99156 -17.78373,-5.43922 -26.66371,-5.43922 -13.73163,0 -17.91051,1.76509 -27.95155,11.80613 -9.52525,9.52525 -11.80613,14.51292 -11.80613,25.81686 0,7.70593 1.52362,18.0182 3.38583,22.91617 7.57554,19.92513 42.04032,29.17599 62.8658,16.87408 z m -229.28707,-8.84536 c 17.8616,-12.03693 25.86042,-28.49751 25.72658,-52.94213 -0.2031,-37.09678 -18.78129,-60.72531 -47.7683,-60.75382 -24.98754,-0.0243 -41.59124,15.69339 -48.97431,46.36181 -6.20742,25.78496 7.49604,58.14731 29.24972,69.07676 16.19915,8.13873 27.82307,7.65374 41.76631,-1.74262 z m 338.47874,-0.5944 c 19.91516,-13.04889 29.07498,-55.89182 17.74645,-83.00479 -16.70015,-39.96908 -67.89431,-40.52823 -85.87406,-0.93796 -7.38928,16.27078 -8.41516,37.35613 -2.65232,54.5155 10.98518,32.70925 44.50301,46.64454 70.77993,29.42725 z M 136.14776,749.89312 c 7.08287,-1.96715 17.63025,-8.32891 23.43863,-14.13728 8.52628,-8.52631 10.56068,-13.46808 10.56068,-25.65294 0,-21.13041 -12.04911,-34.7209 -37.28801,-42.05805 -41.771738,-12.14338 -87.718,8.97738 -87.718,40.32255 0,8.81862 7.953376,24.88401 15.363888,31.03417 15.184724,12.6022 50.437852,17.49178 75.642812,10.49155 z m 539.30018,-6.84398 c 14.95714,-9.24402 23.9083,-27.32024 20.71905,-41.84069 -2.53463,-11.54013 -21.92199,-29.79175 -35.60862,-33.52263 -5.21695,-1.42211 -17.29826,-2.58566 -26.84733,-2.58566 -23.88969,0 -34.31752,3.40192 -48.4422,15.80356 -26.53829,23.30095 -15.77791,57.13851 22.09916,69.494 16.51763,5.38808 54.02176,1.33983 68.07994,-7.34858 z M 138.03775,630.82159 c 46.97793,-17.04056 43.55374,-66.67107 -5.58545,-80.95622 -41.756063,-12.13882 -87.31124,8.96142 -87.31124,40.4408 0,8.81864 7.953376,24.884 15.363888,31.03418 15.556655,12.91087 54.835912,17.71421 77.532802,9.48124 z m 533.94013,-4.38799 c 16.83855,-8.59031 27.62212,-27.65596 24.2713,-42.91222 -4.35944,-19.8484 -34.50298,-38.31754 -62.53814,-38.31754 -29.05973,0 -58.78165,18.83593 -62.70274,39.73717 -3.71862,19.822 11.18179,39.23337 36.3597,47.36725 15.15059,4.89449 49.64905,1.75771 64.60988,-5.87466 z M 227.97455,529.5094 c 29.95606,-19.62797 33.01858,-73.83098 5.71423,-101.13533 -10.40016,-10.40016 -13.76526,-11.68736 -30.55401,-11.68736 -16.84003,0 -20.13955,1.2729 -30.71664,11.84999 -29.42485,29.42485 -21.99509,89.10869 13.06019,104.91346 12.47959,5.62646 30.43614,3.96131 42.49623,-3.94076 z m 336.20825,-0.23664 c 14.23436,-9.32672 22.65098,-29.23942 22.65098,-53.58954 0,-36.28105 -18.63996,-58.99651 -48.4116,-58.99651 -28.00214,0 -48.56626,24.58715 -48.73904,58.27405 -0.24203,47.21074 40.26645,76.74246 74.49966,54.312 z M 336.74033,483.28612 c 21.01132,-15.59128 22.80498,-45.4785 3.86598,-64.41751 -9.56279,-9.56278 -13.17254,-10.86287 -30.16107,-10.86287 -17.96353,0 -20.1482,0.92754 -31.58902,13.41163 -11.32736,12.36028 -12.16274,14.74482 -10.6567,30.41858 0.94398,9.82409 4.41449,20.12559 8.21718,24.39098 15.42042,17.29671 42.28983,20.44103 60.32363,7.05919 z m 112.96956,4.79352 c 23.2739,-9.72445 32.41802,-38.26609 19.20322,-59.93909 -12.52855,-20.54753 -35.32698,-26.92063 -57.93126,-16.19419 -31.36404,14.88321 -29.09553,61.92929 3.67417,76.19722 13.88199,6.04422 20.46373,6.03222 35.05387,-0.0639 z"
       id="path1028"
       transform="scale(0.26458333)" />
  </g>
</svg>
