<?xml version="1.0" encoding="UTF-8" standalone="no"?>
<!-- Created with Inkscape (http://www.inkscape.org/) -->

<svg
   width="210mm"
   height="297mm"
   viewBox="0 0 210 297"
   version="1.1"
   id="svg5"
   sodipodi:docname="color picker black.svg"
   inkscape:version="1.1 (c68e22c387, 2021-05-23)"
   xmlns:inkscape="http://www.inkscape.org/namespaces/inkscape"
   xmlns:sodipodi="http://sodipodi.sourceforge.net/DTD/sodipodi-0.dtd"
   xmlns="http://www.w3.org/2000/svg"
   xmlns:svg="http://www.w3.org/2000/svg">
  <sodipodi:namedview
     id="namedview7"
     pagecolor="#ffffff"
     bordercolor="#666666"
     borderopacity="1.0"
     inkscape:pageshadow="2"
     inkscape:pageopacity="0.0"
     inkscape:pagecheckerboard="0"
     inkscape:document-units="mm"
     showgrid="false"
     inkscape:zoom="0.28798615"
     inkscape:cx="395.85237"
     inkscape:cy="439.25724"
     inkscape:window-width="1680"
     inkscape:window-height="956"
     inkscape:window-x="-11"
     inkscape:window-y="-11"
     inkscape:window-maximized="1"
     inkscape:current-layer="layer1" />
  <defs
     id="defs2" />
  <g
     inkscape:label="Layer 1"
     inkscape:groupmode="layer"
     id="layer1">
    <path
       style="fill:#000000;stroke-width:0.094169"
       d="m 108.50334,264.14435 c -0.19378,-0.0183 -1.10547,-0.0818 -2.02597,-0.14119 -5.55263,-0.35827 -11.879562,-1.44418 -16.956515,-2.91029 -2.755193,-0.79566 -3.428979,-1.00737 -5.285153,-1.66068 -2.087008,-0.73456 -2.175009,-0.76779 -3.567474,-1.34736 -0.532918,-0.22182 -1.32569,-0.54802 -1.761718,-0.72492 -1.423953,-0.57768 -4.987039,-2.29043 -6.694515,-3.21799 -2.117812,-1.15049 -2.548026,-1.39752 -4.316207,-2.47841 -6.205816,-3.7936 -11.786008,-8.21786 -17.052864,-13.52037 -1.922941,-1.93594 -3.760066,-3.99732 -6.235519,-6.99663 -0.650221,-0.78781 -2.79247,-3.63658 -3.535961,-4.70213 -1.296626,-1.85826 -2.308304,-3.39568 -3.039961,-4.61973 -0.115835,-0.1938 -0.336534,-0.55621 -0.49044,-0.80538 -0.72802,-1.17862 -1.083509,-1.79499 -2.032168,-3.52354 -0.864304,-1.57484 -2.098679,-3.96977 -2.098679,-4.07186 0,-0.0164 -0.209677,-0.45476 -0.465945,-0.97402 -0.433177,-0.87771 -2.440883,-5.47203 -2.440883,-5.58558 0,-0.044 -0.142073,-0.43044 -0.44022,-1.19754 -0.431999,-1.1115 -0.575471,-1.49982 -0.849106,-2.29807 -0.658051,-1.91969 -1.454648,-4.45553 -1.786435,-5.68687 -0.189246,-0.70231 -0.463,-1.7073 -0.608343,-2.23332 -0.574207,-2.07813 -1.394343,-6.17992 -2.043105,-10.21824 -0.174585,-1.08678 -0.538808,-4.48414 -0.719831,-6.71437 -0.162581,-2.00305 -0.190893,-3.03809 -0.19354,-7.07775 -0.0017,-2.88527 0.03774,-5.2423 0.101645,-6.04035 0.05763,-0.7198 0.146572,-1.88977 0.197698,-2.59991 0.13163,-1.82853 0.645414,-5.78369 1.060251,-8.16193 0.391852,-2.24652 1.201581,-6.06392 1.582351,-7.45987 0.135925,-0.49832 0.392492,-1.44967 0.570151,-2.11412 0.290677,-1.08707 0.537349,-1.88483 1.572046,-5.08396 0.863697,-2.67043 2.950841,-7.74733 4.420986,-10.7539 2.889248,-5.90874 5.740715,-10.5437 9.861957,-16.03023 1.567477,-2.08675 5.916556,-7.09467 7.693915,-8.85946 1.172739,-1.16444 3.637153,-3.47357 4.828975,-4.524696 2.04278,-1.801629 6.317023,-5.114466 8.199639,-6.355305 0.521656,-0.343832 1.325032,-0.881215 1.785283,-1.194202 1.289787,-0.877077 4.26065,-2.635268 6.298137,-3.727288 0.436019,-0.233696 1.07024,-0.573646 1.409371,-0.755456 0.33913,-0.1818 1.112085,-0.564978 1.717669,-0.851517 3.571214,-1.689694 5.690939,-2.582071 8.368155,-3.522873 0.654037,-0.229835 1.288258,-0.459124 1.40937,-0.509536 0.839339,-0.349314 5.273849,-1.633506 7.619421,-2.206511 3.635548,-0.888116 8.875492,-1.722159 12.992662,-2.068053 2.65353,-0.222923 8.30186,-0.307264 10.96667,-0.163747 5.4744,0.294829 10.86504,1.061195 15.59119,2.216536 0.43603,0.10659 1.09007,0.264678 1.45342,0.351291 0.61897,0.147556 1.54729,0.41134 4.09599,1.163862 0.58137,0.171648 1.35432,0.420903 1.71768,0.553889 0.36335,0.132986 1.1363,0.408795 1.71767,0.612897 1.45838,0.511998 1.87331,0.669591 3.03896,1.154215 0.55714,0.231634 1.27064,0.523897 1.58554,0.649466 0.86175,0.343653 3.79626,1.701876 4.88876,2.262751 1.18197,0.606806 3.8005,2.019766 4.36017,2.352752 0.3634,0.216211 1.19584,0.711419 1.84988,1.100467 0.65404,0.389048 1.30808,0.785866 1.45342,0.881811 1.04349,0.688832 3.42587,2.303327 3.78769,2.566838 1.62122,1.180726 3.62432,2.702601 4.28516,3.255691 0.17672,0.147904 0.78854,0.653979 1.3596,1.124622 1.48181,1.221249 4.0075,3.544126 5.92159,5.446096 3.20096,3.18069 7.92778,8.82952 10.23489,12.23131 1.56374,2.30571 2.14772,3.18923 2.59853,3.93143 0.19378,0.31906 0.6026,0.98993 0.90848,1.49082 4.05051,6.63296 8.0111,15.81443 9.96847,23.10898 0.20059,0.7475 0.39945,1.47234 0.44195,1.61076 0.40933,1.33346 1.25515,5.22611 1.72057,7.91848 0.45142,2.61132 0.9719,6.61882 1.10248,8.4887 0.0484,0.69346 0.10556,1.41939 0.12697,1.61319 0.231,2.09153 0.2652,10.38068 0.0529,12.83573 -0.0479,0.5537 -0.13063,1.57301 -0.1839,2.26513 -0.10144,1.31789 -0.47643,4.72378 -0.61516,5.58732 -0.64876,4.03832 -1.4689,8.14011 -2.0431,10.21824 -0.14535,0.52602 -0.42115,1.53866 -0.61291,2.25032 -0.46961,1.74286 -1.73321,5.62314 -2.38163,7.31357 -0.0956,0.24916 -0.23307,0.61158 -0.3055,0.80538 -0.45641,1.22091 -0.77119,1.99331 -1.57953,3.87588 -0.42794,0.99666 -0.92279,2.10657 -1.09966,2.46648 -0.17687,0.35991 -0.4521,0.92619 -0.61162,1.25841 -0.75666,1.57585 -1.14614,2.33472 -1.96338,3.82555 -0.9993,1.82295 -1.46915,2.64679 -2.017,3.53665 -0.48929,0.79475 -1.11227,1.81644 -1.34354,2.20341 -0.0998,0.16708 -0.53828,0.82324 -0.9743,1.45815 -0.43603,0.63492 -0.93341,1.36822 -1.1053,1.62956 -0.17188,0.26135 -0.806,1.14547 -1.40914,1.96472 -6.76069,9.18299 -15.30858,17.15143 -24.70408,23.02943 -3.47277,2.17265 -5.85158,3.45705 -10.21795,5.51704 -2.35262,1.10993 -7.57402,3.10352 -9.99774,3.81726 -4.1439,1.22029 -5.99103,1.67753 -9.46922,2.34406 -2.9392,0.56324 -5.62,0.92419 -9.07284,1.22162 -1.67606,0.14436 -9.52572,0.27684 -10.57029,0.17839 z m 10.04178,-4.0737 c 5.8484,-0.42419 11.3486,-1.41856 16.92821,-3.06042 4.41336,-1.29869 8.34793,-2.82158 12.75671,-4.93757 3.62013,-1.73748 8.61509,-4.67868 11.67136,-6.87251 1.82611,-1.31079 3.54768,-2.62472 5.0209,-3.83203 1.43625,-1.177 4.31016,-3.73681 5.33702,-4.75374 0.73166,-0.72458 2.54311,-2.54721 2.5907,-2.60669 0.0242,-0.0303 0.63359,-0.70378 1.35414,-1.49665 0.72055,-0.79288 1.72838,-1.94741 2.23961,-2.56563 0.51123,-0.61822 1.17256,-1.41849 1.46962,-1.7784 0.65243,-0.79045 2.34979,-3.06284 3.13265,-4.19392 1.23722,-1.78755 1.47589,-2.14568 2.28445,-3.4278 1.45126,-2.30129 1.7814,-2.85408 2.75314,-4.60998 0.8783,-1.58707 1.72905,-3.23704 2.62138,-5.08396 0.64164,-1.32803 2.43032,-5.53843 2.99378,-7.04706 0.57597,-1.54211 1.73538,-5.00519 2.07283,-6.19136 0.74112,-2.60519 1.15006,-4.20118 1.57351,-6.14101 0.44879,-2.05593 0.63418,-3.03045 1.10112,-5.78867 0.23443,-1.38484 0.68569,-5.25298 0.79863,-6.84572 0.0491,-0.69212 0.13111,-1.82468 0.18228,-2.51681 0.12427,-1.68038 0.12495,-7.90277 8.6e-4,-9.91624 -0.54131,-8.79939 -1.88991,-16.07668 -4.43083,-23.90969 -2.45265,-7.56092 -6.4619,-15.829 -10.69944,-22.06497 -0.35083,-0.51627 -0.88595,-1.30597 -1.18916,-1.75486 -0.49174,-0.72801 -1.03606,-1.46745 -1.88179,-2.55634 -0.15053,-0.1938 -0.55511,-0.721 -0.89908,-1.17154 -0.7433,-0.97362 -2.39983,-2.98424 -3.09899,-3.76141 -2.18259,-2.42614 -2.91465,-3.19536 -4.84534,-5.09123 -1.64014,-1.61056 -4.08884,-3.79599 -5.6375,-5.03137 -0.16956,-0.13527 -0.43096,-0.34803 -0.58088,-0.47281 -0.26201,-0.21807 -1.8636,-1.440825 -3.33893,-2.549151 -0.38758,-0.291157 -1.04161,-0.753942 -1.45342,-1.028404 -0.4118,-0.274462 -1.20457,-0.80488 -1.76172,-1.178706 -2.26898,-1.522412 -7.0242,-4.252018 -8.89666,-5.106887 -0.36335,-0.165883 -1.15613,-0.541034 -1.76172,-0.833654 -0.60558,-0.292619 -1.83438,-0.834242 -2.73065,-1.203586 -0.89628,-0.369354 -1.76833,-0.731555 -1.9379,-0.804912 -0.30771,-0.133112 -2.58548,-0.961958 -3.91981,-1.426363 -0.79406,-0.276355 -3.86235,-1.202744 -4.66855,-1.40953 -4.02227,-1.031696 -7.09809,-1.641227 -10.35008,-2.051074 -0.89628,-0.112966 -1.71392,-0.226731 -1.817,-0.252821 -0.10307,-0.02609 -1.39133,-0.141192 -2.86279,-0.255778 -3.07685,-0.239588 -8.89316,-0.291242 -11.35182,-0.100784 -3.71524,0.287759 -7.47544,0.753279 -9.73349,1.204996 -0.532917,0.106612 -1.26623,0.244427 -1.629583,0.306254 -2.001678,0.340634 -8.774623,2.194401 -10.306028,2.820796 -0.121112,0.04955 -0.755333,0.279333 -1.409371,0.510641 -6.407987,2.266307 -13.906553,6.219873 -19.775262,10.426392 -2.029469,1.454652 -5.285511,4.042601 -6.87996,5.468281 -0.344236,0.30779 -1.053848,0.94214 -1.576921,1.40966 -0.523073,0.46751 -1.172936,1.08099 -1.444137,1.36328 -0.27121,0.2823 -0.928749,0.94175 -1.461197,1.46545 -3.998063,3.93231 -8.991019,10.2634 -12.150154,15.40644 -0.936826,1.52515 -2.367345,4.00984 -3.154362,5.47887 -2.013461,3.75823 -4.589509,9.75968 -5.747265,13.38942 -0.176609,0.5537 -0.375339,1.16529 -0.441629,1.35908 -0.997419,2.91595 -2.318302,8.23326 -2.941458,11.84105 -0.726961,4.20878 -0.976758,6.27959 -1.24328,10.30689 -0.04943,0.74749 -0.111737,1.67619 -0.138367,2.06378 -0.08299,1.2079 -0.0467,7.78852 0.0502,9.11085 0.05072,0.69213 0.132391,1.82469 0.181467,2.51681 0.112932,1.59274 0.564201,5.46088 0.798638,6.84572 0.462009,2.72915 0.648633,3.71658 1.055973,5.58732 0.89417,4.10654 2.14522,8.37035 3.618438,12.33238 0.613013,1.64861 2.495236,6.09386 3.111766,7.34908 2.067942,4.21017 3.196787,6.23483 5.415921,9.71383 3.746089,5.87285 7.639622,10.65506 12.984831,15.94853 1.812544,1.79501 5.878331,5.28253 7.913522,6.78804 1.81058,1.33935 2.25939,1.66609 2.884817,2.10016 2.510843,1.74267 5.504639,3.57523 8.191972,5.01446 1.590189,0.85165 2.478305,1.29558 4.668554,2.3336 7.67006,3.63501 18.348585,6.48181 26.734035,7.127 0.77516,0.0597 1.64721,0.13485 1.9379,0.1671 0.92454,0.10257 5.03913,0.19549 7.04686,0.15909 1.06583,-0.0194 3.16668,-0.12427 4.66854,-0.23319 z M 98.285386,234.34787 c -1.373323,-0.22564 -3.114259,-1.07302 -4.30007,-2.09301 -1.889848,-1.6256 -3.251764,-4.15536 -3.772438,-7.00735 -0.178837,-0.97954 -0.156084,-3.78187 0.03825,-4.70835 0.518395,-2.47179 1.340589,-4.21584 2.74312,-5.81879 1.323086,-1.51214 2.633595,-2.34697 4.674565,-2.97783 0.599326,-0.18526 3.189677,-0.18499 3.787687,0 1.37973,0.4277 2.63103,1.07559 3.52724,1.82632 1.90553,1.59623 3.18246,3.82688 3.83383,6.69715 0.17572,0.77431 0.20569,1.15644 0.20905,2.66565 0.003,1.12986 -0.0385,1.97486 -0.11453,2.35588 -0.48801,2.44761 -1.37714,4.35199 -2.78103,5.95647 -1.27737,1.4599 -2.57629,2.31051 -4.45434,2.91694 -0.47448,0.15322 -2.811662,0.28177 -3.391308,0.18653 z m 2.212624,-3.91622 c 2.98348,-0.57774 5.17357,-3.73118 5.17357,-7.44927 0,-3.75591 -2.20251,-6.88632 -5.25011,-7.46192 -0.789766,-0.14917 -0.927912,-0.14917 -1.71767,0 -2.208119,0.41705 -4.108093,2.27599 -4.848467,4.74377 -0.404113,1.34699 -0.507927,2.5412 -0.334912,3.85291 0.239619,1.81667 0.823756,3.14141 1.948478,4.41881 0.591249,0.67153 0.874933,0.90595 1.549889,1.28073 0.540858,0.30031 1.069524,0.50876 1.530858,0.60357 0.921543,0.18939 1.026065,0.19002 1.948364,0.0115 z m 25.04994,3.91742 c -1.00819,-0.2096 -2.01159,-0.59625 -2.8735,-1.10729 -2.64748,-1.56969 -4.43023,-4.32058 -5.15465,-7.95386 -0.076,-0.38101 -0.11706,-1.22602 -0.11453,-2.35588 0.003,-1.50922 0.0333,-1.89134 0.20906,-2.66565 0.53226,-2.34551 1.33361,-3.99983 2.6865,-5.54602 1.30183,-1.48784 2.66011,-2.353 4.67456,-2.97745 0.59802,-0.18537 3.18836,-0.18564 3.78768,0 1.44937,0.44799 2.5859,1.03851 3.54562,1.84223 0.64292,0.53841 1.64609,1.68262 2.11064,2.4074 0.80704,1.25912 1.38453,2.74984 1.76144,4.547 0.1943,0.92647 0.21705,3.72881 0.0383,4.70834 -0.82052,4.49429 -3.41845,7.68052 -7.27627,8.92396 -0.43609,0.14056 -2.94229,0.27168 -3.39478,0.17761 z m 2.25666,-3.92064 c 2.10463,-0.41622 3.86976,-2.1328 4.73509,-4.60488 0.57818,-1.65172 0.59181,-3.70948 0.0368,-5.55932 -0.74038,-2.46778 -2.64035,-4.32672 -4.84847,-4.74377 -0.78976,-0.14917 -0.9279,-0.14917 -1.71767,0 -3.0476,0.5756 -5.25012,3.70601 -5.25012,7.46192 0,2.99734 1.36548,5.59988 3.59517,6.85231 0.52925,0.29727 1.03233,0.49464 1.5008,0.58878 0.92689,0.18626 1.03034,0.18653 1.94837,0.005 z m -53.830906,1.55316 c -1.163723,-0.19181 -2.525375,-0.82677 -3.679177,-1.71565 -0.800243,-0.61649 -2.407934,-2.507 -2.983491,-3.50835 -1.333407,-2.31979 -2.130696,-4.70309 -2.589247,-7.73993 -0.407921,-2.70156 -0.242224,-6.46839 0.402652,-9.15317 1.238781,-5.1574 4.056114,-9.08107 7.442249,-10.36478 1.230431,-0.46646 1.857113,-0.56543 3.116932,-0.49222 2.27761,0.13235 4.081488,1.06323 5.906302,3.04793 2.348168,2.55388 3.896341,6.38727 4.372814,10.82742 0.189911,1.76967 0.125475,4.87981 -0.133099,6.425 -0.468712,2.80092 -1.284861,5.26261 -2.349193,7.08571 -0.190202,0.3258 -0.441296,0.75617 -0.558002,0.9564 -0.334477,0.57385 -2.024134,2.45141 -2.606555,2.89642 -2.025013,1.54722 -4.076784,2.10858 -6.342185,1.73522 z m 2.554942,-3.95118 c 2.293295,-0.69803 4.341745,-3.30736 5.37289,-6.84402 1.235033,-4.23592 1.001689,-9.17673 -0.613696,-12.99399 -1.184786,-2.79974 -2.99529,-4.71908 -4.891772,-5.18582 -2.870985,-0.70658 -5.701048,1.48955 -7.299877,5.66471 -1.265428,3.30456 -1.540353,7.65094 -0.717049,11.33625 0.916992,4.10469 3.102904,7.21218 5.63861,8.01585 0.532986,0.16891 1.96587,0.17293 2.510894,0.007 z m 73.110764,3.91594 c -1.23096,-0.25694 -2.32671,-0.78562 -3.52343,-1.69998 -0.58242,-0.44501 -2.27209,-2.32257 -2.60656,-2.89642 -0.1167,-0.20023 -0.3678,-0.6306 -0.55801,-0.9564 -1.06432,-1.8231 -1.88048,-4.28479 -2.34919,-7.08571 -0.25857,-1.54519 -0.323,-4.65533 -0.1331,-6.425 0.63914,-5.95591 3.21561,-10.76897 6.90074,-12.8912 1.12876,-0.65004 2.00091,-0.90411 3.37838,-0.98415 1.25983,-0.0732 1.88651,0.0258 3.11694,0.49222 2.9812,1.13019 5.56531,4.34116 6.94803,8.63349 0.63156,1.96053 0.88963,3.36161 1.05699,5.73833 0.33159,4.70887 -0.62427,9.18891 -2.74937,12.88606 -0.57555,1.00135 -2.18325,2.89186 -2.98349,3.50835 -0.72892,0.56157 -1.78205,1.15378 -2.50131,1.40659 -1.1883,0.4177 -2.78373,0.527 -3.99662,0.27382 z m 2.73112,-3.91594 c 2.55738,-0.77843 4.75786,-3.88535 5.6822,-8.02287 0.66342,-2.96969 0.61268,-6.56589 -0.13417,-9.50854 -1.6307,-6.4251 -6.08776,-9.39054 -9.79243,-6.51528 -3.36315,2.61023 -5.13343,9.18461 -4.07765,15.14346 0.80655,4.55222 3.07834,8.03007 5.81115,8.89621 0.53298,0.16891 1.96587,0.17293 2.5109,0.007 z M 51.538039,195.49615 c -3.459119,-0.53337 -6.63825,-2.19739 -8.67379,-4.54003 -2.230907,-2.56747 -3.149829,-5.49315 -2.752025,-8.76196 0.547714,-4.50062 4.201277,-8.45413 9.19746,-9.95253 2.5,-0.74977 5.641649,-0.86504 8.103894,-0.29731 2.730774,0.62964 5.009537,1.81992 6.861578,3.58401 1.729333,1.64721 2.83253,3.57379 3.36491,5.87635 0.191149,0.82669 0.266822,3.08559 0.126815,3.78515 -0.282719,1.41261 -0.796623,2.89748 -1.303132,3.76528 -0.543411,0.93103 -1.659236,2.31798 -2.344301,2.91392 -2.198215,1.91223 -4.229221,2.90976 -7.190343,3.53156 -1.08157,0.22712 -4.181554,0.28206 -5.391066,0.0955 z m 3.981696,-3.83105 c 2.135051,-0.19597 4.503744,-1.17965 6.129434,-2.54546 1.991237,-1.67293 2.975884,-3.87805 2.748192,-6.15454 -0.142824,-1.42802 -0.699119,-2.63688 -1.784839,-3.87859 -2.031604,-2.3235 -5.068372,-3.58075 -8.678331,-3.59293 -1.549804,-0.005 -2.350389,0.10783 -3.761296,0.53117 -2.876706,0.8631 -5.08959,2.63366 -6.118643,4.8956 -0.491772,1.08097 -0.610084,1.61038 -0.614822,2.75132 -0.01674,4.03327 4.076288,7.5828 9.267907,8.03718 0.985663,0.0863 1.479622,0.0786 2.812398,-0.0438 z m 115.304315,3.92106 c -2.78002,-0.28352 -5.5967,-1.3793 -7.57538,-2.9471 -1.24291,-0.98481 -1.70269,-1.45584 -2.56414,-2.6269 -0.64635,-0.87864 -0.89311,-1.3152 -1.26694,-2.24143 -0.66985,-1.65973 -0.87414,-2.77562 -0.81344,-4.44334 0.0662,-1.82144 0.32712,-2.89352 1.07334,-4.41141 0.71179,-1.44794 1.33084,-2.2938 2.47922,-3.38765 1.85204,-1.76409 4.13081,-2.95437 6.86158,-3.58401 2.46225,-0.56773 5.60389,-0.45246 8.10389,0.29731 4.99618,1.4984 8.64974,5.45191 9.19746,9.95253 0.39781,3.26881 -0.52111,6.19449 -2.75202,8.76196 -2.07514,2.38822 -5.27866,4.04328 -8.78688,4.53966 -0.95555,0.13521 -3.04838,0.183 -3.95669,0.0904 z m 3.25917,-3.91477 c 0.9416,-0.0888 2.52778,-0.50846 3.46713,-0.91735 3.35334,-1.45964 5.45409,-4.19359 5.44209,-7.08237 -0.005,-1.14094 -0.12305,-1.67035 -0.61483,-2.75132 -1.02906,-2.26194 -3.24194,-4.0325 -6.11864,-4.8956 -1.41091,-0.42334 -2.21149,-0.53639 -3.76129,-0.53117 -3.60997,0.0122 -6.64674,1.26943 -8.67834,3.59293 -1.08572,1.24171 -1.64201,2.45057 -1.78484,3.87859 -0.28509,2.85045 1.34446,5.57009 4.34121,7.24524 2.31086,1.29175 4.70008,1.74465 7.70751,1.46105 z M 52.040347,162.66355 c -5.248277,-0.71945 -9.326546,-3.55461 -11.183685,-7.77475 -0.952262,-2.1639 -1.098032,-4.8902 -0.389931,-7.29253 1.149191,-3.89876 4.705413,-7.13474 9.201302,-8.37268 2.652669,-0.73041 5.928595,-0.72614 8.582356,0.0111 1.816335,0.50464 3.598809,1.38823 4.932806,2.44522 1.242913,0.98481 1.702694,1.45584 2.564146,2.62689 0.646345,0.87864 0.893111,1.31521 1.266931,2.24145 0.669859,1.65971 0.874139,2.7756 0.813451,4.44334 -0.06626,1.82144 -0.327134,2.89351 -1.07334,4.41141 -0.711797,1.44793 -1.330846,2.2938 -2.479227,3.38765 -2.164362,2.06158 -4.940498,3.35231 -8.255307,3.8382 -0.63837,0.0936 -3.375702,0.11739 -3.979502,0.0346 z m 4.184073,-4.01828 c 2.579301,-0.42919 4.831349,-1.6323 6.388102,-3.41271 1.388444,-1.58794 1.963224,-3.25464 1.791746,-5.19563 -0.32342,-3.66092 -4.369544,-6.99339 -8.973781,-7.39098 -0.411166,-0.0356 -0.906123,-0.0784 -1.09991,-0.0953 -0.69859,-0.0609 -2.663162,0.15971 -3.643301,0.40921 -4.288578,1.09168 -7.262156,4.24565 -7.247846,7.68753 0.0051,1.14092 0.12305,1.67034 0.614822,2.75131 1.028857,2.26151 3.238974,4.03013 6.118643,4.89639 1.999757,0.60157 3.885097,0.71066 6.051525,0.35017 z m 114.11515,3.98444 c -3.40987,-0.5634 -6.03885,-1.79678 -8.18286,-3.83898 -1.14838,-1.09385 -1.76743,-1.93972 -2.47922,-3.38764 -0.74622,-1.51791 -1.00706,-2.58998 -1.07334,-4.41142 -0.0607,-1.66773 0.14359,-2.78362 0.81344,-4.44334 1.0307,-2.5538 3.2332,-4.84662 5.98918,-6.23474 2.07061,-1.04292 3.97541,-1.51644 6.47431,-1.60946 2.47379,-0.0921 4.55893,0.26008 6.64168,1.12174 5.39964,2.23389 8.43843,7.02736 7.79688,12.29903 -0.54772,4.50062 -4.20128,8.45413 -9.19746,9.95252 -1.52638,0.45778 -2.36047,0.57518 -4.3162,0.60756 -1.06585,0.0177 -2.17572,-0.007 -2.46641,-0.0552 z m 4.27216,-3.9386 c 0.97997,-0.14949 2.52756,-0.64012 3.42977,-1.08735 2.08614,-1.03409 3.53094,-2.43524 4.33611,-4.20506 0.49178,-1.08097 0.61008,-1.61039 0.61483,-2.75131 0.0143,-3.44188 -2.95928,-6.59585 -7.24786,-7.68753 -0.98013,-0.2495 -2.9447,-0.47015 -3.64329,-0.40921 -0.19379,0.0169 -0.68875,0.0598 -1.09992,0.0953 -4.60423,0.39759 -8.65036,3.73006 -8.97377,7.39098 -0.17148,1.94099 0.40329,3.60769 1.79174,5.19563 2.42535,2.7738 6.57133,4.10243 10.79239,3.45855 z M 73.688517,135.19621 c -1.951927,-0.51375 -3.597536,-1.59452 -5.000307,-3.28401 -1.39705,-1.68262 -2.323937,-3.41174 -3.069554,-5.72635 -0.631557,-1.96051 -0.889636,-3.36161 -1.056998,-5.73832 -0.331591,-4.70887 0.624274,-9.18892 2.749378,-12.88607 0.575557,-1.00134 2.183248,-2.89186 2.983491,-3.50835 3.187037,-2.45525 6.791498,-2.44821 10.021362,0.0196 0.582421,0.445 2.272078,2.32255 2.606555,2.89641 0.116706,0.20022 0.3678,0.63059 0.558002,0.95638 1.064332,1.82311 1.880481,4.2848 2.349193,7.08573 0.258574,1.54518 0.32301,4.65534 0.133099,6.42501 -0.476473,4.44014 -2.024646,8.27354 -4.372814,10.82741 -1.343261,1.46096 -2.603763,2.28475 -4.353578,2.8453 -0.661184,0.21181 -2.868356,0.2661 -3.547829,0.0872 z m 3.305861,-4.07925 c 1.795306,-0.72116 3.468579,-2.77685 4.52398,-5.55791 2.18108,-5.74727 1.221569,-13.47551 -2.146236,-17.28659 -1.335132,-1.51087 -2.503893,-2.11802 -4.077125,-2.11802 -1.579798,0 -2.744777,0.60785 -4.082633,2.13021 -1.301595,1.4811 -2.285055,3.57313 -2.833222,6.02686 -0.663429,2.96971 -0.612696,6.56591 0.134158,9.50855 1.078258,4.24842 3.587402,7.29536 6.253176,7.59345 0.681266,0.0762 1.60665,-0.047 2.227902,-0.29655 z m 72.997372,4.16287 c -1.72685,-0.24206 -3.61702,-1.34911 -5.14982,-3.01618 -2.34816,-2.55388 -3.89634,-6.38728 -4.37281,-10.82742 -0.1899,-1.76967 -0.12547,-4.87982 0.1331,-6.42501 0.46871,-2.80093 1.28487,-5.26261 2.34919,-7.08573 0.19021,-0.32579 0.44131,-0.75616 0.55801,-0.95638 0.33447,-0.57386 2.02414,-2.45141 2.60656,-2.89641 2.02583,-1.54785 4.00388,-2.09754 6.25845,-1.73914 1.26638,0.2013 2.55877,0.7919 3.76291,1.71955 0.80024,0.61649 2.40794,2.50701 2.98349,3.50835 1.3334,2.31979 2.1307,4.70311 2.58924,7.73994 0.40793,2.70157 0.24223,6.46838 -0.40264,9.15316 -1.58358,6.59287 -5.65393,10.95307 -10.1543,10.8774 -0.49341,-0.008 -1.01603,-0.0318 -1.16138,-0.0522 z m 2.79985,-4.15384 c 0.63461,-0.24136 1.64647,-0.96072 2.22883,-1.58452 2.18917,-2.34499 3.47615,-6.28046 3.48421,-10.65436 0.009,-4.42737 -1.15366,-8.17703 -3.28514,-10.60246 -1.33785,-1.52236 -2.50283,-2.13021 -4.08263,-2.13021 -1.57324,0 -2.742,0.60715 -4.07713,2.11802 -1.83751,2.07936 -3.0257,5.40848 -3.27614,9.17921 -0.0911,1.37124 0.004,3.38413 0.22164,4.69581 0.62728,3.77917 2.30699,6.95553 4.4653,8.44397 1.29683,0.89433 2.86501,1.08832 4.32106,0.53454 z m -54.550253,-8.42262 c -1.481431,-0.30799 -3.003922,-1.03596 -4.118176,-1.96908 -0.642913,-0.53841 -1.646087,-1.68263 -2.110632,-2.40741 -0.807048,-1.25912 -1.384525,-2.74983 -1.761436,-4.54699 -0.194309,-0.92647 -0.217062,-3.72881 -0.03825,-4.70834 0.294417,-1.61269 1.010185,-3.49901 1.779042,-4.6885 1.399773,-2.16555 3.18515,-3.51344 5.676868,-4.28583 0.598011,-0.185374 3.188357,-0.185648 3.787687,-4e-4 0.99756,0.30835 1.60119,0.56556 2.30094,0.98044 2.64747,1.56969 4.43024,4.32057 5.15465,7.95387 0.076,0.38102 0.11705,1.22601 0.11453,2.35587 -0.003,1.50922 -0.0333,1.89134 -0.20905,2.66566 -0.53228,2.34552 -1.33362,3.99983 -2.68651,5.54602 -1.26557,1.44641 -2.60283,2.31722 -4.49492,2.92707 -0.43608,0.14057 -2.942278,0.27168 -3.394768,0.17761 z m 2.256663,-3.91742 c 1.45165,-0.28111 2.96029,-1.35701 3.85056,-2.74609 1.34896,-2.10473 1.69067,-4.85713 0.92136,-7.42134 -0.74038,-2.46778 -2.64035,-4.32672 -4.84846,-4.74377 -0.792686,-0.14972 -0.924992,-0.14946 -1.71767,0.003 -2.17623,0.41919 -3.931748,2.1039 -4.811642,4.61754 -0.699153,1.99732 -0.549806,4.72225 0.362626,6.61638 0.912885,1.89506 2.584979,3.32228 4.294862,3.66588 0.924813,0.18584 1.028703,0.18628 1.948364,0.008 z m 25.09397,3.91621 c -1.28983,-0.21192 -3.06405,-1.04784 -4.14383,-1.95235 -1.90552,-1.59623 -3.18247,-3.82687 -3.83382,-6.69714 -0.17573,-0.77432 -0.20569,-1.15644 -0.20906,-2.66566 -0.003,-1.12986 0.0385,-1.97486 0.11453,-2.35587 0.48801,-2.44763 1.37715,-4.352 2.78103,-5.95648 1.32308,-1.51214 2.63359,-2.34696 4.67456,-2.97783 0.59932,-0.185258 3.18967,-0.184984 3.78768,3.9e-4 2.49172,0.7724 4.27711,2.12029 5.67687,4.28584 0.76886,1.18949 1.48463,3.07581 1.77905,4.6885 0.17883,0.97953 0.15608,3.78186 -0.0383,4.70834 -0.5184,2.47179 -1.3406,4.21585 -2.74313,5.81879 -1.27737,1.4599 -2.57629,2.31051 -4.45434,2.91694 -0.47449,0.15322 -2.81167,0.28177 -3.39131,0.18654 z m 2.21263,-3.91621 c 2.13667,-0.41376 4.04397,-2.30474 4.77193,-4.73113 0.40411,-1.34698 0.50791,-2.54119 0.3349,-3.8529 -0.23962,-1.81667 -0.82376,-3.1414 -1.94847,-4.41883 -0.93957,-1.06714 -1.93842,-1.65538 -3.2349,-1.90511 -0.79269,-0.15269 -0.92499,-0.15295 -1.71767,-0.003 -2.20811,0.41705 -4.10809,2.276 -4.84847,4.74377 -0.7693,2.56422 -0.42759,5.31661 0.92136,7.42135 0.8645,1.34884 2.3979,2.46159 3.77295,2.7379 0.92482,0.18584 1.02871,0.18627 1.94837,0.008 z"
       id="path836" />
  </g>
</svg>
