<?xml version="1.0" encoding="UTF-8" standalone="no"?>
<!-- Created with Inkscape (http://www.inkscape.org/) -->

<svg
   width="210mm"
   height="297mm"
   viewBox="0 0 210 297"
   version="1.1"
   id="svg5"
   inkscape:version="1.1 (c68e22c387, 2021-05-23)"
   sodipodi:docname="color picker svg.svg"
   xmlns:inkscape="http://www.inkscape.org/namespaces/inkscape"
   xmlns:sodipodi="http://sodipodi.sourceforge.net/DTD/sodipodi-0.dtd"
   xmlns="http://www.w3.org/2000/svg"
   xmlns:svg="http://www.w3.org/2000/svg">
  <sodipodi:namedview
     id="namedview7"
     pagecolor="#ffffff"
     bordercolor="#666666"
     borderopacity="1.0"
     inkscape:pageshadow="2"
     inkscape:pageopacity="0.0"
     inkscape:pagecheckerboard="0"
     inkscape:document-units="mm"
     showgrid="false"
     inkscape:zoom="0.43942712"
     inkscape:cx="393.69441"
     inkscape:cy="428.96761"
     inkscape:window-width="1680"
     inkscape:window-height="956"
     inkscape:window-x="-11"
     inkscape:window-y="-11"
     inkscape:window-maximized="1"
     inkscape:current-layer="layer1" />
  <defs
     id="defs2" />
  <g
     inkscape:label="Layer 1"
     inkscape:groupmode="layer"
     id="layer1">
    <path
       style="fill:#000000;stroke-width:0.042182"
       d="m 122.7016,174.68743 c -0.0983,-0.006 -0.5611,-0.0324 -1.02829,-0.0558 -2.81829,-0.14164 -6.02957,-0.57092 -8.60641,-1.15051 -1.39842,-0.31454 -1.74041,-0.39823 -2.68253,-0.6565 -1.05928,-0.29039 -1.10394,-0.30353 -1.8107,-0.53264 -0.27048,-0.0877 -0.67286,-0.21665 -0.89416,-0.28658 -0.72275,-0.22837 -2.53121,-0.90546 -3.39786,-1.27215 -1.07492,-0.45481 -1.29327,-0.55247 -2.19072,-0.97977 -3.149813,-1.49969 -5.982081,-3.24871 -8.655316,-5.34492 -0.976005,-0.76532 -1.908449,-1.58023 -3.16489,-2.76592 -0.330023,-0.31144 -1.417333,-1.43763 -1.7947,-1.85887 -0.658117,-0.73461 -1.171602,-1.34238 -1.542955,-1.82627 -0.05881,-0.0767 -0.170813,-0.2199 -0.248929,-0.3184 -0.369511,-0.46593 -0.549943,-0.7096 -1.031447,-1.39294 -0.438681,-0.62257 -1.065196,-1.56934 -1.065196,-1.60969 0,-0.006 -0.106427,-0.17977 -0.236495,-0.38506 -0.21986,-0.34698 -1.238891,-2.16322 -1.238891,-2.20811 0,-0.0174 -0.07213,-0.17016 -0.223437,-0.47341 -0.219261,-0.43941 -0.292081,-0.59291 -0.430963,-0.90848 -0.334004,-0.7589 -0.738319,-1.76137 -0.906726,-2.24816 -0.09605,-0.27763 -0.234994,-0.67493 -0.308766,-0.88288 -0.291444,-0.82153 -0.707713,-2.44306 -1.03699,-4.0395 -0.08861,-0.42964 -0.273479,-1.77268 -0.365363,-2.65434 -0.08251,-0.79186 -0.09689,-1.20103 -0.09823,-2.79801 -7.32e-4,-1.14061 0.01917,-2.07239 0.05157,-2.38789 0.02926,-0.28455 0.0744,-0.74707 0.100348,-1.0278 0.06679,-0.72286 0.327581,-2.28643 0.538136,-3.22661 0.198888,-0.88809 0.609875,-2.3972 0.803137,-2.94905 0.06898,-0.197 0.199209,-0.57309 0.289382,-0.83576 0.147535,-0.42975 0.272733,-0.74512 0.797906,-2.00981 0.438374,-1.05568 1.497719,-3.0627 2.243901,-4.25126 1.466462,-2.33587 2.913744,-4.16817 5.005514,-6.33712 0.795588,-0.82494 3.002994,-2.80469 3.905102,-3.50235 0.595238,-0.46033 1.846069,-1.37318 2.450991,-1.78872 1.036832,-0.71222 3.206245,-2.02186 4.161787,-2.5124 0.26478,-0.13592 0.67254,-0.34836 0.90614,-0.47209 0.65464,-0.34673 2.16252,-1.04179 3.19667,-1.47349 0.2213,-0.0924 0.5432,-0.22677 0.71534,-0.29865 0.17212,-0.0719 0.56444,-0.22335 0.87181,-0.33662 1.81259,-0.66798 2.88848,-1.02075 4.24732,-1.39267 0.33196,-0.0909 0.65387,-0.18151 0.71534,-0.20144 0.42601,-0.13809 2.67678,-0.64576 3.8673,-0.87228 1.84525,-0.35109 4.50482,-0.68081 6.59452,-0.81755 1.34682,-0.0881 4.21367,-0.12147 5.56622,-0.0647 2.77858,0.11655 5.51463,0.41951 7.91342,0.87625 0.22132,0.0421 0.55327,0.10463 0.7377,0.13887 0.31417,0.0583 0.78533,0.16261 2.07895,0.4601 0.29508,0.0679 0.6874,0.1664 0.87182,0.21897 0.18442,0.0526 0.57674,0.1616 0.87182,0.24229 0.74021,0.2024 0.95081,0.26471 1.54244,0.45629 0.28279,0.0916 0.64493,0.20711 0.80476,0.25675 0.43739,0.13585 1.92682,0.67279 2.48133,0.89452 0.59992,0.23988 1.92897,0.79846 2.21304,0.93009 0.18445,0.0855 0.60695,0.28124 0.93892,0.43504 0.33196,0.1538 0.66392,0.31067 0.73769,0.3486 0.52963,0.27232 1.73883,0.91056 1.92247,1.01473 0.82286,0.46677 1.83956,1.06841 2.17497,1.28706 0.0897,0.0585 0.40022,0.25853 0.69008,0.44458 0.7521,0.48279 2.03403,1.40108 3.00554,2.15297 1.62467,1.2574 4.0238,3.49052 5.19479,4.83532 0.79369,0.9115 1.09011,1.26078 1.31891,1.55419 0.0984,0.12613 0.30586,0.39134 0.46112,0.58935 2.05585,2.62216 4.06608,6.25181 5.05957,9.13551 0.10179,0.29551 0.20273,0.58205 0.2243,0.63678 0.20777,0.52714 0.63707,2.066 0.8733,3.13035 0.22912,1.03232 0.49329,2.61658 0.55956,3.35578 0.0246,0.27414 0.0536,0.56112 0.0645,0.63773 0.11725,0.82684 0.13461,4.10373 0.0268,5.07427 -0.0243,0.21889 -0.0663,0.62184 -0.0933,0.89546 -0.0515,0.52099 -0.24182,1.86742 -0.31223,2.20879 -0.32928,1.59644 -0.74555,3.21798 -1.03699,4.03951 -0.0737,0.20796 -0.21376,0.60826 -0.31108,0.8896 -0.23837,0.68899 -0.87971,2.22296 -1.20882,2.89122 -0.0485,0.0985 -0.1183,0.24177 -0.15506,0.31839 -0.23165,0.48265 -0.39142,0.78801 -0.80169,1.53223 -0.21722,0.39401 -0.46839,0.83278 -0.55815,0.97505 -0.0898,0.14228 -0.22947,0.36614 -0.31043,0.49748 -0.38405,0.62298 -0.58174,0.92297 -0.99654,1.51233 -0.5072,0.72065 -0.74567,1.04633 -1.02374,1.39812 -0.24835,0.31418 -0.56454,0.71809 -0.68191,0.87106 -0.0507,0.0661 -0.27322,0.32544 -0.49453,0.57644 -0.22131,0.251 -0.47375,0.54089 -0.561,0.6442 -0.0872,0.10332 -0.40909,0.45283 -0.71523,0.7767 -3.43143,3.63026 -7.76999,6.78037 -12.53874,9.10407 -1.76262,0.8589 -2.97001,1.36665 -5.18619,2.18101 -1.1941,0.43878 -3.84425,1.22689 -5.07444,1.50906 -2.10327,0.4824 -3.04079,0.66316 -4.80617,0.92665 -1.49181,0.22267 -2.85247,0.36536 -4.605,0.48294 -0.85068,0.0571 -4.83484,0.10943 -5.36502,0.0705 z m 5.09677,-1.61042 c 2.96842,-0.1677 5.76008,-0.56079 8.59205,-1.20985 2.24004,-0.51341 4.23707,-1.11545 6.47476,-1.95195 1.83743,-0.68686 4.37267,-1.84958 5.9239,-2.71685 0.92685,-0.51819 1.80065,-1.03761 2.5484,-1.5149 0.72897,-0.46529 2.18766,-1.47724 2.70884,-1.87926 0.37137,-0.28644 1.29077,-1.00696 1.31493,-1.03049 0.0123,-0.012 0.32158,-0.27821 0.68731,-0.59165 0.36572,-0.31344 0.87725,-0.76986 1.13673,-1.01425 0.25948,-0.2444 0.59514,-0.56077 0.74592,-0.70305 0.33114,-0.31248 1.19265,-1.21081 1.58999,-1.65795 0.62797,-0.70666 0.74911,-0.84824 1.15949,-1.35509 0.7366,-0.90975 0.90416,-1.12828 1.39738,-1.82243 0.44579,-0.6274 0.87759,-1.27968 1.33051,-2.00981 0.32567,-0.525 1.23353,-2.18947 1.51951,-2.78586 0.29233,-0.60964 0.8808,-1.97868 1.05207,-2.4476 0.37618,-1.02988 0.58373,-1.66082 0.79866,-2.42767 0.22779,-0.81277 0.32188,-1.198 0.55888,-2.2884 0.11899,-0.54747 0.34803,-2.07663 0.40535,-2.70628 0.0249,-0.2736 0.0666,-0.72134 0.0925,-0.99494 0.0631,-0.6643 0.0634,-3.12415 4.3e-4,-3.92012 -0.27474,-3.47861 -0.95922,-6.35549 -2.2489,-9.45206 -1.24485,-2.98901 -3.27978,-6.25757 -5.43058,-8.72279 -0.17807,-0.2041 -0.44968,-0.51628 -0.60357,-0.69374 -0.24958,-0.2878 -0.52586,-0.58012 -0.95512,-1.01058 -0.0764,-0.0766 -0.28175,-0.28503 -0.45634,-0.46314 -0.37725,-0.38489 -1.21804,-1.17974 -1.57291,-1.48697 -1.10779,-0.95911 -1.47935,-1.2632 -2.45928,-2.01268 -0.83247,-0.63669 -2.07533,-1.50064 -2.86136,-1.98901 -0.0861,-0.0535 -0.21874,-0.13759 -0.29484,-0.18692 -0.13297,-0.0862 -0.94588,-0.56959 -1.69469,-1.00774 -0.19671,-0.1151 -0.52868,-0.29805 -0.7377,-0.40655 -0.20901,-0.1085 -0.61139,-0.31819 -0.89417,-0.46597 -1.15163,-0.60184 -3.56519,-1.68092 -4.51556,-2.01887 -0.18444,-0.0656 -0.58681,-0.21388 -0.89419,-0.32956 -0.30736,-0.11568 -0.93104,-0.3298 -1.38596,-0.47581 -0.45491,-0.14601 -0.89753,-0.2892 -0.98359,-0.3182 -0.15618,-0.0526 -1.31228,-0.38028 -1.98953,-0.56387 -0.40303,-0.10925 -1.96036,-0.47548 -2.36957,-0.55722 -2.04153,-0.40786 -3.60269,-0.64882 -5.25325,-0.81084 -0.45492,-0.0447 -0.86992,-0.0896 -0.92224,-0.1 -0.0524,-0.0103 -0.70617,-0.0558 -1.45302,-0.10111 -1.56169,-0.0947 -4.51379,-0.11514 -5.76171,-0.0398 -1.88569,0.11375 -3.79422,0.29778 -4.94031,0.47636 -0.27048,0.0421 -0.64268,0.0966 -0.82711,0.12107 -1.01596,0.13466 -4.45362,0.86749 -5.2309,1.11512 -0.0614,0.0196 -0.38337,0.11043 -0.71534,0.20187 -3.25242,0.89593 -7.05837,2.45886 -10.03708,4.1218 -1.03007,0.57505 -2.682696,1.59813 -3.491983,2.16174 -0.174718,0.12167 -0.534886,0.37244 -0.800369,0.55727 -0.265491,0.18481 -0.59534,0.42734 -0.732986,0.53893 -0.137654,0.1116 -0.471395,0.3723 -0.74164,0.57933 -2.029251,1.55453 -4.563462,4.05736 -6.166905,6.09052 -0.475496,0.60292 -1.20157,1.58518 -1.601021,2.16592 -1.02195,1.48572 -2.329443,3.85823 -2.917072,5.29315 -0.08964,0.21889 -0.190505,0.46067 -0.224154,0.53728 -0.506243,1.15274 -1.17667,3.25479 -1.492956,4.68104 -0.368976,1.66382 -0.495761,2.48246 -0.631037,4.07454 -0.02509,0.29551 -0.05669,0.66265 -0.07022,0.81586 -0.04213,0.47752 -0.0237,3.079 0.02546,3.60174 0.02575,0.27361 0.06723,0.72135 0.0921,0.99495 0.05735,0.62965 0.28636,2.15881 0.405353,2.70627 0.234497,1.07889 0.329219,1.46925 0.535971,2.2088 0.453838,1.62341 1.088817,3.309 1.836564,4.87527 0.311137,0.65174 1.266477,2.40905 1.579399,2.90527 1.049601,1.66438 1.622557,2.46477 2.748893,3.8401 1.901352,2.32167 3.877546,4.21219 6.590554,6.30481 0.919971,0.70962 2.983596,2.08832 4.016565,2.68348 0.918974,0.52948 1.146774,0.65864 1.464214,0.83025 1.2744,0.68891 2.79393,1.41337 4.1579,1.98233 0.80711,0.33667 1.25789,0.51217 2.36957,0.92252 3.89299,1.43701 9.31296,2.56242 13.56905,2.81747 0.39345,0.0236 0.83606,0.0533 0.9836,0.0661 0.46926,0.0406 2.55765,0.0773 3.57668,0.0629 0.54097,-0.008 1.60728,-0.0491 2.36956,-0.0922 z m -10.28298,-10.16882 c -0.69703,-0.0892 -1.58066,-0.42419 -2.18253,-0.8274 -0.95921,-0.64264 -1.65046,-1.64272 -1.91472,-2.77018 -0.0908,-0.38723 -0.0792,-1.49505 0.0194,-1.86132 0.2631,-0.97715 0.68042,-1.66661 1.39228,-2.30029 0.67155,-0.5978 1.33671,-0.92782 2.37262,-1.1772 0.30419,-0.0732 1.61894,-0.0731 1.92247,0 0.70028,0.16907 1.3354,0.42519 1.79027,0.72198 0.96717,0.63103 1.61529,1.51284 1.94589,2.64753 0.0892,0.30611 0.1044,0.45717 0.10611,1.0538 0.002,0.44665 -0.0195,0.78071 -0.0581,0.93133 -0.2477,0.96759 -0.69899,1.72044 -1.41154,2.35473 -0.64834,0.57713 -1.30762,0.9134 -2.26084,1.15314 -0.24082,0.0605 -1.42708,0.11138 -1.72128,0.0737 z m 1.12304,-1.54816 c 1.5143,-0.2284 2.6259,-1.47503 2.6259,-2.94486 0,-1.48482 -1.11791,-2.72233 -2.66475,-2.94989 -0.40084,-0.059 -0.47097,-0.059 -0.87181,0 -1.12075,0.16488 -2.0851,0.89976 -2.46087,1.87533 -0.20512,0.53249 -0.25782,1.0046 -0.16999,1.52314 0.12161,0.71817 0.41811,1.24187 0.98897,1.74686 0.30008,0.26547 0.44407,0.35815 0.78666,0.50631 0.27451,0.11872 0.54283,0.20112 0.77699,0.2386 0.46773,0.0748 0.52078,0.0751 0.9889,0.005 z m 12.7143,1.54864 c -0.51172,-0.0828 -1.02101,-0.23571 -1.45847,-0.43773 -1.34375,-0.62053 -2.2486,-1.70803 -2.61629,-3.14435 -0.0385,-0.15062 -0.0594,-0.48466 -0.0581,-0.93133 0.002,-0.59662 0.0169,-0.7477 0.10612,-1.0538 0.27015,-0.92723 0.67688,-1.58122 1.36354,-2.19246 0.66076,-0.58818 1.35016,-0.93021 2.37261,-1.17706 0.30353,-0.0733 1.61828,-0.0734 1.92247,0 0.73564,0.1771 1.3125,0.41055 1.7996,0.72828 0.32632,0.21284 0.83549,0.66517 1.07128,0.95169 0.40962,0.49777 0.70272,1.08708 0.89403,1.79753 0.0986,0.36627 0.11017,1.47409 0.0194,1.86132 -0.41647,1.77671 -1.73506,3.03629 -3.69313,3.52786 -0.22134,0.0556 -1.49338,0.10739 -1.72305,0.0702 z m 1.14538,-1.54992 c 1.06822,-0.16453 1.96412,-0.84314 2.40332,-1.82042 0.29347,-0.65295 0.30039,-1.46644 0.0187,-2.19772 -0.3758,-0.97557 -1.34014,-1.71045 -2.46088,-1.87533 -0.40086,-0.059 -0.47097,-0.059 -0.87183,0 -1.54682,0.22756 -2.66473,1.46507 -2.66473,2.94989 0,1.18491 0.69306,2.21375 1.82475,2.70887 0.26863,0.11751 0.52396,0.19554 0.76174,0.23275 0.47046,0.0737 0.52297,0.0737 0.98892,0.002 z m -27.32229,0.614 c -0.59066,-0.0759 -1.28177,-0.32684 -1.86739,-0.67822 -0.40618,-0.24372 -1.22218,-0.99109 -1.51429,-1.38694 -0.67679,-0.91707 -1.08146,-1.85924 -1.3142,-3.05977 -0.20704,-1.068 -0.12295,-2.55711 0.20437,-3.61846 0.62876,-2.03885 2.05871,-3.58997 3.77736,-4.09744 0.62453,-0.18441 0.9426,-0.22353 1.58203,-0.19459 1.15602,0.0523 2.07159,0.42032 2.9978,1.20492 1.19182,1.00961 1.9776,2.52503 2.21944,4.28033 0.0964,0.69959 0.0637,1.9291 -0.0676,2.53995 -0.23789,1.10728 -0.65214,2.08043 -1.19235,2.80114 -0.0965,0.1288 -0.22398,0.29893 -0.28321,0.37809 -0.16977,0.22686 -1.02738,0.9691 -1.32299,1.14502 -1.0278,0.61165 -2.06919,0.83358 -3.21901,0.68597 z m 1.29678,-1.56199 c 1.16398,-0.27595 2.20368,-1.30748 2.72704,-2.7056 0.62687,-1.67456 0.50842,-3.62777 -0.31147,-5.13683 -0.60135,-1.1068 -1.52029,-1.86556 -2.48286,-2.05008 -1.4572,-0.27932 -2.89361,0.58887 -3.70511,2.2394 -0.64228,1.30637 -0.78182,3.0246 -0.36395,4.48148 0.46543,1.62269 1.5749,2.85115 2.86193,3.16885 0.27051,0.0668 0.99778,0.0684 1.27442,0.003 z m 37.10793,1.54806 c -0.62478,-0.10158 -1.18095,-0.31057 -1.78834,-0.67204 -0.29562,-0.17592 -1.15323,-0.91816 -1.32298,-1.14502 -0.0593,-0.0792 -0.18668,-0.24929 -0.28323,-0.37809 -0.5402,-0.72071 -0.95445,-1.69386 -1.19236,-2.80114 -0.13123,-0.61085 -0.16392,-1.84036 -0.0675,-2.53995 0.32441,-2.35451 1.63212,-4.25722 3.50252,-5.0962 0.57292,-0.25696 1.01558,-0.35741 1.71473,-0.38905 0.63944,-0.0289 0.95751,0.0102 1.58202,0.19459 1.51314,0.44679 2.82473,1.71616 3.52654,3.41302 0.32055,0.77504 0.45154,1.32892 0.53647,2.26849 0.16831,1.86152 -0.31685,3.63259 -1.39546,5.09416 -0.29212,0.39585 -1.10812,1.14322 -1.51429,1.38694 -0.36997,0.22198 -0.9045,0.4561 -1.26956,0.55604 -0.60313,0.16513 -1.4129,0.20834 -2.02852,0.10825 z m 1.3862,-1.54806 c 1.29801,-0.30773 2.41488,-1.53597 2.88405,-3.17163 0.33672,-1.17398 0.31096,-2.59565 -0.0682,-3.75894 -0.82767,-2.53999 -3.08989,-3.7123 -4.97022,-2.57564 -1.70699,1.03188 -2.60551,3.63088 -2.06964,5.98655 0.40936,1.79961 1.56243,3.17448 2.94949,3.51688 0.27052,0.0668 0.99779,0.0684 1.27443,0.003 z M 93.788425,147.54921 c -1.755705,-0.21085 -3.369294,-0.86867 -4.402451,-1.79478 -1.132312,-1.01498 -1.598717,-2.17156 -1.396808,-3.4638 0.277992,-1.7792 2.132384,-3.34211 4.668241,-3.93447 1.268891,-0.2964 2.863462,-0.34197 4.113197,-0.11753 1.386022,0.24891 2.542624,0.71945 3.482646,1.41684 0.87773,0.65119 1.43767,1.41281 1.70789,2.32307 0.097,0.3268 0.13541,1.21979 0.0644,1.49634 -0.1435,0.55844 -0.40433,1.14545 -0.66142,1.48851 -0.2758,0.36806 -0.84215,0.91635 -1.18987,1.15194 -1.115717,0.75595 -2.146574,1.15029 -3.64951,1.3961 -0.548954,0.0898 -2.122378,0.11152 -2.736275,0.0378 z m 2.020941,-1.5145 c 1.08366,-0.0775 2.28591,-0.46634 3.111043,-1.00627 1.010659,-0.66135 1.510431,-1.53308 1.394861,-2.43304 -0.0725,-0.56453 -0.354846,-1.04242 -0.905899,-1.5333 -1.031168,-0.91853 -2.572499,-1.41555 -4.404759,-1.42037 -0.786621,-0.002 -1.192963,0.0426 -1.90908,0.21 -1.46009,0.34119 -2.583259,1.04114 -3.105565,1.93533 -0.249602,0.42734 -0.309651,0.63663 -0.312058,1.08766 -0.0085,1.59445 2.068955,2.99767 4.703996,3.17729 0.500281,0.034 0.750997,0.031 1.427461,-0.0173 z m 58.523594,1.55008 c -1.41103,-0.11208 -2.84065,-0.54527 -3.84496,-1.16504 -0.63084,-0.38932 -0.86419,-0.57554 -1.30143,-1.03848 -0.32806,-0.34735 -0.45331,-0.51994 -0.64305,-0.88609 -0.33999,-0.65614 -0.44368,-1.09727 -0.41287,-1.75656 0.0336,-0.72006 0.16603,-1.14387 0.54478,-1.74393 0.36128,-0.57241 0.67548,-0.90679 1.25836,-1.33922 0.94,-0.69739 2.09661,-1.16793 3.48264,-1.41684 1.24973,-0.22444 2.8443,-0.17887 4.11319,0.11753 2.53585,0.59236 4.39024,2.15527 4.66824,3.93447 0.20191,1.29224 -0.2645,2.44882 -1.39681,3.4638 -1.05325,0.94412 -2.67922,1.59841 -4.45985,1.79464 -0.485,0.0534 -1.54723,0.0723 -2.00824,0.0357 z m 1.65421,-1.54758 c 0.47791,-0.0351 1.283,-0.20102 1.75978,-0.36266 1.70201,-0.57703 2.76825,-1.65782 2.76216,-2.79983 -0.002,-0.45103 -0.0625,-0.66032 -0.31206,-1.08766 -0.52231,-0.89419 -1.64547,-1.59414 -3.10556,-1.93533 -0.71612,-0.16736 -1.12246,-0.21206 -1.90907,-0.21 -1.83226,0.005 -3.37361,0.50184 -4.40476,1.42037 -0.55106,0.49088 -0.83341,0.96877 -0.90591,1.5333 -0.1447,1.12685 0.68239,2.20199 2.20342,2.86422 1.17289,0.51065 2.38556,0.68969 3.912,0.57759 z M 94.043374,134.56973 c -2.663804,-0.28442 -4.733761,-1.40522 -5.676366,-3.07354 -0.483324,-0.85545 -0.557315,-1.93321 -0.197915,-2.88291 0.583285,-1.54126 2.38827,-2.82052 4.670195,-3.30991 1.346378,-0.28875 3.009103,-0.28706 4.356042,0.005 0.921889,0.1995 1.826602,0.5488 2.503679,0.96666 0.630861,0.38931 0.864221,0.57552 1.301451,1.03847 0.32807,0.34734 0.45331,0.51993 0.64305,0.8861 0.33999,0.65611 0.44368,1.09725 0.41287,1.75654 -0.0336,0.72006 -0.16604,1.14387 -0.54478,1.74394 -0.36128,0.5724 -0.67548,0.90678 -1.25835,1.33922 -1.098543,0.81499 -2.507592,1.32524 -4.190047,1.51732 -0.32401,0.037 -1.713366,0.0464 -2.019829,0.0137 z m 2.123659,-1.58852 c 1.309144,-0.16967 2.452188,-0.64528 3.242338,-1.34912 0.704709,-0.62776 0.996439,-1.28664 0.909409,-2.05396 -0.16415,-1.44724 -2.217797,-2.76465 -4.554717,-2.92182 -0.20869,-0.0141 -0.459908,-0.031 -0.558266,-0.0377 -0.354575,-0.0241 -1.351706,0.0631 -1.849185,0.16178 -2.176698,0.43156 -3.685967,1.67839 -3.678703,3.03905 0.0029,0.45103 0.06247,0.66033 0.312058,1.08765 0.522204,0.89403 1.643968,1.59321 3.105565,1.93566 1.014995,0.23781 1.971916,0.28094 3.071501,0.13843 z m 57.920017,1.57514 c -1.73069,-0.22272 -3.06505,-0.71031 -4.15326,-1.51764 -0.58288,-0.43242 -0.89708,-0.76681 -1.25836,-1.33921 -0.37875,-0.60006 -0.51114,-1.02388 -0.54478,-1.74394 -0.0308,-0.65928 0.0729,-1.10043 0.41287,-1.75655 0.52314,-1.00958 1.64103,-1.91599 3.03986,-2.46473 1.05095,-0.4123 2.01774,-0.59949 3.28609,-0.63627 1.25559,-0.0364 2.31391,0.10283 3.37102,0.44345 2.74062,0.88311 4.28299,2.77808 3.95737,4.86209 -0.278,1.7792 -2.13239,3.34212 -4.66824,3.93447 -0.77472,0.18096 -1.19808,0.22738 -2.19072,0.24018 -0.54099,0.006 -1.10431,-0.003 -1.25185,-0.0218 z m 2.16837,-1.55702 c 0.4974,-0.0591 1.28289,-0.25305 1.7408,-0.42985 1.05884,-0.4088 1.79216,-0.96271 2.20083,-1.66236 0.24961,-0.42733 0.30965,-0.63663 0.31206,-1.08766 0.007,-1.36065 -1.50199,-2.60749 -3.6787,-3.03906 -0.49748,-0.0986 -1.4946,-0.18586 -1.84919,-0.16176 -0.0984,0.007 -0.34957,0.0236 -0.55826,0.0377 -2.33691,0.15716 -4.39055,1.47457 -4.55471,2.92181 -0.087,0.76732 0.20469,1.4262 0.90941,2.05396 1.231,1.09654 3.33533,1.62178 5.47776,1.36724 z m -51.22436,-9.28808 c -0.9907,-0.20309 -1.82595,-0.63035 -2.53793,-1.29824 -0.70908,-0.66518 -1.17954,-1.34874 -1.55798,-2.26376 -0.32056,-0.77504 -0.45155,-1.32892 -0.53648,-2.26849 -0.16831,-1.86153 0.31685,-3.63259 1.39547,-5.09416 0.29211,-0.39586 1.10811,-1.14322 1.51429,-1.38693 1.6176,-0.97062 3.44708,-0.96784 5.08641,0.008 0.29561,0.17592 1.15322,0.91816 1.32299,1.14502 0.0593,0.0791 0.18667,0.24928 0.28321,0.37808 0.54021,0.72071 0.95446,1.69388 1.19235,2.80115 0.13125,0.61084 0.16395,1.84036 0.0676,2.53995 -0.24184,1.75529 -1.02763,3.27072 -2.21945,4.28033 -0.68179,0.57755 -1.32157,0.90321 -2.2097,1.12481 -0.33559,0.0837 -1.45584,0.1052 -1.80072,0.0345 z m 1.67793,-1.61262 c 0.91122,-0.28509 1.7605,-1.09775 2.29618,-2.19717 1.10702,-2.27203 0.62001,-5.32718 -1.08934,-6.83379 -0.67766,-0.59728 -1.27088,-0.8373 -2.06938,-0.8373 -0.80184,0 -1.39313,0.2403 -2.07217,0.84212 -0.66064,0.58552 -1.1598,1.41254 -1.43803,2.38256 -0.33672,1.17399 -0.31096,2.59565 0.0682,3.75895 0.54728,1.6795 1.82082,2.88402 3.17385,3.00186 0.34579,0.0301 0.81547,-0.0186 1.13079,-0.11723 z m 37.05037,1.64568 c -0.87648,-0.0957 -1.83584,-0.53334 -2.61383,-1.19237 -1.19183,-1.0096 -1.97761,-2.52504 -2.21945,-4.28033 -0.0964,-0.69959 -0.0637,-1.9291 0.0675,-2.53995 0.2379,-1.10727 0.65215,-2.08043 1.19236,-2.80115 0.0965,-0.12879 0.22398,-0.29893 0.28322,-0.37808 0.16976,-0.22686 1.02736,-0.9691 1.32298,-1.14502 1.02822,-0.6119 2.03219,-0.8292 3.17652,-0.68752 0.64276,0.0796 1.29872,0.31305 1.90989,0.67978 0.40618,0.24371 1.22218,0.99107 1.51429,1.38693 0.67679,0.91707 1.08146,1.85925 1.3142,3.05977 0.20705,1.068 0.12294,2.5571 -0.20437,3.61846 -0.80375,2.60632 -2.86969,4.33 -5.15389,4.30009 -0.25043,-0.003 -0.51569,-0.0126 -0.58946,-0.0206 z m 1.42108,-1.64211 c 0.32211,-0.0954 0.83569,-0.37979 1.13126,-0.6264 1.11114,-0.92703 1.76436,-2.48281 1.76844,-4.21191 0.004,-1.75024 -0.58555,-3.23257 -1.6674,-4.1914 -0.67903,-0.60182 -1.27032,-0.84212 -2.07216,-0.84212 -0.79851,0 -1.39173,0.24002 -2.06938,0.8373 -0.93265,0.82202 -1.53572,2.1381 -1.66284,3.62875 -0.0462,0.54209 0.002,1.33783 0.1125,1.85637 0.31838,1.49399 1.17094,2.74968 2.2664,3.33809 0.65821,0.35355 1.45416,0.43024 2.19318,0.21132 z m -27.68739,-3.32966 c -0.75192,-0.12175 -1.52467,-0.40954 -2.09021,-0.77842 -0.32632,-0.21284 -0.83549,-0.66518 -1.07127,-0.9517 -0.40963,-0.49776 -0.70272,-1.08708 -0.89403,-1.79753 -0.0986,-0.36626 -0.11017,-1.47409 -0.0194,-1.86132 0.14944,-0.63753 0.51273,-1.38324 0.90297,-1.85347 0.71047,-0.85609 1.61665,-1.38895 2.88134,-1.69429 0.30353,-0.0733 1.61827,-0.0734 1.92247,-1.6e-4 0.50631,0.1219 0.81269,0.22358 1.16786,0.3876 1.34374,0.62053 2.2486,1.70802 2.61628,3.14434 0.0385,0.15063 0.0594,0.48467 0.0581,0.93133 -0.002,0.59663 -0.0169,0.74769 -0.10611,1.0538 -0.27016,0.92724 -0.67689,1.58122 -1.36355,2.19247 -0.64235,0.5718 -1.32108,0.91605 -2.28143,1.15714 -0.22134,0.0556 -1.49338,0.1074 -1.72305,0.0702 z m 1.14538,-1.54864 c 0.7368,-0.11113 1.50252,-0.53646 1.95439,-1.08559 0.68467,-0.83205 0.85811,-1.92014 0.46764,-2.93383 -0.37579,-0.97557 -1.34013,-1.71045 -2.46088,-1.87532 -0.40232,-0.0592 -0.46948,-0.0591 -0.87181,0.001 -1.10456,0.16571 -1.99558,0.83172 -2.44218,1.82541 -0.35486,0.78959 -0.27906,1.86682 0.18405,2.61561 0.46333,0.74916 1.31203,1.31337 2.17989,1.44921 0.4694,0.0735 0.52212,0.0736 0.9889,0.003 z m 12.73665,1.54817 c -0.65468,-0.0838 -1.5552,-0.41424 -2.10324,-0.77182 -0.96717,-0.63102 -1.61529,-1.51284 -1.94589,-2.64753 -0.0892,-0.3061 -0.10441,-0.45716 -0.1061,-1.05379 -0.002,-0.44666 0.0195,-0.78071 0.0581,-0.93133 0.24771,-0.96761 0.69899,-1.72045 1.41155,-2.35473 0.67154,-0.59779 1.33669,-0.92782 2.3726,-1.17721 0.30419,-0.0732 1.61894,-0.0731 1.92247,1.5e-4 1.26469,0.30535 2.17087,0.8382 2.88135,1.69429 0.39024,0.47024 0.75352,1.21594 0.90297,1.85347 0.0908,0.38724 0.0792,1.49506 -0.0194,1.86132 -0.26312,0.97715 -0.68044,1.66662 -1.39231,2.3003 -0.64833,0.57714 -1.30761,0.9134 -2.26083,1.15314 -0.24083,0.0606 -1.42707,0.11138 -1.72128,0.0737 z m 1.12303,-1.54817 c 1.08447,-0.16357 2.05254,-0.91112 2.42202,-1.87032 0.20511,-0.5325 0.2578,-1.0046 0.16999,-1.52315 -0.12162,-0.71817 -0.41811,-1.24186 -0.98897,-1.74686 -0.47689,-0.42186 -0.98385,-0.65441 -1.64189,-0.75314 -0.40234,-0.0604 -0.46948,-0.0605 -0.87182,-0.001 -1.12074,0.16487 -2.08509,0.89976 -2.46087,1.87532 -0.39047,1.0137 -0.21703,2.10178 0.46764,2.93383 0.43877,0.53323 1.21708,0.97312 1.91499,1.08236 0.4694,0.0735 0.52213,0.0736 0.98891,0.003 z"
       id="path836-7" />
    <path
       style="fill:#000000;stroke:#000000;stroke-width:3.77245;stroke-linecap:round;stroke-linejoin:round;stroke-dasharray:0.943116, 0.943116;stroke-opacity:0.955017;paint-order:stroke markers fill"
       d="m 154.06743,85.55279 c -0.30046,-0.08391 -1.77544,-0.382624 -3.27774,-0.6639 -12.2783,-2.298886 -23.15228,-11.172365 -28.32295,-23.112353 -2.21796,-5.121667 -2.81552,-8.268184 -2.81552,-14.825316 0,-5.0406 0.12854,-6.412678 0.85211,-9.095241 3.81516,-14.144352 13.46743,-23.99231 27.73701,-28.2993378 4.68036,-1.412686 12.51729,-1.77692 17.53805,-0.815103 17.34853,3.3234088 30.20099,17.1836728 32.08988,34.6061358 1.54185,14.221484 -6.00827,29.032824 -18.67154,36.62864 -6.2549,3.75188 -11.89595,5.36858 -19.48432,5.584143 -2.80428,0.07969 -5.34453,0.07625 -5.64498,-0.0077 z m 1.10449,-11.47228 c 1.26591,-0.762133 2.17324,-2.617889 2.17324,-4.444902 0,-2.936728 -1.92486,-5.088079 -4.55241,-5.088079 -3.53873,0 -5.6257,3.985833 -4.00154,7.642432 1.04348,2.349298 4.10974,3.257805 6.38071,1.890549 z m 12.7638,-0.08021 c 1.12218,-0.771763 2.15619,-2.8513 2.15619,-4.336402 0,-1.656509 -1.01912,-3.778369 -2.13838,-4.452225 -0.60676,-0.365292 -1.8652,-0.664166 -2.79656,-0.664166 -1.44021,0 -1.8785,0.215528 -2.93163,1.441617 -0.99903,1.163113 -1.23826,1.772161 -1.23826,3.152455 0,0.940958 0.15981,2.200171 0.35512,2.798254 0.79454,2.433023 4.4093,3.562634 6.59352,2.060467 z m -24.04819,-1.080089 c 1.87337,-1.46981 2.7123,-3.479779 2.69827,-6.464673 -0.0213,-4.529822 -1.96983,-7.415063 -5.01006,-7.41854 -2.62075,-0.0026 -4.3622,1.916288 -5.13654,5.661164 -0.65105,3.148547 0.7862,7.10026 3.06778,8.434832 1.699,0.993806 2.91815,0.93459 4.38055,-0.212783 z m 35.50049,-0.07255 c 2.08875,-1.59337 3.04946,-6.824853 1.86129,-10.135574 -1.75155,-4.880554 -7.12092,-4.948823 -9.00668,-0.114524 -0.77501,1.986794 -0.8826,4.561483 -0.27818,6.656794 1.15215,3.994069 4.66758,5.695672 7.42357,3.593304 z m -44.911,-15.525699 c 0.74286,-0.240209 1.8491,-1.017024 2.4583,-1.726275 0.89426,-1.041137 1.10763,-1.644565 1.10763,-3.132438 0,-2.580196 -1.26374,-4.239708 -3.91086,-5.135634 -4.38112,-1.482809 -9.20008,1.096209 -9.20008,4.923712 0,1.076824 0.83417,3.03855 1.6114,3.78953 1.59261,1.538836 5.29005,2.135887 7.93361,1.281105 z m 56.56313,-0.835711 c 1.56875,-1.128768 2.50757,-3.336022 2.17307,-5.109094 -0.26584,-1.40914 -2.29923,-3.637814 -3.73472,-4.093381 -0.54717,-0.173654 -1.81429,-0.315735 -2.81582,-0.315735 -2.50561,0 -3.5993,0.415402 -5.08074,1.929746 -2.7834,2.845239 -1.65482,6.977084 2.31782,8.485792 1.73241,0.657927 5.66593,0.163602 7.14039,-0.897328 z M 134.67524,42.782328 c 4.92716,-2.080789 4.56803,-8.141085 -0.58582,-9.885418 -4.37947,-1.482251 -9.15741,1.094262 -9.15741,4.938153 0,1.076827 0.83417,3.038541 1.6114,3.789531 1.63162,1.576523 5.75133,2.163049 8.13183,1.157734 z m 56.00096,-0.535806 c 1.76607,-1.04895 2.89708,-3.377022 2.54564,-5.239936 -0.45723,-2.423655 -3.61876,-4.678891 -6.55916,-4.678891 -3.04785,0 -6.16517,2.300026 -6.57642,4.852239 -0.39002,2.420429 1.17277,4.790715 3.8135,5.783929 1.58903,0.597658 5.20731,0.214631 6.77644,-0.717341 z M 144.10804,30.411278 c 3.14186,-2.396739 3.46306,-9.015372 0.59932,-12.349456 -1.09079,-1.269945 -1.44373,-1.427126 -3.20458,-1.427126 -1.76623,0 -2.11229,0.155431 -3.22164,1.446981 -3.08615,3.593019 -2.3069,10.880908 1.36978,12.810801 1.3089,0.687033 3.19223,0.483706 4.45712,-0.4812 z m 35.26234,-0.02889 c 1.49294,-1.138871 2.3757,-3.570377 2.3757,-6.543724 0,-4.430215 -1.95501,-7.203963 -5.07753,-7.203963 -2.93693,0 -5.09375,3.002294 -5.11187,7.115745 -0.0254,5.764817 4.22324,9.370884 7.8137,6.631942 z m -23.85472,-5.61535 c 2.20372,-1.903823 2.39184,-5.553298 0.40547,-7.86591 -1.00297,-1.167692 -1.38157,-1.326447 -3.16337,-1.326447 -1.88405,0 -2.11319,0.113264 -3.31313,1.637673 -1.18804,1.50929 -1.27566,1.800462 -1.1177,3.714359 0.099,1.199602 0.463,2.457498 0.86184,2.978337 1.61733,2.112075 4.43546,2.49602 6.32689,0.861988 z m 11.84852,0.585325 c 2.44103,-1.187431 3.40009,-4.672605 2.01409,-7.319055 -1.31403,-2.50902 -3.70519,-3.28723 -6.07598,-1.977443 -3.28954,1.817364 -3.05161,7.562074 0.38536,9.304307 1.45597,0.738049 2.14628,0.736587 3.67653,-0.0078 z"
       id="path1028" />
    <g
       id="g2279"
       transform="matrix(0.46924622,0,0,0.51687503,28.957843,142.26346)">
      <path
         style="fill:#000000;stroke-width:0.0993613"
         d="m 92.678228,264.14603 c -0.22697,-0.0174 -1.29477,-0.0778 -2.37289,-0.13421 -6.50342,-0.34055 -13.91372,-1.37276 -19.86001,-2.76638 -3.22697,-0.75631 -4.01613,-0.95755 -6.19014,-1.57856 -2.44437,-0.69823 -2.54744,-0.72982 -4.17834,-1.28073 -0.62417,-0.21085 -1.55269,-0.52092 -2.06338,-0.68907 -1.66778,-0.54912 -5.84098,-2.17717 -7.84083,-3.05887 -2.48045,-1.0936 -2.98433,-1.32841 -5.05528,-2.35585 -7.26845,-3.60601 -13.80415,-7.81149 -19.97286,-12.8518 -2.25221,-1.84021 -4.40391,-3.79966 -7.30324,-6.65065 -0.76156,-0.74886 -3.27063,-3.45676 -4.14143,-4.46962 -1.51865,-1.76637 -2.70356,-3.22776 -3.5605,-4.39128 -0.13567,-0.18422 -0.3941597,-0.52871 -0.5744197,-0.76556 -0.85268,-1.12034 -1.26904,-1.70623 -2.38014,-3.3493 -1.0123,-1.49697 -2.45804,-3.77347 -2.45804,-3.87051 0,-0.0156 -0.24558,-0.43227 -0.54573,-0.92586 -0.50735,-0.83431 -2.85884,-5.20144 -2.85884,-5.30938 0,-0.0418 -0.1664,-0.40915 -0.51560004,-1.13832 -0.50597,-1.05654 -0.67401,-1.42565 -0.9945,-2.18443 -0.77073,-1.82476 -1.70372996,-4.23521 -2.09232996,-5.40566 -0.22165,-0.66758 -0.54228,-1.62287 -0.71251,-2.12288 -0.67253,-1.97537 -1.6331,-5.87433 -2.39295,-9.71296 -0.20448,-1.03304 -0.63107,-4.2624 -0.84309,-6.38235 -0.19042,-1.904 -0.22358,-2.88786 -0.22668,-6.72776 -0.002,-2.7426 0.0442,-4.98307 0.11905,-5.74166 0.0675,-0.68421 0.17167,-1.79632 0.23155,-2.47135 0.15417,-1.73811 0.75593,-5.49769 1.2418,-7.75833 0.45895,-2.13543 1.40733,-5.76406 1.8533,-7.09098 0.1592,-0.47368 0.4597,-1.37799 0.66778,-2.00958 0.34045,-1.03332 0.62936,-1.79163 1.84122996,-4.83256 1.01159,-2.53838 3.45612004,-7.36423 5.17800004,-10.22213 3.38398,-5.61656 6.7237097,-10.02232 11.5506397,-15.23755 1.83588,-1.98356 6.92966,-6.74384 9.01136,-8.42137 1.37355,-1.10686 4.25995,-3.3018 5.65585,-4.30095 2.39257,-1.71254 7.3987,-4.86156 9.60368,-6.04104 0.61098,-0.32683 1.55192,-0.83764 2.09098,-1.13515 1.51064,-0.833706 4.99021,-2.504956 7.37658,-3.542976 0.51068,-0.22214 1.2535,-0.54528 1.6507,-0.7181 0.3972,-0.17281 1.30251,-0.53704 2.01179,-0.80941 4.18272,-1.60614 6.66541,-2.45439 9.80105,-3.34867 0.76603,-0.21847 1.50885,-0.43642 1.6507,-0.48434 0.98306,-0.33204 6.1769,-1.55273 8.92411,-2.0974 4.25807,-0.8442 10.39526,-1.637 15.21742,-1.96579 3.1079,-0.2119 9.72341,-0.29207 12.844522,-0.15565 6.41179,0.28025 12.72548,1.00872 18.2609,2.10693 0.51069,0.10132 1.27672,0.25159 1.70229,0.33392 0.72496,0.14026 1.81223,0.391 4.79735,1.10631 0.68092,0.16316 1.58623,0.40009 2.0118,0.5265 0.42557,0.12641 1.33088,0.38858 2.01179,0.58259 1.7081,0.48668 2.19409,0.63648 3.55933,1.09714 0.65254,0.22018 1.48821,0.49799 1.85704,0.61735 1.00931,0.32666 4.4463,1.61772 5.72587,2.15086 1.38436,0.5768 4.45127,1.91989 5.10677,2.23641 0.42563,0.20552 1.40061,0.67624 2.16664,1.04605 0.76603,0.36981 1.53206,0.747006 1.70229,0.838206 1.22217,0.65477 4.01249,2.18943 4.43626,2.43991 1.89883,1.12234 4.24492,2.56896 5.01892,3.0947 0.20698,0.14059 0.92356,0.62164 1.59241,1.06901 1.73554,1.16086 4.69371,3.36887 6.93555,5.17679 3.74907,3.02341 9.28527,8.39291 11.98743,11.62648 1.83151,2.1917 2.51548,3.03153 3.04348,3.73703 0.22697,0.30328 0.70579,0.94098 1.06405,1.4171 4.74408,6.30496 9.38285,15.03242 11.67539,21.96626 0.23493,0.71053 0.46785,1.39953 0.51762,1.53111 0.47942,1.26752 1.47007,4.96768 2.01519,7.52691 0.52872,2.4822 1.13832,6.29153 1.29126,8.06894 0.0567,0.65917 0.12364,1.34921 0.14871,1.53342 0.27056,1.98811 0.31061,9.86737 0.062,12.20102 -0.0561,0.52632 -0.153,1.49522 -0.21539,2.15312 -0.11882,1.25272 -0.55802,4.49019 -0.7205,5.31103 -0.75985,3.83863 -1.72042,7.73759 -2.39295,9.71296 -0.17023,0.50001 -0.49326,1.46257 -0.71786,2.13904 -0.55002,1.65668 -2.02998,5.34508 -2.78944,6.95192 -0.11195,0.23684 -0.27297,0.58134 -0.35781,0.76555 -0.53456,1.16054 -0.90324,1.89475 -1.84999,3.68423 -0.50122,0.94737 -1.08081,2.0024 -1.28796,2.34451 -0.20716,0.34211 -0.52951,0.88039 -0.71635,1.19618 -0.88622,1.49793 -1.34239,2.21927 -2.29957,3.63638 -1.17041,1.73281 -1.72072,2.51591 -2.36238,3.36177 -0.57307,0.75545 -1.30272,1.72662 -1.57359,2.09445 -0.11694,0.15882 -0.63046,0.78253 -1.14114,1.38605 -0.51069,0.60352 -1.09323,1.30056 -1.29456,1.54898 -0.20131,0.24842 -0.94401,1.08882 -1.65043,1.86756 -7.91834,8.7289 -17.9299,16.30331 -28.93421,21.89065 -4.06742,2.06521 -6.85356,3.2861 -11.96759,5.24422 -2.75546,1.05505 -8.87093,2.95006 -11.70967,3.6285 -4.85347,1.15995 -7.01689,1.59458 -11.09066,2.22815 -3.44248,0.53539 -6.58232,0.87849 -10.6264,1.16121 -1.96305,0.13722 -11.156822,0.26315 -12.380262,0.16957 z m 11.761252,-3.87226 c 6.84983,-0.40321 13.29184,-1.34841 19.82686,-2.90908 5.16907,-1.23447 9.77736,-2.68206 14.94106,-4.69341 4.24002,-1.65157 10.09028,-4.44733 13.66988,-6.53267 2.13879,-1.24598 4.15515,-2.49493 5.88063,-3.64254 1.68219,-1.1188 5.0482,-3.55203 6.25089,-4.51867 0.85695,-0.68875 2.97857,-2.42126 3.03431,-2.4778 0.0284,-0.0288 0.74208,-0.66897 1.58602,-1.42264 0.84393,-0.75367 2.02433,-1.85111 2.6231,-2.43876 0.59877,-0.58765 1.37334,-1.34835 1.72127,-1.69046 0.76414,-0.75136 2.75215,-2.91138 3.66906,-3.98653 1.44907,-1.69916 1.72861,-2.03958 2.67562,-3.2583 1.69976,-2.18749 2.08643,-2.71295 3.22456,-4.38202 1.02869,-1.50859 2.02512,-3.07697 3.07025,-4.83256 0.7515,-1.26236 2.84647,-5.26456 3.50641,-6.69859 0.67459,-1.46586 2.03253,-4.75769 2.42776,-5.8852 0.86803,-2.47637 1.34699,-3.99344 1.84295,-5.83735 0.52564,-1.95426 0.74277,-2.88059 1.28966,-5.50242 0.27458,-1.31636 0.80311,-4.99323 0.93538,-6.50721 0.0575,-0.65789 0.15356,-1.73445 0.2135,-2.39235 0.14555,-1.59729 0.14634,-7.51199 10e-4,-9.42589 -0.634,-8.36427 -2.21352,-15.2817 -5.18952,-22.72738 -2.87263,-7.18704 -7.56839,-15.04627 -12.53153,-20.97387 -0.41091,-0.49074 -1.03766,-1.24139 -1.39278,-1.66809 -0.57595,-0.69201 -1.21347,-1.39488 -2.20402,-2.42993 -0.1763,-0.18421 -0.65016,-0.68534 -1.05303,-1.11361 -0.87057,-0.92547 -2.81076,-2.83667 -3.62963,-3.57541 -2.55632,-2.30617 -3.41374,-3.03735 -5.67502,-4.83947 -1.92099,-1.53092 -4.78898,-3.60828 -6.60282,-4.78257 -0.1986,-0.12858 -0.50476,-0.33082 -0.68035,-0.44943 -0.30687,-0.20729 -2.18271,-1.36958 -3.91066,-2.4231 -0.45394,-0.27676 -1.21997,-0.71666 -1.70229,-0.97755 -0.48231,-0.26089 -1.41083,-0.76508 -2.06338,-1.12042 -2.65751,-1.44713 -8.22697,-4.04176 -10.42006,-4.854356 -0.42557,-0.15768 -1.35409,-0.51428 -2.06338,-0.79243 -0.70928,-0.27815 -2.14849,-0.79299 -3.19823,-1.14407 -1.04975,-0.35109 -2.07112,-0.69538 -2.26972,-0.76511 -0.3604,-0.12653 -3.0282,-0.91439 -4.59101,-1.35583 -0.93003,-0.26269 -4.52371,-1.14327 -5.46796,-1.33983 -4.71101,-0.98068 -8.31351,-1.56007 -12.12234,-1.94965 -1.04975,-0.10738 -2.0074,-0.21552 -2.12813,-0.24032 -0.12072,-0.0248 -1.62957,-0.13421 -3.35299,-0.24313 -3.60371,-0.22774 -10.415952,-0.27684 -13.295622,-0.0958 -4.3514,0.27353 -8.75547,0.71603 -11.40017,1.14541 -0.62417,0.10134 -1.48305,0.23234 -1.90862,0.29111 -2.34443,0.32379 -10.27712,2.08589 -12.07075,2.68131 -0.14185,0.0471 -0.88467,0.26552 -1.6507,0.48539 -7.50524,2.15424 -16.2878,5.912306 -23.16142,9.910816 -2.37698,1.38272 -6.19056,3.8427 -8.05803,5.19788 -0.40318,0.29257 -1.2343,0.89555 -1.84694,1.33995 -0.61264,0.44439 -1.37378,1.02754 -1.69142,1.29587 -0.31765,0.26834 -1.08778,0.89518 -1.7114,1.39298 -4.68266,3.73786 -10.53057,9.75589 -14.23065,14.64461 -1.09724,1.44973 -2.77271,3.81155 -3.6944897,5.20794 -2.35823,3.57239 -5.37538,9.27707 -6.73138,12.72733 -0.20685,0.52632 -0.43961,1.10766 -0.51725,1.29187 -1.16821,2.77176 -2.71527004,7.82613 -3.44513004,11.25552 -0.85143996,4.00066 -1.14400996,5.96907 -1.45616996,9.79722 -0.0579,0.71053 -0.13087,1.59331 -0.16206,1.96173 -0.0972,1.14817 -0.0547,7.40339 0.0588,8.66033 0.0594,0.6579 0.15506,1.73446 0.21254,2.39235 0.13227,1.51398 0.66081,5.19085 0.93539,6.50721 0.54111996,2.59419 0.75969996,3.5328 1.23678996,5.31103 1.04728004,3.90347 2.51255004,7.95644 4.23803004,11.72255 0.71798,1.56709 2.9225,5.79253 3.6446,6.98568 2.4220397,4.00198 3.7441797,5.92652 6.3432997,9.23349 4.38754,5.58244 8.94777,10.12817 15.20825,15.15988 2.12291,1.70625 6.88489,5.02132 9.26857,6.45238 2.12061,1.27312 2.64627,1.5837 3.37879,1.99631 2.94078,1.6565 6.44721,3.39844 9.5947,4.7665 1.86248,0.80954 2.90267,1.23151 5.46796,2.2182 8.98342,3.45527 21.49045,6.16129 31.31176,6.77458 0.90789,0.0567 1.92926,0.12818 2.26972,0.15884 1.08286,0.0975 5.902,0.18582 8.25351,0.15122 1.248342,-0.0184 3.708922,-0.11812 5.467952,-0.22166 z M 80.710628,235.82296 c -1.60848,-0.21448 -3.64752,-1.01996 -5.03638,-1.98951 -2.21345,-1.54521 -3.80857,-3.94988 -4.4184,-6.66084 -0.20946,-0.9311 -0.18281,-3.59486 0.0448,-4.47553 0.60716,-2.34956 1.57014,-4.00737 3.21283,-5.53105 1.54964,-1.43737 3.08455,-2.23092 5.475,-2.83058 0.70195,-0.1761 3.73585,-0.17584 4.43626,0 1.61598,0.40655 3.08155,1.0224 4.13122,1.73601 2.23181,1.5173 3.7274,3.63764 4.4903,6.36598 0.20581,0.73602 0.24091,1.09925 0.24485,2.53384 0.003,1.07398 -0.0451,1.8772 -0.13414,2.23938 -0.57158,2.32658 -1.61296,4.13679 -3.25723,5.66193 -1.4961,1.38771 -3.01744,2.19625 -5.21707,2.7727 -0.55573,0.14564 -3.29311,0.26783 -3.97201,0.1773 z m 2.5915,-3.72256 c 3.49434,-0.54917 6.05945,-3.54668 6.05945,-7.08091 0,-3.57019 -2.57965,-6.5458 -6.1491,-7.09294 -0.925,-0.14179 -1.0868,-0.14179 -2.01179,0 -2.58622,0.39643 -4.81153,2.16345 -5.67868,4.5092 -0.47331,1.28038 -0.5949,2.41554 -0.39226,3.66238 0.28065,1.72684 0.96481,2.98607 2.28212,4.20031 0.69249,0.63832 1.02475,0.86115 1.81528,1.2174 0.63347,0.28546 1.25266,0.4836 1.79299,0.57372 1.07934,0.18003 1.20176,0.18062 2.28199,0.0109 z m 29.339282,3.7237 c -1.18082,-0.19923 -2.35603,-0.56676 -3.36553,-1.05253 -3.10081,-1.49207 -5.18883,-4.10693 -6.03729,-7.56055 -0.089,-0.36217 -0.1371,-1.16539 -0.13414,-2.23938 0.004,-1.43459 0.039,-1.79782 0.24485,-2.53384 0.62341,-2.22953 1.56197,-3.80204 3.14652,-5.27177 1.52474,-1.41427 3.11561,-2.23665 5.47499,-2.83022 0.70042,-0.1762 3.73431,-0.17646 4.43626,0 1.69755,0.42584 3.02869,0.98716 4.15274,1.75113 0.75301,0.51179 1.92795,1.59942 2.47205,2.28836 0.94523,1.19686 1.6216,2.61386 2.06305,4.32215 0.22757,0.88066 0.25422,3.54443 0.0448,4.47552 -0.96101,4.27205 -4.00379,7.30072 -8.5222,8.48268 -0.51076,0.13361 -3.4461,0.25824 -3.97607,0.16882 z m 2.64308,-3.72676 c 2.46501,-0.39564 4.53238,-2.02734 5.54589,-4.37718 0.67718,-1.57004 0.69314,-3.52605 0.0431,-5.28441 -0.86716,-2.34575 -3.09247,-4.11277 -5.67868,-4.5092 -0.925,-0.14179 -1.08679,-0.14179 -2.01179,0 -3.56945,0.54714 -6.14911,3.52275 -6.14911,7.09294 0,2.84912 1.59929,5.32297 4.21077,6.51347 0.61988,0.28257 1.2091,0.47018 1.75779,0.55966 1.0856,0.17705 1.20677,0.17731 2.28199,0.005 z m -63.048482,1.47635 c -1.36299,-0.18232 -2.9578,-0.78588 -4.30917,-1.63081 -0.93727,-0.586 -2.82025,-2.38303 -3.49436,-3.33486 -1.56173,-2.20508 -2.49554,-4.47053 -3.03261,-7.3572 -0.47777,-2.56797 -0.2837,-6.14853 0.4716,-8.70055 1.4509,-4.90237 4.75065,-8.63202 8.7166,-9.85225 1.44112,-0.4434 2.17511,-0.53747 3.65065,-0.46788 2.66761,0.1258 4.78037,1.01065 6.91765,2.89721 2.75025,2.42759 4.56352,6.07142 5.12158,10.29201 0.22243,1.68216 0.14696,4.63851 -0.15589,6.10729 -0.54897,2.66242 -1.50487,5.00238 -2.75145,6.73533 -0.22277,0.30969 -0.51686,0.71878 -0.65355,0.9091 -0.39175,0.54548 -2.37073,2.33019 -3.05288,2.7532 -2.37176,1.47071 -4.77486,2.00431 -7.42817,1.64941 z m 2.99243,-3.75579 c 2.68598,-0.66352 5.08519,-3.14382 6.2929,-6.50559 1.44651,-4.02646 1.17321,-8.72295 -0.71878,-12.35145 -1.38766,-2.6613 -3.50818,-4.48573 -5.7294,-4.92939 -3.36259,-0.67164 -6.67725,1.4159 -8.54985,5.3846 -1.48211,3.14115 -1.80411,7.27261 -0.83983,10.77568 1.07401,3.90172 3.63422,6.85554 6.60412,7.61947 0.62425,0.16056 2.30249,0.16438 2.94084,0.007 z m 85.629672,3.7223 c -1.44175,-0.24424 -2.72512,-0.74678 -4.12676,-1.61592 -0.68215,-0.42301 -2.66114,-2.20772 -3.05289,-2.7532 -0.13668,-0.19032 -0.43077,-0.59941 -0.65355,-0.9091 -1.24657,-1.73295 -2.20248,-4.07291 -2.75145,-6.73533 -0.30285,-1.46878 -0.37831,-4.42513 -0.15589,-6.10729 0.74858,-5.66139 3.76622,-10.23645 8.08236,-12.25374 1.32204,-0.6179 2.34354,-0.8594 3.95687,-0.93548 1.47555,-0.0696 2.20954,0.0245 3.65066,0.46788 3.49168,1.0743 6.51827,4.12649 8.13776,8.20657 0.7397,1.86358 1.04196,3.19538 1.23798,5.45457 0.38837,4.47602 -0.73117,8.73453 -3.22015,12.24886 -0.67411,0.95183 -2.5571,2.74886 -3.49436,3.33486 -0.85374,0.5338 -2.08719,1.09673 -2.92962,1.33704 -1.39177,0.39704 -3.26039,0.50094 -4.68096,0.26028 z m 3.19877,-3.7223 c 2.99529,-0.73994 5.57256,-3.69323 6.65517,-7.62615 0.77702,-2.82284 0.7176,-6.24121 -0.15714,-9.03835 -1.90993,-6.10738 -7.13018,-8.92619 -11.46921,-6.1931 -3.93903,2.48115 -6.01243,8.73043 -4.77587,14.39462 0.94466,4.32712 3.60545,7.63299 6.8062,8.4563 0.62425,0.16056 2.30249,0.16438 2.94085,0.007 z M 25.958638,198.89243 c -4.05143,-0.507 -7.77493,-2.08873 -10.15902,-4.31553 -2.61291,-2.44051 -3.68918,-5.22152 -3.22326,-8.32869 0.6415,-4.27807 4.92067,-8.03608 10.77236,-9.46038 2.92808,-0.7127 6.60768,-0.82227 9.49154,-0.28261 3.19837,0.5985 5.86733,1.72992 8.0365,3.40678 2.02545,1.56576 3.31755,3.39707 3.94109,5.58577 0.22388,0.78581 0.31251,2.93301 0.14853,3.59798 -0.33113,1.34276 -0.93303,2.7542 -1.52627,3.57909 -0.63646,0.88499 -1.94335,2.20336 -2.74572,2.76983 -2.57462,1.81767 -4.9534,2.76587 -8.42156,3.35692 -1.26677,0.21589 -4.89757,0.26812 -6.31419,0.0908 z m 4.66349,-3.64161 c 2.50064,-0.18628 5.27493,-1.12132 7.17899,-2.41959 2.3322,-1.5902 3.48545,-3.68628 3.21877,-5.8502 -0.16728,-1.35741 -0.81883,-2.50649 -2.09046,-3.6868 -2.37948,-2.2086 -5.93624,-3.40368 -10.16434,-3.41526 -1.81518,-0.005 -2.75285,0.1025 -4.40535,0.5049 -3.36929,0.82042 -5.96109,2.50343 -7.16635,4.65352 -0.57598,1.02752 -0.71455,1.53075 -0.7201,2.61527 -0.0196,3.83383 4.77428,7.20784 10.85487,7.63975 1.15444,0.082 1.73298,0.0747 3.29397,-0.0416 z m 135.048102,3.72717 c -3.25605,-0.2695 -6.55503,-1.3111 -8.87253,-2.80137 -1.45573,-0.93611 -1.99424,-1.38385 -3.0032,-2.497 -0.75702,-0.83519 -1.04604,-1.25017 -1.48388,-2.1306 -0.78455,-1.57765 -1.02382,-2.63836 -0.95273,-4.22362 0.0776,-1.73137 0.38314,-2.75043 1.25713,-4.19327 0.83368,-1.37634 1.55873,-2.18037 2.90375,-3.22013 2.16917,-1.67686 4.83813,-2.80828 8.0365,-3.40678 2.88386,-0.53966 6.56346,-0.43009 9.49154,0.28261 5.85168,1.4243 10.13085,5.18231 10.77236,9.46038 0.46592,3.10717 -0.61035,5.88818 -3.22326,8.32869 -2.43047,2.27012 -6.18253,3.84334 -10.29148,4.31518 -1.11916,0.12852 -3.57036,0.17395 -4.6342,0.0859 z m 3.81725,-3.72119 c 1.10283,-0.0844 2.96062,-0.48332 4.06081,-0.87199 3.92754,-1.38746 6.38801,-3.98622 6.37395,-6.73215 -0.006,-1.08452 -0.14412,-1.58775 -0.72011,-2.61527 -1.20526,-2.15009 -3.79706,-3.8331 -7.16635,-4.65352 -1.6525,-0.4024 -2.59016,-0.50986 -4.40534,-0.5049 -4.22811,0.0116 -7.78487,1.20666 -10.16435,3.41526 -1.27163,1.18031 -1.92317,2.32939 -2.09046,3.6868 -0.33391,2.7095 1.57467,5.29465 5.08457,6.88697 2.70655,1.22787 5.50488,1.65838 9.02728,1.3888 z M 26.546958,167.68337 c -6.14695,-0.68387 -10.92355,-3.37883 -13.09869,-7.39029 -1.11532,-2.0569 -1.28605,-4.64838 -0.4567,-6.93192 1.34597,-3.70597 5.51113,-6.78193 10.77686,-7.95866 3.10689,-0.69429 6.94376,-0.69023 10.05193,0.0106 2.12735,0.47969 4.21504,1.31958 5.77746,2.32431 1.45574,0.93611 1.99425,1.38385 3.00321,2.49699 0.75702,0.83519 1.04604,1.25017 1.48387,2.13061 0.78456,1.57764 1.02382,2.63835 0.95274,4.22362 -0.0776,1.73137 -0.38315,2.75043 -1.25713,4.19327 -0.83368,1.37633 -1.55873,2.18037 -2.90375,3.22013 -2.53497,1.95964 -5.78647,3.18654 -9.66888,3.64841 -0.74768,0.089 -3.95373,0.11158 -4.66092,0.0329 z m 4.90052,-3.81958 c 3.02096,-0.40796 5.65863,-1.55158 7.48195,-3.24395 1.62619,-1.50942 2.29939,-3.0937 2.09855,-4.93871 -0.3788,-3.47989 -5.11775,-6.64757 -10.51038,-7.0255 -0.48157,-0.0338 -1.06128,-0.0745 -1.28825,-0.0906 -0.81821,-0.0579 -3.11918,0.15181 -4.26715,0.38898 -5.02292,1.03769 -8.50567,4.0357 -8.48891,7.30738 0.006,1.08451 0.14412,1.58775 0.7201,2.61526 1.20503,2.14968 3.79359,3.83085 7.16635,4.65427 2.34218,0.57182 4.55035,0.67552 7.08774,0.33286 z m 133.655322,3.78742 c -3.99375,-0.53554 -7.0729,-1.70793 -9.58403,-3.64915 -1.34502,-1.03976 -2.07007,-1.8438 -2.90375,-3.22012 -0.87399,-1.44285 -1.17949,-2.46191 -1.25713,-4.19328 -0.0711,-1.58526 0.16818,-2.64597 0.95273,-4.22362 1.20719,-2.42752 3.78683,-4.60696 7.01472,-5.92644 2.42517,-0.99135 4.65613,-1.44145 7.58292,-1.52987 2.89738,-0.0875 5.33956,0.24722 7.77895,1.06627 6.32423,2.12342 9.88336,6.67986 9.13196,11.69085 -0.64151,4.27807 -4.92068,8.03608 -10.77236,9.46038 -1.78775,0.43514 -2.76466,0.54674 -5.05528,0.57751 -1.24835,0.0168 -2.54827,-0.007 -2.88873,-0.0525 z m 5.00369,-3.74384 c 1.14777,-0.1421 2.96035,-0.60847 4.01705,-1.03358 2.44335,-0.98296 4.13555,-2.31482 5.07859,-3.99713 0.57599,-1.02751 0.71455,-1.53075 0.72011,-2.61526 0.0167,-3.27168 -3.466,-6.26969 -8.48892,-7.30738 -1.14797,-0.23717 -3.44893,-0.44691 -4.26714,-0.38898 -0.22697,0.0161 -0.80669,0.0568 -1.28826,0.0906 -5.39262,0.37793 -10.13158,3.54561 -10.51037,7.0255 -0.20084,1.84501 0.47235,3.42929 2.09854,4.93871 2.84065,2.63664 7.69656,3.89957 12.6404,3.28753 z M 51.901988,141.57427 c -2.28616,-0.48834 -4.21355,-1.51567 -5.85652,-3.12162 -1.63627,-1.59941 -2.72187,-3.24303 -3.59516,-5.44318 -0.7397,-1.86357 -1.04197,-3.19538 -1.23799,-5.45457 -0.38837,-4.47602 0.73117,-8.73453 3.22016,-12.24886 0.67411,-0.95183 2.55709,-2.74886 3.49436,-3.33487 3.73276,-2.33384 7.95442,-2.32715 11.73734,0.0186 0.68215,0.423 2.66113,2.20771 3.05288,2.75319 0.13669,0.19032 0.43078,0.59941 0.65355,0.90909 1.24658,1.73296 2.20248,4.07292 2.75145,6.73534 0.30285,1.46878 0.37832,4.42514 0.15589,6.1073 -0.55806,4.22058 -2.37133,7.86442 -5.12158,10.29201 -1.57327,1.38871 -3.04961,2.17177 -5.09905,2.7046 -0.7744,0.20133 -3.35951,0.25294 -4.15533,0.0829 z m 3.87193,-3.87753 c 2.10272,-0.6855 4.06251,-2.63954 5.29863,-5.28308 2.55455,-5.46307 1.43074,-12.80916 -2.51374,-16.43178 -1.56375,-1.43616 -2.93264,-2.01329 -4.77526,-2.01329 -1.85031,0 -3.21477,0.5778 -4.78171,2.02488 -1.52447,1.40786 -2.67633,3.39644 -3.31836,5.72883 -0.77703,2.82286 -0.71761,6.24123 0.15713,9.03836 1.26289,4.03834 4.20168,6.93461 7.32392,7.21796 0.79792,0.0724 1.88176,-0.0447 2.60939,-0.28188 z m 85.496862,3.95702 c -2.02255,-0.23009 -4.23637,-1.2824 -6.03164,-2.86704 -2.75024,-2.42759 -4.56351,-6.07143 -5.12157,-10.29201 -0.22242,-1.68216 -0.14696,-4.63852 0.15589,-6.1073 0.54897,-2.66242 1.50488,-5.00238 2.75145,-6.73534 0.22278,-0.30968 0.51687,-0.71877 0.65355,-0.90909 0.39175,-0.54548 2.37074,-2.33019 3.05289,-2.75319 2.37272,-1.47131 4.68947,-1.99381 7.3301,-1.65314 1.48322,0.19135 2.99691,0.75274 4.40724,1.63452 0.93726,0.58601 2.82025,2.38304 3.49436,3.33487 1.56172,2.20508 2.49554,4.47054 3.0326,7.3572 0.47778,2.56798 0.28371,6.14853 -0.47159,8.70055 -1.85474,6.26686 -6.62206,10.41145 -11.89304,10.33952 -0.5779,-0.008 -1.19001,-0.0302 -1.36024,-0.0496 z m 3.27927,-3.94844 c 0.74328,-0.22942 1.9284,-0.91321 2.61048,-1.50617 2.56402,-2.22903 4.07138,-5.96989 4.08082,-10.12751 0.01,-4.20844 -1.35121,-7.77268 -3.84766,-10.07817 -1.56694,-1.44708 -2.9314,-2.02488 -4.78171,-2.02488 -1.84263,0 -3.21152,0.57713 -4.77527,2.01329 -2.15215,1.97654 -3.5438,5.14103 -3.83712,8.7253 -0.10667,1.30344 0.005,3.21679 0.2596,4.46361 0.73468,3.59229 2.70201,6.61159 5.2299,8.02642 1.51888,0.85011 3.35559,1.03451 5.06096,0.50811 z m -63.891002,-8.00613 c -1.7351,-0.29276 -3.51829,-0.98473 -4.82334,-1.87171 -0.753,-0.51178 -1.92795,-1.59942 -2.47204,-2.28836 -0.94524,-1.19686 -1.6216,-2.61386 -2.06305,-4.32215 -0.22758,-0.88066 -0.25423,-3.54442 -0.0448,-4.47552 0.34483,-1.53294 1.18316,-3.32598 2.08367,-4.45665 1.63946,-2.05847 3.73055,-3.33971 6.64893,-4.0739 0.70041,-0.17621 3.73431,-0.17647 4.43626,-3.8e-4 1.16837,0.2931 1.87537,0.53759 2.69494,0.93196 3.1008,1.49207 5.18883,4.10692 6.03729,7.56055 0.089,0.36218 0.13709,1.16539 0.13414,2.23938 -0.004,1.43459 -0.039,1.79781 -0.24485,2.53384 -0.62342,2.22954 -1.56198,3.80204 -3.14652,5.27178 -1.48228,1.37488 -3.04852,2.20263 -5.2646,2.78233 -0.51075,0.13361 -3.44609,0.25824 -3.97606,0.16882 z m 2.64308,-3.7237 c 1.70022,-0.26721 3.46718,-1.28991 4.5099,-2.6103 1.57994,-2.00066 1.98016,-4.61695 1.07912,-7.05436 -0.86715,-2.34575 -3.09246,-4.11277 -5.67867,-4.5092 -0.92842,-0.14231 -1.08338,-0.14207 -2.01179,0.003 -2.54887,0.39846 -4.60499,1.99986 -5.63555,4.3892 -0.81887,1.89856 -0.64395,4.48874 0.42472,6.28921 1.0692,1.80135 3.02761,3.15799 5.03028,3.4846 1.08317,0.17665 1.20485,0.17707 2.28199,0.008 z m 29.390862,3.72255 c -1.51069,-0.20144 -3.58872,-0.99602 -4.85339,-1.85581 -2.23181,-1.51729 -3.72741,-3.63763 -4.4903,-6.36597 -0.20582,-0.73603 -0.24091,-1.09925 -0.24485,-2.53384 -0.003,-1.07399 0.0451,-1.87721 0.13414,-2.23938 0.57157,-2.32659 1.61296,-4.13679 3.25723,-5.66193 1.54963,-1.43737 3.08454,-2.23091 5.47499,-2.83058 0.70195,-0.1761 3.73585,-0.17584 4.43626,3.7e-4 2.91838,0.7342 5.00948,2.01544 6.64893,4.07391 0.90051,1.13067 1.73884,2.92371 2.08368,4.45665 0.20945,0.9311 0.1828,3.59485 -0.0448,4.47552 -0.60717,2.34956 -1.57015,4.00738 -3.21284,5.53106 -1.4961,1.38771 -3.01744,2.19625 -5.21707,2.7727 -0.55573,0.14564 -3.29311,0.26783 -3.97201,0.17731 z m 2.5915,-3.72255 c 2.50253,-0.3933 4.73642,-2.19078 5.58903,-4.49718 0.47331,-1.28038 0.59489,-2.41553 0.39225,-3.66238 -0.28065,-1.72684 -0.96481,-2.98606 -2.28211,-4.20032 -1.10046,-1.01437 -2.27034,-1.57353 -3.78882,-1.81091 -0.92842,-0.14514 -1.08338,-0.14538 -2.01179,-0.003 -2.58621,0.39643 -4.81152,2.16345 -5.67868,4.50919 -0.90103,2.43742 -0.50081,5.05371 1.07913,7.05437 1.01252,1.28214 2.80849,2.33987 4.419,2.60252 1.08317,0.17665 1.20485,0.17706 2.28199,0.008 z"
         id="path836" />
      <path
         style="fill:#ffb380;stroke:#000000;stroke-width:33.3349;stroke-linecap:round;stroke-linejoin:round;stroke-dasharray:8.33373, 8.33373;stroke-opacity:0.955017;paint-order:stroke markers fill"
         d="m 322.9322,981.08843 c -2.86472,-0.68687 -16.9279,-3.13355 -31.25151,-5.43707 C 174.61345,956.82476 70.9357,884.15578 21.63602,786.37379 0.488894,744.43014 -5.2085838,718.66192 -5.2085838,664.96253 c 0,-41.27979 1.2256305,-52.51635 8.1244744,-74.48509 C 39.291428,474.64291 131.32085,393.99351 267.37397,358.72128 c 44.62483,-11.56914 119.34584,-14.55199 167.21624,-6.67526 165.40916,27.21693 287.95075,140.72493 305.96033,283.40542 14.70075,116.46621 -57.28574,237.76305 -178.02349,299.96865 -59.63721,30.72582 -113.42167,43.96576 -185.77282,45.73109 -26.7374,0.65235 -50.95731,0.62412 -53.82203,-0.0628 z m 10.53082,-93.95177 c 12.06978,-6.24152 20.72068,-21.43913 20.72068,-36.4013 0,-24.05022 -18.35255,-41.66867 -43.40487,-41.66867 -33.73994,0 -53.63808,32.64184 -38.15263,62.58742 9.9491,19.23943 39.1842,26.67958 60.83682,15.48255 z m 121.6962,-0.65674 c 10.69936,-6.3203 20.5581,-23.35056 20.5581,-35.51278 0,-13.5659 -9.71675,-30.94274 -20.38834,-36.46123 -5.78507,-2.99157 -17.78374,-5.43922 -26.66371,-5.43922 -13.73164,0 -17.91052,1.76508 -27.95156,11.80612 -9.52524,9.52525 -11.80612,14.51292 -11.80612,25.81687 0,7.70592 1.52362,18.01819 3.38582,22.91617 7.57554,19.92512 42.04032,29.17598 62.86581,16.87407 z m -229.28707,-8.84535 c 17.8616,-12.03694 25.86041,-28.49752 25.72657,-52.94213 -0.2031,-37.09679 -18.78128,-60.72532 -47.76829,-60.75383 -24.98754,-0.0243 -41.59124,15.6934 -48.97431,46.36182 -6.20742,25.78495 7.49604,58.14731 29.24972,69.07676 16.19914,8.13872 27.82307,7.65373 41.76631,-1.74262 z m 338.47874,-0.59441 c 19.91516,-13.04889 29.07497,-55.89182 17.74644,-83.00479 -16.70014,-39.96907 -67.8943,-40.52823 -85.87406,-0.93796 -7.38928,16.27078 -8.41516,37.35614 -2.65231,54.5155 10.98518,32.70925 44.50301,46.64454 70.77993,29.42725 z M 136.14776,749.89311 c 7.08287,-1.96714 17.63025,-8.32891 23.43863,-14.13728 8.52627,-8.52631 10.56068,-13.46807 10.56068,-25.65293 0,-21.13042 -12.04911,-34.72091 -37.28801,-42.05805 -41.771739,-12.14338 -87.718,8.97738 -87.718,40.32255 0,8.81862 7.953375,24.88401 15.363888,31.03416 15.184723,12.60221 50.437852,17.49178 75.642812,10.49155 z m 539.30017,-6.84397 c 14.95715,-9.24402 23.90831,-27.32024 20.71906,-41.8407 -2.53464,-11.54012 -21.922,-29.79175 -35.60863,-33.52263 -5.21695,-1.42211 -17.29826,-2.58565 -26.84733,-2.58565 -23.88969,0 -34.31752,3.40192 -48.44219,15.80355 -26.53829,23.30095 -15.77791,57.13852 22.09915,69.49401 16.51764,5.38807 54.02177,1.33982 68.07994,-7.34858 z M 138.03775,630.82159 c 46.97793,-17.04057 43.55374,-66.67108 -5.58545,-80.95623 -41.756063,-12.13881 -87.31124,8.96142 -87.31124,40.44081 0,8.81863 7.953375,24.88399 15.363888,31.03417 15.556654,12.91088 54.835912,17.71422 77.532802,9.48125 z m 533.94012,-4.38799 c 16.83855,-8.59031 27.62213,-27.65597 24.27131,-42.91223 -4.35945,-19.84839 -34.50298,-38.31753 -62.53815,-38.31753 -29.05973,0 -58.78165,18.83593 -62.70274,39.73716 -3.71861,19.82201 11.18179,39.23337 36.3597,47.36726 15.15059,4.89448 49.64906,1.75771 64.60988,-5.87466 z M 227.97455,529.50939 c 29.95606,-19.62796 33.01858,-73.83097 5.71423,-101.13532 -10.40016,-10.40016 -13.76527,-11.68736 -30.55401,-11.68736 -16.84003,0 -20.13955,1.2729 -30.71664,11.84999 -29.42485,29.42485 -21.99509,89.10868 13.06019,104.91345 12.47959,5.62646 30.43614,3.96132 42.49623,-3.94076 z m 336.20824,-0.23664 c 14.23437,-9.32671 22.65099,-29.23942 22.65099,-53.58953 0,-36.28105 -18.63996,-58.99651 -48.4116,-58.99651 -28.00215,0 -48.56626,24.58715 -48.73905,58.27404 -0.24202,47.21075 40.26645,76.74246 74.49966,54.31201 z M 336.74033,483.28612 c 21.01132,-15.59128 22.80498,-45.47851 3.86598,-64.41751 -9.56279,-9.56278 -13.17254,-10.86288 -30.16107,-10.86288 -17.96353,0 -20.14821,0.92754 -31.58902,13.41164 -11.32736,12.36028 -12.16275,14.74482 -10.6567,30.41858 0.94398,9.82409 4.41449,20.12558 8.21718,24.39097 15.42041,17.29672 42.28982,20.44103 60.32363,7.0592 z m 112.96956,4.79352 c 23.2739,-9.72445 32.41802,-38.26609 19.20322,-59.93909 -12.52856,-20.54753 -35.32698,-26.92064 -57.93126,-16.19419 -31.36405,14.8832 -29.09553,61.92929 3.67417,76.19721 13.88198,6.04423 20.46372,6.03222 35.05387,-0.0639 z"
         id="path1023"
         transform="scale(0.26458333)" />
      <path
         style="fill:#ff00ff;stroke:#000000;stroke-width:33.3349;stroke-linecap:round;stroke-linejoin:round;stroke-dasharray:8.33373, 8.33373;stroke-opacity:0.955017;paint-order:stroke markers fill"
         d="m 521.47358,856.59879 c -16.19922,-17.24328 -16.98694,-51.84966 -1.49794,-65.80828 12.2154,-11.00847 23.50701,-10.90832 36.07362,0.31995 10.88516,9.72589 11.60902,11.75022 11.33787,31.70737 -0.3633,26.74018 -8.52938,39.57693 -26.1478,41.10331 -8.9485,0.77526 -13.87192,-1.04865 -19.76575,-7.32235 z"
         id="path1234"
         transform="scale(0.26458333)" />
      <path
         style="fill:#00ffff;stroke:#000000;stroke-width:33.3349;stroke-linecap:round;stroke-linejoin:round;stroke-dasharray:8.33373, 8.33373;stroke-opacity:0.955017;paint-order:stroke markers fill"
         d="m 423.65925,871.68694 c -8.65421,-2.15369 -17.24211,-14.38124 -17.33852,-24.68678 -0.0282,-3.00927 3.6764,-8.97329 8.23234,-13.25337 18.11909,-17.022 49.93631,3.19912 39.85349,25.3285 -4.58549,10.06406 -18.33027,15.70176 -30.74731,12.61165 z"
         id="path1310"
         transform="scale(0.26458333)" />
      <path
         style="fill:#ffff00;stroke:#000000;stroke-width:33.3349;stroke-linecap:round;stroke-linejoin:round;stroke-dasharray:8.33373, 8.33373;stroke-opacity:0.955017;paint-order:stroke markers fill"
         d="m 298.89968,870.6504 c -27.37794,-13.96877 -6.85971,-51.83448 22.11762,-40.81732 18.33959,6.9727 18.34953,34.82807 0.0149,41.79888 -11.2291,4.2693 -11.89945,4.23957 -22.13254,-0.98156 z"
         id="path1425"
         transform="scale(0.26458333)" />
      <path
         style="fill:#ff0000;stroke:#000000;stroke-width:33.3349;stroke-linecap:round;stroke-linejoin:round;stroke-dasharray:8.33373, 8.33373;stroke-opacity:0.955017;paint-order:stroke markers fill"
         d="m 193.32904,862.32713 c -27.06809,-14.18241 -25.39207,-71.90203 2.28958,-78.84968 22.73272,-5.70555 39.1874,15.81989 36.162,47.30587 -2.56781,26.72367 -20.13938,41.13853 -38.45158,31.54381 z"
         id="path1501"
         transform="scale(0.26458333)" />
      <path
         style="fill:#00ff00;stroke:#000000;stroke-width:33.3349;stroke-linecap:round;stroke-linejoin:round;stroke-dasharray:8.33373, 8.33373;stroke-opacity:0.955017;paint-order:stroke markers fill"
         d="m 92.192347,732.22645 c -17.676437,-4.13006 -26.216952,-12.0517 -26.216952,-24.31718 0,-27.64325 69.208945,-32.8858 83.426775,-6.31955 11.09839,20.73754 -22.52159,38.74155 -57.209823,30.63673 z"
         id="path1577"
         transform="scale(0.26458333)" />
      <path
         style="fill:#37abc8;stroke:#000000;stroke-width:33.3349;stroke-linecap:round;stroke-linejoin:round;stroke-dasharray:8.33373, 8.33373;stroke-opacity:0.955017;paint-order:stroke markers fill"
         d="m 615.33877,732.49891 c -25.59075,-5.54975 -32.39716,-24.26207 -14.34902,-39.44859 9.06105,-7.62437 14.06264,-8.98965 32.93292,-8.98965 19.51806,0 23.59927,1.20618 33.24617,9.82568 8.97079,8.01541 10.57099,11.52238 8.68545,19.03498 -3.87272,15.43013 -34.27976,25.26721 -60.51552,19.57758 z"
         id="path1653"
         transform="scale(0.26458333)" />
      <path
         style="fill:#2a7fff;stroke:#000000;stroke-width:33.3349;stroke-linecap:round;stroke-linejoin:round;stroke-dasharray:8.33373, 8.33373;stroke-opacity:0.955017;paint-order:stroke markers fill"
         d="m 615.31428,614.29161 c -35.66302,-7.29387 -31.59722,-37.3651 6.59926,-48.80904 24.5009,-7.34065 58.44233,11.44178 53.83671,29.79203 -1.20381,4.79637 -5.68609,10.62937 -9.96062,12.96224 -10.57695,5.77246 -36.59544,8.89352 -50.47535,6.05477 z"
         id="path1729"
         transform="scale(0.26458333)" />
      <path
         style="fill:#5a2ca0;stroke:#000000;stroke-width:33.3349;stroke-linecap:round;stroke-linejoin:round;stroke-dasharray:8.33373, 8.33373;stroke-opacity:0.955017;paint-order:stroke markers fill"
         d="m 521.38074,509.26105 c -20.51492,-21.83714 -15.41309,-62.77806 8.9787,-72.0518 22.34854,-8.49691 42.07779,17.0469 37.37718,48.39288 -4.27732,28.52317 -29.63015,41.46264 -46.35588,23.65892 z"
         id="path1805"
         transform="scale(0.26458333)" />
      <path
         style="fill:#d40055;stroke:#000000;stroke-width:33.3349;stroke-linecap:round;stroke-linejoin:round;stroke-dasharray:8.33373, 8.33373;stroke-opacity:0.955017;paint-order:stroke markers fill"
         d="m 424.70201,471.97544 c -20.90629,-7.77234 -23.25319,-34.77505 -3.73567,-42.98155 17.82871,-7.49641 33.91665,2.31314 33.91665,20.68051 0,16.44283 -15.37669,27.80482 -30.18098,22.30104 z"
         id="path1881"
         transform="scale(0.26458333)" />
      <path
         style="fill:#87decd;stroke:#000000;stroke-width:33.3349;stroke-linecap:round;stroke-linejoin:round;stroke-dasharray:8.33373, 8.33373;stroke-opacity:0.955017;paint-order:stroke markers fill"
         d="m 294.36578,466.16825 c -9.48482,-10.8013 -10.25161,-19.97545 -2.49389,-29.83779 13.86985,-17.63265 42.34557,-8.65937 42.34557,13.34394 0,19.4893 -27.29964,30.7881 -39.85168,16.49385 z"
         id="path1957"
         transform="scale(0.26458333)" />
      <path
         style="fill:#00ff66;stroke:#000000;stroke-width:33.3349;stroke-linecap:round;stroke-linejoin:round;stroke-dasharray:8.33373, 8.33373;stroke-opacity:0.955017;paint-order:stroke markers fill"
         d="m 186.7572,511.30931 c -9.47969,-10.86773 -13.13798,-20.96668 -13.12476,-36.23181 0.0341,-39.36074 37.38201,-55.43331 54.02492,-23.24947 8.21202,15.88031 5.3881,45.36756 -5.44954,56.90369 -9.71409,10.34018 -27.54838,11.63689 -35.45062,2.57759 z"
         id="path2033"
         transform="scale(0.26458333)" />
      <path
         style="fill:#ccff00;stroke:#000000;stroke-width:33.3349;stroke-linecap:round;stroke-linejoin:round;stroke-dasharray:8.33373, 8.33373;stroke-opacity:0.955017;paint-order:stroke markers fill"
         d="m 94.136267,614.19338 c -18.87709,-3.53765 -28.160872,-11.56356 -28.160872,-24.34534 0,-27.64325 69.208945,-32.88581 83.426775,-6.31955 11.01321,20.57839 -19.30949,37.40327 -55.265903,30.66489 z"
         id="path2109"
         transform="scale(0.26458333)" />
    </g>
  </g>
</svg>
