<?xml version="1.0" encoding="UTF-8" standalone="no"?>
<!-- Created with Inkscape (http://www.inkscape.org/) -->

<svg
   width="210mm"
   height="297mm"
   viewBox="0 0 210 297"
   version="1.1"
   id="svg5"
   inkscape:version="1.1 (c68e22c387, 2021-05-23)"
   sodipodi:docname="generic plug in icon sihoutte.svg"
   xmlns:inkscape="http://www.inkscape.org/namespaces/inkscape"
   xmlns:sodipodi="http://sodipodi.sourceforge.net/DTD/sodipodi-0.dtd"
   xmlns="http://www.w3.org/2000/svg"
   xmlns:svg="http://www.w3.org/2000/svg">
  <sodipodi:namedview
     id="namedview7"
     pagecolor="#ffffff"
     bordercolor="#666666"
     borderopacity="1.0"
     inkscape:pageshadow="2"
     inkscape:pageopacity="0.0"
     inkscape:pagecheckerboard="0"
     inkscape:document-units="mm"
     showgrid="false"
     inkscape:zoom="0.62270623"
     inkscape:cx="396.65574"
     inkscape:cy="561.25984"
     inkscape:window-width="1680"
     inkscape:window-height="956"
     inkscape:window-x="-11"
     inkscape:window-y="-11"
     inkscape:window-maximized="1"
     inkscape:current-layer="layer1" />
  <defs
     id="defs2" />
  <g
     inkscape:label="Layer 1"
     inkscape:groupmode="layer"
     id="layer1">
    <path
       style="fill:#000000;stroke-width:0.352778"
       d="m 93.602431,266.69605 c -15.27691,-2.10312 -29.93659,-8.57723 -41.62778,-18.38391 -6.474662,-5.43102 -15.419915,-15.49504 -19.10906,-21.49901 -0.98358,-1.60075 -2.170353,-3.32013 -2.637272,-3.82084 -0.466919,-0.5007 -0.916044,-1.25882 -0.998061,-1.68469 -0.08202,-0.42588 -0.474955,-1.18856 -0.873199,-1.69484 -0.39824,-0.50628 -0.724077,-1.07304 -0.724077,-1.25945 0,-0.18642 -0.298132,-0.76033 -0.66252,-1.27535 -0.651492,-0.92082 -4.200469,-8.96414 -5.938989,-13.46001 -1.80565,-4.66947 -3.35805,-9.87169 -4.81212,-16.12583 l -1.49367,-6.42443 -1.97822,-1.68946 c -1.30043,-1.11059 -2.18762,-2.21933 -2.58939,-3.23596 -0.33614,-0.85058 -0.87155,-1.80689 -1.18979,-2.12513 -0.73281,-0.73281 -1.44363,-3.07746 -1.44363,-4.76181 0,-1.87783 1.09421,-3.74246 3.46187,-5.89931 l 2.08023,-1.89502 0.24132,-4.7625 c 0.64476,-12.72458 3.49497,-25.85987 8.03763,-37.04168 7.567224,-18.62683 19.792866,-34.074928 35.567838,-44.942872 5.15787,-3.553447 10.42875,-6.522133 13.22917,-7.450991 0.97013,-0.321781 3.3193,-1.365786 5.22035,-2.320012 3.87543,-1.945252 5.30735,-2.201287 8.46824,-1.514165 3.33306,0.72455 4.7425,1.322106 6.00529,2.546048 0.63448,0.614959 1.32338,1.118107 1.53089,1.118107 0.6714,0 2.41659,2.988168 3.6056,6.173612 0.35618,0.954243 1.77806,7.026405 1.79672,7.672915 0.004,0.14552 -0.19081,0.26441 -0.43334,0.2642 -0.29715,-2.6e-4 -0.42657,0.54629 -0.39683,1.67569 0.0742,2.81874 -0.47591,6.12607 -1.60579,9.65332 -1.21313,3.78715 -1.94412,4.60399 -5.91305,6.6075 -1.18354,0.59745 -2.87139,1.708988 -3.75078,2.470098 -0.87939,0.76111 -2.08685,1.59982 -2.68324,1.86381 -0.59639,0.26399 -1.08434,0.59997 -1.08434,0.74664 0,0.14666 -0.21883,0.26666 -0.48628,0.26666 -1.24728,0 -9.97083,9.46104 -13.1738,14.2875 -2.55558,3.85093 -2.66642,4.05729 -3.58846,6.68066 -0.40344,1.14785 -1.13687,2.66903 -1.62986,3.38041 -0.49298,0.71138 -0.96029,1.62554 -1.03847,2.03147 -0.0782,0.40593 -0.28767,1.02618 -0.46554,1.37832 -1.30774,2.58902 -5.01759,15.32451 -5.01759,17.22481 v 0.83825 l 12.08264,-0.13529 c 10.00297,-0.112 13.23026,-0.0203 18.75023,0.53264 3.66717,0.36735 7.12718,0.76885 7.6889,0.89223 0.91412,0.20077 1.31896,-0.0601 3.85759,-2.48545 5.117029,-4.88879 12.576249,-9.0205 18.451049,-10.22017 4.95405,-1.01165 11.58131,-0.72655 17.30987,0.74466 2.57025,0.66009 2.99861,0.98391 2.99861,2.26679 0,0.54688 0.15875,1.09243 0.35278,1.21235 0.2029,0.1254 0.3818,2.34488 0.4211,5.22429 l 0.0683,5.00626 0.21613,-3.52777 0.21614,-3.52778 0.0681,3.70417 0.0681,3.70416 4.862,-0.12028 c 3.38482,-0.0837 5.87686,0.0543 8.20231,0.45429 4.07101,0.70025 8.04316,1.84899 8.71435,2.52018 0.27346,0.27346 0.71869,0.4972 0.98941,0.4972 0.5861,0 2.98517,2.32168 2.98517,2.88888 0,0.21775 0.41705,0.94269 0.92678,1.61098 0.87696,1.14975 0.9017,1.29105 0.46033,2.62843 -0.25655,0.77734 -0.67088,1.4918 -0.92075,1.58768 -0.24986,0.0959 -0.78247,1.0712 -1.18356,2.16738 l -0.72927,1.99304 -4.19785,2.0638 c -2.30882,1.1351 -4.4043,1.98702 -4.65663,1.89316 -0.30495,-0.11343 -0.22221,-0.25344 0.24678,-0.41758 1.05621,-0.36964 2.22866,-0.94725 1.50399,-0.74093 -2.2181,0.6315 -12.72937,1.7269 -12.46537,1.29903 0.0736,-0.11931 -1.18385,-0.2288 -2.79438,-0.24332 l -2.92822,-0.0264 0.0517,1.23577 0.0517,1.23576 5.11527,0.0697 c 3.25171,0.0443 6.0792,0.28507 7.76112,0.66082 1.4552,0.3251 3.20145,0.67531 3.88055,0.77823 2.66177,0.40343 6.88182,2.91434 7.22766,4.30044 0.12959,0.51935 0.6403,1.47607 1.13492,2.12604 0.84764,1.11387 0.87251,1.26299 0.43286,2.59513 -0.25654,0.77734 -0.67088,1.4918 -0.92074,1.58769 -0.24986,0.0959 -0.78247,1.07119 -1.18357,2.16737 l -0.72927,1.99304 -4.19785,2.06381 c -2.30882,1.13509 -4.4043,1.98701 -4.65662,1.89315 -0.30496,-0.11343 -0.22221,-0.25344 0.24678,-0.41757 1.0562,-0.36965 2.22865,-0.94726 1.50398,-0.74094 -2.51658,0.71648 -12.72038,1.71201 -12.41064,1.21084 0.10372,-0.16782 0.0205,-0.30512 -0.18502,-0.30512 -0.20548,0 -0.3736,0.15875 -0.3736,0.35278 0,0.19403 -0.62627,0.35278 -1.39172,0.35278 h -1.39171 l 0.0137,4.85069 c 0.008,2.66788 -0.10201,5.52925 -0.24339,6.3586 -0.26933,1.58004 -0.86739,2.39333 -0.86739,1.17957 0,-0.38806 -0.17609,-0.81439 -0.39132,-0.94741 -0.27592,-0.17052 -0.32052,0.17725 -0.15125,1.17915 l 0.24007,1.421 -2.05361,0.82851 c -1.90903,0.77017 -2.51307,0.82653 -8.58,0.8006 -6.0242,-0.0258 -6.76477,-0.10054 -9.62442,-0.97185 -9.30844,-2.83621 -18.770049,-10.31535 -22.667499,-17.91804 -0.46005,-0.89741 -1.09493,-1.73085 -1.41084,-1.85208 -0.89631,-0.34395 -1.64069,-0.2593 -1.38322,0.1573 0.16162,0.2615 -0.56457,0.32024 -2.36043,0.19092 -1.79881,-0.12953 -2.26947,-0.0913 -1.53553,0.12469 0.73908,0.21752 0.2602,0.25852 -1.5875,0.13593 -1.9183,-0.12728 -2.50033,-0.0729 -2.11667,0.19775 0.43629,0.30778 0.38619,0.37425 -0.2854,0.37871 -0.45423,0.003 -0.71812,-0.15066 -0.59654,-0.34738 0.11991,-0.19403 -0.0295,-0.35278 -0.33196,-0.35278 -0.30249,0 -0.54989,0.11907 -0.54977,0.26459 1.2e-4,0.14552 -0.75394,0.22672 -1.6757,0.18045 -4.13179,-0.20742 -21.85696,-0.24592 -21.5345,-0.0468 0.22502,0.13898 0.19169,0.27774 -0.0892,0.37137 -0.35379,0.11793 -0.33266,0.48065 0.10012,1.7184 0.30172,0.8629 0.74568,2.68016 0.98657,4.03835 0.2409,1.3582 0.73351,2.89083 1.09469,3.40585 0.36118,0.51502 0.65669,1.31671 0.65669,1.78153 0,0.46482 0.18304,1.02817 0.40677,1.25189 0.22373,0.22373 0.84682,1.53779 1.38465,2.92013 1.52641,3.92321 6.10417,11.88171 9.2567,16.09292 7.41417,9.90398 17.90554,17.77755 27.19552,20.4097 5.913929,1.67561 13.890459,1.99361 19.104489,0.76165 4.12896,-0.97559 12.27759,-4.29604 15.4901,-6.31201 4.89881,-3.07416 13.13871,-10.22796 16.42199,-14.25739 4.48138,-5.4998 9.48701,-14.42946 11.93537,-21.29177 3.00985,-8.43608 4.981,-18.30615 5.52054,-27.64281 0.10251,-1.77388 0.26628,-4.20314 0.36392,-5.39834 0.138,-1.68912 0.0526,-2.29802 -0.3834,-2.73402 -0.30851,-0.30852 -0.39084,-0.56094 -0.18296,-0.56094 0.60052,0 0.49995,-6.24389 -0.10626,-6.59706 -0.31729,-0.18485 -0.5511,-1.25509 -0.67817,-3.10433 -0.11934,-1.73654 -0.0866,-2.34724 0.085,-1.5875 l 0.27897,1.23472 0.0464,-1.1576 c 0.0296,-0.73661 -0.14601,-1.23145 -0.48273,-1.36066 -0.30195,-0.11587 -0.52917,-0.6421 -0.52917,-1.22553 0,-1.36933 -1.84171,-9.96267 -2.95687,-13.79661 -1.94666,-6.69267 -6.35298,-16.40461 -9.27337,-20.43934 -0.75008,-1.03629 -1.83304,-2.57879 -2.40658,-3.42779 -0.57354,-0.849 -2.13355,-2.67463 -3.4667,-4.05695 -1.33314,-1.38232 -2.89121,-3.09933 -3.46237,-3.81558 -1.26659,-1.58834 -6.35809,-5.64631 -9.47855,-7.5545 -4.88083,-2.984648 -10.91713,-5.391528 -14.91834,-5.948448 -0.92904,-0.12931 -2.55623,-0.53342 -3.61597,-0.89803 -1.05974,-0.3646 -1.92681,-0.59687 -1.92681,-0.51615 0,0.0807 -1.23031,-0.48144 -2.73402,-1.24924 -1.50372,-0.76781 -2.9401,-1.39803 -3.19195,-1.40049 -0.69906,-0.007 -4.31461,-2.38702 -5.82265,-3.83316 -0.73793,-0.70763 -1.75179,-2.19941 -2.253039,-3.31507 -0.50125,-1.11566 -1.11041,-2.02847 -1.3537,-2.02847 -0.25534,0 -0.7738,-1.22841 -1.2264,-2.90576 -0.98625,-3.655103 -0.84997,-7.53123 0.37385,-10.633084 0.8753,-2.218485 2.876429,-4.666715 3.499659,-4.281542 0.20818,0.128664 0.33489,0.07901 0.28158,-0.110344 -0.0533,-0.189353 0.6799,-1.061924 1.62936,-1.939046 1.68699,-1.558455 1.7942,-1.600424 4.70839,-1.843175 4.22358,-0.351822 5.71934,-0.09792 14.78591,2.509873 13.13048,3.776684 19.89404,6.721644 28.34468,12.341728 10.62305,7.06484 20.21661,16.75576 27.22258,27.498848 2.84632,4.3646 7.4423,13.24882 9.58118,18.52083 4.62207,11.39266 7.81438,26.24489 8.15122,37.92362 0.14063,4.876 -0.41483,13.0377 -1.38053,20.28473 -1.29622,9.72737 -4.40282,21.26395 -8.16974,30.33889 -2.46161,5.93028 -2.85543,6.70278 -3.41708,6.70278 -0.54461,0 -2.00152,2.88754 -2.00152,3.96695 0,0.4252 -0.41836,1.13257 -0.92969,1.57195 -0.51133,0.43937 -2.21789,2.76302 -3.79236,5.16366 -5.79955,8.84278 -9.76703,13.50014 -16.92179,19.86424 -5.21724,4.6407 -10.46829,8.3358 -16.45616,11.57999 -4.70327,2.54821 -10.89699,5.21593 -11.53846,4.96977 -0.27094,-0.10397 -0.40592,-0.0487 -0.29994,0.12273 0.10598,0.17148 -0.0575,0.40778 -0.36331,0.52513 -0.85322,0.32741 -1.08557,0.24436 -0.49829,-0.1781 0.4401,-0.31658 0.4204,-0.34536 -0.11705,-0.17099 -0.35541,0.11532 -0.80134,0.20967 -0.99095,0.20967 -0.18961,0 -0.22996,0.18572 -0.0897,0.41273 0.17048,0.27583 0.0642,0.33949 -0.32029,0.19194 -0.31645,-0.12144 -1.33468,10e-4 -2.26273,0.27277 -2.76091,0.80757 -10.9322,2.24849 -15.08211,2.65955 -4.12984,0.40908 -14.262749,0.36365 -17.473309,-0.0783 z m -3.27054,-1.20235 c -0.11723,-0.11722 -0.4215,-0.12975 -0.67616,-0.0278 -0.28142,0.11261 -0.19783,0.19621 0.21314,0.21313 0.37188,0.0153 0.58024,-0.0681 0.46302,-0.18528 z m -7.48918,-1.91728 c -5.69347,-1.71725 -6.56415,-1.93175 -5.76529,-1.42036 0.77086,0.49346 8.74004,2.81322 9.64584,2.80782 0.38806,-0.002 -1.35819,-0.62667 -3.88055,-1.38746 z m -11.64167,-4.23248 c -1.16417,-0.55588 -2.27542,-1.00488 -2.46945,-0.99779 -0.19402,0.007 0.59973,0.46772 1.76389,1.0236 1.16417,0.55588 2.27542,1.00488 2.46945,0.99778 0.19403,-0.007 -0.59972,-0.46771 -1.76389,-1.02359 z m 44.979169,0.0439 c 2.23132,-0.39908 4.45382,-0.87531 4.93889,-1.05828 0.48507,-0.18297 2.46944,-0.76915 4.40972,-1.30262 14.13343,-3.88591 29.04418,-14.22321 39.41115,-27.32288 4.6883,-5.92412 11.3109,-16.75088 12.93549,-21.14719 0.25095,-0.6791 0.68737,-1.66804 0.96981,-2.19766 0.47624,-0.89299 0.75347,-1.62301 2.44768,-6.4454 2.09579,-5.96544 2.75938,-8.2139 3.83761,-13.00291 0.66145,-2.93784 1.30504,-6.29403 1.4302,-7.4582 0.12517,-1.16417 0.36425,-2.98979 0.5313,-4.05694 0.58476,-3.73565 0.75671,-6.86232 0.75465,-13.72218 -0.005,-17.28833 -3.88325,-33.39017 -11.56393,-48.01395 -1.07002,-2.03729 -2.37838,-4.25979 -2.90747,-4.93889 -0.52909,-0.67909 -1.45162,-2.04057 -2.05006,-3.02551 -0.59845,-0.98493 -1.73239,-2.64206 -2.51987,-3.6825 -0.78749,-1.04045 -1.33702,-2.045058 -1.2212,-2.232468 0.11583,-0.18742 0.047,-0.23963 -0.15299,-0.11604 -0.38119,0.23558 -2.21487,-2.1394 -2.21487,-2.86869 0,-0.23211 -0.20842,-0.42201 -0.46316,-0.42201 -0.25474,0 -0.92943,-0.51594 -1.49931,-1.14653 l -1.03614,-1.14653 1.14653,1.03614 c 2.12169,1.91742 1.1701,0.57437 -2.01318,-2.84135 -1.73784,-1.86473 -4.50879,-4.54625 -6.15768,-5.95892 -4.08017,-3.49566 -11.10734,-8.49277 -12.96913,-9.22252 -0.83929,-0.32897 -1.87367,-0.863803 -2.29862,-1.188514 -0.66325,-0.506795 -5.95963,-2.85355 -9.98709,-4.425143 -3.92278,-1.530746 -14.18194,-3.901765 -15.44592,-3.569745 -0.42183,0.110805 -0.33797,0.185541 0.27648,0.246406 0.72118,0.07144 0.65687,0.127127 -0.35278,0.305506 l -1.23472,0.218143 -0.10072,3.850394 c -0.0554,2.117715 0.024,3.975786 0.17639,4.129046 0.1524,0.153257 0.22387,-0.745981 0.15881,-1.99831 -0.0651,-1.25233 -0.0149,-2.276963 0.11138,-2.276963 0.75263,0 1.59441,0.84469 1.59441,1.599912 0,0.478243 0.15875,0.869533 0.35278,0.869533 0.19403,0 0.35278,0.250738 0.35278,0.557196 0,0.428632 0.23122,0.506412 1.00212,0.337094 1.22973,-0.270093 2.15675,0.568056 1.50152,1.357565 -0.31459,0.37905 -0.27147,0.5392 0.19318,0.71751 0.59657,0.22892 1.16797,-0.29861 1.17834,-1.08788 0.003,-0.226369 -0.19304,-0.491649 -0.43558,-0.589514 -0.31796,-0.1283 -0.32377,-0.185705 -0.0208,-0.205787 0.23108,-0.01532 0.51398,0.123966 0.62866,0.30952 0.11468,0.185553 0.42549,0.254106 0.69069,0.152338 0.2652,-0.101767 0.58699,-0.01546 0.71508,0.191796 0.12808,0.207257 0.0592,0.376827 -0.15313,0.376827 -0.27231,0 -0.27845,0.20098 -0.0208,0.68237 0.49111,0.91764 0.46188,1.31933 -0.0581,0.7993 -0.23284,-0.23284 -0.58068,-0.42334 -0.77299,-0.42334 -0.1923,0 -0.0481,0.22047 0.32036,0.48993 0.76539,0.55967 1.62151,0.37757 1.36519,-0.29038 -0.11685,-0.30453 0.14399,-0.42562 0.81603,-0.3788 1.57035,0.1094 1.72287,0.17135 1.21472,0.49334 -0.33367,0.21141 -0.36038,0.37637 -0.0882,0.54458 0.21474,0.13272 0.39044,0.54944 0.39044,0.92604 0,0.85723 0.57145,0.88894 1.01699,0.0564 0.38058,-0.71112 1.66932,-0.93536 2.02918,-0.35308 0.13082,0.21166 0.0917,0.29449 -0.087,0.18406 -0.17868,-0.11043 -0.49525,0.16025 -0.70349,0.60151 -0.30961,0.65606 -0.26033,0.87618 0.27036,1.2076 0.52244,0.32627 0.64899,0.30153 0.64899,-0.12686 0,-0.64671 1.29423,-0.70957 1.87728,-0.0912 0.59828,0.63453 0.61199,1.66116 0.0192,1.43366 -0.26694,-0.10242 -0.48533,-0.0105 -0.48533,0.20429 0,0.21479 0.19844,0.39227 0.44097,0.3944 0.24254,0.002 1.06097,0.10629 1.81874,0.23145 0.91802,0.15163 1.3019,0.10482 1.15041,-0.1403 -0.12504,-0.20232 0.0387,-0.58429 0.36398,-0.84881 0.51644,-0.42002 0.56203,-0.40275 0.35997,0.13642 -0.26124,0.69706 0.28301,0.85844 0.59488,0.17639 0.1109,-0.24254 0.11151,0.075 0.001,0.70556 -0.15111,0.86509 -0.0728,1.14652 0.31919,1.14652 0.28569,0 0.61082,0.23813 0.72251,0.52917 0.3003,0.78269 1.28349,0.64758 1.28349,-0.17639 0,-0.38805 0.15875,-0.70555 0.35278,-0.70555 0.19403,0 0.35841,0.43656 0.36528,0.97013 l 0.0125,0.97014 0.47257,-0.85295 0.47257,-0.85296 0.40928,0.76476 c 0.33621,0.62819 0.31379,0.76476 -0.12555,0.76476 -0.73317,0 -1.14741,1.74641 -0.50797,2.1416 0.33288,0.20573 0.72659,0.025 1.23532,-0.56703 0.90522,-1.05348 1.58281,-1.1041 2.17104,-0.1622 0.24278,0.38875 0.32065,0.68745 0.17305,0.66378 -0.14759,-0.0237 -0.47616,-0.0242 -0.73015,-0.001 -0.7269,0.0658 -0.1069,0.74733 0.67982,0.74733 0.38806,0 0.60709,0.15934 0.48673,0.35408 -0.12035,0.19474 -0.63208,0.25035 -1.13716,0.12358 -0.77099,-0.1935 -0.88072,-0.13248 -0.68393,0.38034 0.12891,0.33595 0.23439,0.78693 0.23439,1.00217 0,0.21525 0.20279,0.11403 0.45064,-0.22493 0.24785,-0.33895 0.68441,-0.65157 0.97014,-0.6947 0.28572,-0.0431 0.71794,-0.2024 0.96047,-0.35392 0.25816,-0.16127 0.44097,-0.10495 0.44097,0.13586 0,0.22624 0.24009,0.31921 0.53353,0.20661 0.41385,-0.15881 0.48657,-0.0176 0.3242,0.62933 -0.11514,0.45873 -0.0447,0.93583 0.15661,1.06023 0.20128,0.1244 0.26654,0.48526 0.14503,0.80191 -0.1413,0.36822 -0.081,0.48923 0.16742,0.33573 0.21359,-0.13201 0.48128,-0.0896 0.59487,0.0941 0.11358,0.18379 0.0452,0.43387 -0.15201,0.55574 -0.1972,0.12187 -0.35854,0.60909 -0.35854,1.08271 0,0.64052 0.19043,0.86113 0.7433,0.86113 0.51578,0 0.68114,-0.16198 0.54024,-0.52917 -0.11168,-0.29104 -0.0437,-0.52917 0.15106,-0.52917 0.23116,0 0.23659,-0.21961 0.0156,-0.63249 -0.26942,-0.50341 -0.1984,-0.64305 0.34799,-0.68421 0.44236,-0.0333 0.59562,0.0953 0.43098,0.36171 -0.27043,0.43757 -0.32657,0.70207 -0.59582,2.80708 -0.12648,0.98888 -0.0423,1.32291 0.33344,1.32291 0.3233,0 0.50264,-0.3776 0.50264,-1.05833 0,-0.8801 0.1417,-1.05833 0.84137,-1.05833 1.09185,0 1.87736,1.25463 1.73835,2.77653 -0.091,0.99628 -0.0269,1.12126 0.39512,0.77097 0.40178,-0.33345 0.57985,-0.27582 0.87985,0.28472 0.20686,0.38652 0.28032,0.952398 0.16325,1.257498 -0.11709,0.30511 -0.0955,0.55473 0.0481,0.55473 0.39749,0 1.57842,-1.461258 1.57842,-1.953108 0,-0.71397 1.52066,-0.91513 2.11458,-0.27974 0.29219,0.31259 0.33521,0.45872 0.0956,0.32473 -0.32424,-0.18131 -0.37761,0.0467 -0.20865,0.89146 0.19223,0.961108 0.13734,1.100668 -0.35809,0.910548 -0.39331,-0.15093 -0.5851,-0.0412 -0.5851,0.33472 0,0.397 0.21807,0.50221 0.75171,0.36266 0.42706,-0.11168 0.97259,0.0243 1.26316,0.31488 0.56226,0.56225 1.16013,0.3767 1.16013,-0.36006 0,-0.25883 0.23208,-0.55966 0.51573,-0.66851 0.53499,-0.20529 4.77593,4.15784 4.77593,4.91354 0,0.21516 0.3068,0.66884 0.68177,1.00819 0.37497,0.33934 0.59611,0.84019 0.49142,1.11301 -0.10469,0.27281 -0.0146,0.49602 0.20018,0.49602 0.83652,0 0.33619,0.66494 -0.57962,0.77031 l -0.97014,0.11163 1.23473,0.60676 c 1.07917,0.53031 1.28406,0.54142 1.62639,0.0882 0.5579,-0.73865 1.04514,-0.64503 1.82895,0.35142 0.37638,0.47849 0.78477,0.76953 0.90755,0.64676 0.12277,-0.12277 0.22322,-0.0392 0.22322,0.18567 0,0.64703 1.47989,2.17727 1.87155,1.93521 0.20044,-0.12387 0.24489,-0.0421 0.10241,0.18843 -0.13844,0.224 -0.0742,0.40728 0.14271,0.40728 0.21693,0 0.32233,0.11906 0.23423,0.26459 -0.0881,0.14552 0.0613,0.46927 0.33196,0.71946 0.38198,0.35306 0.49214,0.35701 0.49214,0.0176 0,-0.32106 0.10432,-0.33292 0.39259,-0.0447 0.57559,0.57559 0.082,1.12016 -0.83392,0.92009 -0.77498,-0.16928 -0.77293,-0.15649 0.0885,0.55132 0.48507,0.39855 1.11432,0.68988 1.39832,0.6474 0.28401,-0.0425 0.57708,0.21938 0.65128,0.5819 0.0755,0.36892 -0.0178,0.56479 -0.21182,0.44486 -0.1907,-0.11786 -0.5293,0.006 -0.75244,0.27458 -0.22315,0.26887 -0.75708,0.4141 -1.18651,0.32271 -0.7251,-0.15431 -0.73675,-0.13007 -0.16341,0.33989 0.33955,0.27833 0.61736,0.68699 0.61736,0.90813 0,0.22115 0.16812,0.40208 0.3736,0.40208 0.20548,0 0.28061,-0.15045 0.16696,-0.33434 -0.1155,-0.18688 0.14019,-0.26754 0.57974,-0.18289 0.43251,0.0833 0.92798,-0.0441 1.10104,-0.28302 0.21843,-0.30161 0.25695,-0.25357 0.12596,0.1571 -0.10378,0.32536 0.04,0.78136 0.3195,1.01333 0.56529,0.46915 0.68789,1.39371 0.18482,1.39371 -0.17786,0 -0.39089,-0.19844 -0.4734,-0.44097 -0.0825,-0.24254 -0.22699,0.075 -0.32108,0.70555 -0.0941,0.6306 -0.0398,1.14653 0.12062,1.14653 0.16043,0 0.29168,-0.15377 0.29168,-0.3417 0,-0.18794 0.23813,-0.25033 0.52917,-0.13865 0.29104,0.11169 0.52917,0.43357 0.52917,0.71531 0,0.28173 -0.15875,0.41413 -0.35278,0.29421 -0.19403,-0.11992 -0.35278,0.10884 -0.35278,0.50835 0,0.84017 -0.44086,0.94122 -1.02669,0.23533 -0.51095,-0.61565 -1.79553,-0.97426 -1.79553,-0.50124 0,0.19403 0.31224,0.43443 0.69387,0.53423 0.38163,0.0998 0.76285,0.44212 0.84716,0.76072 0.78253,2.95724 1.12824,3.93067 1.39595,3.93067 0.17243,0 0.22213,-0.23813 0.11044,-0.52917 -0.11168,-0.29104 -0.038,-0.52917 0.16385,-0.52917 0.2018,0 0.11744,-0.24946 -0.18746,-0.55436 -0.3049,-0.3049 -0.55437,-0.70178 -0.55437,-0.88195 0,-0.5252 0.61096,-0.37736 0.83313,0.20159 0.26759,0.69732 0.92477,0.67221 1.45701,-0.0557 0.38146,-0.52167 0.45228,-0.48671 0.65567,0.32365 0.12541,0.49967 0.0922,1.27547 -0.0737,1.72402 -0.2393,0.64689 -0.15376,0.89 0.4137,1.17566 0.87614,0.44105 1.31163,1.45729 0.48926,1.14172 -0.30498,-0.11704 -0.62076,-0.0233 -0.70172,0.20837 -0.19998,0.5721 0.10973,1.33973 0.45455,1.12662 0.15344,-0.0948 0.24661,0.46187 0.20702,1.23712 -0.0864,1.69229 0.32513,2.56042 0.83647,1.76453 0.2156,-0.33556 0.2156,-0.6487 0,-0.8643 -0.18594,-0.18595 -0.33143,-0.58415 -0.32329,-0.88489 0.008,-0.30075 0.30362,-0.005 0.65666,0.6582 0.43826,0.82276 0.7045,1.04658 0.8393,0.70556 0.10859,-0.2747 0.20997,0.23635 0.22528,1.13566 0.0234,1.3713 -0.11444,1.72836 -0.85409,2.213 -0.48507,0.31783 -0.88194,0.7443 -0.88194,0.94771 0,0.53553 0.93198,1.38654 1.2119,1.10662 0.13067,-0.13067 0.3639,-0.0332 0.51829,0.21664 0.15439,0.24981 0.58233,0.50138 0.95096,0.55902 0.37606,0.0588 0.62858,0.34148 0.57532,0.64402 -0.058,0.32972 0.14756,0.51974 0.52917,0.4891 0.34324,-0.0275 0.62408,0.18745 0.62408,0.4778 0,0.39785 -0.33571,0.499 -1.36255,0.41053 -0.94385,-0.0813 -1.28705,0.005 -1.11684,0.28018 0.13514,0.21867 0.58954,0.3132 1.00977,0.21009 0.42024,-0.10312 0.58248,-0.10196 0.36054,0.002 -0.22193,0.10452 -0.32248,0.49994 -0.22344,0.87869 0.12377,0.47338 0.002,0.68873 -0.39023,0.68873 -0.31367,0 -0.57031,-0.26458 -0.57031,-0.58796 0,-0.32338 -0.10445,-0.48351 -0.23212,-0.35584 -0.12767,0.12767 -0.43821,0.0611 -0.6901,-0.14796 -0.25189,-0.20905 -0.63318,-0.27181 -0.84732,-0.13946 -0.25847,0.15974 -0.17473,0.40335 0.24913,0.72471 0.61365,0.46526 0.6128,0.48451 -0.0221,0.4953 -0.54436,0.009 -0.58396,0.10351 -0.22511,0.53589 0.48473,0.58407 0.24686,1.59199 -0.37572,1.59199 -0.22437,0 -0.30534,-0.25086 -0.18347,-0.56844 0.15966,-0.41606 0.0675,-0.51063 -0.34388,-0.35278 -0.30911,0.11862 -0.78716,0.21567 -1.06234,0.21567 -0.27517,0 -0.50031,0.15875 -0.50031,0.35277 0,0.19403 0.29609,0.35278 0.65798,0.35278 0.36189,0 1.05872,0.31522 1.54851,0.70049 0.77961,0.61324 0.9447,0.63521 1.32549,0.17639 0.30239,-0.36436 0.31428,-0.5241 0.039,-0.5241 -0.75293,0 -0.39208,-0.68945 0.64026,-1.22329 0.95541,-0.49407 1.03522,-0.4879 1.02329,0.0791 -0.007,0.33824 0.0694,1.31309 0.16998,2.16631 0.10061,0.85323 0.0382,1.93212 -0.1388,2.39754 -0.36399,0.95735 0.53264,2.74208 1.17739,2.34361 0.21467,-0.13267 0.26354,-0.0577 0.11699,0.17941 -0.13845,0.22401 -0.0985,0.40729 0.0888,0.40729 0.18731,0 0.26247,0.29866 0.16702,0.66368 -0.0994,0.37994 0.11685,0.94553 0.50571,1.32292 0.8207,0.7965 1.26128,1.89395 0.76034,1.89395 -0.19939,0 -0.26394,0.15952 -0.14344,0.35449 0.12049,0.19497 0.21521,3.15058 0.21047,6.56804 -0.007,4.96143 -0.12966,6.54284 -0.60935,7.8476 -0.3304,0.89872 -0.73325,1.78485 -0.89521,1.96918 -0.38092,0.43354 -0.38229,0.9955 -0.002,0.76038 0.34676,-0.21431 0.30135,1.07394 -0.0503,1.42554 -0.1333,0.1333 -0.24237,2.76528 -0.24237,5.84884 0,3.40305 -0.13012,5.52604 -0.33109,5.40183 -0.18211,-0.11254 -0.4967,0.0765 -0.6991,0.42016 -0.32053,0.54416 -0.41366,0.5565 -0.72184,0.0956 -0.30353,-0.45393 -0.3546,-0.4414 -0.35923,0.0882 -0.003,0.33955 -0.16415,0.61736 -0.35818,0.61736 -0.19403,0 -0.35278,-0.16812 -0.35278,-0.3736 0,-0.20548 -0.15717,-0.27646 -0.34926,-0.15774 -0.21986,0.13588 -0.18718,0.3913 0.0882,0.68935 0.2406,0.26042 0.57353,0.3909 0.73983,0.28995 0.16631,-0.10095 0.19098,0.16747 0.0548,0.59647 -0.21879,0.68935 -0.1675,0.73716 0.44128,0.41136 0.60829,-0.32556 0.67714,-0.26203 0.58874,0.54324 -0.12244,1.11546 -0.85804,1.99585 -0.85804,1.02694 0,-0.52937 -0.0928,-0.56593 -0.52529,-0.20697 -0.2889,0.23977 -0.4321,0.58671 -0.31822,0.77098 0.11389,0.18427 -0.0278,0.60284 -0.31493,0.93016 -0.2871,0.32733 -0.6335,0.96068 -0.76978,1.40746 -0.191,0.62615 -0.35507,0.72329 -0.71588,0.42384 -0.34118,-0.28316 -0.5341,-0.28167 -0.71157,0.005 -0.13391,0.21668 -0.46555,0.30874 -0.73696,0.20459 -0.3199,-0.12271 -0.49358,0.0551 -0.49358,0.50512 0,0.38197 -0.15875,0.69449 -0.35278,0.69449 -0.19402,0 -0.35277,0.1905 -0.35277,0.42333 0,0.32926 0.0941,0.32926 0.42333,0 0.51234,-0.51234 1.47167,-0.56811 1.16232,-0.0676 -0.12093,0.19567 0.14752,0.51765 0.59655,0.71551 0.81365,0.35853 0.81373,0.35923 0.023,0.20652 -1.13765,-0.2197 -1.35899,0.42292 -0.28617,0.8308 1.08659,0.41313 1.21797,0.86109 0.15344,0.52322 -0.50452,-0.16013 -0.67078,-0.11021 -0.50834,0.15262 0.13276,0.21481 0.45691,0.39057 0.72033,0.39057 0.26342,0 0.53517,0.16866 0.60388,0.37479 0.0873,0.26201 0.41465,0.26463 1.08773,0.009 0.77888,-0.29613 0.9628,-0.26664 0.9628,0.15438 0,0.28624 0.15875,0.52044 0.35278,0.52044 0.19403,0 0.35035,0.27781 0.34738,0.61736 -0.004,0.47447 -0.0747,0.50806 -0.30471,0.14515 -0.22385,-0.35315 -0.48236,-0.17528 -1.02543,0.70556 -0.39937,0.64777 -0.83482,1.61322 -0.96765,2.14546 -0.13284,0.53224 -0.38334,0.88005 -0.55667,0.77293 -0.17331,-0.10711 -0.31513,0.0474 -0.31513,0.34347 0,0.61559 -2.4377,3.18053 -2.73766,2.88057 -0.10872,-0.10872 -0.41054,0.10626 -0.67072,0.47771 -0.26018,0.37146 -0.94911,0.77994 -1.53095,0.90773 -0.58184,0.1278 -1.07815,0.33881 -1.10291,0.46891 -0.25467,1.33806 -0.16633,1.84527 0.29084,1.66984 0.32794,-0.12585 0.23634,0.18264 -0.2621,0.88263 -0.42144,0.59185 -0.8472,0.99514 -0.94615,0.89619 -0.19318,-0.19318 -1.15424,0.65017 -1.15424,1.01287 0,0.12014 -0.42005,0.60773 -0.93346,1.08353 -0.5134,0.47581 -0.82153,0.8651 -0.68473,0.8651 0.1368,0 0.14013,0.1757 0.007,0.39044 -0.16814,0.27206 -0.3316,0.24532 -0.5391,-0.0882 -0.23297,-0.37446 -0.51132,-0.26274 -1.27882,0.51327 -0.53956,0.54554 -0.76625,0.94242 -0.50375,0.88194 0.29661,-0.0683 0.52264,0.27084 0.59712,0.89603 0.10104,0.84817 0.0123,0.97788 -0.56547,0.82678 -0.56172,-0.14689 -0.6853,0.005 -0.6853,0.83956 0,1.16438 -2.00986,4.14859 -2.82222,4.19041 -0.3309,0.017 -0.38972,0.12435 -0.15699,0.28642 0.3649,0.2541 -0.64131,1.55637 -1.11468,1.44265 -0.40284,-0.0968 -1.55055,0.91272 -1.55055,1.36385 0,0.24821 -0.16812,0.45129 -0.3736,0.45129 -0.20548,0 -0.27549,-0.15875 -0.15557,-0.35278 0.11992,-0.19403 0.0574,-0.35278 -0.13897,-0.35278 -0.83429,0 -2.09809,0.84901 -3.06114,2.05644 -1.24213,1.55734 -9.32123,9.59173 -9.3289,9.27728 -0.003,-0.12167 -0.12204,-0.0548 -0.26459,0.14856 -0.14255,0.20338 -0.77512,0.73012 -1.40571,1.17055 -0.63059,0.44043 -1.14653,1.02311 -1.14653,1.29485 0,0.29423 -0.21402,0.41194 -0.52916,0.29101 -0.29104,-0.11169 -0.52917,-0.018 -0.52917,0.20828 0,0.22624 -0.15987,0.31253 -0.35527,0.19177 -0.1954,-0.12076 -0.45016,0.0277 -0.56613,0.32993 -0.11597,0.30223 -0.35116,0.4628 -0.52263,0.35682 -0.17148,-0.10598 -0.227,0.0283 -0.12337,0.29828 0.29235,0.76186 -0.82713,1.52607 -1.56264,1.06674 -0.46224,-0.28868 -0.7946,-0.22185 -1.42154,0.28581 -0.45004,0.36441 -1.03879,0.66257 -1.30833,0.66257 -0.26955,0 -0.49009,0.23813 -0.49009,0.52917 0,0.29104 -0.16812,0.52917 -0.3736,0.52917 -0.20548,0 -0.29109,0.1335 -0.19024,0.29667 0.22442,0.36312 -1.73919,1.86881 -2.04212,1.56589 -0.31074,-0.31075 -0.26723,-0.87737 0.0522,-0.67994 0.34028,0.2103 1.68837,-0.75449 1.42384,-1.01901 -0.30539,-0.30539 -3.12633,1.27781 -2.90755,1.63181 0.10674,0.1727 -0.53261,0.50837 -1.42078,0.74592 -0.99317,0.26563 -1.55214,0.59531 -1.45197,0.85636 0.0896,0.23346 -0.0829,0.51878 -0.38329,0.63405 -0.38994,0.14963 -0.48563,0.0518 -0.33454,-0.34191 0.12124,-0.31595 0.0633,-0.45979 -0.13579,-0.33677 -0.19107,0.11808 -0.62581,0.2805 -0.96609,0.36093 -0.34028,0.0804 -1.17432,0.30284 -1.85341,0.49427 -7.18692,2.02594 -10.93983,2.57504 -17.21593,2.51892 -3.53993,-0.0316 -4.44331,0.065 -4.90276,0.52444 -0.4869,0.4869 -1.71266,0.54726 -3.545899,0.17463 -0.0485,-0.01 -0.0882,-0.26325 -0.0882,-0.56308 0,-0.42846 -0.25566,-0.49719 -1.19432,-0.3211 -1.17677,0.22077 -2.01641,-0.26311 -1.26375,-0.72828 0.50523,-0.31225 -0.25398,-1.22584 -1.02471,-1.23309 -0.31579,-0.003 -0.81229,-0.1767 -1.10333,-0.38606 -0.44666,-0.3213 -0.43291,-0.34969 0.0882,-0.18206 0.33955,0.10923 0.61736,0.0448 0.61736,-0.14311 0,-0.55552 -0.89332,-0.39119 -1.70625,0.31387 l -0.75588,0.65557 1.11523,0.31984 c 1.20947,0.34687 1.84586,1.26429 0.75974,1.09523 -0.35616,-0.0554 -0.8083,-0.20134 -1.00476,-0.32422 -0.19647,-0.12288 -0.75209,0.0118 -1.23473,0.29916 -0.48263,0.28742 -0.5997,0.43722 -0.26015,0.33289 0.33955,-0.10432 0.61736,-0.0453 0.61736,0.13121 0,0.56496 -0.72071,0.78912 -1.21587,0.37817 -0.3575,-0.2967 -0.5147,-0.29201 -0.61819,0.0185 -0.16648,0.49946 -2.38251,-0.17013 -3.86485,-1.16778 -0.51502,-0.34663 -1.15977,-0.63024 -1.43278,-0.63024 -0.27301,0 -0.83718,-0.3175 -1.25371,-0.70555 -0.49702,-0.46305 -1.24495,-0.70556 -2.17605,-0.70556 -2.09127,0 -4.14558,-0.92623 -4.41242,-1.98943 -0.16307,-0.64969 -0.42527,-0.85597 -1.00197,-0.78828 -1.15908,0.13606 -3.76014,-0.80034 -2.98166,-1.07341 0.55786,-0.19569 0.54978,-0.252 -0.0938,-0.65394 -0.49977,-0.31211 -0.70424,-0.32397 -0.70424,-0.0408 0,0.27889 -0.15925,0.26679 -0.52917,-0.0402 -0.31327,-0.25999 -0.52916,-0.29109 -0.52916,-0.0762 0,0.19962 -0.3175,0.27992 -0.70556,0.17844 -0.38805,-0.10148 -0.70555,-0.31976 -0.70555,-0.48507 0,-0.16531 0.27261,-0.19595 0.6058,-0.0681 0.53712,0.20611 0.54712,0.16905 0.0882,-0.32682 -0.28469,-0.30761 -0.62284,-0.49576 -0.75145,-0.41812 -0.12861,0.0777 -0.57695,-0.2962 -0.9963,-0.83077 -0.41936,-0.53458 -0.66196,-0.77352 -0.5391,-0.53099 0.39368,0.77719 -0.36202,0.47208 -1.32797,-0.53616 -0.6919,-0.72219 -0.87871,-1.1968 -0.71599,-1.81905 0.167,-0.63859 0.10838,-0.77283 -0.24268,-0.55586 -0.30122,0.18616 -0.37773,0.14832 -0.2191,-0.10836 0.26387,-0.42695 -1.00102,-1.90573 -1.34007,-1.56668 -0.11318,0.11318 -0.20579,0.0304 -0.20579,-0.18402 0,-0.21439 -0.47625,-0.91122 -1.05833,-1.54852 -1.1683,-1.27913 -1.27103,-1.57735 -0.6183,-1.79492 0.26035,-0.0868 0.0803,-0.33643 -0.44097,-0.61138 -0.8975,-0.4734 -1.39508,-1.01407 -1.40477,-1.52642 -0.003,-0.15698 0.15334,-0.18729 0.34737,-0.0674 0.70046,0.43291 0.33281,-0.42493 -0.52916,-1.23472 -0.48507,-0.4557 -0.88195,-0.98804 -0.88195,-1.18297 0,-0.19494 -0.57547,-0.88154 -1.27882,-1.52579 -0.81189,-0.74366 -1.27882,-1.4911 -1.27882,-2.04708 0,-0.48166 -0.11769,-0.803 -0.26153,-0.7141 -0.14385,0.0889 -0.54548,-0.15212 -0.89252,-0.5356 -0.34705,-0.38348 -0.52294,-0.69724 -0.39087,-0.69724 0.13207,0 0.017,-0.43656 -0.25563,-0.97014 -0.34151,-0.66829 -0.39685,-1.23304 -0.17787,-1.8151 0.38251,-1.01674 0.0384,-1.51842 -0.44682,-0.6514 -0.44905,0.8024 -0.85354,0.77523 -1.74608,-0.11732 l -0.73174,-0.73174 0.73174,-0.19135 c 0.85935,-0.22472 0.96918,-1.00079 0.18425,-1.302 -0.31395,-0.12047 -0.45555,-0.0613 -0.33196,0.13865 0.11854,0.1918 -0.11134,0.34873 -0.51084,0.34873 -0.39951,0 -0.72991,0.19844 -0.73422,0.44098 -0.004,0.24253 -0.28903,0.0755 -0.63269,-0.37109 l -0.62485,-0.81206 0.0153,0.95401 c 0.008,0.52471 -0.18708,0.99729 -0.43446,1.05018 -0.24739,0.0529 -0.2928,0.0174 -0.10092,-0.0789 0.22723,-0.11404 0.22087,-0.38157 -0.0182,-0.76729 -0.25588,-0.41279 -0.25042,-0.89731 0.018,-1.59926 0.33026,-0.86359 0.51878,-0.9735 1.32337,-0.77156 0.83462,0.20947 0.88594,0.17245 0.46469,-0.33513 -0.81386,-0.98062 -1.70014,-1.29789 -2.47188,-0.88487 -0.53488,0.28626 -0.70898,0.26793 -0.71968,-0.0758 -0.008,-0.24936 -0.25097,-0.0168 -0.54043,0.51676 -0.28948,0.53357 -0.62708,0.97014 -0.75023,0.97014 -0.12316,0 -0.13332,-0.0906 -0.0226,-0.20133 0.11073,-0.11073 -0.0156,-0.61942 -0.2807,-1.13042 -0.492522,-0.94935 -0.34842,-1.66737 0.1672,-0.83308 0.20807,0.33667 0.35534,0.23901 0.54738,-0.36299 0.21887,-0.68611 0.29025,-0.72053 0.42759,-0.20621 0.0907,0.33955 0.29765,0.61736 0.45995,0.61736 0.1623,0 0.0857,-0.90071 -0.17019,-2.00159 -0.25591,-1.10087 -0.40532,-2.31297 -0.33202,-2.69356 0.0733,-0.38059 0.0338,-0.59251 -0.0878,-0.47092 -0.12158,0.12158 -0.41556,0.0596 -0.65329,-0.13766 -0.30609,-0.25404 -0.49501,-0.19514 -0.64733,0.20181 -0.118305,0.30829 -0.376185,0.46097 -0.573074,0.33928 -0.227426,-0.14055 -0.18046,-0.39875 0.128785,-0.708 0.512669,-0.51267 0.368259,-2.42114 -0.158567,-2.09555 -0.625912,0.38684 -0.732652,-1.54372 -0.135724,-2.45475 0.508699,-0.77637 0.520072,-0.91517 0.07499,-0.91517 -0.474017,0 -1.0619,-1.84455 -1.12436,-3.52778 -0.0108,-0.29104 -0.178385,-0.6458 -0.372413,-0.78835 -0.218479,-0.16051 -0.184902,-0.26124 0.08819,-0.26458 0.268549,-0.003 0.427221,-0.45371 0.405808,-1.15193 -0.0333,-1.0863 -0.05,-1.1002 -0.317613,-0.26459 -0.262933,0.82101 -0.284879,0.82854 -0.317613,0.10902 -0.01933,-0.42511 -0.196504,-0.87265 -0.393697,-0.99452 -0.197192,-0.12187 -0.251745,-0.39437 -0.121225,-0.60555 0.15107,-0.24444 -0.01037,-0.3192 -0.444313,-0.20573 -0.444828,0.11633 -0.898648,-0.10948 -1.306354,-0.64999 -0.589953,-0.7821 -0.590606,-0.82823 -0.01169,-0.82823 0.558285,0 0.553876,-0.0433 -0.04932,-0.48434 -0.446761,-0.32668 -0.669678,-0.94071 -0.684788,-1.88627 -0.01231,-0.77106 -0.221078,-1.64121 -0.463902,-1.93368 -0.634669,-0.76443 -0.675563,-3.44451 -0.05852,-3.83508 0.411985,-0.26077 0.414775,-0.31744 0.01584,-0.32189 -0.379818,-0.004 -0.393919,-0.11415 -0.06543,-0.50995 0.230304,-0.2775 0.355805,-1.11094 0.278888,-1.85208 l -0.139848,-1.34754 -0.05931,1.49931 c -0.06681,1.68899 -0.948313,2.12037 -1.318543,0.64526 -0.334359,-1.33219 -0.04056,-2.13426 0.827106,-2.25798 0.437458,-0.0624 0.72361,-0.22954 0.635896,-0.37147 -0.08772,-0.14192 0.306804,-0.22576 0.876713,-0.18631 0.569905,0.0395 1.036193,-0.0882 1.036193,-0.28364 0,-0.19546 -0.221263,-0.27047 -0.491692,-0.1667 -0.37193,0.14272 -0.464904,-0.0996 -0.381705,-0.99476 0.08903,-0.95795 -0.0048,-1.16134 -0.492552,-1.06741 -0.426237,0.0821 -0.624106,-0.14446 -0.676226,-0.77424 -0.06144,-0.74235 0.01161,-0.8195 0.439625,-0.46427 0.282321,0.2343 0.679013,0.3236 0.881542,0.19843 0.202527,-0.12517 0.36823,-0.0595 0.36823,0.14601 0,0.20548 0.224896,0.3736 0.499769,0.3736 0.274871,0 0.586074,0.19844 0.691554,0.44098 0.105484,0.24253 0.101054,0.002 -0.0098,-0.53316 -0.164388,-0.79419 -0.09664,-0.93384 0.366776,-0.75601 0.312628,0.11997 0.568413,0.42228 0.568413,0.6718 0,0.24953 0.23979,0.5457 0.532871,0.65816 0.690527,0.26499 0.89891,0.27094 0.790046,0.0226 -0.04851,-0.11066 0.208664,-0.36733 0.571494,-0.57038 0.52243,-0.29237 0.56106,-0.43014 0.18563,-0.66216 -0.37696,-0.23297 -0.318777,-0.45936 0.28409,-1.10531 0.50885,-0.54522 0.73116,-1.18934 0.6761,-1.95886 -0.0751,-1.04938 0.009,-1.152 0.9965,-1.21105 1.92944,-0.11542 3.07067,0.066 3.5725,0.56779 0.27073,0.27074 0.79463,0.41318 1.1642,0.31654 0.36957,-0.0966 0.77861,-0.003 0.90897,0.20779 0.13036,0.21093 0.4688,0.38351 0.75209,0.38351 0.38214,0 0.45606,-0.25037 0.28641,-0.97014 -0.18956,-0.80424 -0.14738,-0.89364 0.24661,-0.52277 0.2614,0.24604 0.49459,1.0037 0.5182,1.68367 0.0388,1.11609 0.85209,2.23304 1.65111,2.26747 0.37655,0.0162 0.15738,-1.5285 -0.26043,-1.83547 -0.38383,-0.282 0.55528,-0.36965 2.93895,-0.27429 1.1174,0.0447 1.65932,-0.11237 2.01726,-0.58465 0.44102,-0.58191 0.49052,-0.58678 0.50063,-0.0492 0.0153,0.81586 0.58587,1.10212 1.33134,0.668 0.34243,-0.19941 0.42268,-0.36595 0.17918,-0.37187 -0.68831,-0.0168 -0.51749,-0.71561 0.17639,-0.72168 0.45406,-0.004 0.49756,-0.0814 0.16444,-0.29279 -0.7863,-0.49892 -0.0884,-1.4657 1.05808,-1.4657 0.92177,0 1.0331,0.10275 0.86001,0.79375 -0.15138,0.60437 0.008,0.89102 0.66708,1.20142 0.49787,0.2344 0.94981,0.27189 1.06334,0.0882 0.10859,-0.17572 -0.0594,-0.31948 -0.37336,-0.31948 -0.34163,0 -0.46975,-0.16352 -0.31909,-0.40729 0.15595,-0.25234 0.0968,-0.31152 -0.15557,-0.15556 -0.22401,0.13844 -0.40729,0.10185 -0.40729,-0.0813 0,-0.60312 1.75813,-1.49914 2.74046,-1.39666 0.61804,0.0645 0.93256,-0.0562 0.87687,-0.33637 -0.0533,-0.26815 0.25328,-0.40876 0.79375,-0.36402 0.48433,0.0401 0.88059,0.20066 0.88059,0.35684 0,0.15618 0.40183,0.0207 0.89296,-0.30112 0.90799,-0.59494 1.48397,-0.49048 1.06183,0.19257 -0.1279,0.20694 -0.48348,0.37625 -0.79019,0.37625 -0.53377,0 -1.48263,0.94455 -1.50616,1.49931 -0.0173,0.40793 1.32833,0.313 1.59115,-0.11224 0.12809,-0.20726 0.46646,-0.2872 0.75193,-0.17766 0.28547,0.10954 0.85714,0.0182 1.27037,-0.20292 0.56287,-0.30125 0.78506,-0.30093 0.88578,0.001 0.15278,0.4583 1.35521,0.54886 1.61907,0.12193 0.0957,-0.15478 0.0256,-0.51197 -0.15557,-0.79375 -0.28676,-0.44585 -0.37457,-0.44367 -0.67688,0.0169 -0.29739,0.45302 -0.34815,0.44032 -0.35278,-0.0882 -0.005,-0.61282 1.0392,-0.86628 1.5334,-0.37208 0.13491,0.13491 0.71587,0.28119 1.29102,0.32508 0.57516,0.0439 1.29633,0.33039 1.6026,0.63666 0.30628,0.30628 0.70428,0.55687 0.88445,0.55687 0.18017,0 0.33001,0.27781 0.33298,0.61736 0.004,0.47303 0.0752,0.5073 0.30384,0.14657 0.22337,-0.3524 0.35157,-0.26755 0.50977,0.33737 0.25402,0.97141 -0.0279,1.37176 -0.46644,0.66226 -0.32934,-0.53288 -0.30825,-0.56283 -0.87234,1.23942 -0.13066,0.41743 0.0311,0.4838 0.74342,0.30502 0.59852,-0.15022 1.01829,-0.0611 1.22532,0.26022 0.26517,0.41153 0.36978,0.40514 0.66229,-0.0404 0.19106,-0.29104 0.34981,-0.95168 0.35278,-1.46809 0.004,-0.62381 0.17957,-0.91336 0.52436,-0.86276 0.65442,0.096 1.15125,0.56696 0.59817,0.56696 -0.54033,0 -0.5332,1.64708 0.009,1.98192 0.23108,0.14281 0.48243,0.0728 0.55856,-0.15557 0.17254,-0.51763 1.59286,-0.52987 3.39585,-0.0293 0.97174,0.2698 1.59356,0.27229 2.11667,0.008 1.12856,-0.56917 10.745269,-0.68315 10.956869,-0.12985 0.0927,0.24253 0.45143,0.4445 0.79707,0.44881 0.5203,0.006 0.47884,0.12281 -0.24097,0.67594 l -0.8694,0.66811 0.8694,0.71148 c 0.7778,0.63652 0.95173,0.65823 1.65075,0.20601 0.42973,-0.27803 1.02504,-0.50549 1.32291,-0.50549 0.62742,0 0.72489,1.08669 0.14911,1.66246 -0.21585,0.21586 -0.32612,0.59149 -0.24503,0.83475 0.095,0.2849 0.47898,0.0847 1.07914,-0.56253 0.51244,-0.55265 0.83036,-1.17434 0.70649,-1.38155 -0.12388,-0.20721 0.0416,-0.16032 0.36777,0.1042 0.59701,0.4842 0.48281,1.29332 -0.12917,0.9151 -0.48041,-0.29691 -0.40154,0.68276 0.0949,1.17923 0.59764,0.59765 1.57863,0.52553 1.83198,-0.13468 0.33427,-0.8711 0.25598,-1.20587 -0.28201,-1.20587 -0.32246,0 -0.43155,-0.247 -0.31164,-0.70556 0.10148,-0.38805 0.47852,-0.70555 0.83785,-0.70555 0.43581,0 0.58573,-0.17619 0.45028,-0.52917 -0.11169,-0.29104 -0.0273,-0.52917 0.18746,-0.52917 0.21479,0 0.39052,0.39688 0.39052,0.88195 0,0.48507 0.15875,0.88194 0.35278,0.88194 0.19403,0 0.33398,-0.11906 0.311,-0.26458 -0.11605,-0.73499 0.0964,-1.14653 0.59176,-1.14653 0.3025,0 0.45188,0.15875 0.33196,0.35278 -0.11992,0.19403 0.10884,0.35278 0.50835,0.35278 0.3995,0 0.72637,0.15875 0.72637,0.35277 0,0.47117 1.17175,0.45104 1.65116,-0.0284 0.27302,-0.27302 0.30964,0.01 0.12908,0.99733 -0.13864,0.75816 -0.34731,1.53257 -0.46371,1.72091 -0.1164,0.18834 -0.0658,0.57298 0.11246,0.85476 0.24475,0.38689 0.32542,0.39854 0.3295,0.0476 0.004,-0.30946 0.25039,-0.38698 0.73865,-0.23202 0.5779,0.18342 0.71221,0.095 0.63398,-0.4172 -0.14105,-0.92348 0.34551,-2.5902 0.75616,-2.5902 0.49755,0 0.42686,0.61416 -0.0949,0.8247 -0.26343,0.1063 -0.19241,0.18915 0.17639,0.20578 0.33955,0.0153 0.63568,0.22629 0.65806,0.46883 0.0224,0.24253 0.0621,0.6791 0.0882,0.97014 0.0261,0.29104 0.24594,0.48948 0.48848,0.44097 0.24253,-0.0485 0.40128,0.11024 0.35277,0.35278 -0.0485,0.24253 0.18791,0.41921 0.52537,0.3926 0.33746,-0.0266 0.553,0.0528 0.47897,0.17639 -0.074,0.12362 -0.0112,0.85976 0.13962,1.63587 0.15082,0.77611 0.29247,1.07336 0.31478,0.66055 0.054,-0.99967 0.79724,-1.59634 1.46351,-1.17494 0.34675,0.2193 0.37291,0.32898 0.0793,0.3326 -0.28903,0.004 -0.38712,0.39536 -0.2884,1.15193 0.20859,1.59853 0.20424,1.59339 0.57193,0.67601 0.18149,-0.45281 0.52861,-0.75047 0.77139,-0.66146 0.46489,0.17045 0.46628,0.20725 0.0678,1.79493 -0.22782,0.9077 -0.18031,0.97995 0.50196,0.7634 0.60372,-0.19161 0.7536,-0.0941 0.7536,0.49015 0,0.40113 -0.1448,0.72933 -0.32177,0.72933 -0.17698,0 -0.42906,0.635 -0.56018,1.41111 -0.13112,0.77611 -0.42289,1.41594 -0.64837,1.42184 -0.22548,0.006 -0.13215,0.17254 0.2074,0.37031 0.33955,0.19776 0.61736,0.59918 0.61736,0.89203 0,0.29286 0.15693,0.43547 0.34874,0.31693 0.19997,-0.12359 0.25911,0.018 0.13864,0.33196 -0.11555,0.30112 -0.0374,0.54749 0.17371,0.54749 0.21109,0 0.48446,-0.40107 0.60749,-0.89125 0.12303,-0.49019 0.50206,-1.04023 0.84228,-1.22231 1.06246,-0.56861 1.11818,0.078 0.0989,1.14804 l -0.97508,1.02368 1.05834,-0.11728 1.05833,-0.11727 0.0956,-25.08806 0.0956,-25.08805 -1.33035,-0.21987 c -0.7317,-0.12093 -1.99567,-0.22162 -2.80884,-0.22375 -0.81317,-0.002 -1.5766,-0.16264 -1.69652,-0.35666 -0.11991,-0.19403 -0.72459,-0.33696 -1.34373,-0.31762 -1.07505,0.0336 -1.08602,0.0479 -0.24377,0.31762 0.74572,0.23882 0.64749,0.28788 -0.63591,0.31761 -1.90991,0.0443 -6.12516,0.99234 -8.01654,1.80308 -2.80203,1.20109 -7.25891,5.55934 -10.46724,10.23561 -0.32937,0.48008 -0.60718,0.69189 -0.61736,0.4707 -0.0102,-0.22119 0.73556,-1.39629 1.65719,-2.61133 0.92163,-1.21504 1.90308,-2.54219 2.18099,-2.94922 0.99818,-1.46194 -0.55298,0.20166 -2.70712,2.90336 l -2.06117,2.58509 -2.454609,0.0793 c -1.35004,0.0436 -3.32774,-0.0282 -4.39489,-0.1597 -1.26655,-0.15601 -2.02515,-0.1053 -2.18469,0.14602 -0.25507,0.4018 -3.09957,0.35216 -3.53155,-0.0616 -0.1365,-0.13075 0.4985,-0.18032 1.41111,-0.11016 0.91261,0.0702 1.56025,0.0246 1.43919,-0.10127 -0.12105,-0.12586 -2.5023,-0.44514 -5.29167,-0.70952 -3.81541,-0.36162 -5.13576,-0.37992 -5.33074,-0.0739 -0.1863,0.29239 -0.2607,0.27787 -0.26459,-0.0517 -0.004,-0.35986 -1.25715,-0.44521 -5.82623,-0.39689 -3.35179,0.0355 -5.82084,0.20216 -5.82084,0.39301 0,0.19828 -2.46866,0.28686 -6.14512,0.2205 -3.37982,-0.061 -6.0646,-0.0316 -5.96618,0.0654 0.32389,0.31926 -7.80934,0.9951 -8.14739,0.67702 -0.18714,-0.1761 -0.52626,-0.14186 -0.79375,0.0801 -0.37497,0.3112 -0.467,0.0934 -0.467,-1.10497 0,-1.43214 -0.0372,-1.48322 -0.919452,-1.26179 -0.661251,0.16596 -1.046802,0.0566 -1.372938,-0.38941 -0.382513,-0.52312 -0.541669,-0.54699 -1.016945,-0.15255 -0.309901,0.25719 -0.483524,0.59696 -0.38583,0.75503 0.21656,0.35041 -1.112058,0.814 -1.552578,0.54175 -0.173338,-0.10714 -0.330094,-1.66519 -0.348347,-3.46236 -0.01824,-1.79716 -0.1065,-3.62289 -0.196109,-4.05718 -0.08961,-0.43428 0.07707,-1.02959 0.370392,-1.32291 0.293324,-0.29348 0.363223,-0.53347 0.155338,-0.53347 -0.207888,0 -0.377976,-0.37042 -0.377976,-0.82315 0,-0.45273 -0.111838,-0.93499 -0.248525,-1.07168 -0.426226,-0.42622 -0.50123,-1.98573 -0.0955,-1.98573 0.212115,0 0.287553,-0.15875 0.167637,-0.35278 -0.30007,-0.48552 0.394183,-0.44305 1.223465,0.0748 0.376597,0.23519 0.801627,0.31072 0.944513,0.16783 0.142882,-0.14288 0.224317,-1.64499 0.180968,-3.33803 -0.04335,-1.69304 0.0734,-3.59204 0.259436,-4.22002 0.380549,-1.28455 0.163887,-1.56333 -0.982105,-1.26364 -0.659003,0.17233 -0.763658,0.39608 -0.634284,1.3561 0.205419,1.52431 -0.324386,2.42929 -0.653803,1.11679 -0.313937,-1.25082 0.10408,-3.41887 0.659187,-3.41887 0.239927,0 0.470256,-0.41105 0.511834,-0.91346 0.04158,-0.5024 0.194166,-1.09771 0.339073,-1.32292 0.14491,-0.22521 0.287256,-0.80634 0.316325,-1.29141 0.02907,-0.48507 0.0897,-0.92163 0.134747,-0.97013 0.04504,-0.0485 0.101738,-0.23372 0.125991,-0.41158 0.02424,-0.17786 0.16316,-0.44244 0.308681,-0.58796 0.145521,-0.14552 0.264583,-0.79375 0.264583,-1.44051 0,-0.70268 0.177468,-1.1781 0.440972,-1.18133 0.326006,-0.004 0.316759,-0.0841 -0.03547,-0.30732 -0.387678,-0.24567 -0.356641,-0.44184 0.166596,-1.05293 0.619266,-0.72325 1.430736,-1.07026 1.045633,-0.44715 -0.10329,0.16712 0.482653,-0.0238 1.302101,-0.42437 0.81944,-0.40053 1.54314,-0.85575 1.60822,-1.01161 0.0651,-0.15587 0.23177,-0.21328 0.37041,-0.12759 0.13865,0.0857 0.2521,-0.40518 0.2521,-1.09082 0,-0.82214 0.21096,-1.36468 0.61955,-1.59335 0.4902,-0.27432 0.60679,-0.76428 0.5584,-2.34656 -0.0336,-1.09991 -0.0269,-2.15859 0.0149,-2.35262 0.0418,-0.19403 0.10013,-0.74674 0.12951,-1.22824 0.032,-0.52466 0.30082,-0.92377 0.6708,-0.99601 0.5136,-0.10028 0.62667,0.16544 0.67278,1.58102 l 0.0554,1.70156 0.24193,-1.76389 c 0.13306,-0.97013 0.26687,-1.62724 0.29736,-1.46022 0.0305,0.16702 0.38501,-0.0711 0.78785,-0.52917 0.40284,-0.45805 0.63159,-0.63439 0.50835,-0.39186 -0.14359,0.28256 0.0369,0.44098 0.50229,0.44098 0.3995,0 0.72637,-0.15875 0.72637,-0.35278 0,-0.19403 -0.13229,-0.35278 -0.29398,-0.35278 -0.16169,0 -0.29398,-0.23812 -0.29398,-0.52917 0,-0.29104 0.13229,-0.52916 0.29398,-0.52916 0.16169,0 0.29398,-0.17727 0.29398,-0.39392 0,-0.21666 -0.30143,-0.3151 -0.66984,-0.21876 -0.5349,0.13988 -0.65127,0.006 -0.57768,-0.66441 0.0507,-0.46177 -0.0712,-0.83958 -0.2709,-0.83958 -0.19968,0 -0.27177,-0.0913 -0.1602,-0.20286 0.22489,-0.22489 1.16487,-0.43432 2.13506,-0.4757 0.34805,-0.0149 0.60706,-0.22543 0.57556,-0.46797 -0.12838,-0.98866 0.0464,-1.29307 0.61675,-1.07421 0.45619,0.17506 0.53606,0.0849 0.35132,-0.39649 -0.17078,-0.44504 -0.0371,-0.67589 0.46792,-0.80795 0.38886,-0.10169 0.70701,-0.30586 0.70701,-0.45372 0,-0.14786 0.43656,-0.44993 0.97014,-0.67128 0.64623,-0.26808 1.18793,-0.93018 1.62245,-1.98308 0.35876,-0.86934 0.88407,-1.58063 1.16734,-1.58063 0.29721,0 0.4196,0.18651 0.28938,0.44097 -0.12412,0.24254 0.21053,-0.0353 0.74367,-0.61736 0.53314,-0.58208 1.10158,-1.078168 1.26319,-1.102428 0.1616,-0.0242 0.44207,-0.0639 0.62325,-0.0882 0.18118,-0.0242 0.25514,-0.45369 0.16437,-0.95429 -0.10362,-0.5714 -0.0292,-0.82628 0.19975,-0.68474 0.20063,0.124 0.3648,0.0573 0.3648,-0.14814 0,-0.20548 0.23812,-0.3736 0.52916,-0.3736 0.29104,0 0.52917,-0.15875 0.52917,-0.35277 0,-0.19403 0.21869,-0.35278 0.48597,-0.35278 0.26728,0 0.6836,-0.23813 0.92514,-0.52917 0.30342,-0.3656 0.31678,-0.52917 0.0432,-0.52917 -0.21778,0 -0.38343,-0.27781 -0.36812,-0.61736 0.0194,-0.43043 0.0858,-0.47175 0.2191,-0.13647 0.16099,0.40484 0.23807,0.40511 0.48738,0.002 0.23705,-0.38356 0.40914,-0.33872 0.86239,0.22466 0.54978,0.68337 0.56181,0.67539 0.41402,-0.27472 -0.0837,-0.53821 -0.0148,-1.06351 0.15324,-1.16735 0.16801,-0.10383 0.30547,0.14367 0.30547,0.55 0,0.6107 0.11366,0.67796 0.65559,0.38792 0.36058,-0.19297 0.94078,-0.79387 1.28933,-1.33532 l 0.63374,-0.98447 -0.74105,0.65475 c -0.72484,0.64041 -0.73988,0.63901 -0.68694,-0.0638 0.0298,-0.39517 0.16895,-0.64753 0.30929,-0.56079 0.14035,0.0867 0.35515,-0.004 0.47735,-0.20179 0.14963,-0.2421 0.45458,-0.2351 0.93389,0.0214 0.86366,0.46221 1.71491,0.19203 1.71491,-0.54431 0,-0.64898 0.58093,-0.72036 0.80792,-0.0993 0.0886,0.24254 0.14158,0.034 0.11765,-0.46339 -0.0356,-0.73907 -0.1886,-0.87664 -0.83731,-0.75263 -1.04131,0.19906 -0.99191,-0.29929 0.10914,-1.10099 1.15397,-0.84023 2.13093,-0.65056 1.98528,0.38543 -0.0607,0.43178 0.0753,0.78506 0.30233,0.78506 0.23458,0 0.31855,-0.24534 0.19456,-0.56845 -0.16422,-0.42795 -0.0645,-0.51497 0.40323,-0.35208 0.45604,0.15879 0.41017,0.0369 -0.17238,-0.45824 -0.95456,-0.81127 -0.99869,-1.08695 -0.17639,-1.1019 0.33954,-0.006 0.90144,-0.22669 1.24864,-0.49004 0.5578,-0.42309 0.57041,-0.5397 0.10835,-1.00176 -0.46205,-0.46205 -0.4364,-0.68221 0.22032,-1.8912 0.75923,-1.39772 1.13951,-5.77816 0.50161,-5.77805 -0.16628,3e-5 -0.22046,-0.21329 -0.1204,-0.47404 0.12633,-0.32922 -0.0508,-0.43005 -0.57962,-0.32996 -0.75483,0.1428 -2.34904,-0.99677 -2.34904,-1.679187 0,-0.492107 0.6157,-0.416003 0.82469,0.101937 0.0979,0.242535 0.1953,0.123473 0.21652,-0.264583 0.0355,-0.649939 0.0669,-0.656891 0.39816,-0.08819 0.43283,0.743123 1.03007,0.811303 1.03007,0.117592 0,-0.274872 0.15036,-0.552685 0.33413,-0.617361 0.18377,-0.06468 0.4288,-0.659858 0.54451,-1.322626 0.1157,-0.662769 0.2836,-1.32352 0.3731,-1.468338 0.0895,-0.144816 -0.11584,-0.222417 -0.45631,-0.172447 -0.34047,0.04997 -0.63888,0.27416 -0.66314,0.498198 -0.0243,0.224039 -0.0639,0.492902 -0.0882,0.597474 -0.0243,0.104572 -0.37806,-0.121004 -0.78624,-0.501281 -0.67202,-0.626078 -0.88037,-0.64893 -2.20487,-0.241835 -4.49079,1.380283 -9.84496,4.360217 -15.48685,8.619417 -4.04401,3.05293 -12.34927,10.94465 -14.609731,13.88229 -0.881694,1.14582 -1.691188,1.99521 -1.798877,1.88751 -0.107693,-0.10769 0.107495,-0.55122 0.47819,-0.98563 0.58771,-0.68872 0.592498,-0.72658 0.03737,-0.29576 -0.738878,0.57343 -1.61236,2.01925 -0.986073,1.63218 0.213384,-0.13187 0.387974,-0.0963 0.387974,0.0791 0,0.43495 -1.24648,1.53364 -1.477663,1.30246 -0.102125,-0.10213 -0.406742,0.096 -0.676927,0.4402 -0.446691,0.569118 -0.435251,0.581968 0.126118,0.14172 0.75064,-0.58869 0.834714,0.041 0.08819,0.660558 -0.291042,0.24154 -0.529167,0.31575 -0.529167,0.16491 0,-0.548708 -1.430203,1.03931 -2.518614,2.79653 -0.613562,0.99058 -1.705963,2.67418 -2.427552,3.74133 -3.545266,5.24304 -8.664209,16.36745 -11.038586,23.98889 -1.26745,4.06835 -3.24055,12.99509 -2.93899,13.29665 0.0885,0.0885 0.67132,-2.00098 1.29523,-4.6432 0.62391,-2.64223 1.20619,-4.73224 1.29394,-4.64448 0.14232,0.1423 -0.87682,5.43645 -1.67305,8.69104 -0.41451,1.69436 -1.29762,8.47762 -1.76477,13.55551 -0.34248,3.7227 -0.50465,4.37786 -1.40896,5.69223 -0.56206,0.81693 -1.17175,2.09883 -1.35486,2.84866 -0.18311,0.74983 -0.58487,2.28389 -0.8928,3.40901 -0.75476,2.75773 -0.7121,3.33258 0.35061,4.72587 1.25132,1.64057 3.75895,3.96864 4.28626,3.97935 0.58421,0.0119 0.75597,0.97023 0.90153,5.0304 0.0677,1.88874 0.22049,3.53145 0.3395,3.65046 0.11901,0.11901 0.13939,0.41703 0.0453,0.66227 -0.39395,1.02663 2.52104,10.94354 5.033474,17.12403 1.44043,3.54339 6.725454,14.05905 7.409865,14.74346 0.262011,0.26201 0.47638,0.59385 0.47638,0.73744 0,0.14358 0.277813,0.5688 0.617361,0.94494 0.339549,0.37613 0.934861,1.2912 1.322917,2.03349 2.563093,4.90276 13.913631,17.31381 19.931951,21.79422 5.95089,4.43022 11.49933,7.73872 16.40416,9.78169 1.55223,0.64653 3.13738,1.34588 3.52258,1.55412 2.10644,1.13874 11.55336,3.60221 15.91858,4.15108 4.29737,0.54035 17.088739,0.141 21.657459,-0.67614 z m -35.343929,-7.68029 c 0.25466,-0.1019 0.55894,-0.0894 0.67616,0.0278 0.11723,0.11722 -0.0911,0.2006 -0.46302,0.18528 -0.41097,-0.0169 -0.49456,-0.10052 -0.21314,-0.21313 z m 50.541229,-2.43424 c 0.0169,-0.41097 0.10052,-0.49456 0.21313,-0.21314 0.10191,0.25466 0.0894,0.55893 -0.0278,0.67616 -0.11723,0.11722 -0.20061,-0.0911 -0.18529,-0.46302 z m -62.645919,-3.67477 c -0.11991,-0.19403 -0.0499,-0.35278 0.15557,-0.35278 0.20548,0 0.3736,0.15875 0.3736,0.35278 0,0.19403 -0.07,0.35278 -0.15557,0.35278 -0.0856,0 -0.25368,-0.15875 -0.3736,-0.35278 z m 81.163679,-9.13212 c -0.10628,-0.17197 0.13155,-0.3976 0.52851,-0.50141 0.59195,-0.1548 0.64691,-0.0986 0.30562,0.31267 -0.48717,0.587 -0.57562,0.60701 -0.83413,0.18874 z m 15.59075,-15.72167 c -0.0941,-0.492 0.005,-1.0408 0.22062,-1.21956 0.2713,-0.22516 0.39163,-0.0181 0.39163,0.67392 0,1.32189 -0.39634,1.67511 -0.61225,0.54564 z M 46.682981,213.67212 c 0,-0.29104 0.15875,-0.52917 0.35278,-0.52917 0.19403,0 0.35278,0.23813 0.35278,0.52917 0,0.29104 -0.15875,0.52916 -0.35278,0.52916 -0.19403,0 -0.35278,-0.23812 -0.35278,-0.52916 z m -0.677701,-0.73496 c 0.01693,-0.41096 0.10052,-0.49455 0.213134,-0.21313 0.101907,0.25466 0.08938,0.55893 -0.02783,0.67616 -0.117228,0.11722 -0.200604,-0.0911 -0.185286,-0.46303 z m 79.17076,-19.19699 c 0.11992,-0.19403 0.37678,-0.35278 0.57081,-0.35278 0.19402,0 0.25466,0.15875 0.13475,0.35278 -0.11992,0.19403 -0.37678,0.35278 -0.57081,0.35278 -0.19403,0 -0.25466,-0.15875 -0.13475,-0.35278 z m 1.16858,-2.35765 c 0.25466,-0.10191 0.55893,-0.0894 0.67616,0.0278 0.11722,0.11723 -0.0911,0.20061 -0.46302,0.18529 -0.41097,-0.0169 -0.49456,-0.10052 -0.21314,-0.21314 z m -6.2133,-8.29624 c -0.23283,-0.23283 -0.4209,-0.59002 -0.41793,-0.79375 0.004,-0.24775 0.0912,-0.24361 0.26458,0.0125 0.14255,0.21061 0.57668,0.56297 0.96474,0.78302 0.52317,0.29667 0.56421,0.40287 0.15875,0.41082 -0.30074,0.006 -0.73731,-0.17977 -0.97014,-0.4126 z m -80.082341,-0.81139 c 0.0072,-0.58208 0.08625,-0.7775 0.175698,-0.43426 0.08944,0.34325 0.08356,0.8195 -0.01309,1.05834 -0.09664,0.23884 -0.169817,-0.042 -0.162627,-0.62408 z m 0.642183,0.26459 c -0.003,-0.43657 0.153349,-0.79375 0.347377,-0.79375 0.442002,0 0.442002,0.37438 0,1.05833 -0.276532,0.42791 -0.343006,0.37727 -0.347377,-0.26458 z m 73.047458,-2.76343 c 0.0169,-0.41097 0.10052,-0.49456 0.21313,-0.21314 0.10191,0.25466 0.0894,0.55894 -0.0278,0.67616 -0.11723,0.11723 -0.20061,-0.0911 -0.18529,-0.46302 z m 2.79437,0.18497 c 0,-0.20548 0.15875,-0.27549 0.35277,-0.15557 0.19403,0.11992 0.35278,0.28803 0.35278,0.3736 0,0.0856 -0.15875,0.15557 -0.35278,0.15557 -0.19402,0 -0.35277,-0.16812 -0.35277,-0.3736 z m -73.730562,-0.86113 c 0,-0.097 0.3175,-0.49389 0.705555,-0.88194 0.388056,-0.38806 0.705556,-0.55618 0.705556,-0.3736 0,0.18258 -0.16134,0.43167 -0.358532,0.55354 -0.197192,0.12187 -0.267201,0.36937 -0.155568,0.54999 0.11163,0.18062 -0.04453,0.3284 -0.347024,0.3284 -0.302493,0 -0.549987,-0.0794 -0.549987,-0.17639 z m 2.339777,-0.80634 c -0.09422,-0.15246 0.134536,-0.27719 0.508346,-0.27719 0.37381,0 0.679655,0.12473 0.679655,0.27719 0,0.15244 -0.228756,0.27718 -0.508346,0.27718 -0.279591,0 -0.585438,-0.12474 -0.679655,-0.27718 z m 38.963076,-0.98694 c 0.0169,-0.41097 0.10052,-0.49456 0.21313,-0.21314 0.10191,0.25466 0.0894,0.55893 -0.0278,0.67616 -0.11722,0.11722 -0.2006,-0.0911 -0.18529,-0.46302 z m -40.310666,-0.38798 c 0.25466,-0.10191 0.558931,-0.0894 0.676159,0.0278 0.117224,0.11723 -0.09114,0.20061 -0.463021,0.18529 -0.410969,-0.0169 -0.494559,-0.10052 -0.213138,-0.21313 z m 0.330729,-0.69821 c 0.242535,-0.0979 0.63941,-0.0979 0.881945,0 0.242535,0.0979 0.0441,0.17794 -0.440972,0.17794 -0.48507,0 -0.683507,-0.0801 -0.440973,-0.17794 z m 14.962817,-0.57847 c -0.28163,-0.33934 -0.20389,-0.46444 0.31281,-0.50336 0.70445,-0.0531 0.93496,0.41538 0.37476,0.7616 -0.17204,0.10633 -0.48145,-0.01 -0.68757,-0.25824 z m 2.76427,-0.13187 c -0.98223,-0.50866 -0.98463,-0.50617 0.61736,-0.64091 0.88563,-0.0745 1.14653,0.0413 1.14653,0.50904 0,0.71697 -0.55408,0.75839 -1.76389,0.13187 z m 13.18753,-1.59284 c -0.14282,-0.23108 -0.0718,-0.48277 0.15776,-0.5593 0.22959,-0.0765 0.3066,-0.32402 0.17113,-0.54998 -0.15866,-0.26466 -0.0498,-0.25177 0.30587,0.0362 0.30369,0.24589 0.8501,0.35166 1.21424,0.23506 0.5344,-0.17112 0.50146,-0.0702 -0.17075,0.52308 -0.95316,0.84129 -1.3114,0.90851 -1.67825,0.31493 z m 2.68747,-1.14653 c 0,-0.30249 0.15875,-0.54998 0.35278,-0.54998 0.19402,0 0.35277,0.14938 0.35277,0.33195 0,0.18258 -0.15875,0.43007 -0.35277,0.54999 -0.19403,0.11992 -0.35278,-0.0295 -0.35278,-0.33196 z m 16.51441,-12.78541 c 0.25466,-0.10191 0.55893,-0.0894 0.67616,0.0278 0.11722,0.11722 -0.0911,0.2006 -0.46302,0.18529 -0.41097,-0.0169 -0.49456,-0.10053 -0.21314,-0.21314 z m -2.13872,-0.34543 c 0.24254,-0.0979 0.63941,-0.0979 0.88195,0 0.24253,0.0979 0.0441,0.17793 -0.44097,0.17793 -0.48507,0 -0.68351,-0.0801 -0.44098,-0.17793 z m -7.05555,-0.72089 c 0.43656,-0.0841 1.15094,-0.0841 1.5875,0 0.43656,0.0841 0.0794,0.15289 -0.79375,0.15289 -0.87313,0 -1.23031,-0.0688 -0.79375,-0.15289 z m -3.52778,-0.35278 c 0.43656,-0.0841 1.15094,-0.0841 1.5875,0 0.43656,0.0841 0.0794,0.15289 -0.79375,0.15289 -0.87313,0 -1.23031,-0.0688 -0.79375,-0.15289 z m -8.98116,-0.36575 c 1.31775,-0.0681 3.3815,-0.0676 4.58611,0.001 1.2046,0.0687 0.12644,0.12437 -2.39592,0.12375 -2.52236,-7.1e-4 -3.50795,-0.0568 -2.19019,-0.12487 z M 41.252961,143.037 c -0.385488,-0.38549 -0.225447,-0.80239 0.308024,-0.80239 0.618105,0 0.843756,-0.83942 0.995736,-3.70416 0.09096,-1.71452 0.124972,-1.54633 0.179003,0.88528 0.0579,2.60575 -0.02141,3.05696 -0.600819,3.41882 -0.367136,0.22928 -0.764011,0.32038 -0.881944,0.20245 z m 0.2202,-2.56628 c 0,-0.67909 0.0726,-0.95691 0.161336,-0.61736 0.08873,0.33955 0.08873,0.89518 0,1.23473 -0.08873,0.33954 -0.161336,0.0617 -0.161336,-0.61737 z m 137.176569,-1.26411 c 0.0169,-0.41097 0.10052,-0.49456 0.21313,-0.21314 0.10191,0.25466 0.0894,0.55893 -0.0278,0.67616 -0.11722,0.11722 -0.2006,-0.0911 -0.18529,-0.46302 z m -153.448597,-4.9095 c -0.0128,-0.19402 0.67273,-2.49591 1.523401,-5.11528 2.792476,-8.59858 6.989703,-17.37656 11.769842,-24.61517 1.448463,-2.19341 2.701883,-3.91971 2.785378,-3.83621 0.0835,0.0835 -1.105856,2.05527 -2.643008,4.38172 -4.660328,7.05333 -8.523341,15.15171 -11.733894,24.59882 -0.923149,2.7164 -1.688919,4.78015 -1.701719,4.58612 z m 20.247128,-10.75973 c 0.119916,-0.19403 0.288036,-0.35278 0.373599,-0.35278 0.08556,0 0.155568,0.15875 0.155568,0.35278 0,0.19403 -0.16812,0.35278 -0.373599,0.35278 -0.205479,0 -0.275484,-0.15875 -0.155568,-0.35278 z m 4.91102,-11.16709 c 0.11234,-0.29276 0.20426,-0.66107 0.20426,-0.81846 0,-0.72521 0.91656,-0.56807 0.97744,0.16758 0.0453,0.54714 -0.16511,0.8639 -0.65973,0.99324 -0.5438,0.14221 -0.67491,0.0562 -0.52197,-0.34236 z M 155.2283,101.08454 c -0.46013,-0.46013 -0.24099,-0.90539 0.33653,-0.68377 0.48757,0.1871 0.50756,0.13605 0.12649,-0.32311 -0.3824,-0.460768 -0.3601,-0.509838 0.14381,-0.316468 0.32801,0.12587 0.5489,0.473538 0.49087,0.772588 -0.11871,0.61175 -0.73001,0.91846 -1.0977,0.55076 z m -4.25414,-2.427058 c -0.10977,-0.28605 -0.0273,-0.5201 0.18325,-0.5201 0.21419,0 0.31132,-0.37409 0.22049,-0.84924 -0.14922,-0.78061 -0.0947,-0.81843 0.67444,-0.46798 0.52033,0.23707 0.68819,0.4731 0.44386,0.6241 -0.21611,0.13356 -0.37369,0.34982 -0.35019,0.48058 0.0235,0.13075 -0.18565,0.46611 -0.46477,0.74524 -0.44148,0.44148 -0.53346,0.43984 -0.70708,-0.0126 z m -1.01992,-1.13746 c -0.0738,-0.14552 -0.16241,-0.72043 -0.1968,-1.27758 -0.05,-0.81043 0.0321,-0.9345 0.4105,-0.62043 0.26016,0.21592 0.56672,0.29888 0.68124,0.18436 0.11453,-0.11452 0.12109,0.12498 0.0146,0.53223 -0.1065,0.40724 -0.34324,0.74045 -0.52609,0.74045 -0.18285,0 -0.23434,0.15875 -0.11442,0.35277 0.11992,0.19403 0.13865,0.35278 0.0416,0.35278 -0.097,0 -0.23681,-0.11906 -0.31067,-0.26458 z m 10.83017,-4.7625 -1.03614,-1.14653 1.14652,1.03614 c 0.63059,0.56988 1.14653,1.08581 1.14653,1.14653 0,0.27254 -0.29109,0.0326 -1.25691,-1.03614 z m -88.701429,-1.99073 c 0,-0.17327 0.25111,-0.4114 0.55802,-0.52917 0.863,-0.33116 0.97702,-0.25936 0.50032,0.31504 -0.48671,0.58645 -1.05834,0.7021 -1.05834,0.21413 z m 85.663879,-0.99017 c -0.64548,-0.52384 -1.23974,-1.00009 -1.32059,-1.05834 -0.0808,-0.0582 -0.0808,-0.16942 0,-0.24705 0.0808,-0.0776 0.76876,0.39862 1.52869,1.05833 1.63929,1.42311 1.4776,1.61508 -0.2081,0.24706 z m -3.99582,-3.43477 c -1.16416,-1.03792 -2.60347,-2.18197 -3.19845,-2.54233 -2.08778,-1.26449 -6.7986,-4.84007 -5.42583,-4.11829 2.32404,1.22194 11.67669,8.54402 10.91734,8.54705 -0.097,3.9e-4 -1.12889,-0.84851 -2.29306,-1.88643 z m -22.75739,-3.8992 c 0.44063,-0.53093 1.06156,-0.41785 1.06156,0.19333 0,0.18257 -0.33694,0.33195 -0.74875,0.33195 -0.6231,0 -0.67559,-0.0881 -0.31281,-0.52528 z m 11.99767,-3.70805 c -0.31795,-0.20548 -0.36147,-0.34413 -0.10901,-0.34738 0.23108,-0.003 0.51826,0.15335 0.63818,0.34738 0.27068,0.43798 0.14856,0.43798 -0.52917,0 z m -2.82222,-1.41111 c -0.48507,-0.37943 -1.06095,-0.693397 -1.27972,-0.697712 -0.21878,-0.0043 -0.59665,-0.247467 -0.83971,-0.540339 -0.35661,-0.429682 -0.17266,-0.411938 0.95269,0.0919 1.89519,0.848501 3.25548,1.811711 2.57785,1.825361 -0.29104,0.006 -0.92604,-0.29978 -1.41111,-0.67921 z m -3.52778,-2.018782 c -0.29104,-0.109554 -0.90837,-0.339588 -1.37184,-0.511185 -0.46348,-0.171598 -0.76566,-0.389013 -0.67153,-0.483146 0.19226,-0.192256 2.74893,0.809948 2.74893,1.077569 0,0.09441 -0.0397,0.159122 -0.0882,0.143804 -0.0485,-0.01532 -0.32632,-0.117487 -0.61736,-0.227042 z m -3.52778,-1.508997 c -0.29104,-0.188085 -0.37041,-0.341973 -0.17639,-0.341973 0.19403,0 0.59091,0.153888 0.88195,0.341973 0.29104,0.188086 0.37041,0.341974 0.17639,0.341974 -0.19403,0 -0.59091,-0.153888 -0.88195,-0.341974 z m -3.0868,-1.2315 c -1.30166,-0.565753 -1.55652,-1.060644 -0.35278,-0.685031 0.91845,0.286592 2.35131,1.217651 1.84238,1.197167 -0.18869,-0.0076 -0.85901,-0.238056 -1.4896,-0.512136 z m -16.66875,-0.885166 c 0,-0.194028 0.15875,-0.352778 0.35277,-0.352778 0.19403,0 0.35278,0.15875 0.35278,0.352778 0,0.194027 -0.15875,0.352777 -0.35278,0.352777 -0.19402,0 -0.35277,-0.15875 -0.35277,-0.352777 z m 13.05277,-0.352778 c -0.29104,-0.188086 -0.37041,-0.341974 -0.17638,-0.341974 0.19402,0 0.5909,0.153888 0.88194,0.341974 0.29104,0.188085 0.37042,0.341973 0.17639,0.341973 -0.19403,0 -0.5909,-0.153888 -0.88195,-0.341973 z m -2.88836,-0.946543 c 0.25466,-0.101908 0.55893,-0.08937 0.67615,0.02785 0.11723,0.117225 -0.0911,0.200603 -0.46302,0.185285 -0.41096,-0.01693 -0.49456,-0.10052 -0.21313,-0.213135 z m -3.63803,-0.829076 c -1.35819,-0.349939 -2.15194,-0.647322 -1.76388,-0.660852 0.79569,-0.02774 4.37632,0.87437 4.6814,1.179444 0.27499,0.274992 -0.0875,0.210556 -2.91752,-0.518592 z m -3.79236,-0.927464 c 0.24254,-0.09786 0.63941,-0.09786 0.88195,0 0.24253,0.09787 0.0441,0.177936 -0.44097,0.177936 -0.48507,0 -0.68351,-0.08007 -0.44098,-0.177936 z M 99.952431,253.7124 c 0,-0.19403 -0.15875,-0.35278 -0.35278,-0.35278 -0.19403,0 -0.35278,0.15875 -0.35278,0.35278 0,0.19402 0.15875,0.35277 0.35278,0.35277 0.19403,0 0.35278,-0.15875 0.35278,-0.35277 z m 8.208799,-0.2314 c -0.23884,-0.0966 -0.71509,-0.10252 -1.05834,-0.0131 -0.34324,0.0894 -0.14782,0.16851 0.43426,0.1757 0.58209,0.007 0.86292,-0.066 0.62408,-0.16263 z m -21.967129,-2.59083 c 0,-0.19402 -0.07,-0.35277 -0.15557,-0.35277 -0.0856,0 -0.25368,0.15875 -0.3736,0.35277 -0.11992,0.19403 -0.0499,0.35278 0.15557,0.35278 0.20548,0 0.3736,-0.15875 0.3736,-0.35278 z m -3.2044,-0.57596 c 0.0808,-0.0713 -0.51447,-0.14943 -1.32292,-0.17369 -0.80845,-0.0243 -1.66834,-0.0742 -1.91088,-0.11108 -0.8962,-0.13612 -1.10971,0.30967 -0.26103,0.54501 0.80343,0.22279 3.14468,0.0485 3.49483,-0.26024 z m 1.34496,0.36283 c -0.11722,-0.11723 -0.4215,-0.12976 -0.67615,-0.0278 -0.28143,0.11262 -0.19784,0.19621 0.21313,0.21314 0.37189,0.0153 0.58025,-0.0681 0.46302,-0.18529 z m -1.31556,-1.92435 c 0,-0.18258 -0.15875,-0.33196 -0.35278,-0.33196 -0.19403,0 -0.35278,0.24749 -0.35278,0.54999 0,0.30249 0.15875,0.45187 0.35278,0.33195 0.19403,-0.11991 0.35278,-0.36741 0.35278,-0.54998 z m -9.97333,-3.36732 c -0.11722,-0.11722 -0.42149,-0.12976 -0.67615,-0.0278 -0.28143,0.11261 -0.19784,0.1962 0.21313,0.21313 0.37189,0.0153 0.58025,-0.0681 0.46302,-0.18529 z m -2.11666,-0.70556 c -0.11723,-0.11722 -0.4215,-0.12975 -0.67616,-0.0278 -0.28142,0.11261 -0.19783,0.19621 0.21314,0.21313 0.37188,0.0153 0.58024,-0.0681 0.46302,-0.18528 z m -1.15425,-0.86957 c -0.33174,-0.53676 -0.86177,-0.3728 -0.64245,0.19874 0.11126,0.28993 0.34699,0.43771 0.52385,0.3284 0.17686,-0.1093 0.23023,-0.34652 0.1186,-0.52714 z m 6.18868,-2.26868 c -0.24154,-0.29104 -0.69754,-0.51075 -1.01333,-0.48824 -0.40737,0.029 -0.36919,0.0941 0.13138,0.22394 l 0.70556,0.18302 -0.70556,0.28043 c -0.60354,0.23989 -0.55904,0.28401 0.30778,0.30522 0.86183,0.0211 0.94768,-0.0543 0.57417,-0.50437 z m -3.40604,-2.13188 c -0.1149,-0.29941 -0.28456,-0.46872 -0.37703,-0.37625 -0.0925,0.0925 -0.0635,0.33745 0.0644,0.54438 0.34785,0.56285 0.55117,0.4535 0.31263,-0.16813 z m -6.93631,-0.5801 c -0.11261,-0.28142 -0.19621,-0.19783 -0.21313,0.21314 -0.0153,0.37189 0.0681,0.58025 0.18528,0.46302 0.11723,-0.11722 0.12976,-0.4215 0.0278,-0.67616 z m 93.421519,-13.33941 c 0.11992,-0.19402 0.0499,-0.35277 -0.15557,-0.35277 -0.20548,0 -0.3736,0.15875 -0.3736,0.35277 0,0.19403 0.07,0.35278 0.15557,0.35278 0.0856,0 0.25368,-0.15875 0.3736,-0.35278 z m 11.28491,-1.63093 c 0.33348,-0.50896 0.43197,-0.81762 0.21886,-0.68591 -0.40725,0.25169 -1.22861,1.61129 -0.97342,1.61129 0.0815,0 0.42108,-0.41642 0.75456,-0.92538 z m 6.97091,-11.42185 c 3.86616,-7.30046 6.47918,-14.64608 8.58383,-24.13052 1.26635,-5.70672 0.98313,-5.73191 -0.39073,-0.0348 -2.21196,9.17261 -5.49637,17.97271 -9.67711,25.92841 -1.17234,2.2309 -2.13153,4.13306 -2.13153,4.22702 0,0.4165 1.81656,-2.59314 3.61554,-5.99016 z M 48.094091,209.55638 c 0,-0.16169 -0.23812,-0.29399 -0.52916,-0.29399 -0.29104,0 -0.52917,0.1323 -0.52917,0.29399 0,0.16169 0.23813,0.29398 0.52917,0.29398 0.29104,0 0.52916,-0.13229 0.52916,-0.29398 z M 45.86783,199.12003 c -0.08873,-0.33955 -0.161336,-0.0617 -0.161336,0.61736 0,0.6791 0.0726,0.95691 0.161336,0.61737 0.08873,-0.33955 0.08873,-0.89518 0,-1.23473 z m 4.231141,-0.85989 c -0.11262,-0.28142 -0.19621,-0.19783 -0.21314,0.21314 -0.0153,0.37188 0.0681,0.58024 0.18529,0.46302 0.11722,-0.11723 0.12976,-0.4215 0.0278,-0.67616 z m 74.547909,-1.50054 c 0,-0.0856 -0.15875,-0.25368 -0.35278,-0.37359 -0.19403,-0.11992 -0.35278,-0.0499 -0.35278,0.15556 0,0.20548 0.15875,0.3736 0.35278,0.3736 0.19403,0 0.35278,-0.07 0.35278,-0.15557 z m 49.43266,-0.99684 c -0.34841,-0.34581 -0.38893,-0.30529 -0.19748,0.19749 0.13248,0.34791 0.32974,0.54371 0.43835,0.43509 0.10862,-0.10862 2.3e-4,-0.39327 -0.24087,-0.63258 z M 42.273261,193.38739 c 0.119916,-0.19402 0.04991,-0.35277 -0.155568,-0.35277 -0.205479,0 -0.373599,0.15875 -0.373599,0.35277 0,0.19403 0.07001,0.35278 0.155568,0.35278 0.08556,0 0.253683,-0.15875 0.373599,-0.35278 z m 81.668059,-2.89481 c 0,-0.58905 -0.81609,-0.0942 -0.91099,0.55238 -0.0729,0.49643 0.008,0.5362 0.41015,0.20226 0.27546,-0.22862 0.50084,-0.5682 0.50084,-0.75464 z m 49.74167,0.0726 c 0,-0.19403 -0.07,-0.35278 -0.15557,-0.35278 -0.0856,0 -0.25368,0.15875 -0.3736,0.35278 -0.11991,0.19403 -0.0499,0.35278 0.15557,0.35278 0.20548,0 0.3736,-0.15875 0.3736,-0.35278 z M 41.871669,187.91934 c 0.111683,-0.29104 0.04929,-0.52917 -0.138645,-0.52917 -0.187939,0 -0.341708,0.23813 -0.341708,0.52917 0,0.29104 0.06239,0.52916 0.138646,0.52916 0.07626,0 0.230021,-0.23812 0.341707,-0.52916 z m 75.601181,-0.72927 c 0.11668,-0.30408 0.053,-0.71208 -0.14162,-0.90665 -0.23651,-0.23651 -0.41122,-0.0533 -0.52708,0.55288 -0.18801,0.98346 0.32327,1.25394 0.6687,0.35377 z m 2.94069,0.0237 c 0.35968,-0.43339 0.33558,-0.52916 -0.13319,-0.52916 -0.3148,0 -0.57236,0.23812 -0.57236,0.52916 0,0.29104 0.0599,0.52917 0.13319,0.52917 0.0733,0 0.33082,-0.23813 0.57236,-0.52917 z m 52.10281,-0.78703 c -0.0894,-0.34325 -0.16851,-0.14783 -0.1757,0.43425 -0.007,0.58209 0.066,0.86292 0.16263,0.62408 0.0966,-0.23884 0.10251,-0.71509 0.0131,-1.05833 z m -124.870579,0.0447 c -0.11723,-0.11723 -0.4215,-0.12976 -0.67616,-0.0278 -0.28142,0.11262 -0.19783,0.19621 0.21314,0.21314 0.37189,0.0153 0.58025,-0.0681 0.46302,-0.18529 z m 95.583979,-0.3063 c -0.0629,-0.18868 -0.49946,-0.45845 -0.97014,-0.59949 -0.47968,-0.14374 -0.0806,-0.17839 0.9081,-0.0788 1.35253,0.1362 1.62305,0.0886 1.15997,-0.20426 -0.33215,-0.21003 -1.87997,-0.48028 -3.43958,-0.60055 -2.54744,-0.19644 -2.83567,-0.156 -2.83567,0.39788 0,0.51902 0.25114,0.59149 1.5875,0.45813 1.44672,-0.14438 1.71549,-0.0158 1.65867,0.79379 -0.007,0.097 0.45065,0.17639 1.01656,0.17639 0.56592,0 0.97748,-0.15438 0.91459,-0.34305 z m -28.5489,-0.74473 c -0.33618,-0.33619 -1.01017,0.20835 -0.75963,0.61372 0.14891,0.24095 0.34623,0.23487 0.59959,-0.0185 0.2077,-0.2077 0.27972,-0.47556 0.16004,-0.59523 z m 36.07158,0.55861 c 0,-0.19403 -0.35719,-0.35035 -0.79375,-0.34738 -0.64186,0.004 -0.69249,0.0708 -0.26458,0.34738 0.68395,0.442 1.05833,0.442 1.05833,0 z m 3.175,0.0382 c 0,-0.17299 -0.38212,-0.41044 -0.84917,-0.52766 -0.46704,-0.11722 -1.14173,-0.3016 -1.4993,-0.40973 -0.35758,-0.10812 -0.0945,0.11214 0.58458,0.48948 1.4344,0.79703 1.76389,0.8807 1.76389,0.44791 z M 42.802428,184.84524 c 0,-0.19403 -0.251108,-0.25642 -0.558021,-0.13865 -0.306909,0.11778 -0.633779,0.21414 -0.726373,0.21414 -0.0926,0 -0.07453,0.15181 0.04015,0.33737 0.253121,0.40956 1.244244,0.0807 1.244244,-0.41286 z m 131.846812,-5.12799 c -0.07,-1.11566 -0.12729,-0.20284 -0.12729,2.02848 0,2.23132 0.0573,3.14413 0.12729,2.02847 0.07,-1.11566 0.07,-2.94129 0,-4.05695 z m -59.70375,4.8507 c -0.11992,-0.19403 0.0294,-0.35278 0.33195,-0.35278 0.51924,0 0.77511,-1.0684 0.35621,-1.4873 -0.26385,-0.26385 -1.9167,0.52744 -1.92013,0.91924 -0.001,0.17264 0.27506,0.52478 0.6146,0.78253 0.74903,0.56859 0.90487,0.60351 0.61737,0.13831 z m -8.64306,-0.68474 c 0,-0.61117 -0.62092,-0.72425 -1.06156,-0.19332 -0.36278,0.43713 -0.31029,0.52528 0.31281,0.52528 0.41181,0 0.74875,-0.14938 0.74875,-0.33196 z m -57.149999,-0.99096 c 0,-0.24253 -0.3799,-0.44097 -0.8442,-0.44097 -0.46432,0 -0.92035,0.19844 -1.01342,0.44097 -0.11118,0.28972 0.1784,0.44098 0.8442,0.44098 0.57555,0 1.01342,-0.19053 1.01342,-0.44098 z m -4.586114,-0.24376 c 0,-0.0856 -0.15875,-0.25368 -0.352778,-0.3736 -0.194028,-0.11991 -0.352778,-0.0499 -0.352778,0.15557 0,0.20548 0.15875,0.3736 0.352778,0.3736 0.194028,0 0.352778,-0.07 0.352778,-0.15557 z m 9.172224,-0.19721 c 0,-0.19403 -0.23813,-0.35278 -0.52917,-0.35278 -0.29104,0 -0.52917,0.15875 -0.52917,0.35278 0,0.19403 0.23813,0.35278 0.52917,0.35278 0.29104,0 0.52917,-0.15875 0.52917,-0.35278 z m 4.98389,-1.64525 c 0.44288,-0.53688 0.40895,-0.54784 -0.39778,-0.12861 -1.18267,0.6146 -1.2717,0.71553 -0.63116,0.71553 0.29962,0 0.76264,-0.26412 1.02894,-0.58692 z m -3.22,-0.33277 c 0,-0.0763 -0.23813,-0.13864 -0.52917,-0.13864 -0.29104,0 -0.52917,0.15376 -0.52917,0.3417 0,0.18794 0.23813,0.25033 0.52917,0.13865 0.29104,-0.11169 0.52917,-0.26545 0.52917,-0.34171 z m 9.525,0.21413 c 0,-0.19402 -0.2475,-0.35277 -0.54999,-0.35277 -0.30249,0 -0.45187,0.15875 -0.33196,0.35277 0.11992,0.19403 0.36741,0.35278 0.54999,0.35278 0.18258,0 0.33196,-0.15875 0.33196,-0.35278 z m 35.101389,-0.029 c 0.85028,-0.0539 0.90229,-0.0971 0.26458,-0.21998 -0.436559,-0.0841 -0.793749,-0.29666 -0.793749,-0.47239 0,-0.17873 -0.42746,-0.15674 -0.97014,0.0499 -0.55455,0.21118 -3.38807,0.34559 -6.61458,0.31376 -3.10445,-0.0306 -6.1207,-0.0211 -6.70278,0.0211 -1.05086,0.0762 -1.04962,0.0783 0.17639,0.29487 1.07637,0.19016 11.69573,0.19942 14.640279,0.0128 z m -51.127029,-1.21331 c -0.37389,-0.28286 -0.76617,-0.42793 -0.87173,-0.32237 -0.22143,0.22143 0.67455,0.85114 1.19876,0.84249 0.19402,-0.003 0.0469,-0.23725 -0.32703,-0.52012 z m 5.08953,-0.56273 c 0,-0.36542 -0.24311,-0.66441 -0.54024,-0.66441 -0.29713,0 -0.63127,-0.23722 -0.74252,-0.52714 -0.11126,-0.28993 -0.3444,-0.43931 -0.5181,-0.33196 -0.17369,0.10735 -0.31581,7.1e-4 -0.31581,-0.23721 0,-0.23782 -0.079,-0.35336 -0.17563,-0.25677 -0.0966,0.0966 0.0968,0.81351 0.42974,1.59314 0.44968,1.05298 0.76703,1.37525 1.23396,1.25314 0.34573,-0.0904 0.6286,-0.46337 0.6286,-0.82879 z m 22.04861,0.39392 c 0.12158,-0.19672 -0.14232,-0.35039 -0.59654,-0.34737 -0.65534,0.004 -0.71113,0.0722 -0.28541,0.34737 0.65643,0.42422 0.61977,0.42422 0.88195,0 z m -63.676398,-1.19152 c 0,-0.0733 -0.27781,-0.35106 -0.61736,-0.61736 -0.55952,-0.43881 -0.572,-0.42633 -0.13319,0.1332 0.46086,0.58764 0.75055,0.77451 0.75055,0.48416 z m 53.269448,-0.57236 c 0,-0.19402 -0.16812,-0.35277 -0.3736,-0.35277 -0.20547,0 -0.27548,0.15875 -0.15556,0.35277 0.11991,0.19403 0.28803,0.35278 0.3736,0.35278 0.0856,0 0.15556,-0.15875 0.15556,-0.35278 z m 10.58334,-0.35277 c 0,-0.39198 -0.23519,-0.70556 -0.52917,-0.70556 -0.53707,0 -0.72364,0.74627 -0.29398,1.17592 0.44725,0.44725 0.82315,0.23245 0.82315,-0.47036 z m -26.10556,-0.54999 c 0,-0.27959 -0.15875,-0.50835 -0.35278,-0.50835 -0.19403,0 -0.35278,0.32687 -0.35278,0.72638 0,0.39951 0.15875,0.62826 0.35278,0.50834 0.19403,-0.11991 0.35278,-0.44678 0.35278,-0.72637 z m 21.16667,0.54999 c 0,-0.19403 -0.07,-0.35278 -0.15557,-0.35278 -0.0856,0 -0.25368,0.15875 -0.3736,0.35278 -0.11991,0.19402 -0.0499,0.35277 0.15557,0.35277 0.20548,0 0.3736,-0.15875 0.3736,-0.35277 z m 103.252099,-0.77171 c -0.11261,-0.28142 -0.19621,-0.19783 -0.21313,0.21314 -0.0153,0.37189 0.0681,0.58025 0.18528,0.46302 0.11723,-0.11722 0.12976,-0.4215 0.0278,-0.67616 z M 70.795111,175.91359 c -0.12913,-0.3365 0.0307,-0.52762 0.45638,-0.54572 0.39173,-0.0166 0.47305,-0.10097 0.20227,-0.20974 -0.62665,-0.2517 -1.48716,0.53339 -1.25312,1.14331 0.10581,0.27574 0.32757,0.4178 0.49279,0.31568 0.16522,-0.10211 0.21098,-0.4187 0.10168,-0.70353 z m 117.242169,-1.84078 c -0.0887,-0.33955 -0.16133,-0.0617 -0.16133,0.61736 0,0.6791 0.0726,0.95691 0.16133,0.61736 0.0887,-0.33955 0.0887,-0.89517 0,-1.23472 z m -48.22096,-0.92901 c 0,-0.0744 -0.39687,-0.21113 -0.88194,-0.30386 -0.48507,-0.0927 -0.88195,-0.0319 -0.88195,0.13526 0,0.16712 0.39688,0.30386 0.88195,0.30386 0.48507,0 0.88194,-0.0609 0.88194,-0.13526 z m 41.39674,-0.40912 c -0.1149,-0.29941 -0.28456,-0.46872 -0.37703,-0.37625 -0.0925,0.0925 -0.0635,0.33745 0.0644,0.54438 0.34785,0.56284 0.55117,0.4535 0.31263,-0.16813 z m -5.99572,-0.67904 c 0.1093,-0.28483 0.0469,-0.6117 -0.13865,-0.72638 -0.18555,-0.11468 -0.33737,0.11836 -0.33737,0.51787 0,0.8518 0.19619,0.93774 0.47602,0.20851 z m 3.12232,0.0945 c -0.32926,-0.32926 -0.51741,-0.32926 -0.84667,0 -0.32926,0.32926 -0.23519,0.42333 0.42333,0.42333 0.65852,0 0.75259,-0.0941 0.42334,-0.42333 z m 3.10444,-1.90275 c 0,-0.3092 0.3175,-0.64522 0.70556,-0.7467 0.38805,-0.10148 0.70555,-0.47956 0.70555,-0.84018 0,-0.56761 -0.12877,-0.60673 -0.95858,-0.29123 -0.52722,0.20044 -1.14115,0.51597 -1.3643,0.70117 -0.26812,0.22252 -0.55591,0.15577 -0.84851,-0.19679 -0.37267,-0.44904 -0.31824,-0.53352 0.34372,-0.53352 0.52326,0 0.72405,-0.16272 0.59993,-0.48618 -0.10261,-0.2674 -0.0296,-0.64319 0.16235,-0.8351 0.23005,-0.23005 0.16056,-0.42121 -0.20395,-0.56108 -0.34732,-0.13328 -0.55288,-0.0195 -0.55288,0.30593 0,0.28495 -0.15875,0.5181 -0.35278,0.5181 -0.19403,0 -0.35278,-0.15875 -0.35278,-0.35278 0,-0.19403 -0.15875,-0.35278 -0.35277,-0.35278 -0.19403,0 -0.35278,0.2163 -0.35278,0.48066 0,0.31291 -0.33266,0.44413 -0.95324,0.37601 -1.19022,-0.13065 -1.54246,0.0755 -1.28321,0.75113 0.15213,0.39647 0.31893,0.42998 0.67388,0.1354 0.36117,-0.29975 0.80616,-0.1227 1.89908,0.75559 0.78506,0.63089 1.42738,1.27926 1.42738,1.44081 0,0.16155 0.23812,0.29374 0.52916,0.29374 0.29105,0 0.52917,-0.25299 0.52917,-0.5622 z M 9.975883,166.41849 c 0.97761,-2.15955 1.01919,-2.36919 0.34991,-1.76389 -1.11015,1.00401 -2.09889,3.13351 -2.07323,4.46524 0.0185,0.95964 0.0736,1.03842 0.31811,0.45502 0.16266,-0.38805 0.79501,-1.80842 1.40521,-3.15637 z m 167.537127,3.37146 c 0.57037,-0.36141 0.26836,-0.57673 -1.27238,-0.90719 -1.23225,-0.26429 -1.40199,-0.0974 -0.70556,0.69357 0.50344,0.57181 1.28025,0.6557 1.97794,0.21362 z m -25.54566,-3.75253 c 2.50437,-0.65231 3.83978,-1.2732 3.77297,-1.75422 -0.0269,-0.19403 -0.69392,-0.56776 -1.48216,-0.8305 -0.78823,-0.26275 -1.36862,-0.54225 -1.28975,-0.62113 0.0789,-0.0789 0.82793,0.0981 1.66458,0.39329 0.83664,0.29519 1.60488,0.45299 1.7072,0.35067 0.74036,-0.74036 -3.55324,-1.9417 -7.52804,-2.10633 -2.36541,-0.098 -2.72523,-0.0632 -1.41111,0.13639 1.43013,0.21721 1.06299,0.26812 -1.94027,0.26904 -2.0373,7e-4 -4.54535,0.1222 -5.57346,0.27018 l -1.86929,0.26905 0.1054,1.81661 0.1054,1.81661 1.94028,0.43164 c 2.44476,0.54387 8.95014,0.30054 11.79825,-0.4413 z m -0.59756,-3.57536 c 0.24254,-0.0979 0.63941,-0.0979 0.88195,0 0.24253,0.0979 0.0441,0.17794 -0.44097,0.17794 -0.48507,0 -0.68351,-0.0801 -0.44098,-0.17794 z m -1.76389,-0.35278 c 0.24254,-0.0979 0.63941,-0.0979 0.88195,0 0.24253,0.0979 0.0441,0.17794 -0.44097,0.17794 -0.48507,0 -0.68351,-0.0801 -0.44098,-0.17794 z m 27.70708,3.40864 c -0.10148,-0.38806 -0.24536,-0.70556 -0.31975,-0.70556 -0.0744,0 -0.13524,0.3175 -0.13524,0.70556 0,0.38805 0.14389,0.70555 0.31975,0.70555 0.17586,0 0.23672,-0.3175 0.13524,-0.70555 z m 4.37211,-0.0662 c -0.11262,-0.28142 -0.19621,-0.19783 -0.21314,0.21314 -0.0153,0.37188 0.0681,0.58025 0.18529,0.46302 0.11722,-0.11722 0.12975,-0.4215 0.0278,-0.67616 z m -1.2326,-1.49593 c -0.0603,-0.33381 0.0665,-0.81915 0.28171,-1.07852 0.52663,-0.63455 -0.034,-0.9312 -0.75864,-0.40137 -0.65428,0.47842 -0.48525,2.46355 0.18957,2.22637 0.21836,-0.0768 0.34768,-0.41266 0.28736,-0.74648 z m -4.30006,-1.08376 c -0.24154,-0.29104 -0.61817,-0.52411 -0.83694,-0.51794 -0.21878,0.006 -0.0896,0.24429 0.28701,0.52916 0.87971,0.66538 1.1076,0.66073 0.54993,-0.0112 z m 1.15162,-1.4456 c 0.53317,-0.53316 -0.20585,-1.18587 -1.1002,-0.9717 -1.16245,0.27836 -1.23567,0.34065 -0.94787,0.80633 0.24779,0.40094 1.6956,0.51784 2.04807,0.16537 z m -10.78621,-3.2287 c -0.0887,-0.33955 -0.16134,-0.0617 -0.16134,0.61736 0,0.6791 0.0726,0.95691 0.16134,0.61736 0.0887,-0.33955 0.0887,-0.89517 0,-1.23472 z m 8.22348,1.32292 c 0,-0.19403 -0.16812,-0.35278 -0.3736,-0.35278 -0.20548,0 -0.27548,0.15875 -0.15556,0.35278 0.11991,0.19402 0.28803,0.35277 0.37359,0.35277 0.0856,0 0.15557,-0.15875 0.15557,-0.35277 z M 64.762841,157.85123 c -0.82461,-0.0743 -2.17399,-0.0743 -2.99861,0 -0.82461,0.0743 -0.14993,0.13504 1.49931,0.13504 1.64923,0 2.32392,-0.0608 1.4993,-0.13504 z m 2.63849,0.0452 c -0.11723,-0.11723 -0.4215,-0.12976 -0.67616,-0.0278 -0.28142,0.11262 -0.19783,0.19621 0.21314,0.21314 0.37188,0.0153 0.58024,-0.0681 0.46302,-0.18529 z m 108.574709,-0.13964 c 0.11992,-0.19403 0.0593,-0.35278 -0.13475,-0.35278 -0.19402,0 -0.45088,0.15875 -0.5708,0.35278 -0.11992,0.19402 -0.0593,0.35277 0.13475,0.35277 0.19403,0 0.45089,-0.15875 0.5708,-0.35277 z m 2.11667,0 c 0.11992,-0.19403 0.0499,-0.35278 -0.15557,-0.35278 -0.20548,0 -0.3736,0.15875 -0.3736,0.35278 0,0.19402 0.07,0.35277 0.15557,0.35277 0.0856,0 0.25368,-0.15875 0.3736,-0.35277 z m -0.36489,-1.35825 c -0.19877,-0.20924 -0.86983,0.32108 -0.86983,0.68742 0,0.19023 0.22211,0.14117 0.49358,-0.10901 0.27148,-0.25019 0.44079,-0.51047 0.37625,-0.57841 z m -3.56881,-0.24055 c -0.27984,-0.72923 -0.47602,-0.6433 -0.47602,0.20851 0,0.3995 0.15182,0.63254 0.33737,0.51786 0.18555,-0.11467 0.24794,-0.44154 0.13865,-0.72637 z M 45.977428,155.99295 c 0,-0.19403 -0.15875,-0.35278 -0.352778,-0.35278 -0.194028,0 -0.352778,0.15875 -0.352778,0.35278 0,0.19403 0.15875,0.35278 0.352778,0.35278 0.194028,0 0.352778,-0.15875 0.352778,-0.35278 z M 181.4441,154.93461 c 0,-0.19402 -0.27781,-0.35034 -0.61736,-0.34737 -0.5276,0.005 -0.54042,0.0551 -0.0882,0.34737 0.66577,0.43026 0.70556,0.43026 0.70556,0 z m -3.88056,-0.39916 c 0,-0.37809 -1.41976,-1.12089 -1.66798,-0.87267 -0.30298,0.30298 0.53277,1.15424 1.13322,1.15424 0.29412,0 0.53476,-0.1267 0.53476,-0.28157 z m -11.75345,-1.07809 c -0.11262,-0.28142 -0.19621,-0.19783 -0.21314,0.21314 -0.0153,0.37188 0.0681,0.58024 0.18529,0.46302 0.11722,-0.11723 0.12975,-0.4215 0.0278,-0.67616 z m 10.56404,-1.05854 c -0.31596,-0.17682 -0.57447,-0.71984 -0.57447,-1.20672 0,-0.50033 -0.1534,-0.79044 -0.35278,-0.66721 -0.19403,0.11992 -0.35278,0.47397 -0.35278,0.7868 0,0.7545 1.05951,1.89995 1.50356,1.62551 0.20304,-0.12549 0.10884,-0.35237 -0.22353,-0.53838 z m -154.857507,-0.7274 c -0.0979,-0.24254 -0.17794,-0.0441 -0.17794,0.44097 0,0.48507 0.0801,0.68351 0.17794,0.44097 0.0979,-0.24253 0.0979,-0.63941 0,-0.88194 z m -6.644,-2.95491 c 1.58345,-14.50185 8.77784,-34.37212 17.16352,-47.40413 2.768265,-4.302098 2.72759,-4.233328 2.503791,-4.233328 -0.104634,0 -1.437516,1.86531 -2.961961,4.145128 -8.71393,13.0318 -14.79342,29.38522 -16.81963,45.24377 -0.30988,2.42534 -0.61347,4.76691 -0.67464,5.20347 -0.0612,0.43656 -7.7e-4,0.79375 0.1342,0.79375 0.13497,0 0.4296,-1.6869 0.65472,-3.74866 z m 164.454807,3.39588 c 0,-0.19403 -0.15875,-0.35278 -0.35277,-0.35278 -0.19403,0 -0.35278,0.15875 -0.35278,0.35278 0,0.19403 0.15875,0.35278 0.35278,0.35278 0.19402,0 0.35277,-0.15875 0.35277,-0.35278 z m -82.279089,-1.05833 c 0.24234,-0.38806 0.38451,-0.70556 0.31592,-0.70556 -0.0686,0 -0.41203,0.3175 -0.76322,0.70556 -0.35119,0.38805 -0.49335,0.70555 -0.31592,0.70555 0.17742,0 0.52087,-0.3175 0.76322,-0.70555 z m 82.506439,-0.88251 c 0.57589,-0.57589 0.53085,-1.62862 -0.0784,-1.83142 -0.45101,-0.15014 -1.30565,1.56387 -1.01459,2.03481 0.2775,0.44901 0.47784,0.41172 1.09295,-0.20339 z M 21.869403,148.8492 c -0.0979,-0.24254 -0.17794,-0.0441 -0.17794,0.44097 0,0.48507 0.0801,0.68351 0.17794,0.44097 0.0979,-0.24253 0.0979,-0.63941 0,-0.88194 z m 155.127227,0.23573 c 0.30039,-0.78279 0.31084,-0.77374 -0.67563,-0.58516 -0.70967,0.13566 -0.80804,0.26857 -0.48597,0.65663 0.52941,0.6379 0.8981,0.61522 1.1616,-0.0715 z m -2.25531,-0.85309 c 0,-0.19403 -0.16812,-0.35278 -0.3736,-0.35278 -0.20548,0 -0.27548,0.15875 -0.15556,0.35278 0.11991,0.19402 0.28803,0.35277 0.37359,0.35277 0.0856,0 0.15557,-0.15875 0.15557,-0.35277 z M 22.233013,146.21008 c -0.0894,-0.34324 -0.16851,-0.14783 -0.1757,0.43426 -0.007,0.58208 0.066,0.86291 0.16263,0.62407 0.0966,-0.23884 0.10251,-0.71509 0.0131,-1.05833 z m 104.272657,0.0265 c -0.23884,-0.0966 -0.71509,-0.10252 -1.05833,-0.0131 -0.34324,0.0894 -0.14783,0.16851 0.43426,0.17569 0.58208,0.007 0.86291,-0.066 0.62407,-0.16262 z m -84.05602,-0.82693 c 0,-0.19402 -0.15875,-0.35277 -0.352778,-0.35277 -0.194028,0 -0.352778,0.15875 -0.352778,0.35277 0,0.19403 0.15875,0.35278 0.352778,0.35278 0.194028,0 0.352778,-0.15875 0.352778,-0.35278 z m 133.35001,-1.41111 c 0,-0.19403 -0.39688,-0.35278 -0.88195,-0.35278 -0.48507,0 -0.88194,0.15875 -0.88194,0.35278 0,0.19403 0.39687,0.35278 0.88194,0.35278 0.48507,0 0.88195,-0.15875 0.88195,-0.35278 z M 48.327731,141.08813 c -0.0979,-0.24254 -0.17794,-0.0441 -0.17794,0.44097 0,0.48507 0.0801,0.68351 0.17794,0.44097 0.0979,-0.24253 0.0979,-0.63941 0,-0.88194 z m 1.45709,-0.79882 c 0.63873,-2.38814 0.57661,-3.09901 -0.23293,-2.66575 -0.51153,0.27376 -0.66893,0.78928 -0.70388,2.30546 -0.0545,2.36427 0.35836,2.52305 0.93681,0.36029 z m -3.631004,-0.5241 c -0.119917,-0.19403 -0.367411,-0.35278 -0.549988,-0.35278 -0.182577,0 -0.331957,0.15875 -0.331957,0.35278 0,0.19403 0.247495,0.35278 0.549988,0.35278 0.302493,0 0.451873,-0.15875 0.331957,-0.35278 z m -2.05207,-1.12448 c -0.112614,-0.28142 -0.196208,-0.19783 -0.213134,0.21314 -0.01531,0.37188 0.06806,0.58024 0.185286,0.46302 0.117224,-0.11723 0.129755,-0.4215 0.02783,-0.67616 z m 132.121243,-0.35719 c -0.22637,-0.22636 -0.52868,-0.29446 -0.67182,-0.15133 -0.14314,0.14314 -0.0313,0.40174 0.24849,0.57467 0.65884,0.40718 0.95634,0.10968 0.42333,-0.42334 z m -0.24695,-2.04611 c 0.11992,-0.19403 0.0593,-0.35278 -0.13475,-0.35278 -0.19402,0 -0.45088,0.15875 -0.5708,0.35278 -0.11992,0.19403 -0.0593,0.35278 0.13475,0.35278 0.19403,0 0.45089,-0.15875 0.5708,-0.35278 z m -2.11916,-1.40707 c 0.12359,-0.19998 -0.018,-0.25912 -0.33196,-0.13865 -0.61116,0.23453 -0.72298,0.48739 -0.21553,0.48739 0.18258,0 0.42895,-0.15694 0.54749,-0.34874 z M 43.988336,133.23878 c -0.214701,-0.5595 -0.833131,-0.73407 -0.833131,-0.23519 0,0.37307 0.385618,0.76436 0.75328,0.76436 0.155599,0 0.191533,-0.23813 0.07985,-0.52917 z m 130.752984,-2.09586 c 0,-0.0856 -0.15875,-0.25368 -0.35278,-0.37359 -0.19402,-0.11992 -0.35277,-0.0499 -0.35277,0.15556 0,0.20548 0.15875,0.3736 0.35277,0.3736 0.19403,0 0.35278,-0.07 0.35278,-0.15557 z m -5.11528,-2.66665 c 0.11992,-0.19403 -0.0245,-0.35278 -0.32088,-0.35278 -0.3341,0 -0.46174,-0.20111 -0.33586,-0.52916 0.11169,-0.29105 0.0443,-0.52917 -0.14971,-0.52917 -0.54762,0 -0.77131,0.92696 -0.33015,1.36812 0.48942,0.48942 0.85222,0.50314 1.1366,0.043 z m 2.99862,-0.48597 c 0,-0.0733 -0.23813,-0.33082 -0.52917,-0.57236 -0.43339,-0.35969 -0.52917,-0.33558 -0.52917,0.13319 0,0.3148 0.23813,0.57236 0.52917,0.57236 0.29104,0 0.52917,-0.0599 0.52917,-0.13319 z M 45.865636,126.99901 c -0.112614,-0.28142 -0.196208,-0.19783 -0.213134,0.21314 -0.01531,0.37188 0.06806,0.58025 0.185286,0.46302 0.117224,-0.11723 0.129755,-0.4215 0.02783,-0.67616 z m 122.110584,-0.87476 c -0.17165,-0.88503 -0.99601,-1.00656 -0.99601,-0.14682 0,0.43333 0.22779,0.73495 0.55503,0.73495 0.32852,0 0.50849,-0.24002 0.44098,-0.58813 z m 2.1803,-1.35076 c -0.92931,-0.9892 -1.23653,-0.93806 -0.89169,0.14842 0.13832,0.43581 0.5332,0.73214 0.97565,0.73214 0.73342,0 0.73231,-0.0117 -0.084,-0.88056 z m -0.70686,-2.29444 c 0,-1.02172 -0.60396,-1.15957 -0.79111,-0.18057 -0.0914,0.47825 -0.0874,0.94833 0.009,1.04463 0.31998,0.31997 0.78225,-0.19065 0.78225,-0.86406 z m -3.52778,-1.25555 c 0,-0.30249 -0.15875,-0.45187 -0.35278,-0.33195 -0.19403,0.11991 -0.35278,0.36741 -0.35278,0.54998 0,0.18258 0.15875,0.33196 0.35278,0.33196 0.19403,0 0.35278,-0.24749 0.35278,-0.54999 z m 5.88543,-1.28004 c -0.11262,-0.28142 -0.19621,-0.19783 -0.21314,0.21313 -0.0153,0.37189 0.0681,0.58025 0.18529,0.46303 0.11722,-0.11723 0.12975,-0.4215 0.0278,-0.67616 z m -5.00349,-0.63941 c -0.11991,-0.19403 -0.44678,-0.35278 -0.72637,-0.35278 -0.2796,0 -0.50835,0.15875 -0.50835,0.35278 0,0.19402 0.32687,0.35277 0.72638,0.35277 0.3995,0 0.62826,-0.15875 0.50834,-0.35277 z m 0.77015,-2.53559 c -0.11261,-0.28142 -0.1962,-0.19783 -0.21313,0.21313 -0.0153,0.37189 0.0681,0.58025 0.18529,0.46303 0.11722,-0.11723 0.12975,-0.4215 0.0278,-0.67616 z m 1.54591,-1.03517 c 0.33166,-0.61972 0.27309,-0.87605 -0.34037,-1.48951 -0.64949,-0.64949 -0.74097,-0.66596 -0.74097,-0.13341 0,0.33416 0.19844,0.6201 0.44098,0.63542 0.35277,0.0223 0.35277,0.0634 0,0.20578 -0.51516,0.20787 -0.6021,1.53025 -0.10061,1.53025 0.1872,0 0.52064,-0.33684 0.74097,-0.74853 z m -3.55078,-0.3098 c 0,-0.19403 -0.07,-0.35278 -0.15557,-0.35278 -0.0856,0 -0.25368,0.15875 -0.3736,0.35278 -0.11991,0.19403 -0.0499,0.35278 0.15557,0.35278 0.20548,0 0.3736,-0.15875 0.3736,-0.35278 z M 54.091321,114.71794 c 0,-0.19403 -0.15875,-0.35278 -0.35278,-0.35278 -0.19403,0 -0.35278,0.15875 -0.35278,0.35278 0,0.19402 0.15875,0.35277 0.35278,0.35277 0.19403,0 0.35278,-0.15875 0.35278,-0.35277 z M 164.90654,114.3992 c -0.29908,-0.18944 -0.37484,-0.4928 -0.19686,-0.78835 0.23137,-0.38421 0.16643,-0.38068 -0.32428,0.0176 -0.48255,0.39167 -0.51585,0.56003 -0.15591,0.78835 0.25171,0.15968 0.61641,0.29032 0.81044,0.29032 0.19403,0 0.13401,-0.13857 -0.13339,-0.30793 z M 59.382981,112.05128 c 0,-0.58211 -0.55754,-0.68045 -0.88194,-0.15557 -0.2877,0.4655 0.13413,1.12609 0.55354,0.86688 0.18062,-0.11163 0.3284,-0.43172 0.3284,-0.71131 z m 106.409499,0.44045 c 0.33107,0.12704 0.42215,0.0108 0.28059,-0.35808 -0.11527,-0.30039 -0.43457,-0.45983 -0.70956,-0.35431 -0.27498,0.10553 -0.49997,-0.0156 -0.49997,-0.26922 0,-0.34341 -0.10197,-0.3591 -0.39962,-0.0615 -0.21979,0.21979 -0.29396,0.67496 -0.16482,1.01149 0.16933,0.44127 0.34192,0.50475 0.619,0.22767 0.21131,-0.21131 0.60478,-0.29956 0.87438,-0.1961 z m -3.13363,-0.33143 c -0.0808,-0.24254 -0.41093,-0.4922 -0.73372,-0.5548 -0.40926,-0.0794 -0.52246,0.0541 -0.37399,0.44097 0.25025,0.65217 1.32368,0.76247 1.10771,0.11383 z M 55.855211,110.4846 c 0,-0.19403 -0.15875,-0.35278 -0.35278,-0.35278 -0.19403,0 -0.35278,0.15875 -0.35278,0.35278 0,0.19403 0.15875,0.35278 0.35278,0.35278 0.19403,0 0.35278,-0.15875 0.35278,-0.35278 z m 103.577029,-3.43223 c -0.35861,-0.35861 -0.65449,0.18129 -0.36027,0.65736 0.22226,0.35962 0.30536,0.3599 0.42485,0.001 0.0817,-0.24511 0.0526,-0.54156 -0.0646,-0.65879 z m -101.107589,0.18216 c 0,-0.36812 -0.40887,-0.34296 -1.05389,0.0649 -0.41238,0.26073 -0.35574,0.31903 0.26459,0.2723 0.43411,-0.0327 0.7893,-0.18442 0.7893,-0.33716 z m 95.249999,-2.41519 c 0,-0.39951 -0.15875,-0.62827 -0.35277,-0.50835 -0.19403,0.11992 -0.35278,0.44679 -0.35278,0.72638 0,0.27959 0.15875,0.50834 0.35278,0.50834 0.19402,0 0.35277,-0.32687 0.35277,-0.72637 z m 6.84768,0.42456 c 0.10259,-0.166 -0.20554,-0.22687 -0.68474,-0.13527 -0.4792,0.0916 -0.87127,0.22742 -0.87127,0.30182 0,0.27296 1.37535,0.12574 1.55601,-0.16655 z m -11.08101,-2.28934 c 0,-0.067 -0.35719,-0.42413 -0.79375,-0.79375 l -0.79375,-0.67204 0.67204,0.79375 c 0.63155,0.74593 0.91546,0.95435 0.91546,0.67204 z m 0.35278,-0.71704 c 0,-0.0733 -0.27781,-0.35107 -0.61736,-0.61736 -0.55953,-0.43881 -0.57201,-0.42634 -0.1332,0.13319 0.46086,0.58764 0.75056,0.77452 0.75056,0.48417 z M 73.530711,95.563442 c -0.45278,-0.45278 -0.91195,-0.10283 -0.57673,0.43956 0.12985,0.2101 0.3977,0.28212 0.59523,0.16004 0.24095,-0.14892 0.23486,-0.34624 -0.0185,-0.5996 z m 69.392989,0.078 c -0.0695,-0.20858 -0.27722,-0.37924 -0.46155,-0.37924 -0.18432,0 -0.39202,0.17066 -0.46155,0.37924 -0.0695,0.20858 0.13817,0.37923 0.46155,0.37923 0.32338,0 0.53108,-0.17065 0.46155,-0.37923 z m -66.847149,-3.17664 c -0.18199,-0.18199 -0.34115,0.0905 -0.38046,0.65135 -0.0593,0.8461 -0.021,0.88443 0.31288,0.31288 0.22129,-0.37886 0.24957,-0.78225 0.0676,-0.96423 z m 62.681439,0.3698 c 0,-0.42233 -0.99506,-0.87536 -1.28526,-0.58515 -0.30894,0.30893 0.21507,0.949 0.77691,0.949 0.27959,0 0.50835,-0.16373 0.50835,-0.36385 z m -61.383339,-1.21258 c 0,-0.31471 -0.20694,-0.43868 -0.52714,-0.31581 -0.28993,0.11126 -0.43931,0.3444 -0.33196,0.51809 0.30784,0.4981 0.8591,0.3683 0.8591,-0.20228 z m 65.183049,-0.47409 c 0.078,-0.23401 -0.18477,-0.41892 -0.59532,-0.41892 -0.73283,0 -0.95247,0.37044 -0.49241,0.83049 0.32683,0.32684 0.91589,0.10396 1.08773,-0.41157 z m -10.75674,-5.72469 c -0.17099,-0.65387 -0.24308,-0.67 -0.7885,-0.17639 -0.84163,0.76166 -0.99486,0.68444 -0.84699,-0.42687 0.071,-0.53358 0.0257,-0.73202 -0.10065,-0.44097 -0.12635,0.29104 -0.44458,0.65611 -0.70717,0.81127 -0.92257,0.54514 -0.46188,0.95261 1.07703,0.95261 1.39094,0 1.53468,-0.0757 1.36628,-0.71965 z m -50.302569,-3.42548 c -0.0887,-0.33955 -0.16134,-0.0617 -0.16134,0.61736 0,0.67909 0.0726,0.95691 0.16134,0.61736 0.0887,-0.33955 0.0887,-0.89518 0,-1.23472 z m 45.794319,1.32291 c 0.11991,-0.19403 -0.0201,-0.35278 -0.31114,-0.35278 -0.29104,0 -0.62728,0.15875 -0.74719,0.35278 -0.11992,0.19403 0.0201,0.35278 0.31113,0.35278 0.29105,0 0.62728,-0.15875 0.7472,-0.35278 z m 1.23472,-1.05833 c 0,-0.19403 -0.15875,-0.35278 -0.35278,-0.35278 -0.19402,0 -0.35277,0.15875 -0.35277,0.35278 0,0.19403 0.15875,0.35278 0.35277,0.35278 0.19403,0 0.35278,-0.15875 0.35278,-0.35278 z m -45.282609,-3.70282 c -0.31218,-0.81351 -0.90478,-0.32901 -0.67453,0.55148 0.12686,0.48513 0.30824,0.6108 0.54289,0.37614 0.19381,-0.19381 0.25305,-0.61123 0.13164,-0.92762 z m 5.65971,0.46167 c -0.11262,-0.28142 -0.19621,-0.19783 -0.21314,0.21314 -0.0153,0.37189 0.0681,0.58024 0.18529,0.46302 0.11722,-0.11723 0.12975,-0.4215 0.0278,-0.67616 z m 25.992139,-1.87413 c -0.23407,-0.609974 0.32962,-0.686912 1.28532,-0.17543 0.44183,0.23645 0.73344,0.23645 0.87957,0 0.12024,-0.19456 0.0703,-0.353736 -0.11088,-0.353736 -0.18122,0 -0.82559,-0.09922 -1.43193,-0.220486 -0.95804,-0.191607 -1.10243,-0.122297 -1.10243,0.529162 0,0.41231 0.15377,0.74966 0.34171,0.74966 0.18793,0 0.25032,-0.23813 0.13864,-0.52917 z m -2.33956,-4.666437 c -0.0764,-0.731932 -0.14013,-0.219535 -0.1417,1.138659 -10e-4,1.358195 0.0609,1.957048 0.13885,1.330786 0.0779,-0.626263 0.0792,-1.737513 0.003,-2.469445 z M 98.710841,68.415852 c 0.18219,-0.434705 0.0959,-0.617361 -0.29159,-0.617361 -0.63621,0 -1.29383,2.012411 -1.26811,3.880556 0.0161,1.166379 0.0525,1.127326 0.65899,-0.705556 0.35308,-1.067153 0.75841,-2.21809 0.90071,-2.557639 z m 7.130509,2.652547 c -0.0894,-0.343241 -0.16851,-0.147825 -0.1757,0.434259 -0.007,0.582083 0.066,0.862917 0.16263,0.624075 0.0966,-0.238842 0.10251,-0.715092 0.0131,-1.058334 z M 51.798261,249.47906 c -0.11992,-0.19402 -0.0499,-0.35277 0.15557,-0.35277 0.20548,0 0.3736,0.15875 0.3736,0.35277 0,0.19403 -0.07,0.35278 -0.15557,0.35278 -0.0856,0 -0.25368,-0.15875 -0.3736,-0.35278 z m -1.83241,-1.57635 c -0.5444,-0.47894 -0.81905,-0.87581 -0.61033,-0.88194 0.20871,-0.006 0.75232,0.38572 1.20802,0.87079 1.06514,1.1338 0.68642,1.14086 -0.59769,0.0111 z M 117.1724,212.90196 c 0.25466,-0.1019 0.55893,-0.0894 0.67615,0.0278 0.11723,0.11722 -0.0911,0.2006 -0.46302,0.18528 -0.41097,-0.0169 -0.49456,-0.10052 -0.21313,-0.21313 z m 68.51584,-0.99373 c 0,-0.19403 0.15388,-0.5909 0.34197,-0.88195 0.18809,-0.29104 0.34197,-0.37041 0.34197,-0.17639 0,0.19403 -0.15388,0.59091 -0.34197,0.88195 -0.18809,0.29104 -0.34197,0.37042 -0.34197,0.17639 z m -47.86998,-4.7625 c 0,-1.45521 0.0623,-2.05052 0.13838,-1.32292 0.0761,0.72761 0.0761,1.91823 0,2.64583 -0.0761,0.72761 -0.13838,0.1323 -0.13838,-1.32291 z m 48.92831,2.29305 c 0,-0.19402 0.15389,-0.5909 0.34197,-0.88194 0.18809,-0.29104 0.34198,-0.37042 0.34198,-0.17639 0,0.19403 -0.15389,0.5909 -0.34198,0.88194 -0.18808,0.29105 -0.34197,0.37042 -0.34197,0.17639 z m 0.70556,-1.76389 c 0,-0.19402 0.15388,-0.5909 0.34197,-0.88194 0.18809,-0.29104 0.34197,-0.37042 0.34197,-0.17639 0,0.19403 -0.15388,0.5909 -0.34197,0.88195 -0.18809,0.29104 -0.34197,0.37041 -0.34197,0.17638 z m -87.16591,-3.61597 -1.215729,-1.32291 1.322909,1.21573 c 0.72761,0.66865 1.32292,1.26396 1.32292,1.32291 0,0.26939 -0.29853,0.0156 -1.4301,-1.21573 z m 88.9298,-0.97014 c 0,-0.19402 0.15388,-0.5909 0.34197,-0.88194 0.18809,-0.29104 0.34197,-0.37042 0.34197,-0.17639 0,0.19403 -0.15388,0.5909 -0.34197,0.88194 -0.18809,0.29105 -0.34197,0.37042 -0.34197,0.17639 z M 62.117011,193.13219 c 0.63059,-0.0782 1.66247,-0.0782 2.29306,0 0.63059,0.0783 0.11465,0.14229 -1.14653,0.14229 -1.26118,0 -1.77712,-0.064 -1.14653,-0.14229 z m 8.84149,0.0142 c 0.25466,-0.10191 0.55893,-0.0894 0.67616,0.0278 0.11723,0.11722 -0.0911,0.2006 -0.46302,0.18528 -0.41097,-0.0169 -0.49456,-0.10052 -0.21314,-0.21313 z m 2.10094,-0.0147 c 0.63407,-0.0785 1.58657,-0.0769 2.11667,0.004 0.5301,0.0805 0.0113,0.14474 -1.15285,0.14276 -1.16417,-0.002 -1.59788,-0.0678 -0.96382,-0.14635 z m 120.759729,-7.00568 c 0.0169,-0.41097 0.10053,-0.49456 0.21314,-0.21313 0.10191,0.25465 0.0894,0.55893 -0.0278,0.67615 -0.11722,0.11723 -0.2006,-0.0911 -0.18528,-0.46302 z m 0.38063,-1.55811 c 0,-0.48507 0.0801,-0.68351 0.17794,-0.44097 0.0979,0.24253 0.0979,0.63941 0,0.88194 -0.0979,0.24254 -0.17794,0.0441 -0.17794,-0.44097 z m 0.36585,-2.64583 c 0.007,-0.58209 0.0863,-0.77751 0.1757,-0.43426 0.0894,0.34324 0.0836,0.81949 -0.0131,1.05833 -0.0966,0.23884 -0.16981,-0.042 -0.16262,-0.62407 z m 0.31186,-2.49885 c 0.0169,-0.41096 0.10052,-0.49456 0.21313,-0.21313 0.10191,0.25466 0.0894,0.55893 -0.0278,0.67615 -0.11723,0.11723 -0.20061,-0.0911 -0.18529,-0.46302 z m -28.95563,-14.2581 c 0,-0.87867 0.1394,-1.36659 0.35278,-1.23472 0.19402,0.11991 0.35277,0.67554 0.35277,1.23472 0,0.55918 -0.15875,1.11481 -0.35277,1.23472 -0.21338,0.13187 -0.35278,-0.35605 -0.35278,-1.23472 z m 0.38063,-3.73356 c 0.0169,-0.41097 0.10052,-0.49456 0.21313,-0.21314 0.10191,0.25466 0.0894,0.55893 -0.0278,0.67616 -0.11723,0.11722 -0.20061,-0.0911 -0.18529,-0.46302 z M 95.043741,93.727612 c 0.0367,-0.66824 0.62468,-1.79347 0.64516,-1.23473 0.0106,0.29105 -0.13449,0.7673 -0.32258,1.05834 -0.18809,0.29104 -0.33325,0.37041 -0.32258,0.17639 z m 0.70321,-2.49884 c 0.0169,-0.41097 0.10052,-0.49456 0.21313,-0.21314 0.10191,0.25466 0.0894,0.55893 -0.0278,0.67616 -0.11723,0.11722 -0.20061,-0.0911 -0.18529,-0.46302 z m 0.38062,-1.55811 c 0,-0.48507 0.0801,-0.6835 0.17794,-0.44097 0.0979,0.24253 0.0979,0.63941 0,0.88194 -0.0979,0.24254 -0.17794,0.0441 -0.17794,-0.44097 z m 0.36586,-1.94028 c 0.007,-0.58208 0.0863,-0.7775 0.17569,-0.43425 0.0894,0.34324 0.0836,0.81949 -0.0131,1.05833 -0.0966,0.23884 -0.16979,-0.042 -0.1626,-0.62408 z"
       id="path147" />
  </g>
</svg>
