<?xml version="1.0" encoding="UTF-8" standalone="no"?>
<!-- Created with Inkscape (http://www.inkscape.org/) -->

<svg
   width="210mm"
   height="297mm"
   viewBox="0 0 210 297"
   version="1.1"
   id="svg5"
   inkscape:version="1.1 (c68e22c387, 2021-05-23)"
   sodipodi:docname="disintegrator plingin silhoutte.svg"
   xmlns:inkscape="http://www.inkscape.org/namespaces/inkscape"
   xmlns:sodipodi="http://sodipodi.sourceforge.net/DTD/sodipodi-0.dtd"
   xmlns="http://www.w3.org/2000/svg"
   xmlns:svg="http://www.w3.org/2000/svg">
  <sodipodi:namedview
     id="namedview7"
     pagecolor="#ffffff"
     bordercolor="#666666"
     borderopacity="1.0"
     inkscape:pageshadow="2"
     inkscape:pageopacity="0.0"
     inkscape:pagecheckerboard="0"
     inkscape:document-units="mm"
     showgrid="false"
     inkscape:zoom="0.66245342"
     inkscape:cx="481.54329"
     inkscape:cy="560.79415"
     inkscape:window-width="1680"
     inkscape:window-height="956"
     inkscape:window-x="-11"
     inkscape:window-y="-11"
     inkscape:window-maximized="1"
     inkscape:current-layer="layer1" />
  <defs
     id="defs2" />
  <g
     inkscape:label="Layer 1"
     inkscape:groupmode="layer"
     id="layer1">
    <path
       style="fill:#000000;stroke-width:0.352778"
       d="m 145.06498,243.91665 c -0.37563,-0.13895 -2.24519,-0.33915 -4.15458,-0.44487 -3.67253,-0.20335 -5.46884,-0.37681 -9.46884,-0.91437 -1.35819,-0.18253 -3.21553,-0.32293 -4.12742,-0.31201 -0.91188,0.0109 -2.00746,-0.0911 -2.43461,-0.22664 -0.61632,-0.19561 -0.7324,-0.13119 -0.5623,0.31208 0.11789,0.30722 0.081,0.64102 -0.0821,0.74179 -0.31319,0.19355 -1.02429,-1.38027 -1.02895,-2.27728 -0.001,-0.29104 -0.0925,-2.43417 -0.20226,-4.7625 -0.19942,-4.23116 -0.64736,-26.17189 -0.57735,-28.27937 0.0204,-0.61352 -0.18545,-1.76132 -0.45741,-2.55068 -0.52727,-1.53041 -0.37257,-1.87487 1.00571,-2.23936 0.38806,-0.10262 1.89618,-0.50425 3.35139,-0.89252 1.45521,-0.38827 4.25972,-1.06371 6.23225,-1.50097 1.97253,-0.43727 3.76209,-0.90361 3.97682,-1.03632 0.27457,-0.16969 0.212,-0.6523 -0.21088,-1.62659 -0.86613,-1.99551 -0.82817,-3.65312 0.11356,-4.95939 0.90983,-1.26201 2.66105,-1.76431 4.16183,-1.19371 0.52529,0.19971 1.08038,0.28568 1.23353,0.19103 0.15314,-0.0947 0.0707,-1.06582 -0.18324,-2.15816 -0.58243,-2.50556 -0.98874,-6.46647 -0.91214,-8.89191 0.0511,-1.61813 -0.0912,-2.0554 -1.06178,-3.2632 -0.61644,-0.76708 -1.30652,-1.39469 -1.5335,-1.39469 -0.80978,0 -4.45902,-2.88627 -4.27048,-3.37761 0.23382,-0.60932 -0.69359,-1.56128 -1.52101,-1.56128 -1.01137,0 -3.55551,-2.03276 -3.55551,-2.84084 0,-0.43037 0.42461,-0.96136 1.0561,-1.3207 0.58086,-0.33053 1.05711,-0.76514 1.05833,-0.9658 0.001,-0.20066 -0.94766,-0.83566 -2.10863,-1.41111 -1.16097,-0.57545 -2.11347,-1.16533 -2.11667,-1.31085 -0.003,-0.14552 -0.31887,-0.26459 -0.7015,-0.26459 -1.66247,0 -2.62881,-7.89248 -1.30732,-10.67733 0.54262,-1.14349 1.11621,-1.78936 1.65024,-1.85822 0.097,-0.0125 0.56815,-0.15567 1.04697,-0.31814 l 0.87057,-0.2954 -1.07925,-0.92198 c -2.2516,-1.92349 -4.73551,-6.28421 -6.45307,-11.32893 -0.9723,-2.85576 -0.76043,-11.05455 0.32362,-12.52361 0.14318,-0.19403 0.46462,-0.9861 0.71431,-1.76017 0.52815,-1.63729 1.94539,-4.04344 4.20659,-7.14184 2.00056,-2.74127 3.19249,-4.62937 3.19249,-5.05717 0,-0.18058 0.27781,-0.32937 0.61736,-0.33065 0.33954,-10e-4 1.09361,-0.32031 1.67569,-0.70896 2.68406,-1.79212 5.89443,-3.02897 10.93612,-4.21332 4.59787,-1.08009 5.30767,-1.15509 10.58333,-1.11826 5.29815,0.037 10.68799,1.01743 13.75833,2.5027 0.38806,0.18772 1.57868,0.74628 2.64584,1.24125 3.64201,1.68924 5.51431,3.22684 9.58228,7.86931 2.42547,2.76801 4.73395,7.73971 5.57497,12.00666 0.65299,3.31291 0.66207,3.70597 0.15312,6.62186 -0.2976,1.70494 -0.68463,3.36811 -0.86008,3.69595 -0.17545,0.32783 -0.56977,1.33467 -0.87626,2.23741 -1.22277,3.6016 -4.8667,8.36 -8.41252,10.98544 l -1.36489,1.0106 0.22545,2.48789 c 0.36606,4.03963 -1.12697,7.25796 -4.06664,8.76595 -1.07821,0.5531 -1.24554,0.80668 -1.20988,1.83352 0.0228,0.6554 0.15557,1.30582 0.29514,1.44539 0.89674,0.89674 -0.88357,2.88044 -3.59194,4.00228 -0.70547,0.29221 -1.12517,0.76802 -1.27361,1.44387 -0.12177,0.55442 -0.50693,1.09866 -0.85591,1.20942 -1.36485,0.43319 -1.83635,1.45252 -1.98828,4.29838 -0.16721,3.13219 -0.50005,6.52716 -0.66753,6.80873 -0.0617,0.10382 -0.20434,1.39463 -0.31687,2.86846 -0.19538,2.55903 -0.16684,2.6999 0.63384,3.12842 0.46114,0.24679 1.0122,0.34133 1.22457,0.21007 0.22058,-0.13632 0.70372,0.29962 1.12682,1.01673 0.40738,0.69045 0.88934,1.25536 1.07103,1.25536 0.18952,0 0.16938,0.30078 -0.0473,0.70556 -0.25828,0.4826 -0.26454,0.9168 -0.0198,1.37406 0.26525,0.49563 0.22385,0.77967 -0.16009,1.09831 -0.70582,0.58578 -0.33255,1.05541 0.83886,1.05541 0.53355,0 1.27824,0.23307 1.65488,0.51794 0.37663,0.28487 1.00228,0.52455 1.39034,0.53262 0.38806,0.008 1.55476,0.40999 2.59267,0.89316 1.03791,0.48318 2.14916,0.88346 2.46944,0.88953 0.32028,0.006 1.37608,0.40149 2.34622,0.87872 0.97014,0.47723 2.04171,0.86914 2.38125,0.87091 0.76883,0.004 0.7802,0.29691 0.0432,1.11132 -0.7246,0.80068 -0.81205,1.59617 -0.98344,8.9457 -0.0769,3.29868 -0.23301,7.74385 -0.34685,9.87815 -0.11385,2.13431 -0.2887,7.29368 -0.38857,11.46528 -0.0999,4.1716 -0.27783,7.94013 -0.39548,8.37451 -0.25926,0.95728 -0.83713,0.70439 -0.84463,-0.36963 -0.004,-0.54295 -0.0921,-0.63633 -0.29662,-0.31383 -0.18971,0.29909 -1.07924,0.45877 -2.55223,0.45814 -1.24357,-3.5e-4 -3.21353,0.15346 -4.3777,0.3422 -1.16416,0.18875 -3.14854,0.38435 -4.40972,0.43467 -1.26118,0.0503 -2.46315,0.19753 -2.67106,0.32712 -0.2079,0.12959 -1.31915,0.23273 -2.46944,0.2292 -1.15029,-0.004 -3.20058,0.17241 -4.55619,0.39098 -2.56477,0.41354 -6.71966,0.38762 -7.90073,-0.0493 z m 7.73786,-1.89784 c 0.19127,-0.11821 1.11013,-0.27169 2.04191,-0.34106 0.93178,-0.0694 2.27818,-0.47072 2.99201,-0.89189 1.09479,-0.64594 1.29786,-0.67856 1.29786,-0.20847 0,0.64385 1.50404,1.12716 2.18481,0.70206 0.67466,-0.42127 1.0699,-0.46706 6.10547,-0.70741 2.52236,-0.12039 4.65391,-0.2798 4.73678,-0.35425 0.0829,-0.0744 -0.26901,-0.57341 -0.78195,-1.10881 -0.62996,-0.65752 -0.86999,-1.213 -0.73961,-1.71156 0.33022,-1.26278 -0.84966,-1.34337 -1.91375,-0.1307 -0.51118,0.58255 -1.11896,1.05918 -1.35063,1.05918 -0.23167,0 -0.48737,0.19844 -0.56822,0.44098 -0.0991,0.29734 -0.95951,0.44097 -2.64156,0.44097 -1.372,0 -2.33764,0.097 -2.14586,0.21549 0.19601,0.12113 0.10403,0.30937 -0.21006,0.4299 -0.41683,0.15995 -0.55875,-0.007 -0.55875,-0.65646 0,-0.47898 0.19844,-0.88429 0.44097,-0.90068 4.68986,-0.31695 4.99083,-0.37817 5.98918,-1.21822 1.19928,-1.00913 0.45271,-1.23405 -0.98005,-0.29527 -0.62747,0.41113 -1.27334,0.50968 -2.28264,0.34829 -0.82933,-0.13262 -2.65078,0.0192 -4.43387,0.36954 -2.60553,0.51194 -3.07497,0.52482 -3.37626,0.0927 -0.26773,-0.38403 -0.39196,-0.39835 -0.52886,-0.061 -0.1351,0.33293 -2.09492,0.4478 -7.99884,0.46883 -4.30095,0.0153 -7.62147,0.10792 -7.37894,0.20578 0.24254,0.0979 0.44097,0.33042 0.44097,0.51679 0,0.18636 -0.19843,0.30268 -0.44097,0.25847 -0.24253,-0.0442 -1.05567,0.18697 -1.80697,0.51371 -1.5515,0.67474 -8.68817,0.87294 -8.68817,0.24129 0,-0.19403 0.48562,-0.35278 1.07915,-0.35278 0.59354,0 0.9974,-0.13228 0.89748,-0.29396 -0.0999,-0.16168 -0.66492,-0.22303 -1.25554,-0.13635 -0.64807,0.0951 -1.07387,0.002 -1.07387,-0.23521 0,-0.21605 0.34517,-0.39282 0.76705,-0.39282 h 0.76705 l -0.82854,-0.88193 c -0.82744,-0.88077 -2.46945,-1.2172 -2.46945,-0.50597 0,0.20678 0.15818,0.67153 0.35151,1.03277 0.50788,0.94899 0.0817,1.91938 -0.59598,1.35697 -0.40752,-0.33821 -0.5788,-0.32383 -0.82157,0.069 -0.16869,0.27294 -0.27312,0.52985 -0.23206,0.57091 0.13074,0.13074 7.79158,0.95639 8.61824,0.92883 0.43656,-0.0146 0.79375,0.12137 0.79375,0.30205 0,0.18321 0.71401,0.24281 1.6142,0.13475 0.88781,-0.10657 1.80062,-0.0728 2.02847,0.0751 0.39413,0.25582 2.51037,0.43987 5.79414,0.5039 0.82462,0.0161 1.49931,0.16577 1.49931,0.33266 0,0.32929 5.09305,0.1259 5.66266,-0.22614 z m 1.48109,-1.12477 c -0.24254,-0.0866 -0.44098,-0.36915 -0.44098,-0.62786 0,-0.2587 0.19844,-0.55574 0.44098,-0.66009 0.24253,-0.10434 -0.76765,-0.0976 -2.24487,0.0149 -3.96075,0.30174 -3.79669,-0.39511 0.20892,-0.88737 4.04637,-0.49726 4.06442,-0.49741 4.06442,-0.0341 0,0.20548 -0.14778,0.28227 -0.3284,0.17064 -0.38271,-0.23652 -0.84035,0.39745 -0.99229,1.37462 -0.12861,0.82715 -0.15135,0.84801 -0.70778,0.64928 z m -11.73683,-0.95232 c -0.1902,-0.1902 -0.34581,-0.53896 -0.34581,-0.77503 0,-0.23606 -0.19844,-0.50928 -0.44098,-0.60715 -0.26456,-0.10675 -0.19519,-0.18908 0.17341,-0.20578 0.3379,-0.0153 0.81265,0.28965 1.05499,0.6777 0.24235,0.38806 0.71994,0.70556 1.06133,0.70556 0.34138,0 0.62069,0.15697 0.62069,0.34882 0,0.4359 -1.65599,0.32351 -2.12363,-0.14412 z m 3.94328,-0.16278 c -0.34099,-0.21612 -0.19297,-0.35391 0.52916,-0.49261 1.16982,-0.22469 1.5571,-0.004 0.81598,0.46447 -0.63735,0.40307 -0.74988,0.40542 -1.34514,0.0282 z m 11.23313,-0.73515 c 0,-0.19342 0.38785,-0.44901 0.86189,-0.56799 0.89399,-0.22437 1.73472,0.0645 1.46374,0.50296 -0.24564,0.39746 -2.32563,0.45562 -2.32563,0.065 z m 16.71706,-4.64362 c 0.11297,-3.42033 0.3022,-6.51596 0.4205,-6.87916 0.17766,-0.54543 0.14885,-0.56827 -0.16554,-0.13122 -0.20937,0.29104 -0.38309,0.96573 -0.38606,1.49931 -0.004,0.61434 -0.19492,0.97014 -0.52216,0.97014 -0.28421,0 -0.68667,0.3175 -0.89435,0.70555 -0.20768,0.38806 -0.27321,0.70556 -0.14561,0.70556 0.1276,0 0.0603,0.20686 -0.14952,0.4597 -0.67227,0.81003 -0.24553,5.5117 0.66999,7.38187 0.4491,0.91737 0.85047,1.63174 0.89194,1.5875 0.0415,-0.0443 0.16784,-2.87892 0.28081,-6.29925 z m -48.81984,3.70615 c 0,-0.26728 0.15875,-0.48597 0.35277,-0.48597 0.55736,0 0.4105,-2.10935 -0.18856,-2.70841 -0.43166,-0.43166 -0.45413,-0.64643 -0.11088,-1.06002 0.34271,-0.41294 0.32721,-0.58395 -0.076,-0.83883 -0.74183,-0.46892 -1.21553,-0.20234 -1.18684,0.66791 0.0139,0.42039 0.0535,1.89504 0.0882,3.27699 0.0549,2.18961 0.13102,2.45618 0.59216,2.07347 0.29104,-0.24154 0.52917,-0.65786 0.52917,-0.92514 z m 13.40556,0.21958 c 0,-0.19402 -0.37472,-0.35277 -0.83271,-0.35277 -0.45799,0 -1.54278,-0.0973 -2.41065,-0.21628 -1.30598,-0.17901 -1.57794,-0.11821 -1.57794,0.35277 0,0.46804 0.42793,0.56906 2.41065,0.56906 1.37191,0 2.41065,-0.15201 2.41065,-0.35278 z m 16.07948,-3.26319 c 0.38286,-0.38098 2.06262,-0.32581 2.46953,0.0811 0.22573,0.22572 1.10845,0.22284 2.54373,-0.008 1.20892,-0.1947 3.37901,-0.41727 4.82242,-0.49462 1.4434,-0.0774 2.91017,-0.30691 3.25947,-0.51014 0.75923,-0.44173 0.72179,-0.45815 -1.30519,-0.57246 -4.18226,-0.23585 -6.25629,-0.49648 -7.1343,-0.89653 -0.76101,-0.34674 -1.06698,-0.34694 -1.48386,-0.001 -0.29486,0.24472 -0.95694,0.34935 -1.50975,0.2386 -1.55678,-0.31187 -11.5228,-0.40936 -11.98452,-0.11723 -0.22913,0.14497 -0.51664,0.1017 -0.63893,-0.0962 -0.13481,-0.21814 -1.15122,-0.28561 -2.58201,-0.17142 -1.29783,0.10359 -3.70906,0.27755 -5.3583,0.38657 -1.64924,0.10904 -3.17197,0.34096 -3.38385,0.51538 -0.21188,0.17443 -0.48969,0.21268 -0.61736,0.085 -0.12767,-0.12767 -0.23212,0.0294 -0.23212,0.34912 0,0.58656 0.6764,0.81703 2.64583,0.9015 0.58208,0.025 2.16958,0.16458 3.52778,0.31026 3.20702,0.34398 16.61581,0.34421 16.96143,2.9e-4 z m -25.05568,-4.94011 c 0.17564,-0.79967 0.0889,-1.15522 -0.34037,-1.39546 -0.31683,-0.17731 -0.49425,-0.45474 -0.39427,-0.61651 0.1,-0.16177 -0.0554,-0.38515 -0.34536,-0.49641 -0.37779,-0.14497 -0.52714,0.0385 -0.52714,0.64777 0,0.46753 -0.14461,0.93943 -0.32136,1.04866 -0.17675,0.10924 -0.26827,0.47579 -0.20338,0.81457 0.0649,0.33878 0.13012,0.79239 0.14497,1.00801 0.0153,0.22215 0.4006,0.32064 0.88911,0.22725 0.61514,-0.11759 0.92963,-0.47221 1.0978,-1.23788 z m 40.7262,0.88317 c 0,-0.24254 -0.27781,-0.45978 -0.61736,-0.48275 -0.81245,-0.055 -0.87844,-0.0463 -1.5075,0.19907 -0.37141,0.14485 -0.68983,-0.14669 -1.03106,-0.944 -0.27153,-0.63447 -0.55889,-1.27264 -0.63857,-1.41816 -0.0797,-0.14552 0.0271,-0.26458 0.23731,-0.26458 0.2102,0 0.38218,0.25009 0.38218,0.55575 0,0.70611 2.0074,0.60233 2.91042,-0.15045 0.67046,-0.55892 0.83241,-1.99464 0.26458,-2.34558 -0.19403,-0.11992 -0.35278,-0.0692 -0.35278,0.11266 0,0.18188 -0.62885,0.49031 -1.39745,0.68539 -0.7686,0.1951 -1.36391,0.23028 -1.32292,0.0782 0.041,-0.15208 -0.0842,-0.29239 -0.27824,-0.31179 -0.19403,-0.0194 -0.35691,0.0838 -0.36195,0.2293 -0.005,0.14552 -0.29653,0.69417 -0.64777,1.21921 -0.35123,0.52504 -0.54295,1.10939 -0.42604,1.29854 0.1169,0.18915 0.0486,0.44523 -0.15174,0.56906 -0.46634,0.28821 -0.11272,0.86298 0.7206,1.17125 1.15294,0.42649 4.21829,0.28035 4.21829,-0.20111 z m -1.66948,-3.05758 c 0.10159,-0.83811 0.96392,-1.18754 0.96392,-0.39059 0,0.31867 -0.14519,0.48965 -0.32264,0.37998 -0.17746,-0.10967 -0.41279,2e-5 -0.52295,0.24377 -0.11016,0.24374 -0.16341,0.13882 -0.11833,-0.23316 z m -34.40205,2.37342 c -0.33955,-0.0887 -0.89518,-0.0887 -1.23473,0 -0.33955,0.0887 -0.0617,0.16134 0.61736,0.16134 0.6791,0 0.95691,-0.0726 0.61737,-0.16134 z m 30.17825,-0.46898 c 0.17146,-0.65565 0.0734,-0.69881 -1.10442,-0.48605 -0.71092,0.12841 -1.36499,0.29807 -1.45351,0.377 -0.0885,0.0789 -0.406,-0.36098 -0.70555,-0.97759 -0.29955,-0.61662 -0.66369,-1.09914 -0.80921,-1.07227 -0.14552,0.0269 -0.82021,0.0488 -1.49931,0.0488 -0.86234,0 -1.23472,0.15959 -1.23472,0.52917 0,0.60282 -0.90017,0.71771 -1.24549,0.15896 -0.20966,-0.33923 -1.92951,1.15231 -1.92951,1.67336 0,0.11465 0.91281,0.12868 2.02847,0.0312 1.11566,-0.0975 2.50472,-0.0804 3.08681,0.0379 0.58208,0.11838 1.87282,0.25658 2.8683,0.30712 1.56629,0.0795 1.83531,-0.005 1.99814,-0.62766 z m -28.63998,-1.15387 c -0.60428,-0.60428 -0.83954,-0.0411 -0.328,0.78522 0.38976,0.62956 0.48514,0.65773 0.5867,0.17327 0.0667,-0.31818 -0.0497,-0.7495 -0.2587,-0.95849 z m 11.31998,1.16048 c 0.56645,0 0.95136,-0.12712 0.85534,-0.28247 -0.25544,-0.41332 -3.0376,-0.51183 -3.51555,-0.12448 -0.22465,0.18206 -0.72596,0.42252 -1.11401,0.53435 -0.38806,0.11183 0.0707,0.12892 1.01937,0.038 0.94872,-0.0909 2.1884,-0.16536 2.75485,-0.16536 z m 5.9754,-0.27791 c -0.25451,-0.0848 -0.63048,0.0135 -0.83547,0.21848 -0.26179,0.26179 -0.12406,0.3077 0.46274,0.15425 0.47702,-0.12474 0.63694,-0.28466 0.37273,-0.37273 z m -3.04652,-0.0743 c -0.11973,-0.19374 0.0693,-0.32734 0.42015,-0.29688 0.35082,0.0304 1.11411,0.0166 1.69619,-0.0308 1.05654,-0.0861 1.05681,-0.0867 0.16205,-0.35841 -1.32374,-0.40201 -3.15397,-0.0602 -2.9215,0.5456 0.10401,0.27104 0.34024,0.4928 0.52496,0.4928 0.18472,0 0.23789,-0.15852 0.11815,-0.35225 z m -17.81561,-0.35331 c -0.69022,-0.44605 -1.41111,-0.44605 -1.41111,0 0,0.19403 0.43656,0.35035 0.97014,0.34738 0.75598,-0.004 0.85332,-0.0809 0.44097,-0.34738 z m 10.42459,-0.33481 c 0.18433,-0.18415 1.44639,-0.39687 2.80458,-0.47272 1.56086,-0.0872 1.13874,-0.12622 -1.14729,-0.10616 -2.1968,0.0193 -3.61697,-0.10675 -3.61732,-0.32103 -3.2e-4,-0.19987 -1.14678,-0.37169 -2.64506,-0.39641 -1.45447,-0.024 -2.6445,0.0951 -2.6445,0.26458 0,0.25147 2.51367,0.47668 4.49792,0.40299 0.86769,-0.0322 0.42176,0.56683 -0.52916,0.71089 -0.53358,0.0808 -0.0891,0.17074 0.98777,0.19982 1.07686,0.0291 2.10873,-0.0978 2.29306,-0.28196 z m 11.92799,-0.19435 c 0.11642,-0.30339 0.007,-0.52917 -0.25624,-0.52917 -0.25261,0 -0.4593,0.23812 -0.4593,0.52917 0,0.29104 0.11531,0.52916 0.25624,0.52916 0.14094,0 0.34762,-0.23812 0.4593,-0.52916 z m 8.18791,-0.52917 c 0,-0.8278 -0.30569,-0.9011 -0.87868,-0.2107 -0.31537,0.38001 -0.30493,0.5373 0.045,0.67771 0.76132,0.30547 0.83368,0.26494 0.83368,-0.46701 z m -28.61785,-0.31003 c -0.18432,-0.17049 -0.97014,-0.40908 -1.74625,-0.5302 l -1.41111,-0.22021 1.05833,0.50155 c 1.19214,0.56495 2.62435,0.73475 2.09903,0.24886 z m 30.53292,-0.0428 c 0.45604,-0.29471 0.44672,-0.34272 -0.0674,-0.34738 -0.3281,-0.003 -0.69465,0.15335 -0.81457,0.34738 -0.27594,0.44648 0.19107,0.44648 0.88194,0 z m 9.84262,-3.41438 c 0.0193,-0.42271 -0.22402,-1.02774 -0.54079,-1.34451 -0.44161,-0.4416 -0.49298,-0.75808 -0.22024,-1.35669 0.20439,-0.44857 0.24809,-1.48998 0.10272,-2.44785 -0.13915,-0.91692 -0.11942,-1.66713 0.0438,-1.66713 0.16326,0 0.31774,0.43657 0.34328,0.97014 0.0409,0.85388 0.0741,0.82217 0.27711,-0.26458 0.12687,-0.6791 0.11782,-1.77228 -0.0201,-2.4293 -0.13793,-0.65701 -0.1048,-2.08577 0.0736,-3.175 0.39259,-2.39659 0.42781,-5.33283 0.0639,-5.3291 -0.14552,10e-4 -0.61318,0.61334 -1.03924,1.35965 -0.5822,1.01979 -0.67423,1.45736 -0.37042,1.76117 0.30379,0.30381 0.29905,0.40425 -0.0191,0.40425 -0.23871,0 -0.42334,0.47951 -0.42334,1.09947 0,0.9258 0.11146,1.07034 0.70556,0.91498 0.42536,-0.11124 0.70555,-0.0108 0.70555,0.25283 0,0.70257 -0.42661,0.93283 -0.93955,0.50713 -0.39264,-0.32587 -0.47284,0.15015 -0.46114,2.73709 0.008,1.72235 -0.0888,3.64749 -0.21455,4.27808 -0.14843,0.74402 -0.0908,1.14653 0.16409,1.14653 0.21606,0 0.39282,0.15875 0.39282,0.35278 0,0.19402 -0.19844,0.31309 -0.44097,0.26458 -0.87496,-0.17499 -0.66498,1.67725 0.3368,2.97092 0.927,1.19711 0.99987,1.22818 1.21553,0.51828 0.12619,-0.41535 0.24525,-1.10102 0.26459,-1.52372 z m -1.02317,-9.46201 c 0,-0.29104 0.0624,-0.52917 0.13864,-0.52917 0.0763,0 0.23003,0.23813 0.34171,0.52917 0.11168,0.29104 0.0493,0.52917 -0.13864,0.52917 -0.18794,0 -0.34171,-0.23813 -0.34171,-0.52917 z m 0.17639,-3.35139 c -0.11992,-0.19403 -0.0499,-0.35278 0.15557,-0.35278 0.20548,0 0.37359,0.15875 0.37359,0.35278 0,0.19403 -0.07,0.35278 -0.15556,0.35278 -0.0856,0 -0.25369,-0.15875 -0.3736,-0.35278 z m -12.45222,13.47957 c 0.68862,-0.19014 1.66571,-0.26663 2.17131,-0.16998 1.07841,0.20615 2.69619,-0.13797 2.69619,-0.57351 0,-0.59253 -2.07012,-1.14772 -3.9541,-1.06045 -1.05173,0.0487 -2.07705,-0.0133 -2.2785,-0.13779 -0.3674,-0.22707 -20.63264,-0.29877 -23.15983,-0.0819 -0.74063,0.0635 -1.4404,0.20934 -1.55505,0.32398 -0.11464,0.11465 -0.40218,0.0477 -0.63896,-0.14884 -0.29294,-0.24312 -0.75428,-0.22406 -1.44357,0.0596 -0.55718,0.22932 -1.19952,0.38727 -1.42743,0.35101 -0.60285,-0.0959 -0.90612,0.56368 -0.40233,0.87504 0.23625,0.14601 1.3104,0.31124 2.38701,0.36719 1.07661,0.0559 2.98935,0.22526 4.25053,0.37627 3.20398,0.38362 21.833,0.23957 23.35473,-0.1806 z m -35.70196,-1.81708 c 0,-0.3766 -0.16134,-0.78445 -0.35853,-0.90632 -0.19719,-0.12187 -0.27119,-0.36291 -0.16443,-0.53564 0.30304,-0.49034 -0.60667,-1.70436 -1.12741,-1.50453 -0.70871,0.27196 -0.55679,2.12962 0.23926,2.92567 0.89182,0.89181 1.41111,0.89948 1.41111,0.0208 z m 1.94028,-1.43193 c 0.11992,-0.19403 -0.0388,-0.35278 -0.35278,-0.35278 -0.31394,0 -0.47269,0.15875 -0.35277,0.35278 0.11991,0.19403 0.27866,0.35278 0.35277,0.35278 0.0741,0 0.23287,-0.15875 0.35278,-0.35278 z m 43.56806,-0.35278 c 0,-0.38805 -0.15875,-0.70556 -0.35277,-0.70556 -0.19403,0 -0.35278,0.31751 -0.35278,0.70556 0,0.38806 0.15875,0.70556 0.35278,0.70556 0.19402,0 0.35277,-0.3175 0.35277,-0.70556 z m -1.76388,-0.5181 c 0,-0.3147 -0.20694,-0.43868 -0.52715,-0.31581 -0.28992,0.11126 -0.4393,0.3444 -0.33195,0.5181 0.30784,0.49809 0.8591,0.36829 0.8591,-0.20229 z m -30.41643,-1.21171 c -0.44243,-0.50381 -0.86382,-0.9954 -0.93643,-1.09241 -0.0726,-0.097 -0.0222,0.1808 0.11197,0.61736 0.21698,0.70592 0.12194,0.79375 -0.85894,0.79375 -1.75191,0 -0.95324,0.52545 0.85611,0.56324 l 1.63169,0.0341 -0.8044,-0.91602 z m 22.65087,0.66126 c -0.2886,-0.18247 -0.9216,-0.32303 -1.40667,-0.31236 -0.7323,0.0161 -0.77195,0.0627 -0.2337,0.27462 0.35653,0.14038 0.98953,0.28095 1.40666,0.31237 0.60213,0.0454 0.65029,-0.0112 0.23371,-0.27463 z m -31.41993,-0.21366 1.11938,-0.22388 -0.94417,-0.57109 c -0.67048,-0.40556 -0.97066,-0.90789 -1.03557,-1.73294 -0.0503,-0.639 -0.32148,-1.4322 -0.6027,-1.76266 -0.28121,-0.33046 -0.49752,-1.07708 -0.48069,-1.65916 0.0261,-0.90193 0.16096,-1.04979 0.91256,-1.00051 0.48507,0.0318 1.46127,0.26407 2.16933,0.51617 1.20744,0.42988 1.28071,0.5413 1.18007,1.79426 -0.059,0.73475 0.0363,1.33591 0.21193,1.33591 0.17557,0 0.33176,0.27781 0.34708,0.61736 0.0164,0.36354 0.10057,0.43736 0.20473,0.17954 0.13576,-0.33602 0.29334,-0.32137 0.67771,0.063 0.27545,0.27544 0.50082,0.6709 0.50082,0.87879 0,0.20789 0.23812,0.37798 0.52917,0.37798 0.29104,0 0.52916,0.16812 0.52916,0.37359 0,0.20548 0.16646,0.27072 0.36991,0.14499 0.25643,-0.15849 0.25263,-0.36993 -0.0124,-0.68924 -0.28101,-0.33861 -0.26219,-0.45575 0.0711,-0.44219 1.29122,0.0525 2.05889,-0.1309 1.86447,-0.44549 -0.11992,-0.19403 -0.0631,-0.35278 0.12617,-0.35278 0.18931,0 0.40611,0.18575 0.48179,0.41278 0.0892,0.26755 1.48392,0.46914 3.96453,0.57303 3.42581,0.14346 3.80389,0.10019 3.60705,-0.41277 -0.18866,-0.49163 0.11681,-0.57868 2.15028,-0.61274 1.3036,-0.0218 3.08455,-0.0704 3.95768,-0.10788 0.87312,-0.0375 2.10783,0.044 2.74378,0.18114 0.774,0.16689 1.30864,0.097 1.61711,-0.21151 0.37924,-0.37924 0.66522,-0.30086 1.61546,0.44282 0.94565,0.74008 1.63727,0.93161 3.82118,1.05817 1.73058,0.10029 2.85305,0.34104 3.19788,0.68587 0.37504,0.37503 0.92001,0.46918 1.85262,0.32005 0.89402,-0.14296 1.3801,-0.0688 1.50316,0.22919 0.11,0.26638 0.27724,0.12675 0.42316,-0.35328 0.1327,-0.43657 0.39088,-0.79375 0.57373,-0.79375 0.18285,0 0.25726,0.12166 0.16536,0.27036 -0.0919,0.1487 0.20314,0.44509 0.65566,0.65864 0.66128,0.31208 0.78643,0.29364 0.6377,-0.094 -0.10179,-0.26524 -0.36652,-0.48708 -0.58829,-0.49298 -0.22178,-0.006 -0.12542,-0.17254 0.21413,-0.37031 0.33955,-0.19777 0.61736,-0.74857 0.61736,-1.224 0,-0.65299 -0.19414,-0.87122 -0.79375,-0.89226 -0.43656,-0.0153 -0.59531,-0.10792 -0.35278,-0.20579 0.24254,-0.0979 0.44098,-0.50164 0.44098,-0.89729 0,-0.63436 -0.0729,-0.66215 -0.61737,-0.23518 -0.55952,0.43881 -0.572,0.42633 -0.13319,-0.1332 0.26629,-0.33955 0.69983,-0.61736 0.96342,-0.61736 0.60744,0 0.99444,-1.55839 0.87605,-3.52778 -0.0495,-0.82334 -0.0851,-0.83964 -0.53576,-0.24531 -0.2655,0.35015 -0.79943,0.66049 -1.18649,0.68965 -0.82142,0.0619 -1.68174,2.21362 -1.04292,2.60844 0.23807,0.14713 0.27135,0.051 0.0915,-0.26424 -0.22865,-0.40082 -0.19189,-0.41123 0.19244,-0.0545 0.57614,0.53477 0.007,1.27104 -0.75356,0.97539 -0.6224,-0.24184 -1.41761,-1.88183 -1.02895,-2.12203 0.1575,-0.0973 0.20973,-0.46998 0.11608,-0.8281 -0.12337,-0.47179 -0.40573,-0.60611 -1.02521,-0.48769 -0.47022,0.0899 -0.85494,0.0136 -0.85494,-0.16937 0,-0.18304 -0.51542,-0.25716 -1.14536,-0.1647 -1.04042,0.1527 -1.10025,0.11375 -0.65304,-0.42512 0.4456,-0.5369 0.412,-0.56294 -0.35394,-0.27423 -0.99346,0.37446 -2.35978,-0.046 -2.65573,-0.8172 -0.29596,-0.77127 -1.18915,-0.66407 -1.18915,0.14271 0,0.3742 0.24946,0.92983 0.55436,1.23473 0.50397,0.50396 0.50397,0.55436 0,0.55436 -0.3049,0 -0.55436,0.22876 -0.55436,0.50835 0,0.27959 -0.18284,0.62134 -0.4063,0.75945 -0.48021,0.29679 -1.38,-0.79892 -1.14945,-1.39974 0.16245,-0.42333 -1.44172,-2.85634 -1.89834,-2.87917 -0.62341,-0.0311 -1.83662,-0.93837 -1.65275,-1.23588 0.11253,-0.18207 -0.0418,-0.2365 -0.3429,-0.12095 -1.0734,0.41191 -0.56025,-1.10627 0.85202,-2.52069 0.76973,-0.77091 1.40473,-1.5313 1.41111,-1.68977 0.006,-0.15846 0.42732,-0.83315 0.93542,-1.4993 0.5081,-0.66615 0.79793,-1.21119 0.64406,-1.21119 -0.15386,0 0.0516,-0.35718 0.45652,-0.79375 0.40495,-0.43656 0.78753,-1.34937 0.85018,-2.02847 0.0627,-0.6791 0.35431,-1.44493 0.64814,-1.70186 0.29383,-0.25692 0.33579,-0.36661 0.0933,-0.24376 -0.24254,0.12286 -0.44097,0.0553 -0.44097,-0.15023 0,-0.20547 0.15875,-0.37359 0.35277,-0.37359 0.19403,0 0.35278,-0.1698 0.35278,-0.37732 0,-0.20752 -0.35718,-0.32658 -0.79375,-0.26458 -0.62168,0.0883 -0.77104,0.30863 -0.68901,1.0164 0.0576,0.49703 -0.0871,1.37015 -0.32155,1.94028 -0.23446,0.57013 -0.39672,1.16747 -0.36058,1.32741 0.0361,0.15994 -0.0863,0.19687 -0.27203,0.0821 -0.48507,-0.29978 -2.69805,1.04889 -2.57574,1.56975 0.0602,0.25628 -0.11128,0.3549 -0.41465,0.23849 -0.71551,-0.27457 -3.10465,0.42644 -2.85118,0.83657 0.11344,0.18354 0.0566,0.3337 -0.12621,0.3337 -0.50177,0 -0.79811,1.52696 -0.35007,1.80386 0.41815,0.25844 0.1501,1.37114 -0.33032,1.37114 -0.38763,0 -1.61807,-2.11443 -1.37302,-2.35947 0.33762,-0.33763 -0.74924,-1.1683 -1.52862,-1.1683 -0.41153,0 -1.32035,-0.55563 -2.01959,-1.23473 -0.69925,-0.67909 -1.41512,-1.23472 -1.59084,-1.23472 -0.17571,0 -0.23252,-0.1407 -0.12624,-0.31267 0.3258,-0.52714 -1.15733,-0.70495 -1.58471,-0.18999 -0.33602,0.40488 -0.53568,0.38476 -1.23661,-0.12461 -0.45973,-0.3341 -0.84087,-0.96464 -0.84697,-1.4012 -0.006,-0.43656 -0.17921,-0.79375 -0.38468,-0.79375 -0.20548,0 -0.27549,0.15875 -0.15557,0.35278 0.11991,0.19402 0.005,0.35277 -0.25637,0.35277 -0.26091,0 -0.47439,0.32143 -0.47439,0.71429 0,0.4666 0.17091,0.64871 0.49285,0.52517 0.33528,-0.12866 0.42519,-0.0128 0.28122,0.36237 -0.127,0.33098 -0.0654,0.46113 0.15401,0.32551 0.2011,-0.12428 0.59519,-0.13788 0.87576,-0.0302 0.41888,0.16074 0.43452,0.36171 0.0875,1.12345 -0.3569,0.7833 -0.33139,0.97878 0.16388,1.25595 0.32261,0.18054 0.50351,0.54467 0.40201,0.80919 -0.10261,0.26739 0.67834,1.44799 1.75886,2.65895 1.06887,1.19791 1.86123,2.39215 1.76079,2.65388 -0.10271,0.26767 0.0988,0.54863 0.46066,0.64218 0.38767,0.10024 0.21754,0.18259 -0.42819,0.20725 -1.32938,0.0508 -1.53521,1.08508 -0.40347,2.02742 0.42316,0.35234 0.57093,0.41464 0.3284,0.13845 -0.64519,-0.73473 -0.53841,-1.41939 0.22139,-1.41939 0.36429,0 0.85998,-0.23813 1.10153,-0.52917 0.48289,-0.58186 1.76389,-0.72507 1.76389,-0.19721 0,0.18258 -0.18328,0.44523 -0.40729,0.58368 -0.27356,0.16906 -0.31356,0.089 -0.12183,-0.24377 0.15701,-0.27251 -0.21546,-0.0291 -0.82769,0.54091 -0.61223,0.57 -1.09422,1.205 -1.07109,1.41111 0.0964,0.85883 -0.0784,1.18401 -0.72746,1.35375 -0.53285,0.13934 -0.7359,-0.0483 -0.90997,-0.8408 -0.22209,-1.01118 -0.52816,-1.24798 -1.00137,-0.77477 -0.37575,0.37575 -1.31349,0.44162 -1.08778,0.0764 0.10939,-0.17701 -0.13494,-0.32183 -0.54295,-0.32183 -0.51082,0 -0.70956,0.19226 -0.63818,0.61736 0.0608,0.36211 -0.0895,0.57729 -0.36353,0.52043 -0.25696,-0.0533 -0.36665,0.0658 -0.24377,0.26458 0.12289,0.19884 0.14767,0.36152 0.0551,0.36152 -0.0926,0 -0.42753,0.0995 -0.7443,0.22101 -0.47945,0.18398 -0.53637,0.051 -0.33974,-0.79375 0.22135,-0.95097 0.20336,-0.97216 -0.28605,-0.33706 -0.6414,0.83231 -0.42349,1.80664 0.57063,2.5515 0.60337,0.45208 0.62359,0.51886 0.10357,0.34199 -0.35542,-0.12089 -0.87135,-0.2198 -1.14653,-0.2198 -0.27517,0 -0.5035,-0.19844 -0.5074,-0.44097 -0.004,-0.24254 -0.67859,-1.08281 -1.49931,-1.86727 -1.37112,-1.31055 -1.60674,-1.4088 -2.90333,-1.21071 -0.94353,0.14414 -1.23041,0.29865 -0.86577,0.46626 0.38527,0.1771 0.50327,0.61109 0.40199,1.47857 -0.0788,0.67534 -0.27409,1.30869 -0.4339,1.40745 -0.1598,0.0988 -1.23346,-0.29958 -2.38591,-0.88521 -2.04997,-1.04172 -3.94836,-1.39406 -3.94836,-0.73283 0,0.18258 0.12479,0.40908 0.2773,0.50334 0.15251,0.0943 0.30815,1.38481 0.34587,2.86789 0.0805,3.16456 0.62261,5.46904 1.28661,5.46904 0.25931,0 0.97519,-0.10075 1.59085,-0.22388 z m 3.93484,-3.33104 c -1.06954,-1.06953 -1.37181,-1.73675 -0.78681,-1.73675 0.30761,0 2.87634,2.37804 2.87634,2.66282 0,0.51773 -1.15971,0.004 -2.08953,-0.92607 z m 24.19694,0.85029 c -0.12935,-0.12935 -0.23036,-0.48654 -0.22446,-0.79375 0.009,-0.45872 0.0777,-0.44348 0.38512,0.0853 0.37986,0.65324 0.26973,1.13889 -0.16066,0.7085 z m -19.1088,-0.47037 c 0.11992,-0.19403 0.36741,-0.35278 0.54999,-0.35278 0.18258,0 0.33196,0.15875 0.33196,0.35278 0,0.19402 -0.2475,0.35277 -0.54999,0.35277 -0.30249,0 -0.45187,-0.15875 -0.33196,-0.35277 z m 1.78252,0.0301 c -0.11359,-0.18378 -0.0562,-0.42709 0.12763,-0.54067 0.18379,-0.11359 0.42709,-0.0562 0.54068,0.12763 0.11358,0.18379 0.0562,0.4271 -0.12764,0.54068 -0.18379,0.11359 -0.42709,0.0562 -0.54067,-0.12764 z m 1.06915,-0.60979 c -0.12234,-0.31881 -0.13933,-0.66277 -0.0378,-0.76435 0.10158,-0.10158 0.1847,0.02 0.1847,0.27008 0,0.34044 0.11901,0.356 0.47343,0.0619 0.47467,-0.39394 0.93768,-0.20328 0.93768,0.38613 0,0.17315 -0.15875,0.21669 -0.35278,0.0968 -0.19403,-0.11992 -0.35278,-0.0499 -0.35278,0.15556 0,0.58424 -0.60539,0.4379 -0.8525,-0.20606 z m 25.89972,0.22689 c 0,-0.19403 0.15875,-0.35278 0.35278,-0.35278 0.19403,0 0.35278,0.15875 0.35278,0.35278 0,0.19403 -0.15875,0.35278 -0.35278,0.35278 -0.19403,0 -0.35278,-0.15875 -0.35278,-0.35278 z m -30.61218,-0.84836 c -0.33363,-0.73224 -0.28992,-0.79048 0.48239,-0.64284 0.98131,0.18759 1.02636,0.30614 0.36686,0.96564 -0.40798,0.40799 -0.53896,0.3582 -0.84925,-0.3228 z m 22.4983,-3.18776 c 0,-0.2796 0.16017,-0.60734 0.35593,-0.72833 0.47977,-0.29652 1.76073,0.13464 1.76073,0.59263 0,0.20171 -0.23304,0.27733 -0.51787,0.16802 -0.28482,-0.10929 -0.61169,-0.0469 -0.72637,0.13865 -0.3165,0.51211 -0.87242,0.40316 -0.87242,-0.17097 z m -24.12404,-0.0972 c -0.14709,-0.14709 -0.53145,-0.26946 -0.85413,-0.27194 -1.03406,-0.008 -0.90235,-1.13067 0.16404,-1.39831 0.72393,-0.1817 1.09193,-0.0831 1.43352,0.38403 0.25275,0.34566 0.40781,0.78373 0.34456,0.97347 -0.15573,0.46718 -0.75989,0.64085 -1.08799,0.31275 z m 5.62791,-0.76563 c -0.10634,-0.17204 0.0164,-0.48685 0.2727,-0.69958 0.34505,-0.28636 0.64169,-0.24415 1.14264,0.16258 0.37214,0.30214 0.48915,0.45561 0.26002,0.34105 -0.22913,-0.11457 -0.51631,-0.047 -0.63818,0.15023 -0.27309,0.44186 -0.77858,0.46415 -1.03718,0.0457 z m 15.70175,-1.30409 c 0.0169,-0.41097 0.10052,-0.49456 0.21314,-0.21314 0.10191,0.25466 0.0894,0.55894 -0.0278,0.67616 -0.11722,0.11723 -0.2006,-0.0911 -0.18528,-0.46302 z m -7.90655,-3.2044 c -0.41419,-0.41419 -0.25221,-1.0939 0.3123,-1.31053 0.3577,-0.13726 0.45993,-0.0684 0.29491,0.1986 -0.16823,0.27221 -0.0583,0.33412 0.32929,0.1854 0.49953,-0.19169 0.52067,-0.12528 0.1494,0.46921 -0.45867,0.73446 -0.70502,0.8382 -1.0859,0.45732 z m -1.2342,-4.176 c -0.8086,-0.76974 -0.81032,-0.78631 -0.10117,-0.97175 0.8704,-0.22762 1.62849,0.55611 1.21624,1.25736 -0.23899,0.40654 -0.44282,0.35433 -1.11507,-0.28561 z m -4.29265,-0.80694 c 0,-0.36751 0.76234,-1.13187 1.12889,-1.13187 0.51978,0 0.28942,0.53133 -0.42334,0.97646 -0.38805,0.24234 -0.70555,0.31228 -0.70555,0.15541 z m 2.70463,0.044 c -0.38602,-0.38601 -0.26811,-0.70555 0.26034,-0.70555 0.27255,0 0.41431,0.21166 0.31504,0.47037 -0.20669,0.53862 -0.25301,0.55755 -0.57538,0.23518 z m -0.51368,-1.74067 c -0.25019,-0.27147 -0.29924,-0.49359 -0.10901,-0.49359 0.36633,0 0.89666,0.67106 0.68741,0.86984 -0.0679,0.0645 -0.32822,-0.10478 -0.5784,-0.37625 z m -2.89651,-1.17832 c 0,-0.18258 0.18328,-0.44523 0.40729,-0.58368 0.24072,-0.14878 0.31196,-0.0975 0.17419,0.12544 -0.12821,0.20744 -0.0337,0.45756 0.21007,0.55582 0.26736,0.10779 0.19826,0.18972 -0.17419,0.20652 -0.33955,0.0153 -0.61736,-0.12153 -0.61736,-0.3041 z m 21.07113,20.22715 c -0.11723,-0.11722 -0.4215,-0.12975 -0.67616,-0.0278 -0.28142,0.11261 -0.19783,0.19621 0.21313,0.21313 0.37189,0.0153 0.58025,-0.0681 0.46303,-0.18528 z m -39.0628,-0.82437 c 0,-0.18258 -0.15875,-0.43007 -0.35278,-0.54999 -0.19403,-0.11992 -0.35278,0.0295 -0.35278,0.33196 0,0.30249 0.15875,0.54998 0.35278,0.54998 0.19403,0 0.35278,-0.14938 0.35278,-0.33195 z m 25.75278,-0.58773 c 0,-0.0763 -0.51594,-0.12749 -1.14653,-0.11385 -0.93365,0.0202 -1.01552,0.0766 -0.44097,0.30395 0.64628,0.25571 1.5875,0.143 1.5875,-0.1901 z m -25.54542,-6.93901 c 0.13135,-0.41386 0.0269,-0.81904 -0.25781,-0.99939 -0.74298,-0.47078 -1.00789,-0.37338 -1.00789,0.3706 0,0.3766 -0.15875,0.78284 -0.35277,0.90276 -0.19403,0.11992 -0.35278,0.44338 -0.35278,0.71881 0,0.74801 1.68867,-0.10245 1.97125,-0.99278 z m -1.47668,-2.75005 c -0.0765,-1.10442 -0.35184,-1.64603 -0.67341,-1.32446 -0.24621,0.24621 0.20962,2.4082 0.50774,2.4082 0.13238,0 0.20694,-0.48768 0.16567,-1.08374 z m 18.55544,0.005 c 0,-0.18258 -0.23813,-0.33196 -0.52917,-0.33196 -0.54554,0 -0.70087,0.41627 -0.30357,0.81356 0.28184,0.28185 0.83274,-0.0368 0.83274,-0.4816 z m -8.55487,-1.41855 c -0.33955,-0.19777 -0.61736,-0.51044 -0.61736,-0.69483 0,-0.51161 0.94381,-0.39937 1.52446,0.18128 0.45352,0.45352 0.53766,0.43571 0.68977,-0.14596 0.16044,-0.61352 -0.45561,-1.06113 -1.68506,-1.22433 -0.19403,-0.0257 -0.5229,-0.15356 -0.73083,-0.28401 -0.20792,-0.13046 -0.64732,0.0773 -0.97645,0.46169 -0.87486,1.02177 -0.21665,2.09061 1.27871,2.07647 0.94124,-0.009 1.02913,-0.0719 0.51676,-0.37031 z m 29.36876,-0.32452 c 0,-0.19403 -0.27782,-0.35278 -0.61737,-0.35278 -0.60561,0 -0.6729,-0.20906 -0.88684,-2.7552 -0.0821,-0.97694 -0.0975,-0.98333 -1.06268,-0.44097 l -0.97938,0.55034 0.89119,0.77683 c 0.49015,0.42725 0.89119,1.02768 0.89119,1.33428 0,0.43848 0.7492,0.98301 1.67569,1.21792 0.0485,0.0123 0.0882,-0.13639 0.0882,-0.33042 z m 10.93611,-1.43193 c 0,-0.18258 -0.15875,-0.33196 -0.35278,-0.33196 -0.19403,0 -0.35278,0.2475 -0.35278,0.54999 0,0.30249 0.15875,0.45187 0.35278,0.33196 0.19403,-0.11992 0.35278,-0.36741 0.35278,-0.54999 z m -34.21945,-0.68474 c 0,-0.19402 -0.07,-0.35277 -0.15557,-0.35277 -0.0856,0 -0.25368,0.15875 -0.3736,0.35277 -0.11991,0.19403 -0.0499,0.35278 0.15557,0.35278 0.20548,0 0.3736,-0.15875 0.3736,-0.35278 z m 35.10139,-0.70555 c -0.11991,-0.19403 -0.37678,-0.35278 -0.5708,-0.35278 -0.19403,0 -0.25467,0.15875 -0.13475,0.35278 0.11991,0.19403 0.37677,0.35278 0.5708,0.35278 0.19403,0 0.25467,-0.15875 0.13475,-0.35278 z m -35.33177,-9.90508 c -0.81519,-0.29641 -0.97583,-0.16134 -0.69097,0.58098 0.18828,0.49066 0.31362,0.50986 0.78334,0.12003 0.50565,-0.41966 0.49681,-0.48678 -0.0924,-0.70101 z m 5.3813,-3.34052 c 0.32761,-1.30527 -0.0646,-1.44329 -0.50567,-0.17797 -0.21912,0.62857 -0.23888,1.07635 -0.0475,1.07635 0.18024,0 0.42917,-0.40427 0.55318,-0.89838 z m 7.84434,-4.77428 c -0.0733,-2.13157 -0.21787,-2.63572 -0.98667,-3.43959 -0.49546,-0.51806 -0.84118,-0.90979 -0.76827,-0.87053 0.0729,0.0393 0.36179,-0.15783 0.64197,-0.438 0.34436,-0.34436 0.44455,-0.91745 0.30923,-1.76886 -0.11008,-0.69271 -0.0666,-1.17694 0.0966,-1.07608 0.34223,0.21151 0.29659,-1.58689 -0.0547,-2.15528 -0.1292,-0.20904 0.002,-0.4711 0.29224,-0.58236 0.74867,-0.28729 1.65841,0.13501 1.45163,0.67385 -0.324,0.84435 0.68123,0.79128 1.0816,-0.0571 0.34677,-0.7348 0.30981,-0.84117 -0.29224,-0.84117 -0.98969,0 -2.37273,-1.62315 -2.25978,-2.6521 0.0517,-0.47081 -0.0193,-0.78605 -0.15763,-0.70053 -0.13838,0.0855 -0.42408,-0.22305 -0.63489,-0.68572 -0.50248,-1.10282 0.31716,-1.47646 1.51587,-0.69103 l 0.84601,0.55432 -0.21756,-1.35205 c -0.2034,-1.26404 -0.17678,-1.31845 0.40891,-0.83579 0.34456,0.28395 0.46228,0.571 0.26159,0.6379 -0.23362,0.0779 -0.17531,0.57532 0.16213,1.38293 0.47532,1.13759 0.47271,1.24046 -0.0266,1.04886 -0.77221,-0.29632 -0.69083,0.33374 0.15197,1.17654 0.38806,0.38806 0.70556,0.97543 0.70556,1.30528 0,0.47324 0.0911,0.50858 0.43213,0.16758 0.341,-0.341 0.34037,-0.57908 -0.003,-1.12889 -0.28574,-0.45731 -0.30586,-0.69675 -0.0587,-0.69675 0.20712,0 0.26751,-0.1765 0.13418,-0.39222 -0.13332,-0.21572 -0.0236,-0.53079 0.24377,-0.70015 0.37339,-0.2365 0.3225,-0.31494 -0.21939,-0.33813 l -0.70556,-0.0302 0.70556,-0.29447 c 0.38806,-0.16195 1.10243,-0.22922 1.5875,-0.14948 0.48507,0.0797 0.68351,0.0514 0.44097,-0.0629 -0.72132,-0.34007 -0.50743,-1.14432 0.61736,-2.32131 0.58209,-0.60909 1.05834,-1.339 1.05834,-1.62203 0,-0.29381 0.2099,-0.43404 0.48924,-0.32685 0.3432,0.1317 0.43622,-0.015 0.31163,-0.49142 -0.0977,-0.37354 -0.29933,-0.67916 -0.44809,-0.67916 -0.41019,0 -0.68497,-1.3822 -0.31966,-1.60797 0.43292,-0.26756 0.4071,-1.21425 -0.0331,-1.21425 -0.19403,0 -0.35278,0.24749 -0.35278,0.54998 0,0.33187 -0.16462,0.44825 -0.41509,0.29345 -0.71175,-0.43988 -3.8107,-0.37747 -3.43993,0.0693 0.20955,0.25248 0.0879,0.60566 -0.34297,0.99557 -0.51905,0.46974 -0.70895,0.50129 -0.85285,0.14174 -0.15192,-0.37956 -0.38191,0.76748 -0.3022,1.50714 0.0122,0.11319 -0.21396,0.20579 -0.50257,0.20579 -0.28862,0 -0.45844,-0.17282 -0.37739,-0.38403 0.20163,-0.52543 -0.72054,-1.35996 -1.00112,-0.90598 -0.28647,0.46353 -0.87977,0.44711 -0.87977,-0.0243 0,-0.20548 0.15875,-0.27548 0.35278,-0.15557 0.19403,0.11992 0.35278,-0.0331 0.35278,-0.33994 0,-0.45429 -0.32144,-0.52876 -1.72985,-0.40077 -1.53387,0.13939 -1.75877,0.0703 -1.98507,-0.60938 l -0.25521,-0.76657 -0.15143,0.75779 c -0.15133,0.75734 -1.52289,1.43781 -1.52289,0.75556 0,-0.19848 -0.40249,-0.28393 -0.89444,-0.18989 -0.63718,0.1218 -0.99871,-0.0238 -1.25698,-0.50645 -0.1994,-0.37258 -0.63034,-0.63342 -0.95765,-0.57963 -0.3273,0.0538 -0.81806,-0.0418 -1.09058,-0.21249 -0.30775,-0.19273 -0.41483,-0.17981 -0.28263,0.0341 0.11706,0.18941 -0.0172,0.78771 -0.29827,1.32956 -0.28112,0.54184 -0.49858,1.24483 -0.48326,1.5622 0.0233,0.4822 0.0609,0.49007 0.22928,0.0479 0.20699,-0.54375 0.78777,-1.04337 1.22399,-1.05293 0.67053,-0.0147 1.892,1.67153 1.86571,2.57559 -0.0159,0.54642 0.0977,1.07173 0.25242,1.16735 0.15471,0.0956 0.2813,-0.0736 0.2813,-0.37613 0,-0.65689 0.40555,-0.70889 0.98778,-0.12666 0.68188,0.68189 0.51331,1.69334 -0.28222,1.69334 -0.39198,0 -0.70556,0.23518 -0.70556,0.52916 0,0.29104 0.30813,0.52917 0.68473,0.52917 0.84297,0 1.25363,0.59078 0.8077,1.16198 -0.74382,0.95278 -0.73154,2.01177 0.0295,2.54483 0.41344,0.28959 0.61875,0.52652 0.45625,0.52652 -0.1625,0 -0.0354,0.39688 0.28242,0.88195 0.31783,0.48507 0.43398,0.88194 0.2581,0.88194 -0.28217,0 -0.59695,0.67638 -0.93267,2.00405 -0.0584,0.23092 0.11497,0.332 0.38903,0.22684 0.2719,-0.10434 0.49437,-0.014 0.49437,0.20081 0,0.37238 -0.5064,0.54551 -1.20625,0.4124 -0.17836,-0.0339 -0.14005,0.16032 0.0851,0.43165 0.22519,0.27133 0.30497,0.59779 0.17731,0.72546 -0.12767,0.12767 -0.007,0.23456 0.26764,0.23753 0.37055,0.004 0.38883,0.0759 0.0707,0.27804 -0.33236,0.21119 -0.3172,0.48825 0.0673,1.22932 0.30849,0.5946 0.35517,0.95668 0.12333,0.95668 -0.20515,0 -0.28997,0.3175 -0.18849,0.70556 0.10148,0.38805 0.035,0.70555 -0.14766,0.70555 -0.18729,0 -0.15927,0.32305 0.0643,0.74071 0.28164,0.52624 0.63966,0.69422 1.23647,0.58013 0.46202,-0.0883 0.7561,-0.0248 0.6535,0.14123 -0.10259,0.166 0.061,0.30182 0.36346,0.30182 0.30249,0 0.54998,0.15875 0.54998,0.35278 0,0.48627 0.95968,0.44503 1.26841,-0.0545 0.16656,-0.2695 0.0955,-0.31073 -0.21007,-0.12188 -0.28556,0.17648 -0.37613,0.1468 -0.23733,-0.0778 0.12345,-0.19976 0.63248,-0.36319 1.13118,-0.36319 0.81518,0 0.88424,0.10239 0.68396,1.01423 -0.1738,0.79134 -0.0972,1.01424 0.34859,1.01424 0.4809,0 0.55776,-0.39542 0.48552,-2.49766 z m -3.27633,-1.11832 c -0.38471,-1.24098 -0.41197,-2.38074 -0.0568,-2.37585 0.59649,0.008 1.12288,0.45292 1.38938,1.17378 0.17419,0.47117 0.0469,0.70058 -0.46274,0.83385 -0.38668,0.10112 -0.61609,0.32456 -0.50981,0.49652 0.10629,0.17197 0.0995,0.31267 -0.015,0.31267 -0.11456,0 -0.2698,-0.19843 -0.34499,-0.44097 z m 7.56718,-20.74651 c 0,-0.20548 0.15875,-0.27549 0.35278,-0.15557 0.19403,0.11991 0.35278,0.28803 0.35278,0.3736 0,0.0856 -0.15875,0.15556 -0.35278,0.15556 -0.19403,0 -0.35278,-0.16811 -0.35278,-0.37359 z m -14.46389,-0.33196 c 0,-0.19403 0.15875,-0.35278 0.35278,-0.35278 0.19403,0 0.35278,0.15875 0.35278,0.35278 0,0.19403 -0.15875,0.35278 -0.35278,0.35278 -0.19403,0 -0.35278,-0.15875 -0.35278,-0.35278 z m -7.76111,5.29167 c 0,-0.19403 -0.2475,-0.35278 -0.54999,-0.35278 -0.30249,0 -0.45187,0.15875 -0.33196,0.35278 0.11992,0.19402 0.36741,0.35277 0.54999,0.35277 0.18258,0 0.33196,-0.15875 0.33196,-0.35277 z m -1.87691,-0.80809 c 0.14385,-0.23276 1.6e-4,-0.28243 -0.38713,-0.13381 -0.33874,0.12999 -0.8504,0.23634 -1.13702,0.23634 -0.28663,0 -0.43224,0.14385 -0.32358,0.31966 0.23947,0.38747 1.5295,0.0927 1.84773,-0.42219 z m 8.71974,-0.54423 c 0.0999,-0.16169 -0.0425,-0.29398 -0.31644,-0.29398 -0.27397,0 -0.41637,0.13229 -0.31644,0.29398 0.0999,0.16169 0.24233,0.29398 0.31644,0.29398 0.0741,0 0.21651,-0.13229 0.31644,-0.29398 z m 1.62384,-1.96133 c 0,-0.0763 -0.24637,-0.23319 -0.54749,-0.34874 -0.31395,-0.12047 -0.45555,-0.0613 -0.33196,0.13865 0.20717,0.33521 0.87945,0.49581 0.87945,0.21009 z m 17.87987,-0.63306 c -0.11261,-0.28142 -0.1962,-0.19783 -0.21313,0.21314 -0.0153,0.37189 0.0681,0.58025 0.18529,0.46302 0.11722,-0.11722 0.12975,-0.4215 0.0278,-0.67616 z m -21.05487,-0.30768 c 0,-0.14093 -0.23813,-0.34761 -0.52917,-0.4593 -0.30338,-0.11642 -0.52917,-0.007 -0.52917,0.25624 0,0.25261 0.23813,0.4593 0.52917,0.4593 0.29104,0 0.52917,-0.11531 0.52917,-0.25624 z m -5.02709,-0.47003 c -0.33955,-0.25776 -0.61736,-0.64958 -0.61736,-0.87072 0,-0.22115 -0.24371,-0.40209 -0.54158,-0.40209 -1.08938,0 0.29005,1.67139 1.42352,1.72482 0.19403,0.009 0.075,-0.19425 -0.26458,-0.45201 z m -3.36903,-0.99058 c -0.32926,-0.32926 -0.51741,-0.32926 -0.84666,0 -0.32926,0.32925 -0.23519,0.42333 0.42333,0.42333 0.65852,0 0.75259,-0.0941 0.42333,-0.42333 z m 5.28098,-0.81139 c -0.58711,-1.29533 -1.1182,-1.61942 -1.1182,-0.68237 0,0.84417 0.6739,1.91709 1.20412,1.91709 0.3801,0 0.36312,-0.24405 -0.0859,-1.23472 z m -8.87931,-0.88195 c 0,-0.19403 -0.27781,-0.35034 -0.61736,-0.34737 -0.5276,0.005 -0.54042,0.0551 -0.0882,0.34737 0.66576,0.43025 0.70555,0.43025 0.70555,0 z m 28.57312,-0.60383 c 0.38909,0.10175 0.70744,0.0679 0.70744,-0.0751 0,-0.43768 -1.67174,-1.18351 -2.08303,-0.92932 -0.21253,0.13135 -0.38641,0.0707 -0.38641,-0.13478 0,-0.66364 -0.87444,-0.39668 -1.37623,0.42016 -0.48588,0.79093 -0.48492,0.79136 0.26792,0.12171 0.74419,-0.66195 0.75553,-0.66151 0.75553,0.0294 0,0.94633 0.36482,1.24821 0.9358,0.77433 0.25935,-0.21524 0.7899,-0.3081 1.17898,-0.20635 z M 138.50393,160.031 c -0.1287,-0.4055 -0.38175,-0.64595 -0.56233,-0.53435 -0.19749,0.12206 -0.17598,0.4876 0.054,0.91728 0.47313,0.88406 0.82609,0.61818 0.50835,-0.38293 z m 2.17445,-1.14595 c -0.11261,-0.28142 -0.1962,-0.19783 -0.21313,0.21314 -0.0153,0.37189 0.0681,0.58025 0.18529,0.46302 0.11722,-0.11723 0.12975,-0.4215 0.0278,-0.67616 z m 29.92152,-0.28663 c -0.11992,-0.19403 -0.68491,-0.35278 -1.25554,-0.35278 -0.57064,0 -1.03752,-0.15875 -1.03752,-0.35277 0,-0.19907 -0.88385,-0.33481 -2.02847,-0.31154 l -2.02847,0.0412 1.88727,0.3137 c 1.038,0.17254 2.14925,0.46665 2.46944,0.65359 0.77337,0.45151 2.27103,0.45794 1.99329,0.009 z m -20.6375,-1.39029 c 0,-0.18257 -0.15875,-0.43007 -0.35278,-0.54999 -0.19403,-0.11991 -0.35278,0.0295 -0.35278,0.33196 0,0.30249 0.15875,0.54999 0.35278,0.54999 0.19403,0 0.35278,-0.14938 0.35278,-0.33196 z m 6.35,-0.0208 c 0.4279,-0.27653 0.37727,-0.343 -0.26458,-0.34738 -0.43657,-0.003 -0.79375,0.15335 -0.79375,0.34738 0,0.442 0.37438,0.442 1.05833,0 z m -2.84829,-1.26613 c -0.34049,-0.41027 -0.22108,-0.49776 0.67937,-0.49776 0.86415,0 1.21029,-0.22785 1.65624,-1.09021 0.54317,-1.05038 0.53814,-1.08208 -0.13764,-0.8676 -0.86864,0.2757 -1.32203,-0.36455 -0.74797,-1.05625 0.23449,-0.28254 0.29578,-0.51372 0.13621,-0.51372 -0.15958,0 -0.0996,-0.1905 0.13319,-0.42333 0.32926,-0.32926 0.51741,-0.32926 0.84667,0 0.6257,0.6257 1.14986,0.51454 0.61464,-0.13036 -0.25274,-0.30453 -0.72999,-0.48296 -1.06058,-0.39651 -0.89331,0.23361 -1.67973,-0.90028 -1.52803,-2.20319 0.10995,-0.94429 0.0308,-1.09297 -0.49342,-0.9266 -0.47154,0.14966 -0.64192,-0.0137 -0.69602,-0.66737 -0.0394,-0.47604 -0.0928,-0.9917 -0.11867,-1.14589 -0.15594,-0.92956 0.0888,-2.22995 0.38526,-2.04674 0.19998,0.12359 0.25911,-0.018 0.13864,-0.33196 -0.25698,-0.6697 0.33876,-0.72317 0.87384,-0.0784 0.23036,0.27756 0.82407,0.40524 1.45431,0.31274 0.89821,-0.13183 1.06503,-0.0395 1.06503,0.58928 0,0.84329 -0.9937,1.01987 -1.71424,0.30462 -0.35601,-0.3534 -0.4012,-0.32786 -0.22753,0.12861 0.11918,0.31327 0.61495,0.75103 1.1017,0.97282 0.52325,0.2384 0.79521,0.25793 0.66533,0.0478 -0.31103,-0.50327 0.29977,-0.44209 0.82443,0.0826 0.34884,0.34884 0.49788,0.34118 0.73201,-0.0377 0.2051,-0.33184 0.36696,-0.35762 0.5353,-0.0852 0.13272,0.21474 0.088,0.39044 -0.0993,0.39044 -0.18731,0 -0.25519,0.32648 -0.15084,0.72551 0.11541,0.44135 0.38404,0.65094 0.68588,0.53511 0.63682,-0.24437 1.04174,0.77764 0.51629,1.30309 -0.55117,0.55118 -0.50166,1.65261 0.0844,1.8775 0.2662,0.10215 0.58104,0.89366 0.69964,1.7589 0.34008,2.48119 1.08956,3.65193 2.25271,3.51889 0.58831,-0.0673 0.95785,-0.31376 0.93416,-0.62304 -0.0255,-0.33319 0.30118,-0.5117 0.93654,-0.5117 1.04632,0 2.22829,-0.90074 1.81988,-1.38688 -0.13628,-0.16223 0.0605,-0.0621 0.4373,0.22258 0.42838,0.32362 0.58581,0.35231 0.42015,0.0766 -0.33787,-0.56239 0.20716,-0.57497 0.76449,-0.0176 0.32926,0.32926 0.42333,0.29006 0.42333,-0.17639 0,-0.32985 0.14771,-0.59972 0.32825,-0.59972 0.18053,0 0.37897,-0.35719 0.44097,-0.79375 0.13572,-0.95567 0.71284,-1.0539 0.84638,-0.14407 0.10992,0.74894 0.50107,1.25523 0.50107,0.64857 0,-0.22376 0.55563,-0.639 1.23472,-0.92274 0.6791,-0.28374 1.23473,-0.67111 1.23473,-0.86081 0,-0.58673 -1.21178,-0.62887 -1.64686,-0.0573 -0.47036,0.61796 -0.7838,0.42516 -0.98201,-0.60408 -0.10732,-0.55727 0.0106,-0.67424 0.54023,-0.53575 0.37264,0.0974 0.67752,-9e-5 0.67752,-0.21675 0,-0.61264 1.33723,-0.4633 1.70294,0.19019 0.2966,0.52999 0.42942,0.5111 1.43343,-0.20382 1.39914,-0.99628 3.41806,-3.62408 3.98153,-5.18235 0.2377,-0.65734 0.59966,-1.19516 0.80436,-1.19516 0.4559,0 1.15474,-1.51992 1.46106,-3.17768 0.12521,-0.67762 0.45303,-1.59371 0.7285,-2.03576 0.27546,-0.44204 0.4012,-0.96493 0.27942,-1.16198 -0.12178,-0.19705 -0.0374,-0.57997 0.18747,-0.85094 0.22489,-0.27098 0.37329,-0.77996 0.32978,-1.13108 -0.0435,-0.35112 0.0722,-1.00832 0.2571,-1.46045 0.4085,-0.99883 0.32939,-2.34799 -0.22071,-3.76406 -0.22613,-0.58208 -0.41348,-1.1377 -0.41634,-1.23472 -0.003,-0.097 -0.16412,-0.36787 -0.35835,-0.60191 -0.19423,-0.23403 -0.24516,-0.60024 -0.11318,-0.8138 0.41451,-0.67068 -0.12874,-2.10929 -0.71199,-1.88548 -0.28906,0.11092 -0.52557,0.36043 -0.52557,0.55446 0,0.19402 0.23004,0.2645 0.5112,0.15661 0.33393,-0.12814 0.44614,-0.0266 0.32358,0.29276 -0.10319,0.26891 -0.4126,0.40258 -0.68759,0.29707 -0.61551,-0.2362 -0.67308,0.45892 -0.059,0.71243 0.27977,0.1155 0.18034,0.26252 -0.27199,0.4022 -0.58628,0.18103 -0.69006,0.46039 -0.58404,1.57216 0.15465,1.62163 -0.41947,2.84128 -1.33747,2.84128 -0.68169,0 -1.29275,1.15741 -1.10749,2.09769 0.0841,0.42696 0.009,0.4343 -0.46001,0.045 -0.30829,-0.25586 -0.56052,-0.34177 -0.56052,-0.19093 0,0.15084 -0.27782,0.026 -0.61737,-0.27742 -0.33954,-0.30342 -1.00355,-0.60584 -1.47555,-0.67204 -0.58864,-0.0825 -0.93918,-0.42507 -1.11602,-1.0905 -0.27455,-1.03306 -0.023,-1.23871 0.66894,-0.5468 0.4314,0.43141 0.4559,0.39591 0.56444,-0.81783 0.0194,-0.21698 -0.53843,-0.42934 -1.23964,-0.47191 -1.09196,-0.0663 -1.25002,0.0178 -1.10145,0.58592 0.11436,0.43732 0.008,0.62814 -0.31259,0.56009 -0.26867,-0.0571 -0.43684,0.12326 -0.37603,0.40321 0.0605,0.27853 0.015,0.88519 -0.10125,1.34813 -0.16693,0.66512 -0.4121,0.82065 -1.16855,0.7413 -0.52652,-0.0552 -1.18017,0.0373 -1.45257,0.20568 -0.33825,0.20905 -0.41547,0.17697 -0.24355,-0.10119 0.14831,-0.23997 0.0303,-0.40729 -0.2872,-0.40729 -0.3341,0 -0.46174,0.20111 -0.33586,0.52917 0.13584,0.35398 -0.0151,0.52916 -0.45591,0.52916 -0.36244,0 -1.05237,0.47625 -1.53318,1.05834 -0.48081,0.58208 -1.09136,1.05833 -1.35678,1.05833 -0.28404,0 -0.39905,0.21772 -0.27953,0.52917 0.12027,0.31343 0.004,0.52916 -0.28564,0.52916 -0.26878,0 -0.55113,-0.18731 -0.62745,-0.41624 -0.0798,-0.23941 -0.40153,-0.31541 -0.75731,-0.17888 -0.34021,0.13055 -0.52642,0.38645 -0.4138,0.56867 0.12112,0.19599 -0.51982,0.27736 -1.5692,0.19924 -1.77262,-0.13198 -1.77389,-0.1313 -1.69486,0.9059 0.0711,0.93346 0.63457,1.54186 0.63457,0.6852 0,-0.19402 0.24867,-0.35277 0.5526,-0.35277 0.39094,0 0.51994,0.27413 0.44097,0.93705 -0.117,0.98223 -0.16798,1.00327 -3.11024,1.28404 -2.1407,0.20428 -2.57495,0.33759 -3.0425,0.93396 -0.32613,0.41598 -0.44466,0.3024 -0.64731,-0.62029 -0.13645,-0.62124 -0.56031,-1.29662 -0.94192,-1.50085 -0.47485,-0.25413 -0.62531,-0.58723 -0.47672,-1.0554 0.28781,-0.90681 0.0274,-0.86265 -1.00583,0.17062 -0.53448,0.53447 -0.73763,0.99596 -0.54226,1.23178 0.17183,0.2074 0.20945,0.30323 0.0836,0.21294 -0.12586,-0.0903 -0.65827,0.0895 -1.18315,0.39958 -0.88688,0.52389 -1.02601,0.517 -1.96901,-0.0975 l -1.0147,-0.66122 1.57754,-0.18018 1.57754,-0.18017 -1.19248,-0.26117 c -0.91524,-0.20045 -1.46886,-0.0904 -2.38127,0.47355 -1.05898,0.65448 -1.21262,0.67263 -1.40694,0.16624 -0.14655,-0.3819 -0.45048,-0.49472 -0.9261,-0.34377 -0.47018,0.14923 -0.62688,0.0935 -0.46657,-0.16588 0.13552,-0.21927 0.009,-0.39057 -0.28778,-0.39057 -0.29104,0 -0.62728,0.15875 -0.74719,0.35278 -0.11992,0.19403 -0.46248,0.35278 -0.76126,0.35278 -0.29877,0 -1.10438,0.26629 -1.79024,0.59174 -1.10908,0.5263 -1.29056,0.53263 -1.64081,0.0572 -0.2166,-0.29399 -0.58993,-0.46844 -0.82964,-0.38768 -0.62338,0.21004 -2.61133,-1.29295 -2.36438,-1.78758 0.11369,-0.2277 -0.0432,-0.10584 -0.34863,0.27079 -0.30543,0.37663 -0.57517,0.57507 -0.59942,0.44097 -0.15752,-0.87092 -0.11463,-1.15457 0.20868,-1.3803 0.42941,-0.2998 -0.13322,-1.3813 -0.84141,-1.61736 -0.3484,-0.11614 -0.36249,0.0136 -0.0624,0.57428 0.36232,0.67699 0.31004,0.7117 -0.80069,0.53145 -0.94871,-0.15395 -1.29566,-0.0396 -1.72064,0.56715 -0.46126,0.65854 -0.56171,0.68338 -0.75255,0.18607 -0.12113,-0.31566 -0.22023,-0.87844 -0.22023,-1.25063 0,-0.49079 -0.24802,-0.6767 -0.90277,-0.6767 -0.49652,0 -0.81691,-0.1389 -0.71198,-0.30868 0.37084,-0.60004 -1.53197,-0.29928 -2.23187,0.35278 -0.76422,0.71198 -1.27061,0.88265 -0.91588,0.30868 0.11991,-0.19403 0.0314,-0.35278 -0.19671,-0.35278 -0.24106,0 -0.33748,0.29547 -0.23024,0.70556 0.1146,0.43823 0.0108,0.70555 -0.27389,0.70555 -0.25212,0 -0.54977,0.23813 -0.66146,0.52917 -0.11168,0.29104 -0.0323,0.52917 0.17639,0.52917 0.2087,0 0.28244,0.25281 0.16386,0.56181 -0.14382,0.37479 0.0198,0.62336 0.49142,0.7467 0.76937,0.20119 0.96067,1.01758 0.29077,1.24089 -0.23379,0.0779 -0.30504,0.36142 -0.16255,0.64675 0.62597,1.25348 1.17111,2.02718 1.99024,2.82468 0.48489,0.47209 0.9278,1.07628 0.98426,1.34265 0.0564,0.26638 0.45332,0.77703 0.88194,1.13479 0.42862,0.35777 0.66745,0.65576 0.53075,0.66221 -0.82145,0.0388 5.44241,5.22115 6.68888,5.53399 0.67521,0.16947 1.0488,-0.007 1.69791,-0.8004 0.45772,-0.55973 0.83794,-1.22746 0.84492,-1.48385 0.0189,-0.69476 -0.93071,-1.5096 -1.83587,-1.57531 -0.75106,-0.0545 -2.73757,-1.83812 -2.73757,-2.45794 0,-0.15687 0.23722,-0.37625 0.52715,-0.48751 0.28992,-0.11126 0.46534,-0.30471 0.3898,-0.4299 -0.0755,-0.12519 0.0735,-0.42242 0.33127,-0.66051 0.3764,-0.34772 0.6172,-0.2436 1.22386,0.52917 0.41539,0.52913 0.66957,0.78762 0.56485,0.57442 -0.11523,-0.23457 0.22267,-0.39937 0.85578,-0.41737 0.82304,-0.0234 1.04619,0.12169 1.04619,0.68024 0,0.60793 -0.16482,0.68049 -1.14653,0.50477 -1.06457,-0.19054 -1.08772,-0.17516 -0.32388,0.21517 0.63265,0.32329 0.97654,0.3243 1.48887,0.004 0.55342,-0.34562 0.79557,-0.28228 1.4304,0.37416 0.72776,0.75254 0.75603,0.75608 0.59298,0.0743 -0.23229,-0.97137 0.68995,-1.87045 1.02446,-0.99873 0.1296,0.33773 0.0652,0.67087 -0.14316,0.74032 -0.69482,0.23161 -0.0471,1.44056 0.89902,1.67803 0.5133,0.12883 1.04732,0.41876 1.1867,0.64428 0.19252,0.3115 0.35208,0.31141 0.66388,-3.5e-4 0.48802,-0.48801 1.47969,-0.20218 1.1499,0.33144 -0.13365,0.21625 -0.0594,0.26559 0.17841,0.1186 0.67061,-0.41446 1.21023,0.12945 0.71748,0.72318 -0.23629,0.28472 -0.28369,0.48991 -0.10533,0.45598 0.17837,-0.0339 0.40368,-0.0307 0.50069,0.007 0.91809,0.35794 1.30917,0.23033 1.15074,-0.37549 -0.21373,-0.81733 0.67773,-0.91121 1.31871,-0.13889 0.24154,0.29104 0.32091,0.52917 0.17638,0.52917 -0.14453,0 -0.078,0.22269 0.14792,0.49486 0.33031,0.398 0.21793,0.56517 -0.57416,0.85409 -0.80289,0.29286 -0.85449,0.3719 -0.27931,0.42778 0.38805,0.0377 0.8643,0.10543 1.05833,0.15051 0.19403,0.0451 0.55122,0.10614 0.79375,0.13569 0.5336,0.065 0.59704,1.11207 0.0674,1.11207 -0.20548,0 -0.28152,0.14899 -0.16897,0.3311 0.11254,0.1821 -0.0765,0.49477 -0.42016,0.69482 -0.585,0.34058 -0.58163,0.36442 0.053,0.37446 0.37278,0.006 0.98239,-0.26493 1.35468,-0.60185 0.64811,-0.58654 0.70686,-0.57146 1.38144,0.35459 0.3875,0.53195 0.85717,0.87285 1.04371,0.75757 0.2082,-0.12868 0.17965,-0.4018 -0.0739,-0.70738 z m 7.93919,-1.59553 c -0.13332,-0.21573 -0.0281,-0.52468 0.23388,-0.68658 0.38802,-0.23981 0.37461,-0.33337 -0.0724,-0.50491 -0.57758,-0.22163 -0.77192,-1.23852 -0.2367,-1.23852 0.2692,0 1.33432,2.10301 1.33432,2.63451 0,0.35333 -1.01636,0.18826 -1.2591,-0.2045 z m 1.95168,-0.64187 c 0.21482,-0.40139 0.30154,-0.7298 0.19272,-0.7298 -0.10883,0 0.076,-0.51594 0.41081,-1.14653 0.46662,-0.87894 0.63944,-1.00244 0.74048,-0.52917 0.0725,0.33955 0.25099,0.61736 0.39665,0.61736 0.14566,0 0.24161,0.51594 0.21322,1.14653 -0.046,1.02242 -0.17572,1.1587 -1.19804,1.25897 -1.06151,0.10411 -1.11749,0.0584 -0.75584,-0.61736 z m -10.39397,-0.0242 c -0.3813,-0.61696 0.18413,-1.13829 0.73696,-0.67949 0.27377,0.22721 0.49776,0.55242 0.49776,0.72269 0,0.4253 -0.96606,0.3915 -1.23472,-0.0432 z m -2.46494,-0.34548 c -0.11744,-0.19002 -0.0418,-0.66627 0.16798,-1.05834 0.46116,-0.86169 0.7766,-0.94551 0.46076,-0.12243 -0.16757,0.43665 -0.0819,0.53488 0.32908,0.37719 0.36379,-0.1396 0.61716,0.022 0.73377,0.46792 0.13864,0.53014 -0.005,0.68114 -0.64997,0.68114 -0.45545,0 -0.92418,-0.15547 -1.04162,-0.34548 z m 2.36572,-2.17908 c 0.0546,-0.26073 -0.0992,-0.43436 -0.34175,-0.38585 -0.24254,0.0485 -0.45312,-0.11025 -0.46797,-0.35278 -0.0148,-0.24254 -0.0786,-0.70781 -0.14159,-1.03394 -0.13239,-0.68499 0.55545,-1.05675 1.20847,-0.65316 0.28238,0.17452 0.35405,0.56812 0.1948,1.06987 -0.18192,0.57315 -0.13396,0.72086 0.17255,0.53143 0.2818,-0.17416 0.38344,-0.0506 0.30237,0.36756 -0.0672,0.34645 -0.3255,0.69763 -0.5741,0.78041 -0.2486,0.0828 -0.40735,-0.0628 -0.35278,-0.32354 z m 9.75883,-0.14204 c -0.023,-0.1826 -0.023,-0.45107 0,-0.59659 0.023,-0.14552 -0.17936,-0.26459 -0.44964,-0.26459 -0.74009,0 -1.02763,-1.05592 -0.29126,-1.06955 0.53359,-0.01 0.52169,-0.079 -0.0993,-0.57663 -0.64429,-0.5163 -0.64806,-0.54543 -0.0435,-0.33547 0.36414,0.12647 0.88007,0.049 1.14652,-0.17212 0.73435,-0.60945 0.57935,0.15499 -0.20133,0.99295 -0.6792,0.72904 -0.67919,0.73782 3.6e-4,0.91556 0.37744,0.0987 0.60408,0.0465 0.50364,-0.11604 -0.10045,-0.16252 -0.0213,-0.39521 0.1759,-0.51708 0.19719,-0.12187 0.35348,-0.0138 0.34731,0.2402 -0.0137,0.56445 -1.03038,1.96436 -1.08889,1.49936 z m -15.05903,-1.10059 c 0.37417,-0.0986 0.52669,-0.38026 0.4077,-0.75283 -0.15708,-0.49183 -0.12708,-0.50624 0.17266,-0.0829 0.45276,0.63939 0.20054,1.08791 -0.58162,1.03425 -0.55881,-0.0383 -0.55873,-0.0509 0.001,-0.19849 z m 17.57025,-0.11336 c 0,-0.19403 0.16812,-0.35278 0.3736,-0.35278 0.20548,0 0.27549,0.15875 0.15557,0.35278 -0.11992,0.19402 -0.28804,0.35277 -0.3736,0.35277 -0.0856,0 -0.15557,-0.15875 -0.15557,-0.35277 z m 5.65567,-0.61736 c -0.006,-0.24254 -0.24935,-0.44098 -0.54039,-0.44098 -0.29104,0 -0.52916,-0.23812 -0.52916,-0.52916 0,-0.29104 -0.22876,-0.52917 -0.50835,-0.52917 -0.27959,0 -0.59816,-0.14532 -0.70793,-0.32293 -0.11303,-0.18288 0.52816,-0.28054 1.47848,-0.22519 1.84264,0.10733 2.22962,0.62159 1.34671,1.78967 -0.2929,0.38751 -0.53314,0.50232 -0.53936,0.25776 z m -23.56657,-0.85966 c 0.17578,-0.52735 0.97757,-0.8177 0.97757,-0.35401 0,0.18944 -0.25139,0.4409 -0.55865,0.5588 -0.34357,0.13184 -0.50485,0.053 -0.41892,-0.20479 z m 1.81887,0.14279 c -0.21639,-0.1393 -0.50072,-0.59731 -0.63186,-1.01778 -0.20591,-0.66024 -0.12818,-0.73843 0.56982,-0.57328 0.7958,0.1883 0.79738,0.1826 0.10268,-0.37079 -0.75006,-0.5975 -0.34924,-0.79463 0.51016,-0.25091 0.31773,0.20101 0.77711,0.17989 1.21786,-0.056 0.51562,-0.27595 0.7444,-0.26867 0.84289,0.0268 0.0744,0.22306 0.24743,0.3362 0.3846,0.25142 0.13718,-0.0848 0.27251,0.15235 0.30073,0.52697 0.0282,0.37461 -0.10695,0.68111 -0.30037,0.68111 -0.19342,0 -0.2384,-0.18328 -0.1,-0.40729 0.16672,-0.26975 0.0955,-0.31071 -0.21099,-0.12131 -0.2545,0.15729 -1.03309,0.26556 -1.73021,0.24061 -0.83124,-0.0297 -1.10091,0.0587 -0.78351,0.2569 0.26618,0.16625 0.42493,0.47429 0.35277,0.68454 -0.0721,0.21025 -0.30823,0.2683 -0.52461,0.12899 z m 23.85315,-0.36192 c -1.04771,-0.34359 -1.40144,-1.42769 -0.44098,-1.35146 0.35791,0.0284 0.57333,-0.15724 0.51259,-0.44173 -0.13584,-0.63619 0.91864,-2.86066 1.35605,-2.86066 0.65007,0 0.32733,1.37762 -0.45753,1.95293 l -0.79375,0.58184 0.87918,-0.25994 c 0.75115,-0.22209 0.81581,-0.18359 0.44403,0.26438 -0.23932,0.28837 -0.34095,0.6185 -0.22583,0.73363 0.37083,0.37083 -0.72645,1.5605 -1.27376,1.38101 z m -41.89237,-0.75339 c -0.43656,-0.36419 -0.79375,-0.8465 -0.79375,-1.07179 0,-0.24446 0.23029,-0.17933 0.57116,0.16154 0.31414,0.31414 0.66368,0.47864 0.77676,0.36556 0.11308,-0.11307 -0.22332,-0.60331 -0.74755,-1.08941 -0.52423,-0.48609 -0.95315,-1.06259 -0.95315,-1.2811 0,-0.21851 0.0957,-0.3016 0.21266,-0.18464 0.11697,0.11697 0.58562,0.0709 1.04145,-0.10244 0.66017,-0.251 0.78866,-0.21053 0.63154,0.19891 -0.10849,0.28271 -0.45807,0.51907 -0.77687,0.52524 -0.49781,0.01 -0.48515,0.0827 0.0897,0.51786 0.36814,0.27866 0.84439,0.39727 1.05834,0.26357 0.21395,-0.13369 0.65178,-0.28406 0.97296,-0.33416 0.51087,-0.0797 0.53295,0.0515 0.17638,1.04812 -0.37635,1.05197 -0.85649,1.6668 -1.28951,1.65125 -0.097,-0.004 -0.53357,-0.30431 -0.97014,-0.66851 z m 35.12344,0.44466 c 0.25466,-0.1019 0.55894,-0.0894 0.67616,0.0278 0.11722,0.11722 -0.0911,0.2006 -0.46302,0.18528 -0.41097,-0.0169 -0.49456,-0.10052 -0.21314,-0.21313 z m -23.56996,-0.46457 c 0,-0.19403 0.14938,-0.35278 0.33195,-0.35278 0.18258,0 0.43007,0.15875 0.54999,0.35278 0.11992,0.19403 -0.0295,0.35278 -0.33196,0.35278 -0.30249,0 -0.54998,-0.15875 -0.54998,-0.35278 z m 18.77798,-0.0659 c 0.17579,-0.52735 0.97757,-0.8177 0.97757,-0.35402 0,0.18944 -0.25139,0.4409 -0.55864,0.55881 -0.34358,0.13184 -0.50486,0.053 -0.41893,-0.20479 z m -2.19743,-0.99243 c 0,-0.19403 0.15875,-0.35278 0.35278,-0.35278 0.19403,0 0.35278,0.15875 0.35278,0.35278 0,0.19403 -0.15875,0.35278 -0.35278,0.35278 -0.19403,0 -0.35278,-0.15875 -0.35278,-0.35278 z m -11.45021,-0.68118 c -0.11163,-0.18062 -0.039,-0.42971 0.16132,-0.55354 0.20036,-0.12383 0.27973,-0.36196 0.17639,-0.52917 -0.10334,-0.16721 -0.0375,-0.39696 0.14626,-0.51054 0.18379,-0.11359 0.42958,-0.0521 0.54622,0.1366 0.11663,0.18872 0.46676,0.24539 0.77806,0.12593 0.38603,-0.14813 0.51282,-0.0591 0.39874,0.27999 -0.092,0.27345 -0.55023,0.50714 -1.01828,0.5193 -0.46805,0.0122 -0.81131,0.2106 -0.7628,0.44097 0.10514,0.49935 -0.1409,0.55161 -0.42591,0.0905 z m -19.53769,-1.08271 c -0.25766,-0.58208 -0.67776,-1.05833 -0.93355,-1.05833 -0.2558,0 -0.63937,-0.49994 -0.85238,-1.11098 -0.53415,-1.53228 -0.49234,-1.7901 0.23008,-1.41855 0.33954,0.17464 0.8033,0.25053 1.03057,0.16866 0.26408,-0.0951 0.35818,0.14488 0.26074,0.66503 -0.14021,0.7484 -0.11668,0.74038 0.29234,-0.0996 0.24465,-0.50241 0.63076,-0.85054 0.85803,-0.7736 0.26915,0.0911 0.34274,-0.1296 0.21109,-0.63306 -0.1468,-0.56137 -0.0668,-0.72784 0.29234,-0.6082 0.31029,0.10337 0.51328,0.73016 0.54497,1.68274 0.0278,0.83491 -0.0589,1.34103 -0.19259,1.12471 -0.16269,-0.26324 -0.43729,-0.1665 -0.83033,0.29254 -0.61313,0.71609 -0.25178,1.29794 0.53145,0.85575 0.35277,-0.19917 0.35277,-0.15394 0,0.22613 -0.24254,0.26129 -0.44098,0.76083 -0.44098,1.11008 0,0.96287 -0.47751,0.76108 -1.00178,-0.42333 z m 8.7629,0.70556 c 0,-0.19403 0.23812,-0.35278 0.52916,-0.35278 0.29105,0 0.52917,0.15875 0.52917,0.35278 0,0.19402 -0.23812,0.35277 -0.52917,0.35277 -0.29104,0 -0.52916,-0.15875 -0.52916,-0.35277 z m 38.09554,-1.41944 c -0.2932,-0.54785 -0.26092,-0.83502 0.13878,-1.23473 1.14481,-1.14481 2.16726,-0.36048 1.47595,1.13222 -0.46447,1.00289 -1.11089,1.04392 -1.61473,0.10251 z m -40.56499,0.05 c 0,-0.19402 0.15875,-0.45089 0.35278,-0.5708 0.19403,-0.11992 0.35278,-0.0593 0.35278,0.13475 0,0.19403 -0.15875,0.45089 -0.35278,0.5708 -0.19403,0.11992 -0.35278,0.0593 -0.35278,-0.13475 z m 15.20155,-0.53212 c -0.63857,-0.76943 0.0729,-1.63042 1.33401,-1.61445 l 0.92695,0.0118 -0.73904,0.61787 c -0.40647,0.33983 -0.80914,0.8282 -0.89484,1.08528 -0.12139,0.36419 -0.25987,0.34201 -0.62708,-0.10044 z m 7.12665,-0.18301 c -0.77223,-0.64459 -0.73508,-1.09039 0.0909,-1.09039 0.23608,0 0.50511,0.39687 0.59783,0.88194 0.0927,0.48507 0.15093,0.87666 0.12933,0.87021 -0.0216,-0.006 -0.38971,-0.30425 -0.81803,-0.66176 z m 12.77675,-0.0378 c 0.12187,-0.1972 0.36937,-0.26721 0.54999,-0.15557 0.48932,0.30241 0.39808,0.5141 -0.22159,0.5141 -0.30249,0 -0.45027,-0.16134 -0.3284,-0.35853 z m 4.43224,-1.19757 c -0.31828,-0.3835 -0.30795,-0.55844 0.045,-0.76211 0.25196,-0.1454 0.34042,-0.13445 0.19658,0.0243 -0.14383,0.15877 -0.0847,0.50173 0.13139,0.76211 0.2161,0.26039 0.31354,0.47343 0.21653,0.47343 -0.097,0 -0.36229,-0.22399 -0.58949,-0.49775 z m 2.14621,-0.2491 c -0.45448,-0.17206 -0.97042,-0.22379 -1.14653,-0.11494 -0.17611,0.10883 -0.3202,-0.21772 -0.3202,-0.7257 0,-0.63646 0.13709,-0.84618 0.44098,-0.67462 0.34494,0.19475 0.34859,0.14915 0.0167,-0.20939 -0.33356,-0.36038 -0.277,-0.64554 0.26458,-1.33405 0.37885,-0.48164 0.68883,-1.19825 0.68883,-1.59248 0,-0.39422 0.0913,-0.62545 0.20294,-0.51383 0.11162,0.11162 0.67556,0.0674 1.25321,-0.0983 1.30015,-0.37288 1.69599,0.30457 0.86837,1.48617 -0.30835,0.44022 -0.56064,1.06494 -0.56064,1.38827 0,0.32333 -0.19843,0.58049 -0.44097,0.57149 -1.16903,-0.0434 -1.67569,0.13848 -1.67569,0.60158 0,0.31065 0.43255,0.54961 1.1175,0.61736 0.9001,0.0891 1.0202,0.18843 0.61736,0.51089 -0.32553,0.26058 -0.78863,0.29113 -1.32647,0.0875 z m -24.66187,-0.20741 c -0.7508,-0.27728 -0.48567,-0.80962 0.40323,-0.80962 0.94343,0 1.52963,0.89713 0.61635,0.94325 -0.31823,0.0161 -0.77704,-0.0441 -1.01958,-0.13363 z m -20.49189,-0.6647 c -0.69364,-0.78489 -0.0871,-3.14353 0.80836,-3.14353 0.36461,0 0.72793,0.23813 0.80738,0.52917 0.1284,0.47037 0.10286,0.47037 -0.22979,0 -0.32585,-0.46076 -0.37493,-0.45316 -0.37963,0.0588 -0.003,0.32337 0.19236,0.65388 0.43407,0.73445 0.55676,0.18559 0.57294,1.36143 0.0267,1.94078 -0.53584,0.56831 -0.88419,0.5399 -1.46708,-0.11967 z m 37.125,-1.04329 c -0.29843,-1.18902 -0.007,-1.41162 0.96103,-0.73369 1.10919,0.77691 1.16602,1.63206 0.10846,1.63206 -0.61018,0 -0.90648,-0.24889 -1.06949,-0.89837 z m -42.4192,-0.62454 c -0.3853,-0.46597 -0.1335,-2.35764 0.31382,-2.35764 0.29618,0 1.39519,0.99245 1.39519,1.25992 0,0.0831 -0.30688,0.45807 -0.68196,0.83314 -0.51086,0.51086 -0.76853,0.57724 -1.02705,0.26458 z m 46.51179,-0.72695 c 0,-0.0733 0.27781,-0.35106 0.61736,-0.61736 0.55953,-0.43881 0.57201,-0.42633 0.1332,0.1332 -0.46086,0.58764 -0.75056,0.77451 -0.75056,0.48416 z m 2.34109,-1.10355 c -0.11125,-0.28993 -0.0579,-0.52714 0.11861,-0.52714 0.47821,0 0.77516,0.62692 0.40524,0.85554 -0.17686,0.10931 -0.41259,-0.0385 -0.52385,-0.3284 z m -48.3786,-0.87992 c -0.11991,-0.19403 0.11821,-0.35278 0.52917,-0.35278 0.41096,0 0.64908,0.15875 0.52917,0.35278 -0.11992,0.19403 -0.35805,0.35278 -0.52917,0.35278 -0.17113,0 -0.40925,-0.15875 -0.52917,-0.35278 z m 43.51985,-0.62448 c -0.17699,-1.10731 0.36962,-2.11195 0.87442,-1.60714 0.351,0.351 0.27802,1.52565 -0.0948,1.52565 -0.1798,0 -0.3873,0.27781 -0.46111,0.61736 -0.0785,0.36122 -0.21067,0.1389 -0.31853,-0.53587 z m -26.41235,19.42292 c 0.3889,0.1017 0.80028,0.0341 0.91419,-0.15021 0.27865,-0.45086 -0.56982,-1.43394 -1.07145,-1.24145 -0.21958,0.0843 -0.70074,-0.0673 -1.06924,-0.33672 -1.04787,-0.76622 -1.90509,-0.60044 -2.16066,0.41785 -0.12531,0.49927 -0.0887,1.03949 0.0815,1.20048 0.50038,0.47353 1.6854,0.61427 2.15951,0.25649 0.2415,-0.18224 0.75729,-0.24814 1.14618,-0.14644 z m -16.22555,-0.80719 c 0,-0.19403 -0.15875,-0.35278 -0.35278,-0.35278 -0.19403,0 -0.35278,0.15875 -0.35278,0.35278 0,0.19403 0.15875,0.35278 0.35278,0.35278 0.19403,0 0.35278,-0.15875 0.35278,-0.35278 z m 11.99445,-0.17639 c -0.24155,-0.29104 -0.5735,-0.52917 -0.73768,-0.52917 -0.16418,0 -0.20714,0.23813 -0.0954,0.52917 0.11168,0.29104 0.44364,0.52917 0.73768,0.52917 0.43521,0 0.45296,-0.0984 0.0954,-0.52917 z m 18.35348,-5.97344 c -0.17422,-0.45825 -0.22107,-0.92888 -0.10411,-1.04584 0.11697,-0.11697 -0.21067,-0.21267 -0.72807,-0.21267 -0.51741,0 -0.94075,0.15875 -0.94075,0.35278 0,0.19403 0.15875,0.35278 0.35278,0.35278 0.19403,0 0.35278,0.20638 0.35278,0.45861 0,0.59263 0.73527,1.32856 1.10133,1.10232 0.15555,-0.0961 0.14027,-0.54973 -0.0339,-1.00798 z m 2.10763,0.15261 c 0,-0.19403 -0.16812,-0.35278 -0.3736,-0.35278 -0.20548,0 -0.27548,0.15875 -0.15557,0.35278 0.11992,0.19402 0.28804,0.35277 0.3736,0.35277 0.0856,0 0.15557,-0.15875 0.15557,-0.35277 z m -23.2069,-9.94246 c -0.53777,-0.53776 -0.86533,-0.2102 -0.56707,0.56706 0.16408,0.42759 0.34123,0.49369 0.60803,0.22689 0.2668,-0.26681 0.25487,-0.49812 -0.041,-0.79395 z m 4.99865,-0.12192 c 0.58907,-0.58906 0.43692,-1.41725 -0.31324,-1.70512 -0.68417,-0.26254 -1.66356,1.32112 -1.1405,1.84418 0.53178,0.53178 0.80947,0.50521 1.45374,-0.13906 z m -17.92852,-3.95854 c -0.17924,-1.65144 0.0905,-1.86541 1.38723,-1.10033 0.64883,0.38282 1.37445,0.93071 1.61249,1.21752 0.37641,0.45355 0.52194,0.4258 1.11705,-0.21297 0.44391,-0.47648 0.59196,-0.9449 0.42148,-1.33358 -0.14452,-0.32951 -0.23352,-0.78558 -0.19777,-1.01348 0.0358,-0.22791 -0.098,-0.51509 -0.29714,-0.63819 -0.32513,-0.20094 -0.51596,0.25468 -0.40391,0.96436 0.0506,0.32049 -0.0856,0.32895 -0.81131,0.0505 -0.6658,-0.25549 -0.73785,-1.06562 -0.11705,-1.31612 0.24253,-0.0979 -0.0843,-0.19046 -0.72638,-0.20578 -0.64204,-0.0153 -1.08039,-0.16856 -0.9741,-0.34052 0.10628,-0.17197 -0.12248,-0.39524 -0.50835,-0.49614 -0.6428,-0.1681 -1.04533,-1.00936 -0.43701,-0.91331 1.61331,0.25474 2.51691,-0.69299 1.30654,-1.37035 -0.45379,-0.25395 -0.48491,-0.56842 -0.18501,-1.86961 0.46209,-2.00496 0.47119,-3.15181 0.025,-3.15181 -0.19403,0 -0.35278,0.37743 -0.35278,0.83875 0,0.46131 -0.21899,1.02049 -0.48665,1.24263 -0.26766,0.22214 -0.60539,0.91626 -0.75051,1.5425 -0.14513,0.62624 -0.3235,1.37674 -0.3964,1.66778 -0.0729,0.29105 -0.23539,2.07698 -0.36111,3.96875 -0.22084,3.32317 -0.20371,3.43959 0.5062,3.43959 0.59192,0 0.71431,-0.18862 0.62949,-0.97014 z m 24.70923,-0.64622 c -0.11777,-0.30691 -0.21413,-0.62441 -0.21413,-0.70555 0,-0.0811 -0.14389,-0.14754 -0.31975,-0.14754 -0.17586,0 -0.23672,0.3175 -0.13524,0.70556 0.10148,0.38805 0.34172,0.70555 0.53388,0.70555 0.19216,0 0.25302,-0.2511 0.13524,-0.55802 z m -9.26058,-0.26789 0.91197,-0.47314 -1.20774,-0.37066 c -1.24591,-0.38238 -1.68421,-0.0932 -1.32779,0.87596 0.20597,0.5601 0.49293,0.55441 1.62356,-0.0322 z m 3.04923,-0.0684 c 0,-0.49579 -1.17256,-1.89891 -1.44578,-1.73006 -0.35151,0.21726 0.65372,1.91886 1.13357,1.91886 0.17172,0 0.31221,-0.085 0.31221,-0.1888 z m 16.58056,-1.04592 c 0,-0.32926 -0.33318,-0.52917 -0.88195,-0.52917 -0.92257,0 -1.19981,0.51849 -0.44097,0.8247 0.84017,0.33901 1.32292,0.23117 1.32292,-0.29553 z m 2.16166,-0.0882 c 0.44786,-0.57106 0.43126,-0.57855 -0.22139,-0.0998 -0.38805,0.28464 -0.7717,0.56245 -0.85254,0.61736 -0.0808,0.0549 0.0188,0.0998 0.22139,0.0998 0.2026,0 0.58625,-0.27781 0.85254,-0.61736 z m -3.14015,-3.20193 c 0.4838,-0.4838 1.33126,-0.5518 1.33126,-0.10681 0,0.55163 5.84773,-0.84018 7.40834,-1.76325 0.55153,-0.32622 1.53075,-0.78412 3.39098,-1.58566 0.60386,-0.26019 1.29799,-0.71413 1.5425,-1.00876 0.24452,-0.29462 0.64396,-0.53567 0.88765,-0.53567 0.24369,0 1.13706,-0.89966 1.98527,-1.99924 1.46149,-1.8946 1.53561,-2.10199 1.41609,-3.9625 -0.11918,-1.85541 -0.23237,-2.06536 -2.06018,-3.8216 -1.06374,-1.02208 -2.00143,-1.85833 -2.08375,-1.85833 -0.0823,0 0.23163,0.59531 0.69767,1.32292 0.97573,1.52334 1.4274,3.13003 0.96096,3.41831 -0.17652,0.1091 -0.235,0.52703 -0.12996,0.92874 0.11526,0.44072 -0.10774,1.13446 -0.56228,1.74925 -0.41431,0.56038 -0.75329,1.18406 -0.75329,1.38594 0,0.20189 -0.16812,0.36706 -0.37359,0.36706 -0.20548,0 -0.27549,0.15875 -0.15557,0.35278 0.11991,0.19403 0.0312,0.35278 -0.19719,0.35278 -0.22838,0 -0.93066,0.43656 -1.56064,0.97014 -1.09635,0.92859 -4.55909,2.96519 -5.29773,3.11586 -0.19403,0.0396 -1.78153,0.42272 -3.52778,0.85143 -1.74625,0.42872 -3.73062,0.83092 -4.40972,0.89378 -0.6791,0.0629 -2.14753,0.22751 -3.26319,0.3659 -1.48661,0.18439 -2.02848,0.13802 -2.02848,-0.17359 0,-0.29189 -0.52535,-0.3809 -1.67569,-0.28392 -0.92163,0.0777 -2.23132,0.0208 -2.91042,-0.12632 -0.67909,-0.14717 -1.85771,-0.36265 -2.61915,-0.47884 -0.76144,-0.11619 -1.55519,-0.34579 -1.76389,-0.51021 -0.2087,-0.16442 -1.01446,-0.50006 -1.79057,-0.74586 -4.88504,-1.54714 -8.72179,-5.24176 -9.15647,-8.81726 -0.059,-0.48507 -0.0113,-1.04069 0.10597,-1.23472 0.11725,-0.19403 0.26593,-0.73688 0.33039,-1.20634 0.10405,-0.75777 -0.0578,-0.67605 -1.44218,0.7282 l -1.55938,1.58176 0.37141,2.09403 c 0.32627,1.83953 0.59042,2.30838 2.17352,3.8579 2.04007,1.99682 5.08489,3.69997 6.96552,3.89624 0.33606,0.0351 0.81231,0.2288 1.05834,0.43052 0.75484,0.61889 3.04323,1.14847 7.67927,1.77717 3.03139,0.41109 10.53412,0.26001 11.01596,-0.22183 z m -26.01996,-1.45468 c 0.1139,-0.18429 -0.12687,-0.5138 -0.53505,-0.73225 -0.68106,-0.36449 -0.70989,-0.33692 -0.35025,0.33508 0.4379,0.81821 0.58445,0.88396 0.8853,0.39717 z m 25.94011,-1.79822 c 1.45521,-0.21239 2.99744,-0.61303 3.42718,-0.89032 0.42973,-0.27728 1.04891,-0.50415 1.37595,-0.50415 1.13279,0 4.39363,-1.86231 6.10224,-3.48507 1.64266,-1.56012 1.71803,-1.71585 1.75303,-3.62191 0.0269,-1.46544 -0.10259,-2.04509 -0.49008,-2.19379 -0.28966,-0.11115 -0.52665,-0.46614 -0.52665,-0.78887 0,-0.7057 -2.30936,-2.96314 -3.03129,-2.96314 -0.28139,0 -1.14316,-0.41794 -1.91505,-0.92875 -0.77611,-0.51361 -2.05418,-0.98392 -2.85929,-1.05218 -0.80072,-0.0679 -1.63421,-0.26613 -1.8522,-0.44055 -0.65231,-0.52192 -6.21479,-1.12263 -8.863,-0.95714 -3.06491,0.19153 -6.79721,0.79087 -7.84931,1.26045 -1.05736,0.47194 -2.12214,0.89477 -3.61597,1.43592 -1.51053,0.5472 -4.23334,2.67517 -4.23334,3.3085 0,0.2543 -0.22571,0.64968 -0.50159,0.87864 -0.27587,0.22895 -0.60294,1.0162 -0.72682,1.74943 -0.31925,1.88959 1.41532,4.66222 3.56891,5.70476 0.84703,0.41004 1.54006,0.8716 1.54006,1.02569 0,0.15409 0.27781,0.36417 0.61736,0.46685 0.33955,0.10268 1.52014,0.51594 2.62355,0.91835 1.1034,0.40242 2.77027,0.82159 3.70416,0.93149 0.93389,0.1099 2.72986,0.3288 3.99104,0.48644 2.47268,0.30908 3.66918,0.25656 7.76111,-0.34065 z m -10.23055,-10.21392 c 0,-0.19403 0.15875,-0.35278 0.35277,-0.35278 0.19403,0 0.35278,0.15875 0.35278,0.35278 0,0.19403 -0.15875,0.35278 -0.35278,0.35278 -0.19402,0 -0.35277,-0.15875 -0.35277,-0.35278 z m -21.87223,6.39115 c 0,-0.1714 0.30723,-0.39198 0.68273,-0.49018 0.49309,-0.12894 0.62864,-0.38533 0.48802,-0.92308 -0.26878,-1.02782 -0.7031,-0.93166 -1.33808,0.29626 -0.63249,1.22309 -0.65917,1.42863 -0.18545,1.42863 0.19403,0 0.35278,-0.14024 0.35278,-0.31163 z m 53.43987,-2.87491 c -0.30428,-0.58842 -0.70523,-0.97593 -0.891,-0.86112 -0.48665,0.30077 -0.41707,0.74294 0.21661,1.37663 0.90704,0.90704 1.26753,0.63149 0.67439,-0.51551 z m -46.38432,-5.63295 c 0,-0.19402 -0.07,-0.35277 -0.15556,-0.35277 -0.0856,0 -0.25369,0.15875 -0.3736,0.35277 -0.11992,0.19403 -0.0499,0.35278 0.15557,0.35278 0.20547,0 0.37359,-0.15875 0.37359,-0.35278 z"
       id="path909" />
  </g>
</svg>
