<?xml version="1.0" encoding="UTF-8" standalone="no"?>
<!-- Created with Inkscape (http://www.inkscape.org/) -->

<svg
   width="210mm"
   height="297mm"
   viewBox="0 0 210 297"
   version="1.1"
   id="svg5"
   inkscape:version="1.1 (c68e22c387, 2021-05-23)"
   sodipodi:docname="audio clip icon silhoutte.svg"
   xmlns:inkscape="http://www.inkscape.org/namespaces/inkscape"
   xmlns:sodipodi="http://sodipodi.sourceforge.net/DTD/sodipodi-0.dtd"
   xmlns="http://www.w3.org/2000/svg"
   xmlns:svg="http://www.w3.org/2000/svg">
  <sodipodi:namedview
     id="namedview7"
     pagecolor="#ffffff"
     bordercolor="#666666"
     borderopacity="1.0"
     inkscape:pageshadow="2"
     inkscape:pageopacity="0.0"
     inkscape:pagecheckerboard="0"
     inkscape:document-units="mm"
     showgrid="false"
     inkscape:zoom="0.62270623"
     inkscape:cx="396.65574"
     inkscape:cy="561.25984"
     inkscape:window-width="1680"
     inkscape:window-height="956"
     inkscape:window-x="-11"
     inkscape:window-y="-11"
     inkscape:window-maximized="1"
     inkscape:current-layer="layer1" />
  <defs
     id="defs2" />
  <g
     inkscape:label="Layer 1"
     inkscape:groupmode="layer"
     id="layer1">
    <path
       style="fill:#000000;stroke-width:0.23443"
       d="m 79.522927,215.88376 c -0.256676,-0.1755 -0.378642,-0.57334 -0.378642,-1.2351 0,-0.63342 -0.113959,-1.02754 -0.32455,-1.1224 -0.178503,-0.0804 -0.329262,-0.29267 -0.33502,-0.47168 -0.0059,-0.17901 -0.631272,-0.95412 -1.39003,-1.72247 -0.758766,-0.76835 -1.386928,-1.5342 -1.395924,-1.70188 -0.009,-0.16768 -0.164899,-0.40247 -0.34646,-0.52175 -0.181561,-0.11928 -0.536377,-0.89648 -0.788479,-1.72712 -0.252101,-0.83064 -0.57321,-1.70693 -0.713568,-1.94731 -0.456883,-0.7825 -3.14083,-2.94934 -4.183071,-3.37716 -0.55918,-0.22953 -1.990345,-0.87438 -3.180364,-1.433 -1.190018,-0.55862 -2.482307,-1.10954 -2.871743,-1.22427 -0.389443,-0.11473 -0.924951,-0.39071 -1.190018,-0.6133 -0.265074,-0.22259 -0.688549,-0.58116 -0.941059,-0.79684 -0.597309,-0.51016 -1.318944,-0.15018 -2.67335,1.3336 -0.538183,0.58958 -1.246266,1.20352 -1.573516,1.36431 -0.501307,0.24631 -0.595009,0.44464 -0.595009,1.25939 0,0.53188 -0.123091,1.11808 -0.273525,1.30269 -0.445618,0.54681 -1.688515,3.44946 -1.624567,3.79399 0.03244,0.17476 -0.18444,0.46092 -0.481945,0.63591 -0.297504,0.175 -0.874891,0.66841 -1.28308,1.09646 -0.408189,0.42805 -0.815037,0.77828 -0.904104,0.77828 -0.08907,0 -0.325347,0.19183 -0.525062,0.42628 -0.199715,0.23445 -0.57179,0.45358 -0.826831,0.48695 -0.699277,0.0915 -2.291558,0.61722 -3.384665,1.11752 -1.903888,0.87139 -2.542143,1.01725 -4.450884,1.01712 -1.441772,-9e-5 -2.233869,-0.13565 -3.121958,-0.53428 -0.65451,-0.29378 -1.550534,-0.52956 -1.991163,-0.52396 -0.61065,0.008 -0.833203,-0.10838 -0.93597,-0.48848 -0.07416,-0.27428 -0.366072,-0.67656 -0.648707,-0.89396 -0.759455,-0.58416 -1.4006,-2.33488 -1.4006,-3.82448 0,-0.7034 -0.08686,-1.61028 -0.193023,-2.01531 -0.106162,-0.40502 -0.318828,-1.40529 -0.472589,-2.22283 -0.312582,-1.66197 -0.724816,-2.05097 -1.295982,-1.22293 -0.208791,0.3027 -0.497176,0.55036 -0.640854,0.55036 -0.386772,0 -1.941257,1.90674 -1.941257,2.38116 0,0.22491 -0.292095,0.71445 -0.649101,1.08787 -0.357005,0.37342 -0.649101,0.84389 -0.649101,1.04549 0,0.26501 -0.151167,0.32201 -0.545668,0.20578 -0.407151,-0.11997 -0.580206,-0.0464 -0.681725,0.28996 -0.252176,0.83543 -1.366754,1.84774 -2.034402,1.84774 -0.564376,0 -0.841784,-0.11072 -1.848954,-0.73798 -0.133371,-0.0831 -0.801947,-0.66537 -1.485725,-1.29402 -0.683779,-0.62865 -1.707661,-1.4859 -2.275295,-1.905 -1.49525,-1.10399 -2.595678,-2.20017 -2.595678,-2.58568 0,-0.18442 -0.200477,-0.33532 -0.445504,-0.33532 -0.245026,0 -0.394724,-0.0965 -0.332661,-0.21434 0.06207,-0.11788 0.01745,-0.6199 -0.09914,-1.1156 -0.234023,-0.99498 -2.57016,-4.00406 -3.108602,-4.00406 -0.179506,0 -0.659051,-0.3429 -1.065659,-0.762 -0.406606,-0.4191 -0.945502,-0.762 -1.197546,-0.762 -0.252045,0 -0.458262,-0.10522 -0.458262,-0.23382 0,-0.1286 -0.292905,-0.30934 -0.6509,-0.40164 -0.3579962,-0.0923 -0.7628338,-0.41336 -0.8996407,-0.71345 -0.1368061,-0.30008 -0.3794097,-0.69901 -0.5391174,-0.88649 -0.1597077,-0.18749 -0.290378,-0.50417 -0.290378,-0.70374 0,-0.19957 -0.097739,-0.36286 -0.2171975,-0.36286 -0.1194584,0 -0.3343832,-0.51435 -0.4776095,-1.143 -0.1432265,-0.62865 -0.3375836,-1.143 -0.4319034,-1.143 -0.094321,0 -0.1714912,-1.4859 -0.1714912,-3.302 0,-1.8161 0.077168,-3.302 0.1714912,-3.302 0.09432,0 0.2886769,-0.51435 0.4319034,-1.143 0.1432263,-0.62865 0.3581511,-1.143 0.4776095,-1.143 0.1194583,0 0.2171975,-0.16329 0.2171975,-0.36286 0,-0.19957 0.1306703,-0.51625 0.290378,-0.70374 0.1597077,-0.18748 0.4023113,-0.58641 0.5391174,-0.88649 0.1368069,-0.30009 0.5416445,-0.62114 0.8996407,-0.71345 0.357995,-0.0923 0.6509,-0.27304 0.6509,-0.40164 0,-0.1286 0.206217,-0.23382 0.458262,-0.23382 0.252044,0 0.79094,-0.3429 1.197546,-0.762 0.406608,-0.4191 0.886153,-0.762 1.065659,-0.762 0.538442,0 2.874579,-3.00908 3.108602,-4.00406 0.11659,-0.4957 0.161203,-0.99772 0.09914,-1.1156 -0.06206,-0.11789 0.08763,-0.21434 0.332661,-0.21434 0.245027,0 0.445504,-0.1509 0.445504,-0.33532 0,-0.38551 1.100428,-1.48169 2.595678,-2.58568 0.567634,-0.4191 1.591516,-1.27635 2.275295,-1.905 0.683778,-0.62865 1.352354,-1.21096 1.485725,-1.29402 1.00717,-0.62726 1.284578,-0.73798 1.848954,-0.73798 0.67423,0 1.782368,1.01414 2.040977,1.86785 0.083,0.274 0.271917,0.41262 0.45187,0.33155 0.363541,-0.16377 2.06715,1.73616 2.06715,2.30536 0,0.45373 1.566965,2.35324 1.941257,2.35324 0.143678,0 0.432063,0.24766 0.640854,0.55036 0.571166,0.82804 0.9834,0.43904 1.295982,-1.22293 0.153761,-0.81754 0.366427,-1.81781 0.472589,-2.22283 0.106163,-0.40503 0.193023,-1.17087 0.193023,-1.70188 0,-0.55845 0.127008,-1.05111 0.301263,-1.1686 0.165696,-0.11172 0.455833,-0.60317 0.644751,-1.09212 0.188919,-0.48895 0.434771,-1.06045 0.546337,-1.27 0.111566,-0.20955 0.317485,-0.74516 0.457597,-1.19025 0.223765,-0.71082 0.350943,-0.80802 1.045614,-0.79922 0.434972,0.006 1.326368,-0.23034 1.980878,-0.52412 0.888089,-0.39863 1.680186,-0.53419 3.121958,-0.53428 1.908741,-1.3e-4 2.546996,0.14573 4.450884,1.01712 1.093107,0.5003 2.685388,1.02603 3.384665,1.11752 0.255041,0.0334 0.627116,0.2525 0.826831,0.48695 0.199715,0.23445 0.435995,0.42628 0.525062,0.42628 0.08907,0 0.495915,0.35023 0.904104,0.77828 0.408189,0.42805 0.985576,0.92146 1.28308,1.09646 0.297505,0.17499 0.51438,0.46115 0.481945,0.63591 -0.06395,0.34453 1.178949,3.24718 1.624567,3.79399 0.150434,0.18461 0.273525,0.77081 0.273525,1.30269 0,0.81475 0.0937,1.01308 0.595009,1.25939 0.32725,0.16079 1.035333,0.77473 1.573516,1.36431 0.538175,0.58958 1.256027,1.21879 1.595229,1.39824 0.65175,0.34479 0.55562,0.38566 2.015841,-0.85709 0.263226,-0.22403 0.798735,-0.50159 1.190018,-0.6168 0.391275,-0.11522 1.685064,-0.66654 2.875082,-1.22516 1.190019,-0.55862 2.621184,-1.20347 3.180364,-1.433 1.042241,-0.42782 3.726188,-2.59466 4.183071,-3.37716 0.140358,-0.24038 0.461467,-1.11667 0.713568,-1.94731 0.252102,-0.83064 0.606918,-1.60784 0.788479,-1.72712 0.181561,-0.11928 0.337473,-0.35407 0.34646,-0.52175 0.009,-0.16768 0.637158,-0.93353 1.395924,-1.70188 0.758758,-0.76835 1.38428,-1.54346 1.39003,-1.72247 0.0059,-0.17901 0.156517,-0.39126 0.33502,-0.47168 0.210881,-0.095 0.32455,-0.48939 0.32455,-1.12609 0,-0.73004 0.113857,-1.05142 0.446559,-1.26045 0.576396,-0.36213 0.989154,0.0211 1.436523,1.33361 0.182336,0.53497 0.724915,1.36798 1.205718,1.85111 0.596823,0.59971 0.999854,1.30305 1.270218,2.2167 0.217816,0.73605 0.669596,1.63037 1.00396,1.98737 0.334363,0.35701 0.741389,1.04281 0.90449,1.524 0.756748,2.23256 1.269955,2.94749 2.51846,3.50836 0.663003,0.29785 1.305485,0.54154 1.427741,0.54154 0.122255,0 0.801606,0.62963 1.509661,1.39918 0.708045,0.76956 1.597344,1.58418 1.976218,1.81029 0.753976,0.44996 1.44613,1.20559 1.44613,1.57873 0,0.70252 1.366701,0.47805 1.92859,-0.31674 0.158436,-0.2241 0.596645,-0.40746 0.973813,-0.40746 0.53007,0 0.904713,-0.26433 1.650344,-1.16438 0.530538,-0.64041 1.40887,-1.4316 1.95186,-1.75819 0.54298,-0.32659 1.12105,-0.78308 1.2846,-1.01443 0.59796,-0.8458 2.57125,-1.75218 6.16587,-2.83212 2.02269,-0.60768 4.09558,-1.10488 4.60641,-1.10488 0.51083,0 1.29002,-0.2149 1.73153,-0.47756 0.44152,-0.26266 1.20707,-0.55658 1.70124,-0.65315 0.49415,-0.0966 1.21206,-0.44718 1.59533,-0.77913 0.38327,-0.33195 1.0013,-0.67989 1.37338,-0.77319 0.89292,-0.22389 1.21743,-0.55814 1.21743,-1.25397 0,-0.59963 0.48157,-1.25501 0.71812,-0.97731 0.0755,0.0887 0.65641,0.40892 1.29077,0.71159 2.70655,1.29135 7.51126,5.88284 7.51126,7.17794 0,0.26355 0.10411,0.6014 0.23136,0.75078 0.24201,0.28411 0.37325,0.86019 0.40118,1.76094 0.009,0.29366 0.25573,0.92231 0.54805,1.397 0.29233,0.47468 0.66741,1.20809 0.83352,1.6298 0.30871,0.78371 1.64828,2.15426 2.10558,2.15426 0.13968,0 0.88374,0.35284 1.65345,0.78409 1.33804,0.74966 1.41779,0.76466 1.81596,0.34163 0.22907,-0.24335 0.41647,-0.5819 0.41647,-0.75234 0,-0.17043 0.26776,-0.37385 0.59501,-0.45203 0.32726,-0.0782 1.0355,-0.48619 1.57389,-0.90669 0.60325,-0.47116 1.59957,-0.91729 2.5964,-1.16261 2.88527,-0.71006 4.78358,-1.35984 5.169,-1.7693 0.20746,-0.22041 0.57672,-0.40075 0.82058,-0.40075 0.77981,0 1.92848,-0.71191 2.6023,-1.61283 0.68104,-0.91057 1.74555,-3.36683 2.21815,-5.11817 0.15079,-0.5588 0.39617,-1.18745 0.54528,-1.397 0.1491,-0.20955 0.44013,-0.7723 0.6467,-1.25056 0.20659,-0.47826 0.85121,-1.43675 1.43248,-2.12998 0.68177,-0.81307 1.05687,-1.47999 1.05687,-1.87908 0,-0.34027 0.14441,-0.78819 0.32091,-0.9954 0.28365,-0.33297 0.36819,-0.32349 0.72795,0.0816 0.53576,0.60333 0.89844,1.44451 0.89844,2.08373 0,0.28367 0.19473,0.63811 0.43273,0.78764 0.23801,0.14953 0.43274,0.53118 0.43274,0.84811 0,0.32296 0.32649,0.94772 0.7428,1.42141 0.40855,0.46485 0.86369,1.20164 1.01143,1.63733 0.14774,0.43568 0.4419,1.08819 0.65367,1.45002 0.21177,0.36182 0.5918,1.30658 0.8445,2.09946 0.55849,1.7523 1.30577,2.84473 2.10204,3.07291 0.32761,0.0939 0.93643,0.48304 1.35293,0.86481 0.41651,0.38176 1.51187,1.12743 2.43413,1.65704 0.92227,0.52962 1.67684,1.10206 1.67684,1.2721 0,0.39284 1.34207,1.93281 1.68444,1.93281 0.14159,0 0.51588,-0.48578 0.83177,-1.0795 1.25401,-2.35704 2.13513,-3.87761 2.29364,-3.95817 0.24805,-0.12606 0.20172,-1.82033 -0.0498,-1.82033 -0.38637,0 -0.22882,-0.77047 0.27962,-1.36733 0.46635,-0.54748 0.65691,-0.58091 3.19141,-0.55996 1.48249,0.0123 3.29464,-0.0786 4.02701,-0.20185 1.66119,-0.27963 2.40896,-0.0789 2.57353,0.69081 0.0689,0.32226 0.40523,0.78007 0.74741,1.01736 0.34218,0.23728 0.68733,0.68625 0.76701,0.9977 0.17671,0.69076 1.59657,2.47127 1.97068,2.47127 0.5764,0 1.28514,0.56969 1.75329,1.40931 0.26885,0.48218 0.58952,0.87669 0.71261,0.87669 0.75082,0 2.80136,3.22228 2.80136,4.40212 0,0.2013 0.31644,0.53958 0.70319,0.75174 1.35939,0.7457 2.38215,1.19614 2.71592,1.19614 0.46915,0 2.42279,1.06058 2.42279,1.31528 0,0.1148 0.14605,0.20872 0.32456,0.20872 0.2256,0 0.32454,0.26645 0.32454,0.87401 0,0.4807 0.0974,0.94465 0.21637,1.03099 0.119,0.0863 0.21637,0.82929 0.21637,1.651 0,0.82171 -0.0974,1.56466 -0.21637,1.651 -0.119,0.0863 -0.21637,0.55029 -0.21637,1.03099 0,0.60756 -0.0989,0.87401 -0.32454,0.87401 -0.17851,0 -0.32456,0.0939 -0.32456,0.20872 0,0.2547 -1.95364,1.31528 -2.42279,1.31528 -0.33377,0 -1.35653,0.45044 -2.71592,1.19614 -0.38675,0.21216 -0.70319,0.55044 -0.70319,0.75174 0,1.17984 -2.05054,4.40212 -2.80136,4.40212 -0.12309,0 -0.44376,0.39451 -0.71261,0.87669 -0.46815,0.83962 -1.17689,1.40931 -1.75329,1.40931 -0.37411,0 -1.79397,1.78051 -1.97068,2.47127 -0.0797,0.31145 -0.42483,0.76042 -0.76701,0.9977 -0.34218,0.23729 -0.67852,0.6951 -0.74741,1.01736 -0.16457,0.76972 -0.91234,0.97044 -2.57353,0.69081 -0.73237,-0.12328 -2.54452,-0.21411 -4.02701,-0.20185 -2.5345,0.0209 -2.72506,-0.0125 -3.19141,-0.55996 -0.50844,-0.59686 -0.66599,-1.36733 -0.27962,-1.36733 0.2515,0 0.29782,-1.69427 0.0498,-1.82033 -0.15851,-0.0806 -1.03963,-1.60113 -2.29364,-3.95817 -0.31589,-0.59373 -0.70005,-1.0795 -0.85373,-1.0795 -0.33795,0 -1.66248,1.56042 -1.66248,1.95858 0,0.15586 -0.75457,0.71671 -1.67684,1.24633 -0.92226,0.52961 -2.01762,1.27528 -2.43413,1.65704 -0.4165,0.38177 -1.02532,0.77093 -1.35293,0.86481 -0.79627,0.22818 -1.54355,1.32061 -2.10204,3.07291 -0.2527,0.79288 -0.63273,1.73764 -0.8445,2.09946 -0.21177,0.36183 -0.50593,1.01434 -0.65367,1.45002 -0.14774,0.43569 -0.60288,1.17248 -1.01143,1.63733 -0.41631,0.47369 -0.7428,1.09845 -0.7428,1.42141 0,0.31693 -0.19473,0.69858 -0.43274,0.84811 -0.238,0.14953 -0.43273,0.50397 -0.43273,0.78764 0,0.63922 -0.36268,1.4804 -0.89844,2.08373 -0.35976,0.40514 -0.4443,0.41462 -0.72795,0.0816 -0.1765,-0.20721 -0.32091,-0.65513 -0.32091,-0.9954 0,-0.39909 -0.3751,-1.06601 -1.05687,-1.87908 -0.58127,-0.69323 -1.22589,-1.65172 -1.43248,-2.12998 -0.20657,-0.47826 -0.4976,-1.04101 -0.6467,-1.25056 -0.14911,-0.20955 -0.39449,-0.8382 -0.54528,-1.397 -0.4726,-1.75134 -1.53711,-4.2076 -2.21815,-5.11817 -0.67382,-0.90092 -1.82249,-1.61283 -2.6023,-1.61283 -0.24386,0 -0.61312,-0.18034 -0.82058,-0.40075 -0.38542,-0.40946 -2.28373,-1.05924 -5.169,-1.7693 -0.99683,-0.24532 -1.99315,-0.69145 -2.5964,-1.16261 -0.53839,-0.4205 -1.24663,-0.82851 -1.57389,-0.90669 -0.32725,-0.0782 -0.59501,-0.2816 -0.59501,-0.45203 0,-0.17044 -0.1874,-0.50899 -0.41647,-0.75234 -0.39817,-0.42303 -0.47792,-0.40803 -1.81596,0.34163 -0.76971,0.43125 -1.51377,0.78409 -1.65345,0.78409 -0.4573,0 -1.79687,1.37055 -2.10558,2.15426 -0.16611,0.42171 -0.54119,1.15512 -0.83352,1.6298 -0.29232,0.47469 -0.53894,1.10334 -0.54805,1.397 -0.0279,0.90075 -0.15917,1.47683 -0.40118,1.76094 -0.12725,0.14938 -0.23136,0.48723 -0.23136,0.75078 0,1.2951 -4.80471,5.88659 -7.51126,7.17794 -0.63436,0.30267 -1.21521,0.62289 -1.29077,0.71159 -0.23655,0.2777 -0.71812,-0.37768 -0.71812,-0.97731 0,-0.69583 -0.32451,-1.03008 -1.21743,-1.25397 -0.37208,-0.0933 -0.99011,-0.44124 -1.37338,-0.77319 -0.38327,-0.33195 -1.10118,-0.68257 -1.59533,-0.77913 -0.49417,-0.0966 -1.25972,-0.39049 -1.70124,-0.65315 -0.44151,-0.26266 -1.2207,-0.47756 -1.73153,-0.47756 -0.51083,0 -2.58372,-0.4972 -4.60641,-1.10488 -3.59462,-1.07994 -5.56791,-1.98632 -6.16587,-2.83212 -0.16355,-0.23135 -0.74162,-0.68784 -1.2846,-1.01443 -0.54299,-0.32659 -1.421322,-1.11778 -1.95186,-1.75819 -0.745631,-0.90005 -1.120274,-1.16438 -1.650344,-1.16438 -0.377168,0 -0.815377,-0.18336 -0.973813,-0.40746 -0.561889,-0.79479 -1.92859,-1.01926 -1.92859,-0.31674 0,0.37314 -0.692154,1.12877 -1.44613,1.57873 -0.378874,0.22611 -1.268173,1.04073 -1.976218,1.81029 -0.708055,0.76955 -1.387406,1.39918 -1.509661,1.39918 -0.122256,0 -0.764738,0.24369 -1.427741,0.54154 -1.248505,0.56087 -1.761712,1.2758 -2.51846,3.50836 -0.163101,0.48119 -0.570127,1.16699 -0.90449,1.524 -0.334364,0.357 -0.786144,1.25132 -1.00396,1.98737 -0.269735,0.91152 -0.673395,1.61699 -1.26584,2.2123 -0.478393,0.48071 -0.996642,1.25009 -1.15166,1.70973 -0.288995,0.85688 -0.826189,1.73073 -1.055495,1.71698 -0.07079,-0.004 -0.299132,-0.12423 -0.507381,-0.26663 z m 22.123513,-15.5669 c 0,-0.0513 -0.40063,-0.40448 -0.89029,-0.78488 -0.48965,-0.3804 -0.819801,-0.55778 -0.73368,-0.39417 0.0862,0.16361 0.46244,0.51638 0.8362,0.78394 0.71143,0.50926 0.78777,0.54755 0.78777,0.39511 z M 41.280071,195.2181 c 0,-0.0616 -0.09736,-0.18265 -0.216367,-0.26899 -0.119002,-0.0863 -0.216367,-0.0359 -0.216367,0.11201 0,0.14794 0.09736,0.26899 0.216367,0.26899 0.119002,0 0.216367,-0.0504 0.216367,-0.11201 z m 0.865468,-0.52299 c 0,-0.20955 0.157969,-0.381 0.351042,-0.381 0.302035,0 0.309587,-0.0587 0.05409,-0.42056 -0.276371,-0.3914 -0.3018,-0.3914 -0.366906,0 -0.03847,0.23131 -0.160184,0.42056 -0.27046,0.42056 -0.110277,0 -0.200502,0.17145 -0.200502,0.381 0,0.20955 0.09737,0.381 0.216367,0.381 0.119002,0 0.216367,-0.17145 0.216367,-0.381 z m 2.142699,-0.79166 c -0.323256,-0.45725 -0.844497,-0.45201 -0.844497,0.008 0,0.40896 0.407019,0.63919 0.816897,0.46209 0.209792,-0.0906 0.216411,-0.20351 0.0276,-0.47058 z m 6.013178,-0.0211 c -0.38679,-0.11771 -0.406159,-0.69964 -0.02409,-0.7237 1.054898,-0.0664 1.267057,-0.60628 0.77705,-1.97733 -0.266414,-0.74542 -0.160965,-1.30452 0.197051,-1.04477 0.11272,0.0818 0.148929,0.25509 0.08046,0.38514 -0.06846,0.13005 -0.07801,0.23645 -0.02123,0.23645 0.05679,0 0.250164,0.0662 0.429716,0.14706 0.370463,0.16689 0.2782,-0.54205 -0.21611,-1.66055 -0.255837,-0.5789 -0.23721,-0.65886 0.200118,-0.85908 0.468899,-0.21468 0.470264,-0.22609 0.04947,-0.41342 -0.293826,-0.1308 -0.455353,-0.0805 -0.5032,0.15678 -0.03876,0.19219 -0.184805,0.27411 -0.32455,0.18206 -0.168124,-0.11075 -0.162582,-0.0516 0.01638,0.17469 0.362242,0.45814 0.341258,0.74846 -0.05409,0.74846 -0.178503,0 -0.32455,0.17145 -0.32455,0.381 0,0.20955 -0.146048,0.381 -0.324551,0.381 -0.178502,0 -0.326041,0.14287 -0.327862,0.3175 -0.0025,0.24718 -0.04235,0.24527 -0.179574,-0.009 -0.09717,-0.17977 -0.338406,-0.25306 -0.537605,-0.16333 -0.288841,0.13012 -0.361344,0.007 -0.361344,-0.6114 0,-0.4258 -0.09736,-0.84483 -0.216367,-0.93117 -0.119001,-0.0863 -0.216366,0.0212 -0.216366,0.23901 0,0.27066 -0.205447,0.39599 -0.649101,0.39599 -0.357006,0 -0.649101,-0.1143 -0.649101,-0.254 0,-0.1397 -0.108715,-0.254 -0.24159,-0.254 -0.141026,0 -0.198548,0.26433 -0.138188,0.635 0.05687,0.34925 0.01378,0.635 -0.09573,0.635 -0.109523,0 -0.136322,0.11931 -0.05955,0.26513 0.07677,0.14582 0.02732,0.42392 -0.109892,0.618 -0.196726,0.27827 -0.138489,0.43826 0.275435,0.75664 0.288699,0.22207 0.674829,0.33622 0.85806,0.25368 0.183235,-0.0825 0.393098,-0.0362 0.466364,0.10295 0.07327,0.13917 -0.06294,0.32611 -0.302665,0.41543 -0.503124,0.18747 -0.596209,1.14418 -0.111327,1.14418 0.178503,0 0.327789,-0.14288 0.331749,-0.3175 0.01118,-0.49324 0.794692,-1.48049 1.113443,-1.40298 0.157158,0.0382 0.274302,-0.11588 0.260318,-0.34244 -0.01754,-0.28428 0.101191,-0.37305 0.383201,-0.28648 0.317833,0.0976 0.35416,0.20249 0.163496,0.47219 -0.134823,0.19071 -0.185907,0.52793 -0.113519,0.74938 0.07239,0.22144 0.03802,0.60792 -0.07637,0.85883 -0.251077,0.55074 -0.08796,0.78702 0.51605,0.74754 0.382311,-0.025 0.391446,-0.0475 0.06015,-0.14833 z m -4.506585,-0.99388 c 0.07565,-0.4576 0.05704,-0.45629 -0.410125,0.0287 l -0.489364,0.508 0.255462,-0.5715 c 0.140506,-0.31432 0.357139,-0.5715 0.48141,-0.5715 0.138488,0 0.170761,-0.29495 0.08338,-0.762 -0.0897,-0.47942 -0.05596,-0.762 0.09099,-0.762 0.351772,0 0.28038,-0.92475 -0.106446,-1.37886 -0.309095,-0.36285 -0.372846,-0.36059 -0.70126,0.0249 -0.264168,0.31011 -0.288727,0.45247 -0.09138,0.52969 0.148433,0.0581 0.208114,0.22292 0.132625,0.36631 -0.07549,0.14339 -0.0031,0.36047 0.160925,0.48242 0.240402,0.17875 0.229633,0.22246 -0.05557,0.2256 -0.194566,0.002 -0.523883,-0.30092 -0.731814,-0.67345 -0.319796,-0.57297 -0.331558,-0.71974 -0.07633,-0.9525 0.165946,-0.15134 0.430275,-0.61557 0.587396,-1.03163 0.247243,-0.65468 0.313286,-0.69855 0.490861,-0.32605 0.175123,0.36736 0.44985,0.40945 1.875351,0.28736 l 1.670172,-0.14305 0.421409,0.85011 c 0.391304,0.78937 0.427158,0.80927 0.501874,0.2786 0.04425,-0.31433 0.159706,-0.5715 0.256559,-0.5715 0.288778,0 0.397782,-1.21784 0.140318,-1.56769 -0.131079,-0.17811 -0.03287,-0.12359 0.218241,0.12115 0.353339,0.34437 0.580573,0.38963 1.00505,0.20017 0.301667,-0.13464 0.607379,-0.39506 0.679362,-0.57872 0.102725,-0.26209 0.158021,-0.26562 0.257088,-0.0164 0.06941,0.17463 0.252792,0.3175 0.407499,0.3175 0.154706,0 0.333664,0.23514 0.397679,0.52252 0.09387,0.42139 0.05871,0.46632 -0.181652,0.23213 -0.163929,-0.15971 -0.39968,-0.21664 -0.523896,-0.12652 -0.290588,0.21083 -0.29429,0.89587 -0.0049,0.89587 0.121553,0 0.33306,0.28871 0.470016,0.64158 0.229644,0.59167 0.728895,0.80308 0.569316,0.24107 -0.03867,-0.1362 -0.143343,-0.21907 -0.232594,-0.18415 -0.08925,0.0349 -0.160785,-0.19367 -0.158964,-0.508 0.0022,-0.37629 0.06151,-0.46393 0.173694,-0.25657 0.113886,0.21051 0.261317,0.0197 0.444643,-0.57544 0.150842,-0.48971 0.355696,-0.8313 0.455228,-0.75908 0.09953,0.0722 0.129366,-0.10035 0.0663,-0.38348 -0.09933,-0.44592 -0.02209,-0.50649 0.577544,-0.45285 0.785003,0.0702 1.03677,0.33201 0.536176,0.55751 -0.185361,0.0835 -0.273498,0.27248 -0.195859,0.41995 0.09723,0.18468 0.236178,0.17556 0.446447,-0.0293 0.235667,-0.2296 0.305288,-0.22355 0.305288,0.0265 0,0.18 0.1844,0.0744 0.414933,-0.23767 0.378744,-0.51265 0.432887,-0.52401 0.620615,-0.1302 0.227901,0.47807 0.695389,0.2832 0.695389,-0.28988 0,-0.55047 0.45679,-0.43986 0.586406,0.14199 0.109589,0.49197 0.189356,0.55546 0.765888,0.6096 0.148748,0.014 0.343478,0.1397 0.432734,0.2794 0.101769,0.1593 0.241701,0.11195 0.375328,-0.127 0.117179,-0.20955 0.214544,-0.27241 0.216367,-0.1397 0.0017,0.13272 0.120152,0.10414 0.262954,-0.0635 0.308025,-0.3616 1.121505,-0.41384 0.93525,-0.0601 -0.07087,0.1346 0.05631,0.46209 0.282615,0.72776 0.322276,0.37833 0.49985,0.42451 0.819264,0.21304 0.606006,-0.40119 1.204261,-0.4017 1.073248,-0.001 -0.147657,0.45172 0.188674,0.43352 0.514851,-0.0279 0.198981,-0.28146 0.393652,-0.30742 0.833464,-0.11111 0.315615,0.14086 0.648854,0.39184 0.740529,0.55773 0.126591,0.22908 0.210131,0.22267 0.347397,-0.0267 0.132367,-0.24045 0.371835,-0.053 0.895146,0.70069 0.568857,0.81929 0.775581,0.96938 1.01453,0.73658 0.165053,-0.16081 0.322089,-0.24752 0.348965,-0.19269 0.02683,0.0548 0.236026,0.53148 0.464796,1.05922 0.284745,0.65689 0.48606,0.8772 0.638283,0.6985 0.302462,-0.35508 1.804142,-0.3314 1.995176,0.0315 0.110031,0.20901 0.222619,0.18227 0.394503,-0.0937 0.132282,-0.21238 0.550006,-0.46595 0.928274,-0.56348 0.412741,-0.10642 0.647201,-0.30137 0.586354,-0.48754 -0.05852,-0.17891 0.333112,-0.55804 0.925173,-0.89571 0.651094,-0.37135 1.055419,-0.48392 1.105431,-0.30779 0.04336,0.15274 0.174669,0.27771 0.291771,0.27771 0.117103,0 0.151116,-0.2286 0.07556,-0.508 -0.142844,-0.52833 -0.136907,-0.53088 1.444454,-0.61999 0.318435,-0.018 0.53176,0.0571 0.474057,0.16668 -0.05775,0.10962 8.51e-4,0.19931 0.130995,0.19931 0.129761,0 0.293083,-0.17486 0.362943,-0.38857 0.08016,-0.24523 0.277197,-0.33262 0.534128,-0.23688 0.379324,0.14133 0.522262,-0.10858 0.423517,-0.74051 -0.01917,-0.12262 0.164039,-0.16189 0.407111,-0.0873 0.243072,0.0746 0.441951,0.0299 0.441951,-0.0994 0,-0.12928 0.253864,-0.16026 0.564138,-0.0688 0.362185,0.10671 0.626254,0.0482 0.737649,-0.16336 0.137487,-0.26115 0.248584,-0.24144 0.535143,0.095 0.198895,0.23349 0.444412,0.36446 0.545602,0.29105 0.101181,-0.0734 0.259563,0.0101 0.351954,0.18561 0.116011,0.22035 0.214381,0.1234 0.317931,-0.31336 0.142819,-0.60238 0.15098,-0.60528 0.171518,-0.0609 0.02675,0.70827 0.592071,0.75437 0.778852,0.0635 0.186911,-0.69133 0.466033,-0.63885 0.627848,0.11803 0.07879,0.36872 0.248064,0.57459 0.411736,0.50086 0.152837,-0.0688 0.678754,0.0409 1.168696,0.24378 0.489953,0.20293 1.06778,0.33847 1.284061,0.30121 0.216282,-0.0373 0.534734,0.0983 0.707666,0.30135 0.274973,0.32281 0.349099,0.31341 0.590963,-0.0749 0.17926,-0.2878 0.641076,-0.4744 1.312835,-0.53047 0.569965,-0.0476 1.449668,-0.12996 1.954891,-0.18309 0.596914,-0.0628 1.003969,0.0242 1.162414,0.24829 0.13411,0.1897 0.383717,0.34491 0.554658,0.34491 0.170959,0 0.244648,0.1257 0.163763,0.27934 -0.247612,0.47035 0.851327,-0.31448 1.163493,-0.83093 0.203505,-0.33666 0.384327,-0.40551 0.634086,-0.24142 0.237444,0.15599 0.454333,0.10637 0.676847,-0.15484 0.29233,-0.34318 0.342124,-0.33521 0.464511,0.0744 0.08875,0.29695 0.189806,0.35862 0.286554,0.17484 0.0892,-0.16949 0.452339,-0.22622 0.900959,-0.14075 0.429351,0.0818 0.879454,0.0185 1.049981,-0.14765 0.196489,-0.19144 0.474375,-0.21312 0.813203,-0.0635 0.360688,0.15931 0.708978,0.11032 1.163818,-0.1637 0.78284,-0.47161 2.48823,-0.68902 2.48823,-0.3172 0,0.14378 0.10311,0.26141 0.22913,0.26141 0.12603,0 0.16896,-0.1143 0.0954,-0.254 -0.0735,-0.1397 0.0181,-0.254 0.20359,-0.254 0.18553,0 0.33732,0.13335 0.33732,0.29633 0,0.16298 0.0641,0.22113 0.14237,0.1292 0.0782,-0.0919 0.27304,-0.0398 0.43273,0.11577 0.15971,0.1556 0.29037,0.1791 0.29037,0.0522 0,-0.43642 0.86587,-0.23019 0.99198,0.23627 0.10018,0.37055 0.18949,0.40533 0.43261,0.16847 0.16849,-0.16416 0.30784,-0.19875 0.30966,-0.0769 0.002,0.12188 0.0922,0.0566 0.20087,-0.14496 0.16513,-0.30638 0.29684,-0.31346 0.80228,-0.0431 0.44939,0.24037 0.62614,0.24797 0.68814,0.0296 0.0459,-0.16161 0.40241,0.11496 0.79226,0.61461 0.38985,0.49965 0.82167,0.90845 0.95959,0.90845 0.13791,0 0.22215,0.20002 0.18718,0.4445 -0.0424,0.29675 0.0982,0.47148 0.42325,0.52566 0.31243,0.0521 0.48682,-0.0505 0.48682,-0.28639 0,-0.20216 0.12171,-0.48607 0.27046,-0.63091 0.20283,-0.19749 0.27826,-0.10999 0.30165,0.3499 0.0173,0.33728 -0.0359,0.61324 -0.11805,0.61324 -0.0821,0 -0.1722,0.40005 -0.20026,0.889 -0.0422,0.73706 0.0224,0.889 0.37776,0.889 0.23583,0 0.5175,0.18613 0.62594,0.41362 0.13481,0.28279 0.2449,0.32296 0.34807,0.127 0.083,-0.15764 0.24826,-0.28662 0.36726,-0.28662 0.119,0 0.15619,0.1143 0.0826,0.254 -0.0735,0.1397 -0.0385,0.254 0.0777,0.254 0.1163,0 0.3898,0.0785 0.60779,0.17455 0.35662,0.15707 0.36484,0.12916 0.082,-0.27854 -0.29168,-0.42049 -0.26055,-0.4469 0.43274,-0.36706 0.60277,0.0694 0.73531,0.003 0.68632,-0.34184 -0.0461,-0.32456 0.0846,-0.41608 0.54092,-0.379 0.50345,0.0409 0.60162,-0.0513 0.60162,-0.56495 0,-0.3376 -0.1217,-0.66145 -0.27046,-0.71966 -0.14874,-0.0582 -0.27045,0.0751 -0.27045,0.29633 0,0.6152 -0.33349,0.4789 -0.61728,-0.25227 -0.21955,-0.56569 -0.34896,-0.63327 -0.95429,-0.49843 l -0.70029,0.156 0.54092,-0.38157 c 0.66119,-0.4664 1.38746,-0.5002 2.01562,-0.0938 0.56155,0.3633 0.99609,0.40948 1.46876,0.1561 0.3846,-0.20617 0.92264,0.68525 0.80291,1.33022 -0.0885,0.47671 0.72632,0.49001 0.86147,0.0141 0.0576,-0.20279 0.003,-0.28204 -0.1293,-0.18635 -0.12621,0.0916 -0.29064,0.0503 -0.36539,-0.0916 -0.0747,-0.14198 0.0158,-0.25814 0.20141,-0.25814 0.18554,0 0.33733,-0.122 0.33733,-0.27112 0,-0.16188 0.18753,-0.20124 0.46546,-0.0977 0.38986,0.14527 0.4405,0.0965 0.31174,-0.30038 -0.12331,-0.38003 -0.0998,-0.41097 0.11872,-0.15631 0.31723,0.36967 1.40146,0.42599 1.58245,0.0822 0.0732,-0.13894 0.38846,-0.1462 0.77006,-0.0177 0.53152,0.17896 0.65,0.14184 0.66774,-0.20921 0.0132,-0.26209 0.0884,-0.18173 0.19479,0.20823 0.1155,0.42333 0.18044,0.48683 0.1948,0.1905 0.0119,-0.24448 0.16762,-0.4445 0.34613,-0.4445 0.1785,0 0.32455,-0.13615 0.32455,-0.30255 0,-0.1664 0.13741,-0.0819 0.30536,0.1877 0.16795,0.26964 0.25957,0.57723 0.2036,0.68355 -0.056,0.10631 0.002,0.1933 0.12737,0.1933 0.12603,0 0.22914,-0.2286 0.22914,-0.508 0,-0.39195 0.14425,-0.508 0.6314,-0.508 0.34727,0 0.77911,-0.0665 0.95963,-0.14786 0.19629,-0.0884 0.52352,0.1158 0.814,0.508 0.58173,0.78541 0.84127,0.84129 0.6868,0.14786 -0.0746,-0.33473 -0.007,-0.508 0.19914,-0.508 0.22922,0 0.28489,0.21942 0.20922,0.82466 -0.0886,0.70867 -0.0577,0.78043 0.21965,0.5102 0.17752,-0.17295 0.38682,-0.23925 0.46512,-0.14733 0.0783,0.0919 0.14238,0.0405 0.14238,-0.11421 0,-0.15474 -0.10371,-0.35658 -0.23047,-0.44855 -0.15111,-0.10963 -0.10391,-0.33137 0.1371,-0.644 0.20216,-0.26223 0.46231,-0.40805 0.57812,-0.32403 0.12404,0.09 0.0899,0.24248 -0.0831,0.37112 -0.20352,0.15139 -0.10295,0.21955 0.32794,0.22225 0.48343,0.003 0.56999,-0.069 0.38965,-0.32408 -0.17163,-0.24275 -0.12877,-0.40355 0.16494,-0.61887 0.59394,-0.43543 1.18245,-0.13733 1.62246,0.82183 0.37001,0.80656 0.98787,1.3782 0.98787,0.91397 0,-0.23037 0.75755,-0.17492 1.33916,0.098 0.24365,0.11435 0.45936,-0.005 0.64706,-0.35773 0.17713,-0.33297 0.50771,-0.52925 0.89136,-0.52925 0.35146,0 0.55318,0.10761 0.47611,0.254 -0.0735,0.1397 0.015,0.254 0.1968,0.254 0.1818,0 0.28593,-0.14288 0.23142,-0.3175 -0.17105,-0.54791 0.24517,-1.04702 0.68587,-0.82245 0.22026,0.11224 0.52062,0.18145 0.66748,0.15381 0.15165,-0.0285 0.2149,0.10914 0.14639,0.31872 -0.0736,0.22522 0.0332,0.40751 0.27391,0.46785 0.52024,0.13037 1.17393,-0.061 1.04499,-0.30585 -0.056,-0.10652 0.20939,-0.16256 0.58995,-0.12455 0.38053,0.038 0.7283,0.19735 0.7728,0.35408 0.0446,0.15673 0.23242,0.46281 0.41758,0.68019 0.2737,0.3213 0.37066,0.33233 0.51829,0.059 0.13703,-0.25372 0.18243,-0.25833 0.18493,-0.0188 0.002,0.17462 0.10643,0.3175 0.23244,0.3175 0.12604,0 0.16391,-0.12392 0.0842,-0.27537 -0.0923,-0.17537 0.0405,-0.24424 0.36587,-0.18967 0.38345,0.0643 0.49798,0.228 0.4593,0.65636 -0.0284,0.31387 0.0446,0.57068 0.16228,0.57068 0.11759,0 0.21381,-0.13716 0.21381,-0.3048 0,-0.2261 0.063,-0.23089 0.24383,-0.0186 0.15548,0.18251 0.41999,0.20765 0.72982,0.0694 0.30985,-0.13829 0.57434,-0.11316 0.72982,0.0693 0.18087,0.21234 0.24383,0.20298 0.24383,-0.0362 0,-0.39353 0.90573,-0.28158 1.01994,0.12607 0.0441,0.15741 -0.075,0.35613 -0.26474,0.44159 -0.19977,0.09 -0.2893,0.0497 -0.21275,-0.0957 0.0728,-0.1381 0.0395,-0.2511 -0.0737,-0.2511 -0.11329,0 -0.26204,0.17145 -0.33053,0.381 -0.0685,0.20955 -0.0303,0.381 0.085,0.381 0.11527,0 0.20957,0.15746 0.20957,0.3499 0,0.62424 0.55638,0.97632 0.86128,0.54503 0.14828,-0.20973 0.35593,-0.3187 0.46144,-0.24214 0.10553,0.0766 0.19186,0.0182 0.19186,-0.1298 1e-5,-0.14785 -0.0888,-0.2689 -0.19722,-0.2689 -0.10847,0 -0.17544,-0.17423 -0.14881,-0.38717 0.0507,-0.40571 0.60568,-0.9322 1.29168,-1.2254 0.32467,-0.13877 0.38288,-0.075 0.29434,0.32249 -0.0957,0.42967 6.5e-4,0.49367 0.72581,0.48192 0.45992,-0.007 0.93661,-0.15558 1.05933,-0.32916 0.12273,-0.17359 0.49026,-0.26551 0.81677,-0.20426 0.4713,0.0884 0.52674,0.054 0.26908,-0.16711 -0.27727,-0.23789 -0.23585,-0.37057 0.28434,-0.91072 0.55118,-0.57234 0.64084,-0.59478 0.94582,-0.23674 0.52376,0.61485 1.03239,0.35164 1.10882,-0.57382 0.0474,-0.5742 -0.0637,-0.94433 -0.37865,-1.26086 -0.44861,-0.45092 -0.64245,-1.52385 -0.21992,-1.21729 0.12422,0.0901 0.35739,0.0357 0.51814,-0.12093 0.33633,-0.32767 0.74851,-0.27024 1.14408,0.15941 0.35052,0.38072 0.35274,0.60775 0.005,0.52614 -0.14875,-0.0349 -0.22969,0.10795 -0.17986,0.3175 0.0498,0.20955 0.0849,0.62975 0.078,0.93377 -0.008,0.37082 0.0863,0.50819 0.28805,0.41732 0.16537,-0.0745 0.30066,-0.23458 0.30066,-0.35574 0,-0.34831 1.36123,-1.10397 1.83912,-1.02095 0.23801,0.0413 0.55241,0.19033 0.69868,0.33108 0.17876,0.17203 0.47416,0.1707 0.90116,-0.004 0.34938,-0.14297 0.69218,-0.19309 0.76181,-0.11136 0.0696,0.0817 0.12658,0.031 0.12658,-0.11281 0,-0.26358 1.01445,-0.24104 1.2433,0.0276 0.0678,0.0796 0.25393,0.0174 0.41363,-0.1382 0.16061,-0.15647 0.29037,-0.17446 0.29037,-0.0402 0,0.13346 0.21907,0.21413 0.48682,0.17926 0.26776,-0.0349 0.48683,-0.0824 0.48683,-0.10571 0,-0.0233 0.19473,-0.0716 0.43273,-0.10741 0.23801,-0.0358 0.74926,-0.14967 1.13611,-0.25306 0.52943,-0.1415 0.73379,-0.0949 0.82635,0.18827 0.0677,0.20694 0.45703,0.44982 0.86531,0.53974 0.40826,0.0899 0.74229,0.26857 0.74229,0.39703 0,0.34277 0.89746,0.84893 1.05525,0.59515 0.0741,-0.1192 0.29853,-0.2313 0.49869,-0.24913 0.30253,-0.0269 0.3213,0.0478 0.11125,0.44261 -0.15622,0.29363 -0.39852,0.42066 -0.63461,0.3327 -0.33593,-0.12517 -0.35507,-0.0561 -0.15891,0.5734 0.12265,0.39363 0.26852,0.86706 0.32415,1.05207 0.081,0.26954 0.16575,0.26053 0.4263,-0.0454 0.35922,-0.4217 0.44021,-0.78545 0.12376,-0.55586 -0.3233,0.23456 -0.523,-0.38523 -0.22869,-0.70979 0.20374,-0.22468 0.29059,-0.2228 0.36295,0.008 0.19311,0.61565 0.71625,0.0143 0.71625,-0.82342 0,-1.0197 0.38899,-1.38405 0.79011,-0.74007 0.35543,0.57061 0.375,0.90098 0.0483,0.81576 -0.13388,-0.0349 -0.29069,0.0887 -0.34847,0.27472 -0.0663,0.21337 0.0436,0.31977 0.29751,0.28825 0.71949,-0.0893 0.80022,7.6e-4 0.43064,0.48011 -0.54424,0.70598 0.0207,1.16275 1.20685,0.97596 0.49844,-0.0785 0.78144,-0.0521 0.62888,0.0585 -0.21963,0.15935 -0.21265,0.23038 0.0335,0.34127 0.17099,0.077 0.47724,-0.088 0.68057,-0.36682 0.20913,-0.28671 0.51256,-0.44251 0.69862,-0.3587 0.1809,0.0815 0.50873,0.14818 0.7285,0.14818 0.21977,0 0.54046,0.16538 0.71265,0.36752 0.27319,0.3207 0.37721,0.28739 0.81645,-0.26148 0.27686,-0.34596 0.63095,-0.57154 0.78688,-0.5013 0.15593,0.0702 0.72677,-0.16282 1.26857,-0.5179 0.78614,-0.51525 1.04827,-0.58404 1.29806,-0.34068 0.25921,0.25254 0.30325,0.20393 0.25638,-0.28295 -0.0463,-0.48049 0.0738,-0.62044 0.65757,-0.76611 0.3928,-0.098 0.78205,-0.2579 0.86502,-0.3553 0.083,-0.0974 -0.0924,-0.10722 -0.38962,-0.0218 -0.43487,0.12494 -0.58934,0.0297 -0.79058,-0.48736 -0.25671,-0.6596 -0.1629,-0.75009 0.73693,-0.71086 0.31312,0.0136 0.31144,0.0197 0.38036,-1.36515 0.056,-1.12391 -0.0567,-1.47245 -0.48855,-1.51302 -0.89021,-0.0836 -0.88722,-0.0801 -0.62874,-0.74423 0.20124,-0.51707 0.35571,-0.61229 0.79058,-0.48735 0.29726,0.0854 0.47259,0.0756 0.38962,-0.0218 -0.083,-0.0974 -0.47222,-0.25729 -0.86502,-0.35531 -0.58371,-0.14566 -0.70384,-0.28561 -0.65757,-0.7661 0.0468,-0.48688 0.003,-0.5355 -0.25638,-0.28295 -0.24979,0.24336 -0.51192,0.17456 -1.29806,-0.34068 -0.5418,-0.35509 -1.11264,-0.58814 -1.26857,-0.5179 -0.15593,0.0702 -0.51002,-0.15534 -0.78688,-0.5013 -0.43924,-0.54887 -0.54326,-0.58219 -0.81645,-0.26149 -0.17219,0.20214 -0.49288,0.36753 -0.71265,0.36753 -0.21977,0 -0.5476,0.0667 -0.7285,0.14817 -0.18606,0.0838 -0.48949,-0.072 -0.69862,-0.3587 -0.20333,-0.27877 -0.50958,-0.44384 -0.68057,-0.36682 -0.24617,0.1109 -0.25314,0.18192 -0.0335,0.34127 0.15256,0.11068 -0.13044,0.13702 -0.62888,0.0585 -1.18626,-0.18679 -1.75109,0.26998 -1.20685,0.97596 0.36958,0.47941 0.28885,0.56942 -0.43064,0.4801 -0.25396,-0.0315 -0.36377,0.0749 -0.29751,0.28826 0.0578,0.18602 0.21459,0.30964 0.34847,0.27472 0.32668,-0.0852 0.30712,0.24514 -0.0483,0.81576 -0.38759,0.62225 -0.79011,0.29062 -0.79011,-0.65097 0,-0.41676 -0.0992,-0.89578 -0.22037,-1.06451 -0.12121,-0.16873 -0.41146,-0.57895 -0.64499,-0.9116 -0.31405,-0.4473 -0.45221,-0.51345 -0.5305,-0.254 -0.0582,0.19295 -0.20621,0.67288 -0.32886,1.06651 -0.19616,0.62954 -0.17702,0.69857 0.15891,0.5734 0.23609,-0.088 0.47839,0.0391 0.63461,0.33271 0.21005,0.39485 0.19128,0.46953 -0.11125,0.4426 -0.20016,-0.0178 -0.42457,-0.12993 -0.49869,-0.24913 -0.15779,-0.25378 -1.05525,0.25238 -1.05525,0.59515 0,0.12846 -0.33403,0.30712 -0.74229,0.39703 -0.40828,0.0899 -0.79765,0.3328 -0.86531,0.53974 -0.0926,0.28322 -0.29692,0.32978 -0.82635,0.18827 -0.38685,-0.10339 -0.8981,-0.21727 -1.13611,-0.25306 -0.238,-0.0358 -0.43273,-0.0841 -0.43273,-0.1074 0,-0.0233 -0.21907,-0.0709 -0.48683,-0.10572 -0.26775,-0.0349 -0.48682,0.0458 -0.48682,0.17927 0,0.13421 -0.12976,0.11622 -0.29037,-0.0402 -0.1597,-0.15559 -0.34584,-0.21778 -0.41363,-0.13819 -0.22885,0.26866 -1.2433,0.2912 -1.2433,0.0276 0,-0.14378 -0.057,-0.19454 -0.12658,-0.11282 -0.0696,0.0817 -0.41243,0.0316 -0.76181,-0.11136 -0.427,-0.17474 -0.7224,-0.17607 -0.90116,-0.004 -0.14627,0.14075 -0.46067,0.28974 -0.69868,0.33109 -0.47789,0.083 -1.83912,-0.67265 -1.83912,-1.02095 0,-0.12117 -0.13529,-0.28126 -0.30066,-0.35575 -0.20171,-0.0909 -0.29652,0.0465 -0.28805,0.41732 0.007,0.30403 -0.0281,0.72422 -0.078,0.93377 -0.0499,0.20955 0.0311,0.35243 0.17986,0.3175 0.34759,-0.0816 0.34538,0.14542 -0.005,0.52615 -0.39557,0.42964 -0.80775,0.48707 -1.14408,0.1594 -0.16075,-0.15663 -0.39392,-0.21104 -0.51814,-0.12092 -0.41532,0.30133 -0.23255,-0.76249 0.20689,-1.20419 0.5219,-0.52458 0.58704,-1.91037 0.10012,-2.12972 -0.18293,-0.0824 -0.51252,0.0413 -0.7324,0.27491 -0.37623,0.3997 -0.43636,0.3868 -1.01968,-0.21862 -0.52914,-0.54918 -0.57238,-0.68413 -0.29534,-0.92182 0.25766,-0.22108 0.20222,-0.25551 -0.26908,-0.1671 -0.32651,0.0612 -0.69404,-0.0307 -0.81677,-0.20426 -0.12272,-0.17359 -0.59941,-0.32171 -1.05933,-0.32917 -0.72514,-0.0117 -0.82153,0.0522 -0.72581,0.48193 0.0886,0.39747 0.0304,0.46125 -0.29434,0.32248 -0.686,-0.29319 -1.24097,-0.81968 -1.29168,-1.22539 -0.0267,-0.21296 0.0404,-0.38719 0.14881,-0.38719 0.10848,0 0.19723,-0.12105 0.19723,-0.26899 0,-0.14795 -0.0863,-0.20635 -0.19186,-0.1298 -0.10551,0.0766 -0.31316,-0.0324 -0.46144,-0.24214 -0.3049,-0.43129 -0.86128,-0.0792 -0.86128,0.54503 0,0.19245 -0.0943,0.3499 -0.20957,0.3499 -0.11527,0 -0.15353,0.17145 -0.085,0.381 0.0684,0.20955 0.21724,0.381 0.33053,0.381 0.1133,0 0.1465,-0.11299 0.0738,-0.25109 -0.0766,-0.14541 0.0129,-0.18569 0.21274,-0.0957 0.18972,0.0855 0.30885,0.28418 0.26475,0.4416 -0.11421,0.40764 -1.01994,0.5196 -1.01994,0.12607 0,-0.2392 -0.063,-0.24855 -0.24384,-0.0362 -0.15547,0.18251 -0.41996,0.20764 -0.72981,0.0693 -0.30984,-0.13829 -0.57435,-0.11316 -0.72982,0.0694 -0.18086,0.21233 -0.24384,0.20754 -0.24384,-0.0186 0,-0.16764 -0.0962,-0.3048 -0.21381,-0.3048 -0.11759,0 -0.19062,0.2568 -0.16227,0.57068 0.0386,0.42836 -0.0759,0.59205 -0.4593,0.65636 -0.32535,0.0546 -0.4582,-0.0143 -0.36587,-0.18968 0.0798,-0.15145 0.0419,-0.27536 -0.0842,-0.27536 -0.12601,0 -0.23062,0.14287 -0.23244,0.3175 -0.003,0.23956 -0.0479,0.23495 -0.18493,-0.0188 -0.14763,-0.27337 -0.24459,-0.26234 -0.51829,0.059 -0.18516,0.21738 -0.37308,0.52347 -0.41758,0.6802 -0.0445,0.15673 -0.39227,0.31606 -0.77281,0.35408 -0.38054,0.038 -0.64373,-0.0224 -0.58485,-0.13421 0.13347,-0.25352 -0.52308,-0.43236 -1.04643,-0.28503 -0.22976,0.0647 -0.34266,0.25752 -0.27391,0.46785 0.065,0.19865 -0.002,0.33546 -0.15004,0.30756 -0.14686,-0.0277 -0.44722,0.0416 -0.66748,0.15381 -0.4407,0.22457 -0.85692,-0.27454 -0.68587,-0.82245 0.0545,-0.17463 -0.0496,-0.3175 -0.23142,-0.3175 -0.18179,0 -0.27036,0.1143 -0.1968,0.254 0.0771,0.14638 -0.12465,0.254 -0.47611,0.254 -0.38365,0 -0.71423,-0.19629 -0.89136,-0.52926 -0.1877,-0.35281 -0.40341,-0.47207 -0.64706,-0.35773 -0.58161,0.27295 -1.33916,0.3284 -1.33916,0.098 0,-0.46423 -0.61786,0.10741 -0.98787,0.91397 -0.44001,0.95915 -1.02853,1.25726 -1.62246,0.82183 -0.29371,-0.21533 -0.33657,-0.37612 -0.16494,-0.61888 0.18034,-0.2551 0.0938,-0.3271 -0.38965,-0.32407 -0.43089,0.003 -0.53146,0.0709 -0.32794,0.22225 0.17295,0.12864 0.20705,0.28112 0.0831,0.37112 -0.11582,0.084 -0.37595,-0.0618 -0.57812,-0.32403 -0.24101,-0.31263 -0.28821,-0.53437 -0.1371,-0.64401 0.12675,-0.092 0.23046,-0.29381 0.23046,-0.44855 0,-0.15473 -0.064,-0.20613 -0.14237,-0.11421 -0.0782,0.0919 -0.2876,0.0256 -0.46512,-0.14733 -0.27737,-0.27022 -0.30825,-0.19847 -0.21965,0.51021 0.0756,0.60523 0.02,0.82466 -0.20922,0.82466 -0.20578,0 -0.27371,-0.17327 -0.19915,-0.508 0.15448,-0.69343 -0.10506,-0.63756 -0.68679,0.14786 -0.29049,0.3922 -0.61772,0.59642 -0.814,0.508 -0.18052,-0.0813 -0.61236,-0.14786 -0.95963,-0.14786 -0.48715,0 -0.63141,-0.11605 -0.63141,-0.508 0,-0.2794 -0.1031,-0.508 -0.22913,-0.508 -0.12602,0 -0.18335,0.087 -0.12737,0.1933 0.056,0.10632 -0.0356,0.41391 -0.2036,0.68355 -0.16795,0.26963 -0.30536,0.3541 -0.30536,0.1877 0,-0.1664 -0.14605,-0.30255 -0.32456,-0.30255 -0.1785,0 -0.33425,-0.20003 -0.34611,-0.4445 -0.0144,-0.29633 -0.0793,-0.23283 -0.19481,0.1905 -0.10637,0.38996 -0.18155,0.47031 -0.19479,0.20823 -0.0177,-0.35105 -0.13622,-0.38817 -0.66775,-0.20921 -0.38159,0.12847 -0.6969,0.12121 -0.77005,-0.0177 -0.18099,-0.34379 -1.26522,-0.28746 -1.58245,0.0822 -0.21854,0.25466 -0.24203,0.22372 -0.11872,-0.15631 0.12876,-0.39686 0.0782,-0.44565 -0.31174,-0.30038 -0.27793,0.10355 -0.46547,0.0642 -0.46547,-0.0977 0,-0.14912 -0.15179,-0.27112 -0.33732,-0.27112 -0.18552,0 -0.27615,-0.11616 -0.20141,-0.25814 0.0747,-0.14198 0.23918,-0.18322 0.36539,-0.0916 0.13188,0.0957 0.18688,0.0164 0.1293,-0.18635 -0.13515,-0.47596 -0.94999,-0.46265 -0.86147,0.0141 0.11973,0.64497 -0.41832,1.53639 -0.80291,1.33022 -0.47268,-0.25338 -0.90721,-0.2072 -1.46876,0.1561 -0.62816,0.4064 -1.35443,0.3726 -2.01562,-0.0938 l -0.54092,-0.38157 0.7003,0.156 c 0.60532,0.13484 0.73473,0.0673 0.95428,-0.49844 0.28379,-0.73117 0.61727,-0.86746 0.61727,-0.25226 0,0.22119 0.12172,0.35454 0.27046,0.29633 0.14876,-0.0582 0.27046,-0.38206 0.27046,-0.71967 0,-0.51366 -0.0982,-0.60585 -0.60162,-0.56495 -0.45637,0.0371 -0.58698,-0.0544 -0.54093,-0.37899 0.049,-0.34525 -0.0835,-0.41127 -0.68631,-0.34184 -0.69329,0.0798 -0.72442,0.0534 -0.43274,-0.36706 0.28281,-0.4077 0.27459,-0.43561 -0.082,-0.27855 -0.21799,0.096 -0.49149,0.17456 -0.60779,0.17456 -0.11629,0 -0.15127,0.1143 -0.0777,0.254 0.0735,0.1397 0.0364,0.254 -0.0827,0.254 -0.119,0 -0.28426,-0.12898 -0.36726,-0.28662 -0.10317,-0.19596 -0.21326,-0.15579 -0.34807,0.127 -0.10844,0.22749 -0.39012,0.41362 -0.62594,0.41362 -0.35547,0 -0.42004,0.15194 -0.37776,0.889 0.028,0.48895 0.11818,0.889 0.20026,0.889 0.0821,0 0.13522,0.27596 0.11805,0.61324 -0.0234,0.45989 -0.0988,0.54739 -0.30166,0.3499 -0.14875,-0.14484 -0.27046,-0.42875 -0.27046,-0.63091 0,-0.23589 -0.17439,-0.33849 -0.48682,-0.2864 -0.32501,0.0542 -0.46569,0.22892 -0.42325,0.52567 0.0349,0.24448 -0.0492,0.4445 -0.18718,0.4445 -0.13793,0 -0.56974,0.4088 -0.95959,0.90845 -0.38985,0.49965 -0.74636,0.77622 -0.79226,0.61461 -0.062,-0.21837 -0.23875,-0.21076 -0.68814,0.0296 -0.50544,0.27035 -0.63715,0.26327 -0.80228,-0.0431 -0.10865,-0.20161 -0.19905,-0.26684 -0.20087,-0.14496 -0.002,0.12188 -0.14117,0.0873 -0.30966,-0.0769 -0.24324,-0.23698 -0.3326,-0.20144 -0.4337,0.17254 -0.099,0.36601 -0.32006,0.46127 -0.99185,0.42732 -0.47548,-0.024 -0.86451,0.0558 -0.86451,0.17735 0,0.12158 -0.14605,0.22105 -0.32455,0.22105 -0.1785,0 -0.32604,-0.14288 -0.32785,-0.3175 -0.003,-0.23792 -0.0491,-0.23265 -0.18612,0.021 -0.238,0.44077 -1.93774,0.2487 -2.65044,-0.29951 -0.43516,-0.33472 -0.60719,-0.3471 -1.057681,-0.0761 -0.386447,0.23246 -0.644094,0.24856 -0.914721,0.0572 -0.298421,-0.21107 -0.447165,-0.14844 -0.715456,0.30124 -0.422219,0.70767 -0.989956,0.72861 -1.351044,0.0498 -0.310791,-0.5842 -0.745981,-0.44448 -0.543635,0.17454 0.114662,0.35078 0.06495,0.36057 -0.387516,0.0763 -0.312417,-0.19629 -0.411618,-0.36815 -0.249175,-0.43172 0.148429,-0.0581 0.269881,-0.22261 0.269881,-0.36561 0,-0.14301 -0.158391,-0.18866 -0.351979,-0.10146 -0.193587,0.0872 -0.477491,0.0363 -0.630906,-0.11319 -0.209299,-0.20392 -0.314115,-0.14161 -0.419883,0.24961 -0.203388,0.75226 -1.19364,0.72308 -1.19364,-0.0352 0,-0.54584 -0.0072,-0.54706 -0.340588,-0.0635 -0.187326,0.27118 -0.278955,0.35017 -0.203604,0.17555 0.07528,-0.17463 0.04204,-0.3175 -0.07411,-0.3175 -0.116099,0 -0.243615,0.1145 -0.283348,0.25444 -0.04644,0.16345 -0.315839,0.17242 -0.753419,0.0251 -0.465203,-0.15662 -0.761342,-0.13663 -0.933999,0.0631 -0.191122,0.22105 -0.32222,0.18211 -0.537216,-0.15956 -0.245662,-0.39041 -0.301687,-0.39906 -0.411378,-0.0635 -0.06985,0.21365 -0.267972,0.38846 -0.44029,0.38846 -0.172327,0 -0.362423,0.14288 -0.422444,0.3175 -0.06516,0.18967 -0.116011,0.13854 -0.126217,-0.127 -0.01551,-0.40407 0.226283,-0.56534 0.702196,-0.46828 0.0981,0.02 0.116532,-0.0811 0.04097,-0.22461 -0.09045,-0.17181 -0.271038,-0.17702 -0.528549,-0.0152 -0.21514,0.13516 -0.452641,0.17357 -0.527791,0.0854 -0.07514,-0.0882 -0.136626,-0.0372 -0.136626,0.11346 0,0.15063 -0.170393,0.23557 -0.378641,0.18877 -0.208258,-0.0468 -0.427326,-0.0956 -0.486826,-0.10841 -0.05954,-0.0128 0.02666,-0.12359 0.191502,-0.24614 0.240959,-0.17914 0.213606,-0.27688 -0.139558,-0.49877 -0.340181,-0.21372 -0.500122,-0.18986 -0.709163,0.10584 -0.14845,0.20999 -0.213215,0.44837 -0.14391,0.52973 0.06934,0.0814 0.01013,0.29651 -0.131438,0.47812 -0.210328,0.26974 -0.326774,0.25758 -0.636094,-0.0664 -0.296576,-0.31067 -0.378641,-0.32204 -0.378641,-0.0525 0,0.26769 -0.05767,0.27644 -0.259641,0.0394 -0.378515,-0.44434 -0.605828,-0.37372 -0.605828,0.18821 0,0.27116 -0.07999,0.55105 -0.177778,0.62199 -0.244725,0.17756 -0.845152,-0.68748 -0.738323,-1.06371 0.0477,-0.1679 -0.07402,-0.30528 -0.270467,-0.30528 -0.253473,0 -0.31897,0.14128 -0.225601,0.48662 0.07232,0.26765 0.03024,0.56014 -0.0936,0.64999 -0.13408,0.0973 -0.225167,-0.10564 -0.225167,-0.50161 0,-0.46844 -0.07991,-0.60636 -0.270459,-0.46663 -0.148756,0.10909 -0.406761,0.22254 -0.573355,0.2521 -0.166585,0.0296 -0.385661,0.20423 -0.486826,0.38814 -0.150826,0.27421 -0.218692,0.27106 -0.377074,-0.0175 -0.1277,-0.23264 -0.384307,-0.29555 -0.757285,-0.18566 -0.310282,0.0914 -0.564138,0.0605 -0.564138,-0.0688 0,-0.12929 -0.198879,-0.17401 -0.441951,-0.0994 -0.243071,0.0746 -0.426277,0.0354 -0.40711,-0.0873 0.09874,-0.63192 -0.04421,-0.88183 -0.423526,-0.7405 -0.256931,0.0957 -0.453961,0.008 -0.534119,-0.23688 -0.06985,-0.21371 -0.233183,-0.38857 -0.362943,-0.38857 -0.129761,0 -0.188717,0.0897 -0.131004,0.19931 0.05767,0.10961 -0.155614,0.18462 -0.474057,0.16668 -1.581361,-0.0891 -1.58729,-0.0917 -1.444445,-0.61999 0.07556,-0.2794 0.04157,-0.508 -0.07556,-0.508 -0.11711,0 -0.248405,0.12497 -0.291772,0.27771 -0.05,0.17613 -0.454345,0.0635 -1.105439,-0.30779 -0.592061,-0.33768 -0.983652,-0.7168 -0.925173,-0.89571 0.06082,-0.18617 -0.173604,-0.38112 -0.586345,-0.48754 -0.378268,-0.0975 -0.795993,-0.3511 -0.928284,-0.56348 -0.171883,-0.27595 -0.284462,-0.30268 -0.394502,-0.0937 -0.191026,0.36286 -1.692705,0.38654 -1.995176,0.0315 -0.152215,-0.1787 -0.35353,0.0416 -0.638283,0.6985 -0.228761,0.52774 -0.437921,1.00438 -0.464796,1.05921 -0.02691,0.0548 -0.181042,-0.0291 -0.342602,-0.18648 -0.227245,-0.2214 -0.399836,-0.14292 -0.762505,0.34674 -0.257835,0.3481 -0.468784,0.73411 -0.468784,0.85781 0,0.36111 -0.612258,0.53444 -0.711694,0.20147 -0.06474,-0.21688 -0.20738,-0.18764 -0.500804,0.10266 -0.632328,0.62561 -1.110678,0.74258 -1.394579,0.34101 -0.325411,-0.4603 -0.661367,-0.47763 -0.513906,-0.0265 0.131005,0.40078 -0.46725,0.40027 -1.073247,-0.001 -0.319423,-0.21147 -0.496988,-0.16529 -0.819264,0.21304 -0.226308,0.26566 -0.353479,0.59316 -0.282615,0.72776 0.186255,0.35378 -0.627234,0.30154 -0.935259,-0.0601 -0.142802,-0.16764 -0.261131,-0.19622 -0.262954,-0.0635 -0.0017,0.13271 -0.09919,0.0699 -0.216367,-0.1397 -0.133619,-0.23895 -0.27355,-0.28631 -0.375328,-0.127 -0.08925,0.1397 -0.283977,0.26543 -0.432734,0.2794 -0.576532,0.0541 -0.65629,0.11763 -0.765879,0.6096 -0.129616,0.58185 -0.586415,0.69246 -0.586415,0.14199 0,-0.57308 -0.46748,-0.76795 -0.69538,-0.28988 -0.187737,0.3938 -0.241872,0.38245 -0.620616,-0.1302 -0.230541,-0.31195 -0.414936,-0.41757 -0.414936,-0.23757 0,0.25008 -0.06962,0.25613 -0.305288,0.0265 -0.21027,-0.20486 -0.349222,-0.21398 -0.446446,-0.0293 -0.07764,0.14747 0.01049,0.33645 0.195859,0.41995 0.500593,0.22551 0.248826,0.48729 -0.536176,0.55751 -0.599634,0.0536 -0.676879,-0.007 -0.577544,-0.45285 0.06307,-0.28313 0.03324,-0.45569 -0.0663,-0.38347 -0.09953,0.0722 -0.304388,-0.26938 -0.455231,-0.75908 -0.183325,-0.59516 -0.330755,-0.78596 -0.444642,-0.57545 -0.112184,0.20736 -0.17151,0.11972 -0.173692,-0.25657 -0.0017,-0.31433 0.08432,-0.54293 0.191417,-0.508 0.255984,0.0835 0.328798,-0.40897 0.07515,-0.50823 -0.107421,-0.042 -0.307367,0.21228 -0.444323,0.56515 -0.136956,0.35287 -0.348463,0.64158 -0.470015,0.64158 -0.289453,0 -0.285751,0.68505 0.0049,0.89588 0.124217,0.0901 0.359967,0.0332 0.523896,-0.12653 0.240368,-0.23418 0.275524,-0.18926 0.181653,0.23213 -0.06401,0.28739 -0.242973,0.52252 -0.39768,0.52252 -0.154706,0 -0.33808,0.14288 -0.407499,0.3175 -0.09907,0.24921 -0.154363,0.24568 -0.257087,-0.0164 -0.07198,-0.18365 -0.377694,-0.44408 -0.679362,-0.57872 -0.424478,-0.18946 -0.651713,-0.1442 -1.005051,0.20018 -0.251111,0.24473 -0.349319,0.29925 -0.218241,0.12114 0.257465,-0.34985 0.148461,-1.56768 -0.140318,-1.56768 -0.09685,0 -0.212304,-0.25718 -0.256559,-0.5715 -0.07471,-0.53068 -0.11057,-0.51078 -0.501873,0.2786 l -0.421409,0.8501 -1.670172,-0.14305 c -1.432503,-0.12269 -1.700019,-0.081 -1.879921,0.2929 -0.179085,0.37221 -0.258362,0.30009 -0.542212,-0.49328 -0.182853,-0.51108 -0.447178,-0.97412 -0.587388,-1.02899 -0.367727,-0.14389 0.414487,-1.47184 0.864064,-1.4669 0.28521,0.003 0.295979,0.0469 0.05557,0.22561 -0.163997,0.12194 -0.236413,0.33903 -0.160925,0.48241 0.07549,0.14339 0.01582,0.30823 -0.132624,0.36631 -0.197346,0.0772 -0.172786,0.21958 0.09138,0.5297 0.328414,0.38553 0.392165,0.3878 0.70126,0.0249 0.386828,-0.45411 0.458217,-1.37886 0.106446,-1.37886 -0.146946,0 -0.180688,-0.28257 -0.09099,-0.762 0.08738,-0.46705 0.0551,-0.762 -0.08338,-0.762 -0.124271,0 -0.340904,-0.25717 -0.481411,-0.5715 -0.254092,-0.56843 -0.252973,-0.5689 0.208755,-0.0876 0.416914,0.43456 0.464218,0.44019 0.464218,0.0553 0,-0.45505 -0.922817,-1.01565 -1.045773,-0.63529 -0.03967,0.12271 -0.210057,0.22311 -0.378642,0.22311 -0.415048,0 -0.399386,1.24411 0.01803,1.43215 0.483912,0.21799 0.392324,0.5731 -0.108183,0.41945 -0.317971,-0.0976 -0.433613,-0.007 -0.436046,0.34128 -0.0028,0.39907 -0.03652,0.41381 -0.213055,0.0931 -0.139827,-0.254 -0.210845,-0.27516 -0.213054,-0.0635 -0.0017,0.17463 -0.222384,0.31925 -0.490139,0.32139 -0.389314,0.003 -0.422181,0.0519 -0.164083,0.24342 0.587507,0.43604 -0.06979,0.76397 -1.521488,0.75907 -0.768713,-0.003 -1.659011,-2.4e-4 -1.978442,0.005 -0.319434,0.005 -0.635965,-0.0949 -0.703405,-0.22298 -0.0733,-0.13923 -0.417789,-0.12657 -0.856457,0.0315 -0.650078,0.23422 -0.869158,0.17351 -1.919338,-0.53185 -0.652026,-0.43793 -1.308961,-0.79624 -1.459858,-0.79624 -0.150898,0 -0.394924,-0.19356 -0.542278,-0.43013 -0.251749,-0.40417 -0.290029,-0.40417 -0.634317,0 -0.348623,0.40926 -0.650937,0.5378 -1.061457,0.4513 -0.101776,-0.0214 -0.31218,0.0849 -0.467563,0.23625 -0.205057,0.19979 -0.327224,0.19032 -0.445589,-0.0345 -0.11392,-0.21639 -0.213541,-0.14962 -0.330484,0.22149 -0.19669,0.62418 -0.424877,0.60478 -1.642768,-0.1397 -0.499281,-0.30521 -0.960798,-0.45422 -1.025597,-0.33114 -0.06479,0.12307 -0.532578,0.22647 -1.039517,0.22977 -0.506937,0.003 -1.335508,0.0834 -1.841265,0.17791 -0.608502,0.11377 -0.91956,0.0784 -0.91956,-0.10466 0,-0.15212 -0.07302,-0.26304 -0.162275,-0.2465 -0.461289,0.0855 -0.704919,-0.075 -0.720275,-0.47458 -0.01075,-0.28005 -0.09748,-0.18607 -0.234396,0.254 -0.221202,0.71099 -0.887584,0.95227 -1.166556,0.42237 -0.07995,-0.15187 -0.324445,-0.22115 -0.543313,-0.15396 -0.218867,0.0672 -0.42695,0.0265 -0.462406,-0.0905 -0.09646,-0.31826 -3.568122,1.69928 -3.828765,2.22507 -0.123932,0.25 -0.228291,0.31167 -0.23191,0.13705 -0.0036,-0.17463 -0.151894,-0.3175 -0.3295,-0.3175 -0.248357,0 -0.310807,0.27858 -0.270458,1.2065 0.0472,1.08547 0.0028,1.21477 -0.442532,1.28892 -0.427566,0.0712 -0.476951,-0.002 -0.362546,-0.53707 0.09407,-0.43998 0.02976,-0.66576 -0.221913,-0.77913 -0.194899,-0.0878 -0.29376,-0.27474 -0.219694,-0.41543 0.207917,-0.39493 -0.49456,-0.30243 -1.071099,0.14104 -0.283746,0.21825 -0.645439,0.37137 -0.803763,0.34026 -0.471569,-0.0927 -1.485426,0.49754 -1.425373,0.82974 0.03062,0.1694 -0.126244,0.35435 -0.34859,0.411 -0.238099,0.0607 -0.347816,-0.004 -0.26693,-0.15786 0.247573,-0.47026 -0.360537,-0.63973 -0.646742,-0.18024 -0.324178,0.52045 -0.275909,2.5598 0.07021,2.96612 0.280592,0.32939 0.77476,0.0467 0.576537,-0.32982 -0.08088,-0.15364 0.02884,-0.21853 0.26693,-0.15786 0.222347,0.0566 0.379212,0.2416 0.34859,0.411 -0.06005,0.3322 0.953804,0.92239 1.425373,0.82974 0.158324,-0.0311 0.520017,0.12201 0.803764,0.34026 0.576539,0.44347 1.279017,0.53597 1.071099,0.14104 -0.07407,-0.14069 0.02479,-0.32763 0.219694,-0.41543 0.251674,-0.11337 0.315979,-0.33915 0.221913,-0.77913 -0.114405,-0.53511 -0.06502,-0.60827 0.362546,-0.53707 0.445337,0.0742 0.489731,0.20345 0.442532,1.28892 -0.04035,0.92792 0.02211,1.2065 0.270458,1.2065 0.177607,0 0.325882,-0.14288 0.3295,-0.3175 0.0036,-0.17463 0.107977,-0.11295 0.23191,0.13705 0.260643,0.52579 3.732304,2.54333 3.828765,2.22507 0.03546,-0.11698 0.243539,-0.15772 0.462406,-0.0905 0.218868,0.0672 0.463359,-0.002 0.543313,-0.15396 0.278971,-0.5299 0.945353,-0.28862 1.166555,0.42237 0.136913,0.44007 0.223636,0.53405 0.234397,0.254 0.01536,-0.39956 0.258985,-0.56008 0.720276,-0.47458 0.08925,0.0165 0.162274,-0.0944 0.162274,-0.2465 0,-0.18302 0.311057,-0.21843 0.91956,-0.10466 0.505757,0.0945 1.334328,0.17461 1.841265,0.17791 0.506939,0.003 0.974723,0.1067 1.039517,0.22977 0.0648,0.12308 0.526316,-0.0259 1.025596,-0.33114 1.217892,-0.74448 1.446079,-0.76388 1.64277,-0.1397 0.116942,0.37111 0.216563,0.43788 0.330483,0.22149 0.118366,-0.22483 0.240532,-0.2343 0.44559,-0.0345 0.155382,0.15138 0.365786,0.2577 0.467562,0.23625 0.41052,-0.0865 0.712834,0.042 1.061457,0.4513 0.344288,0.40417 0.382568,0.40417 0.634317,0 0.147354,-0.23657 0.391379,-0.43013 0.542278,-0.43013 0.150896,0 0.807832,-0.35831 1.459856,-0.79625 1.05018,-0.70535 1.26926,-0.76606 1.919337,-0.53185 0.438669,0.15805 0.783159,0.17071 0.856458,0.0315 0.06744,-0.1281 0.383972,-0.22845 0.703405,-0.22299 0.319431,0.005 1.209728,0.008 1.978441,0.005 1.4517,-0.005 2.108996,0.32303 1.521489,0.75907 -0.258099,0.19155 -0.225232,0.24031 0.164084,0.24342 0.267754,0.002 0.488316,0.14677 0.490138,0.32139 0.0022,0.21167 0.07322,0.1905 0.213054,-0.0635 0.17654,-0.32069 0.210266,-0.30595 0.213054,0.0931 0.0024,0.34838 0.118076,0.43889 0.436047,0.34128 0.500506,-0.15365 0.592094,0.20145 0.108184,0.41945 -0.178503,0.0804 -0.324551,0.43554 -0.324551,0.78917 0,0.4022 0.121535,0.64297 0.324551,0.64297 0.178502,0 0.324549,0.11062 0.324549,0.24582 0,0.44606 0.970692,-0.15825 1.05289,-0.65548 z m 67.046079,-1.17783 c -0.13513,-0.41698 0.20039,-1.4605 0.46961,-1.4605 0.37805,0 0.44553,0.42377 0.17599,1.10534 -0.29014,0.73369 -0.48769,0.84236 -0.6456,0.35516 z m 1.13844,-0.0635 c 0,-0.20955 0.0974,-0.381 0.21637,-0.381 0.119,0 0.21637,0.17145 0.21637,0.381 0,0.20955 -0.0974,0.381 -0.21637,0.381 -0.119,0 -0.21637,-0.17145 -0.21637,-0.381 z m 31.71941,-1.06016 c 0.13091,-0.11541 0.29958,-0.38129 0.37483,-0.59084 0.0961,-0.2677 0.12185,-0.2362 0.0865,0.10595 -0.0277,0.26783 -0.19633,0.5337 -0.37484,0.59084 -0.20874,0.0668 -0.23962,0.029 -0.0865,-0.10595 z m 4.4073,-0.40034 c -0.006,-0.52168 -0.0264,-0.53152 -0.23384,-0.11292 -0.17952,0.36225 -0.29177,0.39574 -0.53433,0.1594 -0.48899,-0.47641 -0.35753,-0.77209 0.28792,-0.64756 0.32725,0.0632 0.86276,0.12421 1.19002,0.13569 0.38705,0.0136 0.595,0.15929 0.595,0.41688 0,0.2178 -0.0906,0.33023 -0.20141,0.24986 -0.11078,-0.0804 -0.26257,-0.03 -0.33732,0.11201 -0.25113,0.477 -0.75934,0.26911 -0.76604,-0.31336 z m -1.94073,-0.3175 c 0,-0.20955 0.13564,-0.381 0.3014,-0.381 0.16577,0 0.35744,0.17145 0.42595,0.381 0.0847,0.25915 -0.0117,0.381 -0.30141,0.381 -0.23436,0 -0.42594,-0.17136 -0.42594,-0.381 z m -3.98888,-0.56054 c -0.11742,-0.36201 -0.0926,-0.39118 0.12112,-0.14219 0.14787,0.17229 0.21435,0.37725 0.14774,0.45545 -0.0667,0.0782 -0.1876,-0.0628 -0.26886,-0.31326 z M 133.34637,189.23 c 0.0747,-0.14198 0.22655,-0.19239 0.33733,-0.11201 0.3001,0.21773 0.24414,0.37015 -0.13591,0.37015 -0.18553,0 -0.27616,-0.11616 -0.20142,-0.25814 z m -5.30317,-0.62192 c 0,-0.20464 0.19112,-0.49213 0.42468,-0.63888 0.27841,-0.17491 0.37832,-0.41857 0.29008,-0.70743 -0.074,-0.24235 -0.0604,-0.3622 0.0304,-0.26635 0.0907,0.0959 0.37397,0.081 0.6295,-0.0331 0.31189,-0.1392 0.55713,-0.0911 0.74612,0.14643 0.30791,0.38696 0.16035,0.89058 -0.24379,0.83201 -0.58896,-0.0854 -0.79506,0.0524 -0.79506,0.53136 0,0.37253 -0.14425,0.508 -0.54092,0.508 -0.33079,0 -0.54092,-0.14453 -0.54092,-0.37206 z m 18.567,0.19855 c 0.15618,-0.0734 0.3428,-0.0643 0.4147,0.02 0.0719,0.0844 -0.0559,0.14444 -0.28398,0.13341 -0.25206,-0.0122 -0.30332,-0.0724 -0.13072,-0.15346 z m 4.79303,-0.47225 c -0.19215,-0.2718 -0.34603,-0.31069 -0.5025,-0.127 -0.37161,0.43623 -0.60622,0.30113 -0.53269,-0.30674 0.0525,-0.43446 0.18898,-0.55183 0.56887,-0.48947 0.27485,0.0451 0.64232,-0.0569 0.81661,-0.22669 0.45048,-0.4389 0.65765,-0.0736 0.26119,0.4606 -0.18207,0.24533 -0.28696,0.58893 -0.23307,0.76356 0.13389,0.43383 -0.0438,0.39895 -0.37841,-0.0743 z m -5.29339,-0.11624 c 0.0735,-0.1397 0.22535,-0.254 0.33732,-0.254 0.11199,0 0.2036,0.1143 0.2036,0.254 0,0.1397 -0.15179,0.254 -0.33732,0.254 -0.18552,0 -0.27715,-0.1143 -0.2036,-0.254 z m 1.62275,-0.23901 c 0,-0.13145 0.0974,-0.30965 0.21637,-0.39599 0.119,-0.0863 0.21637,0.0212 0.21637,0.23901 0,0.21779 -0.0974,0.39599 -0.21637,0.39599 -0.119,0 -0.21637,-0.10755 -0.21637,-0.23901 z m -16.66025,-0.26899 c -0.26244,-0.1991 -0.23138,-0.24696 0.16228,-0.25011 0.26775,-0.002 0.48682,0.11041 0.48682,0.25011 0,0.31824 -0.22961,0.31824 -0.6491,0 z m 13.98999,-0.11357 c -0.0992,-0.30348 0.0234,-0.39443 0.53141,-0.39443 0.43154,0 0.62949,0.11002 0.57128,0.3175 -0.13323,0.47491 -0.95388,0.53216 -1.10269,0.0769 z m 21.39524,0.13112 c -0.0685,-0.13005 -0.0255,-0.30824 0.0954,-0.39599 0.12094,-0.0877 0.21989,0.0186 0.21989,0.23645 0,0.44616 -0.12982,0.51185 -0.31531,0.15954 z m -7.04116,-0.25656 c 0,-0.13145 0.0963,-0.30884 0.21389,-0.39419 0.12265,-0.089 0.15892,0.013 0.085,0.23901 -0.14384,0.44003 -0.29892,0.52054 -0.29892,0.15518 z m 8.33012,-0.26899 c 0.0735,-0.1397 0.22535,-0.254 0.33732,-0.254 0.11198,0 0.2036,0.1143 0.2036,0.254 0,0.1397 -0.15179,0.254 -0.33732,0.254 -0.18552,0 -0.27714,-0.1143 -0.2036,-0.254 z m -153.836875,-0.254 c 0.07354,-0.1397 0.176658,-0.254 0.229135,-0.254 0.05248,0 0.09541,0.1143 0.09541,0.254 0,0.1397 -0.103112,0.254 -0.229137,0.254 -0.126025,0 -0.168961,-0.1143 -0.09541,-0.254 z m 133.998735,0.0805 c 0.15619,-0.0734 0.34281,-0.0643 0.4147,0.02 0.0719,0.0844 -0.0559,0.14444 -0.28397,0.13341 -0.25206,-0.0122 -0.30332,-0.0724 -0.13073,-0.15346 z M 11.081686,186.10421 c -0.07661,-0.23436 -0.07661,-0.61784 0,-0.8522 0.130358,-0.39879 0.162538,-0.39879 0.502246,0 0.339709,0.3988 0.339709,0.4534 0,0.8522 -0.339708,0.39879 -0.371888,0.39879 -0.502246,0 z m 3.598411,-0.4261 c 0,-0.72527 0.04061,-0.80714 0.22054,-0.4445 0.149807,0.30194 0.149807,0.58706 0,0.889 -0.179923,0.36264 -0.22054,0.28077 -0.22054,-0.4445 z m 1.501411,0.51597 c 0,-0.13531 0.146047,-0.18024 0.324549,-0.0998 0.178503,0.0804 0.324551,0.19112 0.324551,0.24603 0,0.0549 -0.146048,0.0998 -0.324551,0.0998 -0.178502,0 -0.324549,-0.11071 -0.324549,-0.24603 z m -3.461871,-0.51597 c 0,-0.1397 0.19473,-0.254 0.432734,-0.254 0.238003,0 0.432733,0.1143 0.432733,0.254 0,0.1397 -0.19473,0.254 -0.432733,0.254 -0.238004,0 -0.432734,-0.1143 -0.432734,-0.254 z m 3.461871,-0.53178 c 0,-0.12662 0.19473,-0.23022 0.432733,-0.23022 0.238004,0 0.432734,0.0438 0.432734,0.0974 0,0.0536 -0.19473,0.15715 -0.432734,0.23022 -0.238003,0.0731 -0.432733,0.0292 -0.432733,-0.0974 z m -2.271853,-0.73822 c -0.07355,-0.1397 -0.03062,-0.254 0.09541,-0.254 0.126025,0 0.229137,0.1143 0.229137,0.254 0,0.1397 -0.04293,0.254 -0.09541,0.254 -0.05248,0 -0.155588,-0.1143 -0.229135,-0.254 z m 115.535235,-0.008 c -0.23541,-0.10031 -0.51759,-0.12078 -0.62707,-0.0455 -0.10949,0.0753 -0.13745,-0.0516 -0.0622,-0.28191 0.0883,-0.26999 -0.014,-0.51359 -0.28778,-0.6856 -0.61035,-0.38347 -0.53821,-1.01094 0.11624,-1.01094 0.39668,0 0.54092,0.13547 0.54092,0.508 0,0.47897 0.2061,0.61671 0.79506,0.53136 0.40624,-0.0589 0.55709,0.4576 0.24178,0.82775 -0.17496,0.2054 -0.45781,0.26727 -0.71699,0.15684 z m 18.4635,-0.16546 c 0.15619,-0.0734 0.34281,-0.0644 0.4147,0.02 0.0719,0.0844 -0.0559,0.14444 -0.28397,0.13341 -0.25206,-0.0122 -0.30332,-0.0724 -0.13073,-0.15346 z m 3.8191,-0.0955 c -0.0779,-0.14795 -0.40007,-0.23367 -0.71597,-0.1905 -0.45582,0.0623 -0.5886,-0.0394 -0.64348,-0.493 -0.0712,-0.58807 0.25747,-0.78175 0.51059,-0.30095 0.0928,0.1762 0.29864,0.10976 0.59037,-0.1905 0.39536,-0.40692 0.43244,-0.41104 0.31593,-0.0351 -0.0726,0.23426 0.008,0.56258 0.17968,0.7296 0.17144,0.16702 0.31169,0.40398 0.31169,0.52657 0,0.31081 -0.37761,0.27909 -0.54881,-0.0461 z m 7.7882,-0.002 c -0.0784,-0.149 -0.0962,-0.32538 -0.0395,-0.39196 0.0568,-0.0666 0.16077,0.0553 0.23123,0.2709 0.1463,0.44758 0.0216,0.5263 -0.19173,0.12106 z m 8.23084,0.0168 c -0.0735,-0.1397 0.0181,-0.254 0.2036,-0.254 0.18553,0 0.33732,0.1143 0.33732,0.254 0,0.1397 -0.0916,0.254 -0.2036,0.254 -0.11197,0 -0.26376,-0.1143 -0.33732,-0.254 z m -22.6842,-0.39443 c 0.14881,-0.45523 0.96946,-0.39798 1.10269,0.0769 0.0582,0.20748 -0.13974,0.3175 -0.57128,0.3175 -0.50807,0 -0.6306,-0.0909 -0.53141,-0.39443 z m 21.39524,0.15798 c -0.0685,-0.13005 -0.0255,-0.30824 0.0954,-0.39599 0.12094,-0.0877 0.21989,0.0186 0.21989,0.23645 0,0.44616 -0.12982,0.51185 -0.31531,0.15954 z m -35.38523,-0.27155 c 0.41949,-0.31824 0.6491,-0.31824 0.6491,0 0,0.1397 -0.21907,0.25225 -0.48682,0.25011 -0.39366,-0.003 -0.42472,-0.051 -0.16228,-0.25011 z m 16.78639,0.0341 c -0.0932,-0.17704 -0.11104,-0.39048 -0.0396,-0.47432 0.19363,-0.22732 0.40476,0.10701 0.30018,0.47535 -0.0732,0.2581 -0.12425,0.2579 -0.26057,-0.001 z m -1.74889,-0.54209 c -0.0735,-0.1397 0.0181,-0.254 0.2036,-0.254 0.18553,0 0.33732,0.1143 0.33732,0.254 0,0.1397 -0.0916,0.254 -0.2036,0.254 -0.11197,0 -0.26377,-0.1143 -0.33732,-0.254 z m 0.50036,-0.68151 c 0.15618,-0.0734 0.3428,-0.0643 0.4147,0.02 0.0719,0.0844 -0.0559,0.14444 -0.28398,0.13341 -0.25206,-0.0122 -0.30332,-0.0724 -0.13072,-0.15346 z m -13.26601,-0.33449 c -0.0735,-0.1397 0.0239,-0.254 0.21637,-0.254 0.19255,0 0.28991,0.1143 0.21637,0.254 -0.0735,0.1397 -0.17092,0.254 -0.21637,0.254 -0.0455,0 -0.14282,-0.1143 -0.21637,-0.254 z m 10.83226,-0.0745 c 0.0813,-0.25049 0.20224,-0.39146 0.26886,-0.31326 0.0666,0.0782 1.3e-4,0.28316 -0.14774,0.45545 -0.21368,0.24899 -0.23854,0.21982 -0.12112,-0.14219 z m 3.98888,-0.56054 c 0,-0.20964 0.19158,-0.381 0.42594,-0.381 0.28973,0 0.38611,0.12185 0.30141,0.381 -0.0685,0.20955 -0.26018,0.381 -0.42595,0.381 -0.16576,0 -0.3014,-0.17145 -0.3014,-0.381 z m 0.86547,0.16679 c 0,-0.12737 0.13818,-0.36622 0.30709,-0.53077 0.24256,-0.23634 0.35481,-0.20285 0.53433,0.1594 0.20744,0.4186 0.22783,0.40876 0.23384,-0.11292 0.007,-0.58247 0.51491,-0.79036 0.76604,-0.31336 0.0747,0.14198 0.22654,0.19239 0.33732,0.11201 0.11078,-0.0804 0.20141,0.0321 0.20141,0.24986 0,0.25759 -0.20795,0.40329 -0.595,0.41688 -0.32726,0.0115 -0.86277,0.0725 -1.19002,0.13569 -0.32726,0.0631 -0.59501,0.0106 -0.59501,-0.11679 z m -3.02914,-0.35729 c 0,-0.22119 -0.1217,-0.45982 -0.27046,-0.53028 -0.21184,-0.10035 -0.21037,-0.13246 0.007,-0.14817 0.30853,-0.0223 0.60966,0.67445 0.39858,0.92224 -0.0742,0.0871 -0.13492,-0.0226 -0.13492,-0.24379 z m 22.61034,0.0635 c -0.17645,-0.33516 0.0823,-0.81079 0.33951,-0.62415 0.2628,0.19067 0.26108,0.87815 -0.003,0.87815 -0.11198,0 -0.26377,-0.1143 -0.33732,-0.254 z m -55.69302,-0.8255 c -0.18179,-0.5741 -0.0955,-1.20821 0.16396,-1.20452 0.2167,0.003 0.68185,1.31313 0.55308,1.5577 -0.20597,0.39125 -0.5322,0.23057 -0.71704,-0.35318 z m 1.06037,-0.8255 c 0,-0.20955 0.0974,-0.381 0.21637,-0.381 0.119,0 0.21637,0.17145 0.21637,0.381 0,0.20955 -0.0974,0.381 -0.21637,0.381 -0.119,0 -0.21637,-0.17145 -0.21637,-0.381 z m -70.836981,13.20084 c 0.02569,-0.20551 -0.04204,-0.37365 -0.150506,-0.37365 -0.108473,0 -0.197223,0.24765 -0.197223,0.55033 0,0.58659 0.269418,0.44969 0.347729,-0.17668 z m 16.676694,0.0867 c -0.06908,-0.20262 -0.120338,-0.14243 -0.130723,0.15346 -0.0094,0.26776 0.04174,0.41778 0.113645,0.33338 0.07189,-0.0844 0.07956,-0.30348 0.01703,-0.48684 z m -18.214441,-0.20637 c -0.07355,-0.1397 -0.225342,-0.254 -0.33732,-0.254 -0.111979,0 -0.203598,0.1143 -0.203598,0.254 0,0.1397 0.151794,0.254 0.33732,0.254 0.185527,0 0.277145,-0.1143 0.203598,-0.254 z m 0.757283,-0.254 c 0,-0.1397 -0.09737,-0.254 -0.216366,-0.254 -0.119002,0 -0.216367,0.1143 -0.216367,0.254 0,0.1397 0.09736,0.254 0.216367,0.254 0.119001,0 0.216366,-0.1143 0.216366,-0.254 z m 107.052045,-0.20638 c 0.0471,-0.16589 -0.0685,-0.30162 -0.25694,-0.30162 -0.18841,0 -0.34258,0.18097 -0.34258,0.40217 0,0.44854 0.46578,0.37043 0.59952,-0.10055 z m -3.98526,-0.1811 c -0.0977,-0.29881 -0.19516,-0.32075 -0.42595,-0.0959 -0.4018,0.39147 -0.37773,0.48338 0.12666,0.48338 0.2929,0 0.38638,-0.12104 0.29929,-0.38748 z m 8.6932,-0.78776 c 0.19165,0.0864 0.25379,0.004 0.1762,-0.23324 -0.0659,-0.20163 -0.19868,-0.3094 -0.29505,-0.23948 -0.0964,0.0699 -0.21299,-0.006 -0.25917,-0.16857 -0.1368,-0.48175 -1.25121,-0.0284 -1.25121,0.50904 0,0.71658 0.24384,0.83679 0.8116,0.40008 0.28686,-0.22065 0.6548,-0.34118 0.81763,-0.26783 z m -111.110883,0.0111 c 0,-0.44854 -0.465786,-0.37043 -0.599516,0.10054 -0.04711,0.1659 0.06852,0.30163 0.256935,0.30163 0.188419,0 0.342581,-0.18098 0.342581,-0.40217 z m 10.277429,-0.0635 c 0,-0.4594 -0.423495,-0.37553 -0.507488,0.10051 -0.04673,0.26485 0.03438,0.38096 0.216366,0.30974 0.160116,-0.0626 0.291122,-0.24726 0.291122,-0.41025 z m 21.611062,0.0715 c 0.07385,-0.22604 0.03765,-0.328 -0.08502,-0.23901 -0.11763,0.0854 -0.213889,0.26274 -0.213889,0.39419 0,0.36536 0.155087,0.28485 0.298928,-0.15518 z m 52.927342,-0.11381 c 0,-0.1397 -0.0429,-0.254 -0.0954,-0.254 -0.0525,0 -0.15559,0.1143 -0.22914,0.254 -0.0735,0.1397 -0.0305,0.254 0.0954,0.254 0.12603,0 0.22914,-0.1143 0.22914,-0.254 z m -73.564753,-1.66759 c 0,-0.20675 -0.214893,-0.089 -0.545052,0.29854 -0.299779,0.35191 -0.478995,0.76533 -0.398258,0.91868 0.169902,0.32272 0.94331,-0.67527 0.94331,-1.21722 z m 71.558853,1.26013 c -0.0719,-0.0844 -0.25852,-0.0934 -0.41471,-0.02 -0.17259,0.0811 -0.12134,0.14127 0.13072,0.15346 0.22809,0.011 0.35588,-0.049 0.28399,-0.13341 z m 4.6023,-0.10054 c 0,-0.1397 -0.0974,-0.254 -0.21637,-0.254 -0.119,0 -0.21636,0.1143 -0.21636,0.254 0,0.1397 0.0974,0.254 0.21636,0.254 0.11901,0 0.21637,-0.1143 0.21637,-0.254 z m 24.9942,-0.82552 c -0.66957,-0.43988 -1.01745,0.0173 -0.77765,1.02187 0.009,0.0382 0.26759,-0.12374 0.57442,-0.35975 0.48699,-0.37458 0.51282,-0.45873 0.20323,-0.66212 z m 23.68836,0.57152 c 0,-0.1397 -0.0974,-0.254 -0.21637,-0.254 -0.119,0 -0.21636,0.1143 -0.21636,0.254 0,0.1397 0.0974,0.254 0.21636,0.254 0.11901,0 0.21637,-0.1143 0.21637,-0.254 z m -103.423386,-0.254 c 0,-0.1397 -0.09736,-0.254 -0.216367,-0.254 -0.119002,0 -0.216367,0.1143 -0.216367,0.254 0,0.1397 0.09736,0.254 0.216367,0.254 0.119002,0 0.216367,-0.1143 0.216367,-0.254 z M 157.70205,188.898 c -0.10417,-0.12228 -0.38959,-0.14773 -0.63428,-0.0566 -0.32594,0.12144 -0.43301,0.35549 -0.40043,0.87532 l 0.0445,0.70955 0.58982,-0.65299 c 0.33717,-0.37331 0.50868,-0.74822 0.40041,-0.87532 z M 55.760911,188.1239 c -0.187584,-0.20207 -1.490208,0.15909 -1.373483,0.3808 0.06651,0.12633 0.211564,0.16394 0.322344,0.0836 0.110778,-0.0804 0.201416,0.0365 0.201416,0.25975 0,0.33838 0.07836,0.32019 0.47108,-0.10932 0.259094,-0.28337 0.429482,-0.56003 0.378643,-0.61479 z m 129.898589,0.0942 c 0.13002,-0.58366 0.58641,-0.6917 0.58641,-0.13881 0,0.30989 0.11294,0.29969 0.70319,-0.0635 0.38676,-0.23798 0.73565,-0.51842 0.77532,-0.62319 0.0397,-0.10478 0.20232,-0.1905 0.36145,-0.1905 0.15913,0 0.35348,-0.3429 0.43189,-0.762 0.18447,-0.98599 -0.0612,-2.286 -0.43189,-2.286 -0.15913,0 -0.32178,-0.0857 -0.36145,-0.1905 -0.0397,-0.10478 -0.38856,-0.38521 -0.77532,-0.62319 -0.59025,-0.36319 -0.70319,-0.37339 -0.70319,-0.0635 0,0.55289 -0.45639,0.44485 -0.58641,-0.13881 -0.0623,-0.2794 -0.1797,-0.508 -0.26102,-0.508 -0.25397,0 -0.66714,0.59328 -0.66714,0.95794 0,0.19159 -0.14335,0.51663 -0.31856,0.72232 -0.28051,0.32929 -0.36186,0.31462 -0.68092,-0.12284 -0.1993,-0.27325 -0.48423,-0.44191 -0.6332,-0.3748 -0.14897,0.0671 -0.3325,0.005 -0.40785,-0.13821 -0.0753,-0.14312 -0.27992,-0.19584 -0.45462,-0.11714 -0.50235,0.2263 -0.3693,0.56213 0.1692,0.4271 0.4514,-0.11319 0.45927,-0.0956 0.10818,0.24228 -0.25327,0.24372 -0.37864,0.72425 -0.37864,1.45135 0,0.7271 0.12537,1.20763 0.37864,1.45135 0.35109,0.33783 0.34322,0.35547 -0.10818,0.24228 -0.5385,-0.13503 -0.67155,0.2008 -0.1692,0.4271 0.1747,0.0787 0.37927,0.026 0.45462,-0.11714 0.0754,-0.14312 0.25888,-0.20532 0.40785,-0.13821 0.14897,0.0671 0.4339,-0.10155 0.6332,-0.3748 0.31906,-0.43746 0.40041,-0.45213 0.68092,-0.12284 0.17521,0.20569 0.31856,0.53073 0.31856,0.72232 0,0.36466 0.41317,0.95794 0.66714,0.95794 0.0814,0 0.19878,-0.2286 0.26102,-0.508 z M 11.569238,187.91648 c -0.06907,-0.20262 -0.12034,-0.14243 -0.130722,0.15346 -0.0094,0.26776 0.04174,0.41778 0.113641,0.33338 0.07189,-0.0844 0.07958,-0.30348 0.01708,-0.48684 z m 68.656881,0.0476 c 0,-0.1397 -0.04293,-0.254 -0.09541,-0.254 -0.05247,0 -0.155588,0.1143 -0.229136,0.254 -0.07351,0.1397 -0.03058,0.254 0.09542,0.254 0.12602,0 0.229135,-0.1143 0.229135,-0.254 z m -68.656881,-4.87359 c -0.06907,-0.20263 -0.12034,-0.14244 -0.130722,0.15345 -0.0094,0.26776 0.04174,0.41778 0.113641,0.33338 0.07189,-0.0844 0.07958,-0.30348 0.01708,-0.48683 z m 40.529179,0.13681 c 0,-0.0581 -0.192653,-0.18922 -0.428116,-0.29148 -0.382057,-0.16591 -0.397767,-0.25459 -0.146026,-0.82422 0.29576,-0.66923 0.5837,-1.76749 0.463399,-1.76749 -0.299448,0 -0.730954,0.34766 -0.641768,0.51707 0.06076,0.1154 0.01824,0.27674 -0.09448,0.35852 -0.358016,0.25975 -0.463465,-0.29935 -0.19705,-1.04477 0.490006,-1.37105 0.277848,-1.91093 -0.777052,-1.97733 -0.381853,-0.024 -0.362817,-0.60608 0.02409,-0.73656 0.23649,-0.0798 0.177186,-0.11085 -0.150301,-0.0788 -0.361754,0.0354 -0.510909,0.17713 -0.450319,0.4279 0.04983,0.20623 0.08276,0.66072 0.07319,1.00997 -0.0096,0.34925 0.07342,0.76392 0.18442,0.92148 0.135236,0.19195 0.06701,0.32786 -0.206804,0.41192 -0.28201,0.0866 -0.400748,-0.002 -0.383201,-0.28648 0.01398,-0.22656 -0.103159,-0.38065 -0.260317,-0.34244 -0.318752,0.0775 -1.102262,-0.90974 -1.113444,-1.40298 -0.004,-0.17463 -0.153245,-0.3175 -0.331748,-0.3175 -0.484883,0 -0.391797,0.95671 0.111325,1.14417 0.239732,0.0893 0.37593,0.27627 0.302665,0.41543 -0.07327,0.13917 -0.28313,0.1855 -0.466364,0.10295 -0.183233,-0.0825 -0.569361,0.0316 -0.858062,0.25368 -0.413923,0.31839 -0.47216,0.47837 -0.275435,0.75664 0.137209,0.19408 0.186662,0.47218 0.109893,0.618 -0.07677,0.14582 -0.04996,0.26513 0.05955,0.26513 0.109523,0 0.152601,0.28575 0.09573,0.635 -0.06036,0.37067 -0.0028,0.635 0.138187,0.635 0.132876,0 0.241591,-0.1143 0.241591,-0.254 0,-0.1397 0.292096,-0.254 0.649102,-0.254 0.443653,0 0.6491,0.12533 0.6491,0.39599 0,0.2178 0.09736,0.32535 0.216367,0.23901 0.119002,-0.0863 0.216367,-0.50536 0.216367,-0.93117 0,-0.61884 0.0725,-0.74152 0.361344,-0.6114 0.199198,0.0897 0.440436,0.0164 0.537604,-0.16333 0.13722,-0.25387 0.176994,-0.25578 0.179574,-0.009 0.0017,0.17463 0.14936,0.3175 0.327863,0.3175 0.178503,0 0.32455,0.17145 0.32455,0.381 0,0.20955 0.146048,0.381 0.324551,0.381 0.39535,0 0.416334,0.29032 0.05409,0.74846 -0.216367,0.27366 -0.216367,0.30622 0,0.16282 0.162792,-0.1079 0.270459,-0.0311 0.270459,0.19295 0,0.24716 0.145386,0.32758 0.432733,0.23937 0.238004,-0.0731 0.432734,-0.18035 0.432734,-0.23841 z m 28.127702,0.16481 c 0,-0.1397 -0.103115,-0.254 -0.229135,-0.254 -0.12603,0 -0.168963,0.1143 -0.09542,0.254 0.07351,0.1397 0.176654,0.254 0.229136,0.254 0.05247,0 0.09541,-0.1143 0.09541,-0.254 z m -24.449464,-0.19755 c 0,-0.10865 -0.19473,-0.39328 -0.432734,-0.63251 -0.375568,-0.37751 -0.432733,-0.38298 -0.432733,-0.0415 0,0.21642 -0.09064,0.32774 -0.201416,0.24737 -0.11078,-0.0804 -0.258479,-0.0377 -0.32822,0.0947 -0.06974,0.13247 0.142603,0.28866 0.471876,0.34709 0.329272,0.0584 0.671701,0.12335 0.760953,0.14428 0.08925,0.0209 0.162274,-0.0508 0.162274,-0.15949 z m 101.991455,-0.76993 c 0.0595,-0.11301 -0.15382,-0.49576 -0.47405,-0.85054 l -0.58224,-0.64505 -0.0345,0.65924 c -0.0342,0.65371 0.22889,1.03045 0.72495,1.03794 0.14173,0.002 0.30638,-0.0886 0.36587,-0.20159 z M 53.937735,180.94382 c -0.240849,-0.43152 -0.437893,-0.56849 -0.579194,-0.40261 -0.141301,0.16588 -0.04244,0.45596 0.290602,0.85265 0.613045,0.73023 0.791784,0.4515 0.288592,-0.45004 z m 101.542895,0.45154 c 0.21359,-0.15902 0.147,-0.31586 -0.27047,-0.63696 -0.30461,-0.2343 -0.56599,-0.36622 -0.58087,-0.29314 -0.21908,1.07615 0.13523,1.46324 0.85134,0.9301 z m -79.798216,-0.28925 c 0,-0.1397 -0.09736,-0.254 -0.216367,-0.254 -0.119002,0 -0.216367,0.1143 -0.216367,0.254 0,0.1397 0.09736,0.254 0.216367,0.254 0.119002,0 0.216367,-0.1143 0.216367,-0.254 z m 103.423386,-0.254 c 0,-0.1397 -0.0974,-0.254 -0.21637,-0.254 -0.119,0 -0.21636,0.1143 -0.21636,0.254 0,0.1397 0.0974,0.254 0.21636,0.254 0.11901,0 0.21637,-0.1143 0.21637,-0.254 z m -48.68256,-0.254 c 0,-0.1397 -0.0974,-0.254 -0.21637,-0.254 -0.119,0 -0.21636,0.1143 -0.21636,0.254 0,0.1397 0.0974,0.254 0.21636,0.254 0.11901,0 0.21637,-0.1143 0.21637,-0.254 z m 23.36763,-0.015 c 0,-0.14794 0.0871,-0.20575 0.1937,-0.12845 0.10652,0.0773 0.24762,-0.0244 0.31352,-0.22608 0.0776,-0.23735 0.0154,-0.31958 -0.1762,-0.23324 -0.16283,0.0734 -0.53077,-0.0472 -0.81763,-0.26783 -0.28688,-0.22065 -0.58684,-0.32459 -0.66658,-0.23096 -0.24284,0.28506 -0.16188,1.05123 0.12545,1.18734 0.48231,0.22847 1.02774,0.17499 1.02774,-0.10078 z M 53.227132,179.78955 c -0.330504,-0.38799 -0.574376,-0.1017 -0.391067,0.45908 0.108235,0.33111 0.202068,0.36392 0.394554,0.13796 0.192486,-0.22597 0.191655,-0.36796 -0.0035,-0.59704 z m 72.593808,0.65511 c -0.0719,-0.0844 -0.25852,-0.0934 -0.41471,-0.02 -0.17259,0.0811 -0.12134,0.14127 0.13072,0.15345 0.22809,0.011 0.35588,-0.049 0.28399,-0.1334 z m -82.809933,-0.48155 c 0,-0.20955 -0.146048,-0.381 -0.324551,-0.381 -0.337872,0 -0.429266,0.30041 -0.180305,0.59267 0.248958,0.29226 0.504856,0.18497 0.504856,-0.21167 z m 31.880603,-0.011 c -0.07045,-0.21557 -0.174534,-0.33748 -0.23124,-0.2709 -0.05673,0.0666 -0.03893,0.24297 0.03953,0.39196 0.213343,0.40525 0.338043,0.32652 0.191741,-0.12106 z m 52.93523,0.13795 c 0,-0.1397 -0.10311,-0.254 -0.22914,-0.254 -0.12602,0 -0.16896,0.1143 -0.0954,0.254 0.0735,0.1397 0.17667,0.254 0.22914,0.254 0.0525,0 0.0954,-0.1143 0.0954,-0.254 z m 17.60397,-0.889 c 0.0862,-0.26381 -0.0147,-0.381 -0.3279,-0.381 -0.37763,0 -0.40791,0.063 -0.18309,0.381 0.14815,0.20955 0.2957,0.381 0.3279,0.381 0.0323,0 0.11458,-0.17145 0.18309,-0.381 z m 3.98314,-0.17463 c -0.13374,-0.47097 -0.59952,-0.54908 -0.59952,-0.10054 0,0.22119 0.15417,0.40217 0.34258,0.40217 0.18842,0 0.30404,-0.13573 0.25694,-0.30163 z M 42.361905,178.82011 c 0,-0.1397 -0.09737,-0.254 -0.216366,-0.254 -0.119002,0 -0.216367,0.1143 -0.216367,0.254 0,0.1397 0.09736,0.254 0.216367,0.254 0.119001,0 0.216366,-0.1143 0.216366,-0.254 z m -0.757283,-0.254 c 0.07355,-0.1397 -0.01807,-0.254 -0.203598,-0.254 -0.185526,0 -0.33732,0.1143 -0.33732,0.254 0,0.1397 0.09162,0.254 0.203598,0.254 0.111978,0 0.263772,-0.1143 0.33732,-0.254 z m 1.537747,-0.11965 c -0.07831,-0.62637 -0.347729,-0.76327 -0.347729,-0.17668 0,0.30268 0.08875,0.55033 0.197223,0.55033 0.108471,0 0.176198,-0.16814 0.150506,-0.37365 z m 16.676694,-0.43598 c -0.06908,-0.20262 -0.120338,-0.14243 -0.130723,0.15346 -0.0094,0.26776 0.04174,0.41778 0.113645,0.33338 0.07189,-0.0844 0.07956,-0.30348 0.01703,-0.48684 z m -17.315279,-0.92349 c -0.197034,-0.0452 -0.358245,-0.2452 -0.358245,-0.4445 0,-0.19931 -0.09736,-0.36238 -0.216367,-0.36238 -0.119002,0 -0.216367,0.17145 -0.216367,0.381 0,0.20955 0.09736,0.381 0.216367,0.381 0.119002,0 0.216367,0.18545 0.216367,0.4121 0,0.35457 0.05001,0.36343 0.358245,0.0635 0.333412,-0.32444 0.333412,-0.35429 0,-0.43072 z m 1.787961,0.36082 c 0.19349,-0.27369 0.187091,-0.3828 -0.0276,-0.47058 -0.410932,-0.16804 -0.820406,0.0681 -0.820406,0.47306 0,0.45773 0.523731,0.45621 0.848004,-0.003 z m -3.119857,-1.1677 c 0.07354,-0.1397 0.03061,-0.254 -0.09541,-0.254 -0.126026,0 -0.229138,0.1143 -0.229138,0.254 0,0.1397 0.04293,0.254 0.09541,0.254 0.05248,0 0.155589,-0.1143 0.229138,-0.254 z m 60.474552,-5.24728 c 0,-0.21126 -1.23708,0.66398 -1.53033,1.08272 -0.17464,0.24939 0.0907,0.13166 0.61077,-0.271 0.50576,-0.39157 0.91956,-0.75684 0.91956,-0.81172 z"
       id="path369" />
  </g>
</svg>
